<?xml version="1.0" encoding="UTF-8"?>
<svg width="10px" height="18px" viewBox="0 0 10 18" version="1.1" xmlns="http://www.w3.org/2000/svg" xmlns:xlink="http://www.w3.org/1999/xlink">
    <!-- Generator: Sketch 55.1 (78136) - https://sketchapp.com -->
    <title>social icon / facebook</title>
    <desc>Created with Sketch.</desc>
    <g id="💵-Fraudfix" stroke="none" stroke-width="1" fill="none" fill-rule="evenodd">
        <g id="Home" transform="translate(-1147.000000, -6427.000000)" fill="#9714F4">
            <g id="footer" transform="translate(259.000000, 6416.000000)">
                <g id="social" transform="translate(877.000000, 4.000000)">
                    <g id="social-icon-/-facebook">
                        <path d="M13.7070248,24.9999571 L13.7070248,16.949195 L11,16.949195 L11,13.7499839 L13.7070248,13.7499839 L13.7070248,11.2187399 C13.7070248,9.88280563 14.0820241,8.84569872 14.8320221,8.10741923 C15.5820201,7.36913974 16.5781119,7 17.8202962,7 C18.8281065,7 19.6484169,7.04687471 20.2812279,7.14062466 L20.2812279,9.98827413 L18.5937319,9.98827413 C17.9609209,9.98827413 17.5273284,10.1288988 17.2929537,10.4101481 C17.1054544,10.6445227 17.0117044,11.0195215 17.0117044,11.5351454 L17.0117044,13.7499839 L19.9999785,13.7499839 L19.5781045,16.949195 L17.0117044,16.949195 L17.0117044,24.9999571 L13.7070248,24.9999571 Z" id=""></path>
                    </g>
                </g>
            </g>
        </g>
    </g>
</svg>