<?xml version="1.0" encoding="UTF-8"?>
<svg width="18px" height="18px" viewBox="0 0 18 18" version="1.1" xmlns="http://www.w3.org/2000/svg" xmlns:xlink="http://www.w3.org/1999/xlink">
    <!-- Generator: Sketch 55.1 (78136) - https://sketchapp.com -->
    <title>social icon / facebook</title>
    <desc>Created with Sketch.</desc>
    <g id="💵-Fraudfix" stroke="none" stroke-width="1" fill="none" fill-rule="evenodd">
        <g id="Home" transform="translate(-1185.000000, -6427.000000)" fill="#9714F4">
            <g id="footer" transform="translate(259.000000, 6416.000000)">
                <g id="social" transform="translate(877.000000, 4.000000)">
                    <g id="social-icon-/-google" transform="translate(42.000000, 0.000000)">
                        <path d="M24.1562091,15.9296662 C24.1562091,17.5702875 23.8046474,19.0351274 23.1015241,20.324187 C22.3984008,21.6132466 21.4081686,22.6210563 20.1308281,23.3476173 C18.8534875,24.0741782 17.3827876,24.4374584 15.7187292,24.4374584 C14.1484203,24.4374584 12.6952989,24.0448811 11.3593646,23.2597269 C10.0234303,22.4745727 8.96288577,21.4140281 8.17773157,20.0780938 C7.39257737,18.7421595 7,17.2890381 7,15.7187292 C7,14.1484203 7.39257737,12.6952989 8.17773157,11.3593646 C8.96288577,10.0234303 10.0234303,8.96288577 11.3593646,8.17773157 C12.6952989,7.39257737 14.1484203,7 15.7187292,7 C17.9921615,7 19.9374692,7.76171711 21.5546528,9.2851508 L19.1991897,11.5703016 C18.4491916,10.8437407 17.5468499,10.4101481 16.4921649,10.2695235 C15.5077922,10.1288988 14.5351381,10.2695235 13.5742031,10.6913974 C12.613268,11.1132714 11.8398324,11.7460824 11.2538961,12.5898304 C10.6210851,13.5038907 10.3046796,14.5468572 10.3046796,15.7187292 C10.3046796,16.7265395 10.5507728,17.6464588 11.0429591,18.4784883 C11.5351454,19.3105177 12.1913941,19.9784849 13.0117044,20.4823897 C13.8320148,20.9862946 14.7343566,21.2382473 15.7187292,21.2382473 C16.7734142,21.2382473 17.6991931,21.0038727 18.4960663,20.535124 C19.1288773,20.1601247 19.6562198,19.6562198 20.0780938,19.0234088 C20.3827808,18.5077849 20.5819987,17.9921615 20.6757486,17.4765375 L15.7187292,17.4765375 L15.7187292,14.4531072 L24.0155844,14.4531072 C24.1093344,14.9687312 24.1562091,15.4609175 24.1562091,15.9296662 Z" id=""></path>
                    </g>
                </g>
            </g>
        </g>
    </g>
</svg>