<?xml version="1.0" encoding="UTF-8"?>
<svg width="16px" height="16px" viewBox="0 0 16 16" version="1.1" xmlns="http://www.w3.org/2000/svg" xmlns:xlink="http://www.w3.org/1999/xlink">
    <!-- Generator: Sketch 55.1 (78136) - https://sketchapp.com -->
    <title>social icon / facebook</title>
    <desc>Created with Sketch.</desc>
    <g id="💵-Fraudfix" stroke="none" stroke-width="1" fill="none" fill-rule="evenodd">
        <g id="Home" transform="translate(-1270.000000, -6428.000000)" fill="#9714F4">
            <g id="footer" transform="translate(259.000000, 6416.000000)">
                <g id="social" transform="translate(877.000000, 4.000000)">
                    <g id="social-icon-/-instagram" transform="translate(126.000000, 0.000000)">
                        <path d="M15.8749812,11.8320221 C16.6015422,11.8320221 17.2753683,12.0136625 17.8964608,12.3769427 C18.5175532,12.7402229 19.0097396,13.2324092 19.3730198,13.8535017 C19.7363,14.4745941 19.9179403,15.1484203 19.9179403,15.8749812 C19.9179403,16.6015422 19.7363,17.2753683 19.3730198,17.8964608 C19.0097396,18.5175532 18.5175532,19.0097396 17.8964608,19.3730198 C17.2753683,19.7363 16.6015422,19.9179403 15.8749812,19.9179403 C15.1484203,19.9179403 14.4745941,19.7363 13.8535017,19.3730198 C13.2324092,19.0097396 12.7402229,18.5175532 12.3769427,17.8964608 C12.0136625,17.2753683 11.8320221,16.6015422 11.8320221,15.8749812 C11.8320221,15.1484203 12.0136625,14.4745941 12.3769427,13.8535017 C12.7402229,13.2324092 13.2324092,12.7402229 13.8535017,12.3769427 C14.4745941,12.0136625 15.1484203,11.8320221 15.8749812,11.8320221 Z M15.8749812,18.5116937 C16.6015422,18.5116937 17.2226341,18.253882 17.738258,17.738258 C18.253882,17.2226341 18.5116937,16.6015422 18.5116937,15.8749812 C18.5116937,15.1484203 18.253882,14.5273284 17.738258,14.0117044 C17.2226341,13.4960805 16.6015422,13.2382688 15.8749812,13.2382688 C15.1484203,13.2382688 14.5273284,13.4960805 14.0117044,14.0117044 C13.4960805,14.5273284 13.2382688,15.1484203 13.2382688,15.8749812 C13.2382688,16.6015422 13.4960805,17.2226341 14.0117044,17.738258 C14.5273284,18.253882 15.1484203,18.5116937 15.8749812,18.5116937 Z M21.0429377,11.6562413 C21.0195,11.914053 20.9198911,12.1367091 20.7441102,12.3242084 C20.5683294,12.5117078 20.3515329,12.6054578 20.0937212,12.6054578 C19.8359095,12.6054578 19.6132534,12.5117078 19.425754,12.3242084 C19.2382546,12.1367091 19.1445047,11.914053 19.1445047,11.6562413 C19.1445047,11.3984296 19.2382546,11.1757735 19.425754,10.9882741 C19.6132534,10.8007748 19.8359095,10.7070248 20.0937212,10.7070248 C20.3515329,10.7070248 20.5741889,10.8007748 20.7616883,10.9882741 C20.9491877,11.1757735 21.0429377,11.3984296 21.0429377,11.6562413 Z M23.7148063,12.6054578 C23.7382439,13.2617064 23.7499624,14.3515475 23.7499624,15.8749812 C23.7499624,17.3984149 23.7323844,18.4941156 23.6972282,19.1620828 C23.662072,19.8300499 23.5624631,20.4101267 23.3984008,20.902313 C23.1874638,21.4882493 22.8651988,21.9980137 22.4316062,22.4316062 C21.9980137,22.8651988 21.4882493,23.1874638 20.902313,23.3984008 C20.4101267,23.5624631 19.8300499,23.662072 19.1620828,23.6972282 C18.4941156,23.7323844 17.3984149,23.7499624 15.8749812,23.7499624 C14.3515475,23.7499624 13.2558468,23.7323844 12.5878797,23.6972282 C11.9199125,23.662072 11.3398358,23.550744 10.8476495,23.3632446 C10.2617132,23.1757452 9.75194877,22.8651988 9.31835623,22.4316062 C8.88476369,21.9980137 8.56249866,21.4882493 8.35156166,20.902313 C8.18749937,20.4101267 8.08789042,19.8300499 8.05273425,19.1620828 C8.01757808,18.4941156 8,17.3984149 8,15.8749812 C8,14.3515475 8.01757808,13.2558468 8.05273425,12.5878797 C8.08789042,11.9199125 8.18749937,11.3398358 8.35156166,10.8476495 C8.56249866,10.2617132 8.88476369,9.75194877 9.31835623,9.31835623 C9.75194877,8.88476369 10.2617132,8.56249866 10.8476495,8.35156166 C11.3398358,8.18749937 11.9199125,8.08789042 12.5878797,8.05273425 C13.2558468,8.01757808 14.3515475,8 15.8749812,8 C17.3984149,8 18.4941156,8.01757808 19.1620828,8.05273425 C19.8300499,8.08789042 20.4101267,8.18749937 20.902313,8.35156166 C21.4882493,8.56249866 21.9980137,8.88476369 22.4316062,9.31835623 C22.8651988,9.75194877 23.1874638,10.2617132 23.3984008,10.8476495 C23.5624631,11.3398358 23.6679316,11.9257721 23.7148063,12.6054578 Z M22.0273103,20.5155952 C22.167935,20.1171588 22.2616849,19.4843478 22.3085596,18.6171622 C22.3319973,18.1015382 22.3437158,17.3749778 22.3437158,16.4374799 L22.3437158,15.3124826 C22.3437158,14.3515475 22.3319973,13.6249866 22.3085596,13.1328003 C22.2616849,12.2421776 22.167935,11.6093666 22.0273103,11.2343673 C21.746061,10.5078063 21.2421561,10.0039015 20.5155952,9.72265214 C20.1405959,9.58202748 19.5077849,9.48827752 18.6171622,9.44140281 C18.1015382,9.41796519 17.3749778,9.40624665 16.4374799,9.40624665 L15.3124826,9.40624665 C14.3749846,9.40624665 13.6484242,9.41796519 13.1328003,9.44140281 C12.2656147,9.48827752 11.6328037,9.58202748 11.2343673,9.72265214 C10.5078063,10.0039015 10.0039015,10.5078063 9.72265214,11.2343673 C9.58202748,11.6093666 9.48827752,12.2421776 9.44140281,13.1328003 C9.41796519,13.6484242 9.40624665,14.3749846 9.40624665,15.3124826 L9.40624665,16.4374799 C9.40624665,17.3749778 9.41796519,18.1015382 9.44140281,18.6171622 C9.48827752,19.4843478 9.58202748,20.1171588 9.72265214,20.5155952 C10.0273391,21.2421561 10.531244,21.746061 11.2343673,22.0273103 C11.6328037,22.167935 12.2656147,22.2616849 13.1328003,22.3085596 C13.6484242,22.3319973 14.3749846,22.3437158 15.3124826,22.3437158 L16.4374799,22.3437158 C17.3984149,22.3437158 18.1249759,22.3319973 18.6171622,22.3085596 C19.5077849,22.2616849 20.1405959,22.167935 20.5155952,22.0273103 C21.2421561,21.7226234 21.746061,21.2187185 22.0273103,20.5155952 Z" id=""></path>
                    </g>
                </g>
            </g>
        </g>
    </g>
</svg>