<?xml version="1.0" encoding="UTF-8"?>
<svg width="16px" height="16px" viewBox="0 0 16 16" version="1.1" xmlns="http://www.w3.org/2000/svg" xmlns:xlink="http://www.w3.org/1999/xlink">
    <!-- Generator: Sketch 55.1 (78136) - https://sketchapp.com -->
    <title>social icon / facebook</title>
    <desc>Created with Sketch.</desc>
    <g id="💵-Fraudfix" stroke="none" stroke-width="1" fill="none" fill-rule="evenodd">
        <g id="Home" transform="translate(-1315.000000, -6428.000000)" fill="#9714F4">
            <g id="footer" transform="translate(259.000000, 6416.000000)">
                <g id="social" transform="translate(877.000000, 4.000000)">
                    <g id="social-icon-/-linkedin" transform="translate(171.000000, 0.000000)">
                        <path d="M11.5156166,23.7499624 L8.24609316,23.7499624 L8.24609316,13.2382688 L11.5156166,13.2382688 L11.5156166,23.7499624 Z M9.89843297,11.7968659 C9.38280902,11.7968659 8.93749794,11.6093666 8.56249866,11.2343673 C8.18749937,10.859368 8,10.4140569 8,9.89843297 C8,9.38280902 8.18749937,8.93749794 8.56249866,8.56249866 C8.93749794,8.18749937 9.38280902,8 9.89843297,8 C10.4140569,8 10.859368,8.18749937 11.2343673,8.56249866 C11.6093666,8.93749794 11.7968659,9.38280902 11.7968659,9.89843297 C11.7968659,10.4140569 11.6093666,10.859368 11.2343673,11.2343673 C10.859368,11.6093666 10.4140569,11.7968659 9.89843297,11.7968659 Z M23.7499624,23.7499624 L20.480439,23.7499624 L20.480439,18.6171622 C20.480439,17.7734142 20.4101267,17.1640408 20.269502,16.7890415 C20.0116903,16.1562306 19.5077849,15.8398251 18.7577869,15.8398251 C18.0077888,15.8398251 17.4804463,16.1210744 17.1757594,16.683573 C16.9413848,17.105447 16.8241977,17.7265395 16.8241977,18.5468499 L16.8241977,23.7499624 L13.5898304,23.7499624 L13.5898304,13.2382688 L16.7187292,13.2382688 L16.7187292,14.6796716 L16.7538854,14.6796716 C16.98826,14.2109229 17.3632587,13.824205 17.8788827,13.5195181 C18.4413814,13.1445188 19.09763,12.9570194 19.847628,12.9570194 C21.3710617,12.9570194 22.4374658,13.4374872 23.0468391,14.3984222 C23.5155878,15.1718579 23.7499624,16.3671676 23.7499624,17.9843512 L23.7499624,23.7499624 Z" id=""></path>
                    </g>
                </g>
            </g>
        </g>
    </g>
</svg>