<?xml version="1.0" encoding="UTF-8"?>
<svg width="18px" height="15px" viewBox="0 0 18 15" version="1.1" xmlns="http://www.w3.org/2000/svg" xmlns:xlink="http://www.w3.org/1999/xlink">
    <!-- Generator: Sketch 55.1 (78136) - https://sketchapp.com -->
    <title>social icon / facebook</title>
    <desc>Created with Sketch.</desc>
    <g id="💵-Fraudfix" stroke="none" stroke-width="1" fill="none" fill-rule="evenodd">
        <g id="Home" transform="translate(-1227.000000, -6429.000000)" fill="#9714F4">
            <g id="footer" transform="translate(259.000000, 6416.000000)">
                <g id="social" transform="translate(877.000000, 4.000000)">
                    <g id="social-icon-/-twitter" transform="translate(84.000000, 0.000000)">
                        <path d="M23.1366803,12.6562413 C23.1601179,12.7499912 23.1718364,12.9023344 23.1718364,13.1132714 C23.1718364,14.8007674 22.761681,16.4296696 21.9413706,17.9999785 C21.0976226,19.6640369 19.9140315,20.9882527 18.3905978,21.9726253 C16.7265395,23.074185 14.8163874,23.6249651 12.6601428,23.6249651 C10.5976475,23.6249651 8.7109336,23.074185 7,21.9726253 C7.25781171,21.9960629 7.55078012,22.0077815 7.87890415,22.0077815 C9.58983775,22.0077815 11.12499,21.480439 12.4843619,20.425754 C11.6640516,20.425754 10.9433502,20.1855204 10.3222577,19.7050526 C9.70116526,19.2245848 9.27343226,18.621071 9.03905764,17.89451 C9.27343226,17.9179477 9.4960878,17.9296662 9.7070248,17.9296662 C10.0351488,17.9296662 10.3632734,17.89451 10.6913974,17.8241977 C9.84764946,17.6366983 9.14452614,17.2031053 8.58202748,16.5234196 C8.01952882,15.8437339 7.73827949,15.0702982 7.73827949,14.2031126 L7.73827949,14.1328003 C8.25390344,14.4374872 8.80468302,14.601549 9.3906193,14.6249866 C8.89843297,14.2734249 8.5,13.8281133 8.19530965,13.2890523 C7.8906227,12.7499912 7.73827949,12.1581954 7.73827949,11.5136659 C7.73827949,10.8691363 7.91406032,10.2539034 8.26562198,9.66796716 C9.1796823,10.8164021 10.2988201,11.7304624 11.6230359,12.4101481 C12.9472516,13.0898338 14.3593573,13.4648331 15.8593539,13.5351454 C15.8124792,13.2538961 15.7890415,12.9726468 15.7890415,12.6913974 C15.7890415,12.0351488 15.9531038,11.4199159 16.2812279,10.8456987 C16.6093519,10.2714815 17.0546635,9.82031037 17.6171622,9.49218633 C18.1796608,9.16406229 18.7890342,9 19.4452828,9 C19.9843439,9 20.4823897,9.1054685 20.9394199,9.3164055 C21.3964501,9.52734249 21.800746,9.80859182 22.1523076,10.1601535 C22.9960556,9.9960912 23.7812098,9.70312332 24.5077708,9.28124933 C24.2265214,10.1484349 23.6874604,10.8281206 22.8905871,11.320307 C23.5937104,11.226557 24.2968338,11.0273391 24.9999571,10.7226521 C24.4843331,11.4726502 23.8632412,12.1171802 23.1366803,12.6562413 Z" id=""></path>
                    </g>
                </g>
            </g>
        </g>
    </g>
</svg>