<?xml version="1.0" encoding="UTF-8"?>
<svg width="78px" height="79px" viewBox="0 0 78 79" version="1.1" xmlns="http://www.w3.org/2000/svg" xmlns:xlink="http://www.w3.org/1999/xlink">
    <!-- Generator: Sketch 55.1 (78136) - https://sketchapp.com -->
    <title>chart / landing 2</title>
    <desc>Created with Sketch.</desc>
    <g id="💵-Fraudfix" stroke="none" stroke-width="1" fill="none" fill-rule="evenodd">
        <g id="Home" transform="translate(-623.000000, -5644.000000)" fill-rule="nonzero">
            <g id="stats" transform="translate(260.000000, 5569.000000)">
                <g id="2" transform="translate(366.000000, 78.000000)">
                    <g id="chart-/-landing-2">
                        <path d="M31.966,32.306 C32.1860011,32.9220031 32.296,33.6333293 32.296,34.44 L32.296,41.216 C32.296,42.4186727 31.8780042,43.3793297 31.042,44.098 C30.2059958,44.8166703 29.1133401,45.176 27.764,45.176 C26.8986623,45.176 26.1323367,45.0146683 25.465,44.692 C24.7976633,44.3693317 24.2806685,43.9183362 23.914,43.339 C23.5473315,42.7596638 23.364,42.0960037 23.364,41.348 L23.364,40.908 C23.364,40.7613326 23.4373326,40.688 23.584,40.688 L25.256,40.688 C25.4026674,40.688 25.476,40.7613326 25.476,40.908 L25.476,41.106 C25.476,41.7660033 25.6886645,42.3013313 26.114,42.712 C26.5393355,43.1226687 27.08933,43.328 27.764,43.328 C28.4680035,43.328 29.0473311,43.1153355 29.502,42.69 C29.9566689,42.2646645 30.184,41.7000035 30.184,40.996 L30.184,38.224 C30.184,38.1946665 30.1730001,38.1726667 30.151,38.158 C30.1289999,38.1433333 30.1033335,38.1506665 30.074,38.18 C29.4433302,38.8986703 28.5266727,39.258 27.324,39.258 C26.4586623,39.258 25.7143365,39.0820018 25.091,38.73 C24.4676636,38.3779982 23.9800018,37.86467 23.628,37.19 C23.2173313,36.4126628 23.012,35.4813388 23.012,34.396 C23.012,33.5159956 23.1513319,32.7313368 23.43,32.042 C23.767335,31.2059958 24.2953297,30.5643356 25.014,30.117 C25.7326703,29.6696644 26.5979949,29.446 27.61,29.446 C28.6953388,29.446 29.6119963,29.6953308 30.36,30.194 C31.1080037,30.6926692 31.6433317,31.3966621 31.966,32.306 Z M29.832,36.156 C30.0666678,35.6719976 30.184,35.0486705 30.184,34.286 C30.184,33.6699969 30.0886676,33.1493355 29.898,32.724 C29.7073324,32.2546643 29.4213352,31.8990012 29.04,31.657 C28.6586648,31.4149988 28.1966694,31.294 27.654,31.294 C27.1113306,31.294 26.6530019,31.4149988 26.279,31.657 C25.9049981,31.8990012 25.6300009,32.2473311 25.454,32.702 C25.2339989,33.1566689 25.124,33.72133 25.124,34.396 C25.124,35.129337 25.2486654,35.7306643 25.498,36.2 C25.9526689,37.0506709 26.6713284,37.476 27.654,37.476 C28.6953385,37.476 29.4213313,37.0360044 29.832,36.156 Z M43.538,38.422 C43.8460015,39.0380031 44,39.7713291 44,40.622 C44,41.5606714 43.7946687,42.3819965 43.384,43.086 C43.0319982,43.7460033 42.5076701,44.2593315 41.811,44.626 C41.1143298,44.9926685 40.2966714,45.176 39.358,45.176 C38.4193286,45.176 37.5906703,44.9890019 36.872,44.615 C36.1533297,44.2409981 35.6106685,43.7020035 35.244,42.998 C34.847998,42.3086632 34.65,41.5093379 34.65,40.6 C34.65,39.7933293 34.8113317,39.05267 35.134,38.378 C35.4566683,37.70333 35.9333302,37.197335 36.564,36.86 C36.6373337,36.8306665 36.6373337,36.7940002 36.564,36.75 C36.0946643,36.3979982 35.7426678,36.0313352 35.508,35.65 C35.0973313,35.0339969 34.892,34.330004 34.892,33.538 C34.892,32.6726623 35.1413308,31.8806703 35.64,31.162 C36.0066685,30.6046639 36.5163301,30.1646683 37.169,29.842 C37.8216699,29.5193317 38.5513293,29.358 39.358,29.358 C40.1793374,29.358 40.9053302,29.5193317 41.536,29.842 C42.1666698,30.1646683 42.6653315,30.6046639 43.032,31.162 C43.5160024,31.8806703 43.758,32.6726623 43.758,33.538 C43.758,34.330004 43.5526687,35.0486634 43.142,35.694 C42.8779987,36.1046687 42.5333355,36.4566652 42.108,36.75 C42.0346663,36.7940002 42.0346663,36.8306665 42.108,36.86 C42.7240031,37.197335 43.200665,37.7179965 43.538,38.422 Z M37.29,32.416 C37.0846656,32.7973352 36.982,33.1713315 36.982,33.538 C36.982,34.1246696 37.1213319,34.615998 37.4,35.012 C37.796002,35.6720033 38.4413289,36.002 39.336,36.002 C40.2160044,36.002 40.8686645,35.66467 41.294,34.99 C41.5433346,34.6379982 41.668,34.1466698 41.668,33.516 C41.668,33.1053313 41.5726676,32.731335 41.382,32.394 C41.1913324,32.0273315 40.9200018,31.7340011 40.568,31.514 C40.2159982,31.2939989 39.7980024,31.184 39.314,31.184 C38.8593311,31.184 38.4560018,31.2939989 38.104,31.514 C37.7519982,31.7340011 37.4806676,32.0346648 37.29,32.416 Z M41.36,42.338 C41.697335,41.8686643 41.866,41.238004 41.866,40.446 C41.866,39.7419965 41.7413346,39.1626689 41.492,38.708 C41.0813313,37.9453295 40.3626718,37.564 39.336,37.564 C38.3386617,37.564 37.6346687,37.9233297 37.224,38.642 C36.9453319,39.1113357 36.806,39.7199963 36.806,40.468 C36.806,41.201337 36.9599985,41.8026643 37.268,42.272 C37.6933355,42.9760035 38.3899952,43.328 39.358,43.328 C40.2673379,43.328 40.9346645,42.9980033 41.36,42.338 Z" id="98" fill="#11062F"></path>
                        <path d="M49.094,33.475 C48.7559983,33.475 48.4440014,33.3926675 48.158,33.228 C47.8719986,33.0633325 47.6445008,32.8401681 47.4755,32.5585 C47.3064992,32.2768319 47.222,31.9670017 47.222,31.629 C47.222,31.2909983 47.3064992,30.9811681 47.4755,30.6995 C47.6445008,30.4178319 47.8719986,30.1946675 48.158,30.03 C48.4440014,29.8653325 48.7559983,29.783 49.094,29.783 C49.4320017,29.783 49.7439986,29.8653325 50.03,30.03 C50.3160014,30.1946675 50.5413325,30.4178319 50.706,30.6995 C50.8706675,30.9811681 50.953,31.2909983 50.953,31.629 C50.953,31.9670017 50.8706675,32.2768319 50.706,32.5585 C50.5413325,32.8401681 50.3160014,33.0633325 50.03,33.228 C49.7439986,33.3926675 49.4320017,33.475 49.094,33.475 Z M48.795,39 C48.7429997,39 48.7083334,38.9848335 48.691,38.9545 C48.6736666,38.9241665 48.6779999,38.8873336 48.704,38.844 L53.631,29.991 C53.6743336,29.930333 53.726333,29.9 53.787,29.9 L54.203,29.9 C54.2550003,29.9 54.2896666,29.9151665 54.307,29.9455 C54.3243334,29.9758335 54.3200001,30.0126664 54.294,30.056 L49.38,38.909 C49.3539999,38.969667 49.3020004,39 49.224,39 L48.795,39 Z M49.094,32.877 C49.4406684,32.877 49.7331655,32.7556679 49.9715,32.513 C50.2098345,32.2703321 50.329,31.9756684 50.329,31.629 C50.329,31.2823316 50.2098345,30.9876679 49.9715,30.745 C49.7331655,30.5023321 49.4406684,30.381 49.094,30.381 C48.7473316,30.381 48.4526679,30.5001655 48.21,30.7385 C47.9673321,30.9768345 47.846,31.2736649 47.846,31.629 C47.846,31.9756684 47.9673321,32.2703321 48.21,32.513 C48.4526679,32.7556679 48.7473316,32.877 49.094,32.877 Z M53.982,39.117 C53.6439983,39.117 53.3320014,39.0346675 53.046,38.87 C52.7599986,38.7053325 52.5325008,38.4800014 52.3635,38.194 C52.1944992,37.9079986 52.11,37.5960017 52.11,37.258 C52.11,36.928665 52.1944992,36.6231681 52.3635,36.3415 C52.5325008,36.0598319 52.7599986,35.8366675 53.046,35.672 C53.3320014,35.5073325 53.6439983,35.425 53.982,35.425 C54.311335,35.425 54.6189986,35.5073325 54.905,35.672 C55.1910014,35.8366675 55.4163325,36.0598319 55.581,36.3415 C55.7456675,36.6231681 55.828,36.928665 55.828,37.258 C55.828,37.5960017 55.7456675,37.9079986 55.581,38.194 C55.4163325,38.4800014 55.1931681,38.7053325 54.9115,38.87 C54.6298319,39.0346675 54.3200017,39.117 53.982,39.117 Z M53.982,38.519 C54.3286684,38.519 54.6211655,38.3976679 54.8595,38.155 C55.0978345,37.9123321 55.217,37.6133351 55.217,37.258 C55.217,36.9113316 55.0956679,36.6188345 54.853,36.3805 C54.6103321,36.1421655 54.3200017,36.023 53.982,36.023 C53.6266649,36.023 53.3276679,36.1421655 53.085,36.3805 C52.8423321,36.6188345 52.721,36.9113316 52.721,37.258 C52.721,37.6133351 52.8423321,37.9123321 53.085,38.155 C53.3276679,38.3976679 53.6266649,38.519 53.982,38.519 Z" id="%" fill="#9B8FBC"></path>
                        <ellipse id="Oval" stroke-opacity="0.1" stroke="#655C7A" stroke-width="4" cx="36" cy="36.5" rx="36" ry="36.5"></ellipse>
                        <path d="M27.0058594,1.26757813 C11.0517578,5 0,22.2126603 0,36.5 C0,56.6583934 16.117749,73 36,73 C55.882251,73 72,56.6583934 72,36.5 C72,16.3416066 55.882251,0 36,0" id="Path" stroke="" stroke-width="6" stroke-linecap="round"></path>
                    </g>
                </g>
            </g>
        </g>
    </g>
</svg>