<?xml version="1.0" encoding="UTF-8"?>
<svg width="78px" height="79px" viewBox="0 0 78 79" version="1.1" xmlns="http://www.w3.org/2000/svg" xmlns:xlink="http://www.w3.org/1999/xlink">
    <!-- Generator: Sketch 55.1 (78136) - https://sketchapp.com -->
    <title>chart / landing 3</title>
    <desc>Created with Sketch.</desc>
    <defs>
        <linearGradient x1="91.031237%" y1="7.82109148%" x2="7.66294289%" y2="93.5212533%" id="linearGradient-1">
            <stop stop-color="#F3F6B5" offset="0%"></stop>
            <stop stop-color="#E6ED4A" offset="100%"></stop>
        </linearGradient>
    </defs>
    <g id="💵-Fraudfix" stroke="none" stroke-width="1" fill="none" fill-rule="evenodd">
        <g id="Home" transform="translate(-986.000000, -5644.000000)" fill-rule="nonzero">
            <g id="stats" transform="translate(260.000000, 5569.000000)">
                <g id="3" transform="translate(729.000000, 78.000000)">
                    <g id="chart-/-landing-3">
                        <path d="M23.64,29.264 C23.7280004,29.2199998 23.8233328,29.198 23.926,29.198 L25.664,29.198 C25.8106674,29.198 25.884,29.2713326 25.884,29.418 L25.884,44.378 C25.884,44.5246674 25.8106674,44.598 25.664,44.598 L23.992,44.598 C23.8453326,44.598 23.772,44.5246674 23.772,44.378 L23.772,31.464 C23.772,31.4346665 23.7610001,31.4126667 23.739,31.398 C23.7169999,31.3833333 23.6913335,31.3833333 23.662,31.398 L21.352,32.19 C21.3226665,32.2046667 21.2860002,32.212 21.242,32.212 C21.1539996,32.212 21.1026667,32.1533339 21.088,32.036 L21,30.782 C21,30.6353326 21.0439996,30.5473335 21.132,30.518 L23.64,29.264 Z M33.848,44.818 C32.3666593,44.818 31.189671,44.3963375 30.317,43.553 C29.444329,42.7096624 29.008,41.5766738 29.008,40.154 L29.008,33.642 C29.008,32.2193262 29.444329,31.0900042 30.317,30.254 C31.189671,29.4179958 32.3666593,29 33.848,29 C35.3293407,29 36.5136622,29.4179958 37.401,30.254 C38.2883378,31.0900042 38.732,32.2193262 38.732,33.642 L38.732,40.154 C38.732,41.5766738 38.2883378,42.7096624 37.401,43.553 C36.5136622,44.3963375 35.3293407,44.818 33.848,44.818 Z M33.848,42.992 C34.6986709,42.992 35.3733308,42.7463358 35.872,42.255 C36.3706692,41.7636642 36.62,41.1073374 36.62,40.286 L36.62,33.554 C36.62,32.7326626 36.3706692,32.0763358 35.872,31.585 C35.3733308,31.0936642 34.6986709,30.848 33.848,30.848 C33.0266626,30.848 32.3666692,31.0936642 31.868,31.585 C31.3693308,32.0763358 31.12,32.7326626 31.12,33.554 L31.12,40.286 C31.12,41.1073374 31.3693308,41.7636642 31.868,42.255 C32.3666692,42.7463358 33.0266626,42.992 33.848,42.992 Z M46.3,44.818 C44.8186593,44.818 43.641671,44.3963375 42.769,43.553 C41.896329,42.7096624 41.46,41.5766738 41.46,40.154 L41.46,33.642 C41.46,32.2193262 41.896329,31.0900042 42.769,30.254 C43.641671,29.4179958 44.8186593,29 46.3,29 C47.7813407,29 48.9656622,29.4179958 49.853,30.254 C50.7403378,31.0900042 51.184,32.2193262 51.184,33.642 L51.184,40.154 C51.184,41.5766738 50.7403378,42.7096624 49.853,43.553 C48.9656622,44.3963375 47.7813407,44.818 46.3,44.818 Z M46.3,42.992 C47.1506709,42.992 47.8253308,42.7463358 48.324,42.255 C48.8226692,41.7636642 49.072,41.1073374 49.072,40.286 L49.072,33.554 C49.072,32.7326626 48.8226692,32.0763358 48.324,31.585 C47.8253308,31.0936642 47.1506709,30.848 46.3,30.848 C45.4786626,30.848 44.8186692,31.0936642 44.32,31.585 C43.8213308,32.0763358 43.572,32.7326626 43.572,33.554 L43.572,40.286 C43.572,41.1073374 43.8213308,41.7636642 44.32,42.255 C44.8186692,42.7463358 45.4786626,42.992 46.3,42.992 Z" id="100" fill="#11062F"></path>
                        <ellipse id="Oval" stroke-opacity="0.1" stroke="#655C7A" stroke-width="4" cx="36" cy="36.5" rx="36" ry="36.5"></ellipse>
                        <ellipse id="Oval" stroke="url(#linearGradient-1)" stroke-width="6" stroke-linecap="round" cx="36" cy="36.5" rx="36" ry="36.5"></ellipse>
                    </g>
                </g>
            </g>
        </g>
    </g>
</svg>