<?xml version="1.0" encoding="UTF-8"?>
<svg width="40px" height="40px" viewBox="0 0 40 40" version="1.1" xmlns="http://www.w3.org/2000/svg" xmlns:xlink="http://www.w3.org/1999/xlink">
    <!-- Generator: Sketch 55.1 (78136) - https://sketchapp.com -->
    <title>icon / phone</title>
    <desc>Created with Sketch.</desc>
    <defs>
        <linearGradient x1="50%" y1="0%" x2="50%" y2="100%" id="linearGradient-1">
            <stop stop-color="#6FF0B3" offset="0%"></stop>
            <stop stop-color="#3CDC7C" offset="100%"></stop>
        </linearGradient>
    </defs>
    <g id="💵-Fraudfix" stroke="none" stroke-width="1" fill="none" fill-rule="evenodd">
        <g id="Contact-Us" transform="translate(-259.000000, -956.000000)">
            <g id="about-us" transform="translate(-1008.000000, 260.000000)">
                <g id="phone" transform="translate(1267.000000, 694.000000)">
                    <g id="icon-/-phone" transform="translate(0.000000, 2.000000)">
                        <g id="icon">
                            <circle id="Oval" fill="url(#linearGradient-1)" fill-rule="nonzero" cx="20" cy="20" r="20"></circle>
                            <path d="M27.2857297,24.9366855 C27.2857297,25.3092508 27.1201451,26.0336834 26.9649096,26.3752016 C26.7475798,26.8823045 26.1680337,27.2134736 25.7023271,27.4721996 C25.0917339,27.8033687 24.4707917,28.0000004 23.7774062,28.0000004 C22.8149458,28.0000004 21.9456267,27.606737 21.0659585,27.2859169 C20.4346673,27.0582381 19.8240741,26.7788141 19.2548771,26.4269468 C17.4955408,25.340298 15.3739882,23.2187454 14.2873393,21.4594091 C13.9354721,20.8902121 13.6560481,20.2796189 13.4283693,19.6483276 C13.1075491,18.7686595 12.7142857,17.8993404 12.7142857,16.93688 C12.7142857,16.2434945 12.9109174,15.6225523 13.2420866,15.0119591 C13.5008125,14.5462524 13.8319817,13.9667064 14.3390845,13.7493766 C14.6806027,13.594141 15.4050353,13.4285564 15.7776006,13.4285564 C15.8500439,13.4285564 15.9224872,13.4285564 15.9949304,13.4596036 C16.2122602,13.5320468 16.439939,14.0391496 16.5434294,14.2461304 C16.8745986,14.8360255 17.1954187,15.4362696 17.5369369,16.0158157 C17.7025215,16.2848906 18.0129926,16.6160598 18.0129926,16.93688 C18.0129926,17.5681712 16.1398169,18.4892355 16.1398169,19.0480835 C16.1398169,19.3275075 16.3985429,19.6897238 16.5434294,19.9381007 C17.5886821,21.8216254 18.8926608,23.125604 20.7761855,24.1708568 C21.0245624,24.3157433 21.3867787,24.5744692 21.6662027,24.5744692 C22.2250507,24.5744692 23.1461149,22.7012935 23.7774062,22.7012935 C24.0982263,22.7012935 24.4293955,23.0117646 24.6984705,23.1773492 C25.2780165,23.5188675 25.8782607,23.8396876 26.4681558,24.1708568 C26.6751365,24.2743471 27.1822393,24.502026 27.2546826,24.7193557 C27.2857297,24.791799 27.2857297,24.8642423 27.2857297,24.9366855 Z" id="" fill="#FFFFFF"></path>
                        </g>
                    </g>
                </g>
            </g>
        </g>
    </g>
</svg>