<svg xmlns="http://www.w3.org/2000/svg" xmlns:xlink="http://www.w3.org/1999/xlink" width="32" height="32" viewBox="0 0 32 32">
    <defs>
        <path id="a" d="M18.929 14.679a4.255 4.255 0 0 0-4.25-4.25 4.255 4.255 0 0 0-4.25 4.25 4.255 4.255 0 0 0 4.25 4.25 4.255 4.255 0 0 0 4.25-4.25zm4.857 7.892c0 .665-.55 1.215-1.215 1.215a1.19 1.19 0 0 1-.853-.36l-3.254-3.245A6.676 6.676 0 0 1 8 14.679 6.676 6.676 0 0 1 14.679 8a6.676 6.676 0 0 1 5.502 10.464l3.254 3.254c.218.218.35.53.35.853z"/>
    </defs>
    <g fill="#FFF" fill-rule="evenodd">
        <use xlink:href="#a"/>
        <use xlink:href="#a"/>
    </g>
</svg>
