<svg xmlns="http://www.w3.org/2000/svg" xmlns:xlink="http://www.w3.org/1999/xlink" width="23" height="23" viewBox="0 0 23 23">
    <defs>
        <path id="a" d="M17.265 2.663c.176.126.26.327.226.536L15.35 16.056a.538.538 0 0 1-.528.444.575.575 0 0 1-.2-.042l-3.792-1.549-2.026 2.47a.52.52 0 0 1-.41.192.534.534 0 0 1-.536-.536v-2.92l7.232-8.865-8.948 7.743-3.306-1.356a.53.53 0 0 1-.067-.955l13.928-8.035a.534.534 0 0 1 .57.017z"/>
    </defs>
    <g fill="none" fill-rule="evenodd" transform="rotate(13 9.999 10.071)">
        <use fill="#000" xlink:href="#a"/>
        <use fill="#FFF" xlink:href="#a"/>
    </g>
</svg>
