<?xml version="1.0" encoding="UTF-8"?>
<svg width="54px" height="54px" viewBox="0 0 54 54" version="1.1" xmlns="http://www.w3.org/2000/svg" xmlns:xlink="http://www.w3.org/1999/xlink">
    <!-- Generator: Sketch 55.1 (78136) - https://sketchapp.com -->
    <title>bullet / border3</title>
    <desc>Created with Sketch.</desc>
    <defs>
        <linearGradient x1="50%" y1="0%" x2="3.10963629%" y2="96.8903637%" id="linearGradient-1">
            <stop stop-color="#9714F4" offset="0%"></stop>
            <stop stop-color="#6000A4" offset="100%"></stop>
        </linearGradient>
        <circle id="path-2" cx="10" cy="10" r="10"></circle>
        <filter x="-127.5%" y="-102.5%" width="355.0%" height="355.0%" filterUnits="objectBoundingBox" id="filter-3">
            <feMorphology radius="8" operator="dilate" in="SourceAlpha" result="shadowSpreadOuter1"></feMorphology>
            <feOffset dx="0" dy="5" in="shadowSpreadOuter1" result="shadowOffsetOuter1"></feOffset>
            <feGaussianBlur stdDeviation="5" in="shadowOffsetOuter1" result="shadowBlurOuter1"></feGaussianBlur>
            <feComposite in="shadowBlurOuter1" in2="SourceAlpha" operator="out" result="shadowBlurOuter1"></feComposite>
            <feColorMatrix values="0 0 0 0 0.592156863   0 0 0 0 0.0784313725   0 0 0 0 0.956862745  0 0 0 0.2 0" type="matrix" in="shadowBlurOuter1"></feColorMatrix>
        </filter>
    </defs>
    <g id="bullet-/-border" stroke="none" stroke-width="1" fill="none" fill-rule="evenodd">
        <g id="1---circle" transform="translate(17.000000, 17.000000)" fill-rule="nonzero">
            <g id="Oval">
                <use fill="black" fill-opacity="1" filter="url(#filter-3)" xlink:href="#path-2"></use>
                <circle stroke-opacity="0.15" stroke="#9714F4" stroke-width="8" fill="url(#linearGradient-1)" fill-rule="evenodd" cx="10" cy="10" r="14"></circle>
            </g>
            <path d="M12.3301595,7.99511719 C12.3301595,8.49642178 12.1896173,8.90641117 11.9085286,9.22509766 C11.62744,9.54378415 11.2290878,9.7568354 10.7134603,9.86425781 L10.7134603,9.90722656 C11.3436717,9.986003 11.8109522,10.1865218 12.1153157,10.5087891 C12.4196792,10.8310563 12.5718587,11.2535781 12.5718587,11.7763672 C12.5718587,12.5247433 12.3122584,13.1003398 11.7930501,13.5031738 C11.2738418,13.9060079 10.5362189,14.1074219 9.58015947,14.1074219 C9.16479281,14.1074219 8.78434414,14.0760908 8.43880205,14.0134277 C8.09325996,13.9507647 7.75756996,13.8406583 7.43172197,13.6831055 L7.43172197,12.8344727 C7.77189294,13.0027678 8.13443815,13.1307776 8.51936846,13.2185059 C8.90429877,13.3062342 9.26863432,13.3500977 9.61238603,13.3500977 C10.9694892,13.3500977 11.6480306,12.8183647 11.6480306,11.7548828 C11.6480306,10.8024041 10.8996657,10.3261719 9.40291338,10.3261719 L8.62947588,10.3261719 L8.62947588,9.55810547 L9.41365557,9.55810547 C10.0259633,9.55810547 10.5111473,9.42293429 10.869222,9.15258789 C11.2272967,8.88224149 11.4063313,8.50716386 11.4063313,8.02734375 C11.4063313,7.64420381 11.2747409,7.34342557 11.011556,7.125 C10.748371,6.90657443 10.3911969,6.79736328 9.94002275,6.79736328 C9.59627103,6.79736328 9.27221829,6.84391229 8.96785478,6.93701172 C8.66349128,7.03011114 8.31616403,7.20198442 7.9258626,7.45263672 L7.47469072,6.85107422 C7.79695796,6.59684118 8.16845489,6.39721752 8.58919267,6.25219727 C9.00993046,6.10717701 9.45304126,6.03466797 9.91853838,6.03466797 C10.6812375,6.03466797 11.2738423,6.20922677 11.6963704,6.55834961 C12.1188986,6.90747245 12.3301595,7.38639019 12.3301595,7.99511719 Z" id="3" fill="#FFFFFF"></path>
        </g>
    </g>
</svg>