<?xml version="1.0" encoding="UTF-8"?>
<svg width="114px" height="114px" viewBox="0 0 114 114" version="1.1" xmlns="http://www.w3.org/2000/svg" xmlns:xlink="http://www.w3.org/1999/xlink">
    <!-- Generator: Sketch 55.1 (78136) - https://sketchapp.com -->
    <title>bullet / border</title>
    <desc>Created with Sketch.</desc>
    <defs>
        <linearGradient x1="100%" y1="0%" x2="3.5865623%" y2="96.4134377%" id="linearGradient-1">
            <stop stop-color="#95EBB1" offset="0%"></stop>
            <stop stop-color="#3CDC7C" offset="100%"></stop>
        </linearGradient>
        <linearGradient x1="147.369792%" y1="-32.3307292%" x2="3.5865623%" y2="96.4134377%" id="linearGradient-2">
            <stop stop-color="#95EBB1" offset="0%"></stop>
            <stop stop-color="#3CDC7C" offset="100%"></stop>
        </linearGradient>
        <circle id="path-3" cx="27" cy="27" r="15"></circle>
        <filter x="-263.3%" y="-186.7%" width="626.7%" height="626.7%" filterUnits="objectBoundingBox" id="filter-4">
            <feOffset dx="0" dy="23" in="SourceAlpha" result="shadowOffsetOuter1"></feOffset>
            <feGaussianBlur stdDeviation="22.5" in="shadowOffsetOuter1" result="shadowBlurOuter1"></feGaussianBlur>
            <feComposite in="shadowBlurOuter1" in2="SourceAlpha" operator="out" result="shadowBlurOuter1"></feComposite>
            <feColorMatrix values="0 0 0 0 0.584313725   0 0 0 0 0.921568627   0 0 0 0 0.694117647  0 0 0 0.5 0" type="matrix" in="shadowBlurOuter1"></feColorMatrix>
        </filter>
    </defs>
    <g id="💵-Fraudfix" stroke="none" stroke-width="1" fill="none" fill-rule="evenodd">
        <g id="Home" transform="translate(-955.000000, -4600.000000)" fill-rule="nonzero">
            <g id="technology" transform="translate(0.000000, 3198.000000)">
                <g id="description" transform="translate(252.000000, 1409.000000)">
                    <g id="bullet-/-border" transform="translate(733.000000, 0.000000)">
                        <g>
                            <circle id="Oval" fill-opacity="0.3" fill="url(#linearGradient-1)" cx="27" cy="27" r="27"></circle>
                            <g id="Oval">
                                <use fill="black" fill-opacity="1" filter="url(#filter-4)" xlink:href="#path-3"></use>
                                <use fill="url(#linearGradient-2)" xlink:href="#path-3"></use>
                            </g>
                            <g id="3" transform="translate(23.000000, 21.000000)" fill="#FFFFFF">
                                <path d="M7.6241666,6.624 C7.837501,7.13600256 7.9441666,7.6853304 7.9441666,8.272 C7.9441666,8.84800288 7.837501,9.38666416 7.6241666,9.888 C7.34683188,10.5813368 6.89350308,11.127998 6.2641666,11.528 C5.63483012,11.928002 4.8935042,12.128 4.0401666,12.128 C3.20816244,12.128 2.4721698,11.9226687 1.8321666,11.512 C1.1921634,11.1013313 0.72816804,10.5440035 0.4401666,9.84 C0.26949908,9.4133312 0.16816676,8.94400256 0.1361666,8.432 C0.1361666,8.30399936 0.20016596,8.24 0.3281666,8.24 L2.6321666,8.24 C2.76016724,8.24 2.82949988,8.30399936 2.8401666,8.432 C2.86150004,8.698668 2.9254994,8.95466544 3.0321666,9.2 C3.11750036,9.4133344 3.24549908,9.57599944 3.4161666,9.688 C3.58683412,9.8 3.78949876,9.856 4.0241666,9.856 C4.47216884,9.856 4.80816548,9.65333536 5.0321666,9.248 C5.18150068,8.981332 5.2561666,8.62933552 5.2561666,8.192 C5.2561666,7.7653312 5.18150068,7.3920016 5.0321666,7.072 C4.80816548,6.67733136 4.46683556,6.48 4.0081666,6.48 C3.89083268,6.48 3.76016732,6.5199996 3.6161666,6.6 C3.47216588,6.6800004 3.28816772,6.8 3.0641666,6.96 C3.010833,6.99200016 2.96816676,7.008 2.9361666,7.008 C2.87216628,7.008 2.82416676,6.97600032 2.7921666,6.912 L1.6561666,5.312 C1.62416644,5.2586664 1.6081666,5.21600016 1.6081666,5.184 C1.6081666,5.11999968 1.634833,5.07200016 1.6881666,5.04 L4.1521666,3.168 C4.17350004,3.14666656 4.18149996,3.12533344 4.1761666,3.104 C4.17083324,3.08266656 4.15216676,3.072 4.1201666,3.072 L0.6161666,3.072 C0.562833,3.072 0.51750012,3.05333352 0.4801666,3.016 C0.44283308,2.97866648 0.4241666,2.9333336 0.4241666,2.88 L0.4241666,0.992 C0.4241666,0.9386664 0.44283308,0.89333352 0.4801666,0.856 C0.51750012,0.81866648 0.562833,0.8 0.6161666,0.8 L7.5921666,0.8 C7.6455002,0.8 7.69083308,0.81866648 7.7281666,0.856 C7.76550012,0.89333352 7.7841666,0.9386664 7.7841666,0.992 L7.7841666,3.12 C7.7841666,3.21600048 7.74683364,3.29599968 7.6721666,3.36 L5.7361666,4.88 C5.71483316,4.90133344 5.70683324,4.92266656 5.7121666,4.944 C5.71749996,4.96533344 5.73616644,4.98133328 5.7681666,4.992 C6.6215042,5.21600112 7.24016468,5.75999568 7.6241666,6.624 Z"></path>
                            </g>
                        </g>
                    </g>
                </g>
            </g>
        </g>
    </g>
</svg>