<?xml version="1.0" encoding="UTF-8"?>
<svg width="56px" height="56px" viewBox="0 0 56 56" version="1.1" xmlns="http://www.w3.org/2000/svg" xmlns:xlink="http://www.w3.org/1999/xlink">
    <!-- Generator: Sketch 55.1 (78136) - https://sketchapp.com -->
    <title>bullet / border</title>
    <desc>Created with Sketch.</desc>
    <defs>
        <linearGradient x1="50%" y1="0%" x2="3.10963629%" y2="96.8903637%" id="linearGradient-1">
            <stop stop-color="#9714F4" offset="0%"></stop>
            <stop stop-color="#6000A4" offset="100%"></stop>
        </linearGradient>
        <circle id="path-2" cx="10" cy="10" r="10"></circle>
        <filter x="-127.5%" y="-102.5%" width="355.0%" height="355.0%" filterUnits="objectBoundingBox" id="filter-3">
            <feMorphology radius="8" operator="dilate" in="SourceAlpha" result="shadowSpreadOuter1"></feMorphology>
            <feOffset dx="0" dy="5" in="shadowSpreadOuter1" result="shadowOffsetOuter1"></feOffset>
            <feGaussianBlur stdDeviation="5" in="shadowOffsetOuter1" result="shadowBlurOuter1"></feGaussianBlur>
            <feComposite in="shadowBlurOuter1" in2="SourceAlpha" operator="out" result="shadowBlurOuter1"></feComposite>
            <feColorMatrix values="0 0 0 0 0.592156863   0 0 0 0 0.0784313725   0 0 0 0 0.956862745  0 0 0 0.2 0" type="matrix" in="shadowBlurOuter1"></feColorMatrix>
        </filter>
    </defs>
    <g id="💵-Fraudfix" stroke="none" stroke-width="1" fill="none" fill-rule="evenodd">
        <g id="Home" transform="translate(-242.000000, -4602.000000)">
            <g id="technology" transform="translate(0.000000, 3198.000000)">
                <g id="description" transform="translate(243.000000, 1400.000000)">
                    <g id="bullet-/-border">
                        <g id="1---circle" transform="translate(17.000000, 17.000000)">
                            <g id="Oval" fill-rule="nonzero">
                                <use fill="black" fill-opacity="1" filter="url(#filter-3)" xlink:href="#path-2"></use>
                                <circle stroke-opacity="0.15" stroke="#9714F4" stroke-width="8" fill="url(#linearGradient-1)" fill-rule="evenodd" cx="10" cy="10" r="14"></circle>
                            </g>
                            <path d="M9.65911455,6.333 C9.71778151,6.31099989 9.77278096,6.3 9.82411455,6.3 L11.4301146,6.3 C11.4667814,6.3 11.4979478,6.31283321 11.5236146,6.3385 C11.5492813,6.3641668 11.5621146,6.39533315 11.5621146,6.432 L11.5621146,13.868 C11.5621146,13.9046668 11.5492813,13.9358332 11.5236146,13.9615 C11.4979478,13.9871668 11.4667814,14 11.4301146,14 L9.86811455,14 C9.8314477,14 9.80028135,13.9871668 9.77461455,13.9615 C9.74894775,13.9358332 9.73611455,13.9046668 9.73611455,13.868 L9.73611455,8.049 C9.73611455,8.03433326 9.72878129,8.01966674 9.71411455,8.005 C9.69944781,7.99033326 9.68478129,7.98666663 9.67011455,7.994 L8.59211455,8.247 L8.54811455,8.258 C8.48211422,8.258 8.44911455,8.21766707 8.44911455,8.137 L8.42711455,6.982 C8.42711455,6.9086663 8.46011422,6.85733348 8.52611455,6.828 L9.65911455,6.333 Z" id="1" fill="#FFFFFF" fill-rule="nonzero"></path>
                        </g>
                    </g>
                </g>
            </g>
        </g>
    </g>
</svg>