<svg id="Warstwa_1" data-name="Warstwa 1" xmlns="http://www.w3.org/2000/svg" viewBox="0 0 1000 1000.00018"><defs><style>.cls-1{fill:#9714f4;}</style></defs><title>FraudFix_Icon_Main</title><path class="cls-1" d="M126.31567,747.36857h.00025A126.31555,126.31555,0,0,1,252.63148,873.68412v.00051a126.31555,126.31555,0,0,1-126.31555,126.31555h-.00025A126.31567,126.31567,0,0,1,0,873.6845v-.00025A126.31567,126.31567,0,0,1,126.31567,747.36857Z"/><path class="cls-1" d="M1067.58554,175.52264A126.31592,126.31592,0,0,0,941.26981,49.20691H193.90132a126.31573,126.31573,0,0,0,0,252.63146H941.26981c.08785,0,.17327-.01342.26112-.01342s.17266.01342.26051.01342a125.79413,125.79413,0,0,0,125.7941-125.7941c0-.08786-.01342-.17266-.01342-.26051S1067.58554,175.61049,1067.58554,175.52264Z" transform="translate(-67.58554 -49.20691)"/><path class="cls-1" d="M126.31517,373.68394H499.99972A126.31573,126.31573,0,0,1,626.31545,499.99967v.00061A126.31573,126.31573,0,0,1,499.99972,626.316H126.31517A126.31512,126.31512,0,0,1,0,500.00089v-.00183A126.31512,126.31512,0,0,1,126.31517,373.68394Z"/></svg>