<?xml version="1.0" encoding="UTF-8"?>
<svg width="259px" height="362px" viewBox="0 0 259 362" version="1.1" xmlns="http://www.w3.org/2000/svg" xmlns:xlink="http://www.w3.org/1999/xlink">
    <!-- Generator: Sketch 55.1 (78136) - https://sketchapp.com -->
    <title>illustration / desktop</title>
    <desc>Created with Sketch.</desc>
    <defs>
        <linearGradient x1="0.0002787068%" y1="50.0004363%" x2="99.9995819%" y2="50.0004363%" id="linearGradient-1">
            <stop stop-color="#C2A8ED" offset="0%"></stop>
            <stop stop-color="#C2A8ED" offset="100%"></stop>
        </linearGradient>
        <linearGradient x1="36.0381494%" y1="22.5743448%" x2="64.8988183%" y2="91.4333829%" id="linearGradient-2">
            <stop stop-color="#F4EDFF" offset="0.35%"></stop>
            <stop stop-color="#BAAED7" offset="8.01%"></stop>
            <stop stop-color="#C2A8ED" offset="41.07%"></stop>
            <stop stop-color="#F4EDFF" offset="53.57%"></stop>
            <stop stop-color="#F4EDFF" offset="99.95%"></stop>
        </linearGradient>
        <linearGradient x1="-0.000507953328%" y1="49.9999235%" x2="99.9981636%" y2="49.9999235%" id="linearGradient-3">
            <stop stop-color="#C2A8ED" offset="0%"></stop>
            <stop stop-color="#C2A8ED" offset="100%"></stop>
        </linearGradient>
        <linearGradient x1="2.72577175%" y1="80.6302097%" x2="90.4056745%" y2="24.4672649%" id="linearGradient-4">
            <stop stop-color="#360F59" offset="0.29%"></stop>
            <stop stop-color="#962BF0" offset="99.82%"></stop>
        </linearGradient>
        <linearGradient x1="52.9028693%" y1="47.2897387%" x2="172.959966%" y2="-64.8013267%" id="linearGradient-5">
            <stop stop-color="#360F59" offset="0.29%"></stop>
            <stop stop-color="#962BF0" offset="99.82%"></stop>
        </linearGradient>
        <linearGradient x1="84.9658568%" y1="21.951378%" x2="27.5956998%" y2="65.2946272%" id="linearGradient-6">
            <stop stop-color="#544E57" offset="0%"></stop>
            <stop stop-color="#24272D" offset="100%"></stop>
        </linearGradient>
        <linearGradient x1="83.5518525%" y1="-7.77599803%" x2="22.6911748%" y2="97.3497712%" id="linearGradient-7">
            <stop stop-color="#6E6673" offset="0%"></stop>
            <stop stop-color="#24272D" offset="100%"></stop>
        </linearGradient>
        <linearGradient x1="-0.00345743313%" y1="49.9998837%" x2="99.9984211%" y2="49.9998837%" id="linearGradient-8">
            <stop stop-color="#3CDC7C" offset="0%"></stop>
            <stop stop-color="#95EBB1" offset="100%"></stop>
        </linearGradient>
        <linearGradient x1="0.0059468613%" y1="50.0007989%" x2="100.002684%" y2="50.0007989%" id="linearGradient-9">
            <stop stop-color="#EADBFF" offset="0%"></stop>
            <stop stop-color="#EDE7FC" offset="100%"></stop>
        </linearGradient>
        <linearGradient x1="0.00171682537%" y1="50.0041732%" x2="100.007%" y2="50.0041732%" id="linearGradient-10">
            <stop stop-color="#EADBFF" offset="0%"></stop>
            <stop stop-color="#EDE7FC" offset="100%"></stop>
        </linearGradient>
        <linearGradient x1="0.00011976296%" y1="49.9999224%" x2="100.000103%" y2="49.9999224%" id="linearGradient-11">
            <stop stop-color="#3CDC7C" offset="0%"></stop>
            <stop stop-color="#95EBB1" offset="100%"></stop>
        </linearGradient>
        <linearGradient x1="0.00011976296%" y1="49.9997447%" x2="100.000103%" y2="49.9997447%" id="linearGradient-12">
            <stop stop-color="#3CDC7C" offset="0%"></stop>
            <stop stop-color="#95EBB1" offset="100%"></stop>
        </linearGradient>
        <linearGradient x1="0.00011976296%" y1="50.0000077%" x2="100.000103%" y2="50.0000077%" id="linearGradient-13">
            <stop stop-color="#E6ED4A" offset="0%"></stop>
            <stop stop-color="#E6ED95" offset="100%"></stop>
        </linearGradient>
        <linearGradient x1="0.000272136298%" y1="50.0009228%" x2="99.9997279%" y2="50.0009228%" id="linearGradient-14">
            <stop stop-color="#3CDC7C" offset="0%"></stop>
            <stop stop-color="#95EBB1" offset="100%"></stop>
        </linearGradient>
        <linearGradient x1="0.000772609047%" y1="50.0015568%" x2="100.002231%" y2="50.0015568%" id="linearGradient-15">
            <stop stop-color="#3CDC7C" offset="0%"></stop>
            <stop stop-color="#95EBB1" offset="100%"></stop>
        </linearGradient>
        <linearGradient x1="0.000271985988%" y1="49.9992607%" x2="100.00123%" y2="49.9992607%" id="linearGradient-16">
            <stop stop-color="#E6ED4A" offset="0%"></stop>
            <stop stop-color="#E6ED95" offset="100%"></stop>
        </linearGradient>
        <linearGradient x1="-0.00988454722%" y1="49.9983083%" x2="99.9950526%" y2="49.9983083%" id="linearGradient-17">
            <stop stop-color="#C2A8ED" offset="0%"></stop>
            <stop stop-color="#D1BBF4" offset="100%"></stop>
        </linearGradient>
        <linearGradient x1="35.8934638%" y1="83.2942143%" x2="272.231809%" y2="-474.513821%" id="linearGradient-18">
            <stop stop-color="#C2A8ED" offset="76.64%"></stop>
            <stop stop-color="#EADBFF" offset="83.07%"></stop>
            <stop stop-color="#EADBFF" offset="99.89%"></stop>
        </linearGradient>
    </defs>
    <g id="💵-Fraudfix" stroke="none" stroke-width="1" fill="none" fill-rule="evenodd">
        <g id="Home" transform="translate(-893.000000, -2340.000000)">
            <g id="what-we-do" transform="translate(-1129.000000, 469.000000)">
                <g id="4" transform="translate(1496.000000, 1871.000000)">
                    <g id="illustration-/-desktop" transform="translate(526.000000, 0.000000)">
                        <g id="illustration" transform="translate(129.500000, 181.000000) scale(-1, 1) translate(-129.500000, -181.000000) ">
                            <g id="Group" transform="translate(91.000000, 219.000000)">
                                <polygon id="Path" fill="url(#linearGradient-1)" opacity="0.5" points="103.878803 104.958694 45.1245354 139.423347 45.1147087 142.853694 103.868976 108.38904"></polygon>
                                <path d="M62.4786142,72.0670405 C62.4966299,71.7554162 62.5310236,71.4512312 62.5809764,71.1553121 C62.5817953,71.1520058 62.5826142,71.1486994 62.5826142,71.1445665 C62.6333858,70.8478208 62.7005354,70.559341 62.7848819,70.2816069 L78.104,2.72443931 L19.3497323,37.1890925 L4.03061417,104.74626 C4.02570079,104.762792 4.0207874,104.779324 4.01587402,104.795855 C3.99867717,104.85537 3.98148031,104.914884 3.96592126,104.975225 C3.9503622,105.033913 3.93562205,105.092601 3.92170079,105.152116 C3.90859843,105.208324 3.89549606,105.265358 3.8832126,105.322393 C3.87174803,105.378601 3.86028346,105.433983 3.8496378,105.491017 C3.84226772,105.529867 3.83571654,105.569543 3.82916535,105.608393 C3.82834646,105.612526 3.82752756,105.615832 3.82670866,105.619965 C3.82507087,105.631538 3.82261417,105.642283 3.82097638,105.653855 C3.8119685,105.707584 3.80377953,105.762139 3.79559055,105.816694 C3.78822047,105.868769 3.78085039,105.920844 3.77429921,105.973746 C3.76774803,106.026647 3.76201575,106.078723 3.75628346,106.131624 C3.75137008,106.182873 3.74645669,106.234121 3.74154331,106.28537 C3.73744882,106.336618 3.73335433,106.387867 3.73007874,106.439116 C3.72844094,106.469699 3.72680315,106.500283 3.72434646,106.530867 C3.72434646,106.535 3.72352756,106.538306 3.72352756,106.542439 C3.72270866,106.558971 3.72107087,106.575503 3.72025197,106.592035 C3.71779528,106.642457 3.71533858,106.692052 3.71370079,106.742474 C3.71206299,106.792896 3.7104252,106.843318 3.7096063,106.89374 C3.7079685,106.943335 3.7079685,106.992931 3.7079685,107.043353 C3.7079685,107.092948 3.7079685,107.14337 3.7079685,107.192965 C3.7096063,107.242561 3.7104252,107.292983 3.71206299,107.343405 C3.71370079,107.393 3.71533858,107.442595 3.71697638,107.492191 C3.71697638,107.495497 3.71779528,107.49963 3.71779528,107.503763 C3.71779528,107.505416 3.71779528,107.506243 3.71779528,107.507896 C3.71943307,107.552532 3.72188976,107.597168 3.72434646,107.64263 C3.72680315,107.692225 3.73007874,107.742647 3.73417323,107.793069 C3.73744882,107.843491 3.74154331,107.893087 3.7456378,107.943509 C3.74973228,107.993931 3.75464567,108.044353 3.75955906,108.094775 C3.76447244,108.145197 3.77020472,108.195618 3.77593701,108.246867 C3.78166929,108.297289 3.78740157,108.348538 3.79395276,108.399786 C3.79886614,108.436156 3.80377953,108.472526 3.80869291,108.508896 C3.80869291,108.511376 3.80951181,108.513855 3.80951181,108.517162 C3.81114961,108.529561 3.8127874,108.541133 3.8144252,108.553532 C3.82179528,108.605607 3.82916535,108.656855 3.83735433,108.708931 C3.84554331,108.761006 3.85373228,108.813081 3.86192126,108.865156 C3.87092913,108.918058 3.87993701,108.970133 3.88894488,109.023035 C3.89877165,109.075936 3.90859843,109.128838 3.9184252,109.182566 C3.92825197,109.235468 3.93889764,109.289197 3.9503622,109.342098 C3.96100787,109.395827 3.97329134,109.450382 3.98475591,109.50411 C3.9880315,109.518162 3.99130709,109.532214 3.99458268,109.546266 C3.99540157,109.549572 3.99622047,109.553705 3.99703937,109.557012 C4.00522835,109.593382 4.01341732,109.630578 4.0216063,109.666948 C4.03388976,109.721503 4.04699213,109.776058 4.06091339,109.830613 C4.07401575,109.885168 4.08793701,109.940549 4.10267717,109.995931 C4.11659843,110.051312 4.13133858,110.105867 4.14607874,110.161249 C4.1608189,110.21663 4.17637795,110.271185 4.19193701,110.326566 C4.20749606,110.381948 4.22305512,110.436503 4.23943307,110.491884 C4.25089764,110.530734 4.2623622,110.569584 4.27464567,110.60926 C4.27546457,110.612566 4.27628346,110.615873 4.27710236,110.618353 C4.28119685,110.630751 4.28447244,110.643977 4.28856693,110.656376 C4.30494488,110.710104 4.32214173,110.764659 4.33933858,110.819214 C4.35653543,110.873769 4.37455118,110.927497 4.39256693,110.982052 C4.41058268,111.03578 4.42859843,111.088682 4.44661417,111.14241 C4.46462992,111.195312 4.48346457,111.248214 4.50229921,111.301116 C4.52113386,111.354017 4.5399685,111.406919 4.55962205,111.460647 C4.57845669,111.511896 4.59811024,111.563971 4.61776378,111.616046 C4.62677165,111.639191 4.63577953,111.663162 4.6447874,111.686306 C4.6464252,111.690439 4.64806299,111.694572 4.64970079,111.698705 C4.65870866,111.722676 4.66771654,111.746647 4.67754331,111.770618 C4.69801575,111.821867 4.71848819,111.873942 4.73896063,111.925191 C4.75943307,111.975613 4.77990551,112.026861 4.80119685,112.077283 C4.82248819,112.127705 4.84377953,112.178954 4.86507087,112.229376 C4.8863622,112.279798 4.90847244,112.331046 4.93058268,112.382295 C4.95269291,112.433543 4.97562205,112.484792 4.99855118,112.53604 C5.02148031,112.587289 5.04440945,112.638538 5.06815748,112.690613 C5.08207874,112.72037 5.096,112.750127 5.10992126,112.779884 C5.12056693,112.803029 5.1320315,112.827 5.14267717,112.850145 C5.16888189,112.905526 5.19508661,112.960908 5.22211024,113.016289 C5.24913386,113.071671 5.27615748,113.126225 5.3031811,113.181607 C5.33429921,113.244428 5.36623622,113.307249 5.39735433,113.369243 C5.43011024,113.43289 5.46286614,113.496538 5.49644094,113.560185 C5.53738583,113.637884 5.57914961,113.715584 5.62091339,113.792457 C5.62828346,113.806509 5.63647244,113.820561 5.64466142,113.834613 C5.64875591,113.841225 5.6520315,113.847838 5.65612598,113.854451 C5.69215748,113.919751 5.72818898,113.985052 5.76503937,114.049526 C5.81581102,114.138798 5.87395276,114.22063 5.9263622,114.308249 C6.08277165,114.573584 6.24409449,114.83396 6.4119685,115.087723 C6.4496378,115.144757 6.4823937,115.206751 6.52088189,115.26296 C6.57902362,115.348098 6.63798425,115.43241 6.69776378,115.516723 C6.74853543,115.587809 6.79930709,115.658069 6.85007874,115.728329 C6.86727559,115.752301 6.88529134,115.775445 6.90248819,115.79859 C6.90658268,115.804376 6.91149606,115.810162 6.91559055,115.816775 C6.93851969,115.848185 6.96144882,115.878769 6.98519685,115.910179 C7.02696063,115.965561 7.06954331,116.020942 7.11130709,116.075497 C7.15061417,116.126746 7.19074016,116.177168 7.23004724,116.22759 C7.26935433,116.277185 7.30948031,116.32678 7.3496063,116.376376 C7.38809449,116.423491 7.42658268,116.470607 7.46507087,116.516896 C7.50355906,116.563185 7.54286614,116.609474 7.58217323,116.655763 C7.592,116.667335 7.60182677,116.678908 7.61165354,116.69048 C7.61411024,116.69296 7.61656693,116.696266 7.61902362,116.699572 C7.64604724,116.730983 7.67225197,116.762393 7.70009449,116.792977 C7.73940157,116.838439 7.77952756,116.883075 7.81883465,116.927711 C7.85896063,116.972347 7.89908661,117.016983 7.9392126,117.060792 C7.98015748,117.106254 8.02192126,117.15089 8.06368504,117.194699 C8.10544882,117.239335 8.1472126,117.283145 8.18897638,117.326954 C8.23237795,117.37159 8.27496063,117.416225 8.3183622,117.460035 C8.33228346,117.474087 8.34620472,117.488139 8.36012598,117.502191 C8.36340157,117.505497 8.36667717,117.508803 8.36995276,117.51211 C8.39697638,117.538561 8.4231811,117.565838 8.45020472,117.592289 C8.4944252,117.636098 8.53946457,117.679908 8.58368504,117.72289 C8.62872441,117.766699 8.67458268,117.809682 8.72044094,117.851838 C8.76629921,117.894821 8.81215748,117.936977 8.85801575,117.979133 C8.90387402,118.021289 8.95055118,118.062618 8.99722835,118.103948 C9.04390551,118.145277 9.09058268,118.18578 9.13725984,118.226283 C9.14135433,118.22959 9.14544882,118.232896 9.14954331,118.237029 C9.1511811,118.237855 9.1528189,118.239509 9.15445669,118.241162 C9.19540157,118.275879 9.23634646,118.310595 9.27729134,118.344486 C9.3239685,118.383335 9.37064567,118.422185 9.41732283,118.459382 C9.4631811,118.496578 9.50985827,118.533775 9.55653543,118.570145 C9.6023937,118.606514 9.64907087,118.642058 9.69492913,118.677601 C9.7407874,118.712318 9.78746457,118.747035 9.83332283,118.781751 C9.8783622,118.815642 9.92422047,118.848705 9.96925984,118.880942 C10.0151181,118.914006 10.0609764,118.945416 10.1060157,118.977653 C10.1510551,119.009064 10.1952756,119.039647 10.240315,119.069405 C10.2853543,119.099162 10.3295748,119.128919 10.3746142,119.158676 C10.4196535,119.187607 10.463874,119.216538 10.5089134,119.244642 C10.5531339,119.272746 10.5981732,119.300023 10.6423937,119.327301 C10.6874331,119.354578 10.7316535,119.381029 10.775874,119.40748 C10.7865197,119.414092 10.7979843,119.419879 10.8086299,119.426491 L45.1228976,139.424173 L103.877165,104.95952 L69.5620787,84.9618382 C68.9954016,84.6320289 68.4410079,84.2327861 67.9062677,83.7756821 C67.9046299,83.7740289 67.9029921,83.7732023 67.9013543,83.7715491 C67.6360315,83.544237 67.3764409,83.3028728 67.1225827,83.0474566 C67.1193071,83.0441503 67.1160315,83.0408439 67.1127559,83.0375376 C66.8597165,82.782948 66.6124094,82.5151329 66.3724724,82.2357457 C66.3691969,82.2324393 66.3667402,82.2291329 66.3642835,82.2258266 C66.1251654,81.9472659 65.8925984,81.6554798 65.6682205,81.3537746 C65.6633071,81.3479884 65.6592126,81.3413757 65.6542992,81.3355896 C65.4847874,81.1066243 65.3242835,80.8660867 65.1645984,80.6255491 C64.9959055,80.3717861 64.8345827,80.1105838 64.6781732,79.8452486 C64.5889134,79.6939827 64.4939213,79.5476763 64.4087559,79.3922775 C64.4054803,79.3856647 64.4013858,79.379052 64.3972913,79.3724393 C64.208126,79.028578 64.0296063,78.6772775 63.8617323,78.317711 C63.6938583,77.9564913 63.5407244,77.5960983 63.4023307,77.2365318 C63.4006929,77.2332254 63.399874,77.2290925 63.3982362,77.2249595 C63.2606614,76.8670462 63.1378268,76.5107861 63.0305512,76.1570058 C63.0297323,76.1536994 63.0280945,76.1495665 63.0272756,76.1454335 C62.92,75.7916532 62.8274646,75.4411792 62.7504882,75.0948382 C62.7496693,75.0915318 62.7488504,75.0873988 62.7480315,75.0840925 C62.6710551,74.7369249 62.6096378,74.3930636 62.5637795,74.0549884 C62.5637795,74.0516821 62.5629606,74.0483757 62.5629606,74.0450694 C62.5171024,73.7061676 62.4868031,73.3722254 62.4728819,73.044896 C62.4728819,73.0432428 62.4728819,73.0415896 62.4728819,73.040763 C62.4589606,72.7134335 62.4605984,72.3927168 62.4786142,72.0794393 C62.4777953,72.0753064 62.4786142,72.0711734 62.4786142,72.0670405 Z" id="Path" fill="url(#linearGradient-2)"></path>
                                <polygon id="Path" fill="#F0F0F0" points="75.2247559 0.277734104 16.4704882 34.7423873 19.3497323 37.1890925 78.104 2.72443931"></polygon>
                                <path d="M19.3497323,37.1890925 L16.4704882,34.7423873 L1.15955906,102.251613 C0.259590551,105.291809 0.144944882,109.904179 2.04888189,113.986705 C3.96428346,118.093202 7.58790551,120.984613 10.8004409,122.856838 L45.1155276,142.85452 L45.1253543,139.424173 L10.8094488,119.425665 C8.53946457,118.103121 6.45946457,115.680387 5.10828346,112.782364 C3.75710236,109.879382 3.35420472,106.985491 4.03061417,104.747087 L19.3497323,37.1890925 Z" id="Path" fill="url(#linearGradient-3)"></path>
                            </g>
                            <g id="Group" opacity="0.5" transform="translate(135.000000, 358.000000)" fill="#FFFFFF">
                                <polygon id="Path" points="1.16 0.575 1.104 0.543 1.047 0.576"></polygon>
                            </g>
                            <path d="M17.2868954,356.469562 L247.882068,223.321076 C254.044553,219.762874 259.020549,211.139904 259,204.061432 L258.903467,170 L6,316.030579 L6.09646919,350.092011 C6.11625774,357.169658 11.1244105,360.027764 17.2868954,356.469562 Z" id="Path" fill="#FFFFFF"></path>
                            <path d="M20.6480157,307.707415 L246.552791,177.047079 C254.275412,172.580616 259.022979,164.317701 259,155.3856 L258.634212,14.3995077 C258.621857,9.47509409 253.298553,6.40558698 249.041063,8.86779376 L16.9703812,143.093544 C10.1644923,147.03027 5.97948418,154.312923 6,162.186373 L6.35589605,299.465953 C6.37484019,306.80224 14.3050228,311.375146 20.6480157,307.707415 Z" id="Path" fill="url(#linearGradient-4)"></path>
                            <g id="Group" transform="translate(15.000000, 21.000000)">
                                <polygon id="Path" fill="url(#linearGradient-5)" opacity="0.5" points="233.440405 5.81265233 0.155797297 141.14086 0.323959459 229.977742 233.609392 94.6495341"></polygon>
                                <polygon id="Path" fill="#310773" points="243.278716 0.105519713 243.221838 0.138494624 243.390824 59.5658781 243.432865 59.541147"></polygon>
                            </g>
                            <polygon id="Rectangle" fill="#FFFFFF" transform="translate(132.472205, 243.449765) rotate(-30.000728) translate(-132.472205, -243.449765) " points="-13.3351363 243.619225 278.279547 243.280304 278.279547 243.280304 -13.3351363 243.619225"></polygon>
                            <path d="M248.668743,0.748417109 C248.648211,0.736897427 248.628501,0.725377745 248.607969,0.713858063 C248.584974,0.700692712 248.559514,0.691641533 248.536519,0.678476183 C248.403473,0.606066753 248.266321,0.53859433 248.126706,0.477704583 C248.101246,0.466184901 248.076608,0.451373881 248.051149,0.440677034 C248.029796,0.431625855 248.0068,0.425866014 247.985447,0.41763767 C247.822836,0.351810916 247.657761,0.291744003 247.486937,0.241551103 C247.479546,0.2390826 247.472154,0.235791262 247.464763,0.233322759 C247.46312,0.233322759 247.461478,0.232499924 247.460657,0.232499924 C247.279977,0.179838521 247.094371,0.139519634 246.905479,0.104137754 C246.883305,0.100023582 246.862773,0.0934409063 246.84142,0.0893267342 C246.812675,0.0843897276 246.781467,0.0835668932 246.752723,0.0786298867 C246.588469,0.0531220195 246.421751,0.0333739933 246.25257,0.0202086425 C246.224647,0.0177401392 246.199188,0.0119802982 246.171264,0.0103346294 C246.161409,0.00951179496 246.151554,0.0103346294 246.141699,0.0103346294 C245.931454,0 245.717103,0 245.498645,0.00539762283 C245.477292,0.00622045726 245.457582,0.00375195398 245.436229,0.00457478841 C245.408306,0.00539762283 245.379561,0.0111574638 245.351638,0.0128031327 C245.107721,0.0267913179 244.861341,0.0481850129 244.60839,0.0876810653 C244.60839,0.0876810653 244.60839,0.0876810653 244.607568,0.0876810653 C244.606747,0.0876810653 244.605926,0.0876810653 244.605105,0.0885038998 C244.303699,0.135405462 243.996544,0.202877885 243.683641,0.285984162 C243.665573,0.290921168 243.647505,0.292566837 243.629437,0.297503844 C243.618761,0.300795181 243.608084,0.304909354 243.597408,0.307377857 C243.399482,0.361684929 243.199914,0.423397511 242.998703,0.492515602 C242.959282,0.505680953 242.91904,0.522960476 242.878797,0.536948661 C242.715365,0.595369906 242.551111,0.657082487 242.386036,0.725377745 C242.364683,0.734428923 242.34333,0.741011599 242.321156,0.750062778 C242.280914,0.766519466 242.23985,0.788735995 242.199608,0.806015518 C242.023857,0.881716286 241.847284,0.962354059 241.669068,1.04875167 C241.602546,1.08084222 241.536023,1.11293276 241.468679,1.1474918 C241.235438,1.26597996 241.000556,1.39022796 240.763209,1.52681847 L11.0773003,134.386602 C10.7192271,134.593956 10.3669027,134.821058 10.0170422,135.061326 C9.90370708,135.138672 9.79365706,135.224247 9.68114322,135.305708 C9.44626032,135.476035 9.21219869,135.64883 8.98224341,135.833145 C8.85412546,135.935176 8.72847133,136.042145 8.60199592,136.14829 C8.39010855,136.326845 8.18068499,136.508692 7.97372523,136.697944 C7.84724982,136.81314 7.72241696,136.929983 7.59758409,137.049294 C7.51956354,137.124172 7.43907919,137.19329 7.36187992,137.269814 C7.2805743,137.350451 7.20583883,137.440963 7.12535448,137.522424 C6.87404621,137.778325 6.62766555,138.041632 6.38539123,138.312345 C6.30819195,138.398742 6.2252438,138.476912 6.14804452,138.564955 C6.08398555,138.638187 6.02485419,138.718002 5.96161649,138.792057 C5.81543063,138.964852 5.67252985,139.140939 5.53045033,139.317848 C5.43682568,139.434691 5.33827341,139.545774 5.2462913,139.664262 C5.17155583,139.760533 5.10174798,139.862565 5.02865505,139.959659 C4.9243539,140.097895 4.82251656,140.236955 4.72067922,140.377659 C4.6500501,140.474754 4.5761359,140.568557 4.50714931,140.667297 C4.3913504,140.832687 4.28212164,141.003836 4.16960781,141.171694 C4.09815741,141.279486 4.02424322,141.384809 3.95443536,141.493423 C3.92486968,141.538679 3.89366146,141.582289 3.86409578,141.628368 C3.66699125,141.937753 3.47563561,142.251253 3.29002884,142.568867 C3.27770981,142.590261 3.26703331,142.611655 3.25471428,142.633048 C3.21775718,142.696407 3.18408516,142.761411 3.14794933,142.825592 C3.01983138,143.051048 2.89089217,143.277328 2.76934438,143.506076 C2.71267682,143.612221 2.66093688,143.720835 2.60591187,143.828627 C2.54924432,143.939709 2.49257676,144.049969 2.43755175,144.161052 C2.38909689,144.258146 2.33735695,144.354418 2.29054462,144.451512 C2.16489048,144.713174 2.0458065,144.977304 1.92918632,145.242256 C1.9086546,145.288335 1.88648034,145.333591 1.86676988,145.378847 C1.861021,145.391189 1.85527212,145.404355 1.84952324,145.416697 C1.70662245,145.747477 1.57029182,146.080725 1.44217387,146.414795 C1.41835708,146.476508 1.39864662,146.539043 1.3756511,146.600756 C1.32966004,146.722535 1.28777533,146.844315 1.24424808,146.966094 C1.18511672,147.132307 1.12105775,147.297697 1.06603273,147.464732 C1.02250548,147.595563 0.987190919,147.727216 0.946127475,147.858047 C0.89849388,148.011094 0.850860285,148.163319 0.806511766,148.315543 C0.779409893,148.410169 0.746559138,148.503972 0.720278534,148.598598 C0.67264494,148.769748 0.638151647,148.940074 0.594624397,149.110401 C0.546990802,149.300476 0.49771467,149.489728 0.455008688,149.67898 C0.440225848,149.744806 0.420515395,149.810633 0.406553825,149.87646 C0.377809414,150.013873 0.362205305,150.149641 0.33674597,150.286231 C0.280078418,150.584097 0.226695941,150.880318 0.18398996,151.175715 C0.172492195,151.257176 0.152781742,151.339459 0.142105247,151.42092 C0.11828845,151.607703 0.105969417,151.792018 0.0879015014,151.977156 C0.0747611994,152.107987 0.0591570908,152.23964 0.0493018643,152.369648 C0.0180936471,152.784357 0,153.195774 0,153.601431 L0.018914916,160.440008 L0.45336615,312.465251 L0.473897872,319.573717 L6.76728125,323 L6.76728125,316.141675 L6.33693636,154.766565 L258,9.19069831 C257.5598,6.9221438 256.480653,5.28881747 254.962126,4.41332164 C254.968697,4.41661298 254.975267,4.41990431 254.981837,4.42401849 L248.668743,0.748417109 Z" id="Path" fill="url(#linearGradient-6)"></path>
                            <path d="M17.5836602,356.471188 L42.0280114,342.33886 L247.89568,223.32154 C254.05062,219.763308 259.020524,211.140262 259,204.061729 L258.903585,170 L6.31058394,316.031027 L6.31058394,322.90423 L0,319.470515 L0.0765867553,346.409182 C0.0864689173,349.926183 1.32668025,352.400866 3.32617102,353.565229 L9.65651928,357.248804 C9.64663712,357.243031 9.63840198,357.23561 9.62934333,357.229838 C11.6568336,358.42636 14.4724262,358.269683 17.5836602,356.471188 Z" id="Path" fill="#F4EDFF"></path>
                            <path d="M259,177.115765 L258.962129,164.196728 L258.548014,17.766397 L258.528255,10.9105053 C258.508496,3.82528649 253.503723,0.972720801 247.350461,4.53224103 L17.1012288,137.729241 C10.9479668,141.288761 6,149.311911 6,156.99602 L6.01975894,163.851912 L6.4338733,323 L259,177.115765 Z M17.133337,148.972045 L247.382569,15.7750455 C248.139172,15.3370141 248.756638,15.690079 248.759108,16.5611921 L248.778044,23.4170838 L249.192166,169.847414 C249.194628,170.714403 248.581278,171.778547 247.823852,172.216578 L17.5762665,305.414403 C16.8196639,305.852434 16.2021972,305.500194 16.1997273,304.633206 L15.7856129,158.202875 L15.7658466,151.346983 C15.7633841,150.475045 16.3767344,149.410076 17.133337,148.972045 Z" id="Shape" fill="url(#linearGradient-7)" fill-rule="nonzero"></path>
                            <g id="Group" opacity="0.5" transform="translate(30.000000, 148.000000)" fill="#190C3A">
                                <path d="M3.0335283,71.2510345 L40.9976604,48.8424828 C42.0418302,48.2275862 42.6835849,47.0896552 42.6803519,45.8598621 L42.6056981,1.74537931 C42.6024528,0.614896552 41.4025094,-0.0902068966 40.442717,0.475862069 L2.47858491,22.8844138 C1.43441509,23.4993103 0.792660377,24.6372414 0.79589341,25.8670345 L0.87054717,69.9815172 C0.872981132,71.112 2.07373585,71.8162759 3.0335283,71.2510345 Z" id="Path"></path>
                            </g>
                            <path d="M38.2963986,221.801213 L77.2724921,199.447356 C78.3444721,198.83396 79.0033191,197.698806 79,196.472015 L78.9233579,152.465205 C78.9200262,151.337482 77.6881238,150.634925 76.7027684,151.198787 L37.7275079,173.552644 C36.6555279,174.16604 35.9966809,175.301194 36,176.527985 L36.0766421,220.534795 C36.0783079,221.662518 37.3110433,222.365075 38.2963986,221.801213 Z" id="Path" fill="url(#linearGradient-8)"></path>
                            <g id="Group" opacity="0.5" transform="translate(84.000000, 61.000000)" fill="#190C3A">
                                <path d="M2.64248619,97.6719492 L146.514746,11.5598475 C147.57421,10.9427797 148.225365,9.80083051 148.222084,8.56669492 L148.146337,1.55720339 C148.143044,0.422728814 146.925525,-0.284864407 145.951674,0.28320339 L2.07859116,86.3953051 C1.01912707,87.0123729 0.367972376,88.154322 0.371252764,89.3884576 L0.447,96.3979492 C0.450292818,97.5324237 1.66863536,98.2391864 2.64248619,97.6719492 Z" id="Path"></path>
                            </g>
                            <g id="Group" opacity="0.8" transform="translate(121.000000, 166.000000)">
                                <g transform="translate(0.000000, 9.714286)" fill="url(#linearGradient-9)" fill-rule="nonzero" id="Shape">
                                    <path d="M1.90096296,7.12219048 C2.30837037,7.12219048 2.74918519,6.99266667 3.19733333,6.73604762 C4.64933333,5.90304762 5.78355556,3.95047619 5.77949242,2.29095238 C5.77622222,1.39885714 5.44540741,0.718857143 4.84733333,0.377238095 C4.246,0.0323809524 3.48251852,0.0914761905 2.69703704,0.542380952 L2.69703704,0.543190476 C1.24503704,1.37619048 0.110814815,3.3287619 0.114877948,4.98747619 C0.118148148,5.87957143 0.448962963,6.55957143 1.04703704,6.902 C1.30614815,7.04852381 1.59377778,7.12219048 1.90096296,7.12219048 Z M3.18185185,1.37619048 C3.64792593,1.10985714 4.07814815,1.04914286 4.36333333,1.21185714 C4.64525926,1.37295238 4.80740741,1.76719048 4.80904531,2.29338095 C4.8122963,3.59509524 3.85244444,5.24652381 2.7117037,5.90061905 C2.24562963,6.16857143 1.81459259,6.22847619 1.53022222,6.0657619 C1.2482963,5.90466667 1.08614815,5.51042857 1.08451025,4.9842381 C1.08125926,3.68333333 2.04192593,2.03109524 3.18185185,1.37619048 Z"></path>
                                </g>
                                <g transform="translate(8.148148, 4.857143)" fill="url(#linearGradient-10)" fill-rule="nonzero" id="Shape">
                                    <path d="M1.80481481,7.36019048 C2.21303704,7.36019048 2.65385185,7.23066667 3.10118519,6.97404762 C4.55318519,6.14104762 5.68740741,4.18847619 5.68334427,2.5297619 C5.68088889,1.63766667 5.35007407,0.957666667 4.752,0.615238095 C4.14985185,0.271190476 3.38718519,0.32947619 2.60088889,0.780380952 L2.60088889,0.781190476 C1.14807407,1.61419048 0.0146666667,3.5667619 0.0195397994,5.22547619 C0.022,6.11757143 0.352814815,6.79757143 0.951703704,7.14 C1.21,7.28733333 1.49844444,7.36019048 1.80481481,7.36019048 Z M3.08651852,1.615 C3.55259259,1.34866667 3.98362963,1.28795238 4.26881481,1.45066667 C4.54992593,1.6117619 4.71288889,2.006 4.71371198,2.53219048 C4.71696296,3.83390476 3.75711111,5.48614286 2.61637037,6.13942857 C2.15111111,6.40657143 1.72088889,6.46728571 1.43488889,6.3037619 C1.15296296,6.14266667 0.990814815,5.74842857 0.989176909,5.22142857 C0.985925926,3.92133333 1.94577778,2.26909524 3.08651852,1.615 Z"></path>
                                </g>
                                <g transform="translate(15.481481, 0.000000)" fill="#EADBFF" fill-rule="nonzero" id="Shape">
                                    <path d="M2.5242963,7.599 C2.9317037,7.599 3.37333333,7.46947619 3.82066667,7.21285714 C5.27185185,6.38066667 6.40444444,4.42890476 6.39957132,2.77019048 C6.39711111,1.87647619 6.06548148,1.19647619 5.46740741,0.854047619 C4.86688889,0.510809524 4.10422222,0.569095238 3.31955556,1.01919048 C1.86674074,1.85219048 0.733333333,3.8047619 0.737396459,5.46347619 C0.739851852,6.35557143 1.07066667,7.03557143 1.66874074,7.378 C1.92866667,7.52533333 2.21711111,7.599 2.5242963,7.599 Z M3.80518519,1.85380952 C4.09851852,1.68542857 4.37718519,1.59961905 4.6142963,1.59961905 C4.75362963,1.59961905 4.8782963,1.62957143 4.98340741,1.68947619 C5.26533333,1.85057143 5.42748148,2.24561905 5.42912403,2.77261905 C5.43318519,4.07352381 4.47333333,5.72495238 3.33503704,6.3782381 C2.86896296,6.64538095 2.43792593,6.70609524 2.15355556,6.54257143 C1.87162963,6.38147619 1.70948148,5.9872381 1.70784358,5.4602381 C1.70459259,4.15933333 2.66525926,2.50790476 3.80518519,1.85380952 Z"></path>
                                </g>
                                <g transform="translate(17.925926, 2.428571)" fill="#EADBFF" id="Path">
                                    <path d="M1.1277037,2.54271429 C1.54162963,2.30552381 1.87488889,1.7307619 1.87407557,1.258 C1.87244444,0.785238095 1.53674074,0.594190476 1.12362963,0.832190476 C0.709703704,1.06938095 0.37562963,1.64495238 0.376442957,2.11690476 C0.377259259,2.58885714 0.713777778,2.77990476 1.1277037,2.54271429 Z"></path>
                                </g>
                            </g>
                            <path d="M90.2735249,160.799592 L234.290939,74.5017258 C235.351472,73.8833269 236.003284,72.7389143 236,71.5021163 L235.924176,64.4775037 C235.92088,63.3405818 234.702132,62.6314621 233.727299,63.2007553 L89.709061,149.498621 C88.648528,150.11702 87.9967163,151.261433 88,152.498231 L88.0758237,159.522844 C88.0791198,160.659765 89.2986915,161.368053 90.2735249,160.799592 Z" id="Path" fill="url(#linearGradient-11)"></path>
                            <g id="Group" opacity="0.5" transform="translate(84.000000, 80.000000)" fill="#190C3A">
                                <path d="M2.64248619,91.33875 L146.514746,6.16810714 C147.57421,5.55778571 148.225365,4.42832143 148.222084,3.20767857 L148.146337,1.50732143 C148.143044,0.38525 146.925525,-0.313785714 145.951674,0.24725 L2.07859116,85.4178929 C1.01912707,86.0282143 0.367972376,87.1576786 0.371252764,88.3783214 L0.447,90.0786786 C0.450292818,91.20075 1.66863536,91.8997857 2.64248619,91.33875 Z" id="Path"></path>
                            </g>
                            <path d="M90.2735249,173.801113 L234.290939,88.1532739 C235.351472,87.5395329 236.003284,86.4037404 236,85.1762585 L235.924176,83.4663746 C235.92088,82.3380164 234.702132,81.634238 233.727299,82.1992432 L89.709061,167.846256 C88.648528,168.459997 87.9967163,169.59579 88,170.823272 L88.0758237,172.533156 C88.0791198,173.66234 89.2986915,174.365292 90.2735249,173.801113 Z" id="Path" fill="url(#linearGradient-12)"></path>
                            <g id="Group" opacity="0.5" transform="translate(84.000000, 93.000000)" fill="#190C3A">
                                <path d="M2.64248619,92.1835752 L146.514746,6.84907965 C147.57421,6.23758407 148.225365,5.1059469 148.222084,3.88295575 L148.146337,2.17932743 C148.143044,1.05509735 146.925525,0.353893805 145.951674,0.916831858 L2.07859116,86.2505044 C1.01912707,86.862 0.367972376,87.9936372 0.371252764,89.2166283 L0.447,90.9202566 C0.450292818,92.0444867 1.66863536,92.7456903 2.64248619,92.1835752 Z" id="Path"></path>
                            </g>
                            <path d="M90.2735249,187.801101 L234.290939,102.153273 C235.351472,101.539532 236.003284,100.40374 236,99.1762581 L235.924176,97.4663744 C235.92088,96.3380163 234.702132,95.6342381 233.727299,96.1992432 L89.709061,181.847072 C88.648528,182.460812 87.9967163,183.596605 88,184.824087 L88.0758237,186.53397 C88.0791198,187.662328 89.2986915,188.365281 90.2735249,187.801101 Z" id="Path" fill="url(#linearGradient-13)"></path>
                            <g id="Group" opacity="0.5" transform="translate(227.000000, 21.000000)" fill="#FFFFFF">
                                <g transform="translate(0.000000, 8.784314)" id="Path">
                                    <path d="M2.62615728,5.33734902 C3.72293022,4.66271373 4.60875359,3.02619608 4.60464779,1.68307451 C4.60133739,0.339952941 3.70892185,-0.202039216 2.61297293,0.47347451 C1.51867207,1.14723137 0.632848696,2.78287059 0.636135614,4.12599216 C0.640264891,5.46911373 1.53185641,6.01022745 2.62615728,5.33734902 Z"></path>
                                </g>
                                <g transform="translate(7.416196, 4.392157)" id="Path">
                                    <path d="M2.02214935,5.53675294 C3.11892228,4.86211765 4.00474565,3.2256 4.00145873,1.88247843 C3.99815348,0.539356863 3.10573793,-0.00263529412 2.00978902,0.672878431 C0.913016087,1.34751373 0.0271927174,2.98403137 0.0304796357,4.32715294 C0.0337848913,5.67027451 0.925376413,6.21138824 2.02214935,5.53675294 Z"></path>
                                </g>
                                <g transform="translate(14.008370, 0.000000)" id="Path">
                                    <path d="M2.24133913,5.73615686 C3.33811207,5.06152157 4.22393543,3.42500392 4.22064852,2.08188235 C4.21734326,0.738760784 3.32575174,0.196768627 2.2289788,0.872282353 C1.13220587,1.54691765 0.2463825,3.18343529 0.249669418,4.52655686 C0.252974674,5.86967843 1.1445662,6.41167059 2.24133913,5.73615686 Z"></path>
                                </g>
                            </g>
                            <g id="Group" opacity="0.5" transform="translate(58.000000, 225.000000)" fill="#190C3A">
                                <path d="M13.2398182,33.1091667 C20.4864545,28.8475 26.3413636,18.5191667 26.3177082,10.0375 C26.2939091,1.55666667 20.4005455,-1.86416667 13.1539091,2.3975 C5.922,6.65 0.0670909091,16.9791667 0.090746319,25.46 C0.114545455,33.9416667 6.00790909,37.3625 13.2398182,33.1091667 Z" id="Path"></path>
                            </g>
                            <g id="Group" opacity="0.5" transform="translate(115.000000, 192.000000)" fill="#190C3A">
                                <path d="M13.2430909,33.4431628 C20.4897273,29.1616744 26.3446364,18.7853023 26.320981,10.264186 C26.2971818,1.74390698 20.4038182,-1.69283721 13.1571818,2.58865116 C5.91054545,6.87013953 0.0556363636,17.2465116 0.0792917737,25.7676279 C0.103090909,34.287907 5.99645455,37.7246512 13.2430909,33.4431628 Z" id="Path"></path>
                            </g>
                            <g id="Group" opacity="0.5" transform="translate(168.000000, 154.000000)" fill="#190C3A">
                                <ellipse id="Oval" transform="translate(19.121169, 22.102429) rotate(-59.835119) translate(-19.121169, -22.102429) " cx="19.1211685" cy="22.1024285" rx="18.7404255" ry="10.825467"></ellipse>
                            </g>
                            <g id="Group" opacity="0.2" transform="translate(63.000000, 228.000000)" fill="#EADBFF">
                                <path d="M13.8395455,33.0975 C21.0861818,28.8358333 26.9410909,18.5075 26.9174355,10.0258333 C26.8936364,1.545 21.0002727,-1.87583333 13.7536364,2.385 C6.52172727,6.6375 0.666818182,16.9666667 0.690473592,25.4475 C0.714272727,33.93 6.60763636,37.35 13.8395455,33.0975 Z" id="Path"></path>
                            </g>
                            <path d="M77.0216388,254.883169 C81.4423721,252.27958 85.0143823,245.969657 85,240.78782 C84.9855306,235.605984 81.3902786,233.516573 76.9695453,236.120162 C72.5576279,238.718029 68.9856177,245.028768 69,250.209788 C69.0144694,255.391625 72.6097214,257.481853 77.0216388,254.883169 Z" id="Path" fill="url(#linearGradient-14)"></path>
                            <g id="Group" opacity="0.2" transform="translate(121.000000, 194.000000)" fill="#EADBFF">
                                <path d="M13.8428182,33.4314419 C21.0894545,29.1499535 26.9443636,18.7735814 26.9207082,10.2524651 C26.8969091,1.73218605 21.0035455,-1.70455814 13.7569091,2.57693023 C6.51027273,6.8584186 0.655363636,17.2347907 0.679019046,25.755907 C0.702818182,34.276186 6.59618182,37.7129302 13.8428182,33.4314419 Z" id="Path"></path>
                            </g>
                            <path d="M135.026032,220.880016 C139.444331,218.27684 143.014374,211.967918 143,206.786903 C142.985539,201.605888 139.392266,199.516808 134.973968,202.119984 C130.555669,204.72316 126.985626,211.032082 127,216.213097 C127.014461,221.394112 130.607734,223.483192 135.026032,220.880016 Z" id="Path" fill="url(#linearGradient-15)"></path>
                            <path d="M192.026032,188.880496 C196.444331,186.277257 200.014374,179.968183 200,174.787042 C199.985539,169.605902 196.392266,167.516772 191.973968,170.120011 C187.555669,172.72325 183.985626,179.032324 184,184.213464 C184.014461,189.393787 187.607734,191.482917 192.026032,188.880496 Z" id="Path" fill="url(#linearGradient-16)"></path>
                            <g id="Group" opacity="0.2" transform="translate(178.000000, 160.000000)" fill="#EADBFF">
                                <path d="M13.8460909,33.5093023 C21.0927273,29.227814 26.9476364,18.8514419 26.923981,10.3303256 C26.9001818,1.81004651 21.0068182,-1.62669767 13.7601818,2.6547907 C6.51354545,6.93627907 0.658636364,17.3126512 0.682291774,25.8337674 C0.706090909,34.3540465 6.59945455,37.7907907 13.8460909,33.5093023 Z" id="Path"></path>
                            </g>
                            <g id="Group" opacity="0.5" transform="translate(126.000000, 261.000000)" fill="url(#linearGradient-17)">
                                <path d="M6.04707692,14.1370588 C9.30461538,12.3397059 11.9353846,7.98264706 11.9252601,4.41264706 C11.9141538,0.835588235 9.26584615,-0.607941176 6.00923077,1.19029412 C2.75261538,2.98764706 0.127384615,7.34117647 0.138426614,10.9182353 C0.147692308,14.4873529 2.78953846,15.9344118 6.04707692,14.1370588 Z" id="Path"></path>
                            </g>
                            <path d="M6.63511555,350.686183 L6.55240044,322.603385 C6.55240044,322.603385 0.308689349,319.12812 0,319 L0.0801569029,346.920119 C0.090389699,350.515075 1.37460561,353.044609 3.44504136,354.234779 L10,358 C7.92871152,356.810672 6.64534834,354.280296 6.63511555,350.686183 Z" id="Path" fill="url(#linearGradient-18)"></path>
                        </g>
                    </g>
                </g>
            </g>
        </g>
    </g>
</svg>