<?xml version="1.0" encoding="UTF-8"?>
<svg width="253px" height="301px" viewBox="0 0 253 301" version="1.1" xmlns="http://www.w3.org/2000/svg" xmlns:xlink="http://www.w3.org/1999/xlink">
    <!-- Generator: Sketch 55.1 (78136) - https://sketchapp.com -->
    <title>illustration / fingerprint</title>
    <desc>Created with Sketch.</desc>
    <defs>
        <linearGradient x1="0.00021717413%" y1="49.9997828%" x2="100.000326%" y2="49.9997828%" id="linearGradient-1">
            <stop stop-color="#3CDC7C" offset="31.75%"></stop>
            <stop stop-color="#95EBB1" offset="99.64%"></stop>
        </linearGradient>
        <linearGradient x1="100.424095%" y1="50.0010029%" x2="0.0220351561%" y2="50.0010029%" id="linearGradient-2">
            <stop stop-color="#3CDC7C" offset="31.75%"></stop>
            <stop stop-color="#95EBB1" offset="99.64%"></stop>
        </linearGradient>
        <linearGradient x1="100.122797%" y1="49.9998886%" x2="0.123243078%" y2="49.9998886%" id="linearGradient-3">
            <stop stop-color="#BAEBCA" offset="76.26%"></stop>
            <stop stop-color="#CDF6D9" offset="100%"></stop>
        </linearGradient>
        <linearGradient x1="-8.86960049%" y1="400.588209%" x2="99.1162036%" y2="-242.494584%" id="linearGradient-4">
            <stop stop-color="#F64D79" offset="31.91%"></stop>
            <stop stop-color="#FA94AF" offset="100%"></stop>
        </linearGradient>
        <linearGradient x1="16.5721225%" y1="237.621228%" x2="72.161617%" y2="-74.3711341%" id="linearGradient-5">
            <stop stop-color="#F64D79" offset="31.91%"></stop>
            <stop stop-color="#FA94AF" offset="100%"></stop>
        </linearGradient>
        <linearGradient x1="34.7595916%" y1="137.74382%" x2="58.2076404%" y2="2.76147523%" id="linearGradient-6">
            <stop stop-color="#F64D79" offset="31.91%"></stop>
            <stop stop-color="#FA94AF" offset="100%"></stop>
        </linearGradient>
        <linearGradient x1="-0.000108587065%" y1="50.0005429%" x2="100.000109%" y2="50.0005429%" id="linearGradient-7">
            <stop stop-color="#3CDC7C" offset="31.75%"></stop>
            <stop stop-color="#95EBB1" offset="99.64%"></stop>
        </linearGradient>
        <linearGradient x1="100.385829%" y1="50.0002507%" x2="-0.0169831935%" y2="50.0002507%" id="linearGradient-8">
            <stop stop-color="#3CDC7C" offset="31.75%"></stop>
            <stop stop-color="#95EBB1" offset="99.64%"></stop>
        </linearGradient>
        <linearGradient x1="100.615317%" y1="49.9994982%" x2="0.615612734%" y2="49.9994982%" id="linearGradient-9">
            <stop stop-color="#3CDC7C" offset="31.75%"></stop>
            <stop stop-color="#95EBB1" offset="99.64%"></stop>
        </linearGradient>
        <linearGradient x1="45.5926168%" y1="55.3414724%" x2="54.4112057%" y2="44.7304725%" id="linearGradient-10">
            <stop stop-color="#3CDC7C" stop-opacity="0.5" offset="0%"></stop>
            <stop stop-color="#3CDC7C" stop-opacity="0" offset="99.84%"></stop>
        </linearGradient>
    </defs>
    <g id="💵-Fraudfix" stroke="none" stroke-width="1" fill="none" fill-rule="evenodd">
        <g id="Home" transform="translate(-425.000000, -1965.000000)">
            <g id="what-we-do" transform="translate(-1129.000000, 469.000000)">
                <g id="3" transform="translate(1554.000000, 1496.000000)">
                    <g id="illustration-/-fingerprint">
                        <g id="illustration">
                            <g id="Group" transform="translate(0.000000, 85.613772)">
                                <path d="M27.6191539,14.0622874 C27.6191539,6.43815569 21.4828838,0.230105788 13.9469052,0.230105788 C6.41092652,0.230105788 0.274656432,6.43815569 0.274656432,14.0622874 C0.274656432,21.6864192 6.41092652,27.8944691 13.9469052,27.8944691 C21.4828838,27.8944691 27.6191539,21.6864192 27.6191539,14.0622874 Z" id="Path" fill="url(#linearGradient-1)"></path>
                                <path d="M0.167169266,13.1908293 C0.167169266,13.6264082 0.0593851745,14.0622874 0.0593851745,14.4978663 C0.0593851745,14.9334451 0.167169266,15.3693244 0.274656432,15.8049032 C0.920470205,17.547519 2.21239468,18.9636008 3.71959041,19.8347585 C6.73398187,21.7951637 10.3941871,22.5575768 13.8391211,22.5575768 C17.3918391,22.5575768 20.9442603,21.7951637 23.9586517,19.943503 C25.4658475,18.9633004 26.8652591,17.6562635 27.4035857,15.9136477 C27.7266411,15.0421896 27.7266411,14.061987 27.618857,13.1908293 C27.5110729,12.3196717 27.2958016,11.4482136 27.0805304,10.5767555 C27.1883145,11.4479132 27.2958016,12.3193713 27.2958016,13.1908293 C27.2958016,14.0622874 27.1880175,14.9334451 26.8652591,15.6958583 C26.2194453,17.2206846 24.8197368,18.3099321 23.4203251,19.1810898 C22.0209135,20.0522475 20.4059337,20.5968713 18.7912508,20.9237056 C17.176271,21.2505399 15.453804,21.4683293 13.8391211,21.4683293 C12.1166541,21.4683293 10.5016743,21.2505399 8.88699137,20.9237056 C7.27201155,20.5968713 5.65732865,19.943503 4.25791701,19.1810898 C2.85850538,18.3099321 1.5665809,17.2206846 0.812983039,15.6958583 C0.597711782,15.369024 0.48992769,14.9334451 0.48992769,14.4978663 C0.382143598,14.0622874 0.382143598,13.6267086 0.382143598,13.1908293 C0.382143598,12.3196717 0.48992769,11.4482136 0.597414856,10.5767555 C0.382440524,11.4482136 0.274656432,12.3196717 0.167169266,13.1908293 Z" id="Path" fill="url(#linearGradient-2)"></path>
                                <path d="M20.0834722,26.2605978 C19.3298743,26.6961766 18.5762764,27.023011 17.7151914,27.3498453 C18.5765734,27.1320559 19.4376584,26.9142665 20.1912563,26.5874321 C20.9448541,26.2605978 21.8062361,25.7162745 22.3442658,25.0626058 C23.5284061,23.6468244 23.9592456,21.7951637 24.0667328,19.943503 C24.1745168,16.3492265 22.9900795,12.863995 21.2676126,9.7055978 C19.4373615,6.65594511 17.0690807,3.82408184 13.839418,2.19051098 C12.2244382,1.31935329 10.394484,0.883474052 8.67201704,1.21030838 C8.24147452,1.31935329 7.81063508,1.4280978 7.38009256,1.64588723 C6.94955005,1.86367665 6.6264947,2.08146607 6.30343935,2.4083004 C5.54984149,2.95292415 4.90402771,3.4975479 4.36570111,4.15091617 C5.01151488,3.60629242 5.76511274,3.06166866 6.41122344,2.62608982 C6.73427879,2.4083004 7.16482131,2.19051098 7.48787666,2.08146607 C7.91841917,1.97242116 8.24147452,1.86367665 8.67201704,1.75463174 C10.2869969,1.53684232 11.9016798,2.19021058 13.3010914,2.95262375 C16.2076988,4.69523952 18.4684924,7.30931337 20.0834722,10.2499212 C20.9448541,11.6657026 21.5906679,13.2995739 22.1289945,14.8244002 C22.6673211,16.4582715 22.9903765,18.0918423 22.9903765,19.8344581 C22.9903765,21.4683293 22.6673211,23.2109451 21.698452,24.5176816 C21.4828838,25.3894401 20.83707,25.825019 20.0834722,26.2605978 Z" id="Path" fill="url(#linearGradient-3)"></path>
                                <path d="M23.9589487,22.9931557 C24.8203306,22.4485319 25.5739285,21.5773743 26.004471,20.5968713 C26.3275263,19.943503 26.5427976,19.1810898 26.5427976,18.5274212 C26.5427976,16.8935499 25.3586572,16.2401816 23.9589487,17.0025948 C22.559537,17.8737525 21.3750997,19.8344581 21.3750997,21.4680289 C21.3750997,23.1022006 22.559537,23.8646138 23.9589487,22.9931557 Z" id="Path" fill="#95EBB1"></path>
                                <path d="M23.5284061,22.3397874 C22.7748083,22.7753663 22.0212104,22.7753663 21.5906679,22.4485319 C22.0212104,23.31999 22.8825924,23.5377794 23.9589487,22.9931557 C24.8203306,22.4485319 25.5739285,21.5773743 26.004471,20.5968713 C26.3275263,19.943503 26.5427976,19.1810898 26.5427976,18.5274212 C26.5427976,17.765008 26.3275263,17.2203842 25.8969838,16.8935499 C26.0047679,17.2203842 26.1122551,17.5469182 26.1122551,17.8737525 C26.1122551,18.5271208 25.8969838,19.2895339 25.5739285,19.9432026 C25.143089,20.924006 24.3894912,21.9042086 23.5284061,22.3397874 Z" id="Path" fill="#21934F"></path>
                            </g>
                            <g id="Group" opacity="0.1" transform="translate(56.722420, 0.000000)" fill="#190C3A">
                                <g transform="translate(131.659369, 116.207060)" id="Path">
                                    <path d="M9.9225188,103.748892 L10.1389656,24.642122 C10.1389656,17.2259179 9.05643302,9.37956981 7.00003907,1.31859439 L0.18062113,0.136365427 C2.02086682,7.23003565 2.99502674,14.0014684 2.99502674,20.4503674 L2.77857993,99.5571374 L9.9225188,103.748892 Z"></path>
                                </g>
                                <g transform="translate(43.886456, 117.392846)" id="Path">
                                    <polygon points="0.27645482 0.240418177 0.27645482 14.750589 7.52876637 18.9423436 7.52876637 4.43217283"></polygon>
                                </g>
                                <g transform="translate(43.587909, 200.990782)" id="Path">
                                    <polygon points="0.358555334 0.155930901 0.250182656 19.2877039 7.61086689 23.3718484 7.61086689 4.34768555"></polygon>
                                </g>
                                <g transform="translate(14.628819, 133.400961)" id="Path">
                                    <polygon points="0.308100837 0.246940002 0.0916540279 70.1102092 7.45233826 74.3019638 7.66878507 4.4389911"></polygon>
                                </g>
                                <g transform="translate(29.257638, 169.863891)" id="Path">
                                    <polygon points="0.183905151 0.00563248503 0.0758310199 42.0307891 7.32814257 46.2228402 7.43651525 4.08977702"></polygon>
                                </g>
                                <g transform="translate(29.257638, 140.515679)" id="Path">
                                    <polygon points="0.292277828 0.0112649701 0.183905151 14.5211393 7.43651525 18.7128939 7.54458938 4.20301962"></polygon>
                                </g>
                                <g id="Path">
                                    <polygon points="44.0545385 170.944142 43.9464644 189.753678 51.1987759 193.945432 51.3068501 175.136193"></polygon>
                                    <polygon points="58.5591616 186.099084 58.4510875 205.875925 65.8114732 210.067679 65.8114732 190.290839"></polygon>
                                    <polygon points="15.153665 86.3560747 15.0452923 115.48373 22.2976039 119.567874 22.4059765 90.5478293"></polygon>
                                    <polygon points="90.5992602 213.829587 90.3828134 246.933776 97.7434977 251.125827 97.8515718 217.913731"></polygon>
                                    <polygon points="90.7076329 169.761913 90.5992602 197.707339 97.8515718 201.899094 97.9599445 173.953668"></polygon>
                                    <polygon points="73.2802315 139.237105 72.9557106 236.93819 80.2080221 241.129945 80.5325431 143.42886"></polygon>
                                    <polygon points="105.212256 189.10861 104.995809 255.317582 112.248121 259.401726 112.464568 193.300364"></polygon>
                                    <polygon points="134.221502 225.222622 134.11313 271.977287 141.365441 276.169042 141.473814 229.414376"></polygon>
                                    <path d="M44.4874321,55.5087329 L38.3176532,47.5550711 C32.688842,54.5414277 29.7663622,64.5373099 29.7663622,76.5751162 L29.6579895,123.759629 L36.9103011,127.951384 L37.0186738,80.7668709 C37.0186738,70.3411411 39.6166326,61.6350979 44.4874321,55.5087329 Z"></path>
                                    <path d="M97.9599445,162.99048 L98.0683172,115.805967 C98.0683172,108.067229 92.5478786,98.5014911 85.7284607,94.6319739 C78.9090427,90.7627531 73.3886042,93.8795925 73.2805301,101.61833 L73.2805301,119.567874 L80.5328416,123.759629 L80.5328416,105.810085 C80.5328416,102.585636 82.8059809,101.295797 85.6203866,102.90817 C88.4347922,104.520542 90.7079315,108.497373 90.7079315,111.614213 L90.5995588,158.798726 L97.9599445,162.99048 Z"></path>
                                    <polygon points="105.428703 119.997722 105.212256 167.182235 112.464568 171.374286 112.681014 124.189477"></polygon>
                                    <path d="M85.8365348,86.3560747 C88.5425677,87.8608375 91.0321539,89.903058 93.52174,92.4824397 L96.3361456,86.4633884 C92.9804737,82.916405 89.5167277,80.1220996 85.8365348,78.0798791 C71.0070922,69.5887597 58.8839811,76.4675061 58.7756084,93.3424313 L58.5591616,171.804134 L65.8114732,175.995888 L66.02792,97.5341859 C66.1362927,85.0662356 75.0121046,80.1220996 85.8365348,86.3560747 Z"></path>
                                    <path d="M126.969191,216.194044 L127.186108,132.465672 C127.29401,106.347543 108.676002,74.4255821 85.8365348,61.312564 C62.9970676,48.199546 44.2709853,58.7328859 44.2709853,84.8510154 L44.2709853,98.0713471 L51.5232969,102.263102 L51.5232969,89.0427701 C51.6316696,67.5465392 67.0020799,58.840496 85.8365348,69.5884632 C104.67099,80.4440405 119.933326,106.66978 119.933326,128.166011 L119.716879,211.894383 L126.969191,216.194044 Z"></path>
                                    <path d="M46.4360505,29.6055271 C50.7658823,28.2083744 55.5286078,27.6709167 60.50778,27.9931542 C62.4560998,28.1007643 64.4044196,28.4230017 66.4611121,28.8528492 C72.7392638,30.1426883 79.2338622,32.72207 85.8368334,36.4839771 L85.8368334,28.2077815 C78.4761491,24.0160268 71.2238376,21.1141113 64.1882714,19.7166621 C61.9151321,19.2868145 59.6419928,18.9642806 57.4772261,18.7493569 C51.8484149,18.3195093 46.5447217,18.9642806 41.7819963,20.5766536 C30.3082256,24.4458744 22.0817541,33.5820615 17.860295,47.2322408 L24.7877871,53.5735296 C28.7922023,41.321096 36.2609607,33.0449003 46.4360505,29.6055271 Z"></path>
                                    <path d="M119.608506,87.8608375 L124.696051,84.7439982 C114.304515,67.3319118 100.557903,53.1442749 86.0529816,44.7607656 C79.6667559,41.1064686 73.2802315,38.7417143 67.3268994,37.6670954 L69.7084114,46.9105962 C74.9040304,47.7702913 80.424469,49.9201219 85.9449075,53.0369613 C98.5012108,60.3452588 110.516248,72.7058954 119.608506,87.8608375 Z"></path>
                                    <path d="M118.526272,55.9385804 L115.170601,61.4201741 C136.169822,86.0335408 149.159019,118.063112 149.050945,145.041233 L156.303256,149.232987 C156.411331,119.030417 141.906707,83.346549 118.526272,55.9385804 Z"></path>
                                    <path d="M170.48306,292.828746 L170.916185,157.509183 C171.024326,103.983085 133.030597,38.5267905 86.0529816,11.5489659 C39.0753663,-15.3218415 0.757116009,6.28199949 0.649041879,59.9154113 L0.216148261,195.234975 L7.46845981,199.426729 L7.90135343,64.1071659 C8.00942756,15.0956528 43.0803786,-4.68118795 86.0529816,19.9321787 C129.025585,44.5455454 163.772015,104.412932 163.663642,153.424742 L163.230748,288.744305 L170.48306,292.828746 Z"></path>
                                </g>
                                <g transform="translate(148.676566, 182.611094)" id="Path">
                                    <polygon points="0.266005664 0.0486172392 0.0495588555 71.2017255 7.30187041 75.3934801 7.51831722 4.13305823"></polygon>
                                </g>
                                <g transform="translate(119.418929, 230.338993)" id="Path">
                                    <polygon points="0.18957755 0.150298416 0.081503419 33.2544881 7.4418891 37.4462427 7.55026178 4.34205306"></polygon>
                                </g>
                            </g>
                            <g id="Group" transform="translate(22.508897, 8.110778)">
                                <path d="M157.270121,187.345015 L157.377956,141.464372 C157.377956,134.033059 156.300798,126.170726 154.254614,118.093328 L147.469053,116.908691 C149.300162,124.016813 150.269485,130.802041 150.269485,137.264078 L150.161651,183.252252 L157.270121,187.345015 Z" id="Path" fill="#3CDC7C"></path>
                                <g transform="translate(60.007148, 117.929059)" id="Path">
                                    <polygon fill="url(#linearGradient-4)" points="0.219531103 14.3808101 0.219531103 14.7040011 7.54367093 18.9042955 7.54367093 18.4735723"></polygon>
                                    <polygon fill="#3CDC7C" points="0.327365731 0.164268941 0.219531103 14.3808101 7.54367093 18.4735723 7.54367093 4.36456339"></polygon>
                                </g>
                                <g id="Path">
                                    <g transform="translate(31.191835, 86.738754)">
                                        <polygon fill="#3CDC7C" points="7.493764 4.32178812 0.169624167 0.121493666 0.169624167 29.2006609 0.169624167 29.2006609 7.38592937 33.293126"></polygon>
                                        <polygon fill="url(#linearGradient-5)" points="0.169624167 29.2006609 7.38592937 33.4009554 7.38592937 33.293126"></polygon>
                                    </g>
                                    <polygon fill="#3CDC7C" points="89.3075696 139.741182 89.3075696 148.788153 96.5238748 152.880618 96.5238748 143.941477"></polygon>
                                    <g transform="translate(45.748024, 47.825135)">
                                        <polygon fill="url(#linearGradient-6)" points="0.0460450892 76.2995072 0.0460450892 76.5148689 7.26235029 80.607631 7.26235029 80.3922694"></polygon>
                                        <path d="M14.9096969,8.12492602 L8.77054976,0.155060375 C3.16968453,7.15565015 0.261714346,17.1718969 0.261714346,29.2342276 L0.153879717,76.4073366 L7.37018492,80.5000987 L7.47801955,33.4348191 C7.47801955,22.8797227 10.0627829,14.1562399 14.9096969,8.12492602 Z" fill="#3CDC7C"></path>
                                    </g>
                                    <path d="M113.864455,162.681503 L113.97229,116.262606 C113.97229,108.508102 108.479259,98.9228754 101.693699,95.0454748 C94.9081378,91.1683714 89.4151072,94.2915606 89.3075696,102.046065 L89.3075696,120.032177 L96.5238748,124.232471 L96.5238748,106.246359 C96.5238748,103.01534 98.7857284,101.722874 101.586161,103.338531 C104.386594,104.954189 106.648447,108.939122 106.648447,112.062311 L106.540613,158.589038 L113.864455,162.681503 Z" fill="#3CDC7C"></path>
                                    <g transform="translate(0.000000, 96.541421)" fill="#3CDC7C">
                                        <polygon points="121.296133 23.9214789 121.080761 70.2328443 128.297066 74.3253094 128.512438 28.1217734"></polygon>
                                        <path d="M203.152716,119.021314 C202.937344,119.021314 202.829509,119.021314 202.614137,118.913782 L0.665425805,2.27362473 C0.126846794,1.95043376 0.0193092309,1.30434886 0.234681422,0.765796259 C0.557888242,0.227243653 1.20400482,0.119711362 1.74258383,0.335072995 L203.691592,116.974933 C204.230171,117.298124 204.337708,117.944209 204.122336,118.482761 C203.906667,118.805655 203.475923,119.021314 203.152716,119.021314 Z"></path>
                                    </g>
                                    <path d="M101.801236,86.7524182 C104.493834,88.2602467 106.97106,90.3066278 109.448286,92.8912644 L112.248718,86.8599505 C108.909707,83.305741 105.463158,80.5057427 101.801236,78.4593616 C87.045419,69.9509434 74.9824968,76.8437038 74.8746622,93.753008 L74.7668275,140.602926 L81.9831327,144.695391 L82.0909674,97.9533024 C82.198802,85.5677807 91.0308442,80.5057427 101.801236,86.7524182 Z" fill="#3CDC7C"></path>
                                    <path d="M142.837511,179.159787 L142.945814,133.063784 C143.05318,106.892444 124.527607,74.9054491 101.801533,61.7657161 C79.0754596,48.6259831 60.4423488,59.1807824 60.4423488,85.352122 L60.4423488,98.5993873 L67.658654,102.799682 L67.658654,89.5524165 C67.7664887,68.0123916 83.0605878,59.2886117 101.801533,70.0584757 C120.542479,80.9361689 135.72904,107.215338 135.72904,128.755363 L135.621206,174.959196 L142.837511,179.159787 Z" fill="#3CDC7C"></path>
                                    <path d="M62.5963678,29.8862535 C66.9047028,28.4862544 71.6437822,27.9477018 76.5982338,28.2705957 C78.5368806,28.3784251 80.4755274,28.701319 82.5220088,29.1320422 C88.7689906,30.4245091 95.2313446,33.0091457 101.801533,36.7787169 L101.801533,28.4856603 C94.4773934,24.2853658 87.2610882,21.3775382 80.2604523,19.977242 C77.9985987,19.5465188 75.7367451,19.2233278 73.5827261,19.0079662 C67.9818609,18.5772429 62.7044995,19.2233278 57.9654201,20.8389856 C46.5486145,24.7160891 38.3629859,33.8708893 34.1624855,47.5488779 L41.0555839,53.9030857 C45.040415,41.6256904 52.3642578,33.3329308 62.5963678,29.8862535 Z" fill="#3CDC7C"></path>
                                    <path d="M135.405833,88.2602467 L140.46812,85.1370575 C130.128175,67.6894977 116.449516,53.4729565 102.016905,45.0720706 C95.6623861,41.4103287 89.3075696,39.0407567 83.3837946,37.9639485 L85.7534829,47.226281 C90.9233067,48.0877275 96.4163373,50.2419379 101.909368,53.3651272 C114.403034,60.6889079 126.358419,73.0744297 135.405833,88.2602467 Z" fill="#3CDC7C"></path>
                                    <path d="M134.328675,56.2729548 L130.989664,61.7657161 C151.884628,86.4292272 164.809336,118.524051 164.701799,145.556838 L171.918104,149.757132 C172.025641,119.493327 157.593031,83.7367613 134.328675,56.2729548 Z" fill="#3CDC7C"></path>
                                    <path d="M186.24288,203.715469 L186.350944,158.050189 C186.458549,104.415043 148.653451,38.825395 101.909071,11.7926089 C55.1646904,-15.132645 17.036683,6.51520921 16.9288484,60.2578876 L16.8210137,107.75389 L24.0373189,111.846653 L24.1451536,64.4581821 C24.2529882,15.3465214 59.1495216,-4.47031338 101.909071,20.1931978 C144.66862,44.8567089 179.241947,104.846063 179.134409,153.957724 L179.026574,199.623004 L186.24288,203.715469 Z" fill="#3CDC7C"></path>
                                </g>
                                <polygon id="Path" fill="#3CDC7C" points="164.593964 183.252252 164.593964 191.43748 171.810269 195.530242 171.810269 187.452844"></polygon>
                            </g>
                            <g id="Group" opacity="0.3" transform="translate(38.715302, 114.452096)" fill="#3CDC7C">
                                <g id="Path">
                                    <polygon points="134.617354 75.8407976 134.508791 109.173665 141.882344 113.380662 141.882344 79.9400911"></polygon>
                                    <polygon points="44.0759301 94.3950247 43.9673679 113.596368 51.2323583 117.803365 51.3409205 98.6020221"></polygon>
                                    <polygon points="15.0159684 26.7587646 14.7991432 96.876082 22.1723967 101.083079 22.2809588 30.965762"></polygon>
                                    <polygon points="29.5459492 63.0041001 29.4373871 105.182373 36.7023775 109.38937 36.8109396 67.2110975"></polygon>
                                    <polygon points="29.6542123 33.5548208 29.5459492 48.2254597 36.8109396 52.4324571 36.9192027 37.7618182"></polygon>
                                    <polygon points="44.1841931 64.190628 44.0759301 83.0682644 51.3409205 87.2755593 51.4491835 68.3976254"></polygon>
                                    <polygon points="58.714473 79.400679 58.6059109 99.1414341 65.9794635 103.348431 65.9794635 83.4999725"></polygon>
                                    <polygon points="90.7020237 107.124018 90.5934615 140.348884 97.9670141 144.555882 98.0752772 111.331016"></polygon>
                                    <polygon points="90.9188489 63.0041001 90.8102868 90.9431446 98.0752772 95.150142 98.1838393 67.2110975"></polygon>
                                    <polygon points="73.4612791 41.3216996 73.1358917 130.316653 80.4008822 134.523651 80.7262695 45.4206956"></polygon>
                                    <polygon points="105.44883 82.313147 105.232005 148.762879 112.496995 152.969876 112.71382 86.5204419"></polygon>
                                    <polygon points="134.508791 118.558482 134.400528 165.483165 141.665519 169.690162 141.773782 122.76548"></polygon>
                                    <polygon points="58.8227361 33.1234102 58.714473 64.9457454 65.9794635 69.1527428 66.0877265 37.2224061"></polygon>
                                    <polygon points="120.087373 67.6425081 119.978811 105.398078 127.243801 109.497372 127.352363 71.7418016"></polygon>
                                    <polygon points="0.485987544 0.222250852 0.269162332 88.4620873 7.53415275 92.6690846 7.85924103 4.32124683"></polygon>
                                    <polygon points="163.785578 92.237674 163.568753 182.311154 170.833743 186.410448 171.050569 96.33667"></polygon>
                                    <polygon points="149.255597 84.039087 149.038772 147.252644 156.303763 151.459642 156.520588 88.1383805"></polygon>
                                    <polygon points="119.870547 123.844304 119.761985 157.176874 127.135538 161.383871 127.243801 128.051301"></polygon>
                                </g>
                            </g>
                            <g id="Group" transform="translate(225.088968, 211.781437)">
                                <path d="M27.8465991,14.0670938 C27.8465991,6.44296208 21.710329,0.234912176 14.1743504,0.234912176 C6.63837173,0.234912176 0.502101651,6.44296208 0.502101651,14.0670938 C0.502101651,21.6912255 6.63837173,27.8992754 14.1743504,27.8992754 C21.710329,27.8992754 27.8465991,21.8002705 27.8465991,14.0670938 Z" id="Path" fill="url(#linearGradient-7)"></path>
                                <path d="M0.394317559,13.1959361 C0.394317559,13.631515 0.286533467,14.0673942 0.286533467,14.5029731 C0.286533467,14.9385519 0.394317559,15.3744311 0.501804725,15.81001 C1.1476185,17.5526257 2.43954297,18.9687076 3.9467387,19.8398653 C6.96113016,21.8002705 10.6213354,22.5626836 14.0662694,22.5626836 C17.6189874,22.5626836 21.1714086,21.8002705 24.1858,19.9486098 C25.6929958,18.9684072 27.0924074,17.6613703 27.630734,15.9187545 C27.9537894,15.0472964 27.9537894,14.0670938 27.8460053,13.1959361 C27.7382212,12.3247784 27.5229499,11.4533204 27.3076787,10.5818623 C27.4154627,11.45302 27.5229499,12.324478 27.5229499,13.1959361 C27.5229499,14.0673942 27.4151658,14.9385519 27.0924074,15.7009651 C26.4465936,17.2257914 25.0468851,18.3150389 23.6474734,19.1861966 C22.2480618,20.0576547 20.633082,20.601978 19.0183991,20.9288124 C17.4037162,21.2556467 15.6809523,21.4734361 14.0662694,21.4734361 C12.3438024,21.4734361 10.7288226,21.2556467 9.11413966,20.9288124 C7.49915984,20.601978 5.88447694,19.9486098 4.48506531,19.1861966 C3.08565367,18.3150389 1.7937292,17.2257914 1.04013133,15.7009651 C0.824860074,15.3741307 0.717075982,14.9385519 0.717075982,14.5029731 C0.609291891,14.0673942 0.609291891,13.631515 0.609291891,13.1959361 C0.609291891,12.3247784 0.717075982,11.4533204 0.824563148,10.5818623 C0.609885742,11.5623653 0.502101651,12.3247784 0.394317559,13.1959361 Z" id="Path" fill="url(#linearGradient-8)"></path>
                                <path d="M20.2031333,26.2657046 C19.4495354,26.7012834 18.6959376,27.0281178 17.8345556,27.3549521 C18.6959376,27.1371627 19.5570226,26.9193733 20.3106205,26.5925389 C21.0642183,26.2657046 21.9253034,25.7210808 22.46363,25.0677126 C23.6477703,23.6519311 24.0783129,21.8002705 24.186097,19.9486098 C24.293881,16.3543333 23.1094437,12.8691018 21.3869768,9.71070459 C19.5567257,6.6610519 17.1884449,3.82918862 13.9587822,2.19561776 C12.3438024,1.32415968 10.5138482,0.888580838 8.79138124,1.21541517 C8.36083872,1.32415968 7.92999928,1.43320459 7.49945677,1.65099401 C7.06891425,1.86878343 6.7458589,2.08657285 6.42280355,2.41340719 C5.66920569,2.95803094 5.02339191,3.50265469 4.48506531,4.15602295 C5.13087908,3.6113992 5.88447694,3.06677545 6.53058764,2.63119661 C6.85364299,2.41340719 7.28418551,2.19561776 7.60724086,2.08657285 C8.03778337,1.97782834 8.36083872,1.86878343 8.79138124,1.75973852 C10.4060641,1.5419491 12.021044,2.19531737 13.4204556,2.95773054 C16.327063,4.70034631 18.5878566,7.31442016 20.2028364,10.2550279 C21.0642183,11.6708094 21.7100321,13.3046806 22.2483587,14.829507 C22.7866853,16.4630778 23.1097407,18.0969491 23.1097407,19.8395649 C23.1097407,21.4734361 22.7866853,23.2160519 21.8178162,24.5227884 C21.710329,25.3945469 20.9567312,25.8301257 20.2031333,26.2657046 Z" id="Path" fill="url(#linearGradient-9)"></path>
                            </g>
                            <polygon id="Path" fill="url(#linearGradient-10)" points="209.782918 210.88024 209.782918 174.210624 39.7236692 82.9101796 39.6156584 115.624454"></polygon>
                        </g>
                    </g>
                </g>
            </g>
        </g>
    </g>
</svg>