<?xml version="1.0" encoding="UTF-8"?>
<svg width="417px" height="33px" viewBox="0 0 417 33" version="1.1" xmlns="http://www.w3.org/2000/svg" xmlns:xlink="http://www.w3.org/1999/xlink">
    <!-- Generator: Sketch 55.1 (78136) - https://sketchapp.com -->
    <title>logo footer</title>
    <desc>Created with Sketch.</desc>
    <defs>
        <polygon id="path-1" points="0.00304472272 0.0197495528 17.3825045 0.0197495528 17.3825045 20.328551 0.00304472272 20.328551"></polygon>
        <polygon id="path-3" points="0.0226368515 0.0140250447 4.79701968 0.0140250447 4.79701968 4.78840072 0.0226368515 4.78840072"></polygon>
    </defs>
    <g id="💵-Fraudfix" stroke="none" stroke-width="1" fill="none" fill-rule="evenodd">
        <g id="Home" transform="translate(-261.000000, -6416.000000)">
            <g id="footer" transform="translate(259.000000, 6416.000000)">
                <g id="logo-footer" transform="translate(2.000000, 0.000000)">
                    <g id="logo">
                        <g>
                            <path d="M2.93098748,29.860737 L2.93098748,29.860737 C1.31223971,29.860737 3.57781756e-06,28.5485009 3.57781756e-06,26.9297531 C3.57781756e-06,25.3110411 1.31223971,23.9987692 2.93098748,23.9987692 C4.54973524,23.9987692 5.86197138,25.3110411 5.86197138,26.9297531 C5.86197138,28.5485009 4.54973524,29.860737 2.93098748,29.860737" id="Fill-1" fill="#9714F4"></path>
                            <path d="M23.2036565,9.58808587 C23.2036565,7.9693381 21.8914204,6.65710197 20.2726726,6.65710197 L2.93099106,6.65710197 C1.31224329,6.65710197 7.15563506e-06,7.9693381 7.15563506e-06,9.58808587 C7.15563506e-06,11.2068336 1.31224329,12.5190698 2.93099106,12.5190698 L20.2726726,12.5190698 C20.274712,12.5190698 20.2766798,12.5187478 20.2787191,12.5187478 C20.2807585,12.5187478 20.2827263,12.5190698 20.2847657,12.5190698 C21.8968229,12.5190698 23.2036565,11.2122361 23.2036565,9.60017889 C23.2036565,9.59813953 23.2033345,9.59617174 23.2033345,9.59413238 C23.2033345,9.59209302 23.2036565,9.59012522 23.2036565,9.58808587" id="Fill-3" fill="#9714F4"></path>
                            <path d="M11.6018318,15.3279141 L2.93099106,15.3279141 C1.31224329,15.3279141 7.15563509e-06,16.640186 7.15563509e-06,18.2589338 C7.15563509e-06,19.8776458 1.31224329,21.1899177 2.93099106,21.1899177 L11.6018318,21.1899177 C13.2205796,21.1899177 14.5328157,19.8776458 14.5328157,18.2589338 C14.5328157,16.640186 13.2205796,15.3279141 11.6018318,15.3279141" id="Fill-5" fill="#9714F4"></path>
                            <path d="M46.1659964,8.16080143 L34.6737603,8.16080143 C33.6076422,8.16080143 32.7724007,8.99604293 32.7724007,10.0622683 L32.7724007,26.455542 C32.7724007,27.5059535 33.6076422,28.3288515 34.6737603,28.3288515 C35.7241717,28.3288515 36.5469267,27.5059535 36.5469267,26.455542 L36.5469267,20.1604079 L44.8983757,20.1604079 C45.853653,20.1604079 46.630898,19.3831628 46.630898,18.4278855 C46.630898,17.4727156 45.853653,16.6957209 44.8983757,16.6957209 L36.5469267,16.6957209 L36.5469267,11.6258104 L46.1659964,11.6258104 C47.1211664,11.6258104 47.8982683,10.8486011 47.8982683,9.89332379 C47.8982683,8.93804651 47.1211664,8.16080143 46.1659964,8.16080143" id="Fill-7" fill="#11062F"></path>
                            <path d="M55.0234526,11.6258175 L59.9104651,11.6258175 C62.444347,11.6258175 63.8396959,12.7310411 63.8396959,14.7379463 L63.8396959,14.7943685 C63.8396959,16.7021682 62.3084258,17.9349052 59.9386583,17.9349052 L55.0234526,17.9349052 L55.0234526,11.6258175 Z M60.1920036,8.16080859 L53.1501789,8.16080859 C52.084025,8.16080859 51.2489267,8.99605009 51.2489267,10.0622755 L51.2489267,26.4555492 C51.2489267,27.5059606 52.084025,28.3288587 53.1501789,28.3288587 C54.2005546,28.3288587 55.0234526,27.5059606 55.0234526,26.4555492 L55.0234526,21.3150841 L59.1589088,21.3150841 L63.8980143,27.3644222 C64.3828444,28.0223828 64.959517,28.3288587 65.7127549,28.3288587 C66.5865653,28.3288587 67.5297496,27.6556565 67.5297496,26.5682504 C67.5297496,26.0067478 67.3011986,25.6083578 66.932898,25.1481789 L63.2973345,20.5632415 C66.1197674,19.614297 67.6705009,17.5034204 67.6705009,14.597195 L67.6705009,14.5409159 C67.6705009,12.814941 67.0904293,11.3067835 65.9902147,10.1766583 C64.6412701,8.85787478 62.636297,8.16080859 60.1920036,8.16080859 L60.1920036,8.16080859 Z" id="Fill-9" fill="#11062F"></path>
                            <path d="M83.3050018,20.0473846 L76.8484723,20.0473846 L80.0767728,12.6199428 L83.3050018,20.0473846 Z M82.4150555,9.37858318 C81.9720501,8.39772451 81.2121216,7.87926297 80.2175599,7.87926297 L80.0485796,7.87926297 C79.0500465,7.87926297 78.2595635,8.41178533 77.8226404,9.3790483 L70.5006369,25.7134311 C70.3345188,26.0459177 70.260458,26.3096744 70.260458,26.5682433 C70.260458,27.5554705 71.0337317,28.3288515 72.0209231,28.3288515 C72.8286512,28.3288515 73.4663614,27.8929302 73.7685081,27.1374383 L75.3896887,23.4278855 L84.763678,23.4278855 L86.3278998,27.0230555 C86.6841789,27.8650948 87.3350197,28.3288515 88.1607442,28.3288515 C89.1637853,28.3288515 89.9495456,27.5307478 89.9495456,26.5118569 C89.9495456,26.2387979 89.8745903,25.9596208 89.7386691,25.7163649 L82.4150555,9.37858318 Z" id="Fill-11" fill="#11062F"></path>
                            <path d="M107.876798,8.02002862 C106.810644,8.02002862 105.975438,8.84292665 105.975438,9.89330233 L105.975438,19.6673989 C105.975438,23.0912272 104.269893,24.9768444 101.173041,24.9768444 C98.1031306,24.9768444 96.342415,22.990297 96.342415,19.5266476 L96.342415,9.89330233 C96.342415,8.84292665 95.5195528,8.02002862 94.4691413,8.02002862 C93.4030233,8.02002862 92.5677818,8.84292665 92.5677818,9.89330233 L92.5677818,19.6673989 C92.5677818,25.2792057 95.6837746,28.4978104 101.116619,28.4978104 C106.603166,28.4978104 109.749964,25.2175957 109.749964,19.4984544 L109.749964,9.89330233 C109.749964,8.84292665 108.927209,8.02002862 107.876798,8.02002862" id="Fill-13" fill="#11062F"></path>
                            <path d="M128.395109,18.1744472 L128.395109,18.2307263 C128.395109,22.1139821 125.706773,24.723034 121.705485,24.723034 L117.973463,24.723034 L117.973463,11.6258247 L121.705485,11.6258247 C125.644233,11.6258247 128.395109,14.3187048 128.395109,18.1744472 M121.705485,8.16081574 L116.100154,8.16081574 C115.034036,8.16081574 114.198794,8.99602147 114.198794,10.0622826 L114.198794,26.286576 C114.198794,27.3528372 115.034036,28.1880787 116.100154,28.1880787 L121.705485,28.1880787 C127.866773,28.1880787 132.338758,23.976737 132.338758,18.1744472 L132.338758,18.1181682 C132.338758,12.3484723 127.866773,8.16081574 121.705485,8.16081574" id="Fill-15" fill="#11062F"></path>
                            <path d="M149.618093,8.16080143 L138.125857,8.16080143 C137.059703,8.16080143 136.224497,8.99604293 136.224497,10.0622683 L136.224497,26.455542 C136.224497,27.5059535 137.059703,28.3288515 138.125857,28.3288515 C139.176268,28.3288515 139.999023,27.5059535 139.999023,26.455542 L139.999023,20.1604079 L148.350436,20.1604079 C149.30575,20.1604079 150.082959,19.3831628 150.082959,18.4278855 C150.082959,17.4727156 149.30575,16.6957209 148.350436,16.6957209 L139.999023,16.6957209 L139.999023,11.6258104 L149.618093,11.6258104 C150.573227,11.6258104 151.350365,10.8486011 151.350365,9.89332379 C151.350365,8.93804651 150.573227,8.16080143 149.618093,8.16080143" id="Fill-17" fill="#11062F"></path>
                            <path d="M156.79941,8.02002862 C155.733148,8.02002862 154.897943,8.84292665 154.897943,9.89330233 L154.897943,26.4555564 C154.897943,27.505932 155.733148,28.3288301 156.79941,28.3288301 C157.849821,28.3288301 158.672576,27.505932 158.672576,26.4555564 L158.672576,9.89330233 C158.672576,8.84292665 157.849821,8.02002862 156.79941,8.02002862" id="Fill-19" fill="#11062F"></path>
                            <g id="Group-23" transform="translate(162.611807, 8.000286)">
                                <mask id="mask-2" fill="white">
                                    <use xlink:href="#path-1"></use>
                                </mask>
                                <g id="Clip-22"></g>
                                <path d="M16.8133131,17.0909481 L11.0885903,9.9490161 L16.5316673,3.17277281 C16.9306297,2.67423971 17.1009696,2.24944544 17.1009696,1.75227191 C17.1009696,0.682146691 16.2016136,0.0197495528 15.3684472,0.0197495528 C14.6166047,0.0197495528 14.0736708,0.32529517 13.5552093,1.03831843 L8.74937746,7.32694097 L3.88755277,0.92686941 C3.47925224,0.382397138 3.03363506,0.0197495528 2.1861932,0.0197495528 C1.11821467,0.0197495528 0.312883721,0.813059034 0.312883721,1.86493739 C0.312883721,2.30411449 0.498500894,2.75881932 0.882543828,3.2577102 L6.32494097,10.0051878 L0.544368515,17.1750984 L0.540075134,17.180644 C0.274493739,17.5428265 0.00304472272,17.9906977 0.00304472272,18.5679428 C0.00304472272,19.6700179 0.883903399,20.328551 1.73553131,20.328551 C2.58744544,20.328551 3.07631843,19.9216458 3.54859034,19.3101968 L8.63649732,12.6822898 L13.8079821,19.4214311 C14.2161038,19.9659034 14.661542,20.328551 15.5092343,20.328551 C16.5771771,20.328551 17.3825081,19.5353488 17.3825081,18.4834705 C17.3825081,17.9047585 17.0793596,17.4365653 16.8133131,17.0909481" id="Fill-21" fill="#11062F" mask="url(#mask-2)"></path>
                            </g>
                            <g id="Group-26" transform="translate(154.382826, 0.021753)">
                                <mask id="mask-4" fill="white">
                                    <use xlink:href="#path-3"></use>
                                </mask>
                                <g id="Clip-25"></g>
                                <path d="M4.79701968,2.4012093 C4.79701968,3.71959928 3.72821825,4.78840072 2.40979249,4.78840072 C1.0914025,4.78840072 0.0226368515,3.71959928 0.0226368515,2.4012093 C0.0226368515,1.08278354 1.0914025,0.0140178891 2.40979249,0.0140178891 C3.72821825,0.0140178891 4.79701968,1.08278354 4.79701968,2.4012093" id="Fill-24" fill="#9714F4" mask="url(#mask-4)"></path>
                            </g>
                        </g>
                        <path d="M240.282,12.984 C240.282,13.0973339 240.225334,13.154 240.112,13.154 L233.873,13.154 C233.827666,13.154 233.805,13.1766664 233.805,13.222 L233.805,17.421 C233.805,17.4663336 233.827666,17.489 233.873,17.489 L238.242,17.489 C238.355334,17.489 238.412,17.5456661 238.412,17.659 L238.412,18.373 C238.412,18.4863339 238.355334,18.543 238.242,18.543 L233.873,18.543 C233.827666,18.543 233.805,18.5656664 233.805,18.611 L233.805,23.83 C233.805,23.9433339 233.748334,24 233.635,24 L232.768,24 C232.654666,24 232.598,23.9433339 232.598,23.83 L232.598,12.27 C232.598,12.1566661 232.654666,12.1 232.768,12.1 L240.112,12.1 C240.225334,12.1 240.282,12.1566661 240.282,12.27 L240.282,12.984 Z M245.297,24.136 C244.480996,24.136 243.778336,23.9263354 243.189,23.507 C242.599664,23.0876646 242.191668,22.5096704 241.965,21.773 C241.806333,21.2516641 241.727,20.554671 241.727,19.682 C241.727,18.809329 241.806333,18.1180025 241.965,17.608 C242.180334,16.882663 242.582664,16.3103354 243.172,15.891 C243.761336,15.4716646 244.475329,15.262 245.314,15.262 C246.118671,15.262 246.81283,15.4716646 247.3965,15.891 C247.98017,16.3103354 248.379666,16.8769964 248.595,17.591 C248.753667,18.0783358 248.833,18.7753288 248.833,19.682 C248.833,20.6000046 248.753667,21.2969976 248.595,21.773 C248.379666,22.5096704 247.98017,23.0876646 247.3965,23.507 C246.81283,23.9263354 246.113004,24.136 245.297,24.136 Z M245.297,23.082 C245.841003,23.082 246.305665,22.9318348 246.691,22.6315 C247.076335,22.3311652 247.336999,21.9260025 247.473,21.416 C247.575001,21.007998 247.626,20.4356703 247.626,19.699 C247.626,18.9509963 247.580667,18.3786687 247.49,17.982 C247.353999,17.4719974 247.090502,17.0668348 246.6995,16.7665 C246.308498,16.4661652 245.835336,16.316 245.28,16.316 C244.724664,16.316 244.254335,16.4661652 243.869,16.7665 C243.483665,17.0668348 243.223001,17.4719974 243.087,17.982 C242.996333,18.3786687 242.951,18.9509963 242.951,19.699 C242.951,20.4470037 242.996333,21.0193314 243.087,21.416 C243.211667,21.9260025 243.469498,22.3311652 243.8605,22.6315 C244.251502,22.9318348 244.730331,23.082 245.297,23.082 Z M254.749,15.313 C255.123002,15.313 255.445999,15.3866659 255.718,15.534 C255.808667,15.5793336 255.842667,15.6529995 255.82,15.755 L255.633,16.588 C255.599,16.7013339 255.525334,16.7353336 255.412,16.69 C255.219332,16.6106663 254.998335,16.571 254.749,16.571 L254.528,16.588 C253.938664,16.6106668 253.451335,16.8288313 253.066,17.2425 C252.680665,17.6561687 252.488,18.1803302 252.488,18.815 L252.488,23.83 C252.488,23.9433339 252.431334,24 252.318,24 L251.451,24 C251.337666,24 251.281,23.9433339 251.281,23.83 L251.281,15.568 C251.281,15.4546661 251.337666,15.398 251.451,15.398 L252.318,15.398 C252.431334,15.398 252.488,15.4546661 252.488,15.568 L252.488,16.605 C252.488,16.6390002 252.4965,16.6588333 252.5135,16.6645 C252.5305,16.6701667 252.544667,16.6616668 252.556,16.639 C252.794001,16.2196646 253.097165,15.8938345 253.4655,15.6615 C253.833835,15.4291655 254.261664,15.313 254.749,15.313 Z M266.173,15.279 C267.023004,15.279 267.694498,15.5339975 268.1875,16.044 C268.680502,16.5540025 268.927,17.2509956 268.927,18.135 L268.927,23.83 C268.927,23.9433339 268.870334,24 268.757,24 L267.907,24 C267.793666,24 267.737,23.9433339 267.737,23.83 L267.737,18.373 C267.737,17.7496636 267.558502,17.2538352 267.2015,16.8855 C266.844498,16.5171648 266.377003,16.333 265.799,16.333 C265.19833,16.333 264.713835,16.5143315 264.3455,16.877 C263.977165,17.2396685 263.793,17.7269969 263.793,18.339 L263.793,23.83 C263.793,23.9433339 263.736334,24 263.623,24 L262.756,24 C262.642666,24 262.586,23.9433339 262.586,23.83 L262.586,18.373 C262.586,17.7496636 262.410335,17.2538352 262.059,16.8855 C261.707665,16.5171648 261.237336,16.333 260.648,16.333 C260.04733,16.333 259.568502,16.5143315 259.2115,16.877 C258.854498,17.2396685 258.676,17.7269969 258.676,18.339 L258.676,23.83 C258.676,23.9433339 258.619334,24 258.506,24 L257.639,24 C257.525666,24 257.469,23.9433339 257.469,23.83 L257.469,15.568 C257.469,15.4546661 257.525666,15.398 257.639,15.398 L258.506,15.398 C258.619334,15.398 258.676,15.4546661 258.676,15.568 L258.676,16.248 C258.676,16.2706668 258.6845,16.2848333 258.7015,16.2905 C258.7185,16.2961667 258.738333,16.2876668 258.761,16.265 C259.010335,15.9363317 259.330498,15.6898342 259.7215,15.5255 C260.112502,15.3611658 260.545998,15.279 261.022,15.279 C261.611336,15.279 262.115665,15.3979988 262.535,15.636 C262.954335,15.8740012 263.271666,16.2196644 263.487,16.673 C263.509667,16.7296669 263.538,16.7296669 263.572,16.673 C263.821335,16.208331 264.172664,15.8598345 264.626,15.6275 C265.079336,15.3951655 265.594997,15.279 266.173,15.279 Z M278.124,18.254 C278.169334,18.5713349 278.192,18.9679976 278.192,19.444 L278.192,19.988 C278.192,20.1013339 278.135334,20.158 278.022,20.158 L272.531,20.158 C272.485666,20.158 272.463,20.1806664 272.463,20.226 C272.485667,20.8493364 272.519666,21.2516658 272.565,21.433 C272.689667,21.9430025 272.955998,22.3453319 273.364,22.64 C273.772002,22.9346681 274.29333,23.082 274.928,23.082 C275.404002,23.082 275.823332,22.9743344 276.186,22.759 C276.548668,22.5436656 276.831999,22.2376686 277.036,21.841 C277.104,21.7389995 277.183333,21.716333 277.274,21.773 L277.937,22.164 C278.027667,22.220667 278.050334,22.2999995 278.005,22.402 C277.721665,22.9460027 277.29667,23.3738318 276.73,23.6855 C276.163331,23.9971682 275.51167,24.153 274.775,24.153 C273.970329,24.1416666 273.296003,23.9490019 272.752,23.575 C272.207997,23.2009981 271.817001,22.67967 271.579,22.011 C271.374999,21.4669973 271.273,20.6850051 271.273,19.665 C271.273,19.1889976 271.2815,18.8008348 271.2985,18.5005 C271.3155,18.2001652 271.358,17.9310012 271.426,17.693 C271.618668,16.9563297 272.00683,16.3670022 272.5905,15.925 C273.17417,15.4829978 273.879663,15.262 274.707,15.262 C275.738338,15.262 276.531664,15.5226641 277.087,16.044 C277.642336,16.5653359 277.987999,17.3019952 278.124,18.254 Z M274.707,16.316 C274.151664,16.316 273.689835,16.4604986 273.3215,16.7495 C272.953165,17.0385014 272.712334,17.4266642 272.599,17.914 C272.531,18.1520012 272.485667,18.5373307 272.463,19.07 C272.463,19.1153336 272.485666,19.138 272.531,19.138 L276.934,19.138 C276.979334,19.138 277.002,19.1153336 277.002,19.07 C276.979333,18.5599975 276.945334,18.1973344 276.9,17.982 C276.775333,17.4719974 276.523169,17.0668348 276.1435,16.7665 C275.763831,16.4661652 275.285003,16.316 274.707,16.316 Z M284.057,15.313 C284.431002,15.313 284.753999,15.3866659 285.026,15.534 C285.116667,15.5793336 285.150667,15.6529995 285.128,15.755 L284.941,16.588 C284.907,16.7013339 284.833334,16.7353336 284.72,16.69 C284.527332,16.6106663 284.306335,16.571 284.057,16.571 L283.836,16.588 C283.246664,16.6106668 282.759335,16.8288313 282.374,17.2425 C281.988665,17.6561687 281.796,18.1803302 281.796,18.815 L281.796,23.83 C281.796,23.9433339 281.739334,24 281.626,24 L280.759,24 C280.645666,24 280.589,23.9433339 280.589,23.83 L280.589,15.568 C280.589,15.4546661 280.645666,15.398 280.759,15.398 L281.626,15.398 C281.739334,15.398 281.796,15.4546661 281.796,15.568 L281.796,16.605 C281.796,16.6390002 281.8045,16.6588333 281.8215,16.6645 C281.8385,16.6701667 281.852667,16.6616668 281.864,16.639 C282.102001,16.2196646 282.405165,15.8938345 282.7735,15.6615 C283.141835,15.4291655 283.569664,15.313 284.057,15.313 Z M286.947,24 C286.833666,24 286.777,23.9433339 286.777,23.83 L286.777,12.27 C286.777,12.1566661 286.833666,12.1 286.947,12.1 L287.814,12.1 C287.927334,12.1 287.984,12.1566661 287.984,12.27 L287.984,23.83 C287.984,23.9433339 287.927334,24 287.814,24 L286.947,24 Z M290.296,27.4 C290.216666,27.4 290.177,27.3433339 290.177,27.23 L290.177,26.55 C290.177,26.4366661 290.233666,26.38 290.347,26.38 L290.415,26.38 C290.857002,26.3686666 291.199832,26.3035006 291.4435,26.1845 C291.687168,26.0654994 291.896832,25.8445016 292.0725,25.5215 C292.248168,25.1984984 292.437999,24.7083366 292.642,24.051 C292.664667,24.0056664 292.664667,23.9716668 292.642,23.949 L289.769,15.585 L289.752,15.517 C289.752,15.4376663 289.802999,15.398 289.905,15.398 L290.806,15.398 C290.908001,15.398 290.976,15.4433329 291.01,15.534 L293.22,22.402 C293.231333,22.4246668 293.248333,22.436 293.271,22.436 C293.293667,22.436 293.310667,22.4246668 293.322,22.402 L295.498,15.534 C295.532,15.4433329 295.599999,15.398 295.702,15.398 L296.586,15.398 C296.710667,15.398 296.756,15.4603327 296.722,15.585 L293.577,24.748 C293.304999,25.5073371 293.050001,26.0683315 292.812,26.431 C292.573999,26.7936685 292.276502,27.0458326 291.9195,27.1875 C291.562498,27.3291674 291.061003,27.4 290.415,27.4 L290.296,27.4 Z M308.52,18.254 C308.565334,18.5713349 308.588,18.9679976 308.588,19.444 L308.588,19.988 C308.588,20.1013339 308.531334,20.158 308.418,20.158 L302.927,20.158 C302.881666,20.158 302.859,20.1806664 302.859,20.226 C302.881667,20.8493364 302.915666,21.2516658 302.961,21.433 C303.085667,21.9430025 303.351998,22.3453319 303.76,22.64 C304.168002,22.9346681 304.68933,23.082 305.324,23.082 C305.800002,23.082 306.219332,22.9743344 306.582,22.759 C306.944668,22.5436656 307.227999,22.2376686 307.432,21.841 C307.5,21.7389995 307.579333,21.716333 307.67,21.773 L308.333,22.164 C308.423667,22.220667 308.446334,22.2999995 308.401,22.402 C308.117665,22.9460027 307.69267,23.3738318 307.126,23.6855 C306.559331,23.9971682 305.90767,24.153 305.171,24.153 C304.366329,24.1416666 303.692003,23.9490019 303.148,23.575 C302.603997,23.2009981 302.213001,22.67967 301.975,22.011 C301.770999,21.4669973 301.669,20.6850051 301.669,19.665 C301.669,19.1889976 301.6775,18.8008348 301.6945,18.5005 C301.7115,18.2001652 301.754,17.9310012 301.822,17.693 C302.014668,16.9563297 302.40283,16.3670022 302.9865,15.925 C303.57017,15.4829978 304.275663,15.262 305.103,15.262 C306.134338,15.262 306.927664,15.5226641 307.483,16.044 C308.038336,16.5653359 308.383999,17.3019952 308.52,18.254 Z M305.103,16.316 C304.547664,16.316 304.085835,16.4604986 303.7175,16.7495 C303.349165,17.0385014 303.108334,17.4266642 302.995,17.914 C302.927,18.1520012 302.881667,18.5373307 302.859,19.07 C302.859,19.1153336 302.881666,19.138 302.927,19.138 L307.33,19.138 C307.375334,19.138 307.398,19.1153336 307.398,19.07 C307.375333,18.5599975 307.341334,18.1973344 307.296,17.982 C307.171333,17.4719974 306.919169,17.0668348 306.5395,16.7665 C306.159831,16.4661652 305.681003,16.316 305.103,16.316 Z M318.907,12.984 C318.907,13.0973339 318.850334,13.154 318.737,13.154 L312.498,13.154 C312.452666,13.154 312.43,13.1766664 312.43,13.222 L312.43,17.421 C312.43,17.4663336 312.452666,17.489 312.498,17.489 L316.867,17.489 C316.980334,17.489 317.037,17.5456661 317.037,17.659 L317.037,18.373 C317.037,18.4863339 316.980334,18.543 316.867,18.543 L312.498,18.543 C312.452666,18.543 312.43,18.5656664 312.43,18.611 L312.43,23.83 C312.43,23.9433339 312.373334,24 312.26,24 L311.393,24 C311.279666,24 311.223,23.9433339 311.223,23.83 L311.223,12.27 C311.223,12.1566661 311.279666,12.1 311.393,12.1 L318.737,12.1 C318.850334,12.1 318.907,12.1566661 318.907,12.27 L318.907,12.984 Z M324.109,15.313 C324.483002,15.313 324.805999,15.3866659 325.078,15.534 C325.168667,15.5793336 325.202667,15.6529995 325.18,15.755 L324.993,16.588 C324.959,16.7013339 324.885334,16.7353336 324.772,16.69 C324.579332,16.6106663 324.358335,16.571 324.109,16.571 L323.888,16.588 C323.298664,16.6106668 322.811335,16.8288313 322.426,17.2425 C322.040665,17.6561687 321.848,18.1803302 321.848,18.815 L321.848,23.83 C321.848,23.9433339 321.791334,24 321.678,24 L320.811,24 C320.697666,24 320.641,23.9433339 320.641,23.83 L320.641,15.568 C320.641,15.4546661 320.697666,15.398 320.811,15.398 L321.678,15.398 C321.791334,15.398 321.848,15.4546661 321.848,15.568 L321.848,16.605 C321.848,16.6390002 321.8565,16.6588333 321.8735,16.6645 C321.8905,16.6701667 321.904667,16.6616668 321.916,16.639 C322.154001,16.2196646 322.457165,15.8938345 322.8255,15.6615 C323.193835,15.4291655 323.621664,15.313 324.109,15.313 Z M329.804,15.262 C330.824005,15.262 331.611664,15.5226641 332.167,16.044 C332.722336,16.5653359 333,17.2566624 333,18.118 L333,23.83 C333,23.9433339 332.943334,24 332.83,24 L331.963,24 C331.849666,24 331.793,23.9433339 331.793,23.83 L331.793,23.133 C331.793,23.1103332 331.7845,23.0933334 331.7675,23.082 C331.7505,23.0706666 331.730667,23.0763332 331.708,23.099 C331.424665,23.4390017 331.056336,23.6968325 330.603,23.8725 C330.149664,24.0481675 329.645336,24.136 329.09,24.136 C328.285329,24.136 327.611003,23.932002 327.067,23.524 C326.522997,23.115998 326.251,22.4926709 326.251,21.654 C326.251,20.8039957 326.55983,20.1325025 327.1775,19.6395 C327.79517,19.1464975 328.653661,18.9 329.753,18.9 L331.725,18.9 C331.770334,18.9 331.793,18.8773336 331.793,18.832 L331.793,18.186 C331.793,17.6079971 331.631502,17.151835 331.3085,16.8175 C330.985498,16.483165 330.484003,16.316 329.804,16.316 C329.259997,16.316 328.818002,16.4208323 328.478,16.6305 C328.137998,16.8401677 327.928334,17.1319981 327.849,17.506 C327.815,17.6193339 327.747001,17.6703334 327.645,17.659 L326.727,17.54 C326.602333,17.5173332 326.551333,17.4720003 326.574,17.404 C326.664667,16.7693302 327.004664,16.2536686 327.594,15.857 C328.183336,15.4603314 328.919996,15.262 329.804,15.262 Z M329.328,23.099 C329.99667,23.099 330.574664,22.931835 331.062,22.5975 C331.549336,22.263165 331.793,21.8126695 331.793,21.246 L331.793,19.92 C331.793,19.8746664 331.770334,19.852 331.725,19.852 L329.94,19.852 C329.191996,19.852 328.591336,20.0049985 328.138,20.311 C327.684664,20.6170015 327.458,21.0419973 327.458,21.586 C327.458,22.0846692 327.630832,22.4614987 327.9765,22.7165 C328.322168,22.9715013 328.772664,23.099 329.328,23.099 Z M340.718,15.568 C340.718,15.4546661 340.774666,15.398 340.888,15.398 L341.755,15.398 C341.868334,15.398 341.925,15.4546661 341.925,15.568 L341.925,23.83 C341.925,23.9433339 341.868334,24 341.755,24 L340.888,24 C340.774666,24 340.718,23.9433339 340.718,23.83 L340.718,23.099 C340.718,23.0763332 340.706667,23.0593334 340.684,23.048 C340.661333,23.0366666 340.644333,23.0423332 340.633,23.065 C340.156998,23.7676702 339.403338,24.119 338.372,24.119 C337.827997,24.119 337.326502,24.0085011 336.8675,23.7875 C336.408498,23.5664989 336.045835,23.2463354 335.7795,22.827 C335.513165,22.4076646 335.38,21.9033363 335.38,21.314 L335.38,15.568 C335.38,15.4546661 335.436666,15.398 335.55,15.398 L336.417,15.398 C336.530334,15.398 336.587,15.4546661 336.587,15.568 L336.587,20.957 C336.587,21.6030032 336.768332,22.1158314 337.131,22.4955 C337.493668,22.8751686 337.986664,23.065 338.61,23.065 C339.256003,23.065 339.768831,22.8723353 340.1485,22.487 C340.528169,22.1016647 340.718,21.5916698 340.718,20.957 L340.718,15.568 Z M349.966,12.27 C349.966,12.1566661 350.022666,12.1 350.136,12.1 L351.003,12.1 C351.116334,12.1 351.173,12.1566661 351.173,12.27 L351.173,23.83 C351.173,23.9433339 351.116334,24 351.003,24 L350.136,24 C350.022666,24 349.966,23.9433339 349.966,23.83 L349.966,23.116 C349.966,23.0933332 349.9575,23.0791667 349.9405,23.0735 C349.9235,23.0678333 349.903667,23.0763332 349.881,23.099 C349.631665,23.4276683 349.322835,23.6826658 348.9545,23.864 C348.586165,24.0453342 348.175336,24.136 347.722,24.136 C346.928663,24.136 346.262836,23.932002 345.7245,23.524 C345.186164,23.115998 344.815001,22.5606702 344.611,21.858 C344.452333,21.3479975 344.373,20.628338 344.373,19.699 C344.373,18.7583286 344.440999,18.055669 344.577,17.591 C344.781001,16.865663 345.154997,16.2961687 345.699,15.8825 C346.243003,15.4688313 346.917329,15.262 347.722,15.262 C348.164002,15.262 348.571998,15.3498325 348.946,15.5255 C349.320002,15.7011675 349.631665,15.9533317 349.881,16.282 C349.903667,16.3046668 349.9235,16.3131667 349.9405,16.3075 C349.9575,16.3018333 349.966,16.2876668 349.966,16.265 L349.966,12.27 Z M349.66,21.773 C349.762001,21.5463322 349.835666,21.2800015 349.881,20.974 C349.926334,20.6679985 349.949,20.2430027 349.949,19.699 C349.949,19.1549973 349.926334,18.7271682 349.881,18.4155 C349.835666,18.1038318 349.756334,17.8290012 349.643,17.591 C349.506999,17.2056647 349.283168,16.8968345 348.9715,16.6645 C348.659832,16.4321655 348.288669,16.316 347.858,16.316 C347.404664,16.316 347.013668,16.4293322 346.685,16.656 C346.356332,16.8826678 346.118334,17.1829981 345.971,17.557 C345.834999,17.8063346 345.735834,18.0868318 345.6735,18.3985 C345.611166,18.7101682 345.58,19.1436639 345.58,19.699 C345.58,20.2316693 345.602666,20.6481652 345.648,20.9485 C345.693334,21.2488348 345.772666,21.5179988 345.886,21.756 C346.022001,22.164002 346.262832,22.4869988 346.6085,22.725 C346.954168,22.9630012 347.364998,23.082 347.841,23.082 C348.294336,23.082 348.673998,22.9630012 348.98,22.725 C349.286002,22.4869988 349.512666,22.1696686 349.66,21.773 Z M360.982,24.136 C359.701327,24.136 358.689837,23.8470029 357.9475,23.269 C357.205163,22.6909971 356.834,21.9203381 356.834,20.957 L356.834,20.43 C356.834,20.3166661 356.890666,20.26 357.004,20.26 L357.837,20.26 C357.950334,20.26 358.007,20.3166661 358.007,20.43 L358.007,20.889 C358.007,21.5463366 358.278997,22.0761647 358.823,22.4785 C359.367003,22.8808353 360.120662,23.082 361.084,23.082 C361.956671,23.082 362.619664,22.8978352 363.073,22.5295 C363.526336,22.1611648 363.753,21.6710031 363.753,21.059 C363.753,20.6623313 363.648168,20.3223347 363.4385,20.039 C363.228832,19.7556652 362.905836,19.4893346 362.4695,19.24 C362.033164,18.9906654 361.418337,18.7016683 360.625,18.373 C359.774996,18.0329983 359.114836,17.7355013 358.6445,17.4805 C358.174164,17.2254987 357.794501,16.8968353 357.5055,16.4945 C357.216499,16.0921647 357.072,15.5850031 357.072,14.973 C357.072,14.0209952 357.403497,13.2815026 358.0665,12.7545 C358.729503,12.2274974 359.638994,11.964 360.795,11.964 C362.053006,11.964 363.044663,12.2586637 363.77,12.848 C364.495337,13.4373363 364.858,14.2193285 364.858,15.194 L364.858,15.568 C364.858,15.6813339 364.801334,15.738 364.688,15.738 L363.838,15.738 C363.724666,15.738 363.668,15.6813339 363.668,15.568 L363.668,15.262 C363.668,14.6046634 363.410169,14.0663354 362.8945,13.647 C362.378831,13.2276646 361.662005,13.018 360.744,13.018 C359.939329,13.018 359.321669,13.1823317 358.891,13.511 C358.460331,13.8396683 358.245,14.3156636 358.245,14.939 C358.245,15.347002 358.349832,15.6841653 358.5595,15.9505 C358.769168,16.2168347 359.069498,16.4491657 359.4605,16.6475 C359.851502,16.8458343 360.454996,17.1036651 361.271,17.421 C362.098337,17.7610017 362.764164,18.0783319 363.2685,18.373 C363.772836,18.6676681 364.180832,19.0274979 364.4925,19.4525 C364.804168,19.8775021 364.96,20.3959969 364.96,21.008 C364.96,21.9600048 364.60867,22.7193305 363.906,23.286 C363.20333,23.8526695 362.228673,24.136 360.982,24.136 Z M373.834,18.254 C373.879334,18.5713349 373.902,18.9679976 373.902,19.444 L373.902,19.988 C373.902,20.1013339 373.845334,20.158 373.732,20.158 L368.241,20.158 C368.195666,20.158 368.173,20.1806664 368.173,20.226 C368.195667,20.8493364 368.229666,21.2516658 368.275,21.433 C368.399667,21.9430025 368.665998,22.3453319 369.074,22.64 C369.482002,22.9346681 370.00333,23.082 370.638,23.082 C371.114002,23.082 371.533332,22.9743344 371.896,22.759 C372.258668,22.5436656 372.541999,22.2376686 372.746,21.841 C372.814,21.7389995 372.893333,21.716333 372.984,21.773 L373.647,22.164 C373.737667,22.220667 373.760334,22.2999995 373.715,22.402 C373.431665,22.9460027 373.006669,23.3738318 372.44,23.6855 C371.873331,23.9971682 371.22167,24.153 370.485,24.153 C369.680329,24.1416666 369.006003,23.9490019 368.462,23.575 C367.917997,23.2009981 367.527001,22.67967 367.289,22.011 C367.084999,21.4669973 366.983,20.6850051 366.983,19.665 C366.983,19.1889976 366.9915,18.8008348 367.0085,18.5005 C367.0255,18.2001652 367.068,17.9310012 367.136,17.693 C367.328668,16.9563297 367.71683,16.3670022 368.3005,15.925 C368.88417,15.4829978 369.589663,15.262 370.417,15.262 C371.448338,15.262 372.241664,15.5226641 372.797,16.044 C373.352336,16.5653359 373.697999,17.3019952 373.834,18.254 Z M370.417,16.316 C369.861664,16.316 369.399835,16.4604986 369.0315,16.7495 C368.663165,17.0385014 368.422334,17.4266642 368.309,17.914 C368.241,18.1520012 368.195667,18.5373307 368.173,19.07 C368.173,19.1153336 368.195666,19.138 368.241,19.138 L372.644,19.138 C372.689334,19.138 372.712,19.1153336 372.712,19.07 C372.689333,18.5599975 372.655334,18.1973344 372.61,17.982 C372.485333,17.4719974 372.233169,17.0668348 371.8535,16.7665 C371.473831,16.4661652 370.995003,16.316 370.417,16.316 Z M379.546,24.136 C378.729996,24.136 378.03017,23.9235021 377.4465,23.4985 C376.86283,23.0734979 376.463334,22.498337 376.248,21.773 C376.100666,21.2743308 376.027,20.5716712 376.027,19.665 C376.027,18.8489959 376.100666,18.1576695 376.248,17.591 C376.452001,16.8883298 376.848664,16.3245021 377.438,15.8995 C378.027336,15.4744979 378.729996,15.262 379.546,15.262 C380.373337,15.262 381.090164,15.4716646 381.6965,15.891 C382.302836,16.3103354 382.696666,16.8316636 382.878,17.455 C382.934667,17.659001 382.968667,17.8289993 382.98,17.965 L382.98,17.999 C382.98,18.0783337 382.929001,18.1293332 382.827,18.152 L381.977,18.271 L381.943,18.271 C381.863666,18.271 381.812667,18.2200005 381.79,18.118 L381.739,17.863 C381.636999,17.4323312 381.387669,17.0668348 380.991,16.7665 C380.594331,16.4661652 380.11267,16.316 379.546,16.316 C378.979331,16.316 378.506169,16.4661652 378.1265,16.7665 C377.746831,17.0668348 377.500334,17.4663308 377.387,17.965 C377.284999,18.3956688 377.234,18.9679964 377.234,19.682 C377.234,20.4300037 377.284999,21.007998 377.387,21.416 C377.500334,21.9260025 377.746831,22.3311652 378.1265,22.6315 C378.506169,22.9318348 378.979331,23.082 379.546,23.082 C380.101336,23.082 380.580165,22.9375014 380.9825,22.6485 C381.384835,22.3594986 381.636999,21.9883356 381.739,21.535 L381.739,21.467 L381.756,21.399 C381.767333,21.2856661 381.835333,21.2403332 381.96,21.263 L382.793,21.399 C382.906334,21.4216668 382.957333,21.4839995 382.946,21.586 L382.878,21.926 C382.707999,22.5833366 382.317003,23.115998 381.705,23.524 C381.092997,23.932002 380.373337,24.136 379.546,24.136 Z M390.341,15.568 C390.341,15.4546661 390.397666,15.398 390.511,15.398 L391.378,15.398 C391.491334,15.398 391.548,15.4546661 391.548,15.568 L391.548,23.83 C391.548,23.9433339 391.491334,24 391.378,24 L390.511,24 C390.397666,24 390.341,23.9433339 390.341,23.83 L390.341,23.099 C390.341,23.0763332 390.329667,23.0593334 390.307,23.048 C390.284333,23.0366666 390.267333,23.0423332 390.256,23.065 C389.779998,23.7676702 389.026338,24.119 387.995,24.119 C387.450997,24.119 386.949502,24.0085011 386.4905,23.7875 C386.031498,23.5664989 385.668835,23.2463354 385.4025,22.827 C385.136165,22.4076646 385.003,21.9033363 385.003,21.314 L385.003,15.568 C385.003,15.4546661 385.059666,15.398 385.173,15.398 L386.04,15.398 C386.153334,15.398 386.21,15.4546661 386.21,15.568 L386.21,20.957 C386.21,21.6030032 386.391332,22.1158314 386.754,22.4955 C387.116668,22.8751686 387.609664,23.065 388.233,23.065 C388.879003,23.065 389.391831,22.8723353 389.7715,22.487 C390.151169,22.1016647 390.341,21.5916698 390.341,20.957 L390.341,15.568 Z M397.719,15.313 C398.093002,15.313 398.415999,15.3866659 398.688,15.534 C398.778667,15.5793336 398.812667,15.6529995 398.79,15.755 L398.603,16.588 C398.569,16.7013339 398.495334,16.7353336 398.382,16.69 C398.189332,16.6106663 397.968335,16.571 397.719,16.571 L397.498,16.588 C396.908664,16.6106668 396.421335,16.8288313 396.036,17.2425 C395.650665,17.6561687 395.458,18.1803302 395.458,18.815 L395.458,23.83 C395.458,23.9433339 395.401334,24 395.288,24 L394.421,24 C394.307666,24 394.251,23.9433339 394.251,23.83 L394.251,15.568 C394.251,15.4546661 394.307666,15.398 394.421,15.398 L395.288,15.398 C395.401334,15.398 395.458,15.4546661 395.458,15.568 L395.458,16.605 C395.458,16.6390002 395.4665,16.6588333 395.4835,16.6645 C395.5005,16.6701667 395.514667,16.6616668 395.526,16.639 C395.764001,16.2196646 396.067165,15.8938345 396.4355,15.6615 C396.803835,15.4291655 397.231664,15.313 397.719,15.313 Z M401.255,13.834 C400.982999,13.834 400.756334,13.7433342 400.575,13.562 C400.393666,13.3806658 400.303,13.1540014 400.303,12.882 C400.303,12.5986652 400.393666,12.3691675 400.575,12.1935 C400.756334,12.0178325 400.982999,11.93 401.255,11.93 C401.527001,11.93 401.753666,12.0178325 401.935,12.1935 C402.116334,12.3691675 402.207,12.5986652 402.207,12.882 C402.207,13.1540014 402.116334,13.3806658 401.935,13.562 C401.753666,13.7433342 401.527001,13.834 401.255,13.834 Z M400.779,23.983 C400.665666,23.983 400.609,23.9263339 400.609,23.813 L400.609,15.551 C400.609,15.4376661 400.665666,15.381 400.779,15.381 L401.646,15.381 C401.759334,15.381 401.816,15.4376661 401.816,15.551 L401.816,23.813 C401.816,23.9263339 401.759334,23.983 401.646,23.983 L400.779,23.983 Z M408.633,16.231 C408.633,16.3443339 408.576334,16.401 408.463,16.401 L406.542,16.401 C406.496666,16.401 406.474,16.4236664 406.474,16.469 L406.474,21.484 C406.474,22.0280027 406.595832,22.4104989 406.8395,22.6315 C407.083168,22.8525011 407.465664,22.963 407.987,22.963 L408.412,22.963 C408.525334,22.963 408.582,23.0196661 408.582,23.133 L408.582,23.83 C408.582,23.9433339 408.525334,24 408.412,24 C408.275999,24.0113334 408.066335,24.017 407.783,24.017 C406.966996,24.017 406.349335,23.8640015 405.93,23.558 C405.510665,23.2519985 405.301,22.6853375 405.301,21.858 L405.301,16.469 C405.301,16.4236664 405.278334,16.401 405.233,16.401 L404.196,16.401 C404.082666,16.401 404.026,16.3443339 404.026,16.231 L404.026,15.568 C404.026,15.4546661 404.082666,15.398 404.196,15.398 L405.233,15.398 C405.278334,15.398 405.301,15.3753336 405.301,15.33 L405.301,13.358 C405.301,13.2446661 405.357666,13.188 405.471,13.188 L406.304,13.188 C406.417334,13.188 406.474,13.2446661 406.474,13.358 L406.474,15.33 C406.474,15.3753336 406.496666,15.398 406.542,15.398 L408.463,15.398 C408.576334,15.398 408.633,15.4546661 408.633,15.568 L408.633,16.231 Z M410.571,27.4 C410.491666,27.4 410.452,27.3433339 410.452,27.23 L410.452,26.55 C410.452,26.4366661 410.508666,26.38 410.622,26.38 L410.69,26.38 C411.132002,26.3686666 411.474832,26.3035006 411.7185,26.1845 C411.962168,26.0654994 412.171832,25.8445016 412.3475,25.5215 C412.523168,25.1984984 412.712999,24.7083366 412.917,24.051 C412.939667,24.0056664 412.939667,23.9716668 412.917,23.949 L410.044,15.585 L410.027,15.517 C410.027,15.4376663 410.077999,15.398 410.18,15.398 L411.081,15.398 C411.183001,15.398 411.251,15.4433329 411.285,15.534 L413.495,22.402 C413.506333,22.4246668 413.523333,22.436 413.546,22.436 C413.568667,22.436 413.585667,22.4246668 413.597,22.402 L415.773,15.534 C415.807,15.4433329 415.874999,15.398 415.977,15.398 L416.861,15.398 C416.985667,15.398 417.031,15.4603327 416.997,15.585 L413.852,24.748 C413.579999,25.5073371 413.325001,26.0683315 413.087,26.431 C412.848999,26.7936685 412.551502,27.0458326 412.1945,27.1875 C411.837498,27.3291674 411.336003,27.4 410.69,27.4 L410.571,27.4 Z" id="Formerly-eFraud-Secu" fill="#655C7A" opacity="0.75"></path>
                        <path d="M205.5,32 L205.5,2.42296601" id="Line-4" stroke-opacity="0.5" stroke="#DBD6E9" stroke-linecap="square" fill-rule="nonzero"></path>
                    </g>
                </g>
            </g>
        </g>
    </g>
</svg>