<svg xmlns="http://www.w3.org/2000/svg" xmlns:xlink="http://www.w3.org/1999/xlink" width="181" height="30" viewBox="0 0 181 30">
    <defs>
        <path id="a" d="M.003.02h17.38v20.309H.003z"/>
        <path id="c" d="M.023.014h4.774v4.774H.023z"/>
    </defs>
    <g fill="none" fill-rule="evenodd">
        <path fill="#9714F4" d="M2.931 29.86a2.931 2.931 0 1 1 0-5.861 2.931 2.931 0 0 1 0 5.862M23.204 9.588a2.931 2.931 0 0 0-2.931-2.93H2.93a2.931 2.931 0 1 0 0 5.861h17.354A2.919 2.919 0 0 0 23.204 9.6v-.006-.006M11.602 15.328H2.93a2.931 2.931 0 0 0 0 5.862h8.67a2.931 2.931 0 0 0 0-5.862"/>
        <path fill="#11062F" d="M46.166 8.16H34.674a1.881 1.881 0 0 0-1.902 1.902v16.394c0 1.05.836 1.873 1.902 1.873 1.05 0 1.873-.823 1.873-1.873V20.16h8.351c.956 0 1.733-.777 1.733-1.732s-.777-1.732-1.733-1.732h-8.351v-5.07h9.619c.955 0 1.732-.777 1.732-1.733 0-.955-.777-1.732-1.732-1.732M55.023 11.626h4.887c2.534 0 3.93 1.105 3.93 3.112v.056c0 1.908-1.532 3.14-3.901 3.14h-4.916v-6.308zm5.169-3.465H53.15a1.881 1.881 0 0 0-1.901 1.901v16.394c0 1.05.835 1.873 1.901 1.873 1.05 0 1.873-.823 1.873-1.873v-5.14h4.136l4.739 6.048c.485.658 1.062.965 1.815.965.874 0 1.817-.673 1.817-1.76 0-.562-.229-.96-.597-1.42l-3.636-4.586c2.823-.949 4.374-3.06 4.374-5.966v-.056c0-1.726-.58-3.234-1.68-4.364-1.35-1.32-3.355-2.016-5.799-2.016zM83.305 20.047h-6.457l3.229-7.427 3.228 7.427zm-.89-10.668c-.443-.981-1.203-1.5-2.197-1.5h-.17c-.998 0-1.788.533-2.225 1.5L70.5 25.713c-.166.333-.24.597-.24.855 0 .987.773 1.76 1.76 1.76.808 0 1.445-.435 1.748-1.19l1.62-3.71h9.375l1.564 3.595c.356.842 1.007 1.306 1.833 1.306 1.003 0 1.789-.798 1.789-1.817a1.65 1.65 0 0 0-.211-.796L82.415 9.38zM107.877 8.02c-1.066 0-1.902.823-1.902 1.873v9.774c0 3.424-1.705 5.31-4.802 5.31-3.07 0-4.83-1.987-4.83-5.45V9.893c0-1.05-.823-1.873-1.874-1.873-1.066 0-1.901.823-1.901 1.873v9.774c0 5.612 3.116 8.83 8.549 8.83 5.486 0 8.633-3.28 8.633-8.999V9.893c0-1.05-.823-1.873-1.873-1.873M128.395 18.174v.057c0 3.883-2.688 6.492-6.69 6.492h-3.732V11.626h3.732c3.94 0 6.69 2.693 6.69 6.548m-6.69-10.013H116.1a1.881 1.881 0 0 0-1.901 1.901v16.225c0 1.066.835 1.901 1.901 1.901h5.605c6.162 0 10.634-4.211 10.634-10.014v-.056c0-5.77-4.472-9.957-10.634-9.957M149.618 8.16h-11.492a1.881 1.881 0 0 0-1.902 1.902v16.394c0 1.05.836 1.873 1.902 1.873 1.05 0 1.873-.823 1.873-1.873V20.16h8.351c.956 0 1.733-.777 1.733-1.732s-.777-1.732-1.733-1.732H140v-5.07h9.62c.954 0 1.731-.777 1.731-1.733 0-.955-.777-1.732-1.732-1.732M156.8 8.02c-1.067 0-1.902.823-1.902 1.873v16.563c0 1.05.835 1.873 1.901 1.873 1.05 0 1.874-.823 1.874-1.873V9.893c0-1.05-.823-1.873-1.874-1.873"/>
        <g transform="translate(162.612 8)">
            <mask id="b" fill="#fff">
                <use xlink:href="#a"/>
            </mask>
            <path fill="#11062F" d="M16.813 17.09L11.09 9.95l5.443-6.776c.399-.499.569-.924.569-1.42 0-1.07-.9-1.733-1.733-1.733-.751 0-1.294.305-1.813 1.018L8.75 7.327 3.888.927C3.479.382 3.034.02 2.186.02 1.118.02.313.813.313 1.865c0 .44.186.894.57 1.393l5.442 6.747-5.78 7.17-.005.006c-.266.362-.537.81-.537 1.387 0 1.102.88 1.76 1.733 1.76.851 0 1.34-.406 1.813-1.018l5.087-6.628 5.172 6.74c.408.544.854.907 1.701.907 1.068 0 1.874-.794 1.874-1.846 0-.578-.304-1.046-.57-1.392" mask="url(#b)"/>
        </g>
        <g transform="translate(154.383 .022)">
            <mask id="d" fill="#fff">
                <use xlink:href="#c"/>
            </mask>
            <path fill="#9714F4" d="M4.797 2.401a2.387 2.387 0 1 1-4.774 0 2.387 2.387 0 0 1 4.774 0" mask="url(#d)"/>
        </g>
    </g>
</svg>
