<?xml version="1.0" encoding="UTF-8"?>
<svg width="284px" height="280px" viewBox="0 0 284 280" version="1.1" xmlns="http://www.w3.org/2000/svg" xmlns:xlink="http://www.w3.org/1999/xlink">
    <!-- Generator: Sketch 55.1 (78136) - https://sketchapp.com -->
    <title>illustration / padlock</title>
    <desc>Created with Sketch.</desc>
    <defs>
        <linearGradient x1="52.8901237%" y1="68.55256%" x2="42.0963513%" y2="-0.739760994%" id="linearGradient-1">
            <stop stop-color="#360F59" offset="0.29%"></stop>
            <stop stop-color="#962BF0" offset="99.82%"></stop>
        </linearGradient>
        <linearGradient x1="29.4256125%" y1="88.5378147%" x2="64.452858%" y2="16.6416587%" id="linearGradient-2">
            <stop stop-color="#360F59" offset="0.29%"></stop>
            <stop stop-color="#962BF0" offset="99.82%"></stop>
        </linearGradient>
        <linearGradient x1="49.9999926%" y1="2.24295237%" x2="49.9999926%" y2="81.9144036%" id="linearGradient-3">
            <stop stop-color="#F4EDFF" offset="0%"></stop>
            <stop stop-color="#E0D3F5" offset="54.21%"></stop>
        </linearGradient>
        <linearGradient x1="0.000248487333%" y1="49.9998246%" x2="100.181893%" y2="49.9998246%" id="linearGradient-4">
            <stop stop-color="#3CDC7C" offset="0%"></stop>
            <stop stop-color="#95EBB1" offset="100%"></stop>
        </linearGradient>
        <linearGradient x1="-26.3778099%" y1="101.341972%" x2="81.3842906%" y2="28.9037043%" id="linearGradient-5">
            <stop stop-color="#3CDC7C" offset="0%"></stop>
            <stop stop-color="#95EBB1" offset="100%"></stop>
        </linearGradient>
        <linearGradient x1="-26.1887568%" y1="101.214445%" x2="81.5746399%" y2="28.7758426%" id="linearGradient-6">
            <stop stop-color="#3CDC7C" offset="0%"></stop>
            <stop stop-color="#95EBB1" offset="100%"></stop>
        </linearGradient>
    </defs>
    <g id="💵-Fraudfix" stroke="none" stroke-width="1" fill="none" fill-rule="evenodd">
        <g id="Home" transform="translate(-441.000000, -1268.000000)">
            <g id="what-we-do" transform="translate(-1129.000000, 469.000000)">
                <g id="1" transform="translate(1570.000000, 799.000000)">
                    <g id="illustration-/-padlock">
                        <g id="illustration">
                            <polygon id="Path" fill="#19042D" points="77.9496859 59.4212219 72.7974684 62.4166424 151.341742 108.038585 156.379747 105.043165"></polygon>
                            <polygon id="Path" fill="#19042D" points="96.956223 73.8263666 133.012658 53.3869023 127.727603 50.4180064 91.6708861 70.8574707 92.7281224 71.4283595 95.8989867 73.2554777"></polygon>
                            <path d="M125.530842,53.3819794 C132.457914,56.6325878 142.555026,56.6325878 149.481816,53.3819794 C149.95141,53.149813 150.421004,52.9176466 150.890597,52.6854801 C158.287263,48.5062061 158.169865,41.5406565 150.773199,37.3613825 C150.303605,37.129216 149.834011,36.8970496 149.481816,36.6648832 C142.554744,33.4142748 132.575031,33.4142748 125.648241,36.5488 C125.178647,36.7809664 124.591655,37.0131328 124.122061,37.3613825 C116.725395,41.5406565 116.842794,48.3901229 124.239459,52.6854801 C124.591373,52.9176466 125.061248,53.149813 125.530842,53.3819794 Z M125.530842,44.6751817 C125.648241,43.0497383 126.822225,41.4245733 128.935679,40.147658 C133.631899,37.4774657 141.145963,37.4774657 145.842182,40.147658 C150.538402,42.8178502 150.538402,47.1132075 145.842182,49.7833998 C141.145963,52.4535921 133.631899,52.4535921 128.935679,49.7833998 C126.704827,48.5064845 125.530842,46.8810411 125.413444,45.2558761 C125.530842,45.0234313 125.530842,44.9073481 125.530842,44.6751817 Z" id="Shape" fill="#19042D" fill-rule="nonzero"></path>
                            <path d="M194.697792,250.214205 C195.160401,249.86587 195.62301,249.401423 195.969967,248.936976 C196.201271,248.704753 196.316924,248.588641 196.548228,248.356418 C197.010837,247.775859 197.473447,247.1953 197.936056,246.614742 C198.051708,246.49863 198.051708,246.382518 198.16736,246.266407 C198.16736,246.266407 198.16736,246.266407 198.16736,246.150295 C198.629969,245.453625 199.092578,244.640843 199.439535,243.827782 L199.439535,243.71167 C199.439535,243.595559 199.555188,243.479447 199.555188,243.479447 C199.786492,242.898888 200.017797,242.434441 200.249101,241.853604 C200.364753,241.621381 200.480406,241.273046 200.480406,241.040822 C200.480406,240.924711 200.596058,240.692487 200.596058,240.576376 C200.596058,240.460264 200.71171,240.22804 200.71171,240.111929 C200.827363,239.53137 201.058667,238.950811 201.174319,238.370253 C201.174319,238.138029 201.289972,237.905806 201.289972,237.673583 C201.289972,237.557471 201.289972,237.441359 201.405624,237.209136 C201.405624,236.976912 201.521276,236.744689 201.521276,236.628577 C201.636928,236.048019 201.752581,235.583572 201.752581,235.002735 C201.752581,234.654399 201.868233,234.422176 201.868233,234.073841 C201.868233,233.957729 201.868233,233.841617 201.868233,233.725506 C201.868233,233.609394 201.868233,233.493282 201.868233,233.377171 C201.868233,232.796612 201.983885,232.332165 201.983885,231.751328 C201.983885,231.170769 201.983885,230.590211 201.983885,230.125486 L201.983885,230.009374 L202.21519,143.151125 L157.685735,169.045988 L157.454431,255.904236 C157.454431,257.181465 157.338778,258.458972 157.223126,259.736201 C157.223126,259.852313 157.223126,259.968425 157.223126,260.084537 C157.107474,261.245654 156.991821,262.290938 156.760517,263.335943 C156.760517,263.452055 156.760517,263.568167 156.644865,263.80039 C156.41356,264.845395 156.182255,265.774568 155.950951,266.703461 C155.950951,266.819573 155.835299,267.051797 155.835299,267.167908 C155.603994,267.98069 155.257037,268.909584 154.91008,269.606533 C154.91008,269.722645 154.794428,269.838756 154.794428,269.838756 C154.331819,270.76765 153.86921,271.580432 153.406601,272.393493 C153.290949,272.509604 153.290949,272.625716 153.175296,272.741828 C152.712687,273.322386 152.250078,274.019057 151.787469,274.483503 C151.671817,274.715727 151.440512,274.831839 151.209208,275.064062 C150.746598,275.528509 150.399642,275.876844 149.937033,276.341291 C149.705728,276.457403 149.590076,276.689626 149.358771,276.805738 C148.664857,277.270185 148.086596,277.850743 147.392405,278.199357 L191.806208,252.304494 C192.500121,251.840048 193.194035,251.375601 193.772574,250.911154 C194.350835,250.56254 194.58214,250.330317 194.697792,250.214205 Z" id="Path" fill="url(#linearGradient-1)"></path>
                            <polygon id="Path" fill="#BC83FF" points="74.9683786 71.1254019 30.556962 96.7162397 158.586584 170.160772 203.113924 144.455185"></polygon>
                            <path d="M123.424044,275.258846 C142.411576,286.271603 158.061872,277.461508 158.177215,255.435993 L158.177215,168.724912 L30.787737,94.5337621 L30.556962,181.244843 C30.4425343,203.270358 45.8626949,230.048665 64.8502266,241.177338 L123.424044,275.258846 Z" id="Path" fill="url(#linearGradient-2)"></path>
                            <path d="M87.6794877,222.535014 C89.5596478,223.592365 91.439526,224.180064 93.3194043,224.180064 C94.8468054,224.180064 96.3744883,223.827614 97.6669046,223.005229 C100.604496,221.360179 102.24939,218.188124 102.24939,214.193404 L102.24939,197.627105 C105.186981,195.277153 106.949367,191.399916 106.949367,186.582811 C106.949367,177.535737 100.839199,166.96166 92.9666454,162.496723 C88.2666679,159.794321 83.4489164,159.559354 79.688878,161.674339 C75.9288397,163.789324 73.6962025,168.136494 73.6962025,173.423533 C73.6962025,178.240638 75.341096,183.527959 78.39618,188.345064 L78.39618,206.43893 C78.3970252,212.548072 82.3920483,219.480161 87.6794877,222.535014 Z" id="Path" stroke="#FFFFFF" stroke-width="1.21986" opacity="0.5"></path>
                            <path d="M177.050633,102.392585 C176.589598,88.6417718 172.785781,75.2378671 167.368064,62.6424914 C161.489313,49.2383096 153.305385,36.643211 143.392575,25.8968122 C134.401835,16.3058508 123.681938,7.63951639 111.34814,3.01748982 C105.238871,0.706338001 98.6688424,-0.564643105 92.2137967,0.244163054 C85.8740097,0.937425475 79.5344991,3.47966477 74.0015238,6.71516649 C67.2007016,10.7594744 61.0914322,16.3061279 57.4031506,23.4703938 C53.0230396,32.0211845 52.4467456,41.4966021 52.4467456,50.8564761 C52.4467456,59.0606356 52.4467456,67.2650722 52.3314868,75.4692316 C52.3314868,80.7845206 51.8704516,86.1000867 52.3314868,91.4153757 C52.792522,98.1174666 63.3971611,98.810729 68.2383072,97.7708354 C71.1200537,97.077573 74.9238706,95.5752273 75.6154234,92.3397256 C75.7306822,91.6464632 75.7306822,90.9532007 75.7306822,90.2596612 C75.7306822,83.5575703 75.7306822,76.8554794 75.7306822,70.1533885 C75.7306822,62.7580352 75.7306822,55.3626818 75.845941,47.9673285 C75.845941,43.8074769 76.0764586,39.6476253 76.9985291,35.4877737 C77.8053407,32.0211845 79.0734639,28.670139 80.9176048,25.550181 C81.7244164,24.1636562 82.762022,22.1991356 84.3756453,21.8525044 C85.9892685,21.6214169 87.6031681,21.5058732 89.2167914,21.5058732 C103.279471,21.8525044 115.958768,31.327922 125.41082,41.0341501 C134.978129,50.9717427 142.470504,62.8735789 147.426909,75.699765 C151.345985,85.5218138 153.651437,95.9213043 153.536179,106.552159 C153.536179,113.716425 153.536179,120.880691 153.42092,128.044957 C153.42092,135.093679 153.305661,142.026857 153.305661,149.07558 C153.305661,153.466519 157.570513,155.662127 161.37433,156.355389 C166.445994,157.279739 176.474339,156.355389 176.704857,149.537755 C177.050633,135.902485 176.820115,122.267493 176.820115,108.632224 C177.050633,106.552436 177.050633,104.472372 177.050633,102.392585 Z" id="Path" fill="url(#linearGradient-3)"></path>
                            <path d="M92.0620493,217.864026 C95.6709661,219.964815 98.6978446,218.330806 98.6978446,214.129507 L98.6978446,194.523352 C101.491908,193.823182 103.35443,191.022223 103.35443,186.704229 C103.35443,179.585276 98.3486216,170.832593 92.178457,167.214769 C86.0082924,163.596945 80.8860759,166.514599 80.8860759,173.633552 C80.8860759,177.951546 82.7488778,182.853295 85.5426617,186.821204 L85.5426617,206.427359 C85.4262541,210.745073 88.4531325,215.763516 92.0620493,217.864026 Z" id="Path" fill="url(#linearGradient-4)"></path>
                            <path d="M80.9621659,173.273107 C80.9621659,172.931148 81.0730469,172.589189 81.0730469,172.247231 L81.0730469,172.133244 C81.183928,171.791286 81.183928,171.563313 81.294809,171.221354 L81.294809,171.107368 C81.4056901,170.879395 81.5165712,170.537437 81.6274522,170.309464 C81.6274522,170.309464 81.6274522,170.309464 81.6274522,170.195478 C81.7383333,169.967505 81.8492143,169.625546 82.0709765,169.397574 C82.2927386,169.055615 82.5145007,168.713656 82.8471439,168.485684 C82.958025,168.371697 82.958025,168.371697 83.068906,168.257711 C83.4015492,168.029738 83.8450735,167.573793 84.1777166,167.459807 C82.6253818,168.371697 81.072781,169.283587 81.072781,169.283587 C80.7401378,169.51156 80.4074946,169.739533 80.1857325,169.967505 C80.0748515,170.081491 80.0748515,170.081491 79.9639704,170.195478 C79.7422083,170.42345 79.4095651,170.765409 79.187803,171.107368 L79.187803,171.107368 C79.0769219,171.33534 78.8551598,171.563313 78.7442787,171.905272 L78.7442787,171.905272 C78.7442787,171.905272 78.7442787,171.905272 78.7442787,172.019258 C78.6333977,172.133244 78.6333977,172.361217 78.5225166,172.589189 C78.5225166,172.703176 78.4116355,172.817162 78.4116355,172.817162 L78.4116355,172.931148 L78.4116355,173.045135 C78.4116355,173.273107 78.3007545,173.387093 78.3007545,173.615066 C78.3007545,173.729052 78.3007545,173.729052 78.3007545,173.843038 L78.3007545,173.957025 C78.3007545,174.071011 78.3007545,174.071011 78.3007545,174.184997 C78.3007545,174.41297 78.3007545,174.526956 78.1898734,174.754929 C78.1898734,174.868915 78.1898734,174.982901 78.1898734,175.096888 L78.1898734,175.210874 L78.1898734,175.32486 C78.1898734,175.438846 78.1898734,175.666819 78.1898734,175.894791 C78.1898734,176.122764 78.1898734,176.23675 78.1898734,176.464723 L78.1898734,176.464723 C78.1898734,176.578709 78.1898734,176.806682 78.1898734,176.920668 C78.1898734,177.14864 78.1898734,177.262627 78.1898734,177.490599 C78.1898734,177.718572 78.1898734,177.832558 78.1898734,178.060531 L78.1898734,178.060531 L78.1898734,178.060531 C78.1898734,178.174517 78.1898734,178.40249 78.1898734,178.516476 C78.1898734,178.744448 78.1898734,178.858435 78.3007545,179.086407 C78.3007545,179.31438 78.4116355,179.428366 78.4116355,179.656339 L78.4116355,179.656339 L78.4116355,179.656339 C78.4116355,179.884311 78.5225166,179.998297 78.5225166,180.22627 C78.5225166,180.454242 78.6333977,180.568229 78.6333977,180.796201 C78.6333977,181.024174 78.7442787,181.13816 78.7442787,181.366133 L78.7442787,181.366133 L78.7442787,181.366133 C78.7442787,181.594105 78.8551598,181.708091 78.8551598,181.936064 C78.9660408,182.164037 78.9660408,182.278023 79.0769219,182.505995 C79.0769219,182.619982 79.187803,182.847954 79.187803,182.961941 L79.187803,182.961941 C79.187803,182.961941 79.187803,182.961941 79.187803,183.075927 C79.298684,183.303899 79.298684,183.417886 79.4095651,183.645858 C79.5204462,183.873831 79.5204462,183.987817 79.6313272,184.21579 C79.7422083,184.329776 79.7422083,184.557748 79.8530893,184.671735 L79.8530893,184.671735 L79.8530893,184.671735 C79.9639704,184.899707 79.9639704,185.013693 80.0748515,185.241666 C80.1857325,185.469639 80.2966136,185.583625 80.2966136,185.811597 C80.4074946,185.925584 80.4074946,186.03957 80.5183757,186.267543 L80.5183757,186.381529 C80.5183757,186.381529 80.5183757,186.495515 80.6292568,186.495515 C80.7401378,186.837474 80.9619,187.179433 81.1836621,187.407405 C81.1836621,187.521392 81.2945431,187.521392 81.2945431,187.635378 C81.4054242,187.86335 81.6271863,188.091323 81.7380674,188.319295 C81.8489484,188.547268 81.9598295,188.661254 82.0707106,188.889227 C82.1815916,189.003213 82.2924727,189.231186 82.4033538,189.345172 L82.4033538,189.345172 L82.4033538,189.345172 L82.4033538,208.496233 C82.4033538,208.610219 82.4033538,208.724205 82.4033538,208.838192 C82.4033538,208.952178 82.4033538,209.066164 82.4033538,209.180151 C82.4033538,209.294137 82.4033538,209.408123 82.4033538,209.522109 C82.4033538,209.636096 82.4033538,209.750082 82.4033538,209.864068 C82.4033538,209.978055 82.4033538,210.092041 82.4033538,210.206027 L82.4033538,210.206027 L82.4033538,210.206027 C82.4033538,210.320013 82.4033538,210.434 82.4033538,210.547986 C82.4033538,210.661972 82.4033538,210.775958 82.5142348,210.889945 C82.5142348,211.003931 82.5142348,211.117917 82.6251159,211.231904 C82.6251159,211.34589 82.7359969,211.459876 82.7359969,211.573862 C82.7359969,211.687849 82.7359969,211.801835 82.846878,211.801835 L82.846878,211.801835 L82.846878,211.801835 C82.846878,211.915821 82.9577591,212.029807 82.9577591,212.143794 C82.9577591,212.25778 83.0686401,212.371766 83.0686401,212.485753 C83.0686401,212.599739 83.1795212,212.713725 83.1795212,212.827711 C83.1795212,212.941698 83.2904022,213.055684 83.2904022,213.16967 C83.2904022,213.283657 83.4012833,213.283657 83.4012833,213.397643 L83.4012833,213.397643 L83.4012833,213.397643 C83.4012833,213.511629 83.5121644,213.625615 83.5121644,213.739602 C83.5121644,213.853588 83.6230454,213.967574 83.6230454,214.08156 C83.7339265,214.195547 83.7339265,214.309533 83.8448076,214.423519 C83.9556886,214.537506 83.9556886,214.651492 84.0665697,214.879464 C84.0665697,214.879464 84.0665697,214.879464 84.0665697,214.993451 L84.0665697,215.107437 C84.1774507,215.335409 84.3992129,215.677368 84.5100939,215.905341 C84.620975,216.133313 84.731856,216.2473 84.9536182,216.475272 C85.0644992,216.589258 85.1753803,216.703245 85.2862614,216.817231 C85.3971424,216.931217 85.3971424,217.045204 85.5080235,217.15919 C85.6189045,217.273176 85.6189045,217.387162 85.7297856,217.501149 C85.8406667,217.615135 85.8406667,217.729121 85.9515477,217.729121 L85.9515477,217.729121 L85.9515477,217.729121 C86.0624288,217.843108 86.0624288,217.843108 86.1733098,217.957094 C86.2841909,218.07108 86.395072,218.185066 86.395072,218.185066 C86.505953,218.299053 86.6168341,218.413039 86.6168341,218.413039 C86.7277152,218.527025 86.8385962,218.527025 86.9494773,218.641011 L87.0603583,218.754998 L87.0603583,218.754998 L87.1712394,218.868984 C87.2821205,218.98297 87.3930015,218.98297 87.3930015,219.096957 C87.5038826,219.210943 87.6147636,219.210943 87.6147636,219.324929 C87.7256447,219.438915 87.8365258,219.438915 87.8365258,219.552902 C87.9474068,219.666888 88.0582879,219.666888 88.0582879,219.666888 C88.0582879,219.666888 88.0582879,219.666888 88.1691689,219.666888 C88.28005,219.666888 88.28005,219.780874 88.3909311,219.780874 C88.5018121,219.780874 88.6126932,219.89486 88.6126932,219.89486 C88.7235743,219.89486 88.8344553,220.008847 88.8344553,220.008847 C88.9453364,220.008847 89.0562174,220.122833 89.0562174,220.122833 C89.1670985,220.122833 89.2779796,220.236819 89.2779796,220.236819 L89.2779796,220.236819 L89.2779796,220.236819 C89.3888606,220.236819 89.3888606,220.236819 89.4997417,220.350806 C89.6106227,220.350806 89.7215038,220.350806 89.7215038,220.464792 C89.8323849,220.464792 89.9432659,220.464792 89.9432659,220.578778 C90.054147,220.578778 90.1650281,220.578778 90.1650281,220.578778 C90.2759091,220.578778 90.2759091,220.578778 90.3867902,220.578778 L90.3867902,220.578778 C90.3867902,220.578778 90.3867902,220.578778 90.4976712,220.578778 C90.6085523,220.578778 90.7194334,220.578778 90.8303144,220.578778 C90.9411955,220.578778 91.0520765,220.578778 91.1629576,220.578778 C91.2738387,220.578778 91.3847197,220.578778 91.4956008,220.578778 L91.4956008,220.578778 L91.4956008,220.578778 C91.6064819,220.578778 91.828244,220.464792 91.939125,220.464792 C92.1608872,220.350806 92.2717682,220.350806 92.4935303,220.236819 L95.2658228,218.640738 C95.0440607,218.754724 94.7114175,218.868711 94.4896554,218.868711 L94.4896554,218.868711 C94.1570122,218.982697 93.824369,218.982697 93.3808447,218.868711 L93.3808447,218.868711 C93.0482016,218.868711 92.6046773,218.754724 92.2720341,218.640738 L92.2720341,218.640738 C91.8285099,218.526752 91.3849856,218.298779 91.0523424,218.070807 C90.6088182,217.842834 90.165294,217.500875 89.8326508,217.158917 L89.8326508,217.158917 C89.3891265,216.816958 89.0564833,216.474999 88.7238402,216.019054 L88.7238402,216.019054 C87.9476727,215.22115 87.2823864,214.30926 86.7279811,213.28311 C86.7279811,213.28311 86.7279811,213.28311 86.7279811,213.169124 C86.5062189,212.713178 86.1735757,212.143247 85.9518136,211.687302 L85.9518136,211.687302 C85.7300515,211.117371 85.5082894,210.661425 85.3974083,210.091221 L85.3974083,210.091221 C85.2865273,209.521289 85.1756462,209.065344 85.0647651,208.49514 L85.0647651,208.49514 C84.9538841,207.925208 84.9538841,207.469263 84.9538841,206.899058 L84.9538841,187.747997 C84.7321219,187.406039 84.5103598,187.06408 84.2885977,186.722121 C84.1777166,186.494148 83.9559545,186.266176 83.8450735,186.038203 C83.6233113,185.582258 83.4015492,185.126313 83.1797871,184.784354 L83.1797871,184.670368 C82.958025,184.214423 82.6253818,183.644491 82.4036197,183.074287 L82.4036197,183.074287 C82.1818575,182.504355 81.9600954,182.04841 81.7383333,181.478206 C81.7383333,181.478206 81.7383333,181.478206 81.7383333,181.364219 C81.5165712,180.794288 81.4056901,180.338343 81.294809,179.768138 L81.294809,179.768138 C81.183928,179.198207 81.0730469,178.628275 80.9621659,178.172057 L80.9621659,178.172057 C80.8512848,177.602125 80.7404037,177.14618 80.7404037,176.575976 L80.7404037,176.575976 C80.7404037,176.006044 80.6295227,175.550099 80.6295227,174.979894 C80.8512848,174.184997 80.8512848,173.729052 80.9621659,173.273107 C80.9621659,173.387093 80.9621659,173.273107 80.9621659,173.273107 Z" id="Path" fill="#21934F"></path>
                            <g id="Group" opacity="0.2" transform="translate(137.506329, 171.061093)" stroke="#FFFFFF" stroke-width="7.0956">
                                <g id="Path">
                                    <path d="M8.96298898,7.83217649 C8.96298898,5.1860479 7.02868109,1.96473393 4.61050633,0.699326104 C2.19233156,-0.566081722 0.258023683,0.469251953 0.258023683,3.11538055 C0.258023683,5.76150914 2.19262148,8.86778603 4.61050633,10.2482309 C7.02868109,11.5136388 8.96298898,10.4783051 8.96298898,7.83217649 Z"></path>
                                </g>
                                <g transform="translate(0.000000, 83.036354)" id="Path">
                                    <path d="M8.96298898,7.74362277 C8.96298898,5.09749418 7.02868109,1.87618021 4.61050633,0.610772384 C2.19233156,-0.654635441 0.258023683,0.380698234 0.258023683,3.02682683 C0.258023683,5.67295542 2.19262148,8.77923232 4.61050633,10.1596772 C7.02868109,11.4253609 8.96298898,10.3897514 8.96298898,7.74362277 Z"></path>
                                </g>
                            </g>
                            <g id="Group" opacity="0.2" transform="translate(43.139241, 116.141479)" stroke="#FFFFFF" stroke-width="7.0956">
                                <g id="Path">
                                    <path d="M8.87659453,7.80734835 C8.87659453,5.16121975 6.94199673,1.94018165 4.52411188,0.674497958 C2.10593712,-0.590909867 0.171629236,0.444423808 0.171629236,3.0905524 C0.171629236,5.736681 2.10622703,8.84295789 4.52411188,10.2234028 C6.82139241,11.4888106 8.87659453,10.4534769 8.87659453,7.80734835 Z"></path>
                                </g>
                                <g transform="translate(0.000000, 83.036354)" id="Path">
                                    <path d="M8.87659453,7.71879463 C8.87659453,5.07266603 6.94199673,1.85162793 4.52411188,0.585944238 C2.10593712,-0.679463587 0.171629236,0.355870088 0.171629236,3.00199868 C0.171629236,5.64812728 2.10622703,8.75440417 4.52411188,10.1348491 C6.82139241,11.2854957 8.87659453,10.2498861 8.87659453,7.71879463 Z"></path>
                                </g>
                            </g>
                            <path d="M153.683544,114.340836 C153.683544,114.040729 153.683544,113.740622 153.683544,113.440514 C153.683544,113.740622 153.683544,114.040729 153.683544,114.340836 Z" id="Path"></path>
                            <polygon id="Path" fill="#19042D" points="180.445309 110.73955 209.405063 93.9093298 204.212919 90.9324759 175.253165 107.762696 176.291759 108.33539 179.406714 110.167131"></polygon>
                            <polygon id="Path" fill="#19042D" points="231.598684 90.0321543 226.481013 93.0373154 250.90555 107.138264 256.139241 104.133103"></polygon>
                            <path d="M206.380401,93.8964489 C213.315609,97.1470572 223.424581,97.1470572 230.35979,93.8964489 C230.829935,93.6642825 231.30008,93.432116 231.770226,93.1999496 C239.17558,89.0206755 239.058043,82.055126 231.652689,77.8758519 C231.182544,77.6436855 230.712399,77.4115191 230.35979,77.1793526 C223.424581,73.9287443 213.433146,73.9287443 206.498219,77.0632694 C206.028074,77.2954358 205.440392,77.5276023 204.970247,77.8758519 C197.682429,82.055126 197.682429,88.9045923 205.087783,93.1999496 C205.44011,93.4318376 205.910256,93.6642825 206.380401,93.8964489 Z M206.380401,85.1893727 C206.497937,83.5639294 207.673301,81.9387644 209.789237,80.661849 C214.490973,77.9916568 222.013863,77.9916568 226.715881,80.661849 C231.417617,83.3320413 231.417617,87.6273986 226.715881,90.2975909 C222.014145,92.9677832 214.491255,92.9677832 209.789237,90.2975909 C207.555764,89.0206755 206.380401,87.3952322 206.262865,85.7700672 C206.380401,85.5376224 206.380401,85.4215392 206.380401,85.1893727 Z" id="Shape" fill="#19042D" fill-rule="nonzero"></path>
                            <path d="M212.987843,89.0352182 C215.819424,90.3644664 219.948682,90.3644664 222.780262,89.0352182 C223.016203,88.9143774 223.134174,88.7935367 223.370115,88.6726959 C226.319666,86.8600847 226.319666,83.9596169 223.370115,82.2675566 C223.252145,82.1467158 223.016203,82.0258751 222.780262,82.0258751 C219.948682,80.6966268 215.937394,80.6966268 213.105814,82.0258751 C212.869873,82.1467158 212.633931,82.2675566 212.515961,82.3883973 C209.56641,84.2010086 209.56641,87.1014764 212.515961,88.7935367 C212.515961,88.7935367 212.751902,88.9143774 212.987843,89.0352182 Z" id="Path" fill="url(#linearGradient-5)"></path>
                            <path d="M13.4688561,86.3342535 C16.3004363,87.6635018 20.4296943,87.6635018 23.2612744,86.3342535 C23.4972159,86.2134128 23.6151866,86.092572 23.851128,85.9717313 C26.8006789,84.15912 26.8006789,81.2586522 23.851128,79.566592 C23.7331573,79.4457512 23.4972159,79.3249105 23.2612744,79.3249105 C20.4296943,77.9956622 16.418407,77.9956622 13.5868269,79.3249105 C13.3508854,79.4457512 13.114944,79.566592 12.9969733,79.6874327 C10.0474224,81.500044 10.0474224,84.4005117 12.9969733,86.092572 C13.114944,86.2134128 13.3508854,86.2134128 13.4688561,86.3342535 Z" id="Path" fill="url(#linearGradient-6)"></path>
                            <path d="M253.150814,121.806417 C260.077886,125.057025 270.174997,125.057025 277.101788,121.806417 C277.571381,121.57425 278.040975,121.342084 278.510851,121.109917 C285.907516,116.930643 285.790118,109.965094 278.393452,105.78582 C277.923858,105.553653 277.454265,105.321487 277.102069,105.08932 C270.174997,101.838712 260.195284,101.838712 253.268494,104.973237 C252.7989,105.205404 252.211908,105.43757 251.742314,105.78582 C244.345648,109.965094 244.463047,116.81456 251.859712,121.109917 C252.211345,121.342084 252.680939,121.57425 253.150814,121.806417 Z M253.150814,113.099619 C253.268212,111.474176 254.442197,109.849011 256.555651,108.572095 C261.25187,105.901903 268.765934,105.901903 273.462436,108.572095 C278.158937,111.242288 278.158655,115.537645 273.462436,118.207837 C268.766216,120.878029 261.252152,120.878029 256.555651,118.207837 C254.324798,116.930922 253.150814,115.305478 253.033415,113.680313 C253.150814,113.563952 253.150814,113.331785 253.150814,113.099619 Z" id="Shape" fill="#19042D" fill-rule="nonzero"></path>
                            <path d="M152.588515,106.288729 C152.588515,106.288729 152.588515,106.174458 152.588515,106.288729 C152.120377,106.51727 151.535205,106.745812 151.067067,106.974353 C143.693335,111.088372 143.810369,117.830891 151.184101,122.05918 C151.652239,122.287722 152.120377,122.516263 152.588515,122.744805 C159.494109,125.944658 169.559915,125.944658 176.465228,122.744805 C176.933366,122.516263 177.401504,122.287722 177.869642,122.05918 C185.243374,117.945162 185.12634,111.088372 177.752607,106.974353 C177.28447,106.745812 176.816332,106.51727 176.465228,106.288729 C176.465228,106.974353 176.465228,107.659977 176.465228,108.231605 C176.465228,110.174481 176.465228,112.117082 176.465228,114.059684 L176.348194,114.059684 C176.465228,115.888015 175.411918,117.830891 172.953914,119.202139 C168.272255,121.830639 160.781488,121.830639 156.099829,119.202139 C153.875894,117.945162 152.705549,116.345098 152.588515,114.745308 C152.588515,114.516767 152.588515,114.288225 152.588515,114.059684 C152.588515,111.545455 152.588515,108.917229 152.588515,106.288729 Z" id="Path" fill="#19042D"></path>
                            <path d="M51.930287,48.6173633 L51.930287,48.6173633 C51.4621492,48.8465203 50.8769769,49.0756772 50.4088391,49.3048342 C43.0351069,53.4299338 43.1521413,60.1906129 50.5258735,64.430291 C50.9940114,64.659448 51.4621492,64.8886049 51.930287,65.1177618 C58.8358814,68.3262337 68.9016869,68.3262337 75.8070006,65.1177618 C76.2751384,64.8886049 76.7432763,64.659448 77.2114141,64.430291 C84.5851463,60.3051914 84.4681119,53.4299338 77.0943796,49.3048342 C76.6262418,49.0756772 76.158104,48.8465203 75.8070006,48.6173633 C75.8070006,49.3048342 75.8070006,49.992305 75.8070006,50.5654721 C75.8070006,52.5135808 75.8070006,54.4614148 75.8070006,56.4095235 C75.924035,58.242779 74.8707249,60.1908877 72.2956862,61.5658293 C67.6140272,64.2014089 60.1232605,64.2014089 55.4413208,61.5658293 C53.2173854,60.3054662 52.0470408,58.7010929 51.9300064,57.0969943 C51.9300064,56.8678374 51.9300064,56.6386804 51.9300064,56.4095235 C51.930287,53.8882477 51.930287,51.2529429 51.930287,48.6173633 Z" id="Path" fill="#19042D"></path>
                            <polygon id="Path" fill="#19042D" points="96.956223 117.041801 133.012658 96.6023364 127.727603 93.6334405 91.6708861 114.072905 92.7281224 114.643794 95.8989867 116.470912"></polygon>
                            <polygon id="Path" fill="#19042D" points="49.6461973 62.1221865 26.0632911 75.401903 31.2401545 78.3279743 54.8227848 65.0482577"></polygon>
                            <path d="M70.671822,129.008989 C77.6070305,132.259597 87.7160023,132.259597 94.6509288,129.008989 C95.1210742,128.776823 95.5912196,128.544656 96.061365,128.31249 C103.466719,124.133216 103.349183,117.167666 95.9438287,112.988392 C95.4736833,112.756226 95.0035379,112.524059 94.6509288,112.291893 C87.7157204,109.041284 77.724285,109.041284 70.7893584,112.17581 C70.319213,112.407976 69.7315312,112.640142 69.2613858,112.988392 C61.9735683,117.167666 61.9735683,124.017133 69.3789222,128.31249 C69.7312494,128.544656 70.2016766,128.776823 70.671822,129.008989 Z M70.671822,120.302191 C70.7893584,118.676748 71.9647219,117.051583 74.0806581,115.774668 C78.782394,113.104475 86.3052842,113.104475 91.0070201,115.774668 C95.708756,118.44486 95.708756,122.740217 91.0070201,125.410409 C86.3052842,128.080602 78.782394,128.080602 74.0806581,125.410409 C71.8471855,124.133494 70.671822,122.508051 70.5542857,120.882886 C70.671822,120.766524 70.671822,120.534358 70.671822,120.302191 Z" id="Shape" fill="#19042D" fill-rule="nonzero"></path>
                            <path d="M6.89793083,91.1954842 C13.8250027,94.4460926 23.9221143,94.4460926 30.8489046,91.1954842 C31.3184984,90.9633178 31.7880922,90.7311514 32.2576861,90.498985 C39.6543517,86.3197109 39.5369533,79.3541613 32.1402876,75.1748873 C31.6706938,74.9427209 31.2011,74.7105544 30.8489046,74.478388 C23.9218328,71.2277796 13.9421196,71.2277796 7.01532928,74.3623048 C6.54573546,74.5944712 5.95874319,74.8266376 5.48914938,75.1748873 C-1.90751628,79.3541613 -1.79011783,86.2036277 5.60654783,90.498985 C5.95874319,90.7311514 6.42833701,90.9633178 6.89793083,91.1954842 Z M6.89793083,82.4884081 C7.01532928,80.8629647 8.18931382,79.2377998 10.3027675,77.9608844 C14.9989872,75.2906921 22.5130513,75.2906921 27.2095525,77.9608844 C31.9057722,80.6310767 31.9057722,84.926434 27.2095525,87.5966263 C22.5133329,90.2668185 14.9992687,90.2668185 10.3027675,87.5966263 C8.07191536,86.3197109 6.89793083,84.6942675 6.78053237,83.0691026 C6.89793083,82.9530193 6.89793083,82.7208529 6.89793083,82.4884081 Z" id="Shape" fill="#19042D" fill-rule="nonzero"></path>
                        </g>
                    </g>
                </g>
            </g>
        </g>
    </g>
</svg>