<?xml version="1.0" encoding="UTF-8"?>
<svg width="217px" height="280px" viewBox="0 0 217 280" version="1.1" xmlns="http://www.w3.org/2000/svg" xmlns:xlink="http://www.w3.org/1999/xlink">
    <!-- Generator: Sketch 55.1 (78136) - https://sketchapp.com -->
    <title>illustration / shield</title>
    <desc>Created with Sketch.</desc>
    <defs>
        <linearGradient x1="-14.2805566%" y1="139.028575%" x2="80.7138355%" y2="-0.17089609%" id="linearGradient-1">
            <stop stop-color="#3F0995" offset="0%"></stop>
            <stop stop-color="#695BD9" offset="99.61%"></stop>
        </linearGradient>
        <linearGradient x1="-14.290655%" y1="139.043247%" x2="80.7038106%" y2="-0.155859293%" id="linearGradient-2">
            <stop stop-color="#360F59" offset="0.29%"></stop>
            <stop stop-color="#962BF0" offset="99.82%"></stop>
        </linearGradient>
        <linearGradient x1="3.71926957e-05%" y1="50.0000339%" x2="99.9999553%" y2="50.0000339%" id="linearGradient-3">
            <stop stop-color="#360F59" offset="0.29%"></stop>
            <stop stop-color="#962BF0" offset="99.82%"></stop>
        </linearGradient>
        <linearGradient x1="40.2712884%" y1="111.580546%" x2="64.4126352%" y2="-22.2743754%" id="linearGradient-4">
            <stop stop-color="#360F59" offset="0.29%"></stop>
            <stop stop-color="#962BF0" offset="99.82%"></stop>
        </linearGradient>
        <linearGradient x1="-489.453339%" y1="782.487871%" x2="1468.22179%" y2="-1874.5865%" id="linearGradient-5">
            <stop stop-color="#360F59" offset="0.29%"></stop>
            <stop stop-color="#962BF0" offset="99.82%"></stop>
        </linearGradient>
        <linearGradient x1="-805.729627%" y1="1227.92272%" x2="1124.65014%" y2="-1429.09521%" id="linearGradient-6">
            <stop stop-color="#360F59" offset="0.29%"></stop>
            <stop stop-color="#962BF0" offset="99.82%"></stop>
        </linearGradient>
        <linearGradient x1="-1249.72991%" y1="1762.95609%" x2="764.144832%" y2="-891.191564%" id="linearGradient-7">
            <stop stop-color="#360F59" offset="0.29%"></stop>
            <stop stop-color="#962BF0" offset="99.82%"></stop>
        </linearGradient>
        <linearGradient x1="-401.025636%" y1="650.237013%" x2="1615.86705%" y2="-2033.89814%" id="linearGradient-8">
            <stop stop-color="#360F59" offset="0.29%"></stop>
            <stop stop-color="#962BF0" offset="99.82%"></stop>
        </linearGradient>
        <linearGradient x1="-774.695826%" y1="1141.51831%" x2="1264.33705%" y2="-1557.22917%" id="linearGradient-9">
            <stop stop-color="#360F59" offset="0.29%"></stop>
            <stop stop-color="#962BF0" offset="99.82%"></stop>
        </linearGradient>
        <linearGradient x1="-507.627751%" y1="808.551979%" x2="1445.00195%" y2="-1848.43109%" id="linearGradient-10">
            <stop stop-color="#360F59" offset="0.29%"></stop>
            <stop stop-color="#962BF0" offset="99.82%"></stop>
        </linearGradient>
        <linearGradient x1="-900.156958%" y1="1334.2825%" x2="1075.26385%" y2="-1335.85796%" id="linearGradient-11">
            <stop stop-color="#360F59" offset="0.29%"></stop>
            <stop stop-color="#962BF0" offset="99.82%"></stop>
        </linearGradient>
        <linearGradient x1="-1196.64099%" y1="1699.91763%" x2="842.797084%" y2="-999.086218%" id="linearGradient-12">
            <stop stop-color="#360F59" offset="0.29%"></stop>
            <stop stop-color="#962BF0" offset="99.82%"></stop>
        </linearGradient>
        <linearGradient x1="-1214.26149%" y1="1723.30413%" x2="824.788142%" y2="-975.466384%" id="linearGradient-13">
            <stop stop-color="#360F59" offset="0.29%"></stop>
            <stop stop-color="#962BF0" offset="99.82%"></stop>
        </linearGradient>
        <linearGradient x1="-1291.84569%" y1="1818.46298%" x2="722.101657%" y2="-835.780372%" id="linearGradient-14">
            <stop stop-color="#360F59" offset="0.29%"></stop>
            <stop stop-color="#962BF0" offset="99.82%"></stop>
        </linearGradient>
        <linearGradient x1="-1142.21804%" y1="1662.70928%" x2="825.264194%" y2="-998.698992%" id="linearGradient-15">
            <stop stop-color="#360F59" offset="0.29%"></stop>
            <stop stop-color="#962BF0" offset="99.82%"></stop>
        </linearGradient>
        <linearGradient x1="-1024.37534%" y1="1465.90669%" x2="989.70635%" y2="-1188.42743%" id="linearGradient-16">
            <stop stop-color="#360F59" offset="0.29%"></stop>
            <stop stop-color="#962BF0" offset="99.82%"></stop>
        </linearGradient>
        <linearGradient x1="-408.928841%" y1="683.151274%" x2="1527.47828%" y2="-1987.91735%" id="linearGradient-17">
            <stop stop-color="#360F59" offset="0.29%"></stop>
            <stop stop-color="#962BF0" offset="99.82%"></stop>
        </linearGradient>
        <linearGradient x1="-613.468119%" y1="942.333942%" x2="1371.89311%" y2="-1727.88418%" id="linearGradient-18">
            <stop stop-color="#360F59" offset="0.29%"></stop>
            <stop stop-color="#962BF0" offset="99.82%"></stop>
        </linearGradient>
        <linearGradient x1="-665.553886%" y1="1002.33828%" x2="1314.8312%" y2="-1633.3758%" id="linearGradient-19">
            <stop stop-color="#360F59" offset="0.29%"></stop>
            <stop stop-color="#962BF0" offset="99.82%"></stop>
        </linearGradient>
        <linearGradient x1="-1020.14683%" y1="1467.48266%" x2="1016.39352%" y2="-1229.00133%" id="linearGradient-20">
            <stop stop-color="#360F59" offset="0.29%"></stop>
            <stop stop-color="#962BF0" offset="99.82%"></stop>
        </linearGradient>
        <linearGradient x1="-489.75486%" y1="782.898486%" x2="1467.91404%" y2="-1874.16979%" id="linearGradient-21">
            <stop stop-color="#3F0995" offset="0%"></stop>
            <stop stop-color="#695BD9" offset="99.61%"></stop>
        </linearGradient>
        <linearGradient x1="-824.606688%" y1="1240.88362%" x2="1148.67329%" y2="-1445.49635%" id="linearGradient-22">
            <stop stop-color="#3F0995" offset="0%"></stop>
            <stop stop-color="#695BD9" offset="99.61%"></stop>
        </linearGradient>
        <linearGradient x1="-1250.05852%" y1="1763.39095%" x2="763.837316%" y2="-890.786464%" id="linearGradient-23">
            <stop stop-color="#3F0995" offset="0%"></stop>
            <stop stop-color="#695BD9" offset="99.61%"></stop>
        </linearGradient>
        <linearGradient x1="-400.733568%" y1="649.826658%" x2="1616.23019%" y2="-2034.28798%" id="linearGradient-24">
            <stop stop-color="#3F0995" offset="0%"></stop>
            <stop stop-color="#695BD9" offset="99.61%"></stop>
        </linearGradient>
        <linearGradient x1="-774.386637%" y1="1141.11157%" x2="1264.64597%" y2="-1557.63694%" id="linearGradient-25">
            <stop stop-color="#3F0995" offset="0%"></stop>
            <stop stop-color="#695BD9" offset="99.61%"></stop>
        </linearGradient>
        <linearGradient x1="-507.323124%" y1="808.139686%" x2="1445.28173%" y2="-1848.80886%" id="linearGradient-26">
            <stop stop-color="#3F0995" offset="0%"></stop>
            <stop stop-color="#695BD9" offset="99.61%"></stop>
        </linearGradient>
        <linearGradient x1="-882.812917%" y1="1322.60976%" x2="1054.71606%" y2="-1321.81277%" id="linearGradient-27">
            <stop stop-color="#3F0995" offset="0%"></stop>
            <stop stop-color="#695BD9" offset="99.61%"></stop>
        </linearGradient>
        <linearGradient x1="-1196.95862%" y1="1700.33541%" x2="842.47783%" y2="-998.666368%" id="linearGradient-28">
            <stop stop-color="#3F0995" offset="0%"></stop>
            <stop stop-color="#695BD9" offset="99.61%"></stop>
        </linearGradient>
        <linearGradient x1="-1213.94663%" y1="1722.88501%" x2="825.090844%" y2="-975.867967%" id="linearGradient-29">
            <stop stop-color="#3F0995" offset="0%"></stop>
            <stop stop-color="#695BD9" offset="99.61%"></stop>
        </linearGradient>
        <linearGradient x1="-1291.50588%" y1="1818.00952%" x2="722.38675%" y2="-836.161126%" id="linearGradient-30">
            <stop stop-color="#3F0995" offset="0%"></stop>
            <stop stop-color="#695BD9" offset="99.61%"></stop>
        </linearGradient>
        <linearGradient x1="-1141.91292%" y1="1662.29427%" x2="825.554705%" y2="-999.093318%" id="linearGradient-31">
            <stop stop-color="#3F0995" offset="0%"></stop>
            <stop stop-color="#695BD9" offset="99.61%"></stop>
        </linearGradient>
        <linearGradient x1="-1024.06407%" y1="1465.4938%" x2="990.002941%" y2="-1188.81902%" id="linearGradient-32">
            <stop stop-color="#3F0995" offset="0%"></stop>
            <stop stop-color="#695BD9" offset="99.61%"></stop>
        </linearGradient>
        <linearGradient x1="-408.635214%" y1="682.748023%" x2="1527.77191%" y2="-1988.3206%" id="linearGradient-33">
            <stop stop-color="#3F0995" offset="0%"></stop>
            <stop stop-color="#695BD9" offset="99.61%"></stop>
        </linearGradient>
        <linearGradient x1="-613.17312%" y1="941.935241%" x2="1372.19679%" y2="-1728.29411%" id="linearGradient-34">
            <stop stop-color="#3F0995" offset="0%"></stop>
            <stop stop-color="#695BD9" offset="99.61%"></stop>
        </linearGradient>
        <linearGradient x1="-665.250968%" y1="1001.93366%" x2="1315.12047%" y2="-1633.76196%" id="linearGradient-35">
            <stop stop-color="#3F0995" offset="0%"></stop>
            <stop stop-color="#695BD9" offset="99.61%"></stop>
        </linearGradient>
        <linearGradient x1="-1020.47022%" y1="1467.91208%" x2="1016.08417%" y2="-1228.5908%" id="linearGradient-36">
            <stop stop-color="#3F0995" offset="0%"></stop>
            <stop stop-color="#695BD9" offset="99.61%"></stop>
        </linearGradient>
        <linearGradient x1="8.42971305e-05%" y1="49.9999622%" x2="99.9999789%" y2="49.9999622%" id="linearGradient-37">
            <stop stop-color="#3CDC7C" offset="0%"></stop>
            <stop stop-color="#95EBB1" offset="100%"></stop>
        </linearGradient>
    </defs>
    <g id="💵-Fraudfix" stroke="none" stroke-width="1" fill="none" fill-rule="evenodd">
        <g id="Home" transform="translate(-456.000000, -2790.000000)">
            <g id="what-we-do" transform="translate(-1129.000000, 469.000000)">
                <g id="5" transform="translate(1585.000000, 2321.000000)">
                    <g id="illustration-/-shield">
                        <g id="illustration">
                            <path d="M39.6182573,8.90705128 C40.4127209,9.20704898 41.36594,9.50769461 42.3195021,9.80769231 C41.5250385,9.20704898 40.5718193,8.90705128 39.6182573,8.90705128 Z" id="Path" fill="#8F8FF9"></path>
                            <polygon id="Path" fill="#EADBFF" points="31.7011625 26.745449 15.3070539 35.9262821 35.7083608 34.1830573 52.2240664 25.1185897"></polygon>
                            <path d="M107.247484,260.492996 C146.085763,267.510042 171.071036,249.782656 181.832013,207.926119 C188.14019,183.304689 187.645316,156.713609 186.779687,143.910349 L172.060784,125.813686 L166.371066,118.796639 L165.381585,110.671499 L163.0316,91.3437375 C146.209882,76.0785468 120.358713,57.6123417 107.742625,50.4722918 C95.2501221,43.2089727 69.398953,32.0060868 52.4536504,27.8205128 L49.9798134,44.4400708 L48.990332,51.3341136 L43.1770287,51.8266591 L28.458126,53.0577571 C27.5922297,64.8759265 26.9737704,90.7284541 33.0345108,122.613203 C43.7949541,176.533916 68.6563749,222.945303 107.247484,260.492996 Z" id="Path" fill="#F4EDFF"></path>
                            <path d="M105.941741,223.225011 C116.51461,223.594156 125.120254,221.009879 132.127711,215.472181 C140.118647,209.072969 146.265725,198.612637 150.076808,184.337104 C153.396017,171.907825 154.625433,160.339794 154.871369,149.387093 L136.676336,125.020638 L134.340606,110.622145 C124.013674,102.74609 113.072034,95.1162197 106.310513,91.1780593 C99.5489924,87.2398989 88.6073524,82.3175303 78.2804203,78.2564103 L75.821589,89.8244411 L57.626556,93.1472723 C57.8724922,104.346159 58.9788071,117.267542 62.1751816,133.512022 C65.986264,152.217554 71.8874059,169.692693 79.8783422,185.198619 C86.8863297,198.858556 95.4919738,211.411061 105.941741,223.225011 Z" id="Path" fill="url(#linearGradient-1)" opacity="0.2"></path>
                            <path d="M101.439667,226.827575 C112.012535,227.196719 120.618179,224.612447 127.625636,219.074494 C135.616572,212.675294 141.76365,202.214981 145.574733,187.939474 C148.893943,175.510218 150.123358,163.942208 150.369295,152.989526 L132.174262,128.623116 L129.838531,114.22465 C119.511599,106.348609 108.569959,98.718753 101.808438,94.7805997 C95.0469177,90.8424465 84.1052777,85.920087 73.7783456,81.8589744 L71.3195143,93.4269841 L53.1244813,96.7498091 C53.3704175,107.948675 54.4767324,120.870035 57.6731069,137.114485 C61.4841893,155.819983 67.3853312,173.295089 75.3762675,188.800987 C82.384255,202.461165 90.9898991,215.013647 101.439667,226.827575 Z" id="Path" fill="url(#linearGradient-2)"></path>
                            <path d="M107.570397,277.350481 C219.055972,301.731987 201.030595,150.024605 200.042936,142.020383 L179.301298,116.284423 L175.721,86.730906 C157.942605,68.2598913 123.620189,43.6320488 108.187717,34.7660467 C92.7552448,25.9000447 58.4325619,11.0005162 40.6541667,8.90705128 L36.9502456,34.2736387 L16.2086069,35.9974654 C15.2212143,43.0166052 -3.66846382,173.54433 107.570397,277.350481 Z M49.1730255,174.775749 C48.6790628,173.54433 48.1853665,172.312911 47.6914037,171.081492 C47.3210649,170.096411 46.9507261,169.111329 46.5803873,168.126247 C45.8397096,166.279119 45.2223894,164.431991 44.6050692,162.584863 C44.4817118,162.092189 44.2347304,161.599781 44.1111065,161.107107 C43.7407677,159.875689 43.2468049,158.767571 42.8764661,157.536153 C42.5061273,156.304734 42.1357885,155.196616 41.7651832,153.965198 C41.0245055,151.748697 40.4071854,149.532197 39.7898652,147.315696 C39.2959024,145.714905 38.9255636,144.114114 38.4318673,142.513323 C38.0615285,141.035567 37.6911897,139.558077 37.3205844,138.080322 C36.085944,133.031611 34.8513036,127.859865 33.8636446,122.564818 C32.9993431,118.131817 32.2586654,113.698816 31.6413452,109.512152 C31.5179878,108.52707 31.3943639,107.665024 31.2710064,106.679942 C31.024025,104.832814 30.7770437,102.985686 30.5303287,101.261859 C30.5303287,100.769185 30.4069713,100.399813 30.4069713,99.907405 C29.9130085,95.966812 29.6662936,92.1495203 29.4193122,88.45553 C29.4193122,88.0861575 29.4193122,87.5934837 29.2959548,87.2241113 C29.1725973,85.6233201 29.0489734,84.022529 29.0489734,82.5447734 C29.0489734,81.4363903 28.925616,80.3282729 28.925616,79.2198897 C28.925616,78.4811448 28.925616,77.7421342 28.8022585,77.0033892 C28.8022585,76.6340168 28.8022585,76.2646443 28.8022585,75.8952718 C28.8022585,75.1565269 28.8022585,74.5408176 28.8022585,73.8018069 C28.8022585,72.0779802 28.8022585,70.4769233 28.8022585,68.8761321 C28.8022585,68.2604228 28.8022585,67.6447134 28.8022585,67.0290041 C28.8022585,63.9504573 28.925616,61.2415488 29.0492399,58.7787114 C29.0492399,58.2860376 29.0492399,57.7936296 29.1725973,57.3009558 C29.1725973,56.5622109 29.2959548,55.9465015 29.2959548,55.3307922 C29.2959548,54.4687459 29.4193122,53.730001 29.4193122,52.9912561 L30.5305952,52.8682205 L44.1113729,51.7601031 L49.9139696,51.2674293 L50.9016286,44.3715909 L53.3709094,27.7477042 C53.8648721,27.8707398 54.4821923,27.9940411 54.9758886,28.1170767 C55.5932088,28.2401123 56.2105289,28.4864491 56.8278491,28.6097505 C60.9021091,29.7178678 65.3467079,31.1956234 69.7913067,32.7964146 C70.0382881,32.9194502 70.1616455,32.9194502 70.4086269,33.0427515 C71.1493046,33.2890884 71.8902486,33.5354253 72.6309263,33.9047977 C73.2482465,34.1511346 73.7419428,34.2741702 74.359263,34.5205071 C76.0875997,35.1362164 77.8162028,35.8749613 79.421182,36.4906707 C79.6681633,36.6137063 79.9151447,36.6137063 80.0385022,36.7370076 C91.0266417,41.2930442 101.7678,46.3417545 108.434698,50.2823475 C118.805517,56.3161397 138.435873,69.9845152 154.362308,83.2835183 C156.090644,84.7612739 157.819248,86.2387637 159.424227,87.5934837 C159.794566,87.8398206 160.041547,88.0861575 160.411886,88.45553 C161.523169,89.4406118 162.510828,90.302658 163.621844,91.2877398 L165.967501,110.620535 L166.95516,118.747792 L172.634399,125.766666 L187.326194,143.868043 C188.066871,156.674638 188.560834,183.272644 182.387632,207.900486 C179.424655,219.721734 175.226771,229.573083 169.918137,237.454004 C169.300817,238.31605 168.683497,239.17783 168.066177,240.039877 C167.201875,241.271295 166.214216,242.502714 165.226557,243.610831 C164.856218,243.980204 164.609237,244.349576 164.238898,244.719215 C163.621578,245.457959 162.8809,246.19697 162.139956,246.81268 C160.781958,248.167134 159.300336,249.521854 157.818715,250.629971 C157.078037,251.245681 156.337093,251.738089 155.473058,252.353798 C154.73238,252.846472 153.868079,253.461915 153.127401,253.954589 C151.892761,254.693334 150.65812,255.432345 149.42348,256.048054 C149.053141,256.294391 148.559178,256.417426 148.188839,256.663763 C146.460503,257.52581 144.7319,258.141519 142.879939,258.757228 C140.65764,259.495973 138.188359,260.111683 135.719078,260.604356 C133.249797,261.09703 130.780517,261.466403 128.064521,261.589438 C127.570558,261.589438 126.953504,261.712474 126.459542,261.712474 C124.854563,261.835509 123.249583,261.835509 121.644604,261.712474 C119.916267,261.712474 118.187664,261.589438 116.459328,261.466137 C115.348311,261.343101 114.237028,261.2198 113.125745,261.096764 C111.397409,260.850427 109.545448,260.604091 107.816845,260.234718 C82.7542314,235.853213 63.4942145,207.65415 50.1604181,176.130734 C49.6669882,176.006902 49.4200069,175.391192 49.1730255,174.775749 Z" id="Shape" fill="url(#linearGradient-3)" fill-rule="nonzero"></path>
                            <path d="M178.390544,262.719114 C179.361721,262.100161 180.332898,261.60516 181.182776,260.986208 C181.425636,260.862524 181.668495,260.61489 181.911093,260.490939 C182.63941,259.995671 183.36799,259.500669 184.096307,258.881717 C184.217606,258.758034 184.460465,258.634083 184.582026,258.510399 C185.431904,257.891447 186.28152,257.148811 187.0101,256.405909 C187.252959,256.282225 187.374258,256.034591 187.617118,255.91064 C188.224136,255.291688 188.831155,254.672736 189.438173,254.053784 C189.681033,253.806149 189.802332,253.682466 190.045192,253.434831 C190.773509,252.692196 191.502088,251.825609 192.230405,251.082974 C192.351704,250.95929 192.351704,250.835339 192.473265,250.835339 C193.080283,250.092704 193.687302,249.349801 194.29432,248.607165 C194.53718,248.359531 194.658479,248.111896 194.901338,247.864529 C195.508357,247.121893 195.993814,246.378991 196.600833,245.636355 C196.722132,245.512671 196.843692,245.388721 196.843692,245.265037 C197.450711,244.398451 198.057729,243.408181 198.664747,242.541594 C198.664747,242.417911 198.786046,242.417911 198.786046,242.29396 C198.907345,242.170276 198.907345,242.046326 199.028906,241.922642 C199.878784,240.684738 200.607101,239.32315 201.335419,237.961562 C201.456718,237.837878 201.456718,237.590244 201.578278,237.466293 C202.306596,236.104706 203.035175,234.742851 203.642193,233.257579 C203.642193,233.257579 203.642193,233.133896 203.763492,233.133896 C203.884791,233.010212 203.884791,232.886261 203.884791,232.762578 C204.37051,231.648624 204.855968,230.534403 205.341687,229.296499 C205.341687,229.172816 205.462986,229.048865 205.462986,228.925181 C205.948706,227.687277 206.434163,226.449373 206.919883,225.211468 C206.919883,225.087785 207.041182,224.963834 207.041182,224.840151 C207.041182,224.716467 207.162743,224.592516 207.162743,224.468833 C207.526901,223.354879 208.012621,222.116975 208.376779,220.87907 C208.376779,220.755387 208.498078,220.507753 208.498078,220.383802 C208.862237,219.269848 209.226395,218.155628 209.469255,217.041407 C209.469255,216.917723 209.590816,216.793773 209.590816,216.546138 C209.590816,216.422455 209.590816,216.422455 209.712115,216.298504 C210.076274,215.0606 210.319133,213.946646 210.683292,212.708742 C210.804591,212.461108 210.804591,212.213473 210.926152,211.966106 C211.169011,210.852153 211.411871,209.737932 211.654469,208.623711 C211.654469,208.500028 211.654469,208.376077 211.775768,208.252393 C211.775768,208.252393 211.775768,208.252393 211.775768,208.12871 C212.382786,205.405267 212.989804,202.55814 213.353963,199.711281 L213.353963,199.711281 L213.353963,199.711281 C213.839683,196.864155 214.203841,194.017028 214.568,191.169902 L214.568,191.046218 C214.568,190.922535 214.568,190.922535 214.568,190.922535 C214.932158,187.951725 215.175018,185.104598 215.417878,182.133521 L215.417878,182.009837 C215.417878,181.886154 215.417878,181.886154 215.417878,181.762203 C215.539177,180.400615 215.660738,179.03876 215.660738,177.553489 C215.660738,177.305855 215.660738,177.05822 215.660738,176.810853 C215.782299,175.449265 215.782299,174.08741 215.903597,172.849773 C215.903597,172.72609 215.903597,172.602139 215.903597,172.602139 C215.903597,172.478455 215.903597,172.354505 215.903597,172.230821 C215.903597,170.745282 216.024896,169.383694 216.024896,167.898156 C216.024896,167.650522 216.024896,167.526838 216.024896,167.279204 C216.024896,165.917616 216.024896,164.555761 216.024896,163.194173 C216.024896,163.070489 216.024896,163.070489 216.024896,162.946539 C216.024896,162.822588 216.024896,162.822855 216.024896,162.698904 C216.024896,161.213366 216.024896,159.728094 216.024896,158.242556 C216.024896,158.118872 216.024896,157.994922 216.024896,157.747287 C216.024896,156.261749 216.024896,154.900161 215.903597,153.538573 L215.903597,153.414889 L215.903597,153.291206 C215.903597,152.54857 215.903597,151.805667 215.782299,151.063032 C215.782299,150.939348 215.782299,150.691714 215.782299,150.567763 C215.782299,149.948811 215.782299,149.453809 215.660738,148.958541 C215.660738,148.710907 215.660738,148.463272 215.660738,148.215905 C215.660738,147.720637 215.660738,147.349319 215.539439,146.854317 C215.539439,146.606683 215.539439,146.359049 215.539439,146.111682 C215.539439,145.616413 215.539439,145.245095 215.41814,144.750094 C215.41814,144.62641 215.41814,144.502459 215.41814,144.254825 L215.41814,144.131141 C215.41814,143.388506 215.296579,142.769554 215.296579,142.150601 C215.296579,142.026918 215.296579,141.902967 215.296579,141.655333 C215.296579,141.160064 215.17528,140.541112 215.17528,140.046111 C215.17528,139.922427 215.17528,139.798476 215.17528,139.674793 C215.17528,139.055841 215.053981,138.560572 215.053981,138.065571 C215.053981,137.941887 215.053981,137.817936 215.053981,137.694253 C215.053981,137.322935 214.93242,136.827666 214.93242,136.456349 C214.93242,136.332665 214.93242,136.332665 214.93242,136.208714 L214.93242,136.085031 C214.93242,135.589762 214.811122,135.218444 214.811122,134.847126 C214.811122,134.723443 214.811122,134.723443 214.811122,134.599492 C214.811122,134.228174 214.689823,133.856856 214.689823,133.609222 L214.689823,133.485539 C214.689823,133.114221 214.568262,132.866586 214.568262,132.618952 L214.568262,132.495269 C214.568262,132.247634 214.568262,132.123951 214.568262,132 L198.179028,141.779284 C198.179028,141.902967 198.179028,142.150601 198.179028,142.274552 L198.179028,142.398236 C198.179028,142.64587 198.179028,142.893504 198.300327,143.264822 L198.300327,143.388506 C198.300327,143.63614 198.421626,144.007458 198.421626,144.378776 C198.421626,144.502459 198.421626,144.502459 198.421626,144.62641 C198.421626,144.997728 198.542925,145.492996 198.542925,145.987998 C198.542925,146.111682 198.542925,146.111682 198.542925,146.235632 C198.542925,146.60695 198.664223,147.102219 198.664223,147.473537 C198.664223,147.59722 198.664223,147.721171 198.664223,147.844854 C198.664223,148.340123 198.785522,148.958808 198.785522,149.454077 C198.785522,149.57776 198.785522,149.701711 198.785522,149.701711 C198.785522,150.196979 198.906821,150.815664 198.906821,151.310933 C198.906821,151.434617 198.906821,151.558567 198.906821,151.806202 C198.906821,152.425154 199.02812,153.167789 199.02812,153.786742 C199.02812,153.910425 199.02812,154.158059 199.02812,154.28201 C199.02812,154.777279 199.02812,155.27228 199.149419,155.767549 C199.149419,156.015183 199.149419,156.138867 199.149419,156.386501 C199.149419,156.881769 199.149419,157.253087 199.270718,157.748089 C199.270718,157.995723 199.270718,158.243357 199.270718,158.490724 C199.270718,158.985993 199.270718,159.604678 199.392017,160.099947 C199.392017,160.22363 199.392017,160.471264 199.392017,160.595215 C199.392017,161.337851 199.392017,162.080754 199.513316,162.823389 C199.513316,162.947073 199.513316,162.947073 199.513316,163.071024 C199.513316,164.432612 199.634615,165.91815 199.634615,167.279738 C199.634615,167.403422 199.634615,167.527372 199.634615,167.775007 C199.634615,169.260545 199.634615,170.622133 199.634615,172.231355 C199.634615,172.355039 199.634615,172.602673 199.634615,172.726624 C199.634615,174.088212 199.634615,175.450067 199.634615,176.811655 C199.634615,177.059289 199.634615,177.182972 199.634615,177.430607 C199.634615,178.792195 199.513316,180.277733 199.513316,181.763272 C199.513316,182.010906 199.513316,182.13459 199.513316,182.382224 C199.513316,183.743812 199.392017,184.981716 199.270456,186.343571 C199.270456,186.591205 199.270456,186.83884 199.270456,187.086207 C199.149157,188.447795 199.149157,189.80965 199.027596,191.294921 C199.027596,191.418605 199.027596,191.542555 199.027596,191.666239 C198.784736,194.513365 198.541877,197.484175 198.177718,200.455252 C198.177718,200.578936 198.177718,200.702887 198.177718,200.82657 C197.813559,203.673697 197.449401,206.520823 196.963681,209.36795 L196.963681,209.36795 C196.477962,212.215076 195.992504,214.938519 195.385486,217.785378 C195.385486,217.909062 195.264187,218.033013 195.264187,218.280647 C195.021327,219.3946 194.778468,220.508821 194.53587,221.623042 C194.414571,221.870676 194.414571,222.11831 194.29301,222.365678 C193.928851,223.603582 193.685992,224.717535 193.321833,225.95544 C193.200534,226.203074 193.200534,226.450708 193.078973,226.698075 C192.714815,227.812029 192.471955,228.92625 192.107796,230.040471 C192.107796,230.164154 191.986498,230.411788 191.986498,230.535739 C191.622339,231.773643 191.136619,232.887597 190.772461,234.125501 C190.651162,234.373136 190.529601,234.62077 190.529601,234.868137 C190.043882,236.106041 189.558424,237.343946 189.072705,238.58185 C189.072705,238.705533 188.951406,238.829484 188.951406,238.953168 C188.465686,240.067121 187.980229,241.305026 187.494509,242.419246 C187.37321,242.666881 187.37321,242.790564 187.25165,243.038198 C186.644631,244.399786 185.916314,245.885325 185.187735,247.246913 C185.066436,247.370596 185.066436,247.618231 184.944875,247.742181 C184.216558,249.103769 183.487978,250.465624 182.638362,251.703528 C182.517063,251.951163 182.395503,252.074846 182.274204,252.322481 C181.667185,253.189067 181.060167,254.179337 180.453149,255.045923 C180.33185,255.169607 180.210289,255.293558 180.210289,255.417241 C179.724569,256.159877 179.117813,256.90278 178.510795,257.645416 C178.267935,257.89305 178.146636,258.140684 177.903776,258.388051 C177.296758,259.130687 176.68974,259.87359 176.082721,260.616226 C175.961422,260.739909 175.961422,260.86386 175.839861,260.86386 C175.111544,261.730446 174.382965,262.473082 173.654648,263.215718 C173.411788,263.463352 173.290489,263.587036 173.047629,263.83467 C172.440611,264.453622 171.833593,265.072574 171.226574,265.691526 C170.983715,265.81521 170.862416,266.062844 170.619556,266.186795 C169.769678,266.929431 169.041361,267.548383 168.191483,268.291286 C168.070184,268.414969 167.827324,268.53892 167.705763,268.662604 C166.977446,269.157872 166.248867,269.776557 165.520549,270.271826 C165.27769,270.395509 165.03483,270.643144 164.792232,270.767094 C163.821055,271.386046 162.971177,272.004999 162,272.5 L162,272.5 L162,272.5 L178.390544,262.719114 Z" id="Path" fill="url(#linearGradient-4)"></path>
                            <polygon id="Path" fill="#EADBFF" points="194.852179 106.176282 178.282158 115.811266 198.751147 141.301282 215.19917 131.666298"></polygon>
                            <polygon id="Path" fill="#BC83FF" points="191.75025 77.3557692 174.680498 87.0760523 178.32029 116.983974 195.390041 107.139179"></polygon>
                            <path d="M45.5296557,11.2286968 C46.3899187,11.4755428 47.3729627,11.5988326 48.2332256,11.8456786 C49.0934886,12.0925246 49.9534864,12.2158145 50.8137493,12.4626605 C51.0595766,12.5859503 51.428185,12.5859503 51.6740123,12.7095065 C52.9028836,13.0796423 54.254536,13.4497782 55.4834073,13.819914 C55.9750619,13.9432039 56.5892323,14.1900499 57.203668,14.313606 C58.063931,14.560452 59.046975,14.9305879 59.9072379,15.1774339 C60.5216736,15.4242798 61.1361092,15.5475697 61.7505449,15.7944157 C62.6108079,16.0412617 63.4708056,16.4113975 64.2082875,16.6582435 C65.3141126,17.0283794 66.5429839,17.5220714 67.6490742,17.8922072 C68.1407288,18.1390532 68.7548992,18.2623431 69.2465538,18.5091891 C70.9668146,19.1261709 72.6873405,19.8664426 74.4076012,20.4834245 L74.5303823,20.4834245 C76.3736892,21.2236962 78.2169962,21.9642342 79.9372569,22.7045059 C80.5516926,22.9513518 81.043082,23.1981978 81.6575176,23.4447776 C83.00917,24.0617594 84.2380413,24.5551851 85.5896937,25.172167 C86.2041294,25.4190129 86.6955188,25.6658589 87.3099544,25.9124387 C88.5388257,26.4061306 89.6446508,27.0228462 90.8735221,27.5165382 C91.3651767,27.7633842 91.8565661,28.0102302 92.2251745,28.13352 C93.8226542,28.8737917 95.4201338,29.6143297 96.8948324,30.3546014 C98.1237038,30.9715833 99.3525751,31.5885651 100.581446,32.205547 C100.704227,32.3288368 100.950055,32.3288368 101.073101,32.452393 C102.056145,32.9460849 103.039189,33.5628005 104.022233,34.0564925 C104.145014,34.0564925 104.145014,34.1797824 104.26806,34.1797824 C105.251104,34.7967642 106.234148,35.2901899 107.217192,35.7838819 C107.954409,36.2775739 108.814672,36.7709996 109.797716,37.2646916 C110.043543,37.3879814 110.289371,37.5115376 110.534933,37.6348274 C111.517977,38.2518093 112.624067,38.8687911 113.729892,39.6090628 C115.081544,40.4728907 116.433462,41.3364522 117.785114,42.3238362 C118.030942,42.5706822 118.39955,42.693972 118.768158,42.940818 C119.873983,43.6810897 121.102855,44.5449176 122.331726,45.2851893 C122.700334,45.5320353 123.191989,45.9021711 123.560597,46.1490171 C125.035296,47.1361348 126.509729,48.1232525 127.984428,49.2339264 C128.476083,49.6040622 129.090253,49.9741981 129.581908,50.3443339 C131.425215,51.7015874 133.391303,53.0591073 135.357391,54.5396507 L135.357391,54.5396507 C137.200698,55.8969042 139.044005,57.3777139 141.010093,58.7349675 C141.624528,59.1051033 142.115918,59.5987953 142.730353,59.9689311 C144.082006,61.0793387 145.556704,62.1900125 146.908357,63.3006864 C147.522792,63.7943784 148.137228,64.2878041 148.751664,64.6579399 C149.734708,65.3982116 150.594971,66.1387496 151.578015,66.8790213 C152.315231,67.3727133 152.929667,67.9896951 153.667149,68.4831208 C154.650193,69.2233925 155.633237,70.0872204 156.4935,70.8274921 C157.107936,71.3211841 157.845152,71.9378996 158.459588,72.4315916 C158.828196,72.8017275 159.319851,73.1718633 159.688459,73.5419992 C160.671503,74.405827 161.531766,75.1460987 162.51481,76.0099266 C163.006465,76.3800624 163.497854,76.8737544 163.989509,77.2438903 C164.972553,78.1077181 165.955597,78.9712796 166.938641,79.8351075 C167.184468,79.9583973 167.307249,80.2052433 167.553077,80.3287995 C168.659167,81.3159172 169.642211,82.3030349 170.748036,83.2901526 C171.362472,83.7838446 171.853861,84.4005601 172.345516,84.8942521 C173.205779,85.7580799 173.942995,86.4983516 174.680212,87.3621795 L191.26971,77.6140261 C190.901101,77.2438903 190.532493,76.8737544 190.286666,76.5036186 C189.795011,76.0099266 189.426403,75.6397907 188.935013,75.146365 C188.443624,74.6529393 187.829188,74.0359575 187.337533,73.5422655 C187.214752,73.4189756 186.968925,73.1721296 186.845879,73.0485735 C185.985616,72.1847456 185.125618,71.3211841 184.142309,70.4573562 C184.019528,70.3340664 183.773701,70.0872204 183.527873,69.9636642 C183.036219,69.4699723 182.422048,68.9765466 181.930394,68.4828546 C181.561785,68.1127187 181.070131,67.7425829 180.701522,67.372447 C180.209868,67.0023112 179.718478,66.5086192 179.226824,66.1384833 C178.366561,65.2746555 177.383517,64.5343838 176.400473,63.6705559 C176.031864,63.3004201 175.54021,62.9302842 175.171601,62.5601484 C175.04882,62.4368585 174.925774,62.3133024 174.802993,62.1900125 C174.311338,61.8198767 173.819949,61.3261847 173.205513,60.9560488 C172.222469,60.2157771 171.362206,59.3519493 170.379162,58.6116776 C169.641946,57.9946958 169.02751,57.5012701 168.290028,56.8842882 C167.306984,56.1440165 166.446721,55.4034785 165.463677,54.6632068 C165.21785,54.4163608 164.972023,54.293071 164.72646,54.046225 C164.357852,53.799379 163.989244,53.4292431 163.620635,53.1823971 C162.268983,52.0719896 160.794284,50.9613157 159.442632,49.8506419 C158.828196,49.3569499 158.336807,48.9868141 157.722371,48.4933884 C155.879064,47.0125787 154.035757,45.6553251 152.19245,44.2980716 C152.19245,44.2980716 152.19245,44.2980716 152.069669,44.2980716 L152.069669,44.2980716 C150.103581,42.8172619 148.260274,41.4600084 146.294186,40.1027548 C145.802532,39.732619 145.188361,39.3624831 144.696707,38.9923473 C143.222008,37.8819397 141.747575,36.8945557 140.272876,35.907438 C140.027049,35.660592 139.65844,35.5373022 139.412613,35.2904562 C139.289832,35.1671663 139.166786,35.1671663 139.044005,35.0436102 C137.815133,34.1797824 136.709308,33.4395107 135.480437,32.699239 C135.111829,32.452393 134.866001,32.205547 134.497393,32.0822571 C133.022694,31.0951394 131.671042,30.2313116 130.442171,29.3674837 L130.31939,29.2441939 C129.336346,28.627212 128.353302,28.0102302 127.370258,27.3932483 C127.12443,27.2699585 126.878603,27.1464023 126.633041,27.0231125 C126.141386,26.6529766 125.527216,26.2828408 125.035561,26.0359948 C124.666953,25.9127049 124.421126,25.6658589 124.175298,25.5423028 C123.315035,25.0486108 122.331991,24.4318953 121.226166,23.9382033 C121.103385,23.9382033 121.103385,23.8149134 120.980339,23.8149134 C120.980339,23.8149134 120.857558,23.8149134 120.857558,23.6916236 C119.997295,23.1979316 119.014251,22.7045059 118.031207,22.2108139 C117.908426,22.087524 117.78538,22.087524 117.539552,21.9639679 C116.433727,21.346986 115.204856,20.7300042 113.975985,20.1130223 C113.975985,20.1130223 113.975985,20.1130223 113.853204,20.1130223 C112.378505,19.3727506 110.781025,18.6322126 109.183546,17.8919409 C108.691891,17.645095 108.200502,17.398249 107.708847,17.2749591 C106.603022,16.7812671 105.374151,16.1645516 104.145279,15.6708596 C103.899452,15.5475697 103.653625,15.4240136 103.408063,15.3007237 C103.039454,15.1774339 102.793627,15.0538777 102.425019,14.9305879 C101.196147,14.313606 99.8444948,13.8201803 98.4928425,13.2031985 C97.8784068,12.9563525 97.3870174,12.7095065 96.7725818,12.4629268 C94.9292748,11.7226551 93.0859678,10.9821171 91.2426608,10.2418454 C91.2426608,10.2418454 91.2426608,10.2418454 91.1198798,10.2418454 L91.1198798,10.2418454 C89.3996191,9.50157368 87.6790932,8.88459183 85.9588324,8.26760999 C85.4671778,8.02076399 84.8527422,7.89747413 84.3613528,7.65062814 C83.2555277,7.15693615 82.0266564,6.7868003 80.9205661,6.41666445 C80.6747388,6.29337459 80.5519578,6.29337459 80.3061305,6.16981845 C79.6916948,5.92297246 79.0772591,5.7996826 78.4628235,5.55283661 C77.8483878,5.30599061 77.2339522,5.05914462 76.6195165,4.93585476 C75.7592536,4.68900877 74.8992558,4.31887292 73.9159466,4.07202692 C73.3015109,3.94873707 72.8101215,3.70189107 72.1956859,3.57833493 C72.0729048,3.57833493 71.9498586,3.45504508 71.8270775,3.45504508 C70.5982062,3.08490923 69.4923811,2.71477338 68.2635098,2.46792738 C68.0176825,2.34463753 67.6490742,2.34463753 67.4032469,2.22108139 C66.7888112,2.09779153 66.0515945,1.85094554 65.4371588,1.7273894 C65.1913315,1.7273894 64.9455042,1.60409954 64.8227232,1.60409954 C63.8396792,1.35725355 62.9794162,1.23396369 62.1191533,0.987117696 C61.7505449,0.863827841 61.3819365,0.740271701 61.0133282,0.740271701 C60.8905471,0.740271701 60.7675009,0.740271701 60.6447198,0.616981845 C60.0302842,0.49369199 59.5388948,0.49369199 59.0472402,0.37013585 C58.5555856,0.246845995 58.0641961,0.246845995 57.5725415,0.123289855 C57.2039332,0.123289855 56.9581059,0 56.5894975,0 L40,9.74815339 C40.7372167,9.87144324 41.5974797,9.99499938 42.3346964,10.1182892 C42.826351,10.2415791 43.4405215,10.2415791 43.9321761,10.3651352 C44.4238307,10.9818508 44.9152201,11.1051406 45.5296557,11.2286968 Z" id="Path" fill="#EADBFF"></path>
                            <g id="Group" transform="translate(41.419087, 52.137821)">
                                <path d="M23.4744955,130.143181 C24.0910829,130.513727 24.7076702,130.63742 25.2007805,130.513727 C26.5571663,130.266608 26.9270655,128.166759 25.9405789,126.066643 C25.3239915,124.707886 24.3375049,123.595982 23.4742294,123.10201 C22.857642,122.731464 22.2410546,122.607771 21.7479444,122.731464 C20.3915586,123.10201 20.0216594,125.078432 21.008146,127.178548 C21.5015223,128.537305 22.4880089,129.525516 23.4744955,130.143181 Z" id="Path" fill="url(#linearGradient-5)"></path>
                                <path d="M123.112834,155.096381 C123.60621,153.613931 122.742935,151.019843 121.263072,149.537393 C120.893173,149.166847 120.646485,148.919728 120.276585,148.796302 C119.043411,148.05521 117.810236,148.302063 117.440337,149.537393 C116.94696,151.019843 117.687025,153.490238 119.290099,155.096381 C119.659998,155.466927 119.906686,155.59062 120.276585,155.837473 C121.50976,156.578832 122.742935,156.331712 123.112834,155.096381 Z" id="Path" fill="url(#linearGradient-6)"></path>
                                <path d="M64.7847855,21.0659338 C66.2646484,21.9307186 67.6210342,21.4364797 67.8677224,19.8306031 C68.1144106,17.9776071 67.0044469,15.6306387 65.2781619,14.271615 C65.1549508,14.1481886 65.0314737,14.0244955 64.7847855,14.0244955 C63.3049226,13.1597107 61.9485368,13.6539496 61.7018486,15.2598262 C61.4551604,16.9891293 62.5651242,19.4597906 64.2914092,20.6951213 C64.5383634,20.8188143 64.6615745,20.9422408 64.7847855,21.0659338 Z" id="Path" fill="url(#linearGradient-7)"></path>
                                <path d="M66.1414374,192.155502 C66.5113366,192.402622 66.8812358,192.526048 67.251135,192.526048 C68.854209,192.649475 69.5940074,191.043598 68.97742,188.943749 C68.4840437,187.337873 67.3743461,185.855423 66.1411713,185.114331 C65.7712721,184.867211 65.4013729,184.743785 65.0314737,184.743785 C63.4283997,184.620358 62.6886013,186.226235 63.3051887,188.326084 C63.7982989,190.055387 64.9082627,191.537837 66.1414374,192.155502 Z" id="Path" fill="url(#linearGradient-8)"></path>
                                <path d="M4.85392914,60.3485967 C4.97714017,60.4720232 5.10061732,60.4720232 5.34730549,60.5957162 C6.95037946,61.2133815 8.18355422,60.1014773 7.93686604,58.1250548 C7.69017787,56.2720588 6.45700311,54.1719433 4.97740629,53.4308515 C4.85419526,53.307425 4.73071811,53.307425 4.48402994,53.183732 C2.88095597,52.5660667 1.64778121,53.6779709 1.89446938,55.6543934 C2.01768041,57.5073894 3.37406621,59.4838119 4.85392914,60.3485967 Z" id="Path" fill="url(#linearGradient-9)"></path>
                                <path d="M89.8179138,190.055387 C90.4345012,190.425933 91.1742996,190.549626 91.667676,190.425933 C93.0240618,189.931694 93.2707499,187.955271 92.1610523,185.73173 C91.5444649,184.496399 90.6811894,183.508188 89.8181799,183.013949 C89.2015926,182.643403 88.4617941,182.51971 87.9684178,182.643403 C86.612032,183.137642 86.4885549,185.237491 87.4750414,187.337606 C88.0913627,188.573203 88.9546383,189.561415 89.8179138,190.055387 Z" id="Path" fill="url(#linearGradient-10)"></path>
                                <path d="M6.0871039,26.130683 C6.0871039,24.1542605 4.73071811,21.8070256 3.12764414,20.8188143 L3.12764414,20.8188143 C1.40135915,19.8306031 0.0447072421,20.5716949 0.0447072421,22.5481174 C0.0447072421,24.5245398 1.40109303,26.8717748 3.12764414,27.859986 C4.730452,28.7247708 6.0871039,27.9834125 6.0871039,26.130683 Z" id="Path" fill="url(#linearGradient-11)"></path>
                                <path d="M36.5457754,7.60098921 C36.6689864,7.72441565 36.9156746,7.72441565 37.0391517,7.84810866 C38.6422257,8.46577401 39.8754005,7.35386976 39.6287123,5.37744728 C39.3820241,3.52445124 38.1488493,1.54802877 36.6692525,0.683243971 C36.5460415,0.559817534 36.2993533,0.559817534 36.1758762,0.436124517 C34.5728022,-0.181540829 33.3396274,0.930363425 33.5863156,3.03021234 C33.7095267,4.75978194 35.0659124,6.73620441 36.5457754,7.60098921 Z" id="Path" fill="url(#linearGradient-12)"></path>
                                <path d="M108.068315,72.9487565 C108.191526,73.0721829 108.438214,73.0721829 108.561691,73.195876 C110.164765,73.8135413 111.39794,72.7016371 111.151252,70.7252146 C110.904564,68.8722185 109.671389,66.8957961 108.191792,66.0310113 C108.068581,65.9075848 107.945104,65.9075848 107.698416,65.7838918 C106.095342,65.1662265 104.862167,66.2781307 105.108855,68.2545532 C105.232066,70.1075492 106.588718,72.0839717 108.068315,72.9487565 Z" id="Path" fill="url(#linearGradient-13)"></path>
                                <path d="M93.1472728,39.9659069 C94.6271357,40.8306917 95.9835215,40.3364528 96.2302097,38.7305762 C96.4768979,36.8775802 95.3669341,34.5306118 93.6406491,33.1715881 C93.5174381,33.0481617 93.393961,32.9244686 93.1472728,32.9244686 C91.6674098,32.0596838 90.3110241,32.5539227 90.0643359,34.1597993 C89.8176477,35.8891024 90.9276114,38.3597637 92.6538964,39.5950944 C92.7773736,39.719054 92.9005846,39.8424805 93.1472728,39.9659069 Z" id="Path" fill="url(#linearGradient-14)"></path>
                                <path d="M128.291955,98.0253831 C130.01824,99.0135943 131.374892,98.1488095 131.251415,96.172387 C131.251415,94.1959646 129.895029,91.9724226 128.291955,90.9842114 C128.291955,90.9842114 128.291955,90.9842114 128.168744,90.9842114 C126.442459,89.9960002 125.085807,90.860785 125.209284,92.8372074 C125.085807,94.6899369 126.442193,97.0371718 128.291955,98.0253831 L128.291955,98.0253831 Z" id="Path" fill="url(#linearGradient-15)"></path>
                                <path d="M22.9811191,25.8835635 C24.4609821,26.7483483 25.8173678,26.2541094 26.064056,24.6482329 C26.3107442,22.9189298 25.2007805,20.4482685 23.4744955,19.2129378 C23.3512844,19.0895113 23.1045963,18.9658183 22.9811191,18.8423919 C21.5012562,17.9776071 20.1448704,18.471846 19.8981822,20.0777226 C19.651494,21.8070256 20.7614578,24.277687 22.4877428,25.6367107 C22.7344309,25.7601371 22.8579081,25.7601371 22.9811191,25.8835635 Z" id="Path" fill="url(#linearGradient-16)"></path>
                                <path d="M42.2182728,163.867123 C42.464961,163.990549 42.7116492,164.114242 42.9580712,164.114242 C43.5746586,164.361362 44.191246,164.237669 44.6843562,163.867123 C45.0542554,163.620003 45.1777326,163.126031 45.3009436,162.631792 C45.3009436,162.384673 45.3009436,162.261246 45.3009436,162.014127 C45.3009436,161.643581 45.1777326,161.273035 45.1777326,160.902489 C44.9310444,160.161397 44.6843562,159.420039 44.191246,158.678947 C43.6978697,157.814162 42.9580712,157.196497 42.3414839,156.825951 C41.7248965,156.455405 41.1083091,156.331712 40.6151989,156.455405 C40.3685107,156.455405 40.1218225,156.578832 39.9986115,156.825951 C39.8754005,156.825951 39.8754005,156.949377 39.8754005,157.07307 C39.5055013,157.443616 39.3820241,158.061282 39.3820241,158.802373 C39.3820241,158.9258 39.3820241,159.049493 39.3820241,159.172919 C39.5052351,160.161131 39.8754005,161.149342 40.4917217,162.137553 C40.9850981,162.878645 41.6016855,163.49631 42.2182728,163.867123 Z" id="Path" fill="url(#linearGradient-17)"></path>
                                <path d="M11.266225,94.8136299 C11.6361242,95.0607494 12.0060234,95.1841758 12.2527116,95.1841758 C13.8557856,95.4312952 14.7190611,93.9488451 14.1024737,91.7253032 C13.6090974,89.9960002 12.4993998,88.389857 11.266225,87.7721916 C10.8963258,87.5250722 10.5264266,87.4016458 10.2797384,87.4016458 C8.67666445,87.1545263 7.8133889,88.6369764 8.42997628,90.8605184 C8.79987549,92.590088 10.0330502,94.0722715 11.266225,94.8136299 Z" id="Path" fill="url(#linearGradient-18)"></path>
                                <path d="M108.315003,177.331801 C109.30149,177.949466 110.287976,177.949466 110.904564,177.208374 C111.89105,176.096737 111.39794,173.749502 110.041288,171.896506 C109.547912,171.155414 108.93159,170.661175 108.315003,170.290629 C107.328516,169.672964 106.34203,169.672964 105.725442,170.414055 C104.738956,171.525693 105.232066,173.872928 106.588718,175.725924 C107.205305,176.590709 107.698416,177.084681 108.315003,177.331801 Z" id="Path" fill="url(#linearGradient-19)"></path>
                                <path d="M126.56567,128.660731 C128.045533,129.525516 129.401919,129.031277 129.52513,127.4254 C129.771818,125.696097 128.661854,123.225436 126.935569,121.990105 C126.812358,121.866679 126.688881,121.742986 126.56567,121.742986 C125.085807,120.878201 123.729421,121.37244 123.482733,122.978317 C123.236045,124.70762 124.46922,127.178281 126.072294,128.413612 C126.195771,128.413878 126.442193,128.537305 126.56567,128.660731 Z" id="Path" fill="url(#linearGradient-20)"></path>
                            </g>
                            <g id="Group" opacity="0.2" transform="translate(43.219917, 49.435897)">
                                <path d="M23.422337,130.032817 C24.0389244,130.403363 24.6555118,130.527056 25.148622,130.403363 C26.5050078,130.156244 26.874907,128.056395 25.8884204,125.956279 C25.2718331,124.597522 24.2853465,123.485618 23.4220709,122.991646 C22.8054835,122.6211 22.1888961,122.497407 21.6957859,122.6211 C20.3394001,122.991646 19.9695009,124.968068 20.9559875,127.068184 C21.5725749,128.426941 22.4358504,129.538578 23.422337,130.032817 Z" id="Path" fill="url(#linearGradient-21)"></path>
                                <path d="M123.060676,155.109444 C123.554052,153.626994 122.690776,151.032906 121.210913,149.550456 C120.841014,149.17991 120.594326,148.93279 120.224427,148.809364 C118.991252,148.068272 117.758077,148.315125 117.388178,149.550456 C116.894802,151.032906 117.634866,153.503567 119.23794,155.109444 C119.607839,155.47999 119.854528,155.603683 120.224427,155.850536 C121.457602,156.468201 122.690776,156.221348 123.060676,155.109444 Z" id="Path" fill="url(#linearGradient-22)"></path>
                                <path d="M64.7328932,20.9553032 C66.2127561,21.820088 67.5691419,21.3258491 67.8158301,19.7199725 C68.0625183,17.8669765 66.9525545,15.5200081 65.2262695,14.1609844 C65.1030585,14.0375579 64.9795813,13.9138649 64.7328932,13.9138649 C63.2530302,13.0490801 61.8966444,13.543319 61.6499563,15.1491956 C61.4032681,16.8784986 62.5132318,19.34916 64.2395168,20.5844907 C64.486205,20.8318768 64.609416,20.9553032 64.7328932,20.9553032 Z" id="Path" fill="url(#linearGradient-23)"></path>
                                <path d="M66.089279,192.168565 C66.4591782,192.415684 66.8290774,192.539111 67.1989766,192.539111 C68.8020505,192.662537 69.541849,191.056661 68.9252616,188.956812 C68.4318852,187.350935 67.3221876,185.868485 66.0890129,185.127393 C65.7191136,184.880274 65.3492144,184.756847 64.9790491,184.756847 C63.3759752,184.633421 62.6361767,186.239297 63.2527641,188.339146 C63.7464066,189.945023 64.8561042,191.427473 66.089279,192.168565 Z" id="Path" fill="url(#linearGradient-24)"></path>
                                <path d="M4.80177069,60.3616591 C4.92498172,60.4850856 5.04845887,60.4850856 5.29514704,60.6087786 C6.89822101,61.2264439 8.13139577,60.1145397 7.88470759,58.1381172 C7.63801942,56.2851212 6.40484466,54.1850057 4.92524784,53.4439139 C4.80203681,53.3204875 4.67855966,53.3204875 4.43187149,53.1967944 C2.82879752,52.5791291 1.59562276,53.6910333 1.84231093,55.6674558 C1.96552196,57.5204519 3.32217387,59.4968743 4.80177069,60.3616591 Z" id="Path" fill="url(#linearGradient-25)"></path>
                                <path d="M89.7657554,190.068449 C90.3823428,190.438995 91.1221412,190.562688 91.6155175,190.438995 C92.9719033,189.944756 93.2185915,187.968334 92.1088939,185.744792 C91.4923065,184.509461 90.6290309,183.52125 89.7660215,183.027011 C89.1494341,182.656465 88.4096357,182.532772 87.9162593,182.656465 C86.5598736,183.150704 86.4363964,185.250553 87.422883,187.350668 C88.0394704,188.586266 88.9024798,189.450784 89.7657554,190.068449 Z" id="Path" fill="url(#linearGradient-26)"></path>
                                <path d="M6.1584226,26.020319 C6.1584226,24.0438965 4.80203681,21.6966616 3.19896284,20.7084503 L3.19896284,20.7084503 C1.47267784,19.7202391 0.116025938,20.4613309 0.116025938,22.4377533 C0.116025938,24.4141758 1.47241173,26.7614108 3.19896284,27.749622 C4.67855966,28.7378332 6.03494545,27.9967414 6.1584226,26.020319 Z" id="Path" fill="url(#linearGradient-27)"></path>
                                <path d="M36.493883,7.49062518 C36.6170941,7.61405162 36.8637823,7.61405162 36.9872594,7.73774464 C38.5903334,8.35540998 39.8235081,7.24350573 39.5768199,5.26708325 C39.3301318,3.41408722 38.096957,1.43766474 36.6173602,0.572879943 C36.4941492,0.449453506 36.247461,0.449453506 36.1239838,0.325760489 C34.5209099,-0.291904857 33.2877351,0.819999397 33.5344233,2.91984831 C33.6576343,4.64941791 35.0140201,6.62584038 36.493883,7.49062518 Z" id="Path" fill="url(#linearGradient-28)"></path>
                                <path d="M108.016422,72.9618189 C108.139634,73.0852454 108.386322,73.0852454 108.509799,73.2089384 C110.112873,73.8266037 111.346048,72.7146995 111.099359,70.738277 C110.852671,68.885281 109.619496,66.9088585 108.1399,66.0440737 C108.016689,65.9206472 107.893211,65.9206472 107.646523,65.7969542 C106.043449,65.1792889 104.810275,66.2911931 105.056963,68.2676156 C105.180174,69.9969186 106.53656,72.0970341 108.016422,72.9618189 Z" id="Path" fill="url(#linearGradient-29)"></path>
                                <path d="M93.0953804,39.9792359 C94.5752434,40.8440207 95.9316292,40.3497818 96.1783174,38.7439052 C96.4250055,36.8909092 95.3150418,34.5439408 93.5887568,33.1849171 C93.4655458,33.0614906 93.3420686,32.9377976 93.0953804,32.9377976 C91.6155175,32.0730128 90.2591317,32.5672517 90.0124435,34.1731283 C89.7657554,35.9024313 90.8757191,38.3730927 92.6020041,39.6084234 C92.7252151,39.7321164 92.8486923,39.8555429 93.0953804,39.9792359 Z" id="Path" fill="url(#linearGradient-30)"></path>
                                <path d="M128.240063,98.0384455 C129.966348,99.0266567 131.323,98.1618719 131.199523,96.1854494 C131.199523,94.209027 129.843137,91.985485 128.240063,90.9972738 C128.240063,90.9972738 128.240063,90.9972738 128.116852,90.9972738 C126.390567,90.0090626 125.033915,90.8738474 125.157392,92.8502698 C125.157126,94.7029993 126.513512,97.0502342 128.240063,98.0384455 L128.240063,98.0384455 Z" id="Path" fill="url(#linearGradient-31)"></path>
                                <path d="M22.9292268,25.896626 C24.4090897,26.7614108 25.7654755,26.2671718 26.0121637,24.6612953 C26.2588519,22.9319922 25.1488881,20.4613309 23.4226031,19.2260002 C23.2993921,19.1025737 23.0527039,18.9788807 22.9292268,18.8554543 C21.4493639,17.9906695 20.0929781,18.4849084 19.8462899,20.090785 C19.5996017,21.820088 20.7095654,24.2907494 22.4358504,25.6497731 C22.6825386,25.6495065 22.8057496,25.7731995 22.9292268,25.896626 Z" id="Path" fill="url(#linearGradient-32)"></path>
                                <path d="M42.1661144,163.880185 C42.4128026,164.003612 42.6594907,164.127305 42.9059128,164.127305 C43.5225002,164.374424 44.1390876,164.250731 44.6321978,163.880185 C45.002097,163.633066 45.1255741,163.139093 45.2487852,162.644854 C45.2487852,162.397735 45.2487852,162.274309 45.2487852,162.027189 C45.2487852,161.656643 45.1255741,161.286097 45.1255741,160.915551 C44.878886,160.17446 44.6321978,159.433101 44.1390876,158.692009 C43.6457112,157.827225 42.9059128,157.209559 42.2893254,156.839013 C41.672738,156.468468 41.0561507,156.344775 40.5630404,156.468468 C40.3163522,156.468468 40.0696641,156.591894 39.946453,156.839013 C39.823242,156.839013 39.823242,156.96244 39.823242,157.086133 C39.4533428,157.456679 39.3298657,158.074344 39.3298657,158.815436 C39.3298657,158.938862 39.3298657,159.062555 39.3298657,159.185982 C39.4530767,160.174193 39.823242,161.162404 40.4395633,162.150615 C40.9332057,162.891974 41.5497931,163.509639 42.1661144,163.880185 Z" id="Path" fill="url(#linearGradient-33)"></path>
                                <path d="M11.2143327,94.8266923 C11.5842319,95.0738118 11.9541311,95.1972382 12.2008193,95.1972382 C13.8038932,95.4443577 14.6671688,93.9619075 14.0505814,91.7383656 C13.557205,90.0090626 12.4475074,88.4029194 11.2143327,87.7852541 C10.8444335,87.5381346 10.4745343,87.4147082 10.2278461,87.4147082 C8.62477212,87.1675887 7.76149656,88.6500389 8.37808395,90.8735808 C8.87119418,92.4794574 9.98115791,94.0853339 11.2143327,94.8266923 Z" id="Path" fill="url(#linearGradient-34)"></path>
                                <path d="M108.263111,177.344863 C109.249597,177.962528 110.236084,177.962528 110.852671,177.221437 C111.839158,176.109799 111.346048,173.762564 109.989396,171.909568 C109.496019,171.168476 108.879698,170.674237 108.263111,170.303691 C107.276624,169.686026 106.290138,169.686026 105.67355,170.427118 C104.687064,171.539022 105.180174,173.88599 106.536826,175.738987 C107.153147,176.480345 107.646523,176.974317 108.263111,177.344863 Z" id="Path" fill="url(#linearGradient-35)"></path>
                                <path d="M126.513512,128.550367 C127.993375,129.415152 129.34976,128.920913 129.472971,127.315036 C129.71966,125.585733 128.609696,123.115072 126.883411,121.879741 C126.7602,121.756315 126.636723,121.632622 126.513512,121.632622 C125.033649,120.767837 123.677263,121.262076 123.430575,122.867953 C123.183887,124.597256 124.417061,127.067917 126.020135,128.303248 C126.266824,128.426941 126.390301,128.550367 126.513512,128.550367 Z" id="Path" fill="url(#linearGradient-36)"></path>
                            </g>
                            <g id="Group" transform="translate(0.000000, 125.089744)">
                                <path d="M116.158213,138.963513 C121.979327,142.280374 126.809898,139.577737 126.809898,132.944281 L126.933649,80.1221132 C126.933649,73.4886575 122.227097,65.2582736 116.405982,61.9414132 L10.8810122,1.50335 C5.05989786,-1.81351038 0.229327154,0.889126415 0.229327154,7.52258208 L0.105576021,60.34475 C0.105576021,66.9782057 4.81212831,75.2085896 10.6332426,78.52545 L116.158213,138.963513 Z" id="Path" fill="url(#linearGradient-37)"></path>
                                <polygon id="Path" fill="#F7F3FF" points="109.59379 102.970859 33.9182345 59.6075226 33.7942161 75.3313283 109.59379 118.817404"></polygon>
                                <g transform="translate(16.838707, 25.449057)" fill="#F7F3FF">
                                    <g transform="translate(0.267281, 0.000000)" id="Path">
                                        <path d="M7.52316016,4.9220066 C7.52316016,3.3250783 6.40833083,1.35966887 4.92224811,0.49970283 C3.4358981,-0.360263208 2.32133606,0.376964151 2.32133606,1.97389245 C2.32133606,3.57082075 3.43616538,5.53623019 4.92224811,6.39619623 C6.40833083,7.25616226 7.52316016,6.51893491 7.52316016,4.9220066 Z"></path>
                                        <path d="M7.15137219,17.5746943 C9.38076356,18.8031415 10.7430952,16.7147283 9.38076356,13.8893528 L8.14218311,11.186716 C7.39914174,9.46704906 6.16056128,8.23860189 5.04573196,7.50137453 C3.8071515,6.76441226 2.69258946,6.76441226 1.82552968,7.50137453 L0.58694922,8.7298217 C-0.775382372,10.0810075 0.58694922,13.6436104 2.81634059,14.9947962 L7.15137219,17.5746943 Z"></path>
                                    </g>
                                    <path d="M5.18926189,27.2792679 C3.20764007,26.1738245 1.47352052,27.0335255 1.47352052,29.3676811 L1.47352052,31.3330906 C0.730479153,30.9646094 0.234940057,31.3330906 0.234940057,32.1930566 L0.234940057,38.5807698 C0.234940057,39.5634745 0.854230286,40.669183 1.72129006,41.0376642 L8.65723372,45.0914868 C9.40027508,45.5829717 10.1435837,45.2142255 10.1435837,44.2315208 L10.1435837,37.8438075 C10.1435837,36.9838415 9.5242935,36.0011368 8.90500327,35.509917 L8.90500327,33.5445075 C8.78125213,31.3330906 7.17115099,28.5077151 5.18926189,27.2792679 Z M6.6756119,34.2812047 L3.57916075,32.5615377 L3.57916075,30.5961283 C3.57916075,29.6134236 4.32220211,29.2449425 5.06551076,29.7361623 C5.93257054,30.2276472 6.55186076,31.4558292 6.55186076,32.3157953 L6.6756119,34.2812047 Z" id="Shape" fill-rule="nonzero"></path>
                                </g>
                                <polygon id="Path" fill="#F7F3FF" points="109.717808 76.1912943 33.9182345 32.8279575 33.9182345 48.5517632 109.717808 91.9151"></polygon>
                                <g transform="translate(48.645154, 47.186792)" fill="#190C3A" id="Path">
                                    <path d="M42.1226941,28.8814981 C43.4850257,29.6184604 44.599855,29.0042368 44.599855,27.4073085 C44.599855,25.8103802 43.485293,23.8449708 42.1226941,23.1077434 C40.7603625,22.2477774 39.6455332,22.9850047 39.5217821,24.581933 C39.5217821,26.1791264 40.6363441,28.0217972 42.1226941,28.8814981 Z"></path>
                                    <path d="M14.9982097,10.4553208 C14.9982097,8.85839245 13.8836477,6.89298302 12.5210488,6.15575566 C11.1587172,5.29578962 10.0438879,6.03301698 10.0438879,7.62994528 C10.0438879,9.22687358 11.1584499,11.192283 12.5210488,11.9295104 C13.8836477,12.6664726 14.9982097,12.0522491 14.9982097,10.4553208 Z"></path>
                                    <path d="M24.9068534,16.1060717 C24.9068534,14.5091434 23.7922913,12.543734 22.4296925,11.8065066 C21.0673609,10.9465406 19.9525316,11.6837679 19.8287804,13.2806962 C19.8287804,14.8776245 20.9433425,16.843034 22.3059413,17.5802613 C23.6682729,18.3172236 24.782835,17.703 24.9068534,16.1060717 Z"></path>
                                    <path d="M34.6912114,21.7568226 C34.6912114,20.1598943 33.5766493,18.1944849 32.2140504,17.4572575 C30.8517189,16.5972915 29.7368895,17.3345189 29.6131384,18.9314472 C29.6131384,20.5283755 30.7277004,22.4937849 32.0902993,23.2310123 C33.5766493,23.9679745 34.6912114,23.3537509 34.6912114,21.7568226 Z"></path>
                                    <path d="M5.08983333,31.7068736 C5.08983333,30.1099453 3.97527129,28.1445358 2.61267242,27.4073085 C1.25034083,26.6703462 0.1355115,27.2845698 0.1355115,28.8814981 C0.1355115,30.4784264 1.25034083,32.4438358 2.61267242,33.1810632 C3.85125288,33.9180255 5.08983333,33.3038019 5.08983333,31.7068736 Z"></path>
                                    <path d="M14.8744586,37.3576245 C14.8744586,35.7606962 13.7598965,33.7952868 12.3972977,33.0580594 C11.0349661,32.3210972 9.92013675,32.9353208 9.92013675,34.5322491 C9.92013675,36.1291774 11.0349661,38.0945868 12.3972977,38.8318142 C13.7598965,39.5687764 14.8744586,38.9545528 14.8744586,37.3576245 Z"></path>
                                    <path d="M24.782835,43.0083755 C24.782835,41.4114472 23.6680057,39.4460377 22.3056741,38.7088104 C20.9433425,37.8488443 19.8285131,38.5860717 19.704762,40.183 C19.704762,41.7799283 20.8195913,43.7453377 22.1819229,44.4825651 C23.6682729,45.2195274 24.782835,44.6053038 24.782835,43.0083755 Z"></path>
                                    <path d="M34.6912114,48.6591264 C34.6912114,47.0621981 33.5766493,45.0967887 32.2140504,44.3595613 C30.8517189,43.4995953 29.7368895,44.2368226 29.6131384,45.8337509 C29.6131384,47.4306792 30.7277004,49.3960887 32.0902993,50.133316 C33.4528982,50.8702783 34.6912114,50.2560547 34.6912114,48.6591264 Z"></path>
                                    <path d="M41.998943,55.6610632 C43.3612746,56.3980255 44.4761039,55.7838019 44.4761039,54.1868736 C44.4761039,52.5899453 43.3615419,50.6245358 41.998943,49.8873085 C40.6366114,49.0273425 39.5217821,49.7645698 39.3980309,51.3614981 C39.5217821,52.9586915 40.6363441,54.9241009 41.998943,55.6610632 Z"></path>
                                    <path d="M5.08983333,4.80456981 C5.08983333,3.20764151 3.97527129,1.24223208 2.61267242,0.505004717 C1.25034083,-0.231957547 0.1355115,0.382266038 0.1355115,1.97919434 C0.1355115,3.57612264 1.25034083,5.54153208 2.61267242,6.27875943 C3.97527129,7.0157217 5.08983333,6.40149811 5.08983333,4.80456981 Z"></path>
                                </g>
                            </g>
                        </g>
                    </g>
                </g>
            </g>
        </g>
    </g>
</svg>