<?xml version="1.0" encoding="UTF-8"?>
<svg width="296px" height="257px" viewBox="0 0 296 257" version="1.1" xmlns="http://www.w3.org/2000/svg" xmlns:xlink="http://www.w3.org/1999/xlink">
    <!-- Generator: Sketch 55.1 (78136) - https://sketchapp.com -->
    <title>illustration / shield</title>
    <desc>Created with Sketch.</desc>
    <defs>
        <linearGradient x1="65.3416134%" y1="100%" x2="57.5181912%" y2="-49.0145228%" id="linearGradient-1">
            <stop stop-color="#360F59" offset="0%"></stop>
            <stop stop-color="#962BF0" offset="100%"></stop>
        </linearGradient>
        <linearGradient x1="34.9721135%" y1="65.7915214%" x2="60.9448716%" y2="-1.43214135%" id="linearGradient-2">
            <stop stop-color="#360F59" offset="0%"></stop>
            <stop stop-color="#962BF0" offset="100%"></stop>
        </linearGradient>
        <linearGradient x1="3.88414376e-05%" y1="49.9999382%" x2="100.000039%" y2="49.9999382%" id="linearGradient-3">
            <stop stop-color="#C2A8ED" offset="0%"></stop>
            <stop stop-color="#CBB4F1" offset="100%"></stop>
        </linearGradient>
    </defs>
    <g id="💵-Fraudfix" stroke="none" stroke-width="1" fill="none" fill-rule="evenodd">
        <g id="Home" transform="translate(-889.000000, -1629.000000)">
            <g id="what-we-do" transform="translate(-1129.000000, 469.000000)">
                <g id="2" transform="translate(1496.000000, 1160.000000)">
                    <g id="illustration-/-target" transform="translate(522.000000, 0.000000)">
                        <g id="illustration">
                            <path d="M122.303905,244.149109 C173.666388,214.276665 215.166586,141.866952 215,82.4135391 C214.831827,22.9601258 173.060329,-1.02181234 121.697846,28.8500457 C70.3353619,58.7224902 28.8328357,131.136308 29,190.589721 C29.1675946,250.043134 70.941421,274.020967 122.303905,244.149109 Z M54,175.777347 C53.8791527,132.605241 84.0017491,80.0215659 121.281065,58.3303032 C158.557481,36.6402094 188.877844,54.0541242 189,97.2262308 C189.120847,140.39483 158.997671,192.97909 121.721255,214.668599 C84.4413596,236.360446 54.1221564,218.945947 54,175.777347 Z" id="Shape" fill="url(#linearGradient-1)" fill-rule="nonzero"></path>
                            <path d="M122.665563,194.067538 C150.55428,177.954723 173.090251,138.894096 173,106.825799 C172.90861,74.7539268 150.22554,61.8187404 122.336823,77.9309587 C94.4451276,94.0449649 71.9091571,133.106188 72,165.178061 C72.090798,197.246357 94.7738677,210.18214 122.665563,194.067538 Z" id="Path" fill="#FFFFFF"></path>
                            <path d="M122.588014,167.320211 C137.223647,158.767426 149.047543,138.03826 149,121.016115 C148.95217,103.99397 137.051151,97.1263575 122.41493,105.678546 C107.779297,114.231331 95.9524572,134.965264 96,151.987409 C96.0484189,169.009554 107.952381,175.872995 122.588014,167.320211 Z" id="Path" fill="#3CDC7C"></path>
                            <path d="M122.222894,214.668703 C159.776016,192.978535 190.121742,140.395264 190,97.2259321 C189.877523,54.0536773 159.332565,36.6402873 121.780027,58.3304555 C84.2239843,80.0223772 53.8782575,132.605648 54,175.777903 C54.122477,218.946651 84.6668511,236.360041 122.222894,214.668703 Z M73,165.00513 C72.9109565,133.673913 95.0011228,95.5140444 122.340345,79.7712939 C149.676649,64.03029 171.910417,76.6675734 172,107.998791 C172.089043,139.327097 149.998877,177.486383 122.663157,193.227387 C95.3233514,208.970138 73.0889995,196.333437 73,165.00513 Z" id="Shape" fill="#E6ED4A" fill-rule="nonzero"></path>
                            <path d="M159.060765,6.00840407 C158.725703,5.82018505 158.387717,5.63781135 158.048562,5.45777577 C158.012892,5.43907078 157.977807,5.41861219 157.942137,5.3999072 C157.459133,5.14563617 156.969697,4.90305576 156.476752,4.66632067 C156.34226,4.60202225 156.207182,4.53889289 156.072105,4.47576353 C155.672135,4.28871358 155.269242,4.10750894 154.863425,3.93156508 C154.750568,3.88246447 154.638296,3.83219479 154.524855,3.78426324 C154.473396,3.76263559 154.422523,3.73866982 154.37048,3.71704217 C153.919638,3.52823862 153.464117,3.34878758 153.005672,3.17401278 C152.891646,3.13075748 152.775865,3.08925577 152.661254,3.046585 C152.242573,2.89109973 151.820383,2.74087524 151.395854,2.59708059 C151.256683,2.54973357 151.117512,2.50238655 150.977757,2.45620859 C150.468439,2.2890327 149.955613,2.12711758 149.437524,1.97689309 C149.421735,1.97221684 149.405362,1.96812513 149.388989,1.96344888 C149.331684,1.94649748 149.272624,1.9318842 149.214734,1.91551733 C148.73056,1.77756799 148.242878,1.64838662 147.752272,1.52505056 C147.599068,1.4864715 147.445278,1.44906151 147.291489,1.41223605 C146.821349,1.29942155 146.348871,1.19245236 145.872884,1.09308207 C145.78634,1.07496161 145.700967,1.05508755 145.614424,1.03696709 C145.143699,0.94110399 144.670636,0.851086201 144.19348,0.768082785 C144.11103,0.754054039 144.026826,0.742363417 143.943791,0.72833467 C143.790586,0.702615302 143.636212,0.679234058 143.481838,0.654683752 C143.043275,0.585124552 142.602373,0.520826131 142.159132,0.462373021 C141.999495,0.441329902 141.840443,0.41911772 141.680221,0.399828194 C141.103657,0.329099931 140.523584,0.265386042 139.939418,0.213362774 C139.87802,0.208101994 139.815451,0.204594808 139.753468,0.199334028 C139.354083,0.165431224 138.953529,0.132697483 138.550051,0.107562646 C138.424329,0.0993792102 138.296269,0.0958720236 138.170548,0.0888576504 C137.980504,0.0783360907 137.789875,0.0695681243 137.598661,0.0608001578 C137.156005,0.0403415694 136.71101,0.025728292 136.26426,0.0163757945 C136.088835,0.0128686079 135.91458,0.0070232969 135.73857,0.00526970361 C135.129259,0 134.517025,0 133.900113,0.00936142129 C133.835206,0.0105304835 133.769714,0.0140376701 133.704807,0.0157912634 C133.260981,0.025728292 132.815986,0.038003445 132.368067,0.0578775023 C132.260473,0.0625537511 132.151709,0.0713217175 132.0447,0.0771670285 C131.820155,0.0882731194 131.593857,0.102886397 131.368143,0.116915143 C130.943029,0.142634511 130.515577,0.173030128 130.086954,0.207517463 C129.850715,0.226806989 129.614476,0.246681047 129.377652,0.268893228 C128.933826,0.309810405 128.487661,0.357741955 128.040327,0.40859616 C127.827478,0.432561935 127.615798,0.454774117 127.402364,0.481078016 C126.792469,0.556482528 126.179066,0.640070475 125.562738,0.73359545 C125.515374,0.740609823 125.468594,0.746455134 125.420644,0.753469507 C125.414796,0.754054039 125.408949,0.755223101 125.403101,0.755807632 C124.712511,0.862192291 124.017827,0.980852104 123.319635,1.10944895 C123.105031,1.14919706 122.888674,1.19595955 122.673485,1.23804579 C122.18171,1.33332436 121.68935,1.42918746 121.194066,1.53615665 C120.919818,1.59519429 120.643816,1.66183083 120.368983,1.72437566 C119.929835,1.82433048 119.490687,1.92370076 119.048616,2.03183902 C118.747469,2.10607447 118.444568,2.18673976 118.142252,2.26506692 C117.823563,2.34748581 117.506044,2.42405938 117.185015,2.51115452 C117.052862,2.54681091 116.920123,2.5859745 116.78797,2.62279995 C116.654647,2.65962541 116.521323,2.69761994 116.387416,2.73502993 C115.724893,2.92207988 115.060032,3.11672873 114.391661,3.32365274 C114.326754,3.3435268 114.261262,3.36515445 114.196355,3.38561304 C113.556638,3.58493814 112.914581,3.7947848 112.269601,4.01223037 C112.162007,4.0484713 112.054413,4.08354317 111.946819,4.12036862 C111.281373,4.34775122 110.613003,4.58623991 109.942294,4.83291203 C109.805462,4.88318171 109.668046,4.93462044 109.531214,4.98547465 C108.851149,5.23916114 108.169914,5.50044654 107.485171,5.7740071 C107.412077,5.80323365 107.338399,5.8342138 107.265305,5.86344036 C106.906853,6.00781954 106.547816,6.15219872 106.18761,6.30183868 C105.925641,6.41056146 105.662503,6.52571409 105.39995,6.63735953 C105.230957,6.70925685 105.062549,6.77998512 104.893556,6.8530515 C104.203551,7.15174689 103.511206,7.45862572 102.816522,7.77719517 C102.693724,7.83331015 102.570342,7.89234779 102.447544,7.94904731 C101.851683,8.22494599 101.254068,8.50844357 100.655283,8.79954005 C100.474011,8.88721972 100.292738,8.97489938 100.111465,9.06433264 C99.4080102,9.41037505 98.7033857,9.76401636 97.9958373,10.1299328 C97.9163113,10.17085 97.8367852,10.2146898 97.7572591,10.255607 C97.1169571,10.5887897 96.4749008,10.932494 95.8310904,11.2826282 C95.6433854,11.3849211 95.4556804,11.487214 95.2673907,11.590676 C94.5493169,11.9864036 93.8300735,12.388561 93.1079065,12.8053317 C92.3565018,13.2390537 91.608021,13.6832974 90.8612944,14.1345554 C90.6186228,14.2812727 90.3777056,14.4320817 90.1356188,14.5805526 C89.6292247,14.8909386 89.1234154,15.2036628 88.6193603,15.5222322 C88.3380952,15.6993451 88.0585844,15.8799652 87.7784888,16.0594163 C87.3095188,16.3604498 86.8411335,16.6649905 86.373333,16.9724538 C86.0879746,17.1606729 85.803201,17.3494764 85.5190122,17.5400335 C85.0465337,17.8562649 84.5758094,18.1771724 84.1056698,18.5004181 C83.8372693,18.6845454 83.5688687,18.8680882 83.3010529,19.0545536 C82.7689298,19.4257309 82.2385609,19.803338 81.7087768,20.1826986 C81.5099616,20.3253242 81.3105616,20.4644426 81.1123311,20.6082373 C80.3872403,21.1337307 79.6650732,21.6668231 78.9452451,22.2080989 C78.7949642,22.3209134 78.6458528,22.4372351 78.4961566,22.5512186 C77.9266095,22.9831871 77.3582318,23.4180783 76.7916084,23.8599838 C76.5389961,24.0569707 76.2875533,24.2574649 76.0355258,24.45679 C75.570649,24.8244601 75.1057722,25.1932992 74.6432344,25.5673991 C74.3713254,25.7871828 74.0994163,26.0093046 73.8286767,26.2314264 C73.3813425,26.5973429 72.9357625,26.9667665 72.4907672,27.3385283 C72.2223666,27.5629883 71.9539661,27.7874482 71.686735,28.0142463 C71.2236125,28.4064666 70.762829,28.8033632 70.3026302,29.2020135 C70.0628824,29.409522 69.8219651,29.6158615 69.5833868,29.8251236 C69.0044837,30.3319121 68.4285043,30.8451304 67.8542791,31.3618559 C67.7390832,31.4653179 67.6233026,31.5664417 67.5086915,31.6704883 C66.8216094,32.2924294 66.1380359,32.9219694 65.4573861,33.5573547 C65.2585709,33.7432355 65.0615099,33.9320391 64.8632794,34.119089 C64.3802754,34.5744388 63.8984408,35.0309576 63.4189452,35.4933217 C63.1704262,35.7329794 62.9230767,35.9749753 62.6751424,36.2163866 C62.4172673,36.467735 62.1570533,36.7161607 61.9003477,36.9698472 C61.7746263,37.0937678 61.651244,37.2217801 61.5261073,37.3462852 C60.9624077,37.905097 60.4016318,38.4703385 59.8426101,39.0379182 C59.5987691,39.2863439 59.3525891,39.531847 59.1093328,39.7820263 C58.3158261,40.5974472 57.5264127,41.420467 56.7440163,42.2534238 C56.6715072,42.3305819 56.6007524,42.4094936 56.5282433,42.4866517 C55.8171865,43.2465421 55.1108077,44.0140314 54.4085221,44.7879506 C54.1564946,45.0656029 53.906806,45.3473469 53.655948,45.6273373 C53.1308419,46.2130374 52.60749,46.8016602 52.0876467,47.3955438 C51.9572473,47.5440147 51.8250936,47.6889785 51.695279,47.8380339 C51.507574,48.0537259 51.3227928,48.2740941 51.1356726,48.4903706 C50.8245852,48.8510263 50.5134979,49.212851 50.2041648,49.5764294 C49.8562381,49.9850166 49.5100657,50.3965265 49.1644781,50.8086209 C48.8586535,51.1733683 48.5534136,51.5387003 48.249928,51.9063703 C47.9060946,52.3225565 47.5646002,52.7410807 47.2231058,53.1601895 C46.922544,53.5296132 46.6219821,53.8990368 46.3237593,54.2713831 C45.9828496,54.6957527 45.6448638,55.1230449 45.3068779,55.5509217 C45.0127483,55.923268 44.7180339,56.2956143 44.4262433,56.6708833 C44.3233272,56.8029873 44.2186569,56.9327532 44.1157407,57.0654418 C44.0099009,57.2016375 43.9081543,57.3425095 43.8023144,57.4792898 C42.857942,58.7027134 41.9217562,59.9354895 41.0007739,61.1834634 C40.9849856,61.205091 40.9680279,61.2267187 40.9522396,61.2483463 C40.0219013,62.5097644 39.1073512,63.7863803 38.2015724,65.0705951 C38.1015801,65.2120517 37.9980792,65.350001 37.8980868,65.4920421 C37.824993,65.5966731 37.7548229,65.7030578 37.6817291,65.8076889 C36.8730189,66.9638914 36.0736647,68.1282773 35.2854208,69.3020158 C35.1433264,69.513616 35.0041557,69.7269699 34.8626461,69.9385701 C34.1673775,70.9813736 33.4808802,72.0311914 32.8019847,73.0868546 C32.6996533,73.2458471 32.5932287,73.4019169 32.4914821,73.5614939 C32.4359308,73.648589 32.3827185,73.7374377 32.3271672,73.8245329 C31.5991526,74.9667066 30.8810787,76.1153102 30.1729457,77.2709282 C30.0261732,77.5100014 29.8829093,77.7508282 29.7373064,77.990486 C29.144954,78.9648993 28.5602033,79.9445734 27.9830544,80.9277547 C27.878384,81.1054522 27.7696204,81.2808115 27.6655348,81.4590935 C27.599458,81.571908 27.5368896,81.6864761 27.4713976,81.7992906 C26.8036123,82.9478942 26.1440135,84.1017586 25.4961098,85.2614683 C25.4025497,85.4286442 25.3119133,85.5975737 25.218938,85.7653341 C24.6564078,86.7800801 24.1020642,87.7983333 23.5547375,88.8206781 C23.4646859,88.9890231 23.3705411,89.1550299 23.2804895,89.3239594 C23.1962854,89.4823673 23.1161745,89.6425289 23.0325552,89.8015213 C22.474703,90.8565999 21.9238679,91.9140167 21.3835583,92.9766942 C21.3204052,93.1011994 21.2549131,93.2245354 21.1917601,93.3490405 C20.5964839,94.5245326 20.0140722,95.7052854 19.4404318,96.8895454 C19.3796177,97.0152196 19.3158799,97.1391402 19.2550658,97.2648144 C19.1626752,97.4553715 19.0761321,97.6482668 18.984911,97.8394084 C18.5241275,98.8015466 18.0709457,99.7660229 17.624781,100.732837 C17.4973053,101.008736 17.3680754,101.28405 17.2417693,101.560533 C16.6967816,102.754146 16.1629043,103.950681 15.6413067,105.150723 C15.6091454,105.22379 15.5752298,105.296272 15.5436533,105.369338 C15.2226252,106.109354 14.9068598,106.85054 14.594603,107.592894 C14.5326194,107.739612 14.4729748,107.886913 14.411576,108.033631 C14.1104294,108.753773 13.8133761,109.475084 13.5210007,110.19698 C13.4180846,110.451251 13.3157532,110.704938 13.2140066,110.959209 C12.9304025,111.667076 12.6508917,112.374943 12.3754742,113.084564 C12.3111516,113.249986 12.2456595,113.414824 12.1819217,113.579662 C12.1602859,113.635777 12.1380654,113.691307 12.1164296,113.746838 C11.8041727,114.559336 11.4983481,115.373003 11.1966168,116.187255 C11.1147517,116.408208 11.0352256,116.629161 10.95453,116.850113 C10.7112737,117.514141 10.471526,118.178168 10.2352867,118.84278 C10.1358791,119.122186 10.0370562,119.402176 9.93940285,119.681582 C9.70374832,120.354377 9.47277181,121.027757 9.24471904,121.701137 C9.17279471,121.913906 9.09911613,122.126676 9.0283613,122.33886 C9.00380177,122.412511 8.97807274,122.485578 8.95351321,122.559229 C8.67984989,123.380495 8.41261884,124.201761 8.15065053,125.023612 C8.09977723,125.183773 8.05124292,125.343935 8.00036961,125.504096 C7.76822359,126.239436 7.53958608,126.974776 7.31679607,127.710117 C7.22499022,128.012904 7.13610811,128.315106 7.04605651,128.617893 C6.8659533,129.221714 6.68877385,129.826119 6.5151029,130.430524 C6.42271229,130.753185 6.33090644,131.076431 6.23968533,131.399092 C6.17594751,131.624721 6.10987068,131.85035 6.04730236,132.075979 C5.95608125,132.40507 5.87070766,132.733577 5.7812408,133.062668 C5.67130768,133.467163 5.56137455,133.871659 5.45436518,134.27557 C5.31051651,134.819184 5.1719306,135.362213 5.03392944,135.905243 C4.93393708,136.298632 4.83219046,136.692021 4.73512185,137.085411 C4.59419693,137.654744 4.45911953,138.223493 4.32462687,138.792242 C4.23808377,139.157574 4.14861692,139.52349 4.06441282,139.888822 C3.9164709,140.530053 3.77613074,141.170699 3.63579058,141.811345 C3.57205276,142.10361 3.50480643,142.39646 3.44223811,142.688141 C3.43463635,142.722044 3.42703459,142.755947 3.41943283,142.790434 C3.36855952,143.028923 3.32411847,143.266827 3.27441466,143.505316 C3.11594723,144.266375 2.95923405,145.027435 2.81187688,145.78791 C2.73761354,146.170778 2.66919772,146.552476 2.59785813,146.93476 C2.47681474,147.58242 2.35694086,148.229496 2.24408398,148.875988 C2.17157489,149.291589 2.10374381,149.706606 2.03415848,150.121623 C1.93182712,150.735381 1.83183475,151.348554 1.73710514,151.961143 C1.67102831,152.38785 1.60787524,152.814558 1.54589167,153.240681 C1.45759432,153.843333 1.37280547,154.445984 1.29210988,155.047467 C1.26111809,155.277772 1.22486355,155.508662 1.19504127,155.738383 C1.16054098,156.00376 1.13130344,156.267968 1.09797265,156.533345 C1.05937911,156.843731 1.02078557,157.154117 0.984531023,157.463918 C0.910852438,158.088198 0.841851859,158.711892 0.776359783,159.334418 C0.748876502,159.592196 0.719638968,159.850559 0.693909938,160.108337 C0.606782088,160.979873 0.526086495,161.85024 0.455331663,162.718268 C0.445975653,162.832252 0.439543395,162.945651 0.430187384,163.059635 C0.370542816,163.814849 0.316745754,164.568309 0.269380949,165.320016 C0.251253678,165.605268 0.236634911,165.889934 0.220261892,166.174601 C0.186931104,166.764977 0.156524069,167.354185 0.130795039,167.942223 C0.117345774,168.248517 0.10506601,168.554227 0.0933709961,168.859937 C0.0711504705,169.457912 0.0541927009,170.054134 0.0401586848,170.649186 C0.0337264273,170.918655 0.0255399179,171.188124 0.0208619125,171.457008 C0.00624314566,172.311008 -0.00194336378,173.163255 0,174.011994 C0.0840149853,203.449564 10.4802972,224.161255 27.247438,233.901296 L56.6808632,251 C39.9137224,241.259958 29.5174402,220.548268 29.4338208,191.110697 C29.4314818,190.261958 29.4396683,189.409712 29.4542871,188.555712 C29.4589651,188.286828 29.4671516,188.016774 29.4735839,187.74789 C29.4876179,187.152837 29.5045756,186.556616 29.5267962,185.95864 C29.5384912,185.652931 29.550771,185.347221 29.5642202,185.040927 C29.5899492,184.452888 29.6203563,183.863096 29.6536871,183.273304 C29.6694753,182.988638 29.6846789,182.703971 29.7028061,182.41872 C29.7501709,181.667013 29.803968,180.913552 29.8636126,180.158923 C29.8729686,180.044939 29.8794008,179.930956 29.8893416,179.816972 C29.9600964,178.948359 30.040792,178.077992 30.1279199,177.205872 C30.1536489,176.950432 30.1823017,176.693822 30.209785,176.437798 C30.275277,175.813519 30.3442776,175.188655 30.4179562,174.562622 C30.4542107,174.252821 30.4928043,173.943019 30.5313978,173.633218 C30.5933814,173.137535 30.6588735,172.641268 30.7255351,172.145001 C30.8062306,171.544103 30.8904347,170.942621 30.9787321,170.339969 C31.0413004,169.913262 31.1044535,169.486554 31.1705303,169.059846 C31.2652599,168.448427 31.3652523,167.836423 31.4669989,167.223834 C31.5365842,166.807063 31.6044153,166.390293 31.6775092,165.973522 C31.790366,165.3282 31.9096552,164.681708 32.0306986,164.035217 C32.1020381,163.652349 32.1710387,163.270066 32.2453021,162.886613 C32.3920745,162.129061 32.5482029,161.370924 32.7060856,160.612787 C32.7633912,160.336889 32.8166035,160.061575 32.8756633,159.785676 C32.9370621,159.498671 33.0031389,159.211082 33.066292,158.923493 C33.2072169,158.27817 33.3493113,157.632263 33.497838,156.985772 C33.5814573,156.623947 33.6697547,156.260953 33.755713,155.899129 C33.8913752,155.326873 34.0270374,154.755201 34.168547,154.182361 C34.2650309,153.791894 34.3661928,153.400843 34.4656004,153.009791 C34.604771,152.464424 34.7439417,151.918472 34.8883751,151.373104 C34.9947997,150.969778 35.1047329,150.566451 35.2140812,150.163125 C35.3649469,149.608405 35.5169821,149.0531 35.6731105,148.49838 C35.7637469,148.175135 35.8561375,147.852474 35.9485281,147.529228 C36.122199,146.925992 36.2987937,146.322171 36.4783122,145.718935 C36.5683638,145.415563 36.6578306,145.112776 36.7496365,144.809405 C36.973596,144.071142 37.2028183,143.332879 37.4361338,142.594616 C37.4858376,142.437962 37.5332024,142.281308 37.5829062,142.124653 C37.8688493,141.228567 38.1618094,140.332481 38.4617865,139.436395 C38.5319566,139.226548 38.6044656,139.016702 38.6758052,138.80627 C38.9044427,138.129968 39.1371735,137.453081 39.3734128,136.777363 C39.4704814,136.499126 39.5687195,136.221474 39.6669576,135.943822 C39.9031969,135.278041 40.1435294,134.61226 40.3873704,133.947063 C40.4686508,133.726695 40.5475921,133.505742 40.6294572,133.285374 C40.9510701,132.415592 41.2791152,131.546979 41.6135926,130.679535 C41.6784999,130.51119 41.7451615,130.343429 41.8106536,130.175084 C42.0849017,129.469555 42.3626582,128.764611 42.6450928,128.060251 C42.7474242,127.804811 42.8503403,127.54937 42.9538412,127.29393 C43.2462165,126.572619 43.5426851,125.851308 43.8438317,125.13175 C43.9052305,124.985033 43.9654598,124.837731 44.0268586,124.691598 C44.3701073,123.875593 44.7203729,123.061341 45.0741471,122.247673 C45.5957447,121.0488 46.1290373,119.85285 46.6734402,118.659822 C46.8003311,118.382169 46.9301457,118.105102 47.0582061,117.827449 C47.5037861,116.862388 47.9563832,115.899666 48.4159972,114.939281 C48.5680324,114.621881 48.718898,114.30448 48.8726875,113.987665 C49.4463279,112.803989 50.0281548,111.623236 50.623431,110.447744 C50.6865841,110.323239 50.7514914,110.199903 50.8152292,110.075398 C51.3561236,109.01272 51.9069587,107.954135 52.4653956,106.899056 C52.6378971,106.572303 52.8121528,106.246135 52.9864085,105.919966 C53.5331503,104.897621 54.087494,103.879368 54.6506089,102.864622 C54.7435842,102.696862 54.8348053,102.527932 54.9283655,102.360172 C55.5756845,101.200462 56.2352832,100.047182 56.9030685,98.8985788 C57.0726462,98.6068978 57.2445629,98.3163858 57.4153101,98.0252893 C57.9930437,97.0415235 58.5777944,96.0624339 59.1701468,95.087436 C59.315165,94.8489473 59.4578442,94.6087051 59.6040318,94.3702164 C60.3121649,93.2145984 61.0308235,92.0659948 61.7582533,90.923821 C61.916136,90.6759798 62.0769424,90.4298922 62.2354099,90.1826356 C62.9131359,89.128726 63.5984637,88.0812463 64.2925627,87.0401964 C64.4346572,86.8268426 64.5749973,86.6123197 64.7182612,86.3995503 C65.5059204,85.2263964 66.3052746,84.062595 67.1134,82.9063925 C67.2859014,82.6591358 67.4601572,82.4142173 67.6338281,82.1675452 C68.5390221,80.8839149 69.4529874,79.6078835 70.382741,78.3470499 C70.3996988,78.3236687 70.4172413,78.300872 70.4341991,78.2780753 C71.3540119,77.031855 72.289613,75.800248 73.2328158,74.5779934 C73.440987,74.3079401 73.647404,74.0373022 73.8567448,73.7684179 C74.1485354,73.3937334 74.4426649,73.0219717 74.7367945,72.6496253 C75.0753652,72.2211641 75.4139358,71.7932873 75.7548455,71.3677487 C76.0524836,70.9971559 76.3518759,70.6289013 76.6512682,70.2612313 C76.9933474,69.8403689 77.3360113,69.4206756 77.6810142,69.0033204 C77.983915,68.6368194 78.2885701,68.272072 78.59381,67.9079091 C78.9393976,67.4952301 79.2861548,67.0837202 79.6340814,66.6745485 C79.9428298,66.3115547 80.2533324,65.950899 80.563835,65.5908278 C80.8807699,65.2231578 81.199459,64.8578258 81.5187329,64.4930784 C82.0374067,63.9009484 82.5595891,63.3134947 83.0835257,62.7289636 C83.3355532,62.4478041 83.5864112,62.1654756 83.8396083,61.8860697 C84.5413091,61.1127351 85.2471032,60.3458303 85.9575752,59.5865244 C86.0300843,59.5093663 86.1014239,59.4298701 86.173933,59.3532965 C86.9569141,58.5197551 87.7463275,57.6961508 88.5398342,56.88073 C88.781921,56.6317197 89.0269315,56.3862166 89.2707725,56.13896 C89.8297942,55.5702112 90.3911548,55.0049697 90.9554392,54.4455734 C91.3366967,54.0673818 91.7191236,53.6915283 92.1027201,53.3180129 C92.3512391,53.076017 92.5997581,52.8328521 92.8494467,52.5926098 C93.3283575,52.1314148 93.8096073,51.674896 94.2920266,51.2207153 C94.4908418,51.0336654 94.6879028,50.8442773 94.8873028,50.6583964 C95.5679526,50.0224266 96.2521108,49.3928866 96.9397776,48.7709455 C97.0526345,48.6686526 97.1666609,48.5692823 97.2795178,48.4681584 C97.8560819,47.9496793 98.4338156,47.435292 99.0138883,46.9267499 C99.2524665,46.7174878 99.4927991,46.5117328 99.7325469,46.3042243 C100.19333,45.9055741 100.654114,45.5086775 101.117236,45.1158726 C101.385052,44.8890745 101.653453,44.66403 101.922438,44.4389856 C102.366264,44.0678083 102.811844,43.6989692 103.258009,43.3336373 C103.529333,43.1109309 103.801242,42.8888091 104.074321,42.6684409 C104.536858,42.294341 105.001735,41.9249173 105.467197,41.5572472 C105.719224,41.3585067 105.970082,41.1580125 106.222695,40.9610255 C106.788733,40.51912 107.357696,40.0842289 107.927243,39.6522604 C108.076939,39.5388614 108.225466,39.4225397 108.375747,39.3091407 C109.095575,38.7678649 109.818326,38.234188 110.543417,37.7086945 C110.740478,37.5660689 110.938124,37.427535 111.135185,37.2860785 C111.666139,36.9049642 112.198262,36.5267726 112.731554,36.1544263 C112.998201,35.9685454 113.266601,35.7855872 113.533832,35.6020444 C114.004557,35.2787987 114.475866,34.9573066 114.948344,34.6410753 C115.233118,34.4505182 115.517891,34.2617146 115.80325,34.0734956 C116.270465,33.7654477 116.738266,33.4620761 117.207236,33.1610426 C117.487916,32.981007 117.768012,32.8009714 118.048692,32.623274 C118.552747,32.3047045 119.058557,31.9919804 119.564951,31.6815944 C119.807037,31.5331235 120.047955,31.3823144 120.290626,31.2355971 C121.037353,30.7843391 121.786419,30.3400955 122.537238,29.9063734 C123.258821,29.4901873 123.977479,29.0880299 124.695553,28.6923023 C124.884428,28.5882558 125.072717,28.4853783 125.261592,28.3825009 C125.904233,28.0329513 126.546289,27.6898315 127.186006,27.3566488 C127.265532,27.3151471 127.345643,27.2718918 127.425169,27.2303901 C128.132718,26.8638891 128.837927,26.5102478 129.541382,26.1642053 C129.722655,26.0753566 129.902758,25.9882615 130.083446,25.9005818 C130.682815,25.6094853 131.28043,25.3259878 131.876876,25.0495045 C131.999674,24.992805 132.123056,24.9337674 132.245854,24.8776524 C132.941122,24.559083 133.633467,24.2516196 134.323473,23.9535087 C134.491881,23.8804424 134.660289,23.8097141 134.828698,23.7384013 C135.452627,23.4724396 136.074801,23.2129078 136.694637,22.9638976 C136.767731,22.934671 136.841409,22.9036909 136.914503,22.8744643 C137.599246,22.6009038 138.280481,22.3396184 138.959961,22.0859319 C139.097377,22.0344931 139.234794,21.9836389 139.371626,21.9333693 C140.042335,21.6866971 140.710705,21.4482085 141.376736,21.2208259 C141.48433,21.1840004 141.591339,21.1489285 141.698933,21.1126876 C142.343913,20.895242 142.985969,20.6853954 143.626271,20.4860703 C143.691179,20.4656117 143.756671,20.443984 143.821578,20.42411 C144.489948,20.217186 145.15481,20.0231216 145.817332,19.8360717 C145.950655,19.7980772 146.084563,19.7606672 146.217886,19.7238417 C146.671068,19.5987521 147.120741,19.4830149 147.570999,19.3666932 C147.8739,19.2883661 148.177386,19.2071162 148.479117,19.1334653 C148.919435,19.0253271 149.356243,18.9265413 149.794222,18.827171 C150.071393,18.7640417 150.34915,18.6968206 150.624568,18.6377829 C151.121021,18.5308138 151.613381,18.4349507 152.106326,18.3390876 C152.31976,18.2975858 152.534948,18.2508234 152.747797,18.2116598 C153.451837,18.0813093 154.152953,17.962065 154.849391,17.8550958 C154.896756,17.8474969 154.943536,17.8422361 154.990901,17.8352217 C155.607228,17.7416968 156.220047,17.6581088 156.830526,17.5827043 C157.044545,17.5564004 157.25681,17.5341882 157.469659,17.5102225 C157.916408,17.4593683 158.361404,17.4120212 158.80406,17.3705195 C159.042053,17.3483073 159.279462,17.3284333 159.516871,17.3091438 C159.944324,17.2740719 160.370022,17.2442608 160.794551,17.2185414 C161.02085,17.2045127 161.247148,17.1898994 161.472862,17.1787933 C162.02896,17.1507358 162.582134,17.1296927 163.132384,17.1174176 C163.197292,17.115664 163.262784,17.1121568 163.327106,17.1109877 C163.944603,17.0992971 164.556837,17.0992971 165.166147,17.106896 C165.342157,17.1092341 165.516413,17.1144949 165.691253,17.1180021 C166.138003,17.1279391 166.583583,17.1425524 167.026239,17.1624265 C167.216868,17.1711944 167.408081,17.1799624 167.598125,17.1904839 C168.129079,17.220295 168.657109,17.2559514 169.18163,17.3009603 C169.243029,17.3062211 169.305013,17.3097283 169.366996,17.3149891 C169.951747,17.3670123 170.531235,17.4307262 171.107799,17.5014545 C171.267436,17.520744 171.426488,17.5429562 171.586125,17.5639993 C172.030535,17.6224524 172.472022,17.6867508 172.91117,17.7563101 C173.064375,17.7808604 173.217579,17.8036571 173.370199,17.8293764 C173.93156,17.9234859 174.489412,18.0251944 175.042001,18.1380089 C175.128545,18.1555448 175.213918,18.1760034 175.300461,18.1941238 C175.777033,18.2940787 176.250096,18.4004633 176.720821,18.5138624 C176.874025,18.5506878 177.026645,18.5880978 177.179265,18.6260923 C177.670456,18.7494284 178.159307,18.8786098 178.643481,19.0165591 C178.701371,19.032926 178.759846,19.0475392 178.817152,19.0644906 C179.351614,19.2188069 179.880228,19.3848137 180.405335,19.5572504 C180.54509,19.6034283 180.684261,19.6507753 180.823431,19.6981224 C181.24913,19.8425015 181.671905,19.9921415 182.091756,20.1482113 C182.205197,20.1902975 182.319808,20.2312147 182.43325,20.2738855 C182.944322,20.4685343 183.450716,20.6719512 183.952432,20.8841359 C184.065874,20.9320675 184.178146,20.9829217 184.291003,21.0314378 C184.697405,21.2073816 185.100883,21.3885863 185.501437,21.5762208 C185.635345,21.6387656 185.769837,21.7013104 185.90316,21.7656088 C186.39669,22.0023439 186.887296,22.2460934 187.370885,22.5003644 C187.4048,22.5184849 187.438131,22.5377744 187.472046,22.5553104 C187.986627,22.8277018 188.49653,23.1088613 189,23.4011269 L159.566575,6.30242321 C159.40226,6.20246839 159.232097,6.1048517 159.060765,6.00840407 Z" id="Path" fill="url(#linearGradient-2)"></path>
                            <g id="Group" opacity="0.1" transform="translate(188.000000, 20.000000)" fill="#FFFFFF">
                                <polygon id="Path" points="0.6095 0.5145 0.6075 0.513 0.6095 0.5145 0.61 0.514 0.6075 0.513"></polygon>
                            </g>
                            <path d="M120.152491,134 L68,255.698877 C71.1873787,256.434836 74.5186881,256.870125 77.9748171,257 L128,138.530209 L120.152491,134 Z" id="Path" fill="#3F1777" opacity="0.2"></path>
                            <g id="Group" transform="translate(119.000000, 130.000000)">
                                <g transform="translate(121.200732, 77.880000)" id="Path">
                                    <polygon fill="#38A564" points="34.3021837 20.36385 34.2469304 39.77131 36.0411765 38.73586 36.0964298 19.3284"></polygon>
                                    <polygon fill="#FA94AF" points="2.38480264 0 0.590556509 1.03545 34.3021837 20.36385 36.0964298 19.3284"></polygon>
                                    <polygon fill="#3CDC7C" points="34.3021837 20.36385 0.590556509 1.03545 0.579268205 4.98609 21.0889274 32.22757 34.2469304 39.77131"></polygon>
                                </g>
                                <g transform="translate(125.953702, 69.620000)" id="Path">
                                    <polygon fill="#38A564" points="50.6886415 11.83304 33.79421 21.58279 33.7882688 23.64366 50.6821062 13.89391"></polygon>
                                    <polygon fill="#F64D79" points="0.0819887306 2.25439 0.0766416395 4.31526 33.7882688 23.64366 33.79421 21.58279"></polygon>
                                    <polygon fill="#AAF2BE" points="37.5276679 4.28753 3.5195742 0.27081 0.0819887306 2.25439 33.79421 21.58279 50.6886415 11.83304"></polygon>
                                </g>
                                <g id="Path">
                                    <polygon fill="url(#linearGradient-3)" points="153.457951 92.25063 0.517479597 3.94946 0.53827384 11.10557 153.478151 99.40733"></polygon>
                                    <polygon fill="#F4EDFF" points="159.7289 88.65517 6.78902336 0.35341 0.517479597 3.94946 153.457951 92.25063"></polygon>
                                    <polygon fill="#B5ACE8" points="159.7289 88.65517 153.457951 92.25063 153.478151 99.40733 159.749694 95.81128"></polygon>
                                </g>
                                <g transform="translate(121.200732, 62.540000)" id="Path">
                                    <polygon fill="#95EBB1" points="2.33667882 4.18133 0.542432689 5.21678 21.1376453 1.54285 22.9318915 0.5074"></polygon>
                                    <polygon fill="#38A564" points="34.2980248 9.08836 34.2427716 28.49287 36.0370177 27.45742 36.092271 8.05291"></polygon>
                                    <polygon fill="#AAF2BE" points="22.9318915 0.5074 21.1376453 1.54285 34.2980248 9.08836 36.092271 8.05291"></polygon>
                                    <polygon fill="#3CDC7C" points="21.1376453 1.54285 0.542432689 5.21678 0.531144385 9.16447 34.2427716 28.49287 34.2980248 9.08836"></polygon>
                                </g>
                                <g transform="translate(115.853641, 74.930000)" id="Path">
                                    <polygon fill="#39C973" points="0.455690988 2.52461 0.449155654 4.58548 7.54296321 24.13513 7.54890443 22.07426"></polygon>
                                    <polygon fill="#3CDC7C" points="7.54890443 22.07426 7.54296321 24.13513 20.7039368 31.68064 20.709878 29.61977"></polygon>
                                    <polygon fill="#38A564" points="20.709878 29.61977 20.7039368 31.68064 37.5983683 21.93089 37.6043095 19.87002"></polygon>
                                    <polygon fill="#AAF2BE" points="37.6043095 19.87002 3.89208822 0.54162 0.455690988 2.52461 7.54890443 22.07426 20.709878 29.61977"></polygon>
                                </g>
                            </g>
                        </g>
                    </g>
                </g>
            </g>
        </g>
    </g>
</svg>