<?xml version="1.0" encoding="UTF-8"?>
<svg width="181px" height="52px" viewBox="0 0 181 52" version="1.1" xmlns="http://www.w3.org/2000/svg" xmlns:xlink="http://www.w3.org/1999/xlink">
    <!-- Generator: Sketch 55.1 (78136) - https://sketchapp.com -->
    <title>logo / landing</title>
    <desc>Created with Sketch.</desc>
    <defs>
        <polygon id="path-1" points="0.00304472272 0.0197495528 17.3825045 0.0197495528 17.3825045 20.328551 0.00304472272 20.328551"></polygon>
        <polygon id="path-3" points="0.0226368515 0.0140250447 4.79701968 0.0140250447 4.79701968 4.78840072 0.0226368515 4.78840072"></polygon>
    </defs>
    <g id="💵-Fraudfix" stroke="none" stroke-width="1" fill="none" fill-rule="evenodd">
        <g id="How-it-works" transform="translate(-260.000000, -43.000000)">
            <g id="top">
                <g id="header" transform="translate(260.000000, 34.000000)">
                    <g id="logo-/-landing" transform="translate(0.000000, 9.000000)">
                        <g id="logo">
                            <g>
                                <path d="M2.93098748,29.860737 L2.93098748,29.860737 C1.31223971,29.860737 3.57781756e-06,28.5485009 3.57781756e-06,26.9297531 C3.57781756e-06,25.3110411 1.31223971,23.9987692 2.93098748,23.9987692 C4.54973524,23.9987692 5.86197138,25.3110411 5.86197138,26.9297531 C5.86197138,28.5485009 4.54973524,29.860737 2.93098748,29.860737" id="Fill-1" fill="#9714F4"></path>
                                <path d="M23.2036565,9.58808587 C23.2036565,7.9693381 21.8914204,6.65710197 20.2726726,6.65710197 L2.93099106,6.65710197 C1.31224329,6.65710197 7.15563506e-06,7.9693381 7.15563506e-06,9.58808587 C7.15563506e-06,11.2068336 1.31224329,12.5190698 2.93099106,12.5190698 L20.2726726,12.5190698 C20.274712,12.5190698 20.2766798,12.5187478 20.2787191,12.5187478 C20.2807585,12.5187478 20.2827263,12.5190698 20.2847657,12.5190698 C21.8968229,12.5190698 23.2036565,11.2122361 23.2036565,9.60017889 C23.2036565,9.59813953 23.2033345,9.59617174 23.2033345,9.59413238 C23.2033345,9.59209302 23.2036565,9.59012522 23.2036565,9.58808587" id="Fill-3" fill="#9714F4"></path>
                                <path d="M11.6018318,15.3279141 L2.93099106,15.3279141 C1.31224329,15.3279141 7.15563509e-06,16.640186 7.15563509e-06,18.2589338 C7.15563509e-06,19.8776458 1.31224329,21.1899177 2.93099106,21.1899177 L11.6018318,21.1899177 C13.2205796,21.1899177 14.5328157,19.8776458 14.5328157,18.2589338 C14.5328157,16.640186 13.2205796,15.3279141 11.6018318,15.3279141" id="Fill-5" fill="#9714F4"></path>
                                <path d="M46.1659964,8.16080143 L34.6737603,8.16080143 C33.6076422,8.16080143 32.7724007,8.99604293 32.7724007,10.0622683 L32.7724007,26.455542 C32.7724007,27.5059535 33.6076422,28.3288515 34.6737603,28.3288515 C35.7241717,28.3288515 36.5469267,27.5059535 36.5469267,26.455542 L36.5469267,20.1604079 L44.8983757,20.1604079 C45.853653,20.1604079 46.630898,19.3831628 46.630898,18.4278855 C46.630898,17.4727156 45.853653,16.6957209 44.8983757,16.6957209 L36.5469267,16.6957209 L36.5469267,11.6258104 L46.1659964,11.6258104 C47.1211664,11.6258104 47.8982683,10.8486011 47.8982683,9.89332379 C47.8982683,8.93804651 47.1211664,8.16080143 46.1659964,8.16080143" id="Fill-7" fill="#FFFFFF"></path>
                                <path d="M55.0234526,11.6258175 L59.9104651,11.6258175 C62.444347,11.6258175 63.8396959,12.7310411 63.8396959,14.7379463 L63.8396959,14.7943685 C63.8396959,16.7021682 62.3084258,17.9349052 59.9386583,17.9349052 L55.0234526,17.9349052 L55.0234526,11.6258175 Z M60.1920036,8.16080859 L53.1501789,8.16080859 C52.084025,8.16080859 51.2489267,8.99605009 51.2489267,10.0622755 L51.2489267,26.4555492 C51.2489267,27.5059606 52.084025,28.3288587 53.1501789,28.3288587 C54.2005546,28.3288587 55.0234526,27.5059606 55.0234526,26.4555492 L55.0234526,21.3150841 L59.1589088,21.3150841 L63.8980143,27.3644222 C64.3828444,28.0223828 64.959517,28.3288587 65.7127549,28.3288587 C66.5865653,28.3288587 67.5297496,27.6556565 67.5297496,26.5682504 C67.5297496,26.0067478 67.3011986,25.6083578 66.932898,25.1481789 L63.2973345,20.5632415 C66.1197674,19.614297 67.6705009,17.5034204 67.6705009,14.597195 L67.6705009,14.5409159 C67.6705009,12.814941 67.0904293,11.3067835 65.9902147,10.1766583 C64.6412701,8.85787478 62.636297,8.16080859 60.1920036,8.16080859 L60.1920036,8.16080859 Z" id="Fill-9" fill="#FFFFFF"></path>
                                <path d="M83.3050018,20.0473846 L76.8484723,20.0473846 L80.0767728,12.6199428 L83.3050018,20.0473846 Z M82.4150555,9.37858318 C81.9720501,8.39772451 81.2121216,7.87926297 80.2175599,7.87926297 L80.0485796,7.87926297 C79.0500465,7.87926297 78.2595635,8.41178533 77.8226404,9.3790483 L70.5006369,25.7134311 C70.3345188,26.0459177 70.260458,26.3096744 70.260458,26.5682433 C70.260458,27.5554705 71.0337317,28.3288515 72.0209231,28.3288515 C72.8286512,28.3288515 73.4663614,27.8929302 73.7685081,27.1374383 L75.3896887,23.4278855 L84.763678,23.4278855 L86.3278998,27.0230555 C86.6841789,27.8650948 87.3350197,28.3288515 88.1607442,28.3288515 C89.1637853,28.3288515 89.9495456,27.5307478 89.9495456,26.5118569 C89.9495456,26.2387979 89.8745903,25.9596208 89.7386691,25.7163649 L82.4150555,9.37858318 Z" id="Fill-11" fill="#FFFFFF"></path>
                                <path d="M107.876798,8.02002862 C106.810644,8.02002862 105.975438,8.84292665 105.975438,9.89330233 L105.975438,19.6673989 C105.975438,23.0912272 104.269893,24.9768444 101.173041,24.9768444 C98.1031306,24.9768444 96.342415,22.990297 96.342415,19.5266476 L96.342415,9.89330233 C96.342415,8.84292665 95.5195528,8.02002862 94.4691413,8.02002862 C93.4030233,8.02002862 92.5677818,8.84292665 92.5677818,9.89330233 L92.5677818,19.6673989 C92.5677818,25.2792057 95.6837746,28.4978104 101.116619,28.4978104 C106.603166,28.4978104 109.749964,25.2175957 109.749964,19.4984544 L109.749964,9.89330233 C109.749964,8.84292665 108.927209,8.02002862 107.876798,8.02002862" id="Fill-13" fill="#FFFFFF"></path>
                                <path d="M128.395109,18.1744472 L128.395109,18.2307263 C128.395109,22.1139821 125.706773,24.723034 121.705485,24.723034 L117.973463,24.723034 L117.973463,11.6258247 L121.705485,11.6258247 C125.644233,11.6258247 128.395109,14.3187048 128.395109,18.1744472 M121.705485,8.16081574 L116.100154,8.16081574 C115.034036,8.16081574 114.198794,8.99602147 114.198794,10.0622826 L114.198794,26.286576 C114.198794,27.3528372 115.034036,28.1880787 116.100154,28.1880787 L121.705485,28.1880787 C127.866773,28.1880787 132.338758,23.976737 132.338758,18.1744472 L132.338758,18.1181682 C132.338758,12.3484723 127.866773,8.16081574 121.705485,8.16081574" id="Fill-15" fill="#FFFFFF"></path>
                                <path d="M149.618093,8.16080143 L138.125857,8.16080143 C137.059703,8.16080143 136.224497,8.99604293 136.224497,10.0622683 L136.224497,26.455542 C136.224497,27.5059535 137.059703,28.3288515 138.125857,28.3288515 C139.176268,28.3288515 139.999023,27.5059535 139.999023,26.455542 L139.999023,20.1604079 L148.350436,20.1604079 C149.30575,20.1604079 150.082959,19.3831628 150.082959,18.4278855 C150.082959,17.4727156 149.30575,16.6957209 148.350436,16.6957209 L139.999023,16.6957209 L139.999023,11.6258104 L149.618093,11.6258104 C150.573227,11.6258104 151.350365,10.8486011 151.350365,9.89332379 C151.350365,8.93804651 150.573227,8.16080143 149.618093,8.16080143" id="Fill-17" fill="#FFFFFF"></path>
                                <path d="M156.79941,8.02002862 C155.733148,8.02002862 154.897943,8.84292665 154.897943,9.89330233 L154.897943,26.4555564 C154.897943,27.505932 155.733148,28.3288301 156.79941,28.3288301 C157.849821,28.3288301 158.672576,27.505932 158.672576,26.4555564 L158.672576,9.89330233 C158.672576,8.84292665 157.849821,8.02002862 156.79941,8.02002862" id="Fill-19" fill="#FFFFFF"></path>
                                <g id="Group-23" transform="translate(162.611807, 8.000286)">
                                    <mask id="mask-2" fill="white">
                                        <use xlink:href="#path-1"></use>
                                    </mask>
                                    <g id="Clip-22"></g>
                                    <path d="M16.8133131,17.0909481 L11.0885903,9.9490161 L16.5316673,3.17277281 C16.9306297,2.67423971 17.1009696,2.24944544 17.1009696,1.75227191 C17.1009696,0.682146691 16.2016136,0.0197495528 15.3684472,0.0197495528 C14.6166047,0.0197495528 14.0736708,0.32529517 13.5552093,1.03831843 L8.74937746,7.32694097 L3.88755277,0.92686941 C3.47925224,0.382397138 3.03363506,0.0197495528 2.1861932,0.0197495528 C1.11821467,0.0197495528 0.312883721,0.813059034 0.312883721,1.86493739 C0.312883721,2.30411449 0.498500894,2.75881932 0.882543828,3.2577102 L6.32494097,10.0051878 L0.544368515,17.1750984 L0.540075134,17.180644 C0.274493739,17.5428265 0.00304472272,17.9906977 0.00304472272,18.5679428 C0.00304472272,19.6700179 0.883903399,20.328551 1.73553131,20.328551 C2.58744544,20.328551 3.07631843,19.9216458 3.54859034,19.3101968 L8.63649732,12.6822898 L13.8079821,19.4214311 C14.2161038,19.9659034 14.661542,20.328551 15.5092343,20.328551 C16.5771771,20.328551 17.3825081,19.5353488 17.3825081,18.4834705 C17.3825081,17.9047585 17.0793596,17.4365653 16.8133131,17.0909481" id="Fill-21" fill="#FFFFFF" mask="url(#mask-2)"></path>
                                </g>
                                <g id="Group-26" transform="translate(154.382826, 0.021753)">
                                    <mask id="mask-4" fill="white">
                                        <use xlink:href="#path-3"></use>
                                    </mask>
                                    <g id="Clip-25"></g>
                                    <path d="M4.79701968,2.4012093 C4.79701968,3.71959928 3.72821825,4.78840072 2.40979249,4.78840072 C1.0914025,4.78840072 0.0226368515,3.71959928 0.0226368515,2.4012093 C0.0226368515,1.08278354 1.0914025,0.0140178891 2.40979249,0.0140178891 C3.72821825,0.0140178891 4.79701968,1.08278354 4.79701968,2.4012093" id="Fill-24" fill="#9714F4" mask="url(#mask-4)"></path>
                                </g>
                            </g>
                            <path d="M39.098,40.576 C39.098,40.6626671 39.0546671,40.706 38.968,40.706 L34.197,40.706 C34.1623332,40.706 34.145,40.7233332 34.145,40.758 L34.145,43.969 C34.145,44.0036668 34.1623332,44.021 34.197,44.021 L37.538,44.021 C37.6246671,44.021 37.668,44.0643329 37.668,44.151 L37.668,44.697 C37.668,44.7836671 37.6246671,44.827 37.538,44.827 L34.197,44.827 C34.1623332,44.827 34.145,44.8443332 34.145,44.879 L34.145,48.87 C34.145,48.9566671 34.1016671,49 34.015,49 L33.352,49 C33.2653329,49 33.222,48.9566671 33.222,48.87 L33.222,40.03 C33.222,39.9433329 33.2653329,39.9 33.352,39.9 L38.968,39.9 C39.0546671,39.9 39.098,39.9433329 39.098,40.03 L39.098,40.576 Z M42.713,49.104 C42.0889969,49.104 41.5516689,48.9436683 41.101,48.623 C40.6503311,48.3023317 40.3383342,47.8603362 40.165,47.297 C40.0436661,46.8983313 39.983,46.3653367 39.983,45.698 C39.983,45.0306633 40.0436661,44.502002 40.165,44.112 C40.3296675,43.5573306 40.6373311,43.1196683 41.088,42.799 C41.5386689,42.4783317 42.0846635,42.318 42.726,42.318 C43.3413364,42.318 43.8721644,42.4783317 44.3185,42.799 C44.7648356,43.1196683 45.0703325,43.5529973 45.235,44.099 C45.356334,44.4716685 45.417,45.0046632 45.417,45.698 C45.417,46.4000035 45.356334,46.9329982 45.235,47.297 C45.0703325,47.8603362 44.7648356,48.3023317 44.3185,48.623 C43.8721644,48.9436683 43.3370031,49.104 42.713,49.104 Z M42.713,48.298 C43.1290021,48.298 43.4843319,48.1831678 43.779,47.9535 C44.0736682,47.7238322 44.2729995,47.414002 44.377,47.024 C44.4550004,46.7119984 44.494,46.2743362 44.494,45.711 C44.494,45.1389971 44.4593337,44.7013349 44.39,44.398 C44.2859995,44.0079981 44.0845015,43.6981678 43.7855,43.4685 C43.4864985,43.2388322 43.1246688,43.124 42.7,43.124 C42.2753312,43.124 41.9156682,43.2388322 41.621,43.4685 C41.3263319,43.6981678 41.1270005,44.0079981 41.023,44.398 C40.9536663,44.7013349 40.919,45.1389971 40.919,45.711 C40.919,46.2830029 40.9536663,46.7206652 41.023,47.024 C41.1183338,47.414002 41.3154985,47.7238322 41.6145,47.9535 C41.9135015,48.1831678 42.2796645,48.298 42.713,48.298 Z M50.241,42.357 C50.5270015,42.357 50.773999,42.4133328 50.982,42.526 C51.0513337,42.5606668 51.0773334,42.6169996 51.06,42.695 L50.917,43.332 C50.8909999,43.4186671 50.8346671,43.4446668 50.748,43.41 C50.600666,43.349333 50.4316676,43.319 50.241,43.319 L50.072,43.332 C49.6213311,43.3493334 49.2486682,43.5161651 48.954,43.8325 C48.6593319,44.1488349 48.512,44.5496642 48.512,45.035 L48.512,48.87 C48.512,48.9566671 48.4686671,49 48.382,49 L47.719,49 C47.6323329,49 47.589,48.9566671 47.589,48.87 L47.589,42.552 C47.589,42.4653329 47.6323329,42.422 47.719,42.422 L48.382,42.422 C48.4686671,42.422 48.512,42.4653329 48.512,42.552 L48.512,43.345 C48.512,43.3710001 48.5185,43.3861666 48.5315,43.3905 C48.5445001,43.3948334 48.5553333,43.3883334 48.564,43.371 C48.7460009,43.0503317 48.9778319,42.8011676 49.2595,42.6235 C49.5411681,42.4458324 49.8683315,42.357 50.241,42.357 Z M59.277,42.331 C59.9270033,42.331 60.4404982,42.5259981 60.8175,42.916 C61.1945019,43.306002 61.383,43.8389966 61.383,44.515 L61.383,48.87 C61.383,48.9566671 61.3396671,49 61.253,49 L60.603,49 C60.5163329,49 60.473,48.9566671 60.473,48.87 L60.473,44.697 C60.473,44.220331 60.3365014,43.8411681 60.0635,43.5595 C59.7904987,43.2778319 59.4330022,43.137 58.991,43.137 C58.5316644,43.137 58.1611681,43.2756653 57.8795,43.553 C57.597832,43.8303347 57.457,44.2029977 57.457,44.671 L57.457,48.87 C57.457,48.9566671 57.4136671,49 57.327,49 L56.664,49 C56.5773329,49 56.534,48.9566671 56.534,48.87 L56.534,44.697 C56.534,44.220331 56.399668,43.8411681 56.131,43.5595 C55.862332,43.2778319 55.502669,43.137 55.052,43.137 C54.5926644,43.137 54.2265014,43.2756653 53.9535,43.553 C53.6804987,43.8303347 53.544,44.2029977 53.544,44.671 L53.544,48.87 C53.544,48.9566671 53.5006671,49 53.414,49 L52.751,49 C52.6643329,49 52.621,48.9566671 52.621,48.87 L52.621,42.552 C52.621,42.4653329 52.6643329,42.422 52.751,42.422 L53.414,42.422 C53.5006671,42.422 53.544,42.4653329 53.544,42.552 L53.544,43.072 C53.544,43.0893334 53.5505,43.1001666 53.5635,43.1045 C53.5765001,43.1088334 53.5916666,43.1023334 53.609,43.085 C53.7996677,42.8336654 54.0444985,42.6451673 54.3435,42.5195 C54.6425015,42.3938327 54.9739982,42.331 55.338,42.331 C55.788669,42.331 56.1743318,42.4219991 56.495,42.604 C56.8156683,42.7860009 57.0583325,43.0503316 57.223,43.397 C57.2403335,43.4403336 57.2619999,43.4403336 57.288,43.397 C57.4786677,43.0416649 57.7473316,42.7751676 58.094,42.5975 C58.4406684,42.4198324 58.8349978,42.331 59.277,42.331 Z M68.625,44.606 C68.6596669,44.8486679 68.677,45.1519982 68.677,45.516 L68.677,45.932 C68.677,46.0186671 68.6336671,46.062 68.547,46.062 L64.348,46.062 C64.3133332,46.062 64.296,46.0793332 64.296,46.114 C64.3133335,46.5906691 64.3393332,46.8983326 64.374,47.037 C64.4693339,47.427002 64.6729985,47.7346655 64.985,47.96 C65.2970016,48.1853345 65.6956643,48.298 66.181,48.298 C66.5450019,48.298 66.8656653,48.2156675 67.143,48.051 C67.4203348,47.8863325 67.6369993,47.6523349 67.793,47.349 C67.8450003,47.2709996 67.9056664,47.2536665 67.975,47.297 L68.482,47.596 C68.5513337,47.6393336 68.5686669,47.6999996 68.534,47.778 C68.3173323,48.1940021 67.9923355,48.5211655 67.559,48.7595 C67.1256645,48.9978345 66.6273362,49.117 66.064,49.117 C65.4486636,49.1083333 64.9330021,48.9610014 64.517,48.675 C64.100998,48.3889986 63.802001,47.9903359 63.62,47.479 C63.4639993,47.0629979 63.386,46.4650039 63.386,45.685 C63.386,45.3209982 63.3925,45.0241678 63.4055,44.7945 C63.4185001,44.5648322 63.4509998,44.3590009 63.503,44.177 C63.6503341,43.6136639 63.9471645,43.1630017 64.3935,42.825 C64.8398356,42.4869983 65.3793302,42.318 66.012,42.318 C66.8006707,42.318 67.4073313,42.5173313 67.832,42.916 C68.2566688,43.3146687 68.5209995,43.8779964 68.625,44.606 Z M66.012,43.124 C65.5873313,43.124 65.2341681,43.2344989 64.9525,43.4555 C64.670832,43.6765011 64.4866671,43.9733315 64.4,44.346 C64.3479998,44.5280009 64.3133335,44.8226646 64.296,45.23 C64.296,45.2646668 64.3133332,45.282 64.348,45.282 L67.715,45.282 C67.7496669,45.282 67.767,45.2646668 67.767,45.23 C67.7496666,44.8399981 67.7236669,44.5626675 67.689,44.398 C67.5936662,44.0079981 67.4008348,43.6981678 67.1105,43.4685 C66.8201653,43.2388322 66.4540023,43.124 66.012,43.124 Z M73.4620001,42.357 C73.7480015,42.357 73.994999,42.4133328 74.2030001,42.526 C74.2723337,42.5606668 74.2983335,42.6169996 74.2810001,42.695 L74.1380001,43.332 C74.1119999,43.4186671 74.0556672,43.4446668 73.9690001,43.41 C73.821666,43.349333 73.6526677,43.319 73.4620001,43.319 L73.2930001,43.332 C72.8423311,43.3493334 72.4696682,43.5161651 72.1750001,43.8325 C71.8803319,44.1488349 71.7330001,44.5496642 71.7330001,45.035 L71.7330001,48.87 C71.7330001,48.9566671 71.6896672,49 71.6030001,49 L70.9400001,49 C70.853333,49 70.8100001,48.9566671 70.8100001,48.87 L70.8100001,42.552 C70.8100001,42.4653329 70.853333,42.422 70.9400001,42.422 L71.6030001,42.422 C71.6896672,42.422 71.7330001,42.4653329 71.7330001,42.552 L71.7330001,43.345 C71.7330001,43.3710001 71.7395,43.3861666 71.7525001,43.3905 C71.7655001,43.3948334 71.7763333,43.3883334 71.7850001,43.371 C71.967001,43.0503317 72.198832,42.8011676 72.4805001,42.6235 C72.7621681,42.4458324 73.0893315,42.357 73.4620001,42.357 Z M75.9720001,49 C75.885333,49 75.8420001,48.9566671 75.8420001,48.87 L75.8420001,40.03 C75.8420001,39.9433329 75.885333,39.9 75.9720001,39.9 L76.6350001,39.9 C76.7216672,39.9 76.7650001,39.9433329 76.7650001,40.03 L76.7650001,48.87 C76.7650001,48.9566671 76.7216672,49 76.6350001,49 L75.9720001,49 Z M78.8330001,51.6 C78.7723331,51.6 78.7420001,51.5566671 78.7420001,51.47 L78.7420001,50.95 C78.7420001,50.8633329 78.785333,50.82 78.8720001,50.82 L78.9240001,50.82 C79.2620018,50.8113333 79.5241658,50.7615005 79.7105001,50.6705 C79.8968343,50.5794995 80.0571661,50.4105012 80.1915001,50.1635 C80.3258341,49.9164988 80.4709993,49.5416692 80.6270001,49.039 C80.6443335,49.0043332 80.6443335,48.9783334 80.6270001,48.961 L78.4300001,42.565 L78.4170001,42.513 C78.4170001,42.452333 78.4559997,42.422 78.5340001,42.422 L79.2230001,42.422 C79.3010005,42.422 79.353,42.4566663 79.3790001,42.526 L81.0690001,47.778 C81.0776668,47.7953334 81.0906667,47.804 81.1080001,47.804 C81.1253335,47.804 81.1383334,47.7953334 81.1470001,47.778 L82.8110001,42.526 C82.8370002,42.4566663 82.8889997,42.422 82.9670001,42.422 L83.6430001,42.422 C83.7383339,42.422 83.7730002,42.4696662 83.7470001,42.565 L81.3420001,49.572 C81.133999,50.1526696 80.939001,50.5816653 80.7570001,50.859 C80.5749992,51.1363347 80.3475014,51.3291661 80.0745001,51.4375 C79.8014987,51.5458339 79.4180026,51.6 78.9240001,51.6 L78.8330001,51.6 Z M93.3690001,44.606 C93.4036669,44.8486679 93.4210001,45.1519982 93.4210001,45.516 L93.4210001,45.932 C93.4210001,46.0186671 93.3776672,46.062 93.2910001,46.062 L89.0920001,46.062 C89.0573333,46.062 89.0400001,46.0793332 89.0400001,46.114 C89.0573335,46.5906691 89.0833333,46.8983326 89.1180001,47.037 C89.2133339,47.427002 89.4169985,47.7346655 89.7290001,47.96 C90.0410017,48.1853345 90.4396643,48.298 90.9250001,48.298 C91.2890019,48.298 91.6096654,48.2156675 91.8870001,48.051 C92.1643348,47.8863325 92.3809993,47.6523349 92.5370001,47.349 C92.5890004,47.2709996 92.6496664,47.2536665 92.7190001,47.297 L93.2260001,47.596 C93.2953338,47.6393336 93.3126669,47.6999996 93.2780001,47.778 C93.0613324,48.1940021 92.7363356,48.5211655 92.3030001,48.7595 C91.8696646,48.9978345 91.3713363,49.117 90.8080001,49.117 C90.1926637,49.1083333 89.6770022,48.9610014 89.2610001,48.675 C88.844998,48.3889986 88.546001,47.9903359 88.3640001,47.479 C88.2079993,47.0629979 88.1300001,46.4650039 88.1300001,45.685 C88.1300001,45.3209982 88.1365,45.0241678 88.1495001,44.7945 C88.1625002,44.5648322 88.1949998,44.3590009 88.2470001,44.177 C88.3943342,43.6136639 88.6911645,43.1630017 89.1375001,42.825 C89.5838357,42.4869983 90.1233303,42.318 90.7560001,42.318 C91.5446707,42.318 92.1513313,42.5173313 92.5760001,42.916 C93.0006689,43.3146687 93.2649996,43.8779964 93.3690001,44.606 Z M90.7560001,43.124 C90.3313313,43.124 89.9781682,43.2344989 89.6965001,43.4555 C89.414832,43.6765011 89.2306672,43.9733315 89.1440001,44.346 C89.0919998,44.5280009 89.0573335,44.8226646 89.0400001,45.23 C89.0400001,45.2646668 89.0573333,45.282 89.0920001,45.282 L92.4590001,45.282 C92.4936669,45.282 92.5110001,45.2646668 92.5110001,45.23 C92.4936667,44.8399981 92.4676669,44.5626675 92.4330001,44.398 C92.3376663,44.0079981 92.1448349,43.6981678 91.8545001,43.4685 C91.5641653,43.2388322 91.1980023,43.124 90.7560001,43.124 Z M101.612,40.576 C101.612,40.6626671 101.568667,40.706 101.482,40.706 L96.7110001,40.706 C96.6763333,40.706 96.6590001,40.7233332 96.6590001,40.758 L96.6590001,43.969 C96.6590001,44.0036668 96.6763333,44.021 96.7110001,44.021 L100.052,44.021 C100.138667,44.021 100.182,44.0643329 100.182,44.151 L100.182,44.697 C100.182,44.7836671 100.138667,44.827 100.052,44.827 L96.7110001,44.827 C96.6763333,44.827 96.6590001,44.8443332 96.6590001,44.879 L96.6590001,48.87 C96.6590001,48.9566671 96.6156672,49 96.5290001,49 L95.8660001,49 C95.779333,49 95.7360001,48.9566671 95.7360001,48.87 L95.7360001,40.03 C95.7360001,39.9433329 95.779333,39.9 95.8660001,39.9 L101.482,39.9 C101.568667,39.9 101.612,39.9433329 101.612,40.03 L101.612,40.576 Z M105.734,42.357 C106.020002,42.357 106.266999,42.4133328 106.475,42.526 C106.544334,42.5606668 106.570334,42.6169996 106.553,42.695 L106.41,43.332 C106.384,43.4186671 106.327667,43.4446668 106.241,43.41 C106.093666,43.349333 105.924668,43.319 105.734,43.319 L105.565,43.332 C105.114331,43.3493334 104.741668,43.5161651 104.447,43.8325 C104.152332,44.1488349 104.005,44.5496642 104.005,45.035 L104.005,48.87 C104.005,48.9566671 103.961667,49 103.875,49 L103.212,49 C103.125333,49 103.082,48.9566671 103.082,48.87 L103.082,42.552 C103.082,42.4653329 103.125333,42.422 103.212,42.422 L103.875,42.422 C103.961667,42.422 104.005,42.4653329 104.005,42.552 L104.005,43.345 C104.005,43.3710001 104.0115,43.3861666 104.0245,43.3905 C104.0375,43.3948334 104.048333,43.3883334 104.057,43.371 C104.239001,43.0503317 104.470832,42.8011676 104.7525,42.6235 C105.034168,42.4458324 105.361332,42.357 105.734,42.357 Z M110.363,42.318 C111.143004,42.318 111.745331,42.5173313 112.17,42.916 C112.594669,43.3146687 112.807,43.84333 112.807,44.502 L112.807,48.87 C112.807,48.9566671 112.763667,49 112.677,49 L112.014,49 C111.927333,49 111.884,48.9566671 111.884,48.87 L111.884,48.337 C111.884,48.3196666 111.8775,48.3066667 111.8645,48.298 C111.8515,48.2893333 111.836334,48.2936666 111.819,48.311 C111.602332,48.5710013 111.320669,48.768166 110.974,48.9025 C110.627332,49.036834 110.241669,49.104 109.817,49.104 C109.201664,49.104 108.686002,48.9480016 108.27,48.636 C107.853998,48.3239984 107.646,47.8473365 107.646,47.206 C107.646,46.5559968 107.882164,46.0425019 108.3545,45.6655 C108.826836,45.2884981 109.483329,45.1 110.324,45.1 L111.832,45.1 C111.866667,45.1 111.884,45.0826668 111.884,45.048 L111.884,44.554 C111.884,44.1119978 111.760501,43.7631679 111.5135,43.5075 C111.266499,43.2518321 110.883003,43.124 110.363,43.124 C109.946998,43.124 109.609001,43.2041659 109.349,43.3645 C109.088999,43.5248341 108.928667,43.7479986 108.868,44.034 C108.842,44.1206671 108.790001,44.1596667 108.712,44.151 L108.01,44.06 C107.914666,44.0426666 107.875667,44.0080003 107.893,43.956 C107.962334,43.4706642 108.222331,43.0763349 108.673,42.773 C109.123669,42.4696652 109.686997,42.318 110.363,42.318 Z M109.999,48.311 C110.510336,48.311 110.952332,48.1831679 111.325,47.9275 C111.697669,47.6718321 111.884,47.3273355 111.884,46.894 L111.884,45.88 C111.884,45.8453332 111.866667,45.828 111.832,45.828 L110.467,45.828 C109.894997,45.828 109.435669,45.9449988 109.089,46.179 C108.742332,46.4130012 108.569,46.7379979 108.569,47.154 C108.569,47.5353352 108.701165,47.823499 108.9655,48.0185 C109.229835,48.213501 109.574331,48.311 109.999,48.311 Z M119.009,42.552 C119.009,42.4653329 119.052333,42.422 119.139,42.422 L119.802,42.422 C119.888667,42.422 119.932,42.4653329 119.932,42.552 L119.932,48.87 C119.932,48.9566671 119.888667,49 119.802,49 L119.139,49 C119.052333,49 119.009,48.9566671 119.009,48.87 L119.009,48.311 C119.009,48.2936666 119.000334,48.2806667 118.983,48.272 C118.965667,48.2633333 118.952667,48.2676666 118.944,48.285 C118.579998,48.822336 118.003671,49.091 117.215,49.091 C116.798998,49.091 116.415502,49.0065008 116.0645,48.8375 C115.713498,48.6684992 115.436168,48.4236683 115.2325,48.103 C115.028832,47.7823317 114.927,47.3966689 114.927,46.946 L114.927,42.552 C114.927,42.4653329 114.970333,42.422 115.057,42.422 L115.72,42.422 C115.806667,42.422 115.85,42.4653329 115.85,42.552 L115.85,46.673 C115.85,47.1670025 115.988665,47.5591652 116.266,47.8495 C116.543335,48.1398348 116.920331,48.285 117.397,48.285 C117.891003,48.285 118.283165,48.1376681 118.5735,47.843 C118.863835,47.5483319 119.009,47.1583358 119.009,46.673 L119.009,42.552 Z M126.381,40.03 C126.381,39.9433329 126.424333,39.9 126.511,39.9 L127.174,39.9 C127.260667,39.9 127.304,39.9433329 127.304,40.03 L127.304,48.87 C127.304,48.9566671 127.260667,49 127.174,49 L126.511,49 C126.424333,49 126.381,48.9566671 126.381,48.87 L126.381,48.324 C126.381,48.3066666 126.3745,48.2958334 126.3615,48.2915 C126.3485,48.2871666 126.333334,48.2936666 126.316,48.311 C126.125333,48.5623346 125.889168,48.7573326 125.6075,48.896 C125.325832,49.0346674 125.011669,49.104 124.665,49.104 C124.05833,49.104 123.549169,48.9480016 123.1375,48.636 C122.725831,48.3239984 122.442001,47.899336 122.286,47.362 C122.164666,46.9719981 122.104,46.4216702 122.104,45.711 C122.104,44.9916631 122.156,44.4543351 122.26,44.099 C122.416001,43.5443306 122.701998,43.1088349 123.118,42.7925 C123.534002,42.4761651 124.049664,42.318 124.665,42.318 C125.003002,42.318 125.314999,42.385166 125.601,42.5195 C125.887002,42.653834 126.125333,42.8466654 126.316,43.098 C126.333334,43.1153334 126.3485,43.1218334 126.3615,43.1175 C126.3745,43.1131666 126.381,43.1023334 126.381,43.085 L126.381,40.03 Z M126.147,47.297 C126.225001,47.1236658 126.281333,46.9200012 126.316,46.686 C126.350667,46.4519988 126.368,46.1270021 126.368,45.711 C126.368,45.2949979 126.350667,44.9678345 126.316,44.7295 C126.281333,44.4911655 126.220667,44.2810009 126.134,44.099 C126.03,43.8043319 125.858835,43.5681676 125.6205,43.3905 C125.382166,43.2128324 125.098335,43.124 124.769,43.124 C124.422332,43.124 124.123335,43.2106658 123.872,43.384 C123.620666,43.5573342 123.438667,43.7869986 123.326,44.073 C123.222,44.2636676 123.146167,44.4781655 123.0985,44.7165 C123.050833,44.9548345 123.027,45.2863312 123.027,45.711 C123.027,46.1183354 123.044333,46.4368322 123.079,46.6665 C123.113667,46.8961678 123.174333,47.1019991 123.261,47.284 C123.365001,47.5960016 123.549166,47.8429991 123.8135,48.025 C124.077835,48.2070009 124.391998,48.298 124.756,48.298 C125.102669,48.298 125.392999,48.2070009 125.627,48.025 C125.861001,47.8429991 126.034333,47.6003349 126.147,47.297 Z M135.405,49.104 C134.425662,49.104 133.65217,48.8830022 133.0845,48.441 C132.516831,47.9989978 132.233,47.4096704 132.233,46.673 L132.233,46.27 C132.233,46.1833329 132.276333,46.14 132.363,46.14 L133,46.14 C133.086667,46.14 133.13,46.1833329 133.13,46.27 L133.13,46.621 C133.13,47.1236692 133.337998,47.5288318 133.754,47.8365 C134.170002,48.1441682 134.74633,48.298 135.483,48.298 C136.150337,48.298 136.657332,48.1571681 137.004,47.8755 C137.350669,47.5938319 137.524,47.2190023 137.524,46.751 C137.524,46.4476652 137.443834,46.1876678 137.2835,45.971 C137.123166,45.7543323 136.876169,45.5506676 136.5425,45.36 C136.208832,45.1693324 135.73867,44.9483346 135.132,44.697 C134.481997,44.4369987 133.977169,44.209501 133.6175,44.0145 C133.257832,43.819499 132.967501,43.5681682 132.7465,43.2605 C132.525499,42.9528318 132.415,42.5650023 132.415,42.097 C132.415,41.3689964 132.668498,40.803502 133.1755,40.4005 C133.682503,39.997498 134.377996,39.796 135.262,39.796 C136.224005,39.796 136.982331,40.0213311 137.537,40.472 C138.09167,40.9226689 138.369,41.5206629 138.369,42.266 L138.369,42.552 C138.369,42.6386671 138.325667,42.682 138.239,42.682 L137.589,42.682 C137.502333,42.682 137.459,42.6386671 137.459,42.552 L137.459,42.318 C137.459,41.8153308 137.261835,41.4036683 136.8675,41.083 C136.473165,40.7623317 135.925004,40.602 135.223,40.602 C134.607664,40.602 134.135335,40.7276654 133.806,40.979 C133.476665,41.2303346 133.312,41.594331 133.312,42.071 C133.312,42.3830016 133.392166,42.6408323 133.5525,42.8445 C133.712834,43.0481677 133.942499,43.2258326 134.2415,43.3775 C134.540502,43.5291674 135.001997,43.7263321 135.626,43.969 C136.25867,44.2290013 136.767832,44.4716655 137.1535,44.697 C137.539169,44.9223345 137.851166,45.1974984 138.0895,45.5225 C138.327835,45.8475016 138.447,46.2439977 138.447,46.712 C138.447,47.4400036 138.178336,48.0206645 137.641,48.454 C137.103664,48.8873355 136.358338,49.104 135.405,49.104 Z M145.533,44.606 C145.567667,44.8486679 145.585,45.1519982 145.585,45.516 L145.585,45.932 C145.585,46.0186671 145.541667,46.062 145.455,46.062 L141.256,46.062 C141.221333,46.062 141.204,46.0793332 141.204,46.114 C141.221334,46.5906691 141.247333,46.8983326 141.282,47.037 C141.377334,47.427002 141.580999,47.7346655 141.893,47.96 C142.205002,48.1853345 142.603664,48.298 143.089,48.298 C143.453002,48.298 143.773665,48.2156675 144.051,48.051 C144.328335,47.8863325 144.544999,47.6523349 144.701,47.349 C144.753,47.2709996 144.813667,47.2536665 144.883,47.297 L145.39,47.596 C145.459334,47.6393336 145.476667,47.6999996 145.442,47.778 C145.225332,48.1940021 144.900336,48.5211655 144.467,48.7595 C144.033665,48.9978345 143.535336,49.117 142.972,49.117 C142.356664,49.1083333 141.841002,48.9610014 141.425,48.675 C141.008998,48.3889986 140.710001,47.9903359 140.528,47.479 C140.371999,47.0629979 140.294,46.4650039 140.294,45.685 C140.294,45.3209982 140.3005,45.0241678 140.3135,44.7945 C140.3265,44.5648322 140.359,44.3590009 140.411,44.177 C140.558334,43.6136639 140.855165,43.1630017 141.3015,42.825 C141.747836,42.4869983 142.28733,42.318 142.92,42.318 C143.708671,42.318 144.315331,42.5173313 144.74,42.916 C145.164669,43.3146687 145.429,43.8779964 145.533,44.606 Z M142.92,43.124 C142.495331,43.124 142.142168,43.2344989 141.8605,43.4555 C141.578832,43.6765011 141.394667,43.9733315 141.308,44.346 C141.256,44.5280009 141.221334,44.8226646 141.204,45.23 C141.204,45.2646668 141.221333,45.282 141.256,45.282 L144.623,45.282 C144.657667,45.282 144.675,45.2646668 144.675,45.23 C144.657667,44.8399981 144.631667,44.5626675 144.597,44.398 C144.501666,44.0079981 144.308835,43.6981678 144.0185,43.4685 C143.728165,43.2388322 143.362002,43.124 142.92,43.124 Z M150.201,49.104 C149.576997,49.104 149.041836,48.9415016 148.5955,48.6165 C148.149165,48.2914984 147.843668,47.8516694 147.679,47.297 C147.566333,46.9156648 147.51,46.3783368 147.51,45.685 C147.51,45.0609969 147.566333,44.5323355 147.679,44.099 C147.835001,43.561664 148.138331,43.1305016 148.589,42.8055 C149.039669,42.4804984 149.576997,42.318 150.201,42.318 C150.83367,42.318 151.381831,42.4783317 151.8455,42.799 C152.309169,43.1196683 152.610333,43.518331 152.749,43.995 C152.792334,44.1510008 152.818334,44.2809995 152.827,44.385 L152.827,44.411 C152.827,44.471667 152.788001,44.5106666 152.71,44.528 L152.06,44.619 L152.034,44.619 C151.973333,44.619 151.934334,44.5800004 151.917,44.502 L151.878,44.307 C151.8,43.977665 151.609335,43.6981678 151.306,43.4685 C151.002665,43.2388322 150.634336,43.124 150.201,43.124 C149.767665,43.124 149.405835,43.2388322 149.1155,43.4685 C148.825165,43.6981678 148.636667,44.0036648 148.55,44.385 C148.472,44.714335 148.433,45.1519973 148.433,45.698 C148.433,46.2700029 148.472,46.7119984 148.55,47.024 C148.636667,47.414002 148.825165,47.7238322 149.1155,47.9535 C149.405835,48.1831678 149.767665,48.298 150.201,48.298 C150.625669,48.298 150.991832,48.1875011 151.2995,47.9665 C151.607168,47.7454989 151.8,47.4616684 151.878,47.115 L151.878,47.063 L151.891,47.011 C151.899667,46.9243329 151.951666,46.8896666 152.047,46.907 L152.684,47.011 C152.770667,47.0283334 152.809667,47.0759996 152.801,47.154 L152.749,47.414 C152.619,47.9166692 152.320003,48.3239984 151.852,48.636 C151.383998,48.9480016 150.83367,49.104 150.201,49.104 Z M158.756,42.552 C158.756,42.4653329 158.799333,42.422 158.886,42.422 L159.549,42.422 C159.635667,42.422 159.679,42.4653329 159.679,42.552 L159.679,48.87 C159.679,48.9566671 159.635667,49 159.549,49 L158.886,49 C158.799333,49 158.756,48.9566671 158.756,48.87 L158.756,48.311 C158.756,48.2936666 158.747334,48.2806667 158.73,48.272 C158.712667,48.2633333 158.699667,48.2676666 158.691,48.285 C158.326998,48.822336 157.750671,49.091 156.962,49.091 C156.545998,49.091 156.162502,49.0065008 155.8115,48.8375 C155.460498,48.6684992 155.183168,48.4236683 154.9795,48.103 C154.775833,47.7823317 154.674,47.3966689 154.674,46.946 L154.674,42.552 C154.674,42.4653329 154.717333,42.422 154.804,42.422 L155.467,42.422 C155.553667,42.422 155.597,42.4653329 155.597,42.552 L155.597,46.673 C155.597,47.1670025 155.735666,47.5591652 156.013,47.8495 C156.290335,48.1398348 156.667331,48.285 157.144,48.285 C157.638003,48.285 158.030165,48.1376681 158.3205,47.843 C158.610835,47.5483319 158.756,47.1583358 158.756,46.673 L158.756,42.552 Z M164.698,42.357 C164.984002,42.357 165.230999,42.4133328 165.439,42.526 C165.508334,42.5606668 165.534334,42.6169996 165.517,42.695 L165.374,43.332 C165.348,43.4186671 165.291667,43.4446668 165.205,43.41 C165.057666,43.349333 164.888668,43.319 164.698,43.319 L164.529,43.332 C164.078331,43.3493334 163.705668,43.5161651 163.411,43.8325 C163.116332,44.1488349 162.969,44.5496642 162.969,45.035 L162.969,48.87 C162.969,48.9566671 162.925667,49 162.839,49 L162.176,49 C162.089333,49 162.046,48.9566671 162.046,48.87 L162.046,42.552 C162.046,42.4653329 162.089333,42.422 162.176,42.422 L162.839,42.422 C162.925667,42.422 162.969,42.4653329 162.969,42.552 L162.969,43.345 C162.969,43.3710001 162.9755,43.3861666 162.9885,43.3905 C163.0015,43.3948334 163.012334,43.3883334 163.021,43.371 C163.203001,43.0503317 163.434832,42.8011676 163.7165,42.6235 C163.998168,42.4458324 164.325332,42.357 164.698,42.357 Z M167.702,41.226 C167.493999,41.226 167.320668,41.1566674 167.182,41.018 C167.043333,40.8793326 166.974,40.706001 166.974,40.498 C166.974,40.2813323 167.043333,40.105834 167.182,39.9715 C167.320668,39.837166 167.493999,39.77 167.702,39.77 C167.910001,39.77 168.083333,39.837166 168.222,39.9715 C168.360668,40.105834 168.43,40.2813323 168.43,40.498 C168.43,40.706001 168.360668,40.8793326 168.222,41.018 C168.083333,41.1566674 167.910001,41.226 167.702,41.226 Z M167.338,48.987 C167.251333,48.987 167.208,48.9436671 167.208,48.857 L167.208,42.539 C167.208,42.4523329 167.251333,42.409 167.338,42.409 L168.001,42.409 C168.087667,42.409 168.131,42.4523329 168.131,42.539 L168.131,48.857 C168.131,48.9436671 168.087667,48.987 168.001,48.987 L167.338,48.987 Z M173.644,43.059 C173.644,43.1456671 173.600667,43.189 173.514,43.189 L172.045,43.189 C172.010333,43.189 171.993,43.2063332 171.993,43.241 L171.993,47.076 C171.993,47.4920021 172.086166,47.7844992 172.2725,47.9535 C172.458835,48.1225008 172.751332,48.207 173.15,48.207 L173.475,48.207 C173.561667,48.207 173.605,48.2503329 173.605,48.337 L173.605,48.87 C173.605,48.9566671 173.561667,49 173.475,49 C173.371,49.0086667 173.210668,49.013 172.994,49.013 C172.369997,49.013 171.897669,48.8960012 171.577,48.662 C171.256332,48.4279988 171.096,47.9946698 171.096,47.362 L171.096,43.241 C171.096,43.2063332 171.078667,43.189 171.044,43.189 L170.251,43.189 C170.164333,43.189 170.121,43.1456671 170.121,43.059 L170.121,42.552 C170.121,42.4653329 170.164333,42.422 170.251,42.422 L171.044,42.422 C171.078667,42.422 171.096,42.4046668 171.096,42.37 L171.096,40.862 C171.096,40.7753329 171.139333,40.732 171.226,40.732 L171.863,40.732 C171.949667,40.732 171.993,40.7753329 171.993,40.862 L171.993,42.37 C171.993,42.4046668 172.010333,42.422 172.045,42.422 L173.514,42.422 C173.600667,42.422 173.644,42.4653329 173.644,42.552 L173.644,43.059 Z M175.426,51.6 C175.365333,51.6 175.335,51.5566671 175.335,51.47 L175.335,50.95 C175.335,50.8633329 175.378333,50.82 175.465,50.82 L175.517,50.82 C175.855002,50.8113333 176.117166,50.7615005 176.3035,50.6705 C176.489835,50.5794995 176.650166,50.4105012 176.7845,50.1635 C176.918834,49.9164988 177.063999,49.5416692 177.22,49.039 C177.237334,49.0043332 177.237334,48.9783334 177.22,48.961 L175.023,42.565 L175.01,42.513 C175.01,42.452333 175.049,42.422 175.127,42.422 L175.816,42.422 C175.894001,42.422 175.946,42.4566663 175.972,42.526 L177.662,47.778 C177.670667,47.7953334 177.683667,47.804 177.701,47.804 C177.718334,47.804 177.731334,47.7953334 177.74,47.778 L179.404,42.526 C179.43,42.4566663 179.482,42.422 179.56,42.422 L180.236,42.422 C180.331334,42.422 180.366,42.4696662 180.34,42.565 L177.935,49.572 C177.726999,50.1526696 177.532001,50.5816653 177.35,50.859 C177.167999,51.1363347 176.940502,51.3291661 176.6675,51.4375 C176.394499,51.5458339 176.011003,51.6 175.517,51.6 L175.426,51.6 Z" id="Formerly-eFraud-Secu" fill="#AFA6C5"></path>
                        </g>
                    </g>
                </g>
            </g>
        </g>
    </g>
</svg>