<?xml version="1.0" encoding="UTF-8"?>
<svg width="111px" height="45px" viewBox="0 0 111 45" version="1.1" xmlns="http://www.w3.org/2000/svg" xmlns:xlink="http://www.w3.org/1999/xlink">
    <!-- Generator: Sketch 55.1 (78136) - https://sketchapp.com -->
    <title>customer logos / logo 3</title>
    <desc>Created with Sketch.</desc>
    <g id="💵-Fraudfix" stroke="none" stroke-width="1" fill="none" fill-rule="evenodd" opacity="0.5">
        <g id="Home" transform="translate(-609.000000, -938.000000)" fill="#DBD6E9">
            <g id="top" transform="translate(-43.000000, 77.000000)">
                <g id="logos" transform="translate(261.000000, 792.000000)">
                    <g id="customer-logos-/-logo-3" transform="translate(385.000000, 67.000000)">
                        <g id="logo" transform="translate(0.000000, 0.791411)">
                            <g id="3" transform="translate(6.000000, 2.000000)">
                                <path d="M5.35041402,35.2720182 C5.35041402,34.7063512 4.28033121,34.4791936 3.94287772,34.4791936 C3.09924397,34.4791936 2.14016561,34.8756059 2.4198968,35.325467 C2.58862354,35.4947217 2.75735029,35.9490369 2.75735029,36.3409951 C2.75735029,36.9066621 2.19344774,37.3030744 1.68726749,37.3030744 C1.12336493,37.3030744 0.617184687,36.9601109 0.617184687,36.2875463 C0.617184687,34.6484483 2.69962799,34.0827813 3.99615985,34.0827813 C4.8975159,34.0827813 5.9098764,34.1941331 6.75351014,34.6484483 C7.3174127,34.9290547 7.54386175,35.2675641 7.54386175,35.9490369 L7.54386175,41.6547013 C7.54386175,41.9353077 7.77031081,42.1045624 8.050042,42.1045624 C8.32977319,42.1045624 8.61394456,41.7660531 8.78267131,41.5967984 L9.06684267,41.8774048 C8.50294012,42.5544235 7.93903756,43.0087387 7.03768151,43.0087387 C6.07860314,43.0087387 5.46141846,42.4475258 5.35041402,41.4809925 C4.5600624,42.4430718 3.43669747,43.0087387 2.19788792,43.0087387 C0.959078363,43.0087387 0,42.33172 0,40.9197796 C0,38.3765054 3.43669747,37.8687413 5.35041402,37.9266442 L5.35041402,35.2720182 Z M5.35041402,38.3765054 C4.00060002,38.3765054 2.25117005,38.54576 2.25117005,40.3006638 C2.25117005,41.2627431 2.64634585,41.9976647 3.65870635,41.9976647 C4.39133565,41.9976647 4.95523821,41.3740948 5.18168727,40.6970761 C5.35041402,40.3585668 5.35041402,40.0200574 5.35041402,39.5701963 L5.35041402,38.3765054 L5.35041402,38.3765054 Z M11.3224529,42.7281323 L10.9849994,42.7281323 L10.9849994,39.619191 L11.6021841,39.619191 C11.7709108,41.1469372 12.6722669,42.6167805 14.3062523,42.6167805 C15.2608904,42.6167805 16.2776911,41.9397618 16.2776911,40.8663308 C16.2776911,39.7928998 15.2653306,39.677094 14.1375255,39.5657422 C11.9396376,39.2272328 11.0960038,38.3230565 11.0960038,36.6839585 C11.0960038,35.0448606 12.223809,34.0872354 13.800072,34.0872354 C14.5327013,34.0872354 15.3230529,34.314393 15.8825153,34.7642541 L16.2776911,34.1985872 L16.6151446,34.1985872 L16.6151446,36.7418615 L16.051242,36.7418615 C15.9402376,35.5526246 14.9767191,34.4791936 13.7956318,34.4791936 C12.9519981,34.4791936 12.050642,34.9869577 12.050642,35.9490369 C12.050642,36.6260556 12.1660866,36.8532132 14.075363,37.1917226 C16.0468019,37.472329 17.174607,37.8687413 17.174607,40.0735062 C17.174607,42.1045624 16.051242,43.0087387 14.075363,43.0087387 C13.400456,43.0087387 12.4991,42.6123265 11.9351974,42.1045624 L11.3224529,42.7281323 Z M19.2037682,42.7281323 L19.2037682,42.1624653 L20.6690268,42.1624653 L20.6690268,28.884881 L19.0927637,28.884881 L19.0927637,28.319214 C20.3937357,28.3637547 21.699148,28.2702193 22.9779191,28.0341535 L22.9779191,36.1138375 C23.5418217,34.8132489 24.6696268,34.0783273 26.0771631,34.0783273 C26.9207968,34.0783273 28.4437778,34.3589337 28.6657866,35.3789159 C28.8345134,36.394444 28.8345134,37.7529355 28.8345134,38.8263665 L28.8345134,42.1580113 L30.1843274,42.1580113 L30.1843274,42.7236782 L25.2290892,42.7236782 L25.2290892,42.1580113 L26.5789032,42.1580113 L26.5789032,38.3186024 C26.5789032,36.2830922 26.7476299,34.7598001 25.3400936,34.7598001 C24.4387375,34.7598001 23.5951038,35.8332311 23.2576503,36.6216016 C22.9779191,37.2986203 22.9779191,38.3186024 22.9779191,39.3341305 L22.9779191,42.1580113 L24.274451,42.1580113 L24.274451,42.7236782 L19.2037682,42.7281323 L19.2037682,42.7281323 L19.2037682,42.7281323 Z M35.7611904,34.1985872 L37.7903516,34.1985872 L37.7903516,34.7063512 L35.7611904,34.7063512 L35.7611904,42.1624653 L37.5639026,42.1624653 L37.5639026,42.7281323 L31.7650306,42.7281323 L31.7650306,42.1624653 L33.399016,42.1624653 L33.399016,34.7063512 L31.7117485,34.7063512 L31.7117485,34.1985872 L33.399016,34.1985872 C33.399016,32.0517252 33.8519141,29.1164927 36.2140886,28.2078623 C36.5515421,28.0965105 36.9467179,28.0386076 37.3418937,28.0386076 C38.300972,28.0386076 39.4820593,28.5463716 39.4820593,29.7356085 C39.4820593,30.3547243 38.975879,30.8090395 38.3542542,30.8090395 C37.7326293,30.8090395 37.3418937,30.4705301 37.3418937,29.8469602 C37.3418937,29.450548 37.5683427,29.2278444 37.9057962,29.0006868 C38.074523,28.884881 37.9057962,28.4350199 37.2841714,28.4350199 C36.2718109,28.4350199 35.7656306,30.1275667 35.7656306,30.8090395 L35.7656306,34.1985872 L35.7611904,34.1985872 Z M44.3795752,34.0827813 C46.799472,34.0827813 48.8863555,36.1717404 48.8863555,38.603663 C48.8863555,40.9776826 46.8039122,43.0087387 44.3795752,43.0087387 C41.9596784,43.0087387 39.8727949,40.9776826 39.8727949,38.603663 C39.8727949,36.1717404 41.9596784,34.0827813 44.3795752,34.0827813 Z M44.3795752,34.4791936 C42.2971319,34.4791936 42.4081363,36.1717404 42.4081363,38.603663 C42.4081363,41.3696408 42.4658586,42.6167805 44.3795752,42.6123383 C46.2932917,42.6123383 46.351014,41.3696408 46.351014,38.603663 C46.351014,36.1717404 46.4620185,34.4791936 44.3795752,34.4791936 Z M54.1213249,36.5147039 C54.7962318,35.325467 55.5288612,34.0827813 57.1095644,34.0827813 C57.9531981,34.0827813 58.8012721,34.4791936 58.7968492,35.4368188 C58.7968492,36.2830922 58.2329293,36.6795045 57.4470179,36.6795045 C56.9408376,36.6795045 56.4346574,36.2296433 56.4346574,35.6639764 C56.4346574,35.6060735 56.4923797,35.4368188 56.4923797,35.325467 C56.550102,34.9825036 56.550102,34.8711518 56.3236529,34.8711518 C55.9284771,34.8711518 55.7064683,35.0983094 55.4222969,35.3789159 C54.6319453,36.1717404 54.125765,37.3565232 54.125765,40.1804039 L54.125765,42.1580113 L56.0394816,42.1580113 L56.0394816,42.7236782 L50.5203408,42.7236782 L50.5203408,42.1580113 L51.8168727,42.1580113 L51.8168727,34.7063512 L50.3516141,34.7063512 L50.3516141,34.1985872 C51.4794192,34.2564901 52.8292332,34.1406843 54.125765,34.0872354 L54.1213249,36.5147039 L54.1213249,36.5147039 Z M65.5547822,41.258289 L65.5015001,41.258289 C64.9953198,42.3896229 63.9785191,43.0087387 62.6287051,43.0087387 C61.5009,43.0087387 60.9369975,42.6123265 60.0933637,41.8774048 C59.24973,41.1424832 58.7968319,39.7305428 58.7968319,38.603663 C58.7968319,36.4568009 60.7105484,34.0827813 62.9084363,34.0827813 C64.3159726,34.0827813 65.275051,34.8756059 65.4970599,35.891134 L65.550342,35.891134 L65.550342,28.8893351 L64.0318013,28.8893351 L64.0318013,28.3236681 C65.3150126,28.3726629 66.5982239,28.2791274 67.8592344,28.0430617 L67.8592344,42.1669194 L69.3822153,42.1669194 L69.3822153,42.7325864 C68.1434057,42.7325864 66.9045962,42.6212346 65.550342,42.901841 L65.5547822,41.258289 L65.5547822,41.258289 L65.5547822,41.258289 Z M61.4431777,40.6391732 C61.4431777,41.7126042 61.7806312,42.6167805 62.9661586,42.6167805 C64.3159726,42.6167805 65.5547822,41.2048402 65.5547822,39.9042516 L65.5547822,37.6460378 C65.5547822,36.2920003 64.6534261,34.4836477 63.0194408,34.4836477 C61.6119045,34.4836477 61.4431777,35.6149816 61.4431777,36.8576673 L61.4431777,40.6391732 Z M73.2140886,41.8774048 C73.2140886,42.6702294 72.5391816,43.2893452 71.8642746,43.2893452 C71.1893676,43.2893452 70.5144606,42.6702294 70.5144606,41.8774048 C70.5144606,41.1424832 71.1893676,40.5233674 71.8642746,40.5233674 C72.5391816,40.5233674 73.2140886,41.1469372 73.2140886,41.8774048 L73.2140886,41.8774048 Z M77.774151,39.8463486 C77.774151,41.8774048 78.2803312,42.6167805 79.6878675,42.6167805 C81.2064083,42.6167805 82.2232089,41.5433495 82.6139446,40.0156033 L83.1201248,40.0156033 C82.8403936,41.8818589 81.375135,43.0087387 79.5724229,43.0087387 C76.926077,43.0087387 75.1766471,40.9197796 75.2876515,38.3765054 C75.3453738,37.3030744 75.9092764,35.891134 76.6951878,35.1562123 C77.5965439,34.3633878 78.551182,34.0827813 79.7367095,34.0827813 C81.0332413,34.0827813 82.9469579,34.6484483 82.9469579,36.2296433 C82.9469579,36.8532132 82.4940598,37.472329 81.8768751,37.472329 C81.2019681,37.472329 80.5270611,37.1917226 80.5270611,36.398898 C80.5270611,35.7753281 81.2019681,35.6060735 81.2019681,35.2141153 C81.2019681,34.6484483 80.0208808,34.4791936 79.6834273,34.4791936 C77.600984,34.4791936 77.7697108,36.6260556 77.7697108,38.1493478 L77.774151,39.8463486 L77.774151,39.8463486 L77.774151,39.8463486 Z M89.3230529,34.0827813 C91.7429497,34.0827813 93.8298332,36.1717404 93.8298332,38.603663 C93.825393,40.9776826 91.7473899,43.0087387 89.3230529,43.0087387 C86.8987159,43.0087387 84.8162727,40.9776826 84.8162727,38.603663 C84.8162727,36.1717404 86.8987159,34.0827813 89.3230529,34.0827813 Z M89.3230529,34.4791936 C87.2406096,34.4791936 87.3516141,36.1717404 87.3516141,38.603663 C87.3516141,41.3740948 87.4093364,42.6167805 89.3230529,42.6167805 C91.2367695,42.6167805 91.2944918,41.3740948 91.2944918,38.608117 C91.2900516,36.1717404 91.4054962,34.4791936 89.3230529,34.4791936 L89.3230529,34.4791936 Z M98.7806312,36.1761945 L98.8383535,36.1761945 C99.4022561,34.8756059 100.356894,34.0872354 101.822153,34.0872354 C103.00324,34.0872354 103.904596,34.7108053 104.299772,35.8376851 C104.916957,34.7642541 105.818313,34.0872354 107.061562,34.0872354 C109.876635,34.0872354 109.650186,35.7797822 109.650186,38.0424501 L109.650186,42.1669194 L111,42.1669194 L111,42.7325864 L106.213489,42.7325864 L106.213489,42.1669194 L107.394576,42.1669194 L107.394576,36.398898 C107.394576,35.8332311 107.447858,34.817703 106.49322,34.817703 C104.859234,34.817703 104.23761,36.6795045 104.23761,38.037996 L104.23761,42.1624653 L105.423137,42.1624653 L105.423137,42.7281323 L100.805352,42.7281323 L100.805352,42.1624653 L101.933157,42.1624653 L101.928717,37.0224679 C101.933157,36.0648427 102.212889,34.822157 100.916357,34.822157 C99.8462739,34.822157 98.776191,36.461255 98.776191,38.0424501 L98.776191,42.1669194 L99.9617185,42.1669194 L99.9617185,42.7325864 L95.1174847,42.7325864 L95.1174847,42.1669194 L96.525021,42.1669194 L96.525021,34.7063512 L95.0642026,34.7063512 L95.0642026,34.1985872 C96.1342854,34.2564901 97.4263771,34.1406843 98.7806312,34.0872354 L98.7806312,36.1761945 L98.7806312,36.1761945 L98.7806312,36.1761945 Z M43.6469459,24.2526476 L43.6469459,23.3484713 L46.5197408,23.3484713 L54.9383175,0.18730437 L56.4568583,0.18730437 L64.4891396,23.3484713 L67.3619345,23.3484713 L67.3619345,24.2526476 L56.0350414,24.2526476 L56.0350414,23.3484713 L59.7559102,23.3484713 L54.0636025,6.85059393 L47.6431057,23.3484713 L51.2485299,23.3484713 L51.2485299,24.2526476 L43.6469459,24.2526476 L43.6469459,24.2526476 Z" id="Shape" fill-rule="nonzero"></path>
                                <path d="M55.0487805,22.2155012 C55.0487805,22.9312657 54.3861199,23.5342431 53.7234594,23.5342431 C53.0607989,23.5342431 52.3414634,22.9269278 52.3414634,22.2155012 C52.3414634,21.443343 53.0607989,20.8403656 53.7234594,20.8403656 C54.3861199,20.8924212 55.0487805,21.443343 55.0487805,22.2155012 Z" id="Path" fill-opacity="0.75"></path>
                            </g>
                        </g>
                    </g>
                </g>
            </g>
        </g>
    </g>
</svg>