<?xml version="1.0" encoding="UTF-8"?>
<svg width="198px" height="44px" viewBox="0 0 198 44" version="1.1" xmlns="http://www.w3.org/2000/svg" xmlns:xlink="http://www.w3.org/1999/xlink">
    <!-- Generator: Sketch 55.1 (78136) - https://sketchapp.com -->
    <title>Group 3</title>
    <desc>Created with Sketch.</desc>
    <g id="💵-Fraudfix" stroke="none" stroke-width="1" fill="none" fill-rule="evenodd" opacity="0.5">
        <g id="Artboard" transform="translate(-1260.000000, -883.000000)">
            <g id="Group-3" transform="translate(1254.000000, 881.000000)">
                <g id="logo" fill="#DBD6E9">
                    <g id="3" transform="translate(6.000000, 2.000000)">
                        <path d="M5.35041402,35.2720182 C5.35041402,34.7063512 4.28033121,34.4791936 3.94287772,34.4791936 C3.09924397,34.4791936 2.14016561,34.8756059 2.4198968,35.325467 C2.58862354,35.4947217 2.75735029,35.9490369 2.75735029,36.3409951 C2.75735029,36.9066621 2.19344774,37.3030744 1.68726749,37.3030744 C1.12336493,37.3030744 0.617184687,36.9601109 0.617184687,36.2875463 C0.617184687,34.6484483 2.69962799,34.0827813 3.99615985,34.0827813 C4.8975159,34.0827813 5.9098764,34.1941331 6.75351014,34.6484483 C7.3174127,34.9290547 7.54386175,35.2675641 7.54386175,35.9490369 L7.54386175,41.6547013 C7.54386175,41.9353077 7.77031081,42.1045624 8.050042,42.1045624 C8.32977319,42.1045624 8.61394456,41.7660531 8.78267131,41.5967984 L9.06684267,41.8774048 C8.50294012,42.5544235 7.93903756,43.0087387 7.03768151,43.0087387 C6.07860314,43.0087387 5.46141846,42.4475258 5.35041402,41.4809925 C4.5600624,42.4430718 3.43669747,43.0087387 2.19788792,43.0087387 C0.959078363,43.0087387 0,42.33172 0,40.9197796 C0,38.3765054 3.43669747,37.8687413 5.35041402,37.9266442 L5.35041402,35.2720182 Z M5.35041402,38.3765054 C4.00060002,38.3765054 2.25117005,38.54576 2.25117005,40.3006638 C2.25117005,41.2627431 2.64634585,41.9976647 3.65870635,41.9976647 C4.39133565,41.9976647 4.95523821,41.3740948 5.18168727,40.6970761 C5.35041402,40.3585668 5.35041402,40.0200574 5.35041402,39.5701963 L5.35041402,38.3765054 L5.35041402,38.3765054 Z M11.3224529,42.7281323 L10.9849994,42.7281323 L10.9849994,39.619191 L11.6021841,39.619191 C11.7709108,41.1469372 12.6722669,42.6167805 14.3062523,42.6167805 C15.2608904,42.6167805 16.2776911,41.9397618 16.2776911,40.8663308 C16.2776911,39.7928998 15.2653306,39.677094 14.1375255,39.5657422 C11.9396376,39.2272328 11.0960038,38.3230565 11.0960038,36.6839585 C11.0960038,35.0448606 12.223809,34.0872354 13.800072,34.0872354 C14.5327013,34.0872354 15.3230529,34.314393 15.8825153,34.7642541 L16.2776911,34.1985872 L16.6151446,34.1985872 L16.6151446,36.7418615 L16.051242,36.7418615 C15.9402376,35.5526246 14.9767191,34.4791936 13.7956318,34.4791936 C12.9519981,34.4791936 12.050642,34.9869577 12.050642,35.9490369 C12.050642,36.6260556 12.1660866,36.8532132 14.075363,37.1917226 C16.0468019,37.472329 17.174607,37.8687413 17.174607,40.0735062 C17.174607,42.1045624 16.051242,43.0087387 14.075363,43.0087387 C13.400456,43.0087387 12.4991,42.6123265 11.9351974,42.1045624 L11.3224529,42.7281323 Z M19.2037682,42.7281323 L19.2037682,42.1624653 L20.6690268,42.1624653 L20.6690268,28.884881 L19.0927637,28.884881 L19.0927637,28.319214 C20.3937357,28.3637547 21.699148,28.2702193 22.9779191,28.0341535 L22.9779191,36.1138375 C23.5418217,34.8132489 24.6696268,34.0783273 26.0771631,34.0783273 C26.9207968,34.0783273 28.4437778,34.3589337 28.6657866,35.3789159 C28.8345134,36.394444 28.8345134,37.7529355 28.8345134,38.8263665 L28.8345134,42.1580113 L30.1843274,42.1580113 L30.1843274,42.7236782 L25.2290892,42.7236782 L25.2290892,42.1580113 L26.5789032,42.1580113 L26.5789032,38.3186024 C26.5789032,36.2830922 26.7476299,34.7598001 25.3400936,34.7598001 C24.4387375,34.7598001 23.5951038,35.8332311 23.2576503,36.6216016 C22.9779191,37.2986203 22.9779191,38.3186024 22.9779191,39.3341305 L22.9779191,42.1580113 L24.274451,42.1580113 L24.274451,42.7236782 L19.2037682,42.7281323 L19.2037682,42.7281323 L19.2037682,42.7281323 Z M35.7611904,34.1985872 L37.7903516,34.1985872 L37.7903516,34.7063512 L35.7611904,34.7063512 L35.7611904,42.1624653 L37.5639026,42.1624653 L37.5639026,42.7281323 L31.7650306,42.7281323 L31.7650306,42.1624653 L33.399016,42.1624653 L33.399016,34.7063512 L31.7117485,34.7063512 L31.7117485,34.1985872 L33.399016,34.1985872 C33.399016,32.0517252 33.8519141,29.1164927 36.2140886,28.2078623 C36.5515421,28.0965105 36.9467179,28.0386076 37.3418937,28.0386076 C38.300972,28.0386076 39.4820593,28.5463716 39.4820593,29.7356085 C39.4820593,30.3547243 38.975879,30.8090395 38.3542542,30.8090395 C37.7326293,30.8090395 37.3418937,30.4705301 37.3418937,29.8469602 C37.3418937,29.450548 37.5683427,29.2278444 37.9057962,29.0006868 C38.074523,28.884881 37.9057962,28.4350199 37.2841714,28.4350199 C36.2718109,28.4350199 35.7656306,30.1275667 35.7656306,30.8090395 L35.7656306,34.1985872 L35.7611904,34.1985872 Z M44.3795752,34.0827813 C46.799472,34.0827813 48.8863555,36.1717404 48.8863555,38.603663 C48.8863555,40.9776826 46.8039122,43.0087387 44.3795752,43.0087387 C41.9596784,43.0087387 39.8727949,40.9776826 39.8727949,38.603663 C39.8727949,36.1717404 41.9596784,34.0827813 44.3795752,34.0827813 Z M44.3795752,34.4791936 C42.2971319,34.4791936 42.4081363,36.1717404 42.4081363,38.603663 C42.4081363,41.3696408 42.4658586,42.6167805 44.3795752,42.6123383 C46.2932917,42.6123383 46.351014,41.3696408 46.351014,38.603663 C46.351014,36.1717404 46.4620185,34.4791936 44.3795752,34.4791936 Z M54.1213249,36.5147039 C54.7962318,35.325467 55.5288612,34.0827813 57.1095644,34.0827813 C57.9531981,34.0827813 58.8012721,34.4791936 58.7968492,35.4368188 C58.7968492,36.2830922 58.2329293,36.6795045 57.4470179,36.6795045 C56.9408376,36.6795045 56.4346574,36.2296433 56.4346574,35.6639764 C56.4346574,35.6060735 56.4923797,35.4368188 56.4923797,35.325467 C56.550102,34.9825036 56.550102,34.8711518 56.3236529,34.8711518 C55.9284771,34.8711518 55.7064683,35.0983094 55.4222969,35.3789159 C54.6319453,36.1717404 54.125765,37.3565232 54.125765,40.1804039 L54.125765,42.1580113 L56.0394816,42.1580113 L56.0394816,42.7236782 L50.5203408,42.7236782 L50.5203408,42.1580113 L51.8168727,42.1580113 L51.8168727,34.7063512 L50.3516141,34.7063512 L50.3516141,34.1985872 C51.4794192,34.2564901 52.8292332,34.1406843 54.125765,34.0872354 L54.1213249,36.5147039 L54.1213249,36.5147039 Z M65.5547822,41.258289 L65.5015001,41.258289 C64.9953198,42.3896229 63.9785191,43.0087387 62.6287051,43.0087387 C61.5009,43.0087387 60.9369975,42.6123265 60.0933637,41.8774048 C59.24973,41.1424832 58.7968319,39.7305428 58.7968319,38.603663 C58.7968319,36.4568009 60.7105484,34.0827813 62.9084363,34.0827813 C64.3159726,34.0827813 65.275051,34.8756059 65.4970599,35.891134 L65.550342,35.891134 L65.550342,28.8893351 L64.0318013,28.8893351 L64.0318013,28.3236681 C65.3150126,28.3726629 66.5982239,28.2791274 67.8592344,28.0430617 L67.8592344,42.1669194 L69.3822153,42.1669194 L69.3822153,42.7325864 C68.1434057,42.7325864 66.9045962,42.6212346 65.550342,42.901841 L65.5547822,41.258289 L65.5547822,41.258289 L65.5547822,41.258289 Z M61.4431777,40.6391732 C61.4431777,41.7126042 61.7806312,42.6167805 62.9661586,42.6167805 C64.3159726,42.6167805 65.5547822,41.2048402 65.5547822,39.9042516 L65.5547822,37.6460378 C65.5547822,36.2920003 64.6534261,34.4836477 63.0194408,34.4836477 C61.6119045,34.4836477 61.4431777,35.6149816 61.4431777,36.8576673 L61.4431777,40.6391732 Z M73.2140886,41.8774048 C73.2140886,42.6702294 72.5391816,43.2893452 71.8642746,43.2893452 C71.1893676,43.2893452 70.5144606,42.6702294 70.5144606,41.8774048 C70.5144606,41.1424832 71.1893676,40.5233674 71.8642746,40.5233674 C72.5391816,40.5233674 73.2140886,41.1469372 73.2140886,41.8774048 L73.2140886,41.8774048 Z M77.774151,39.8463486 C77.774151,41.8774048 78.2803312,42.6167805 79.6878675,42.6167805 C81.2064083,42.6167805 82.2232089,41.5433495 82.6139446,40.0156033 L83.1201248,40.0156033 C82.8403936,41.8818589 81.375135,43.0087387 79.5724229,43.0087387 C76.926077,43.0087387 75.1766471,40.9197796 75.2876515,38.3765054 C75.3453738,37.3030744 75.9092764,35.891134 76.6951878,35.1562123 C77.5965439,34.3633878 78.551182,34.0827813 79.7367095,34.0827813 C81.0332413,34.0827813 82.9469579,34.6484483 82.9469579,36.2296433 C82.9469579,36.8532132 82.4940598,37.472329 81.8768751,37.472329 C81.2019681,37.472329 80.5270611,37.1917226 80.5270611,36.398898 C80.5270611,35.7753281 81.2019681,35.6060735 81.2019681,35.2141153 C81.2019681,34.6484483 80.0208808,34.4791936 79.6834273,34.4791936 C77.600984,34.4791936 77.7697108,36.6260556 77.7697108,38.1493478 L77.774151,39.8463486 L77.774151,39.8463486 L77.774151,39.8463486 Z M89.3230529,34.0827813 C91.7429497,34.0827813 93.8298332,36.1717404 93.8298332,38.603663 C93.825393,40.9776826 91.7473899,43.0087387 89.3230529,43.0087387 C86.8987159,43.0087387 84.8162727,40.9776826 84.8162727,38.603663 C84.8162727,36.1717404 86.8987159,34.0827813 89.3230529,34.0827813 Z M89.3230529,34.4791936 C87.2406096,34.4791936 87.3516141,36.1717404 87.3516141,38.603663 C87.3516141,41.3740948 87.4093364,42.6167805 89.3230529,42.6167805 C91.2367695,42.6167805 91.2944918,41.3740948 91.2944918,38.608117 C91.2900516,36.1717404 91.4054962,34.4791936 89.3230529,34.4791936 L89.3230529,34.4791936 Z M98.7806312,36.1761945 L98.8383535,36.1761945 C99.4022561,34.8756059 100.356894,34.0872354 101.822153,34.0872354 C103.00324,34.0872354 103.904596,34.7108053 104.299772,35.8376851 C104.916957,34.7642541 105.818313,34.0872354 107.061562,34.0872354 C109.876635,34.0872354 109.650186,35.7797822 109.650186,38.0424501 L109.650186,42.1669194 L111,42.1669194 L111,42.7325864 L106.213489,42.7325864 L106.213489,42.1669194 L107.394576,42.1669194 L107.394576,36.398898 C107.394576,35.8332311 107.447858,34.817703 106.49322,34.817703 C104.859234,34.817703 104.23761,36.6795045 104.23761,38.037996 L104.23761,42.1624653 L105.423137,42.1624653 L105.423137,42.7281323 L100.805352,42.7281323 L100.805352,42.1624653 L101.933157,42.1624653 L101.928717,37.0224679 C101.933157,36.0648427 102.212889,34.822157 100.916357,34.822157 C99.8462739,34.822157 98.776191,36.461255 98.776191,38.0424501 L98.776191,42.1669194 L99.9617185,42.1669194 L99.9617185,42.7325864 L95.1174847,42.7325864 L95.1174847,42.1669194 L96.525021,42.1669194 L96.525021,34.7063512 L95.0642026,34.7063512 L95.0642026,34.1985872 C96.1342854,34.2564901 97.4263771,34.1406843 98.7806312,34.0872354 L98.7806312,36.1761945 L98.7806312,36.1761945 L98.7806312,36.1761945 Z M43.6469459,24.2526476 L43.6469459,23.3484713 L46.5197408,23.3484713 L54.9383175,0.18730437 L56.4568583,0.18730437 L64.4891396,23.3484713 L67.3619345,23.3484713 L67.3619345,24.2526476 L56.0350414,24.2526476 L56.0350414,23.3484713 L59.7559102,23.3484713 L54.0636025,6.85059393 L47.6431057,23.3484713 L51.2485299,23.3484713 L51.2485299,24.2526476 L43.6469459,24.2526476 L43.6469459,24.2526476 Z" id="Shape" fill-rule="nonzero"></path>
                        <path d="M55.0487805,22.2155012 C55.0487805,22.9312657 54.3861199,23.5342431 53.7234594,23.5342431 C53.0607989,23.5342431 52.3414634,22.9269278 52.3414634,22.2155012 C52.3414634,21.443343 53.0607989,20.8403656 53.7234594,20.8403656 C54.3861199,20.8924212 55.0487805,21.443343 55.0487805,22.2155012 Z" id="Path" fill-opacity="0.75"></path>
                    </g>
                </g>
                <g id="logo" transform="translate(143.000000, 3.000000)">
                    <g id="4">
                        <g id="g70">
                            <rect id="rect4" stroke="#655C7A" stroke-width="2.11896" x="0.338028169" y="0.342708333" width="59.2394366" height="40.7822917"></rect>
                            <g id="g68" transform="translate(2.957746, 2.998698)">
                                <g id="g64" transform="translate(18.169014, 7.282552)" fill="#DBD6E9" fill-rule="nonzero">
                                    <path d="M3.04225352,3.25572917 C3.04225352,4.32669271 3.84507042,5.18346354 4.6056338,5.99739583 C2.49295775,7.06835938 0.38028169,8.18216146 0.38028169,10.5382813 C0.38028169,12.6802083 2.74647887,14.4365885 5.66197183,14.4365885 C7.81690141,14.4365885 9.63380282,13.4084635 11.1126761,12.4660156 C11.3239437,12.6802083 12.8873239,14.2652344 12.8873239,14.2652344 L16.056338,14.2652344 C16.056338,14.2652344 13.2253521,11.4378906 12.9295775,11.1380208 C13.2676056,10.7953125 15.1690141,9.16744792 15.1690141,9.16744792 L13.3521127,8.01080729 C13.3521127,8.01080729 11.7464789,9.42447917 11.4507042,9.72434896 C11.1971831,9.46731771 8.66197183,6.98268229 8.28169014,6.59713542 C9.76056338,5.78320313 11.1549296,4.88359375 11.1549296,3.25572917 C11.1549296,1.62786458 9.42253521,0.385546875 7.22535211,0.385546875 C4.73239437,0.214192708 3.04225352,1.49934896 3.04225352,3.25572917 Z M0.887323944,10.5382812 C0.887323944,8.52486979 2.83098592,7.49674479 4.94366197,6.42578125 L5.45070423,6.16875 L5.02816901,5.69752604 C4.30985915,4.96927083 3.54929577,4.15533854 3.54929577,3.29856771 C3.54929577,1.79921875 5.02816901,0.77109375 7.05633803,0.77109375 C8.95774648,0.77109375 10.4366197,1.79921875 10.4366197,3.084375 C10.4366197,4.45520833 9.08450704,5.26914062 7.64788732,6.08307292 L7.22535211,6.29726562 L11.2816901,10.28125 C11.2816901,10.28125 13.0140845,8.7390625 13.2253521,8.52486979 C13.3943662,8.65338542 13.8591549,8.91041667 14.1549296,9.12460937 C13.7323944,9.51015625 12,11.0095052 12,11.0095052 C12,11.0095052 13.9859155,12.9800781 14.6619718,13.6226562 C14.028169,13.6226562 13.0985915,13.6226562 12.971831,13.6226562 C12.8450704,13.4941406 11.0704225,11.6949219 11.0704225,11.6949219 L10.9014085,11.8234375 C9.54929577,12.8515625 7.73239437,13.836849 5.61971831,13.836849 C3,13.836849 0.887323944,12.3803385 0.887323944,10.5382812 Z" id="path58"></path>
                                    <path d="M4.85915493,2.78450521 C4.85915493,3.46992187 5.32394366,3.94114583 5.78873239,4.41236979 L6.54929577,5.18346354 L6.88732394,5.01210937 L7.26760563,4.79791667 C8.11267606,4.28385417 9.16901408,3.72695312 9.16901408,2.65598958 C9.16901408,1.71354167 8.23943662,1.028125 7.01408451,1.028125 C5.83098592,1.11380208 4.85915493,1.84205729 4.85915493,2.78450521 Z M6.16901408,4.1125 C5.78873239,3.68411458 5.45070423,3.29856771 5.45070423,2.82734375 C5.45070423,2.18476562 6.16901408,1.62786458 7.09859155,1.62786458 C7.85915493,1.62786458 8.70422535,2.05625 8.70422535,2.74166667 C8.70422535,3.51276042 7.94366197,3.94114583 7.05633803,4.45520833 C7.05633803,4.45520833 6.71830986,4.6265625 6.67605634,4.6265625 C6.50704225,4.45520833 6.16901408,4.1125 6.16901408,4.1125 Z" id="path60"></path>
                                    <path d="M5.02816901,7.28255208 C3.71830986,7.96796875 2.07042254,8.86757812 2.07042254,10.3240885 C2.07042254,11.6949219 3.63380282,12.9372396 5.36619718,12.9372396 C7.14084507,12.9372396 8.66197183,11.9091146 9.88732394,11.0951823 L10.2676056,10.8809896 L6.08450704,6.76848958 L5.02816901,7.28255208 Z M5.91549296,7.36822917 C6.12676056,7.58242187 8.95774648,10.4097656 9.38028169,10.7953125 C8.23943662,11.5235677 6.88732394,12.4231771 5.32394366,12.4231771 C3.84507042,12.4231771 2.53521127,11.3950521 2.53521127,10.28125 C2.53521127,9.08177083 3.92957746,8.35351562 5.23943662,7.7109375 C5.23943662,7.75377604 5.70422535,7.45390625 5.91549296,7.36822917 Z" id="path62"></path>
                                </g>
                                <g id="Group">
                                    <path d="M27.0422535,9.98138021 C27.0422535,9.21028646 26.1971831,8.65338542 25.1830986,8.65338542 C24.1267606,8.65338542 23.3239437,9.29596354 23.3239437,10.0670573 C23.3239437,10.7096354 23.8732394,11.2236979 24.3802817,11.7377604 L24.8028169,12.1661458 L24.9295775,12.1233073 C25.8591549,11.5664062 27.0422535,11.0523437 27.0422535,9.98138021 Z" id="Path"></path>
                                    <path d="M9.8028169,10.28125 C11.1549296,10.28125 12.7183099,10.1527344 12.7183099,8.35351562 C12.7183099,6.42578125 10.943662,6.55429687 9.5915493,6.55429687 L8.95774648,6.55429687 L8.95774648,10.3240885 L9.8028169,10.3240885 L9.8028169,10.28125 Z" id="Path"></path>
                                    <path d="M22.4788732,19.7485677 C22.8169014,19.8342448 23.1549296,19.9199219 23.4929577,19.9199219 C25.2253521,19.9199219 26.7464789,18.8917969 27.971831,18.0778646 L24.1267606,14.3080729 L23.3239437,14.7792969 C22.7323944,15.0791667 22.0985915,15.421875 21.5915493,15.8502604 C22.1830986,16.7927083 22.5211268,17.949349 22.5211268,19.2773437 C22.4788732,19.4058594 22.4788732,19.5772135 22.4788732,19.7485677 Z" id="Path"></path>
                                    <path d="M9.84507042,15.8074219 L8.91549296,15.8074219 L8.91549296,20.1769531 L9.97183099,20.1769531 C11.5352113,20.1769531 13.7746479,20.1341146 13.7746479,17.949349 C13.7323944,15.7645833 11.3239437,15.8074219 9.84507042,15.8074219 Z" id="Path"></path>
                                    <path d="M18.8028169,17.8208333 C18.8028169,16.45 19.6056338,15.5075521 20.7042254,14.7364583 C19.943662,14.0082031 19.0140845,13.4084635 17.8732394,12.9800781 L17.8732394,12.7658854 C20.1549296,12.0376302 21.2957746,9.7671875 21.2957746,7.45390625 C21.2957746,1.37083333 16.1408451,0.171354167 11.1549296,0.171354167 L0.169014085,0.171354167 L0.169014085,26.5170573 L12.971831,26.5170573 C16.9014085,26.5170573 21.1690141,25.146224 22.2253521,21.2479167 C20.3239437,20.7338542 18.8028169,19.4486979 18.8028169,17.8208333 Z M8.91549296,6.51145833 L9.54929577,6.51145833 C10.9014085,6.51145833 12.6760563,6.38294271 12.6760563,8.31067708 C12.6760563,10.1098958 11.1126761,10.2384115 9.76056338,10.2384115 L9.76056338,10.28125 L8.91549296,10.28125 L8.91549296,6.51145833 Z M9.97183099,20.2197917 L8.91549296,20.2197917 L8.91549296,15.8074219 L9.84507042,15.8074219 C11.3661972,15.8074219 13.7746479,15.7645833 13.7746479,17.9921875 C13.7323944,20.1769531 11.5352113,20.2197917 9.97183099,20.2197917 Z" id="Shape" fill="#DBD6E9" fill-rule="nonzero"></path>
                                    <path d="M20.4929577,17.5638021 C20.4929577,18.5490885 21.3380282,19.4058594 22.4788732,19.7485677 C22.4788732,19.5772135 22.5211268,19.4058594 22.5211268,19.2345052 C22.5211268,17.9065104 22.1830986,16.7498698 21.5915493,15.8074219 C20.9577465,16.2786458 20.4929577,16.8355469 20.4929577,17.5638021 Z" id="Path" fill="#DBD6E9"></path>
                                    <polygon id="Path" fill="#DBD6E9" points="44.7464789 0.171354167 44.7464789 9.03893229 38.9577465 9.03893229 38.9577465 0.171354167 29.8309859 0.171354167 29.8309859 16.8783854 31.4366197 15.4647135 32.7887324 16.3214844 30.5915493 18.2492187 33.5070423 21.119401 31.0985915 21.119401 29.8309859 19.8770833 29.8309859 26.4742187 38.9577465 26.4742187 38.9577465 17.3496094 44.7464789 17.3496094 44.7464789 26.5170573 53.8309859 26.5170573 53.8309859 0.171354167"></polygon>
                                </g>
                            </g>
                        </g>
                        <g id="Group" transform="translate(3.478261, 29.750000)" fill="#DBD6E9">
                            <path d="M27.1671196,3.0625 C26.9565217,3.0625 26.7880435,3.15972222 26.6616848,3.35416667 C26.5353261,3.54861111 26.451087,3.88888889 26.451087,4.32638889 C26.451087,4.76388889 26.5353261,5.05555556 26.6616848,5.29861111 C26.7880435,5.49305556 26.9565217,5.63888889 27.1671196,5.63888889 C27.3777174,5.63888889 27.5461957,5.54166667 27.6725543,5.34722222 C27.798913,5.15277778 27.8831522,4.8125 27.8831522,4.375 C27.8831522,3.9375 27.798913,3.64583333 27.6725543,3.45138889 C27.5461957,3.15972222 27.3777174,3.0625 27.1671196,3.0625 Z" id="Path"></path>
                            <path d="M36.138587,3.59722222 C36.138587,3.5 36.138587,3.40277778 36.0964674,3.30555556 C36.0543478,3.20833333 36.0122283,3.20833333 35.9279891,3.15972222 C35.8858696,3.15972222 35.7173913,3.11111111 35.5067935,3.11111111 L35.0855978,3.11111111 L35.0855978,4.03472222 L35.4646739,4.03472222 C35.7173913,4.03472222 35.84375,4.03472222 35.9279891,3.98611111 C36.0122283,3.98611111 36.0543478,3.9375 36.0964674,3.84027778 C36.138587,3.74305556 36.138587,3.69444444 36.138587,3.59722222 Z" id="Path"></path>
                            <path d="M33.3165761,3.15972222 C33.232337,3.11111111 33.1059783,3.11111111 32.8953804,3.11111111 L32.642663,3.11111111 L32.642663,4.18055556 L32.9375,4.18055556 C33.1480978,4.18055556 33.2744565,4.18055556 33.3165761,4.13194444 C33.4008152,4.08333333 33.4429348,4.03472222 33.4850543,3.9375 C33.5271739,3.84027778 33.5692935,3.74305556 33.5692935,3.64583333 C33.5692935,3.5 33.5271739,3.40277778 33.4850543,3.35416667 C33.4429348,3.25694444 33.4008152,3.20833333 33.3165761,3.15972222 Z" id="Path"></path>
                            <path d="M38.3288043,3.0625 C38.1182065,3.0625 37.9497283,3.15972222 37.8233696,3.35416667 C37.6970109,3.54861111 37.6127717,3.88888889 37.6127717,4.32638889 C37.6127717,4.76388889 37.6970109,5.05555556 37.8233696,5.29861111 C37.9497283,5.49305556 38.1182065,5.63888889 38.3288043,5.63888889 C38.5394022,5.63888889 38.7078804,5.54166667 38.8342391,5.34722222 C38.9605978,5.15277778 39.044837,4.8125 39.044837,4.375 C39.044837,3.9375 38.9605978,3.64583333 38.8342391,3.45138889 C38.7078804,3.15972222 38.5394022,3.0625 38.3288043,3.0625 Z" id="Path"></path>
                            <path d="M2.52717391,3.15972222 C2.44293478,3.11111111 2.31657609,3.11111111 2.10597826,3.11111111 L1.85326087,3.11111111 L1.85326087,4.18055556 L2.10597826,4.18055556 C2.31657609,4.18055556 2.44293478,4.18055556 2.48505435,4.13194444 C2.56929348,4.08333333 2.61141304,4.03472222 2.65353261,3.9375 C2.69565217,3.84027778 2.73777174,3.74305556 2.73777174,3.64583333 C2.73777174,3.5 2.69565217,3.40277778 2.65353261,3.35416667 C2.65353261,3.25694444 2.56929348,3.20833333 2.52717391,3.15972222 Z" id="Path"></path>
                            <path d="M22.3654891,3.35416667 C22.28125,3.25694444 22.1970109,3.20833333 22.1127717,3.15972222 C22.0285326,3.15972222 21.9021739,3.11111111 21.6915761,3.11111111 L21.4388587,3.11111111 L21.4388587,5.54166667 L21.8179348,5.54166667 C21.986413,5.54166667 22.1127717,5.54166667 22.1970109,5.49305556 C22.28125,5.44444444 22.3233696,5.39583333 22.3654891,5.34722222 C22.4076087,5.25 22.4497283,5.15277778 22.4918478,5.00694444 C22.5339674,4.86111111 22.5339674,4.61805556 22.5339674,4.375 C22.5339674,4.08333333 22.5339674,3.88888889 22.4918478,3.74305556 C22.4918478,3.54861111 22.4497283,3.40277778 22.3654891,3.35416667 Z" id="Path"></path>
                            <path d="M7.53940217,3.0625 C7.32880435,3.0625 7.16032609,3.15972222 7.03396739,3.35416667 C6.9076087,3.54861111 6.82336957,3.88888889 6.82336957,4.32638889 C6.82336957,4.76388889 6.9076087,5.05555556 7.03396739,5.29861111 C7.16032609,5.49305556 7.32880435,5.63888889 7.53940217,5.63888889 C7.75,5.63888889 7.91847826,5.54166667 8.04483696,5.34722222 C8.17119565,5.15277778 8.25543478,4.8125 8.25543478,4.375 C8.25543478,3.9375 8.17119565,3.64583333 8.04483696,3.45138889 C7.91847826,3.15972222 7.75,3.0625 7.53940217,3.0625 Z" id="Path"></path>
                            <path d="M12.5516304,3.0625 C12.3410326,3.0625 12.1725543,3.15972222 12.0461957,3.35416667 C11.919837,3.54861111 11.8355978,3.88888889 11.8355978,4.32638889 C11.8355978,4.76388889 11.919837,5.05555556 12.0461957,5.29861111 C12.1725543,5.49305556 12.3410326,5.63888889 12.5516304,5.63888889 C12.7622283,5.63888889 12.9307065,5.54166667 13.0570652,5.34722222 C13.1834239,5.15277778 13.267663,4.8125 13.267663,4.375 C13.267663,3.9375 13.1834239,3.64583333 13.0570652,3.45138889 C12.9307065,3.15972222 12.7622283,3.0625 12.5516304,3.0625 Z" id="Path"></path>
                            <path d="M47.6372283,3.35416667 C47.5529891,3.25694444 47.46875,3.20833333 47.3845109,3.15972222 C47.3002717,3.15972222 47.173913,3.11111111 46.9633152,3.11111111 L46.7105978,3.11111111 L46.7105978,5.54166667 L47.0896739,5.54166667 C47.2581522,5.54166667 47.3845109,5.54166667 47.46875,5.49305556 C47.5529891,5.44444444 47.5951087,5.39583333 47.6372283,5.34722222 C47.6793478,5.29861111 47.7214674,5.15277778 47.763587,5.00694444 C47.8057065,4.86111111 47.8057065,4.61805556 47.8057065,4.375 C47.8057065,4.08333333 47.8057065,3.88888889 47.763587,3.74305556 C47.7214674,3.54861111 47.6793478,3.40277778 47.6372283,3.35416667 Z" id="Path"></path>
                            <path d="M0.168478261,0.145833333 L0.168478261,8.45833333 L53.6603261,8.45833333 L53.6603261,0.145833333 L0.168478261,0.145833333 Z M3.15896739,4.27777778 C3.07472826,4.47222222 2.94836957,4.56944444 2.82201087,4.66666667 C2.69565217,4.71527778 2.48505435,4.76388889 2.14809783,4.76388889 L1.8111413,4.76388889 L1.8111413,6.17361111 L1.26358696,6.17361111 L1.26358696,2.47916667 L2.10597826,2.47916667 C2.44293478,2.47916667 2.61141304,2.47916667 2.73777174,2.52777778 C2.90625,2.57638889 3.0326087,2.72222222 3.11684783,2.86805556 C3.20108696,3.0625 3.28532609,3.30555556 3.28532609,3.59722222 C3.28532609,3.88888889 3.24320652,4.13194444 3.15896739,4.27777778 Z M5.8125,6.17361111 L5.26494565,6.17361111 L5.26494565,4.56944444 L4.21195652,4.56944444 L4.21195652,6.17361111 L3.70652174,6.17361111 L3.70652174,2.47916667 L4.21195652,2.47916667 L4.21195652,3.9375 L5.26494565,3.9375 L5.26494565,2.47916667 L5.8125,2.47916667 L5.8125,6.17361111 Z M8.42391304,5.78472222 C8.21331522,6.07638889 7.91847826,6.22222222 7.53940217,6.22222222 C7.16032609,6.22222222 6.86548913,6.07638889 6.6548913,5.78472222 C6.40217391,5.44444444 6.27581522,4.95833333 6.27581522,4.375 C6.27581522,3.9375 6.31793478,3.59722222 6.44429348,3.30555556 C6.57065217,3.01388889 6.69701087,2.81944444 6.86548913,2.67361111 C7.03396739,2.52777778 7.28668478,2.47916667 7.53940217,2.47916667 C7.91847826,2.47916667 8.21331522,2.625 8.46603261,2.96527778 C8.71875,3.30555556 8.80298913,3.74305556 8.80298913,4.375 C8.80298913,4.95833333 8.67663043,5.44444444 8.42391304,5.78472222 Z M11.1195652,3.11111111 L10.361413,3.11111111 L10.361413,6.17361111 L9.8138587,6.17361111 L9.8138587,3.11111111 L9.05570652,3.11111111 L9.05570652,2.47916667 L11.1195652,2.47916667 L11.1195652,3.11111111 L11.1195652,3.11111111 Z M13.4361413,5.78472222 C13.2255435,6.07638889 12.9307065,6.22222222 12.5516304,6.22222222 C12.1725543,6.22222222 11.8777174,6.07638889 11.6671196,5.78472222 C11.4144022,5.44444444 11.2880435,4.95833333 11.2880435,4.375 C11.2880435,3.9375 11.330163,3.59722222 11.4565217,3.30555556 C11.5828804,3.01388889 11.7092391,2.81944444 11.8777174,2.67361111 C12.0461957,2.52777778 12.298913,2.47916667 12.5516304,2.47916667 C12.9307065,2.47916667 13.2255435,2.625 13.4782609,2.96527778 C13.7309783,3.30555556 13.8152174,3.74305556 13.8152174,4.375 C13.8152174,4.95833333 13.6888587,5.44444444 13.4361413,5.78472222 Z M16.0896739,5.20138889 L15.1209239,5.20138889 L15.1209239,4.47222222 L16.0896739,4.47222222 L16.0896739,5.20138889 Z M18.701087,6.17361111 L18.1535326,6.17361111 L17.2269022,2.47916667 L17.8165761,2.47916667 L18.4904891,5.20138889 L19.1222826,2.47916667 L19.669837,2.47916667 L18.701087,6.17361111 Z M20.4279891,6.17361111 L19.9225543,6.17361111 L19.9225543,2.47916667 L20.4279891,2.47916667 L20.4279891,6.17361111 Z M23.0394022,5.20138889 C22.9972826,5.44444444 22.9130435,5.63888889 22.7866848,5.73611111 C22.7024457,5.88194444 22.576087,5.97916667 22.4497283,6.02777778 C22.3233696,6.07638889 22.1548913,6.125 21.9442935,6.125 L20.9334239,6.125 L20.9334239,2.43055556 L21.9021739,2.43055556 C22.1548913,2.43055556 22.3233696,2.47916667 22.4497283,2.52777778 C22.576087,2.57638889 22.7024457,2.67361111 22.7866848,2.86805556 C22.8709239,3.01388889 22.955163,3.20833333 23.0394022,3.45138889 C23.0815217,3.69444444 23.1236413,3.98611111 23.1236413,4.32638889 C23.1236413,4.71527778 23.0815217,4.95833333 23.0394022,5.20138889 Z M25.5665761,6.17361111 L23.5869565,6.17361111 L23.5869565,2.47916667 L25.5244565,2.47916667 L25.5244565,3.11111111 L24.0923913,3.11111111 L24.0923913,3.9375 L25.3980978,3.9375 L25.3980978,4.56944444 L24.0923913,4.56944444 L24.0923913,5.59027778 L25.5665761,5.59027778 L25.5665761,6.17361111 L25.5665761,6.17361111 Z M28.0516304,5.78472222 C27.8410326,6.07638889 27.5461957,6.22222222 27.1671196,6.22222222 C26.7880435,6.22222222 26.4932065,6.07638889 26.2826087,5.78472222 C26.0298913,5.44444444 25.9035326,4.95833333 25.9035326,4.375 C25.9035326,3.9375 25.9456522,3.59722222 26.0720109,3.30555556 C26.1983696,3.01388889 26.3247283,2.81944444 26.4932065,2.67361111 C26.6616848,2.52777778 26.9144022,2.47916667 27.1671196,2.47916667 C27.5461957,2.47916667 27.8410326,2.625 28.09375,2.96527778 C28.3464674,3.30555556 28.4307065,3.74305556 28.4307065,4.375 C28.4307065,4.95833333 28.3043478,5.44444444 28.0516304,5.78472222 Z M30.705163,5.20138889 L29.736413,5.20138889 L29.736413,4.47222222 L30.705163,4.47222222 L30.705163,5.20138889 Z M33.9483696,4.27777778 C33.8641304,4.47222222 33.7377717,4.56944444 33.611413,4.66666667 C33.4850543,4.71527778 33.2744565,4.76388889 32.9375,4.76388889 L32.6005435,4.76388889 L32.6005435,6.17361111 L32.0529891,6.17361111 L32.0529891,2.47916667 L32.8953804,2.47916667 C33.1902174,2.47916667 33.4008152,2.47916667 33.5271739,2.52777778 C33.6956522,2.57638889 33.8220109,2.72222222 33.90625,2.86805556 C33.9904891,3.0625 34.0747283,3.30555556 34.0747283,3.59722222 C34.1168478,3.88888889 34.0747283,4.13194444 33.9483696,4.27777778 Z M36.2649457,6.17361111 L35.8858696,5.39583333 C35.7595109,5.10416667 35.6752717,4.90972222 35.5910326,4.86111111 C35.548913,4.76388889 35.5067935,4.71527778 35.4225543,4.71527778 C35.3383152,4.71527778 35.2961957,4.66666667 35.169837,4.66666667 L35.0434783,4.66666667 L35.0434783,6.22222222 L34.5380435,6.22222222 L34.5380435,2.52777778 L35.6331522,2.52777778 C35.9279891,2.52777778 36.138587,2.57638889 36.2228261,2.625 C36.3491848,2.67361111 36.4334239,2.81944444 36.517663,2.96527778 C36.6019022,3.11111111 36.6440217,3.30555556 36.6440217,3.54861111 C36.6440217,3.84027778 36.6019022,4.08333333 36.4755435,4.22916667 C36.3491848,4.42361111 36.1807065,4.52083333 35.9701087,4.56944444 C36.0964674,4.66666667 36.1807065,4.76388889 36.2649457,4.86111111 C36.3491848,4.95833333 36.4334239,5.15277778 36.5597826,5.44444444 L36.8967391,6.17361111 L36.2649457,6.17361111 L36.2649457,6.17361111 Z M39.2133152,5.78472222 C39.0027174,6.07638889 38.7078804,6.22222222 38.3288043,6.22222222 C37.9497283,6.22222222 37.6548913,6.07638889 37.4442935,5.78472222 C37.1915761,5.44444444 37.0652174,4.95833333 37.0652174,4.375 C37.0652174,3.9375 37.107337,3.59722222 37.2336957,3.30555556 C37.3600543,3.01388889 37.486413,2.81944444 37.6548913,2.67361111 C37.8233696,2.52777778 38.076087,2.47916667 38.3288043,2.47916667 C38.7078804,2.47916667 39.0027174,2.625 39.2554348,2.96527778 C39.5081522,3.30555556 39.5923913,3.74305556 39.5923913,4.375 C39.5923913,4.95833333 39.4660326,5.44444444 39.2133152,5.78472222 Z M42.6671196,6.17361111 L42.4565217,5.34722222 L41.4035326,5.34722222 L41.1929348,6.17361111 L40.6453804,6.17361111 L41.65625,2.47916667 L42.2038043,2.47916667 L43.2567935,6.17361111 L42.6671196,6.17361111 Z M45.6154891,4.42361111 C45.6154891,4.90972222 45.5733696,5.25 45.53125,5.49305556 C45.4891304,5.73611111 45.3627717,5.88194444 45.236413,6.02777778 C45.0679348,6.17361111 44.857337,6.22222222 44.6046196,6.22222222 C44.3519022,6.22222222 44.0991848,6.17361111 43.9728261,6.07638889 C43.8043478,5.97916667 43.7201087,5.78472222 43.6358696,5.59027778 C43.5516304,5.39583333 43.5516304,5.00694444 43.5516304,4.47222222 L43.5516304,2.52777778 L44.0570652,2.52777778 L44.0570652,4.52083333 C44.0570652,4.8125 44.0570652,5.05555556 44.0570652,5.10416667 C44.0991848,5.25 44.1413043,5.39583333 44.2255435,5.49305556 C44.3097826,5.59027778 44.4361413,5.63888889 44.5625,5.63888889 C44.6888587,5.63888889 44.7730978,5.59027778 44.857337,5.54166667 C44.9415761,5.49305556 44.9836957,5.39583333 45.0258152,5.29861111 C45.0679348,5.20138889 45.0679348,4.95833333 45.0679348,4.56944444 L45.0679348,2.52777778 L45.6154891,2.52777778 L45.6154891,4.42361111 Z M48.2690217,5.20138889 C48.2269022,5.44444444 48.142663,5.63888889 48.0163043,5.73611111 C47.9320652,5.88194444 47.8057065,5.97916667 47.6793478,6.02777778 C47.5529891,6.07638889 47.3845109,6.125 47.173913,6.125 L46.1630435,6.125 L46.1630435,2.43055556 L47.1317935,2.43055556 C47.3845109,2.43055556 47.5529891,2.47916667 47.6793478,2.52777778 C47.8057065,2.57638889 47.9320652,2.67361111 48.0163043,2.86805556 C48.1005435,3.01388889 48.1847826,3.20833333 48.2690217,3.45138889 C48.3111413,3.69444444 48.3532609,3.98611111 48.3532609,4.32638889 C48.3532609,4.71527778 48.3111413,4.95833333 48.2690217,5.20138889 Z M49.3220109,6.17361111 L48.7744565,6.17361111 L48.7744565,2.47916667 L49.3220109,2.47916667 L49.3220109,6.17361111 Z M51.8913043,5.78472222 C51.6807065,6.07638889 51.3858696,6.22222222 51.0067935,6.22222222 C50.6277174,6.22222222 50.3328804,6.07638889 50.1222826,5.78472222 C49.8695652,5.44444444 49.7432065,4.95833333 49.7432065,4.375 C49.7432065,3.9375 49.7853261,3.59722222 49.9116848,3.30555556 C50.0380435,3.01388889 50.1644022,2.81944444 50.3328804,2.67361111 C50.5013587,2.52777778 50.7540761,2.47916667 51.0067935,2.47916667 C51.3858696,2.47916667 51.6807065,2.625 51.9334239,2.96527778 C52.1861413,3.30555556 52.2703804,3.74305556 52.2703804,4.375 C52.2703804,4.95833333 52.1440217,5.44444444 51.8913043,5.78472222 Z" id="Shape" fill-rule="nonzero"></path>
                            <path d="M51.0067935,3.0625 C50.7961957,3.0625 50.6277174,3.15972222 50.5013587,3.35416667 C50.375,3.54861111 50.2907609,3.88888889 50.2907609,4.32638889 C50.2907609,4.76388889 50.375,5.05555556 50.5013587,5.29861111 C50.6277174,5.49305556 50.7961957,5.63888889 51.0067935,5.63888889 C51.2173913,5.63888889 51.3858696,5.54166667 51.5122283,5.34722222 C51.638587,5.15277778 51.7228261,4.8125 51.7228261,4.375 C51.7228261,3.9375 51.638587,3.64583333 51.5122283,3.45138889 C51.3858696,3.15972222 51.2173913,3.0625 51.0067935,3.0625 Z" id="Path"></path>
                            <polygon id="Path" points="41.5720109 4.71527778 42.2880435 4.71527778 41.9089674 3.35416667"></polygon>
                        </g>
                    </g>
                </g>
            </g>
        </g>
    </g>
</svg>