<?xml version="1.0" encoding="UTF-8"?>
<svg width="64px" height="44px" viewBox="0 0 64 44" version="1.1" xmlns="http://www.w3.org/2000/svg" xmlns:xlink="http://www.w3.org/1999/xlink">
    <!-- Generator: Sketch 55.1 (78136) - https://sketchapp.com -->
    <title>customer logos / logo 4</title>
    <desc>Created with Sketch.</desc>
    <g id="💵-Fraudfix" stroke="none" stroke-width="1" fill="none" fill-rule="evenodd" opacity="0.5">
        <g id="Home" transform="translate(-816.000000, -942.000000)">
            <g id="top" transform="translate(-43.000000, 77.000000)">
                <g id="logos" transform="translate(261.000000, 792.000000)">
                    <g id="customer-logos-/-logo-4" transform="translate(599.000000, 73.000000)">
                        <g id="logo" transform="translate(0.000000, 0.791411)">
                            <g id="4">
                                <g id="g70">
                                    <rect id="rect4" stroke="#655C7A" stroke-width="2.11896" x="0.349295775" y="0.350868056" width="61.2140845" height="41.7532986"></rect>
                                    <g id="g68" transform="translate(3.056338, 3.070095)">
                                        <g id="g64" transform="translate(18.774648, 7.455946)" fill="#DBD6E9" fill-rule="nonzero">
                                            <path d="M3.14366197,3.33324653 C3.14366197,4.4297092 3.97323944,5.30687934 4.75915493,6.14019097 C2.57605634,7.23665365 0.392957746,8.37697483 0.392957746,10.7891927 C0.392957746,12.9821181 2.83802817,14.7803168 5.85070423,14.7803168 C8.07746479,14.7803168 9.95492958,13.7277127 11.4830986,12.7628255 C11.7014085,12.9821181 13.3169014,14.6048828 13.3169014,14.6048828 L16.5915493,14.6048828 C16.5915493,14.6048828 13.6661972,11.7102214 13.3605634,11.4032118 C13.7098592,11.0523438 15.6746479,9.38572049 15.6746479,9.38572049 L13.7971831,8.2015408 C13.7971831,8.2015408 12.1380282,9.64887153 11.8323944,9.95588108 C11.5704225,9.69273003 8.95070423,7.14893663 8.55774648,6.75421007 C10.0859155,5.92089844 11.5267606,4.99986979 11.5267606,3.33324653 C11.5267606,1.66662326 9.73661972,0.394726562 7.46619718,0.394726562 C4.89014085,0.219292535 3.14366197,1.53504774 3.14366197,3.33324653 Z M0.916901408,10.7891927 C0.916901408,8.72784288 2.92535211,7.67523872 5.1084507,6.57877604 L5.63239437,6.315625 L5.19577465,5.83318142 C4.45352113,5.08758681 3.66760563,4.25427517 3.66760563,3.37710503 C3.66760563,1.84205729 5.19577465,0.789453125 7.2915493,0.789453125 C9.25633803,0.789453125 10.784507,1.84205729 10.784507,3.1578125 C10.784507,4.56128472 9.38732394,5.39459635 7.9028169,6.22790799 L7.46619718,6.44720052 L11.6577465,10.5260417 C11.6577465,10.5260417 13.4478873,8.94713542 13.6661972,8.72784288 C13.8408451,8.8594184 14.3211268,9.12256944 14.6267606,9.34186198 C14.1901408,9.73658854 12.4,11.2716363 12.4,11.2716363 C12.4,11.2716363 14.4521127,13.2891276 15.1507042,13.9470052 C14.4957746,13.9470052 13.5352113,13.9470052 13.4042254,13.9470052 C13.2732394,13.8154297 11.4394366,11.9733724 11.4394366,11.9733724 L11.2647887,12.1049479 C9.86760563,13.1575521 7.99014085,14.1662977 5.80704225,14.1662977 C3.1,14.1662977 0.916901408,12.6751085 0.916901408,10.7891927 Z" id="path58"></path>
                                            <path d="M5.02112676,2.85080295 C5.02112676,3.55253906 5.50140845,4.03498264 5.98169014,4.51742622 L6.76760563,5.30687934 L7.11690141,5.13144531 L7.50985915,4.91215278 C8.38309859,4.38585069 9.47464789,3.8156901 9.47464789,2.71922743 C9.47464789,1.75434028 8.51408451,1.05260417 7.24788732,1.05260417 C6.02535211,1.14032118 5.02112676,1.8859158 5.02112676,2.85080295 Z M6.37464789,4.21041667 C5.98169014,3.7718316 5.63239437,3.37710503 5.63239437,2.89466146 C5.63239437,2.23678385 6.37464789,1.66662326 7.33521127,1.66662326 C8.12112676,1.66662326 8.9943662,2.10520833 8.9943662,2.80694444 C8.9943662,3.59639757 8.2084507,4.03498264 7.2915493,4.56128472 C7.2915493,4.56128472 6.94225352,4.73671875 6.89859155,4.73671875 C6.72394366,4.56128472 6.37464789,4.21041667 6.37464789,4.21041667 Z" id="path60"></path>
                                            <path d="M5.19577465,7.45594618 C3.84225352,8.15768229 2.13943662,9.07871094 2.13943662,10.5699002 C2.13943662,11.9733724 3.75492958,13.2452691 5.54507042,13.2452691 C7.37887324,13.2452691 8.95070423,12.1926649 10.2169014,11.3593533 L10.6098592,11.1400608 L6.28732394,6.9296441 L5.19577465,7.45594618 Z M6.11267606,7.54366319 C6.33098592,7.76295573 9.25633803,10.6576172 9.69295775,11.0523437 C8.51408451,11.7979384 7.11690141,12.718967 5.50140845,12.718967 C3.97323944,12.718967 2.61971831,11.6663628 2.61971831,10.5260417 C2.61971831,9.29800347 4.06056338,8.55240885 5.41408451,7.89453125 C5.41408451,7.93838976 5.8943662,7.63138021 6.11267606,7.54366319 Z" id="path62"></path>
                                        </g>
                                        <g id="Group">
                                            <path d="M27.943662,10.2190321 C27.943662,9.42957899 27.0704225,8.8594184 26.0225352,8.8594184 C24.9309859,8.8594184 24.1014085,9.51729601 24.1014085,10.3067491 C24.1014085,10.9646267 24.6690141,11.4909288 25.1929577,12.0172309 L25.6295775,12.455816 L25.7605634,12.4119575 C26.7211268,11.8417969 27.943662,11.3154948 27.943662,10.2190321 Z" id="Path"></path>
                                            <path d="M10.1295775,10.5260417 C11.5267606,10.5260417 13.1422535,10.3944661 13.1422535,8.55240885 C13.1422535,6.57877604 11.3084507,6.71035156 9.91126761,6.71035156 L9.25633803,6.71035156 L9.25633803,10.5699002 L10.1295775,10.5699002 L10.1295775,10.5260417 Z" id="Path"></path>
                                            <path d="M23.228169,20.2187717 C23.5774648,20.3064887 23.9267606,20.3942057 24.2760563,20.3942057 C26.0661972,20.3942057 27.6380282,19.3416016 28.9042254,18.5082899 L24.9309859,14.6487413 L24.1014085,15.1311849 C23.4901408,15.4381944 22.8352113,15.7890625 22.3112676,16.2276476 C22.9225352,17.1925347 23.271831,18.3767144 23.271831,19.7363281 C23.228169,19.8679036 23.228169,20.0433377 23.228169,20.2187717 Z" id="Path"></path>
                                            <path d="M10.1732394,16.1837891 L9.21267606,16.1837891 L9.21267606,20.6573568 L10.3042254,20.6573568 C11.9197183,20.6573568 14.2338028,20.6134983 14.2338028,18.3767144 C14.1901408,16.1399306 11.7014085,16.1837891 10.1732394,16.1837891 Z" id="Path"></path>
                                            <path d="M19.4295775,18.2451389 C19.4295775,16.8416667 20.2591549,15.8767795 21.3943662,15.0873264 C20.6084507,14.3417318 19.6478873,13.7277127 18.4690141,13.2891276 L18.4690141,13.0698351 C20.8267606,12.3242405 22.0056338,9.99973958 22.0056338,7.63138021 C22.0056338,1.40347222 16.6788732,0.175434028 11.5267606,0.175434028 L0.174647887,0.175434028 L0.174647887,27.1484158 L13.4042254,27.1484158 C17.4647887,27.1484158 21.8746479,25.7449436 22.9661972,21.7538194 C21.0014085,21.2275174 19.4295775,19.9117622 19.4295775,18.2451389 Z M9.21267606,6.66649306 L9.86760563,6.66649306 C11.2647887,6.66649306 13.0985915,6.53491753 13.0985915,8.50855035 C13.0985915,10.3506076 11.4830986,10.4821832 10.0859155,10.4821832 L10.0859155,10.5260417 L9.21267606,10.5260417 L9.21267606,6.66649306 Z M10.3042254,20.7012153 L9.21267606,20.7012153 L9.21267606,16.1837891 L10.1732394,16.1837891 C11.7450704,16.1837891 14.2338028,16.1399306 14.2338028,18.4205729 C14.1901408,20.6573568 11.9197183,20.7012153 10.3042254,20.7012153 Z" id="Shape" fill="#DBD6E9" fill-rule="nonzero"></path>
                                            <path d="M21.1760563,17.9819878 C21.1760563,18.9907335 22.0492958,19.8679036 23.228169,20.2187717 C23.228169,20.0433377 23.271831,19.8679036 23.271831,19.6924696 C23.271831,18.3328559 22.9225352,17.1486762 22.3112676,16.1837891 C21.656338,16.6662326 21.1760563,17.2363932 21.1760563,17.9819878 Z" id="Path" fill="#DBD6E9"></path>
                                            <polygon id="Path" fill="#DBD6E9" points="46.2380282 0.175434028 46.2380282 9.25414497 40.256338 9.25414497 40.256338 0.175434028 30.8253521 0.175434028 30.8253521 17.2802517 32.484507 15.832921 33.8816901 16.7100911 31.6112676 18.683724 34.6239437 21.6222439 32.1352113 21.6222439 30.8253521 20.3503472 30.8253521 27.1045573 40.256338 27.1045573 40.256338 17.7626953 46.2380282 17.7626953 46.2380282 27.1484158 55.6253521 27.1484158 55.6253521 0.175434028"></polygon>
                                        </g>
                                    </g>
                                </g>
                                <g id="Group" transform="translate(3.594203, 30.458333)" fill="#DBD6E9">
                                    <path d="M28.0726902,3.13541667 C27.8550725,3.13541667 27.6809783,3.2349537 27.5504076,3.43402778 C27.419837,3.63310185 27.3327899,3.98148148 27.3327899,4.42939815 C27.3327899,4.87731481 27.419837,5.17592593 27.5504076,5.42476852 C27.6809783,5.62384259 27.8550725,5.77314815 28.0726902,5.77314815 C28.290308,5.77314815 28.4644022,5.67361111 28.5949728,5.47453704 C28.7255435,5.27546296 28.8125906,4.92708333 28.8125906,4.47916667 C28.8125906,4.03125 28.7255435,3.73263889 28.5949728,3.53356481 C28.4644022,3.2349537 28.290308,3.13541667 28.0726902,3.13541667 Z" id="Path"></path>
                                    <path d="M37.3432065,3.68287037 C37.3432065,3.58333333 37.3432065,3.4837963 37.299683,3.38425926 C37.2561594,3.28472222 37.2126359,3.28472222 37.1255888,3.2349537 C37.0820652,3.2349537 36.907971,3.18518519 36.6903533,3.18518519 L36.2551178,3.18518519 L36.2551178,4.13078704 L36.6468297,4.13078704 C36.907971,4.13078704 37.0385417,4.13078704 37.1255888,4.08101852 C37.2126359,4.08101852 37.2561594,4.03125 37.299683,3.93171296 C37.3432065,3.83217593 37.3432065,3.78240741 37.3432065,3.68287037 Z" id="Path"></path>
                                    <path d="M34.4271286,3.2349537 C34.3400815,3.18518519 34.2095109,3.18518519 33.9918931,3.18518519 L33.7307518,3.18518519 L33.7307518,4.28009259 L34.0354167,4.28009259 C34.2530344,4.28009259 34.3836051,4.28009259 34.4271286,4.23032407 C34.5141757,4.18055556 34.5576993,4.13078704 34.6012228,4.03125 C34.6447464,3.93171296 34.6882699,3.83217593 34.6882699,3.73263889 C34.6882699,3.58333333 34.6447464,3.4837963 34.6012228,3.43402778 C34.5576993,3.33449074 34.5141757,3.28472222 34.4271286,3.2349537 Z" id="Path"></path>
                                    <path d="M39.6064312,3.13541667 C39.3888134,3.13541667 39.2147192,3.2349537 39.0841486,3.43402778 C38.9535779,3.63310185 38.8665308,3.98148148 38.8665308,4.42939815 C38.8665308,4.87731481 38.9535779,5.17592593 39.0841486,5.42476852 C39.2147192,5.62384259 39.3888134,5.77314815 39.6064312,5.77314815 C39.8240489,5.77314815 39.9981431,5.67361111 40.1287138,5.47453704 C40.2592844,5.27546296 40.3463315,4.92708333 40.3463315,4.47916667 C40.3463315,4.03125 40.2592844,3.73263889 40.1287138,3.53356481 C39.9981431,3.2349537 39.8240489,3.13541667 39.6064312,3.13541667 Z" id="Path"></path>
                                    <path d="M2.61141304,3.2349537 C2.52436594,3.18518519 2.39379529,3.18518519 2.17617754,3.18518519 L1.91503623,3.18518519 L1.91503623,4.28009259 L2.17617754,4.28009259 C2.39379529,4.28009259 2.52436594,4.28009259 2.56788949,4.23032407 C2.65493659,4.18055556 2.69846014,4.13078704 2.7419837,4.03125 C2.78550725,3.93171296 2.8290308,3.83217593 2.8290308,3.73263889 C2.8290308,3.58333333 2.78550725,3.4837963 2.7419837,3.43402778 C2.7419837,3.33449074 2.65493659,3.28472222 2.61141304,3.2349537 Z" id="Path"></path>
                                    <path d="M23.1110054,3.43402778 C23.0239583,3.33449074 22.9369112,3.28472222 22.8498641,3.2349537 C22.762817,3.2349537 22.6322464,3.18518519 22.4146286,3.18518519 L22.1534873,3.18518519 L22.1534873,5.67361111 L22.5451993,5.67361111 C22.7192935,5.67361111 22.8498641,5.67361111 22.9369112,5.62384259 C23.0239583,5.57407407 23.0674819,5.52430556 23.1110054,5.47453704 C23.154529,5.375 23.1980525,5.27546296 23.2415761,5.12615741 C23.2850996,4.97685185 23.2850996,4.72800926 23.2850996,4.47916667 C23.2850996,4.18055556 23.2850996,3.98148148 23.2415761,3.83217593 C23.2415761,3.63310185 23.1980525,3.4837963 23.1110054,3.43402778 Z" id="Path"></path>
                                    <path d="M7.79071558,3.13541667 C7.57309783,3.13541667 7.39900362,3.2349537 7.26843297,3.43402778 C7.13786232,3.63310185 7.05081522,3.98148148 7.05081522,4.42939815 C7.05081522,4.87731481 7.13786232,5.17592593 7.26843297,5.42476852 C7.39900362,5.62384259 7.57309783,5.77314815 7.79071558,5.77314815 C8.00833333,5.77314815 8.18242754,5.67361111 8.31299819,5.47453704 C8.44356884,5.27546296 8.53061594,4.92708333 8.53061594,4.47916667 C8.53061594,4.03125 8.44356884,3.73263889 8.31299819,3.53356481 C8.18242754,3.2349537 8.00833333,3.13541667 7.79071558,3.13541667 Z" id="Path"></path>
                                    <path d="M12.9700181,3.13541667 C12.7524004,3.13541667 12.5783062,3.2349537 12.4477355,3.43402778 C12.3171649,3.63310185 12.2301178,3.98148148 12.2301178,4.42939815 C12.2301178,4.87731481 12.3171649,5.17592593 12.4477355,5.42476852 C12.5783062,5.62384259 12.7524004,5.77314815 12.9700181,5.77314815 C13.1876359,5.77314815 13.3617301,5.67361111 13.4923007,5.47453704 C13.6228714,5.27546296 13.7099185,4.92708333 13.7099185,4.47916667 C13.7099185,4.03125 13.6228714,3.73263889 13.4923007,3.53356481 C13.3617301,3.2349537 13.1876359,3.13541667 12.9700181,3.13541667 Z" id="Path"></path>
                                    <path d="M49.2251359,3.43402778 C49.1380888,3.33449074 49.0510417,3.28472222 48.9639946,3.2349537 C48.8769475,3.2349537 48.7463768,3.18518519 48.5287591,3.18518519 L48.2676178,3.18518519 L48.2676178,5.67361111 L48.6593297,5.67361111 C48.8334239,5.67361111 48.9639946,5.67361111 49.0510417,5.62384259 C49.1380888,5.57407407 49.1816123,5.52430556 49.2251359,5.47453704 C49.2686594,5.42476852 49.312183,5.27546296 49.3557065,5.12615741 C49.3992301,4.97685185 49.3992301,4.72800926 49.3992301,4.47916667 C49.3992301,4.18055556 49.3992301,3.98148148 49.3557065,3.83217593 C49.312183,3.63310185 49.2686594,3.4837963 49.2251359,3.43402778 Z" id="Path"></path>
                                    <path d="M0.174094203,0.149305556 L0.174094203,8.65972222 L55.4490036,8.65972222 L55.4490036,0.149305556 L0.174094203,0.149305556 Z M3.2642663,4.37962963 C3.1772192,4.5787037 3.04664855,4.67824074 2.9160779,4.77777778 C2.78550725,4.8275463 2.56788949,4.87731481 2.21970109,4.87731481 L1.87151268,4.87731481 L1.87151268,6.32060185 L1.30570652,6.32060185 L1.30570652,2.53819444 L2.17617754,2.53819444 C2.52436594,2.53819444 2.69846014,2.53819444 2.8290308,2.58796296 C3.003125,2.63773148 3.13369565,2.78703704 3.22074275,2.93634259 C3.30778986,3.13541667 3.39483696,3.38425926 3.39483696,3.68287037 C3.39483696,3.98148148 3.35131341,4.23032407 3.2642663,4.37962963 Z M6.00625,6.32060185 L5.44044384,6.32060185 L5.44044384,4.67824074 L4.35235507,4.67824074 L4.35235507,6.32060185 L3.83007246,6.32060185 L3.83007246,2.53819444 L4.35235507,2.53819444 L4.35235507,4.03125 L5.44044384,4.03125 L5.44044384,2.53819444 L6.00625,2.53819444 L6.00625,6.32060185 Z M8.70471014,5.9224537 C8.48709239,6.22106481 8.18242754,6.37037037 7.79071558,6.37037037 C7.39900362,6.37037037 7.09433877,6.22106481 6.87672101,5.9224537 C6.61557971,5.57407407 6.48500906,5.07638889 6.48500906,4.47916667 C6.48500906,4.03125 6.52853261,3.68287037 6.65910326,3.38425926 C6.78967391,3.08564815 6.92024457,2.88657407 7.09433877,2.73726852 C7.26843297,2.58796296 7.52957428,2.53819444 7.79071558,2.53819444 C8.18242754,2.53819444 8.48709239,2.6875 8.7482337,3.03587963 C9.009375,3.38425926 9.0964221,3.83217593 9.0964221,4.47916667 C9.0964221,5.07638889 8.96585145,5.57407407 8.70471014,5.9224537 Z M11.4902174,3.18518519 L10.7067935,3.18518519 L10.7067935,6.32060185 L10.1409873,6.32060185 L10.1409873,3.18518519 L9.35756341,3.18518519 L9.35756341,2.53819444 L11.4902174,2.53819444 L11.4902174,3.18518519 L11.4902174,3.18518519 Z M13.8840127,5.9224537 C13.6663949,6.22106481 13.3617301,6.37037037 12.9700181,6.37037037 C12.5783062,6.37037037 12.2736413,6.22106481 12.0560236,5.9224537 C11.7948822,5.57407407 11.6643116,5.07638889 11.6643116,4.47916667 C11.6643116,4.03125 11.7078351,3.68287037 11.8384058,3.38425926 C11.9689764,3.08564815 12.0995471,2.88657407 12.2736413,2.73726852 C12.4477355,2.58796296 12.7088768,2.53819444 12.9700181,2.53819444 C13.3617301,2.53819444 13.6663949,2.6875 13.9275362,3.03587963 C14.1886775,3.38425926 14.2757246,3.83217593 14.2757246,4.47916667 C14.2757246,5.07638889 14.145154,5.57407407 13.8840127,5.9224537 Z M16.6259964,5.32523148 L15.6249547,5.32523148 L15.6249547,4.5787037 L16.6259964,4.5787037 L16.6259964,5.32523148 Z M19.3244565,6.32060185 L18.7586504,6.32060185 L17.8011322,2.53819444 L18.410462,2.53819444 L19.1068388,5.32523148 L19.759692,2.53819444 L20.3254982,2.53819444 L19.3244565,6.32060185 Z M21.1089221,6.32060185 L20.5866395,6.32060185 L20.5866395,2.53819444 L21.1089221,2.53819444 L21.1089221,6.32060185 Z M23.8073822,5.32523148 C23.7638587,5.57407407 23.6768116,5.77314815 23.5462409,5.87268519 C23.4591938,6.02199074 23.3286232,6.12152778 23.1980525,6.1712963 C23.0674819,6.22106481 22.8933877,6.27083333 22.6757699,6.27083333 L21.6312047,6.27083333 L21.6312047,2.48842593 L22.6322464,2.48842593 C22.8933877,2.48842593 23.0674819,2.53819444 23.1980525,2.58796296 C23.3286232,2.63773148 23.4591938,2.73726852 23.5462409,2.93634259 C23.633288,3.08564815 23.7203351,3.28472222 23.8073822,3.53356481 C23.8509058,3.78240741 23.8944293,4.08101852 23.8944293,4.42939815 C23.8944293,4.8275463 23.8509058,5.07638889 23.8073822,5.32523148 Z M26.4187953,6.32060185 L24.3731884,6.32060185 L24.3731884,2.53819444 L26.3752717,2.53819444 L26.3752717,3.18518519 L24.895471,3.18518519 L24.895471,4.03125 L26.2447011,4.03125 L26.2447011,4.67824074 L24.895471,4.67824074 L24.895471,5.72337963 L26.4187953,5.72337963 L26.4187953,6.32060185 L26.4187953,6.32060185 Z M28.9866848,5.9224537 C28.769067,6.22106481 28.4644022,6.37037037 28.0726902,6.37037037 C27.6809783,6.37037037 27.3763134,6.22106481 27.1586957,5.9224537 C26.8975543,5.57407407 26.7669837,5.07638889 26.7669837,4.47916667 C26.7669837,4.03125 26.8105072,3.68287037 26.9410779,3.38425926 C27.0716486,3.08564815 27.2022192,2.88657407 27.3763134,2.73726852 C27.5504076,2.58796296 27.8115489,2.53819444 28.0726902,2.53819444 C28.4644022,2.53819444 28.769067,2.6875 29.0302083,3.03587963 C29.2913496,3.38425926 29.3783967,3.83217593 29.3783967,4.47916667 C29.3783967,5.07638889 29.2478261,5.57407407 28.9866848,5.9224537 Z M31.7286685,5.32523148 L30.7276268,5.32523148 L30.7276268,4.5787037 L31.7286685,4.5787037 L31.7286685,5.32523148 Z M35.0799819,4.37962963 C34.9929348,4.5787037 34.8623641,4.67824074 34.7317935,4.77777778 C34.6012228,4.8275463 34.3836051,4.87731481 34.0354167,4.87731481 L33.6872283,4.87731481 L33.6872283,6.32060185 L33.1214221,6.32060185 L33.1214221,2.53819444 L33.9918931,2.53819444 C34.296558,2.53819444 34.5141757,2.53819444 34.6447464,2.58796296 C34.8188406,2.63773148 34.9494112,2.78703704 35.0364583,2.93634259 C35.1235054,3.13541667 35.2105525,3.38425926 35.2105525,3.68287037 C35.2540761,3.98148148 35.2105525,4.23032407 35.0799819,4.37962963 Z M37.4737772,6.32060185 L37.0820652,5.52430556 C36.9514946,5.22569444 36.8644475,5.02662037 36.7774004,4.97685185 C36.7338768,4.87731481 36.6903533,4.8275463 36.6033062,4.8275463 C36.5162591,4.8275463 36.4727355,4.77777778 36.3421649,4.77777778 L36.2115942,4.77777778 L36.2115942,6.37037037 L35.6893116,6.37037037 L35.6893116,2.58796296 L36.8209239,2.58796296 C37.1255888,2.58796296 37.3432065,2.63773148 37.4302536,2.6875 C37.5608243,2.73726852 37.6478714,2.88657407 37.7349185,3.03587963 C37.8219656,3.18518519 37.8654891,3.38425926 37.8654891,3.63310185 C37.8654891,3.93171296 37.8219656,4.18055556 37.6913949,4.32986111 C37.5608243,4.52893519 37.3867301,4.62847222 37.1691123,4.67824074 C37.299683,4.77777778 37.3867301,4.87731481 37.4737772,4.97685185 C37.5608243,5.07638889 37.6478714,5.27546296 37.778442,5.57407407 L38.1266304,6.32060185 L37.4737772,6.32060185 L37.4737772,6.32060185 Z M40.5204257,5.9224537 C40.302808,6.22106481 39.9981431,6.37037037 39.6064312,6.37037037 C39.2147192,6.37037037 38.9100543,6.22106481 38.6924366,5.9224537 C38.4312953,5.57407407 38.3007246,5.07638889 38.3007246,4.47916667 C38.3007246,4.03125 38.3442482,3.68287037 38.4748188,3.38425926 C38.6053895,3.08564815 38.7359601,2.88657407 38.9100543,2.73726852 C39.0841486,2.58796296 39.3452899,2.53819444 39.6064312,2.53819444 C39.9981431,2.53819444 40.302808,2.6875 40.5639493,3.03587963 C40.8250906,3.38425926 40.9121377,3.83217593 40.9121377,4.47916667 C40.9121377,5.07638889 40.781567,5.57407407 40.5204257,5.9224537 Z M44.0893569,6.32060185 L43.8717391,5.47453704 L42.7836504,5.47453704 L42.5660326,6.32060185 L42.0002264,6.32060185 L43.0447917,2.53819444 L43.6105978,2.53819444 L44.6986866,6.32060185 L44.0893569,6.32060185 Z M47.1360054,4.52893519 C47.1360054,5.02662037 47.0924819,5.375 47.0489583,5.62384259 C47.0054348,5.87268519 46.8748641,6.02199074 46.7442935,6.1712963 C46.5701993,6.32060185 46.3525815,6.37037037 46.0914402,6.37037037 C45.8302989,6.37037037 45.5691576,6.32060185 45.438587,6.22106481 C45.2644928,6.12152778 45.1774457,5.9224537 45.0903986,5.72337963 C45.0033514,5.52430556 45.0033514,5.12615741 45.0033514,4.5787037 L45.0033514,2.58796296 L45.5256341,2.58796296 L45.5256341,4.62847222 C45.5256341,4.92708333 45.5256341,5.17592593 45.5256341,5.22569444 C45.5691576,5.375 45.6126812,5.52430556 45.6997283,5.62384259 C45.7867754,5.72337963 45.917346,5.77314815 46.0479167,5.77314815 C46.1784873,5.77314815 46.2655344,5.72337963 46.3525815,5.67361111 C46.4396286,5.62384259 46.4831522,5.52430556 46.5266757,5.42476852 C46.5701993,5.32523148 46.5701993,5.07638889 46.5701993,4.67824074 L46.5701993,2.58796296 L47.1360054,2.58796296 L47.1360054,4.52893519 Z M49.8779891,5.32523148 C49.8344656,5.57407407 49.7474185,5.77314815 49.6168478,5.87268519 C49.5298007,6.02199074 49.3992301,6.12152778 49.2686594,6.1712963 C49.1380888,6.22106481 48.9639946,6.27083333 48.7463768,6.27083333 L47.7018116,6.27083333 L47.7018116,2.48842593 L48.7028533,2.48842593 C48.9639946,2.48842593 49.1380888,2.53819444 49.2686594,2.58796296 C49.3992301,2.63773148 49.5298007,2.73726852 49.6168478,2.93634259 C49.7038949,3.08564815 49.790942,3.28472222 49.8779891,3.53356481 C49.9215127,3.78240741 49.9650362,4.08101852 49.9650362,4.42939815 C49.9650362,4.8275463 49.9215127,5.07638889 49.8779891,5.32523148 Z M50.9660779,6.32060185 L50.4002717,6.32060185 L50.4002717,2.53819444 L50.9660779,2.53819444 L50.9660779,6.32060185 Z M53.6210145,5.9224537 C53.4033967,6.22106481 53.0987319,6.37037037 52.7070199,6.37037037 C52.315308,6.37037037 52.0106431,6.22106481 51.7930254,5.9224537 C51.5318841,5.57407407 51.4013134,5.07638889 51.4013134,4.47916667 C51.4013134,4.03125 51.444837,3.68287037 51.5754076,3.38425926 C51.7059783,3.08564815 51.8365489,2.88657407 52.0106431,2.73726852 C52.1847373,2.58796296 52.4458786,2.53819444 52.7070199,2.53819444 C53.0987319,2.53819444 53.4033967,2.6875 53.664538,3.03587963 C53.9256793,3.38425926 54.0127264,3.83217593 54.0127264,4.47916667 C54.0127264,5.07638889 53.8821558,5.57407407 53.6210145,5.9224537 Z" id="Shape" fill-rule="nonzero"></path>
                                    <path d="M52.7070199,3.13541667 C52.4894022,3.13541667 52.315308,3.2349537 52.1847373,3.43402778 C52.0541667,3.63310185 51.9671196,3.98148148 51.9671196,4.42939815 C51.9671196,4.87731481 52.0541667,5.17592593 52.1847373,5.42476852 C52.315308,5.62384259 52.4894022,5.77314815 52.7070199,5.77314815 C52.9246377,5.77314815 53.0987319,5.67361111 53.2293025,5.47453704 C53.3598732,5.27546296 53.4469203,4.92708333 53.4469203,4.47916667 C53.4469203,4.03125 53.3598732,3.73263889 53.2293025,3.53356481 C53.0987319,3.2349537 52.9246377,3.13541667 52.7070199,3.13541667 Z" id="Path"></path>
                                    <polygon id="Path" points="42.9577446 4.8275463 43.6976449 4.8275463 43.305933 3.43402778"></polygon>
                                </g>
                            </g>
                        </g>
                    </g>
                </g>
            </g>
        </g>
    </g>
</svg>