<?xml version="1.0" encoding="UTF-8"?>
<svg width="84px" height="34px" viewBox="0 0 84 34" version="1.1" xmlns="http://www.w3.org/2000/svg" xmlns:xlink="http://www.w3.org/1999/xlink">
    <!-- Generator: Sketch 55.1 (78136) - https://sketchapp.com -->
    <title>technology logos / logo 4</title>
    <desc>Created with Sketch.</desc>
    <g id="💵-Fraudfix" stroke="none" stroke-width="1" fill="none" fill-rule="evenodd" opacity="0.5">
        <g id="Home" transform="translate(-1026.000000, -5324.000000)" fill="#655C7A">
            <g id="platforms" transform="translate(0.000000, 5046.000000)">
                <g id="logos" transform="translate(460.000000, 268.000000)">
                    <g id="technology-logos-/-logo-4" transform="translate(566.000000, 10.000000)">
                        <g id="logo">
                            <g id="10" fill-rule="nonzero">
                                <path d="M0,0 L0,2.32626522 L16.3504174,2.32626522 L16.3504174,0 L0,0 Z M18.6669913,0 L18.6669913,2.32626522 L41.9671304,2.32626522 C41.9671304,2.32626522 39.5871548,0 36.4349635,0 L18.6669913,0 Z M46.5379722,0 L46.5379722,2.32626522 L60.6341217,2.32626522 L59.7974817,0 L46.5379722,0 Z M70.7404904,0 L69.9037774,2.32626522 L83.8719548,2.32626522 L83.8719548,0 L70.7404904,0 Z M0,4.52384783 L0,6.85011304 L16.3504174,6.85011304 L16.3504174,4.52384783 L0,4.52384783 Z M18.6669913,4.52717391 L18.6669913,6.85018696 L44.6708348,6.85018696 C44.6708348,6.85018696 44.367193,5.0597913 43.8374087,4.52717391 L18.6669913,4.52717391 Z M46.5379722,4.52717391 L46.5379722,6.85018696 L62.1797217,6.85018696 L61.4052417,4.52717391 L46.5379722,4.52717391 Z M69.0669913,4.52717391 L68.2925843,6.85018696 L83.8719548,6.85018696 L83.8719548,4.52717391 L69.0669913,4.52717391 Z M4.69874087,9.04769565 L4.69874087,11.377287 L11.7796487,11.377287 L11.7796487,9.04769565 L4.69874087,9.04769565 Z M23.3658052,9.04769565 L23.3658052,11.377287 L30.446713,11.377287 L30.446713,9.04769565 L23.3658052,9.04769565 Z M37.3340557,9.04769565 L37.3340557,11.377287 L44.4149635,11.377287 C44.4149635,11.377287 44.864473,10.1470043 44.864473,9.04769565 L37.3340557,9.04769565 Z M51.236713,9.04769565 L51.236713,11.377287 L63.7907687,11.377287 L62.9540557,9.04769565 L51.236713,9.04769565 Z M67.5248243,9.04769565 L66.6848243,11.377287 L79.3012591,11.377287 L79.3012591,9.04769565 L67.5248243,9.04769565 Z M4.69874087,13.5750174 L4.69874087,15.9012087 L11.7796487,15.9012087 L11.7796487,13.5750174 L4.69874087,13.5750174 L4.69874087,13.5750174 Z M23.3658052,13.5750174 L23.3658052,15.9012087 L41.4520278,15.9012087 C41.4520278,15.9012087 42.9649774,14.7076609 43.4470643,13.5750174 L23.3658052,13.5750174 Z M51.236713,13.5750174 L51.236713,15.9012087 L58.3176209,15.9012087 L58.3176209,14.6063261 L58.7672035,15.9012087 L71.7379722,15.9012087 L72.2202783,14.6063261 L72.2202783,15.9012087 L79.3011861,15.9012087 L79.3011861,13.5750174 L66.008807,13.5750174 L65.303353,15.5452435 L64.5946122,13.5750174 L51.236713,13.5750174 Z M4.69874087,18.0988652 L4.69874087,20.4250565 L11.7796487,20.4250565 L11.7796487,18.0988652 L4.69874087,18.0988652 Z M23.3658052,18.0988652 L23.3658052,20.4250565 L43.4470643,20.4250565 C42.9649774,19.2962565 41.4520278,18.0988652 41.4520278,18.0988652 L23.3658052,18.0988652 Z M51.236713,18.0988652 L51.236713,20.4250565 L58.3176209,20.4250565 L58.3176209,18.0988652 L51.236713,18.0988652 Z M59.6039165,18.0988652 L60.4602783,20.4250565 L70.1858713,20.4250565 L70.9997217,18.0988652 L59.6039165,18.0988652 Z M72.2202052,18.0988652 L72.2202052,20.4250565 L79.3011861,20.4250565 L79.3011861,18.0988652 L72.2202052,18.0988652 Z M4.69874087,22.622713 L4.69874087,24.9488304 L11.7796487,24.9488304 L11.7796487,22.622713 L4.69874087,22.622713 Z M23.3658052,22.622713 L23.3658052,24.9488304 L30.446713,24.9488304 L30.446713,22.622713 L23.3658052,22.622713 Z M37.3340557,22.622713 L37.3340557,24.9488304 L44.8645461,24.9488304 C44.8645461,23.8510739 44.4149635,22.622713 44.4149635,22.622713 L37.3340557,22.622713 Z M51.236713,22.622713 L51.236713,24.9488304 L58.3176209,24.9488304 L58.3176209,22.622713 L51.236713,22.622713 Z M61.2117496,22.622713 L62.0418887,24.9488304 L68.5617496,24.9488304 L69.3984626,22.622713 L61.2117496,22.622713 Z M72.2202052,22.622713 L72.2202052,24.9488304 L79.3011861,24.9488304 L79.3011861,22.622713 L72.2202052,22.622713 Z M0.127972174,27.1465609 L0.127972174,29.4761522 L16.4783896,29.4761522 L16.4783896,27.1465609 L0.127972174,27.1465609 Z M18.6669913,27.1465609 L18.6669913,29.4761522 L43.8374087,29.4761522 C44.367193,28.9427217 44.6708348,27.1465609 44.6708348,27.1465609 L18.6669913,27.1465609 L18.6669913,27.1465609 Z M46.6659443,27.1465609 L46.6659443,29.4761522 L58.3176939,29.4761522 L58.3176939,27.1465609 L46.6659443,27.1465609 Z M62.8227235,27.1465609 L63.6758713,29.4761522 L66.9932139,29.4761522 L67.7938435,27.1465609 L62.8227235,27.1465609 Z M72.2202052,27.1465609 L72.2202052,29.4761522 L84,29.4761522 L84,27.1465609 L72.2202052,27.1465609 Z M0.127972174,31.6737348 L0.127972174,34 L16.4783896,34 L16.4783896,31.6737348 L0.127972174,31.6737348 Z M18.6669913,31.6737348 L18.6669913,33.9966739 L36.4349635,33.9966739 C39.5871548,33.9966739 41.9671304,31.6737348 41.9671304,31.6737348 L18.6669913,31.6737348 Z M46.6659443,31.6737348 L46.6659443,34 L58.3176939,34 L58.3176939,31.6737348 L46.6659443,31.6737348 Z M64.4404904,31.6737348 L65.2607687,33.9934217 L65.4018887,33.9966739 L66.2353148,31.6737348 L64.4404904,31.6737348 Z M72.2202052,31.6737348 L72.2202052,34 L84,34 L84,31.6737348 L72.2202052,31.6737348 Z" id="Shape"></path>
                            </g>
                        </g>
                    </g>
                </g>
            </g>
        </g>
    </g>
</svg>