<?xml version="1.0" encoding="UTF-8"?>
<svg width="119px" height="25px" viewBox="0 0 119 25" version="1.1" xmlns="http://www.w3.org/2000/svg" xmlns:xlink="http://www.w3.org/1999/xlink">
    <!-- Generator: Sketch 55.1 (78136) - https://sketchapp.com -->
    <title>logo</title>
    <desc>Created with Sketch.</desc>
    <g id="💵-Fraudfix" stroke="none" stroke-width="1" fill="none" fill-rule="evenodd" opacity="0.5">
        <g id="Artboard" transform="translate(-1357.000000, -961.000000)" fill="#DBD6E9">
            <g id="logo" transform="translate(1350.000000, 959.000000)">
                <g id="1" transform="translate(7.000000, 2.000000)">
                    <path d="M22.5599567,13.6209593 L22.5599567,17.7267987 C31.1041126,17.8571429 33.3560606,12.5782065 33.3560606,8.73305527 C33.3560606,4.95307612 30.4417749,1.13686838e-13 25.1430736,1.13686838e-13 L21.632684,1.13686838e-13 L17.1287879,4.23618352 L17.1287879,17.8571429 L21.5002165,17.8571429 L21.5002165,4.10583942 L24.2820346,4.10583942 C26.6664502,4.10583942 28.6534632,5.60479666 28.6534632,8.86339937 C28.719697,12.1220021 26.1365801,13.6209593 22.5599567,13.6209593 Z" id="Path"></path>
                    <polygon id="Path" points="0 11.6233766 0 17.6623377 11.7598454 6.03896104 11.7598454 11.6233766 7.68660287 11.6233766 3.74475524 15.4545455 11.8255429 15.4545455 11.8255429 17.8571429 16.2272727 17.8571429 16.2272727 1.13686838e-13 11.8255429 1.13686838e-13"></polygon>
                    <path d="M47.9240228,9.82142857 C47.7933685,10.5540293 47.4667325,11.3476801 46.8787879,11.9581807 L46.8787879,16.9642857 C47.8586957,16.5369353 48.9039306,15.9874847 49.6878568,15.254884 C50.4064559,14.5833333 50.9290733,13.8507326 51.3863636,13.1181319 L47.9240228,9.82142857 Z" id="Path"></path>
                    <path d="M49.6455068,2.57505176 C48.9615987,1.86335404 48.3398642,1.34575569 47.5316092,0.892857143 L44.1742424,4.38664596 C44.1742424,4.38664596 45.2933647,4.51604555 46.2259666,5.35714286 L51.3863636,5.35714286 C50.9511494,4.38664596 50.3915883,3.35144928 49.6455068,2.57505176 Z" id="Path"></path>
                    <path d="M39.6666667,17.2602734 C40.7295056,17.6515288 41.9916268,17.9123657 43.1208931,17.8471565 C44.1173046,17.8471565 45.0472887,17.6515288 45.9772727,17.3906919 L45.9772727,12.5 C45.3129984,12.9564646 44.3830144,13.3477199 43.5194577,13.4129292 L39.6666667,17.2602734 Z" id="Path"></path>
                    <path d="M38.7431633,9.21352584 L34.8512565,5.35714286 C34.4554693,6.35448328 34.2575758,7.61778116 34.2575758,8.7481003 C34.2575758,9.74544073 34.3895048,10.6762918 34.7193274,11.6071429 L39.6666667,11.6071429 C39.1389505,10.8757599 38.8750924,10.0778875 38.7431633,9.21352584 Z" id="Path"></path>
                    <path d="M39.1041829,16.9642857 L42.3712121,13.4847689 C41.6315074,13.3534664 40.6452344,13.0252101 39.9671717,12.5 L35.1590909,12.5 C35.5905853,13.4847689 36.1453639,14.4695378 36.9467107,15.3230042 C37.6247734,15.9795168 38.3028361,16.5047269 39.1041829,16.9642857 Z" id="Path"></path>
                    <path d="M39.6666667,5.89896215 L39.6666667,0.892857143 C38.6867589,1.25915751 37.6415239,1.86965812 36.8575977,2.66330891 C36.1389987,3.33485958 35.6163812,4.00641026 35.1590909,4.80006105 L38.6214317,8.03571429 C38.7520861,7.24206349 39.1440492,6.50946276 39.6666667,5.89896215 Z" id="Path"></path>
                    <path d="M46.8787879,0.587979094 C45.8378632,0.195993031 44.5367073,1.13686838e-13 43.4307248,1.13686838e-13 C42.4548579,1.13686838e-13 41.4139331,0.130662021 40.5681818,0.457317073 L40.5681818,5.35714286 C41.2187598,4.89982578 42.1946267,4.57317073 43.040378,4.44250871 L46.8787879,0.587979094 Z" id="Path"></path>
                    <path d="M47.8022912,8.66935484 L51.7601626,12.5 C52.1559497,11.4247312 52.2878788,10.3494624 52.2878788,9.13978495 C52.2878788,8.13172043 52.1559497,7.19086022 51.8261271,6.25 L46.8787879,6.25 C47.4065041,6.98924731 47.6703622,7.79569892 47.8022912,8.66935484 Z" id="Path"></path>
                    <path d="M114.829823,0.317742755 L102.970882,11.8835791 L102.970882,0.190645653 L95.6079133,7.37163193 L95.6079133,1.13686838e-13 L83.6186544,11.6929334 L83.6186544,0.190645653 L79.5136364,0.190645653 L67.3289004,12.0742247 L65.3741299,9.91357397 C66.3515152,9.40518556 67.5243774,8.38840874 67.5243774,6.35485511 C67.5243774,2.66903915 64.0709496,0.254194204 62.0510201,0.254194204 C60.0310906,0.254194204 57.555048,0.254194204 57.555048,0.254194204 L53.1893939,4.51194713 L53.1893939,17.6664972 L57.620207,17.6664972 L57.620207,4.32130147 L60.8781578,4.32130147 C61.8555431,4.32130147 63.1587234,5.27452974 63.1587234,6.60904931 C63.1587234,8.00711744 62.1161791,8.9603457 60.7478398,8.9603457 L58.7279103,9.15099136 L67.5243774,17.6664972 L79.1226823,6.35485511 L79.1226823,11.4387392 L75.2131413,11.4387392 L71.1081233,15.4422979 L79.1878413,15.4422979 L79.1878413,17.6664972 L83.8141314,17.6664972 L91.2422592,10.4219624 L91.2422592,17.6029487 L98.540069,10.4855109 L98.540069,17.8571429 L103.166359,17.8571429 L114.829823,6.48195221 L114.829823,11.5658363 L111.0506,11.5658363 L107.0759,15.4422979 L114.829823,15.4422979 L114.829823,17.5394001 L119,17.5394001 L119,0.317742755 L114.829823,0.317742755 Z" id="Path"></path>
                    <polygon id="Path" points="2.25378788 23.8868275 2.25378788 23.8868275 1.12689394 19.6428571 0 19.6428571 0 25 0.704308712 25 0.704308712 20.33859 0.704308712 20.33859 1.90163352 25 2.60594223 25 3.80326705 20.33859 3.80326705 20.33859 3.80326705 25 4.50757576 25 4.50757576 19.6428571 3.31025095 19.6428571"></polygon>
                    <path d="M8.11363636,19.6428571 C6.59909091,19.6428571 6.31060606,21.0491071 6.31060606,22.3214286 C6.31060606,23.59375 6.59909091,25 8.11363636,25 C9.62818182,25 9.91666667,23.59375 9.91666667,22.3214286 C9.91666667,21.0491071 9.62818182,19.6428571 8.11363636,19.6428571 Z M8.11363636,24.53125 C7.17606061,24.53125 7.03181818,23.5267857 7.03181818,22.3883929 C7.03181818,21.1830357 7.17606061,20.2455357 8.11363636,20.2455357 C9.05121212,20.2455357 9.19545455,21.25 9.19545455,22.3883929 C9.19545455,23.5267857 9.05121212,24.53125 8.11363636,24.53125 Z" id="Shape" fill-rule="nonzero"></path>
                    <path d="M15.0313853,24.0955473 L14.9577922,23.1910946 C14.9577922,22.7040816 14.6634199,22.3562152 14.1482684,22.2866419 L14.1482684,22.2866419 C14.8106061,22.1474954 15.0313853,21.5213358 15.0313853,20.9647495 C15.0313853,20.1298701 14.4426407,19.6428571 13.5595238,19.6428571 L11.719697,19.6428571 L11.719697,25 L12.4556277,25 L12.4556277,22.6345083 L13.4123377,22.6345083 C13.780303,22.6345083 14.2218615,22.7040816 14.2218615,23.3998145 L14.2954545,24.2346939 C14.2954545,24.512987 14.3690476,24.9304267 14.5162338,25 L15.3257576,25 C15.1785714,24.8608534 15.0313853,24.7217069 15.0313853,24.0955473 Z M13.1179654,22.0083488 L12.4556277,22.0083488 L12.4556277,20.1298701 L13.2651515,20.1298701 C13.9274892,20.1298701 14.2954545,20.4777365 14.2954545,20.9647495 C14.2954545,22.0083488 13.5595238,22.0083488 13.1179654,22.0083488 Z" id="Shape" fill-rule="nonzero"></path>
                    <polygon id="Path" points="17.7884331 22.4953618 19.6354398 22.4953618 19.6354398 21.9387755 17.7884331 21.9387755 17.7884331 20.1994434 19.7673688 20.1994434 19.7673688 19.6428571 17.1287879 19.6428571 17.1287879 25 19.8333333 25 19.8333333 24.4434137 17.7884331 24.4434137"></polygon>
                    <polygon id="Path" points="25.2424242 20.1994434 26.3129735 20.1994434 26.3129735 25 26.8764205 25 26.8764205 20.1994434 27.9469697 20.1994434 27.9469697 19.6428571 25.2424242 19.6428571"></polygon>
                    <polygon id="Path" points="32.7681159 21.8692022 31.2394598 21.8692022 31.2394598 19.6428571 30.6515152 19.6428571 30.6515152 25 31.2394598 25 31.2394598 22.4257885 32.7681159 22.4257885 32.7681159 25 33.3560606 25 33.3560606 19.6428571 32.7681159 19.6428571"></polygon>
                    <path d="M37.4524189,19.6428571 L36.0606061,25 L36.6932483,25 L37.0728336,23.538961 L38.6544391,23.538961 L39.0340245,25 L39.6666667,25 L38.338118,19.6428571 C38.338118,19.6428571 37.4524189,19.6428571 37.4524189,19.6428571 Z M37.1360978,22.9823748 L37.8320043,20.4081633 L37.8320043,20.4081633 L38.4646465,22.9823748 L37.1360978,22.9823748 Z" id="Shape" fill-rule="nonzero"></path>
                    <polygon id="Path" points="43.6563507 24.0955473 43.6563507 24.0955473 42.1602192 19.6428571 41.469697 19.6428571 41.469697 25 41.9875887 25 41.9875887 20.6864564 41.9875887 20.6864564 43.4261767 25 44.1742424 25 44.1742424 19.6428571 43.6563507 19.6428571"></polygon>
                    <path d="M51.8766614,19.6428571 L50.4848485,25 L51.1174907,25 L51.497076,23.538961 L53.0786816,23.538961 L53.4582669,25 L54.0909091,25 L52.7623604,19.6428571 C52.7623604,19.6428571 51.8766614,19.6428571 51.8766614,19.6428571 Z M51.5603402,22.9823748 L52.2562467,20.4081633 L52.2562467,20.4081633 L52.8888889,22.9823748 L51.5603402,22.9823748 Z" id="Shape" fill-rule="nonzero"></path>
                    <path d="M60.4383117,24.4642857 C59.4816017,24.4642857 59.3344156,23.4598214 59.3344156,22.3214286 C59.3344156,21.1160714 59.4816017,20.1785714 60.4383117,20.1785714 C61.1742424,20.1785714 61.3950216,20.6473214 61.3950216,21.25 L62.1309524,21.25 C62.1309524,20.2455357 61.6158009,19.6428571 60.4383117,19.6428571 C58.8928571,19.6428571 58.5984848,21.0491071 58.5984848,22.3214286 C58.5984848,23.59375 58.8192641,25 60.4383117,25 C61.6893939,25 62.1309524,24.1294643 62.2045455,23.125 L61.4686147,23.125 C61.3950216,23.7276786 61.2478355,24.4642857 60.4383117,24.4642857 Z" id="Path"></path>
                    <path d="M65.3993886,19.6428571 L64.0075758,25 L64.640218,25 L65.0198033,23.538961 L66.6014088,23.538961 L66.9809942,25 L67.6136364,25 L66.2850877,19.6428571 C66.2850877,19.6428571 65.3993886,19.6428571 65.3993886,19.6428571 Z M65.0830675,22.9823748 L65.778974,20.4081633 L65.778974,20.4081633 L66.4116162,22.9823748 L65.0830675,22.9823748 Z" id="Shape" fill-rule="nonzero"></path>
                    <polygon id="Path" points="71.706229 23.8868275 71.706229 23.8868275 70.5614478 19.6428571 69.4166667 19.6428571 69.4166667 25 70.1321549 25 70.1321549 20.33859 70.1321549 20.33859 71.3484848 25 71.9924242 25 73.280303 20.33859 73.280303 20.33859 73.280303 25 73.9242424 25 73.9242424 19.6428571 72.7794613 19.6428571"></polygon>
                    <polygon id="Path" points="77.2884331 22.4953618 79.1354398 22.4953618 79.1354398 21.9387755 77.2884331 21.9387755 77.2884331 20.1994434 79.2673688 20.1994434 79.2673688 19.6428571 76.6287879 19.6428571 76.6287879 25 79.3333333 25 79.3333333 24.4434137 77.2884331 24.4434137"></polygon>
                    <path d="M84.4480519,24.0955473 L84.3744589,23.1910946 C84.3744589,22.7040816 84.0800866,22.3562152 83.5649351,22.2866419 L83.5649351,22.2866419 C84.2272727,22.1474954 84.4480519,21.5213358 84.4480519,20.9647495 C84.4480519,20.1298701 83.8593074,19.6428571 82.9761905,19.6428571 L81.1363636,19.6428571 L81.1363636,25 L81.8722944,25 L81.8722944,22.6345083 L82.8290043,22.6345083 C83.1969697,22.6345083 83.6385281,22.7040816 83.6385281,23.3998145 L83.7121212,24.2346939 C83.7121212,24.512987 83.7857143,24.9304267 83.9329004,25 L84.7424242,25 C84.5952381,24.8608534 84.4480519,24.7217069 84.4480519,24.0955473 Z M82.534632,22.0083488 L81.8722944,22.0083488 L81.8722944,20.1298701 L82.6818182,20.1298701 C83.3441558,20.1298701 83.7121212,20.4777365 83.7121212,20.9647495 C83.7121212,22.0083488 82.9761905,22.0083488 82.534632,22.0083488 Z" id="Shape" fill-rule="nonzero"></path>
                    <path d="M87.9372674,19.6428571 L86.5454545,25 L87.1780968,25 L87.5576821,23.538961 L89.1392876,23.538961 L89.5188729,25 L90.1515152,25 L88.8229665,19.6428571 C88.8229665,19.6428571 87.9372674,19.6428571 87.9372674,19.6428571 Z M87.6842105,22.9823748 L88.380117,20.4081633 L88.380117,20.4081633 L89.0127592,22.9823748 L87.6842105,22.9823748 Z" id="Shape" fill-rule="nonzero"></path>
                    <path d="M96.1933167,21.031746 C96.1933167,20.5026455 96.4809125,20.1719577 96.9410657,20.1719577 C97.4587381,20.1719577 97.6312956,20.5687831 97.6312956,21.0978836 L98.2064871,21.0978836 C98.2064871,20.1719577 97.803853,19.6428571 96.9410657,19.6428571 C95.7906827,19.6428571 95.6181252,20.5687831 95.6181252,21.031746 C95.6181252,22.8835979 97.7463339,22.0899471 97.7463339,23.5449735 C97.7463339,24.0740741 97.401219,24.4708995 96.9985849,24.4708995 C96.1933167,24.4708995 96.1357976,23.8756614 96.1357976,23.2804233 L95.5606061,23.2804233 C95.5606061,24.3386243 95.8482018,25 96.8835466,25 C97.5162573,25 98.2640062,24.6693122 98.2640062,23.478836 C98.3215254,21.6269841 96.1933167,22.4867725 96.1933167,21.031746 Z" id="Path"></path>
                    <polygon id="Path" points="100.068182 20.1994434 101.540043 20.1994434 101.540043 25 102.202381 25 102.202381 20.1994434 103.674242 20.1994434 103.674242 19.6428571 100.068182 19.6428571"></polygon>
                    <path d="M107.280303,19.6428571 C105.765758,19.6428571 105.477273,21.0491071 105.477273,22.3214286 C105.477273,23.59375 105.765758,25 107.280303,25 C108.794848,25 109.083333,23.59375 109.083333,22.3214286 C109.083333,21.0491071 108.794848,19.6428571 107.280303,19.6428571 Z M107.280303,24.53125 C106.342727,24.53125 106.198485,23.5267857 106.198485,22.3883929 C106.198485,21.1830357 106.342727,20.2455357 107.280303,20.2455357 C108.217879,20.2455357 108.362121,21.25 108.362121,22.3883929 C108.362121,23.5267857 108.217879,24.53125 107.280303,24.53125 Z" id="Shape" fill-rule="nonzero"></path>
                    <path d="M114.198052,24.0955473 L114.124459,23.1910946 C114.124459,22.7040816 113.830087,22.3562152 113.314935,22.2866419 L113.314935,22.2866419 C113.977273,22.1474954 114.198052,21.5213358 114.198052,20.9647495 C114.198052,20.1298701 113.609307,19.6428571 112.72619,19.6428571 L110.886364,19.6428571 L110.886364,25 L111.622294,25 L111.622294,22.6345083 L112.579004,22.6345083 C112.94697,22.6345083 113.388528,22.7040816 113.388528,23.3998145 L113.462121,24.2346939 C113.462121,24.512987 113.535714,24.9304267 113.6829,25 L114.492424,25 C114.345238,24.8608534 114.271645,24.7217069 114.198052,24.0955473 Z M112.358225,22.0083488 L111.695887,22.0083488 L111.695887,20.1298701 L112.505411,20.1298701 C113.167749,20.1298701 113.535714,20.4777365 113.535714,20.9647495 C113.535714,22.0083488 112.799784,22.0083488 112.358225,22.0083488 Z" id="Shape" fill-rule="nonzero"></path>
                    <polygon id="Path" points="116.9551 22.4953618 118.802106 22.4953618 118.802106 21.9387755 116.9551 21.9387755 116.9551 20.1994434 118.934035 20.1994434 118.934035 19.6428571 116.295455 19.6428571 116.295455 25 119 25 119 24.4434137 116.9551 24.4434137"></polygon>
                </g>
            </g>
        </g>
    </g>
</svg>