<?xml version="1.0" encoding="UTF-8"?>
<svg width="134px" height="17px" viewBox="0 0 134 17" version="1.1" xmlns="http://www.w3.org/2000/svg" xmlns:xlink="http://www.w3.org/1999/xlink">
    <!-- Generator: Sketch 55.1 (78136) - https://sketchapp.com -->
    <title>technology logos / logo 3</title>
    <desc>Created with Sketch.</desc>
    <g id="💵-Fraudfix" stroke="none" stroke-width="1" fill="none" fill-rule="evenodd" opacity="0.5">
        <g id="Home" transform="translate(-841.000000, -5332.000000)" fill="#655C7A">
            <g id="platforms" transform="translate(0.000000, 5046.000000)">
                <g id="logos" transform="translate(460.000000, 268.000000)">
                    <g id="technology-logos-/-logo-3" transform="translate(381.000000, 18.000000)">
                        <g id="logo">
                            <g id="9" fill-rule="nonzero">
                                <path d="M55.2703625,11.0574282 L63.7398797,11.0574282 L59.2658104,3.71410737 L51.0460088,16.9787765 L47.3002764,16.9787765 L57.2888961,1.03995006 C57.7258982,0.403245943 58.4542351,0 59.2450008,0 C60.0149569,0 60.7432938,0.382022472 61.1594863,0.997503121 L71.1897252,16.9575531 L67.4439928,16.9575531 L65.6751748,13.9862672 L57.1016095,13.9862672 L55.2703625,11.0574282 Z M94.0803121,14.0287141 L94.0803121,0.191011236 L90.9172492,0.191011236 L90.9172492,15.3870162 C90.9172492,15.8114856 91.0837262,16.2147316 91.375061,16.5118602 C91.6872053,16.8302122 92.0825882,17 92.5403999,17 L107.003089,17 L108.875955,14.0287141 L94.0803121,14.0287141 L94.0803121,14.0287141 Z M41.6192489,11.545568 C44.6990733,11.545568 47.1962283,9.01997503 47.1962283,5.87890137 C47.1962283,2.73782772 44.6990733,0.191011236 41.6192489,0.191011236 L27.7392294,0.191011236 L27.7392294,17 L30.9022923,17 L30.9022923,3.16229713 L41.390343,3.16229713 C42.8678264,3.16229713 44.053975,4.39325843 44.053975,5.87890137 C44.053975,7.38576779 42.8678264,8.59550562 41.390343,8.59550562 L32.4422045,8.57428215 L41.9105836,16.9787765 L46.5095106,16.9787765 L40.1625752,11.545568 L41.6192489,11.545568 Z M8.24061128,16.9787765 C3.68330353,16.9787765 0,13.2222222 0,8.57428215 C0,3.92634207 3.68330353,0.169787765 8.24061128,0.169787765 L17.8130385,0.169787765 C22.3703463,0.169787765 26.0536498,3.94756554 26.0536498,8.57428215 C26.0536498,13.2222222 22.3703463,16.9787765 17.8130385,16.9787765 L8.24061128,16.9787765 Z M17.6049423,14.0287141 C20.559909,14.0287141 22.9322061,11.6092385 22.9322061,8.59550562 C22.9322061,5.58177278 20.5390993,3.14107366 17.6049423,3.14107366 L8.44870753,3.14107366 C5.49374086,3.14107366 3.12144367,5.58177278 3.12144367,8.59550562 C3.12144367,11.6092385 5.51455048,14.0287141 8.44870753,14.0287141 L17.6049423,14.0287141 Z M77.8071858,16.9787765 C73.2498781,16.9787765 69.5665745,13.2222222 69.5665745,8.57428215 C69.5665745,3.92634207 73.2706877,0.169787765 77.8071858,0.169787765 L89.1900504,0.169787765 L87.3379938,3.14107366 L78.0152821,3.14107366 C75.0603154,3.14107366 72.6672086,5.58177278 72.6672086,8.59550562 C72.6672086,11.6092385 75.0603154,14.0287141 78.0152821,14.0287141 L89.4397659,14.0287141 L87.5668997,17 L77.8071858,17 L77.8071858,16.9787765 Z M116.575516,14.0287141 C114.14079,14.0287141 112.080637,12.3732834 111.435539,10.0599251 L124.982604,10.0599251 L126.855471,7.0886392 L111.435539,7.0886392 C112.059828,4.81772784 114.14079,3.11985019 116.575516,3.11985019 L125.877418,3.11985019 L127.750285,0.148564295 L116.34661,0.148564295 C111.789303,0.148564295 108.105999,3.92634207 108.105999,8.55305868 C108.105999,13.2009988 111.810112,16.9575531 116.34661,16.9575531 L126.127134,16.9575531 L128,13.9862672 L116.575516,13.9862672 L116.575516,14.0287141 Z" id="path16197"></path>
                                <path d="M130.426966,1.97752809 C130.426966,1.1011236 131.123596,0.404494382 132,0.404494382 C132.876404,0.404494382 133.573034,1.1011236 133.573034,1.97752809 C133.573034,2.85393258 132.876404,3.5505618 132,3.5505618 C131.123596,3.57303371 130.426966,2.87640449 130.426966,1.97752809 Z M132,4 C133.101124,4 134,3.1011236 134,2 C134,0.898876404 133.101124,0 132,0 C130.898876,0 130,0.898876404 130,2 C130,3.1011236 130.898876,4 132,4 Z M131.820225,0.808988764 C132.134831,0.808988764 132.269663,0.831460674 132.404494,0.876404494 C132.808989,1.01123596 132.853933,1.34831461 132.853933,1.50561798 C132.853933,1.52808989 132.853933,1.59550562 132.831461,1.68539326 C132.808989,1.7752809 132.764045,1.93258427 132.561798,2.06741573 C132.539326,2.08988764 132.516854,2.08988764 132.47191,2.13483146 L132.988764,3.05617978 L132.494382,3.05617978 L132.044944,2.20224719 L131.730337,2.20224719 L131.730337,3.05617978 L131.280899,3.05617978 L131.280899,0.808988764 L131.820225,0.808988764 L131.820225,0.808988764 Z M131.977528,1.82022472 C132.11236,1.79775281 132.269663,1.79775281 132.337079,1.68539326 C132.382022,1.61797753 132.404494,1.57303371 132.404494,1.48314607 C132.404494,1.37078652 132.337079,1.28089888 132.224719,1.21348315 C132.134831,1.16853933 132.022472,1.16853933 131.820225,1.16853933 L131.685393,1.16853933 L131.685393,1.82022472 L131.977528,1.82022472 L131.977528,1.82022472 Z" id="path16199"></path>
                            </g>
                        </g>
                    </g>
                </g>
            </g>
        </g>
    </g>
</svg>