<?xml version="1.0" encoding="UTF-8"?>
<svg width="250px" height="39px" viewBox="0 0 250 39" version="1.1" xmlns="http://www.w3.org/2000/svg" xmlns:xlink="http://www.w3.org/1999/xlink">
    <!-- Generator: Sketch 55.1 (78136) - https://sketchapp.com -->
    <title>Group 2</title>
    <desc>Created with Sketch.</desc>
    <g id="💵-Fraudfix" stroke="none" stroke-width="1" fill="none" fill-rule="evenodd" opacity="0.5">
        <g id="Artboard" transform="translate(-1226.000000, -954.000000)" fill="#DBD6E9">
            <g id="Group-2" transform="translate(1226.000000, 954.000000)">
                <g id="logo-2">
                    <g id="logo">
                        <g id="2">
                            <path d="M0.483354024,14.5357732 C0.660190862,14.5241649 0.795765771,14.5125566 0.93134068,14.5125566 C4.73922726,14.5125566 8.5530084,14.5067524 12.360895,14.5241649 C12.7086741,14.5241649 13.0800314,14.5996189 13.4042323,14.7331145 C14.093896,15.011714 14.3709404,15.6037379 14.3945186,16.2944324 C14.4416751,17.5249135 14.188209,18.6915488 13.4926507,19.742101 C13.032875,20.4385997 12.4021569,20.9377571 11.6181803,21.2453774 C11.5769183,21.2627899 11.5356564,21.2860065 11.4531325,21.3266356 C11.5710238,22.011526 11.8009117,22.6790039 11.930592,23.3696984 C12.0602723,24.0661971 12.4787862,24.6524169 12.7204632,25.3663281 C11.2645066,25.3663281 9.87928468,25.3663281 8.4763791,25.3663281 C8.3997498,25.105141 8.32312051,24.878779 8.26417489,24.6466127 C7.98713051,23.5960605 7.71008613,22.5455083 7.43304176,21.4949561 C7.36230702,21.2221608 7.32693965,21.19314 7.04400071,21.19314 C6.6962216,21.19314 6.34844248,21.2047483 5.99476881,21.19314 C5.77077548,21.1873358 5.64698969,21.268594 5.58804408,21.4833478 C5.33457795,22.3887961 5.06342813,23.2826361 4.80996199,24.1880844 C4.78048919,24.2983634 4.79227831,24.4260548 4.80406743,24.5479421 C4.81585655,24.6756335 4.85122392,24.8033249 4.87480217,24.9310164 C4.95143146,25.3895447 4.93374778,25.3837405 4.473972,25.3779364 C3.40116185,25.3663281 2.3283517,25.3953488 1.24964699,25.3953488 C0.860605945,25.3953488 0.46567034,25.3663281 0,25.3431114 C0.088418419,25.1689868 0.153258593,25.0470995 0.218098767,24.9194081 C0.430302972,24.5189213 0.701452791,24.135847 0.842922261,23.7121436 C1.2319633,22.5513125 1.57384786,21.3730688 1.9334161,20.2006293 C2.2517224,19.1616854 2.56413415,18.1227415 2.88244046,17.0837976 C2.91191327,16.9909311 2.91780783,16.8922605 2.94138607,16.7587649 C2.7999166,16.7471566 2.6938145,16.72394 2.5877124,16.72394 C1.97467802,16.72394 1.36164365,16.72394 0.748609281,16.72394 C0.642507178,16.72394 0.530510514,16.7007233 0.394935605,16.6833109 C0.412619289,16.5440111 0.41851385,16.4337322 0.442092095,16.3292574 C0.524615953,15.9752039 0.595350688,15.6211503 0.695558229,15.272901 C0.760398403,15.0639514 0.760398403,14.8956309 0.595350688,14.7447228 C0.55998332,14.7040937 0.542299636,14.640248 0.483354024,14.5357732 Z M6.37791529,18.8830859 C6.46633371,18.9063026 6.5134902,18.9295192 6.55475213,18.9295192 C7.31515053,18.9295192 8.08144349,18.9411275 8.8418419,18.923715 C9.50792732,18.9121067 9.99717591,18.3897327 10.1386454,17.7919046 C10.2565366,17.2695306 9.99717591,16.8284148 9.45487627,16.7877857 C8.69447787,16.7297441 7.93407946,16.7413524 7.17368106,16.72394 C6.99684422,16.7181358 6.93789861,16.8400231 6.89663668,16.985127 C6.79053458,17.3856137 6.67264335,17.7919046 6.56064669,18.1923914 C6.50170108,18.4129493 6.44275546,18.6393114 6.37791529,18.8830859 Z" id="Shape" fill-rule="nonzero"></path>
                            <path d="M73.8685687,25.3315412 C73.6383384,25.354744 73.4258181,25.3953488 73.2132979,25.3895481 C72.7115139,25.3895481 72.2156333,25.3605447 71.7138494,25.354744 C71.135322,25.3489433 70.562698,25.354744 69.9841706,25.354744 C69.6535836,25.354744 69.6122602,25.3257405 69.5355168,25.0241046 C69.2403497,23.9045712 68.9451827,22.7792371 68.6441124,21.6597037 C68.602789,21.5088857 68.5496589,21.3638684 68.4906255,21.2014491 C67.9711315,21.2014491 67.4752509,21.1956484 66.973467,21.2072498 C66.9085303,21.2072498 66.8081735,21.3058615 66.7904634,21.3754698 C66.5189098,22.291979 66.2355494,23.2084882 66.0053192,24.1365988 C65.9403824,24.4034306 66.0289325,24.7050666 66.0466425,24.9893005 C66.0525459,25.0937129 66.0643526,25.1981253 66.0820626,25.3315412 C65.9344791,25.3431426 65.8282189,25.354744 65.7160555,25.354744 C64.6180341,25.354744 63.5259162,25.3489433 62.4278948,25.354744 C62.1268245,25.354744 61.8257541,25.3895481 61.5246837,25.3953488 C61.4243269,25.3953488 61.3180668,25.354744 61.2,25.3257405 C61.23542,25.2213281 61.2413234,25.1575205 61.2708401,25.1053143 C61.3239702,25.0067025 61.3771002,24.9080908 61.442037,24.8152797 C61.8021407,24.2758154 62.0382743,23.6841449 62.2271812,23.0692717 C62.6699318,21.5842947 63.1303923,20.1051184 63.5849496,18.6201415 C63.7384364,18.1154814 63.8919233,17.6050205 64.0454101,17.1003604 C64.0749268,16.9959479 64.0926368,16.8915355 64.1280569,16.7233155 C63.2366525,16.7175148 62.3865714,16.7175148 61.4833603,16.7117141 C61.5542004,16.4216795 61.6073305,16.2012532 61.6663639,15.980827 C61.7253973,15.7546 61.7785274,15.5283731 61.8552708,15.3137475 C61.9379176,15.0933212 61.9261109,14.9018984 61.7608173,14.722077 C61.7313006,14.6930735 61.7313006,14.6408673 61.6958806,14.5480562 C61.8611741,14.5364549 62.0087576,14.5190528 62.1504378,14.5190528 C63.6262729,14.5190528 65.0962047,14.5190528 66.5720398,14.5190528 C68.7916959,14.5190528 71.0113519,14.5074514 73.2310079,14.5132521 C73.597015,14.5132521 73.9689255,14.5596576 74.3231259,14.6350666 C74.8662332,14.7510804 75.244047,15.0875205 75.4270506,15.6095827 C75.5746341,16.0156311 75.6277641,16.4390816 75.5864408,16.8683327 C75.4978907,17.8486496 75.2735637,18.7883615 74.7304564,19.6352625 C74.2581892,20.3719502 73.614725,20.9114145 72.7882574,21.2304525 C72.746934,21.2478546 72.7056106,21.2710574 72.6170605,21.3116622 C72.7764507,21.9903431 72.9004208,22.6806253 73.1070378,23.3477048 C73.319558,24.0147843 73.6029184,24.6470597 73.8685687,25.3315412 Z M67.546091,18.8753719 C67.6464478,18.9043754 67.6700612,18.9217774 67.6995779,18.9217774 C68.4374954,18.9217774 69.1695097,18.9507809 69.9074272,18.9159767 C70.6984748,18.8811726 71.2061621,18.3997152 71.3478423,17.634024 C71.4304891,17.1815701 71.2238721,16.8683327 70.7693149,16.7755217 C70.6335381,16.7465182 70.4918579,16.7291161 70.3501778,16.7291161 C69.730327,16.7233155 69.1045729,16.7233155 68.4847222,16.7291161 C68.3843654,16.7291161 68.2840086,16.7465182 68.1482318,16.7639203 C67.9416148,17.4716046 67.7468046,18.1676876 67.546091,18.8753719 Z" id="Shape" fill-rule="nonzero"></path>
                            <path d="M71.0913183,38.9802346 C69.6038585,38.9802346 68.1569132,38.9802346 66.6752412,38.9802346 C66.0617363,37.0292517 65.4540193,35.0840753 64.8463023,33.1447053 C64.8231511,33.1388988 64.8,33.1388988 64.7768489,33.1330923 C64.7421222,33.2201898 64.6958199,33.3014807 64.6784566,33.3885782 C64.3890675,34.5498776 64.0996785,35.7111769 63.8102894,36.8666698 C63.7003215,37.3079635 63.5787781,37.7492573 63.4919614,38.1905511 C63.4456592,38.4286174 63.4456592,38.6841033 63.4282958,38.9337827 C63.237299,39.0150736 59.6836013,39.0266866 59.4,38.9395892 C59.4115756,38.8931372 59.4057878,38.8292657 59.4347267,38.7886202 C59.7877814,38.248616 59.9209003,37.6273209 60.0829582,37.0176387 C60.4707395,35.5544015 60.8411576,34.0911643 61.2057878,32.6221206 C61.518328,31.3621108 61.8135048,30.0962945 62.1144695,28.8362847 C62.1491961,28.6853158 62.1434084,28.5459598 62.0392283,28.4182169 C61.9871383,28.3543454 61.9581994,28.278861 61.888746,28.1569245 C62.0508039,28.1395051 62.1723473,28.1162791 62.2938907,28.1162791 C63.5440514,28.1162791 64.7942122,28.1162791 66.044373,28.1162791 C66.2990354,28.1162791 66.5594855,28.1162791 66.8488746,28.1162791 C67.3987138,29.9685516 67.9427653,31.7975981 68.4868167,33.6324511 C68.5157556,33.6324511 68.5446945,33.6324511 68.5736334,33.6324511 C68.6083601,33.5569666 68.6488746,33.4814821 68.6720257,33.4001912 C68.903537,32.5466361 69.1292605,31.6988876 69.3549839,30.8453326 C69.459164,30.4388778 69.5864952,30.0382295 69.6559486,29.6317747 C69.7254019,29.1962875 69.7369775,28.7491872 69.777492,28.3078935 C69.7832797,28.2614415 69.7890675,28.220796 69.8006431,28.1453116 C71.1318328,28.1453116 72.4514469,28.1453116 73.8,28.1453116 C73.7826367,28.2149895 73.7826367,28.278861 73.7536977,28.3137 C73.5395498,28.5517663 73.4469453,28.8362847 73.377492,29.1382225 C72.9434084,30.9150105 72.503537,32.6859921 72.0636656,34.4627801 C71.7916399,35.560208 71.5254019,36.6576359 71.2649518,37.7608703 C71.1954984,38.0570016 71.178135,38.364746 71.1376206,38.6666838 C71.1086817,38.7653943 71.1028939,38.8582982 71.0913183,38.9802346 Z" id="Path"></path>
                            <path d="M75.6,25.3298845 C75.7247722,25.0971226 75.8079536,24.893456 75.9327258,24.7130655 C76.2595101,24.2475416 76.3605162,23.7063702 76.5090545,23.1768368 C76.8952541,21.7977225 77.2695706,20.4127891 77.6498287,19.0336747 C77.9884961,17.8116746 78.3152804,16.5896746 78.6598893,15.3734936 C78.7430707,15.0825412 78.7252461,14.8265031 78.4578772,14.6053792 C78.4757017,14.5879221 78.4935263,14.5704649 78.5113509,14.5530078 C78.6242401,14.5355507 78.7430707,14.5122745 78.8559598,14.5122745 C81.7910769,14.5122745 84.726194,14.5064554 87.6613111,14.5297316 C88.4574764,14.5355507 89.1764019,14.7915888 89.657666,15.4782364 C89.8656196,15.7750079 89.9666257,16.1066936 89.9903918,16.4732936 C90.0379241,17.0493794 89.9012688,17.6021889 89.7527305,18.1491794 C89.2774079,19.8716176 88.8080268,21.5998748 88.2911135,23.3106749 C87.9999784,24.2766369 87.3285852,24.9516464 86.3422908,25.265875 C86.0273896,25.3647988 85.6708977,25.388075 85.3322303,25.388075 C82.4921777,25.3997131 79.6521252,25.3938941 76.8120726,25.3938941 C76.4793468,25.3938941 76.1525625,25.3938941 75.8198367,25.3938941 C75.7663629,25.382256 75.7128891,25.3589798 75.6,25.3298845 Z M80.5849458,22.6705796 C80.7572502,22.6880368 80.887964,22.711313 81.0186777,22.711313 C81.9396152,22.717132 82.8605528,22.717132 83.7814903,22.711313 C84.2389883,22.711313 84.4825911,22.5367415 84.6192464,22.100313 C84.7499601,21.6813415 84.8747323,21.2623701 84.9757383,20.8375796 C85.2193412,19.8541605 85.4391779,18.8649223 85.6827807,17.8815032 C85.831319,17.2821413 85.7362545,17.130846 85.1123936,17.125027 C84.2033391,17.1192079 83.2883431,17.1192079 82.3792886,17.125027 C82.2961072,17.125027 82.2129257,17.1366651 82.0940951,17.1483032 C81.5890648,18.9754842 81.0899761,20.8026653 80.5849458,22.6705796 Z" id="Shape" fill-rule="nonzero"></path>
                            <path d="M27.8811936,35.1919367 C28.1634426,35.686083 28.4226508,36.1569753 28.6933794,36.6220541 C28.9698682,37.087133 29.4134023,37.1743353 29.8972577,37.0929465 C30.1219048,37.0580655 30.3350316,36.9766767 30.6,36.9011014 C30.5827195,36.9999307 30.5884796,37.0696925 30.5654389,37.1278274 C30.3580723,37.662668 30.1507057,38.1975087 29.9375789,38.7323493 C29.8684568,38.9009404 29.7590133,39.0055832 29.563167,38.9997697 C28.2671259,38.9823292 26.9653245,38.9881427 25.6692833,38.9590753 C25.1969483,38.9474483 24.7361336,38.848619 24.4193236,38.4184211 C24.3156403,38.2788975 24.1082737,38.2788975 23.9412284,38.4009807 C23.3709702,38.8079246 22.7258297,38.9823292 22.040368,38.9823292 C20.9344128,38.9881427 19.8284577,38.9823292 18.7225025,38.9590753 C18.3135295,38.9532618 17.9218371,38.8544325 17.6165474,38.5346908 C17.2133346,38.1219334 17.0174883,37.6103467 17.132692,37.0580655 C17.3342984,36.1162791 17.5819863,35.1803098 17.8699954,34.2617791 C18.2213666,33.1514034 19.0508329,32.6281897 20.1740686,32.5235469 C20.4275167,32.500293 20.6752046,32.4595986 20.9747341,32.4189042 C20.8422499,32.1921783 20.7328064,32.0003333 20.6233629,31.8143017 C20.4275167,31.4887465 20.2201501,31.1690048 20.0415844,30.8318227 C19.6556522,30.09351 19.8687789,29.1924198 20.5427204,28.704087 C21.066897,28.320397 21.6889968,28.2157543 22.3110966,28.1343655 C22.4723817,28.1111115 22.639427,28.116925 22.8064723,28.116925 C24.9435002,28.116925 27.0805281,28.116925 29.2175561,28.116925 C29.3442801,28.116925 29.4710041,28.116925 29.65533,28.116925 C29.65533,28.9017455 29.5228458,29.6284312 29.4594838,30.3493034 C29.1369135,30.2097798 28.8604247,30.0760696 28.5724156,29.9714269 C28.428411,29.9191055 28.2671259,29.901665 28.1116009,29.901665 C27.4376595,29.8958515 26.7637181,29.8958515 26.0955368,29.901665 C25.9227313,29.901665 25.7441657,29.9191055 25.5771204,29.9656134 C25.2315094,30.0586291 25.093265,30.3551169 25.2545501,30.6806721 C25.438876,31.0469216 25.6462426,31.3957308 25.847849,31.7503534 C26.1819396,32.3375154 26.5275506,32.9188639 26.8674014,33.506026 C26.9134828,33.5816013 26.9653245,33.6571766 27.0286865,33.7560058 C27.5874243,33.3083675 28.1980037,32.9304909 28.3535286,32.1631108 C28.3938499,31.9596389 28.5148137,31.8724366 28.7279405,31.8782501 C29.0850719,31.889877 29.4479634,31.8782501 29.8050947,31.8840635 C29.8972577,31.8840635 29.9836604,31.901504 30.0527826,31.9073175 C30.0815835,31.9480119 30.0988641,31.9654523 30.0988641,31.9828928 C29.97214,32.7328324 29.8972577,33.494399 29.2060357,34.0001722 C28.8143432,34.2908465 28.4629721,34.6396556 28.1000805,34.9652108 C28.019438,35.0291591 27.9618362,35.1047345 27.8811936,35.1919367 Z M21.7811597,34.0873745 C21.7350783,34.1803903 21.7062773,34.2210847 21.694757,34.273406 C21.6083542,34.5873343 21.5219515,34.9012625 21.4470691,35.2151907 C21.3433858,35.6453886 21.2397025,36.0814 21.1532998,36.5174114 C21.0956979,36.8138992 21.1763405,36.9592363 21.4413089,36.9824902 C21.9597254,37.0289981 22.4896622,37.0813195 22.9965584,36.8894745 C23.3133684,36.7673913 23.3594499,36.6394946 23.175124,36.3430068 C22.766151,35.6628291 22.3514178,34.9826513 21.9366847,34.308287 C21.9021236,34.2327116 21.8502819,34.1745768 21.7811597,34.0873745 Z" id="Shape" fill-rule="nonzero"></path>
                            <path d="M34.441165,14.518314 C35.9563107,14.5125237 37.4060971,14.5067333 38.867767,14.518314 C38.867767,14.6051691 38.8796505,14.6399112 38.867767,14.6572822 C38.4934369,15.1147191 38.4577864,15.6821725 38.303301,16.2148838 C38.1488155,16.7475951 38.0180971,17.2918871 37.8814369,17.8303888 C37.8636117,17.8882922 37.8636117,17.9577763 37.8517282,18.0504218 C37.9705631,18.0620024 38.0834563,18.0851638 38.1904078,18.0851638 C39.2361553,18.0909541 40.2819029,18.0909541 41.3276505,18.0909541 C41.6247379,18.0909541 41.6663301,18.0504218 41.7376311,17.7782758 C41.9396505,16.9907894 42.1594951,16.2033031 42.3496311,15.4100265 C42.4090485,15.1494611 42.3852816,14.8715248 42.4031068,14.5530561 C42.4506408,14.5472657 42.5575922,14.5125237 42.6645437,14.5125237 C43.9479612,14.5125237 45.2313786,14.5125237 46.5147961,14.518314 C46.6039223,14.518314 46.6989903,14.535685 46.8,14.5414754 C46.7940583,14.6051691 46.8,14.6514918 46.7821748,14.6746532 C46.4197282,15.0683964 46.3662524,15.5779463 46.2236505,16.0585446 C45.8374369,17.3845326 45.4749903,18.7163109 45.1066019,20.0480892 C44.7500971,21.3219642 44.3876505,22.6016294 44.0370874,23.8755044 C43.9360777,24.2402958 43.9836117,24.6108776 44.0786796,24.9756691 C44.1024466,25.0741049 44.1262136,25.1667503 44.1618641,25.3115088 C43.9657864,25.3346702 43.8053592,25.3752026 43.6389903,25.3752026 C43.0982913,25.3694122 42.5575922,25.3404605 42.0168932,25.3346702 C41.2860583,25.3288798 40.5552233,25.3404605 39.8243883,25.3404605 C39.7590291,25.3404605 39.6996117,25.3230895 39.5926602,25.3057185 C39.6283107,25.178331 39.6401942,25.0567338 39.6996117,24.9640884 C40.091767,24.3329413 40.2521942,23.6323101 40.4007379,22.9200982 C40.4958058,22.4974033 40.5968155,22.0689181 40.6918835,21.6462232 C40.7097087,21.5593681 40.7215922,21.4667227 40.7453592,21.3451255 C40.6205825,21.3277545 40.5255146,21.3045932 40.4245049,21.3045932 C39.3431068,21.2988028 38.255767,21.3045932 37.1743689,21.2988028 C36.9485825,21.2988028 36.8297476,21.3740772 36.7703301,21.5941102 C36.5623689,22.3931772 36.3365825,23.1864538 36.1286214,23.9855208 C36.0276117,24.361893 36.0216699,24.7382651 36.1702136,25.1088469 C36.1880388,25.16096 36.1939806,25.213073 36.1999223,25.2593958 C36.0810874,25.4446867 35.902835,25.3867832 35.7483495,25.3867832 C35.0650485,25.3752026 34.3817476,25.3462509 33.6984466,25.3462509 C33.1874563,25.3462509 32.676466,25.3752026 32.159534,25.3809929 C31.9575146,25.3809929 31.7554951,25.3636219 31.5,25.3520412 C31.5534757,25.2246537 31.5831845,25.1377986 31.6307184,25.0509435 C31.8505631,24.6629907 32.1535922,24.3213606 32.2664854,23.8755044 C32.5398058,22.815872 32.819068,21.7562397 33.0983301,20.7023977 C33.3478835,19.7701529 33.5974369,18.8379081 33.8469903,17.9056632 C34.0906019,16.9907894 34.3282718,16.0759156 34.56,15.1610418 C34.583767,15.0683964 34.56,14.9583799 34.5421748,14.8599441 C34.5184078,14.7615083 34.488699,14.6746532 34.441165,14.518314 Z" id="Path"></path>
                            <path d="M51.8342459,38.9941767 C50.6576843,38.9941767 49.4811227,38.9941767 48.3045611,38.9941767 C47.551098,38.9941767 47.0758367,38.5981933 46.8903688,37.8644593 C46.7222886,37.206428 46.8092266,36.5658666 46.9831027,35.9311284 C47.5221187,33.9395647 48.084318,31.9538243 48.6465174,29.9680839 C48.7914142,29.4556348 49.0174531,28.9781253 49.4115723,28.5996118 C49.7419369,28.2793311 50.1302601,28.1162791 50.5881339,28.1162791 C51.82845,28.1162791 53.0745621,28.1162791 54.3148783,28.1162791 C55.572582,28.1162791 56.8360817,28.1162791 58.0937855,28.1162791 C58.7255353,28.1162791 59.1486338,28.4714995 59.3051223,29.0887678 C59.4732025,29.7642689 59.3978562,30.4223002 59.2355719,31.0803315 C58.7719023,32.9496062 58.290845,34.8130576 57.8097878,36.676509 C57.670687,37.2122513 57.4504439,37.7188772 57.0968958,38.1498003 C56.6622056,38.6797193 56.1231897,39 55.4218894,39 C54.2221443,38.9941767 53.0281951,38.9941767 51.8342459,38.9941767 C51.8342459,38.9941767 51.8342459,38.9941767 51.8342459,38.9941767 Z M52.5065668,36.268879 C52.6804429,36.268879 52.8601149,36.268879 53.033991,36.268879 C53.2194588,36.268879 53.4049267,36.2572324 53.5903945,36.268879 C54.146798,36.3154653 54.3206741,35.9893613 54.4249998,35.6224943 C54.7495685,34.475307 55.0625455,33.3281198 55.3813183,32.1809325 C55.4450729,31.9363545 55.5204192,31.6975998 55.5551944,31.4471985 C55.6015614,31.1327411 55.4508688,30.9522192 55.1552794,30.9463959 C54.3612452,30.9289261 53.5614152,30.9114562 52.767381,30.9056329 C52.2051816,30.8998096 52.0486931,31.0104521 51.8922046,31.5636642 C51.6719615,32.3323379 51.474902,33.1068349 51.2662507,33.8813319 C51.115558,34.4403673 50.9590695,34.9935795 50.8141728,35.5526149 C50.6924595,36.0126544 50.8837232,36.268879 51.341597,36.268879 C51.7241244,36.2747023 52.1124477,36.268879 52.5065668,36.268879 Z" id="Shape" fill-rule="nonzero"></path>
                            <path d="M46.8,28.1457167 C46.5838375,29.0353867 46.3506095,29.8785381 46.100316,30.704245 C46.0377427,30.704245 46.0206772,30.7100598 46.0206772,30.704245 C45.7476298,30.4076883 45.3949436,30.4716515 45.0536343,30.4716515 C43.6315124,30.4716515 42.215079,30.4716515 40.7929571,30.4716515 C40.2866817,30.4716515 39.9965688,30.7972824 40.0534537,31.3031732 C40.0648307,31.3845809 40.1558465,31.4834331 40.2354853,31.5125073 C40.3492551,31.559026 40.4857788,31.5648408 40.6109255,31.5706557 C41.6462302,31.5764705 42.6872235,31.5764705 43.7225282,31.5764705 C44.1207223,31.5764705 44.501851,31.6229892 44.8545372,31.8381382 C45.4688939,32.2102878 45.8045147,33.0185501 45.6167946,33.7454047 C45.3209932,34.8851128 45.0138149,36.0248208 44.6895711,37.1587141 C44.3482619,38.3449408 43.358465,38.978758 42.1638826,38.9903877 C39.928307,39.0078322 37.6870429,38.9962026 35.4514673,38.9962026 C35.1499774,38.9962026 34.8484876,38.9962026 34.5526862,38.9962026 C34.4559819,38.9962026 34.3592777,38.978758 34.2,38.9671284 C34.5071783,37.908828 34.8029797,36.8970464 35.0930926,35.9027093 C35.1556659,35.8968944 35.1841084,35.8852648 35.1897968,35.8910796 C35.4230248,36.1411176 35.7245147,36.1236731 36.020316,36.1178582 C37.4367494,36.1120434 38.8588713,36.1062286 40.2809932,36.1178582 C40.8725959,36.1236731 41.0432506,35.9375983 41.1342664,35.3095959 C41.1627088,35.1235211 41.0773815,35.0130392 40.8839729,34.9781502 C40.7588262,34.9548908 40.627991,34.9607057 40.5028442,34.9607057 C39.5926862,34.9607057 38.6825282,34.9723353 37.7723702,34.9665205 C37.3741761,34.9665205 36.9759819,34.9432612 36.6005418,34.768816 C36.1739052,34.5711116 35.9008578,34.2454807 35.7643341,33.7977383 C35.6448758,33.4023293 35.587991,32.9894759 35.6790068,32.5882522 C35.8837923,31.6869524 36.0772009,30.774023 36.3445598,29.8901678 C36.5322799,29.2679802 36.941851,28.7620894 37.5220767,28.4422734 C37.8690745,28.2503837 38.2388262,28.1224573 38.6370203,28.1224573 C41.2480361,28.1224573 43.8590519,28.1224573 46.4700677,28.1224573 C46.5610835,28.1050128 46.6520993,28.1282722 46.8,28.1457167 Z" id="Path"></path>
                            <path d="M32.4484128,2.20333731 C32.525956,1.95816171 32.5736749,1.78303628 32.6333235,1.60791086 C32.7287612,1.32771018 32.824199,1.04167198 32.9375313,0.761471298 C33.0329691,0.533808243 33.0568285,0.329495246 32.8301638,0.160207334 C32.8063044,0.142694792 32.8003395,0.095994678 32.7705152,0.0259445076 C32.8838476,0.0142694792 32.9733205,0.00259445076 33.0627934,0.00259445076 C36.6297799,0.00259445076 40.1967663,-0.00324306345 43.7637528,0.00259445076 C45.0163734,0.00259445076 45.8753133,0.860709039 45.8991728,2.12161211 C45.9170673,3.16652715 45.6426838,4.15306705 45.2668976,5.11625689 C45.0402329,5.6941708 44.7419899,6.23122211 44.3125199,6.69238573 C43.710069,7.34034981 42.9644615,7.67308812 42.0578027,7.66141309 C40.5606228,7.64973806 39.0634429,7.65557557 37.5662629,7.65557557 C37.3873171,7.65557557 37.2083713,7.65557557 37.0115309,7.65557557 C36.8624094,8.16927682 36.7490771,8.64795299 36.582061,9.11495413 C36.4150449,9.57028023 36.4866232,10.0139313 36.5224124,10.4692574 C36.5343421,10.5976827 36.5224124,10.726108 36.5224124,10.8837209 C34.8522515,10.8837209 33.1999852,10.8837209 31.5,10.8837209 C31.5536837,10.7786457 31.5775432,10.6969205 31.6252621,10.6385453 C32.227713,9.89718103 32.4663074,8.99820384 32.7585855,8.12257671 C33.1403366,6.9667489 33.5220876,5.8167586 33.9038387,4.66093079 C34.1543628,3.89621643 34.404887,3.13150207 34.6554111,2.3667877 C34.6673408,2.33176262 34.661376,2.29673753 34.6733057,2.19749979 C33.9396279,2.20333731 33.2238446,2.20333731 32.4484128,2.20333731 Z M37.7690682,5.02869418 C37.9420491,5.04036921 38.0494166,5.05204424 38.1627489,5.05204424 C38.7413404,5.05204424 39.3258967,5.05788175 39.9044882,5.05204424 C40.1311528,5.04620672 40.3637824,5.0345317 40.5844822,4.98783158 C41.4314924,4.81270616 41.962365,4.12387948 41.9206109,3.28327743 C41.8907866,2.68785099 41.5269302,2.27338748 40.9304441,2.25003742 C40.208696,2.22084985 39.4809831,2.23836239 38.759235,2.23252488 C38.5922189,2.23252488 38.5087108,2.31425008 38.4669568,2.47770047 C38.3178353,3.04393935 38.1508192,3.61017823 37.9957329,4.17641711 C37.9181897,4.43910525 37.8525762,4.7076309 37.7690682,5.02869418 Z" id="Shape" fill-rule="nonzero"></path>
                            <path d="M59.3770426,25.3488683 C57.873336,25.3488683 56.3753687,25.3488683 54.8314866,25.3488683 C54.88888,24.9363535 54.9921881,24.5528891 54.9864488,24.1752347 C54.9864488,23.8033904 54.8831407,23.425736 54.8257473,23.0364615 C54.6937425,23.0248414 54.5846951,23.0074112 54.4756477,23.0074112 C52.9317656,23.0074112 51.393623,23.0074112 49.8497409,23.0016011 C49.6316461,23.0016011 49.493902,23.077132 49.3733758,23.2572441 C48.9371861,23.9021615 48.4895177,24.5354589 48.053328,25.1745663 C47.9385413,25.3430582 47.8065365,25.3953488 47.5941809,25.3895388 C46.9226784,25.3721086 46.2569151,25.3953488 45.5854125,25.3953488 C45.4132324,25.3953488 45.2410522,25.3721086 45,25.3546784 C45.3845357,24.7039508 45.8379434,24.1694246 46.2282184,23.600038 C46.6184934,23.0306514 47.0374651,22.472885 47.4392188,21.9093085 C47.8524512,21.3399219 48.2599442,20.7705353 48.6731766,20.2011487 C49.0806696,19.6375721 49.4824233,19.0739956 49.8899163,18.5162292 C50.2974093,17.9526526 50.7049024,17.383266 51.1123954,16.8196895 C51.1009167,16.7906392 51.0836987,16.7673989 51.07222,16.7383486 C50.4408928,16.7383486 49.8038262,16.7383486 49.120845,16.7383486 C49.155281,16.604717 49.1610203,16.5233761 49.1954564,16.4536553 C49.3848545,16.0585707 49.5685134,15.6634861 49.7751295,15.2800217 C49.8784376,15.0824794 49.9243523,14.9081774 49.7808689,14.7164452 C49.7579115,14.6815847 49.7579115,14.6292941 49.7464328,14.5886237 C49.9128737,14.5130928 56.3581507,14.4782324 56.7599043,14.5537633 C56.8000797,14.6757747 56.8574731,14.8094062 56.8919091,14.9488478 C57.1731367,16.2270626 57.448625,17.5052775 57.7183739,18.7893023 C58.0110801,20.1779084 58.315265,21.5665145 58.5907533,22.9551206 C58.7342367,23.6929991 58.9638103,24.3902072 59.3139099,25.0467448 C59.348346,25.1106555 59.3713033,25.1803763 59.4,25.2500972 C59.3942607,25.2675274 59.382782,25.2849576 59.3770426,25.3488683 Z M53.9878039,20.4567916 C53.8213631,19.5039406 53.6319649,18.58595 53.3966521,17.6098587 C53.2761259,17.7144399 53.1900359,17.7609204 53.1383818,17.8364513 C52.5931447,18.6150003 52.0536469,19.3993594 51.5198884,20.1837185 C51.4739737,20.2534393 51.4567557,20.3405903 51.410841,20.4626017 C52.2774811,20.4567916 53.0982065,20.4567916 53.9878039,20.4567916 Z" id="Shape" fill-rule="nonzero"></path>
                            <path d="M55.7563827,8.10316582 C55.4938423,9.05134675 55.2488045,9.95299119 54.9920983,10.8604527 C54.8754137,10.8720868 54.7703975,10.8837209 54.6712156,10.8837209 C52.4483732,10.8837209 50.2255309,10.8837209 48.0085227,10.8837209 C47.5009445,10.8837209 47.0283718,10.7848309 46.6024728,10.4939779 C46.2057451,10.226393 45.9898785,9.83083291 45.9315362,9.37710216 C45.8848623,9.00481026 45.8848623,8.60925012 45.9665416,8.24277528 C46.3866062,6.35223049 46.8358421,4.47331983 47.285078,2.5885921 C47.360923,2.27447081 47.4601049,1.96034952 47.5592869,1.65204529 C47.8043246,0.901644438 48.3585766,0.471181932 49.0645187,0.186145949 C49.4670807,0.0290853045 49.8754769,0 50.3013759,0 C52.6000632,0.00581706089 54.8929164,0 57.1916038,0 C57.3082884,0 57.4308073,0 57.6,0 C57.3607965,0.971449169 57.1274272,1.88472773 56.8998922,2.80382335 C56.8823895,2.81545747 56.8590525,2.82709159 56.8415499,2.83872572 C56.5731752,2.4547997 56.1881159,2.57114091 55.838062,2.57114091 C54.682884,2.56532385 53.5218719,2.56532385 52.366694,2.57114091 C51.6490834,2.57695798 51.2173503,2.90853045 51.059826,3.55422421 C50.8206225,4.56057574 50.5580821,5.55529315 50.3130443,6.56164469 C50.2371993,6.85831479 50.1555201,7.1549849 50.1263489,7.45747206 C50.0796751,7.94028812 50.3130443,8.20787292 50.8031198,8.27186059 C50.9489756,8.28931177 51.1006656,8.29512883 51.2523557,8.29512883 C52.4483732,8.29512883 53.6443908,8.30094589 54.8345741,8.28931177 C55.0504407,8.28931177 55.2663072,8.20787292 55.4821738,8.15551937 C55.5521846,8.16133643 55.6221954,8.13806819 55.7563827,8.10316582 Z" id="Path"></path>
                            <path d="M30.4093839,22.7253179 C30.3567526,22.8881956 30.333361,22.9987197 30.2924255,23.1092439 C30.035117,23.78984 29.7719606,24.4646191 29.5205,25.1393982 C29.4561729,25.31391 29.3626062,25.3953488 29.1754727,25.3953488 C28.8421413,25.3895318 28.5088098,25.3895318 28.1754783,25.3895318 C26.438646,25.3895318 24.6959657,25.3895318 22.9591333,25.3895318 C22.4094288,25.3895318 21.8772681,25.3313612 21.4094344,24.9997887 C21.0877988,24.7729233 20.9123612,24.458802 20.7954028,24.0923272 C20.6141173,23.5280723 20.7252277,22.9696344 20.8480341,22.4111966 C21.0877988,21.3292233 21.3275635,20.2472499 21.59072,19.1769107 C21.8363326,18.1821933 22.0877932,17.193293 22.3801892,16.2102097 C22.6374977,15.3434676 23.280769,14.8548345 24.1462612,14.6279691 C24.5790073,14.517445 25.0117534,14.5116279 25.4561953,14.5116279 C27.5672946,14.517445 29.6842418,14.5116279 31.7953411,14.5116279 C31.9824745,14.5116279 32.16376,14.5116279 32.3508935,14.5116279 C32.3742852,14.6105179 32.4093727,14.6686886 32.3976769,14.709408 C32.1754559,15.5819671 31.9532349,16.4487092 31.7076223,17.385256 C31.2982678,16.9547935 30.8304342,17.1060371 30.3976881,17.10022 C29.3158228,17.0827688 28.2281096,17.0944029 27.1403964,17.0944029 C26.7485858,17.0944029 26.3977105,17.19911 26.14625,17.5190484 C26.0468353,17.6470237 25.9591165,17.8040844 25.9181811,17.961145 C25.6023934,19.1943619 25.2983015,20.4275788 24.9883617,21.6666128 C24.96497,21.7538687 24.9415783,21.8469417 24.9357304,21.9400147 C24.9006429,22.4751843 25.187191,22.7893056 25.7251997,22.7951226 C27.0936131,22.8009397 28.4561785,22.8009397 29.8245919,22.7951226 C29.9883337,22.8009397 30.1637713,22.7544032 30.4093839,22.7253179 Z" id="Path"></path>
                            <path d="M18.8710157,25.3953488 C17.3608588,25.3953488 15.8863749,25.3953488 14.4,25.3953488 C14.411891,25.3137876 14.4,25.2730069 14.4178365,25.2438779 C14.8102395,24.6554716 14.9529315,23.9738523 15.1372419,23.3097105 C15.4642444,22.1037688 15.7793559,20.8978271 16.1004129,19.6918854 C16.4928159,18.2237824 16.8792733,16.7556795 17.2776218,15.2875765 C17.3311313,15.0894991 17.3549133,14.9088992 17.1943848,14.7399508 C17.1587118,14.704996 17.1527663,14.6409121 17.1349298,14.5943057 C17.3608588,14.495267 21.2611065,14.4777896 21.6,14.5826541 C21.552436,14.6583895 21.5108175,14.7166476 21.4751445,14.7865573 C21.374071,14.9613314 21.2373245,15.1302798 21.1897605,15.3167056 C20.7557391,16.889673 20.3454996,18.4684663 19.9233691,20.0414337 C19.5785301,21.3289367 19.2277457,22.6164397 18.8591247,23.8981169 C18.7402147,24.3059232 18.7164327,24.702078 18.8234517,25.1098844 C18.8353427,25.179794 18.8412882,25.2497037 18.8710157,25.3953488 Z" id="Path"></path>
                            <path d="M42.434895,10.8751393 C42.2078644,10.8751393 41.9808337,10.8825469 41.7538031,10.8751393 C41.4842043,10.860324 41.3564996,10.7269861 41.4132572,10.4677181 C41.562246,9.81584427 41.732519,9.16397042 41.9169814,8.51950422 C41.9808337,8.31208981 42.1652961,8.17875198 42.3923267,8.17134432 C42.846388,8.16393667 43.3004492,8.15652901 43.7474157,8.17134432 C43.9957305,8.17875198 44.1447193,8.35653576 44.0879617,8.63061908 C43.9460675,9.27508528 43.7686999,9.90473616 43.5771428,10.534387 C43.5061957,10.7714321 43.3004492,10.8973623 43.0379451,10.8825469 C42.846388,10.8677316 42.6406415,10.8751393 42.434895,10.8751393 C42.434895,10.8751393 42.434895,10.8751393 42.434895,10.8751393 Z" id="Path"></path>
                            <path d="M56.8152286,10.8744308 C56.6220251,10.8744308 56.4288216,10.8817994 56.2356181,10.8744308 C55.8492111,10.8670622 55.7418758,10.7417962 55.827744,10.3438925 C55.920768,9.91651444 56.0281032,9.49650497 56.1425942,9.0764955 C56.3858875,8.18489646 56.4145103,8.17015928 57.3232823,8.1627907 C57.5737313,8.1627907 57.8241803,8.1627907 58.0746293,8.17752787 C58.4037908,8.19226505 58.5540602,8.35437396 58.4825034,8.6785918 C58.353701,9.26071018 58.1962759,9.84282857 58.0388509,10.4175784 C57.9529826,10.7344276 57.7383121,10.9039051 57.4019948,10.8817994 C57.2016357,10.8596936 57.0084321,10.8670622 56.8152286,10.8744308 C56.8152286,10.8744308 56.8152286,10.8744308 56.8152286,10.8744308 Z" id="Path"></path>
                            <path d="M71.5557994,39 C71.2580104,39 71.1,38.8369015 71.1,38.5237523 C71.1,38.3019383 71.3005517,38.0931721 71.5193354,38.0931721 C71.7624284,38.0866482 71.9933668,38.2954143 71.9994441,38.5433241 C72.0115987,38.7977578 71.8232017,39 71.5557994,39 Z" id="Path"></path>
                        </g>
                    </g>
                </g>
                <g id="logo" transform="translate(124.000000, 5.000000)">
                    <g id="1" transform="translate(7.000000, 2.000000)">
                        <path d="M22.5599567,13.6209593 L22.5599567,17.7267987 C31.1041126,17.8571429 33.3560606,12.5782065 33.3560606,8.73305527 C33.3560606,4.95307612 30.4417749,1.13686838e-13 25.1430736,1.13686838e-13 L21.632684,1.13686838e-13 L17.1287879,4.23618352 L17.1287879,17.8571429 L21.5002165,17.8571429 L21.5002165,4.10583942 L24.2820346,4.10583942 C26.6664502,4.10583942 28.6534632,5.60479666 28.6534632,8.86339937 C28.719697,12.1220021 26.1365801,13.6209593 22.5599567,13.6209593 Z" id="Path"></path>
                        <polygon id="Path" points="0 11.6233766 0 17.6623377 11.7598454 6.03896104 11.7598454 11.6233766 7.68660287 11.6233766 3.74475524 15.4545455 11.8255429 15.4545455 11.8255429 17.8571429 16.2272727 17.8571429 16.2272727 1.13686838e-13 11.8255429 1.13686838e-13"></polygon>
                        <path d="M47.9240228,9.82142857 C47.7933685,10.5540293 47.4667325,11.3476801 46.8787879,11.9581807 L46.8787879,16.9642857 C47.8586957,16.5369353 48.9039306,15.9874847 49.6878568,15.254884 C50.4064559,14.5833333 50.9290733,13.8507326 51.3863636,13.1181319 L47.9240228,9.82142857 Z" id="Path"></path>
                        <path d="M49.6455068,2.57505176 C48.9615987,1.86335404 48.3398642,1.34575569 47.5316092,0.892857143 L44.1742424,4.38664596 C44.1742424,4.38664596 45.2933647,4.51604555 46.2259666,5.35714286 L51.3863636,5.35714286 C50.9511494,4.38664596 50.3915883,3.35144928 49.6455068,2.57505176 Z" id="Path"></path>
                        <path d="M39.6666667,17.2602734 C40.7295056,17.6515288 41.9916268,17.9123657 43.1208931,17.8471565 C44.1173046,17.8471565 45.0472887,17.6515288 45.9772727,17.3906919 L45.9772727,12.5 C45.3129984,12.9564646 44.3830144,13.3477199 43.5194577,13.4129292 L39.6666667,17.2602734 Z" id="Path"></path>
                        <path d="M38.7431633,9.21352584 L34.8512565,5.35714286 C34.4554693,6.35448328 34.2575758,7.61778116 34.2575758,8.7481003 C34.2575758,9.74544073 34.3895048,10.6762918 34.7193274,11.6071429 L39.6666667,11.6071429 C39.1389505,10.8757599 38.8750924,10.0778875 38.7431633,9.21352584 Z" id="Path"></path>
                        <path d="M39.1041829,16.9642857 L42.3712121,13.4847689 C41.6315074,13.3534664 40.6452344,13.0252101 39.9671717,12.5 L35.1590909,12.5 C35.5905853,13.4847689 36.1453639,14.4695378 36.9467107,15.3230042 C37.6247734,15.9795168 38.3028361,16.5047269 39.1041829,16.9642857 Z" id="Path"></path>
                        <path d="M39.6666667,5.89896215 L39.6666667,0.892857143 C38.6867589,1.25915751 37.6415239,1.86965812 36.8575977,2.66330891 C36.1389987,3.33485958 35.6163812,4.00641026 35.1590909,4.80006105 L38.6214317,8.03571429 C38.7520861,7.24206349 39.1440492,6.50946276 39.6666667,5.89896215 Z" id="Path"></path>
                        <path d="M46.8787879,0.587979094 C45.8378632,0.195993031 44.5367073,1.13686838e-13 43.4307248,1.13686838e-13 C42.4548579,1.13686838e-13 41.4139331,0.130662021 40.5681818,0.457317073 L40.5681818,5.35714286 C41.2187598,4.89982578 42.1946267,4.57317073 43.040378,4.44250871 L46.8787879,0.587979094 Z" id="Path"></path>
                        <path d="M47.8022912,8.66935484 L51.7601626,12.5 C52.1559497,11.4247312 52.2878788,10.3494624 52.2878788,9.13978495 C52.2878788,8.13172043 52.1559497,7.19086022 51.8261271,6.25 L46.8787879,6.25 C47.4065041,6.98924731 47.6703622,7.79569892 47.8022912,8.66935484 Z" id="Path"></path>
                        <path d="M114.829823,0.317742755 L102.970882,11.8835791 L102.970882,0.190645653 L95.6079133,7.37163193 L95.6079133,1.13686838e-13 L83.6186544,11.6929334 L83.6186544,0.190645653 L79.5136364,0.190645653 L67.3289004,12.0742247 L65.3741299,9.91357397 C66.3515152,9.40518556 67.5243774,8.38840874 67.5243774,6.35485511 C67.5243774,2.66903915 64.0709496,0.254194204 62.0510201,0.254194204 C60.0310906,0.254194204 57.555048,0.254194204 57.555048,0.254194204 L53.1893939,4.51194713 L53.1893939,17.6664972 L57.620207,17.6664972 L57.620207,4.32130147 L60.8781578,4.32130147 C61.8555431,4.32130147 63.1587234,5.27452974 63.1587234,6.60904931 C63.1587234,8.00711744 62.1161791,8.9603457 60.7478398,8.9603457 L58.7279103,9.15099136 L67.5243774,17.6664972 L79.1226823,6.35485511 L79.1226823,11.4387392 L75.2131413,11.4387392 L71.1081233,15.4422979 L79.1878413,15.4422979 L79.1878413,17.6664972 L83.8141314,17.6664972 L91.2422592,10.4219624 L91.2422592,17.6029487 L98.540069,10.4855109 L98.540069,17.8571429 L103.166359,17.8571429 L114.829823,6.48195221 L114.829823,11.5658363 L111.0506,11.5658363 L107.0759,15.4422979 L114.829823,15.4422979 L114.829823,17.5394001 L119,17.5394001 L119,0.317742755 L114.829823,0.317742755 Z" id="Path"></path>
                        <polygon id="Path" points="2.25378788 23.8868275 2.25378788 23.8868275 1.12689394 19.6428571 0 19.6428571 0 25 0.704308712 25 0.704308712 20.33859 0.704308712 20.33859 1.90163352 25 2.60594223 25 3.80326705 20.33859 3.80326705 20.33859 3.80326705 25 4.50757576 25 4.50757576 19.6428571 3.31025095 19.6428571"></polygon>
                        <path d="M8.11363636,19.6428571 C6.59909091,19.6428571 6.31060606,21.0491071 6.31060606,22.3214286 C6.31060606,23.59375 6.59909091,25 8.11363636,25 C9.62818182,25 9.91666667,23.59375 9.91666667,22.3214286 C9.91666667,21.0491071 9.62818182,19.6428571 8.11363636,19.6428571 Z M8.11363636,24.53125 C7.17606061,24.53125 7.03181818,23.5267857 7.03181818,22.3883929 C7.03181818,21.1830357 7.17606061,20.2455357 8.11363636,20.2455357 C9.05121212,20.2455357 9.19545455,21.25 9.19545455,22.3883929 C9.19545455,23.5267857 9.05121212,24.53125 8.11363636,24.53125 Z" id="Shape" fill-rule="nonzero"></path>
                        <path d="M15.0313853,24.0955473 L14.9577922,23.1910946 C14.9577922,22.7040816 14.6634199,22.3562152 14.1482684,22.2866419 L14.1482684,22.2866419 C14.8106061,22.1474954 15.0313853,21.5213358 15.0313853,20.9647495 C15.0313853,20.1298701 14.4426407,19.6428571 13.5595238,19.6428571 L11.719697,19.6428571 L11.719697,25 L12.4556277,25 L12.4556277,22.6345083 L13.4123377,22.6345083 C13.780303,22.6345083 14.2218615,22.7040816 14.2218615,23.3998145 L14.2954545,24.2346939 C14.2954545,24.512987 14.3690476,24.9304267 14.5162338,25 L15.3257576,25 C15.1785714,24.8608534 15.0313853,24.7217069 15.0313853,24.0955473 Z M13.1179654,22.0083488 L12.4556277,22.0083488 L12.4556277,20.1298701 L13.2651515,20.1298701 C13.9274892,20.1298701 14.2954545,20.4777365 14.2954545,20.9647495 C14.2954545,22.0083488 13.5595238,22.0083488 13.1179654,22.0083488 Z" id="Shape" fill-rule="nonzero"></path>
                        <polygon id="Path" points="17.7884331 22.4953618 19.6354398 22.4953618 19.6354398 21.9387755 17.7884331 21.9387755 17.7884331 20.1994434 19.7673688 20.1994434 19.7673688 19.6428571 17.1287879 19.6428571 17.1287879 25 19.8333333 25 19.8333333 24.4434137 17.7884331 24.4434137"></polygon>
                        <polygon id="Path" points="25.2424242 20.1994434 26.3129735 20.1994434 26.3129735 25 26.8764205 25 26.8764205 20.1994434 27.9469697 20.1994434 27.9469697 19.6428571 25.2424242 19.6428571"></polygon>
                        <polygon id="Path" points="32.7681159 21.8692022 31.2394598 21.8692022 31.2394598 19.6428571 30.6515152 19.6428571 30.6515152 25 31.2394598 25 31.2394598 22.4257885 32.7681159 22.4257885 32.7681159 25 33.3560606 25 33.3560606 19.6428571 32.7681159 19.6428571"></polygon>
                        <path d="M37.4524189,19.6428571 L36.0606061,25 L36.6932483,25 L37.0728336,23.538961 L38.6544391,23.538961 L39.0340245,25 L39.6666667,25 L38.338118,19.6428571 C38.338118,19.6428571 37.4524189,19.6428571 37.4524189,19.6428571 Z M37.1360978,22.9823748 L37.8320043,20.4081633 L37.8320043,20.4081633 L38.4646465,22.9823748 L37.1360978,22.9823748 Z" id="Shape" fill-rule="nonzero"></path>
                        <polygon id="Path" points="43.6563507 24.0955473 43.6563507 24.0955473 42.1602192 19.6428571 41.469697 19.6428571 41.469697 25 41.9875887 25 41.9875887 20.6864564 41.9875887 20.6864564 43.4261767 25 44.1742424 25 44.1742424 19.6428571 43.6563507 19.6428571"></polygon>
                        <path d="M51.8766614,19.6428571 L50.4848485,25 L51.1174907,25 L51.497076,23.538961 L53.0786816,23.538961 L53.4582669,25 L54.0909091,25 L52.7623604,19.6428571 C52.7623604,19.6428571 51.8766614,19.6428571 51.8766614,19.6428571 Z M51.5603402,22.9823748 L52.2562467,20.4081633 L52.2562467,20.4081633 L52.8888889,22.9823748 L51.5603402,22.9823748 Z" id="Shape" fill-rule="nonzero"></path>
                        <path d="M60.4383117,24.4642857 C59.4816017,24.4642857 59.3344156,23.4598214 59.3344156,22.3214286 C59.3344156,21.1160714 59.4816017,20.1785714 60.4383117,20.1785714 C61.1742424,20.1785714 61.3950216,20.6473214 61.3950216,21.25 L62.1309524,21.25 C62.1309524,20.2455357 61.6158009,19.6428571 60.4383117,19.6428571 C58.8928571,19.6428571 58.5984848,21.0491071 58.5984848,22.3214286 C58.5984848,23.59375 58.8192641,25 60.4383117,25 C61.6893939,25 62.1309524,24.1294643 62.2045455,23.125 L61.4686147,23.125 C61.3950216,23.7276786 61.2478355,24.4642857 60.4383117,24.4642857 Z" id="Path"></path>
                        <path d="M65.3993886,19.6428571 L64.0075758,25 L64.640218,25 L65.0198033,23.538961 L66.6014088,23.538961 L66.9809942,25 L67.6136364,25 L66.2850877,19.6428571 C66.2850877,19.6428571 65.3993886,19.6428571 65.3993886,19.6428571 Z M65.0830675,22.9823748 L65.778974,20.4081633 L65.778974,20.4081633 L66.4116162,22.9823748 L65.0830675,22.9823748 Z" id="Shape" fill-rule="nonzero"></path>
                        <polygon id="Path" points="71.706229 23.8868275 71.706229 23.8868275 70.5614478 19.6428571 69.4166667 19.6428571 69.4166667 25 70.1321549 25 70.1321549 20.33859 70.1321549 20.33859 71.3484848 25 71.9924242 25 73.280303 20.33859 73.280303 20.33859 73.280303 25 73.9242424 25 73.9242424 19.6428571 72.7794613 19.6428571"></polygon>
                        <polygon id="Path" points="77.2884331 22.4953618 79.1354398 22.4953618 79.1354398 21.9387755 77.2884331 21.9387755 77.2884331 20.1994434 79.2673688 20.1994434 79.2673688 19.6428571 76.6287879 19.6428571 76.6287879 25 79.3333333 25 79.3333333 24.4434137 77.2884331 24.4434137"></polygon>
                        <path d="M84.4480519,24.0955473 L84.3744589,23.1910946 C84.3744589,22.7040816 84.0800866,22.3562152 83.5649351,22.2866419 L83.5649351,22.2866419 C84.2272727,22.1474954 84.4480519,21.5213358 84.4480519,20.9647495 C84.4480519,20.1298701 83.8593074,19.6428571 82.9761905,19.6428571 L81.1363636,19.6428571 L81.1363636,25 L81.8722944,25 L81.8722944,22.6345083 L82.8290043,22.6345083 C83.1969697,22.6345083 83.6385281,22.7040816 83.6385281,23.3998145 L83.7121212,24.2346939 C83.7121212,24.512987 83.7857143,24.9304267 83.9329004,25 L84.7424242,25 C84.5952381,24.8608534 84.4480519,24.7217069 84.4480519,24.0955473 Z M82.534632,22.0083488 L81.8722944,22.0083488 L81.8722944,20.1298701 L82.6818182,20.1298701 C83.3441558,20.1298701 83.7121212,20.4777365 83.7121212,20.9647495 C83.7121212,22.0083488 82.9761905,22.0083488 82.534632,22.0083488 Z" id="Shape" fill-rule="nonzero"></path>
                        <path d="M87.9372674,19.6428571 L86.5454545,25 L87.1780968,25 L87.5576821,23.538961 L89.1392876,23.538961 L89.5188729,25 L90.1515152,25 L88.8229665,19.6428571 C88.8229665,19.6428571 87.9372674,19.6428571 87.9372674,19.6428571 Z M87.6842105,22.9823748 L88.380117,20.4081633 L88.380117,20.4081633 L89.0127592,22.9823748 L87.6842105,22.9823748 Z" id="Shape" fill-rule="nonzero"></path>
                        <path d="M96.1933167,21.031746 C96.1933167,20.5026455 96.4809125,20.1719577 96.9410657,20.1719577 C97.4587381,20.1719577 97.6312956,20.5687831 97.6312956,21.0978836 L98.2064871,21.0978836 C98.2064871,20.1719577 97.803853,19.6428571 96.9410657,19.6428571 C95.7906827,19.6428571 95.6181252,20.5687831 95.6181252,21.031746 C95.6181252,22.8835979 97.7463339,22.0899471 97.7463339,23.5449735 C97.7463339,24.0740741 97.401219,24.4708995 96.9985849,24.4708995 C96.1933167,24.4708995 96.1357976,23.8756614 96.1357976,23.2804233 L95.5606061,23.2804233 C95.5606061,24.3386243 95.8482018,25 96.8835466,25 C97.5162573,25 98.2640062,24.6693122 98.2640062,23.478836 C98.3215254,21.6269841 96.1933167,22.4867725 96.1933167,21.031746 Z" id="Path"></path>
                        <polygon id="Path" points="100.068182 20.1994434 101.540043 20.1994434 101.540043 25 102.202381 25 102.202381 20.1994434 103.674242 20.1994434 103.674242 19.6428571 100.068182 19.6428571"></polygon>
                        <path d="M107.280303,19.6428571 C105.765758,19.6428571 105.477273,21.0491071 105.477273,22.3214286 C105.477273,23.59375 105.765758,25 107.280303,25 C108.794848,25 109.083333,23.59375 109.083333,22.3214286 C109.083333,21.0491071 108.794848,19.6428571 107.280303,19.6428571 Z M107.280303,24.53125 C106.342727,24.53125 106.198485,23.5267857 106.198485,22.3883929 C106.198485,21.1830357 106.342727,20.2455357 107.280303,20.2455357 C108.217879,20.2455357 108.362121,21.25 108.362121,22.3883929 C108.362121,23.5267857 108.217879,24.53125 107.280303,24.53125 Z" id="Shape" fill-rule="nonzero"></path>
                        <path d="M114.198052,24.0955473 L114.124459,23.1910946 C114.124459,22.7040816 113.830087,22.3562152 113.314935,22.2866419 L113.314935,22.2866419 C113.977273,22.1474954 114.198052,21.5213358 114.198052,20.9647495 C114.198052,20.1298701 113.609307,19.6428571 112.72619,19.6428571 L110.886364,19.6428571 L110.886364,25 L111.622294,25 L111.622294,22.6345083 L112.579004,22.6345083 C112.94697,22.6345083 113.388528,22.7040816 113.388528,23.3998145 L113.462121,24.2346939 C113.462121,24.512987 113.535714,24.9304267 113.6829,25 L114.492424,25 C114.345238,24.8608534 114.271645,24.7217069 114.198052,24.0955473 Z M112.358225,22.0083488 L111.695887,22.0083488 L111.695887,20.1298701 L112.505411,20.1298701 C113.167749,20.1298701 113.535714,20.4777365 113.535714,20.9647495 C113.535714,22.0083488 112.799784,22.0083488 112.358225,22.0083488 Z" id="Shape" fill-rule="nonzero"></path>
                        <polygon id="Path" points="116.9551 22.4953618 118.802106 22.4953618 118.802106 21.9387755 116.9551 21.9387755 116.9551 20.1994434 118.934035 20.1994434 118.934035 19.6428571 116.295455 19.6428571 116.295455 25 119 25 119 24.4434137 116.9551 24.4434137"></polygon>
                    </g>
                </g>
            </g>
        </g>
    </g>
</svg>