<?xml version="1.0" encoding="UTF-8"?>
<svg width="144px" height="41px" viewBox="0 0 144 41" version="1.1" xmlns="http://www.w3.org/2000/svg" xmlns:xlink="http://www.w3.org/1999/xlink">
    <!-- Generator: Sketch 55.1 (78136) - https://sketchapp.com -->
    <title>technology logos / logo 2</title>
    <desc>Created with Sketch.</desc>
    <g id="💵-Fraudfix" stroke="none" stroke-width="1" fill="none" fill-rule="evenodd">
        <g id="Home" transform="translate(-653.000000, -5317.000000)">
            <g id="platforms" transform="translate(0.000000, 5046.000000)">
                <g id="logos" transform="translate(460.000000, 268.000000)">
                    <g id="technology-logos-/-logo-2-hover" transform="translate(193.000000, 3.000000)">
                        <g id="logo">
                            <g id="8">
                                <path d="M30.6861266,7.77973052 C30.6628089,7.56883421 30.4762671,7.47510252 30.3363607,7.47510252 C30.1964544,7.47510252 27.1418324,7.24077329 27.1418324,7.24077329 C27.1418324,7.24077329 25.0199193,5.10837727 24.7634244,4.89748096 C24.5302471,4.66315173 24.0872103,4.7334505 23.9006685,4.78031634 C23.8773508,4.78031634 23.434314,4.92091388 22.7114645,5.15524312 C21.988615,3.06971295 20.7527756,1.17164616 18.5375917,1.17164616 L18.3277322,1.17164616 C17.7214713,0.374926772 16.9286686,0 16.2757723,0 C11.1458727,0 8.67419384,6.4440539 7.90470891,9.72466315 C5.89938452,10.3573521 4.47700327,10.7791447 4.3137792,10.8494435 C3.19452838,11.2009373 3.17121065,11.2243702 3.0313043,12.2788518 C2.91471567,13.0755712 0,35.735208 0,35.735208 L22.6881468,40 L35,37.3286467 C35.0232235,37.2817809 30.7094443,7.99062683 30.6861266,7.77973052 Z M21.4523074,5.48330404 C20.8926819,5.6473345 20.2164679,5.85823081 19.5402539,6.09256005 L19.5402539,5.67076743 C19.5402539,4.40538957 19.3770298,3.37434095 19.0738994,2.55418864 C20.2397856,2.69478617 20.9626351,3.98359695 21.4523074,5.48330404 L21.4523074,5.48330404 Z M17.6515181,2.81195079 C17.9546485,3.60867018 18.1645081,4.7334505 18.1645081,6.28002343 L18.1645081,6.51435267 C16.9053509,6.91271236 15.5762406,7.31107206 14.2004948,7.7562976 C14.9699797,4.80374927 16.4389964,3.35090803 17.6515181,2.81195079 L17.6515181,2.81195079 Z M16.1591837,1.35910955 C16.3923609,1.35910955 16.6255382,1.45284124 16.81208,1.59343878 C15.1565215,2.36672525 13.4076921,4.31165788 12.6848426,8.24838899 C11.5889095,8.59988284 10.5396119,8.90451084 9.53694968,9.23257176 C10.3763878,6.23315759 12.4749831,1.35910955 16.1591837,1.35910955 Z" id="Shape" fill="#655C7A" fill-rule="nonzero"></path>
                                <path d="M30.3863636,7.69588313 C30.25,7.69588313 27.2727273,7.46347942 27.2727273,7.46347942 C27.2727273,7.46347942 25.2045455,5.34860558 24.9545455,5.13944223 C24.8636364,5.04648074 24.75,5 24.6590909,5 L23,40 L35,37.3505976 C35,37.3505976 30.7954545,8.25365206 30.7727273,8.04448871 C30.6818182,7.83532537 30.5227273,7.74236388 30.3863636,7.69588313 Z" id="Path" fill="#47415B"></path>
                                <path d="M19,14.5786661 L17.5222025,19.0409488 C17.5222025,19.0409488 16.1829485,18.3242091 14.589698,18.3242091 C12.2113677,18.3242091 12.0959147,19.8270504 12.0959147,20.1969806 C12.0959147,22.2315965 17.4067496,23.0176981 17.4067496,27.8036697 C17.4067496,31.5723333 15.0284192,34 11.8188277,34 C7.93960924,34 6,31.5954539 6,31.5954539 L7.03907638,28.1735998 C7.03907638,28.1735998 9.07104796,29.9307681 10.7797513,29.9307681 C11.9111901,29.9307681 12.3730018,29.052184 12.3730018,28.4048062 C12.3730018,25.7459331 8.03197158,25.6303299 8.03197158,21.2374092 C8.03197158,17.5612281 10.6642984,14.0006502 15.9982238,14.0006502 C17.9840142,13.9775296 19,14.5786661 19,14.5786661 Z" id="Path" fill="#FFFFFF"></path>
                                <path d="M49.820507,22.8335704 C48.5738753,22.1763869 47.9387988,21.5896159 47.9387988,20.8150782 C47.9387988,19.829303 48.8326102,19.1955903 50.2203699,19.1955903 C51.8433432,19.1955903 53.2781457,19.8527738 53.2781457,19.8527738 L54.4071706,16.4025605 C54.4071706,16.4025605 53.3722311,15.6045519 50.3144554,15.6045519 C46.0570907,15.6045519 43.0934003,18.0455192 43.0934003,21.4722617 C43.0934003,23.4203414 44.4811601,24.8990043 46.3158255,25.955192 C47.8211921,26.7766714 48.3386618,27.3869132 48.3386618,28.2788051 C48.3386618,29.1941679 47.5859785,29.9452347 46.1982188,29.9452347 C44.1518612,29.9452347 42.1995889,28.8890469 42.1995889,28.8890469 L41,32.3392603 C41,32.3392603 42.7876227,33.5362731 45.7983558,33.5362731 C50.1733272,33.5362731 53.3487098,31.3769559 53.3487098,27.5042674 C53.301667,25.3918919 51.7257365,23.9366999 49.820507,22.8335704 Z M67.2733501,15.5576102 C65.1093857,15.5576102 63.4158484,16.5903272 62.122174,18.1394026 L62.0751313,18.1159317 L63.9568395,8.35206259 L59.0879196,8.35206259 L54.3366065,33.2311522 L59.2055264,33.2311522 L60.8284997,24.7347084 C61.4635762,21.5192034 63.1335921,19.5241821 64.6860014,19.5241821 C65.7915049,19.5241821 66.2148892,20.2752489 66.2148892,21.3314367 C66.2148892,21.9886202 66.1678465,22.8335704 66.0031971,23.4907539 L64.1685316,33.2311522 L69.0374515,33.2311522 L70.942681,23.185633 C71.1543731,22.1294452 71.2955013,20.8620199 71.2955013,19.9935989 C71.2719799,17.200569 69.8371774,15.5576102 67.2733501,15.5576102 L67.2733501,15.5576102 Z M82.3034939,15.5576102 C76.423156,15.5576102 72.5421329,20.8385491 72.5421329,26.7297297 C72.5421329,30.485064 74.8707467,33.5362731 79.2457182,33.5362731 C85.0084494,33.5362731 88.8894725,28.3961593 88.8894725,22.3641536 C88.9129938,18.8669986 86.8901576,15.5576102 82.3034939,15.5576102 Z M79.9043161,29.8278805 C78.2343001,29.8278805 77.5521809,28.4196302 77.5521809,26.6358464 C77.5521809,23.8428165 78.9869833,19.3129445 81.6448961,19.3129445 C83.3619548,19.3129445 83.9499886,20.8150782 83.9499886,22.2467994 C83.9499886,25.227596 82.4681434,29.8278805 79.9043161,29.8278805 L79.9043161,29.8278805 Z M101.37931,15.5576102 C98.0863211,15.5576102 96.2281343,18.4679943 96.2281343,18.4679943 L96.1810916,18.4679943 L96.4633478,15.8627312 L92.135419,15.8627312 C91.9237269,17.6230441 91.5238639,20.3221906 91.1475223,22.3172119 L87.7839689,40.1315789 L92.6528888,40.1315789 L94.0171272,32.9260313 L94.134734,32.9260313 C94.134734,32.9260313 95.1461521,33.559744 96.9808175,33.559744 C102.720027,33.559744 106.459922,27.6920341 106.459922,21.7773826 C106.436401,18.4914651 104.954556,15.5576102 101.37931,15.5576102 Z M96.7220827,29.8748222 C95.4519297,29.8748222 94.6992464,29.1472262 94.6992464,29.1472262 L95.4989724,24.6173542 C96.0634848,21.5661451 97.6629367,19.5711238 99.3564741,19.5711238 C100.861841,19.5711238 101.308746,20.9559033 101.308746,22.2467994 C101.332268,25.3918919 99.4505595,29.8748222 96.7220827,29.8748222 L96.7220827,29.8748222 Z M113.398721,8.58677098 C111.846312,8.58677098 110.59968,9.83072546 110.59968,11.4032717 C110.59968,12.8349929 111.517013,13.844239 112.904773,13.844239 L112.951815,13.844239 C114.480703,13.844239 115.774378,12.811522 115.797899,11.0277383 C115.82142,9.59601707 114.857045,8.58677098 113.398721,8.58677098 Z M106.577529,33.2076814 L111.446449,33.2076814 L114.739438,15.9331437 L109.846997,15.9331437 L106.577529,33.2076814 Z M127.158712,15.9096728 L123.771637,15.9096728 L123.936287,15.1116643 C124.218543,13.4452347 125.20644,11.9900427 126.852934,11.9900427 C127.723224,11.9900427 128.405344,12.2482219 128.405344,12.2482219 L129.346198,8.42247511 C129.346198,8.42247511 128.52295,8 126.688285,8 C124.971226,8 123.230646,8.49288762 121.913451,9.61948791 C120.243435,11.0277383 119.46723,13.0697013 119.090888,15.1351351 L118.94976,15.9331437 L116.668189,15.9331437 L115.939027,19.6180654 L118.220598,19.6180654 L115.63325,33.2311522 L120.502169,33.2311522 L123.089518,19.6180654 L126.453071,19.6180654 L127.158712,15.9096728 L127.158712,15.9096728 Z M138.895867,15.9331437 C138.895867,15.9331437 135.838091,23.6081081 134.497374,27.8093883 L134.450331,27.8093883 C134.356246,26.4480797 133.250742,15.9331437 133.250742,15.9331437 L128.123087,15.9331437 L131.063256,31.7524893 C131.110299,32.1045519 131.086778,32.3157895 130.94565,32.5504979 C130.381137,33.6536273 129.416762,34.7098151 128.287737,35.4843528 C127.370404,36.1415363 126.335465,36.5874822 125.512217,36.8691323 L126.876456,41 C127.864353,40.7887624 129.934232,39.9672831 131.65129,38.3477952 C133.862297,36.2823613 135.932176,33.0668563 138.049098,28.7012802 L144,15.9096728 L138.895867,15.9096728 L138.895867,15.9331437 Z" id="Shape" fill="#655C7A" fill-rule="nonzero"></path>
                            </g>
                        </g>
                    </g>
                </g>
            </g>
        </g>
    </g>
</svg>