<?xml version="1.0" encoding="UTF-8"?>
<svg width="112px" height="42px" viewBox="0 0 112 42" version="1.1" xmlns="http://www.w3.org/2000/svg" xmlns:xlink="http://www.w3.org/1999/xlink">
    <!-- Generator: Sketch 55.1 (78136) - https://sketchapp.com -->
    <title>customer logos / logo 5</title>
    <desc>Created with Sketch.</desc>
    <g id="💵-Fraudfix" stroke="none" stroke-width="1" fill="none" fill-rule="evenodd" opacity="0.5">
        <g id="Home" transform="translate(-971.000000, -942.000000)" fill="#DBD6E9">
            <g id="top" transform="translate(-43.000000, 77.000000)">
                <g id="logos" transform="translate(261.000000, 792.000000)">
                    <g id="customer-logos-/-logo-5" transform="translate(747.000000, 70.000000)">
                        <g id="logo" transform="translate(0.000000, 0.791411)">
                            <g id="5" transform="translate(6.000000, 3.000000)">
                                <path d="M5.97732027,33.8695652 C5.80469008,34.0721344 5.71837499,34.1329051 5.39469338,34.1329051 L0.971044809,34.1329051 C0.647363206,34.1329051 0.517890565,34.1126482 0.345260377,33.8695652 L0.129472641,33.8695652 C0.107893868,34.4570158 0.0431575471,35.1254941 0,35.7737154 L0.323681603,35.7737154 C0.453154244,35.3078063 0.539469338,35.0242095 0.690520753,34.8418972 C0.841572168,34.5988142 1.0573599,34.5177866 1.98524717,34.5177866 L2.67576792,34.5177866 L2.67576792,39.7035573 C2.67576792,40.5340909 2.58945282,40.6353755 1.57525047,40.6961462 L1.57525047,41 L4.79048772,41 L4.79048772,40.6961462 C3.73312782,40.6353755 3.62523395,40.5340909 3.62523395,39.7035573 L3.62523395,34.5177866 L4.42364857,34.5177866 C5.26522074,34.5177866 5.4594297,34.5988142 5.63205989,34.8418972 C5.76153253,35.0039526 5.8694264,35.2672925 5.99889904,35.7737154 L6.32258065,35.7332016 C6.25784432,35.1254941 6.21468678,34.3557312 6.21468678,33.8695652 L5.97732027,33.8695652 L5.97732027,33.8695652 Z" id="Path"></path>
                                <path d="M9.93548387,34.1860046 C10.7798036,34.2492925 10.858345,34.3125804 10.858345,35.2408027 L10.858345,39.6287625 C10.858345,40.5569848 10.7798036,40.6202727 9.93548387,40.6835606 L9.93548387,41 L12.6451613,41 L12.6451613,40.6835606 C11.8008415,40.6202727 11.7223001,40.5569848 11.7223001,39.6287625 L11.7223001,35.2408027 C11.7223001,34.3125804 11.8008415,34.2492925 12.6451613,34.1860046 L12.6451613,33.8695652 L9.93548387,33.8695652 L9.93548387,34.1860046 Z" id="Path"></path>
                                <path d="M20.6666667,37.9498707 C21.7634409,38.0306688 21.8494624,38.0912674 21.8494624,38.8588496 L21.8494624,39.747629 C21.8494624,40.1920187 21.7204301,40.3132159 21.483871,40.4344131 C21.2473118,40.5556103 20.8817204,40.6162089 20.516129,40.6162089 C18.3655914,40.6162089 17.3978495,38.8588496 17.3978495,37.3438847 C17.3978495,35.4047296 18.6451613,34.2331568 20.3655914,34.2331568 C21.4193548,34.2331568 22.2795699,34.5765488 22.5376344,35.8693189 L22.8602151,35.8087203 C22.7741935,35.1219362 22.7096774,34.5361498 22.688172,34.1725582 C22.3225806,34.0917601 21.4623656,33.8695652 20.5376344,33.8695652 C18.344086,33.8695652 16.2580645,35.0613376 16.2580645,37.4852814 C16.2580645,39.5658332 17.8924731,41 20.3655914,41 C21.2688172,41 22.172043,40.7778051 22.8602151,40.6162089 C22.7956989,40.3334154 22.7741935,39.9900234 22.7741935,39.6264318 L22.7741935,38.7376524 C22.7741935,38.1114669 22.8172043,38.0710679 23.483871,37.9700702 L23.483871,37.6872768 L20.6451613,37.6872768 L20.6451613,37.9498707 L20.6666667,37.9498707 Z" id="Path"></path>
                                <path d="M31.6699844,40.221752 C31.4483751,40.5162242 31.1461806,40.6003591 30.3403286,40.6003591 C29.8165248,40.6003591 29.4538914,40.5793254 29.2524283,40.453123 C29.0711116,40.3058869 29.0106727,40.0745158 29.0106727,39.5697063 L29.0106727,37.5084007 L29.9978415,37.5084007 C30.904425,37.5084007 30.9850102,37.5715019 31.1260343,38.3707836 L31.4282288,38.3707836 L31.4282288,36.2674105 L31.1260343,36.2674105 C30.9850102,37.0035911 30.9447176,37.087726 29.9978415,37.087726 L29.0106727,37.087726 L29.0106727,34.6057458 C29.0106727,34.2692061 29.030819,34.2481724 29.3531599,34.2481724 L30.1590119,34.2481724 C30.904425,34.2481724 31.1864732,34.3323073 31.3476436,34.5636783 C31.4886677,34.7950494 31.5893992,35.0474541 31.6901307,35.5101962 L31.9923252,35.447095 C31.9520326,34.8791843 31.91174,34.1430037 31.91174,33.8695652 L27.217652,33.8695652 L27.217652,34.1850712 C28.0436503,34.2692061 28.1242355,34.2902398 28.1242355,35.2788252 L28.1242355,39.6328075 C28.1242355,40.5162242 28.0436503,40.6003591 27.0967742,40.684494 L27.0967742,41 L32.1534956,41 C32.2542271,40.6634603 32.4556901,39.6328075 32.516129,39.2752341 L32.1937882,39.2331666 C32.0527641,39.6328075 31.8513011,40.0114146 31.6699844,40.221752 Z" id="Path"></path>
                                <path d="M42.5390219,40.2077295 C42.2942768,39.9158403 42.0699272,39.6448004 41.6824142,39.0818713 C41.3560874,38.6023392 40.9277836,37.8726163 40.7442248,37.5181795 C41.5192508,37.1637427 42.0903226,36.6008136 42.0903226,35.6625985 C42.0903226,35.0162726 41.8047867,34.5158912 41.3968783,34.2448513 C40.9889698,33.9738113 40.4790843,33.8695652 39.7040583,33.8695652 L37.0730489,33.8695652 L37.0730489,34.1823036 C37.9092612,34.2657005 37.9908429,34.2865497 37.9908429,35.2039156 L37.9908429,39.5614035 C37.9908429,40.4787694 37.8888658,40.5413171 37.0322581,40.6038647 L37.0322581,40.9166031 L39.8264308,40.9166031 L39.8264308,40.6038647 C38.9698231,40.5413171 38.8882414,40.4787694 38.8882414,39.5614035 L38.8882414,37.8309179 L39.2349636,37.8309179 C39.78564,37.8309179 39.9691988,37.9560132 40.1527575,38.2687516 C40.4790843,38.7899822 40.8462019,39.4780066 41.2337149,39.9992372 C41.7028096,40.7081109 42.1515088,40.9374523 42.9469303,40.9791508 C43.0693028,41 43.1916753,41 43.3140479,41 L43.3548387,40.7081109 C43.0693028,40.6455632 42.8245578,40.5204678 42.5390219,40.2077295 Z M40.4994797,37.1637427 C40.2343392,37.3722349 39.8876171,37.4764811 39.3369407,37.4764811 L38.8474506,37.4764811 L38.8474506,34.8077803 C38.8474506,34.5158912 38.8882414,34.3907958 38.9698231,34.3282482 C39.0514048,34.2657005 39.2349636,34.224002 39.5408949,34.224002 C40.3567118,34.224002 41.0909469,34.6618357 41.0909469,35.8293923 C41.0909469,36.4131706 40.9277836,36.8301551 40.4994797,37.1637427 Z" id="Shape" fill-rule="nonzero"></path>
                                <path d="M54.1343205,39.6319515 C53.5975674,37.7042467 53.0608144,35.817998 52.5610788,33.8695652 L52.2649392,33.8695652 C51.7652036,35.6107179 51.2284506,37.3311426 50.6916975,39.2381193 L50.6731888,39.2381193 C50.1734532,37.6835187 49.5256478,35.5899899 48.9888948,33.8695652 L48.6927552,33.8695652 C47.89688,36.8751264 47.3231095,38.9064712 47.1010048,39.6112235 C46.8048652,40.5025278 46.7308302,40.5854398 46.0645161,40.6890799 L46.0645161,41 L48.1930196,41 L48.1930196,40.6890799 C47.4341618,40.5854398 47.3971444,40.4817998 47.5267054,39.8185035 C47.6747753,39.0515672 48.2115283,36.9373104 48.6187203,35.5070779 L48.637229,35.5070779 C49.2295082,37.3518706 49.78477,39.1137513 50.321523,40.875632 L50.5991539,40.875632 C51.0988895,39.1137513 51.6541512,37.3311426 52.1538868,35.5070779 L52.1723956,35.5070779 C52.5980962,37.0409505 52.9682708,38.491911 53.3384453,39.9428716 C53.4865151,40.5025278 53.4680063,40.5854398 52.7646748,40.6683519 L52.7646748,40.979272 L55.0967742,40.979272 L55.0967742,40.6683519 C54.504495,40.5854398 54.3749339,40.5025278 54.1343205,39.6319515 Z" id="Path"></path>
                                <path d="M64.1659671,40.221752 C63.9443578,40.5162242 63.6421633,40.6003591 62.8363113,40.6003591 C62.3125075,40.6003591 61.9498741,40.5793254 61.7484111,40.453123 C61.5670944,40.3058869 61.5066555,40.0745158 61.5066555,39.5697063 L61.5066555,37.5084007 L62.4938242,37.5084007 C63.4004077,37.5084007 63.4809929,37.5715019 63.622017,38.3707836 L63.9242115,38.3707836 L63.9242115,36.2674105 L63.622017,36.2674105 C63.4809929,37.0035911 63.4407003,37.087726 62.4938242,37.087726 L61.5066555,37.087726 L61.5066555,34.6057458 C61.5066555,34.2692061 61.5268018,34.2481724 61.8491426,34.2481724 L62.6549946,34.2481724 C63.4004077,34.2481724 63.6824559,34.3323073 63.8436263,34.5636783 C63.9846504,34.7950494 64.0853819,35.0474541 64.1861134,35.5101962 L64.488308,35.447095 C64.4480153,34.8791843 64.4077227,34.1430037 64.4077227,33.8695652 L59.733781,33.8695652 L59.733781,34.1850712 C60.5597794,34.2692061 60.6403646,34.2902398 60.6403646,35.2788252 L60.6403646,39.6328075 C60.6403646,40.5162242 60.5597794,40.6003591 59.6129032,40.684494 L59.6129032,41 L64.6696247,41 C64.7703562,40.6634603 64.9718192,39.6328075 65.0322581,39.2752341 L64.7099173,39.2331666 C64.5487469,39.6328075 64.3472838,40.0114146 64.1659671,40.221752 Z" id="Path"></path>
                                <path d="M71.8448586,33.8695652 L68.7511115,33.8695652 L68.7511115,34.1860046 C69.5987135,34.2492925 69.6834737,34.2914844 69.6834737,35.2408027 L69.6834737,39.6498585 C69.6834737,40.5780808 69.5987135,40.6413687 68.6451613,40.7046565 L68.6451613,41 L71.2515372,41 C72.6077003,41 73.6883928,40.7257525 74.5148047,40.0928737 C75.3624066,39.4599949 75.8709677,38.4895807 75.8709677,37.1605351 C75.8709677,36.126833 75.4895469,35.3251865 74.9386056,34.7977875 C74.2817141,34.1649087 73.2434018,33.8695652 71.8448586,33.8695652 Z M71.8024785,40.6202727 C70.9972566,40.6202727 70.6370258,40.4093131 70.6370258,39.5865706 L70.6370258,35.0298431 C70.6370258,34.6079238 70.6794059,34.4813481 70.7853562,34.3969642 C70.8913064,34.3125804 71.1879671,34.2703885 71.6541481,34.2703885 C72.3957998,34.2703885 73.0315013,34.3969642 73.5188724,34.7134037 C74.4088544,35.2197067 74.8114653,36.2112169 74.8114653,37.3293028 C74.8114653,39.0802676 73.8579132,40.6202727 71.8024785,40.6202727 Z" id="Shape" fill-rule="nonzero"></path>
                                <path d="M79.483871,34.1860046 C80.3281907,34.2492925 80.4067321,34.3125804 80.4067321,35.2408027 L80.4067321,39.6287625 C80.4067321,40.5569848 80.3281907,40.6202727 79.483871,40.6835606 L79.483871,41 L82.1935484,41 L82.1935484,40.6835606 C81.3492286,40.6202727 81.2706872,40.5569848 81.2706872,39.6287625 L81.2706872,35.2408027 C81.2706872,34.3125804 81.3492286,34.2492925 82.1935484,34.1860046 L82.1935484,33.8695652 L79.483871,33.8695652 L79.483871,34.1860046 Z" id="Path"></path>
                                <path d="M89.6162117,40.656608 C88.0153019,40.656608 86.8602151,39.3032393 86.8602151,37.3438847 C86.8602151,35.7481217 87.7923904,34.2735559 89.5554177,34.2735559 C90.6902399,34.2735559 91.318445,34.7179456 91.6021505,35.8289198 L91.9263854,35.7481217 C91.8655914,35.1825348 91.8047974,34.7583446 91.7237386,34.1523587 C91.4197684,34.0917601 90.7105045,33.8695652 89.8593879,33.8695652 C87.5086849,33.8695652 85.8064516,35.3239315 85.8064516,37.5256805 C85.8064516,39.2022417 86.9615385,41 89.5756824,41 C90.3254756,41 91.2171216,40.7980047 91.5210918,40.7172066 C91.7034739,40.3738145 91.9669148,39.5860328 92.1290323,39.101244 L91.825062,38.9800468 C91.257651,40.0910211 90.6902399,40.656608 89.6162117,40.656608 Z" id="Path"></path>
                                <path d="M101.735104,39.6026814 C101.033776,37.7532891 100.289943,35.7189575 99.6098672,33.8695652 L99.2698292,33.9723092 L96.9745731,39.5821326 C96.5920304,40.5273775 96.4432638,40.5890239 95.7419355,40.6917679 L95.7419355,41 L98.1434535,41 L98.1434535,40.6917679 C97.314611,40.6095727 97.2083491,40.5068287 97.4633776,39.8287182 C97.6121442,39.3766445 97.7821632,38.9245709 97.9521822,38.4519484 L100.311195,38.4519484 C100.544972,39.1095101 100.778748,39.6848766 100.927514,40.0958527 C101.076281,40.5068287 100.970019,40.5890239 100.268691,40.6917679 L100.268691,41 L102.967742,41 L102.967742,40.6917679 C102.245161,40.6301215 102.096395,40.5273775 101.735104,39.6026814 Z M98.1009488,37.9998747 C98.4409867,37.1162762 98.7810247,36.19158 99.142315,35.2668838 L99.1635674,35.2668838 L100.141176,37.9998747 L98.1009488,37.9998747 Z" id="Shape" fill-rule="nonzero"></path>
                                <path d="M111.659962,39.2121329 C111.489943,39.7169424 111.277419,40.0745158 111.086148,40.2848531 C110.83112,40.5793254 110.448577,40.6213928 109.85351,40.6213928 C109.385958,40.6213928 109.003416,40.6003591 108.790892,40.4741567 C108.59962,40.3689881 108.535863,40.137617 108.535863,39.5486726 L108.535863,35.2367577 C108.535863,34.3112736 108.642125,34.2481724 109.513472,34.1850712 L109.513472,33.8695652 L106.62315,33.8695652 L106.62315,34.1850712 C107.51575,34.2481724 107.600759,34.3112736 107.600759,35.2367577 L107.600759,39.6117738 C107.600759,40.5372579 107.51575,40.6213928 106.580645,40.684494 L106.580645,41 L111.596205,41 C111.702467,40.6634603 111.936243,39.6117738 112,39.2752341 L111.659962,39.2121329 Z" id="Path"></path>
                                <path d="M38.4849613,3.41733281 C41.2670275,4.27666212 46.5509518,5.65558588 51.8348761,5.73552349 C57.1188004,5.7954767 60.4212531,4.41655293 66.3056234,3.35737961 C72.1899936,2.29820628 76.873472,2.95769156 80.1959395,3.49727042 C83.5184071,4.03684929 87.0210085,4.49649054 87.0210085,4.49649054 C87.0210085,4.49649054 89.9231639,4.43653734 91.9046355,4.43653734 C93.8861071,4.43653734 93.6259138,3.43731722 93.6259138,3.43731722 L93.6859584,1.77861182 L94.3864787,2.03840905 C94.3864787,2.03840905 95.4472665,2.91772275 97.9090949,3.79703646 C100.370923,4.67635017 100.410953,5.99532073 100.410953,5.99532073 C100.410953,5.99532073 101.531785,8.01374537 103.193019,9.77237278 C104.854253,11.5310002 102.832752,12.4103139 102.832752,12.4103139 L100.19079,13.3695652 C100.19079,13.3695652 101.611845,13.1897056 102.932826,12.9299084 C104.253807,12.6701111 104.774194,11.7907974 104.774194,10.9914213 C104.774194,10.1920452 104.153733,9.31273153 103.273079,8.2535582 C102.392425,7.19438487 102.312365,6.93458764 101.151503,4.73630337 C99.9906409,2.53801911 96.3279206,2.17829986 96.3279206,2.17829986 C96.3279206,2.17829986 96.7682476,2.09836225 94.3864787,0.599532073 C92.0047098,-0.899298109 92.264903,1.03918893 92.264903,1.03918893 L92.264903,2.71787873 C92.264903,2.71787873 91.9046355,3.07759797 89.5228666,3.07759797 C87.1410976,3.07759797 84.2389422,2.4580815 84.2389422,2.4580815 C84.2389422,2.4580815 75.9527882,0 71.6295774,0 C67.3063666,0 64.144018,0.359719244 57.5190977,2.37814389 C50.8941774,4.39656853 45.1699261,2.89773835 45.1699261,2.89773835 C45.1699261,2.89773835 42.3478302,1.31897056 35.562791,0.619516475 C28.7777518,-0.0799376097 21.2921924,4.23669331 21.2921924,4.23669331 C21.2921924,4.23669331 10.2840167,8.99298109 8.06236673,8.89305908 C5.84071673,8.79313706 4.61980998,7.83388575 4.61980998,5.89539871 C4.61980998,3.95691168 6.56125187,2.81780074 6.56125187,2.81780074 C6.56125187,2.81780074 4.0393789,4.27666212 3.65909647,6.05527393 C3.27881404,7.83388575 5.30031538,9.69243517 7.74212889,9.9522324 C10.1839424,10.2120296 15.2877329,8.03372977 15.2877329,8.03372977 C15.2877329,8.03372977 27.5768599,3.41733281 30.2988815,2.81780074 C33.0209032,2.21826867 35.702895,2.55800351 38.4849613,3.41733281 Z" id="Path"></path>
                                <path d="M107.483871,23.173913 L107.483871,22.391706 C107.229754,20.5144091 103.92624,21.1010644 103.92624,21.1010644 C103.92624,21.1010644 102.772942,21.8050507 99.6649013,19.6735365 C96.5568609,17.5420223 95.090804,17.2291395 91.8654791,16.6424842 C88.6401541,16.0558289 88.2492056,15.0976253 86.5876745,11.1474797 C85.18026,7.82309971 82.3654309,6.61067878 81.5248917,6.31735114 C81.3685123,6.25868561 81.2903226,6.23913043 81.2903226,6.23913043 C86.3140106,11.0105934 84.6524795,13.0834421 86.607222,16.1927151 C88.5619644,19.3019882 92.3346172,19.3606537 94.4066442,19.6735365 C96.4591237,19.9864193 98.3552239,20.8272919 100.094945,21.4139472 C101.834665,22.0006025 103.378912,22.1179335 105.13818,22.1179335 C106.897448,22.1179335 107.483871,23.173913 107.483871,23.173913 Z" id="Path"></path>
                                <path d="M76.2407223,18.0194585 C71.2690824,19.4722584 70.7478621,19.989694 67.6405871,19.8503844 C64.5333121,19.7110749 62.6088063,19.5916666 57.7173541,15.2531682 C52.8259019,10.9146698 51.0216777,11.6311191 51.0216777,11.6311191 C51.0216777,11.6311191 47.854262,11.2330917 44.0052504,15.2531682 C44.0052504,15.2531682 40.6975061,19.3727516 33.8013603,15.7308011 C33.8013603,15.7308011 29.8922079,13.5416505 25.862774,17.2234038 L23.6175172,18.8752174 L22.2342787,20.1887077 C22.2342787,20.1887077 22.2944195,20.905157 23.6175172,20.9847625 C24.9406149,21.0643679 24.5396762,21.7808172 24.5396762,21.7808172 C24.5396762,21.7808172 25.0809435,22.6962802 22.5349827,22.7758857 C19.9890219,22.8554911 18.0645161,23.173913 18.0645161,23.173913 L24.1587845,23.173913 C24.1587845,23.173913 26.3439004,22.8355898 25.9429617,21.3429871 C25.542023,19.8304831 24.2790661,19.8901872 24.2790661,19.8901872 L27.7271389,17.4025161 C27.7271389,17.4025161 30.6339446,15.292971 34.4228153,17.7806421 C38.1916392,20.2882146 42.2411201,19.2931461 42.2411201,19.2931461 C42.2411201,19.2931461 44.8873155,18.2980777 47.4733702,16.2084339 C50.0594248,14.0988888 53.0865121,14.1784943 55.9331769,16.6661654 C58.7998886,19.1737379 61.3658963,20.8653543 66.4778648,21.2036775 C71.5697864,21.5420008 79.0673402,16.6661654 83.0967742,17.5219243 C83.0566803,17.4821215 81.1923153,16.5666586 76.2407223,18.0194585 Z" id="Path"></path>
                            </g>
                        </g>
                    </g>
                </g>
            </g>
        </g>
    </g>
</svg>