<?xml version="1.0" encoding="UTF-8"?>
<svg width="270px" height="41px" viewBox="0 0 270 41" version="1.1" xmlns="http://www.w3.org/2000/svg" xmlns:xlink="http://www.w3.org/1999/xlink">
    <!-- Generator: Sketch 55.1 (78136) - https://sketchapp.com -->
    <title>Group 4</title>
    <desc>Created with Sketch.</desc>
    <g id="💵-Fraudfix" stroke="none" stroke-width="1" fill="none" fill-rule="evenodd" opacity="0.5">
        <g id="Artboard" transform="translate(-1271.000000, -1063.000000)" fill="#DBD6E9">
            <g id="Group-4" transform="translate(1265.000000, 1060.000000)">
                <g id="logo">
                    <g id="5" transform="translate(6.000000, 3.000000)">
                        <path d="M5.97732027,33.8695652 C5.80469008,34.0721344 5.71837499,34.1329051 5.39469338,34.1329051 L0.971044809,34.1329051 C0.647363206,34.1329051 0.517890565,34.1126482 0.345260377,33.8695652 L0.129472641,33.8695652 C0.107893868,34.4570158 0.0431575471,35.1254941 0,35.7737154 L0.323681603,35.7737154 C0.453154244,35.3078063 0.539469338,35.0242095 0.690520753,34.8418972 C0.841572168,34.5988142 1.0573599,34.5177866 1.98524717,34.5177866 L2.67576792,34.5177866 L2.67576792,39.7035573 C2.67576792,40.5340909 2.58945282,40.6353755 1.57525047,40.6961462 L1.57525047,41 L4.79048772,41 L4.79048772,40.6961462 C3.73312782,40.6353755 3.62523395,40.5340909 3.62523395,39.7035573 L3.62523395,34.5177866 L4.42364857,34.5177866 C5.26522074,34.5177866 5.4594297,34.5988142 5.63205989,34.8418972 C5.76153253,35.0039526 5.8694264,35.2672925 5.99889904,35.7737154 L6.32258065,35.7332016 C6.25784432,35.1254941 6.21468678,34.3557312 6.21468678,33.8695652 L5.97732027,33.8695652 L5.97732027,33.8695652 Z" id="Path"></path>
                        <path d="M9.93548387,34.1860046 C10.7798036,34.2492925 10.858345,34.3125804 10.858345,35.2408027 L10.858345,39.6287625 C10.858345,40.5569848 10.7798036,40.6202727 9.93548387,40.6835606 L9.93548387,41 L12.6451613,41 L12.6451613,40.6835606 C11.8008415,40.6202727 11.7223001,40.5569848 11.7223001,39.6287625 L11.7223001,35.2408027 C11.7223001,34.3125804 11.8008415,34.2492925 12.6451613,34.1860046 L12.6451613,33.8695652 L9.93548387,33.8695652 L9.93548387,34.1860046 Z" id="Path"></path>
                        <path d="M20.6666667,37.9498707 C21.7634409,38.0306688 21.8494624,38.0912674 21.8494624,38.8588496 L21.8494624,39.747629 C21.8494624,40.1920187 21.7204301,40.3132159 21.483871,40.4344131 C21.2473118,40.5556103 20.8817204,40.6162089 20.516129,40.6162089 C18.3655914,40.6162089 17.3978495,38.8588496 17.3978495,37.3438847 C17.3978495,35.4047296 18.6451613,34.2331568 20.3655914,34.2331568 C21.4193548,34.2331568 22.2795699,34.5765488 22.5376344,35.8693189 L22.8602151,35.8087203 C22.7741935,35.1219362 22.7096774,34.5361498 22.688172,34.1725582 C22.3225806,34.0917601 21.4623656,33.8695652 20.5376344,33.8695652 C18.344086,33.8695652 16.2580645,35.0613376 16.2580645,37.4852814 C16.2580645,39.5658332 17.8924731,41 20.3655914,41 C21.2688172,41 22.172043,40.7778051 22.8602151,40.6162089 C22.7956989,40.3334154 22.7741935,39.9900234 22.7741935,39.6264318 L22.7741935,38.7376524 C22.7741935,38.1114669 22.8172043,38.0710679 23.483871,37.9700702 L23.483871,37.6872768 L20.6451613,37.6872768 L20.6451613,37.9498707 L20.6666667,37.9498707 Z" id="Path"></path>
                        <path d="M31.6699844,40.221752 C31.4483751,40.5162242 31.1461806,40.6003591 30.3403286,40.6003591 C29.8165248,40.6003591 29.4538914,40.5793254 29.2524283,40.453123 C29.0711116,40.3058869 29.0106727,40.0745158 29.0106727,39.5697063 L29.0106727,37.5084007 L29.9978415,37.5084007 C30.904425,37.5084007 30.9850102,37.5715019 31.1260343,38.3707836 L31.4282288,38.3707836 L31.4282288,36.2674105 L31.1260343,36.2674105 C30.9850102,37.0035911 30.9447176,37.087726 29.9978415,37.087726 L29.0106727,37.087726 L29.0106727,34.6057458 C29.0106727,34.2692061 29.030819,34.2481724 29.3531599,34.2481724 L30.1590119,34.2481724 C30.904425,34.2481724 31.1864732,34.3323073 31.3476436,34.5636783 C31.4886677,34.7950494 31.5893992,35.0474541 31.6901307,35.5101962 L31.9923252,35.447095 C31.9520326,34.8791843 31.91174,34.1430037 31.91174,33.8695652 L27.217652,33.8695652 L27.217652,34.1850712 C28.0436503,34.2692061 28.1242355,34.2902398 28.1242355,35.2788252 L28.1242355,39.6328075 C28.1242355,40.5162242 28.0436503,40.6003591 27.0967742,40.684494 L27.0967742,41 L32.1534956,41 C32.2542271,40.6634603 32.4556901,39.6328075 32.516129,39.2752341 L32.1937882,39.2331666 C32.0527641,39.6328075 31.8513011,40.0114146 31.6699844,40.221752 Z" id="Path"></path>
                        <path d="M42.5390219,40.2077295 C42.2942768,39.9158403 42.0699272,39.6448004 41.6824142,39.0818713 C41.3560874,38.6023392 40.9277836,37.8726163 40.7442248,37.5181795 C41.5192508,37.1637427 42.0903226,36.6008136 42.0903226,35.6625985 C42.0903226,35.0162726 41.8047867,34.5158912 41.3968783,34.2448513 C40.9889698,33.9738113 40.4790843,33.8695652 39.7040583,33.8695652 L37.0730489,33.8695652 L37.0730489,34.1823036 C37.9092612,34.2657005 37.9908429,34.2865497 37.9908429,35.2039156 L37.9908429,39.5614035 C37.9908429,40.4787694 37.8888658,40.5413171 37.0322581,40.6038647 L37.0322581,40.9166031 L39.8264308,40.9166031 L39.8264308,40.6038647 C38.9698231,40.5413171 38.8882414,40.4787694 38.8882414,39.5614035 L38.8882414,37.8309179 L39.2349636,37.8309179 C39.78564,37.8309179 39.9691988,37.9560132 40.1527575,38.2687516 C40.4790843,38.7899822 40.8462019,39.4780066 41.2337149,39.9992372 C41.7028096,40.7081109 42.1515088,40.9374523 42.9469303,40.9791508 C43.0693028,41 43.1916753,41 43.3140479,41 L43.3548387,40.7081109 C43.0693028,40.6455632 42.8245578,40.5204678 42.5390219,40.2077295 Z M40.4994797,37.1637427 C40.2343392,37.3722349 39.8876171,37.4764811 39.3369407,37.4764811 L38.8474506,37.4764811 L38.8474506,34.8077803 C38.8474506,34.5158912 38.8882414,34.3907958 38.9698231,34.3282482 C39.0514048,34.2657005 39.2349636,34.224002 39.5408949,34.224002 C40.3567118,34.224002 41.0909469,34.6618357 41.0909469,35.8293923 C41.0909469,36.4131706 40.9277836,36.8301551 40.4994797,37.1637427 Z" id="Shape" fill-rule="nonzero"></path>
                        <path d="M54.1343205,39.6319515 C53.5975674,37.7042467 53.0608144,35.817998 52.5610788,33.8695652 L52.2649392,33.8695652 C51.7652036,35.6107179 51.2284506,37.3311426 50.6916975,39.2381193 L50.6731888,39.2381193 C50.1734532,37.6835187 49.5256478,35.5899899 48.9888948,33.8695652 L48.6927552,33.8695652 C47.89688,36.8751264 47.3231095,38.9064712 47.1010048,39.6112235 C46.8048652,40.5025278 46.7308302,40.5854398 46.0645161,40.6890799 L46.0645161,41 L48.1930196,41 L48.1930196,40.6890799 C47.4341618,40.5854398 47.3971444,40.4817998 47.5267054,39.8185035 C47.6747753,39.0515672 48.2115283,36.9373104 48.6187203,35.5070779 L48.637229,35.5070779 C49.2295082,37.3518706 49.78477,39.1137513 50.321523,40.875632 L50.5991539,40.875632 C51.0988895,39.1137513 51.6541512,37.3311426 52.1538868,35.5070779 L52.1723956,35.5070779 C52.5980962,37.0409505 52.9682708,38.491911 53.3384453,39.9428716 C53.4865151,40.5025278 53.4680063,40.5854398 52.7646748,40.6683519 L52.7646748,40.979272 L55.0967742,40.979272 L55.0967742,40.6683519 C54.504495,40.5854398 54.3749339,40.5025278 54.1343205,39.6319515 Z" id="Path"></path>
                        <path d="M64.1659671,40.221752 C63.9443578,40.5162242 63.6421633,40.6003591 62.8363113,40.6003591 C62.3125075,40.6003591 61.9498741,40.5793254 61.7484111,40.453123 C61.5670944,40.3058869 61.5066555,40.0745158 61.5066555,39.5697063 L61.5066555,37.5084007 L62.4938242,37.5084007 C63.4004077,37.5084007 63.4809929,37.5715019 63.622017,38.3707836 L63.9242115,38.3707836 L63.9242115,36.2674105 L63.622017,36.2674105 C63.4809929,37.0035911 63.4407003,37.087726 62.4938242,37.087726 L61.5066555,37.087726 L61.5066555,34.6057458 C61.5066555,34.2692061 61.5268018,34.2481724 61.8491426,34.2481724 L62.6549946,34.2481724 C63.4004077,34.2481724 63.6824559,34.3323073 63.8436263,34.5636783 C63.9846504,34.7950494 64.0853819,35.0474541 64.1861134,35.5101962 L64.488308,35.447095 C64.4480153,34.8791843 64.4077227,34.1430037 64.4077227,33.8695652 L59.733781,33.8695652 L59.733781,34.1850712 C60.5597794,34.2692061 60.6403646,34.2902398 60.6403646,35.2788252 L60.6403646,39.6328075 C60.6403646,40.5162242 60.5597794,40.6003591 59.6129032,40.684494 L59.6129032,41 L64.6696247,41 C64.7703562,40.6634603 64.9718192,39.6328075 65.0322581,39.2752341 L64.7099173,39.2331666 C64.5487469,39.6328075 64.3472838,40.0114146 64.1659671,40.221752 Z" id="Path"></path>
                        <path d="M71.8448586,33.8695652 L68.7511115,33.8695652 L68.7511115,34.1860046 C69.5987135,34.2492925 69.6834737,34.2914844 69.6834737,35.2408027 L69.6834737,39.6498585 C69.6834737,40.5780808 69.5987135,40.6413687 68.6451613,40.7046565 L68.6451613,41 L71.2515372,41 C72.6077003,41 73.6883928,40.7257525 74.5148047,40.0928737 C75.3624066,39.4599949 75.8709677,38.4895807 75.8709677,37.1605351 C75.8709677,36.126833 75.4895469,35.3251865 74.9386056,34.7977875 C74.2817141,34.1649087 73.2434018,33.8695652 71.8448586,33.8695652 Z M71.8024785,40.6202727 C70.9972566,40.6202727 70.6370258,40.4093131 70.6370258,39.5865706 L70.6370258,35.0298431 C70.6370258,34.6079238 70.6794059,34.4813481 70.7853562,34.3969642 C70.8913064,34.3125804 71.1879671,34.2703885 71.6541481,34.2703885 C72.3957998,34.2703885 73.0315013,34.3969642 73.5188724,34.7134037 C74.4088544,35.2197067 74.8114653,36.2112169 74.8114653,37.3293028 C74.8114653,39.0802676 73.8579132,40.6202727 71.8024785,40.6202727 Z" id="Shape" fill-rule="nonzero"></path>
                        <path d="M79.483871,34.1860046 C80.3281907,34.2492925 80.4067321,34.3125804 80.4067321,35.2408027 L80.4067321,39.6287625 C80.4067321,40.5569848 80.3281907,40.6202727 79.483871,40.6835606 L79.483871,41 L82.1935484,41 L82.1935484,40.6835606 C81.3492286,40.6202727 81.2706872,40.5569848 81.2706872,39.6287625 L81.2706872,35.2408027 C81.2706872,34.3125804 81.3492286,34.2492925 82.1935484,34.1860046 L82.1935484,33.8695652 L79.483871,33.8695652 L79.483871,34.1860046 Z" id="Path"></path>
                        <path d="M89.6162117,40.656608 C88.0153019,40.656608 86.8602151,39.3032393 86.8602151,37.3438847 C86.8602151,35.7481217 87.7923904,34.2735559 89.5554177,34.2735559 C90.6902399,34.2735559 91.318445,34.7179456 91.6021505,35.8289198 L91.9263854,35.7481217 C91.8655914,35.1825348 91.8047974,34.7583446 91.7237386,34.1523587 C91.4197684,34.0917601 90.7105045,33.8695652 89.8593879,33.8695652 C87.5086849,33.8695652 85.8064516,35.3239315 85.8064516,37.5256805 C85.8064516,39.2022417 86.9615385,41 89.5756824,41 C90.3254756,41 91.2171216,40.7980047 91.5210918,40.7172066 C91.7034739,40.3738145 91.9669148,39.5860328 92.1290323,39.101244 L91.825062,38.9800468 C91.257651,40.0910211 90.6902399,40.656608 89.6162117,40.656608 Z" id="Path"></path>
                        <path d="M101.735104,39.6026814 C101.033776,37.7532891 100.289943,35.7189575 99.6098672,33.8695652 L99.2698292,33.9723092 L96.9745731,39.5821326 C96.5920304,40.5273775 96.4432638,40.5890239 95.7419355,40.6917679 L95.7419355,41 L98.1434535,41 L98.1434535,40.6917679 C97.314611,40.6095727 97.2083491,40.5068287 97.4633776,39.8287182 C97.6121442,39.3766445 97.7821632,38.9245709 97.9521822,38.4519484 L100.311195,38.4519484 C100.544972,39.1095101 100.778748,39.6848766 100.927514,40.0958527 C101.076281,40.5068287 100.970019,40.5890239 100.268691,40.6917679 L100.268691,41 L102.967742,41 L102.967742,40.6917679 C102.245161,40.6301215 102.096395,40.5273775 101.735104,39.6026814 Z M98.1009488,37.9998747 C98.4409867,37.1162762 98.7810247,36.19158 99.142315,35.2668838 L99.1635674,35.2668838 L100.141176,37.9998747 L98.1009488,37.9998747 Z" id="Shape" fill-rule="nonzero"></path>
                        <path d="M111.659962,39.2121329 C111.489943,39.7169424 111.277419,40.0745158 111.086148,40.2848531 C110.83112,40.5793254 110.448577,40.6213928 109.85351,40.6213928 C109.385958,40.6213928 109.003416,40.6003591 108.790892,40.4741567 C108.59962,40.3689881 108.535863,40.137617 108.535863,39.5486726 L108.535863,35.2367577 C108.535863,34.3112736 108.642125,34.2481724 109.513472,34.1850712 L109.513472,33.8695652 L106.62315,33.8695652 L106.62315,34.1850712 C107.51575,34.2481724 107.600759,34.3112736 107.600759,35.2367577 L107.600759,39.6117738 C107.600759,40.5372579 107.51575,40.6213928 106.580645,40.684494 L106.580645,41 L111.596205,41 C111.702467,40.6634603 111.936243,39.6117738 112,39.2752341 L111.659962,39.2121329 Z" id="Path"></path>
                        <path d="M38.4849613,3.41733281 C41.2670275,4.27666212 46.5509518,5.65558588 51.8348761,5.73552349 C57.1188004,5.7954767 60.4212531,4.41655293 66.3056234,3.35737961 C72.1899936,2.29820628 76.873472,2.95769156 80.1959395,3.49727042 C83.5184071,4.03684929 87.0210085,4.49649054 87.0210085,4.49649054 C87.0210085,4.49649054 89.9231639,4.43653734 91.9046355,4.43653734 C93.8861071,4.43653734 93.6259138,3.43731722 93.6259138,3.43731722 L93.6859584,1.77861182 L94.3864787,2.03840905 C94.3864787,2.03840905 95.4472665,2.91772275 97.9090949,3.79703646 C100.370923,4.67635017 100.410953,5.99532073 100.410953,5.99532073 C100.410953,5.99532073 101.531785,8.01374537 103.193019,9.77237278 C104.854253,11.5310002 102.832752,12.4103139 102.832752,12.4103139 L100.19079,13.3695652 C100.19079,13.3695652 101.611845,13.1897056 102.932826,12.9299084 C104.253807,12.6701111 104.774194,11.7907974 104.774194,10.9914213 C104.774194,10.1920452 104.153733,9.31273153 103.273079,8.2535582 C102.392425,7.19438487 102.312365,6.93458764 101.151503,4.73630337 C99.9906409,2.53801911 96.3279206,2.17829986 96.3279206,2.17829986 C96.3279206,2.17829986 96.7682476,2.09836225 94.3864787,0.599532073 C92.0047098,-0.899298109 92.264903,1.03918893 92.264903,1.03918893 L92.264903,2.71787873 C92.264903,2.71787873 91.9046355,3.07759797 89.5228666,3.07759797 C87.1410976,3.07759797 84.2389422,2.4580815 84.2389422,2.4580815 C84.2389422,2.4580815 75.9527882,0 71.6295774,0 C67.3063666,0 64.144018,0.359719244 57.5190977,2.37814389 C50.8941774,4.39656853 45.1699261,2.89773835 45.1699261,2.89773835 C45.1699261,2.89773835 42.3478302,1.31897056 35.562791,0.619516475 C28.7777518,-0.0799376097 21.2921924,4.23669331 21.2921924,4.23669331 C21.2921924,4.23669331 10.2840167,8.99298109 8.06236673,8.89305908 C5.84071673,8.79313706 4.61980998,7.83388575 4.61980998,5.89539871 C4.61980998,3.95691168 6.56125187,2.81780074 6.56125187,2.81780074 C6.56125187,2.81780074 4.0393789,4.27666212 3.65909647,6.05527393 C3.27881404,7.83388575 5.30031538,9.69243517 7.74212889,9.9522324 C10.1839424,10.2120296 15.2877329,8.03372977 15.2877329,8.03372977 C15.2877329,8.03372977 27.5768599,3.41733281 30.2988815,2.81780074 C33.0209032,2.21826867 35.702895,2.55800351 38.4849613,3.41733281 Z" id="Path"></path>
                        <path d="M107.483871,23.173913 L107.483871,22.391706 C107.229754,20.5144091 103.92624,21.1010644 103.92624,21.1010644 C103.92624,21.1010644 102.772942,21.8050507 99.6649013,19.6735365 C96.5568609,17.5420223 95.090804,17.2291395 91.8654791,16.6424842 C88.6401541,16.0558289 88.2492056,15.0976253 86.5876745,11.1474797 C85.18026,7.82309971 82.3654309,6.61067878 81.5248917,6.31735114 C81.3685123,6.25868561 81.2903226,6.23913043 81.2903226,6.23913043 C86.3140106,11.0105934 84.6524795,13.0834421 86.607222,16.1927151 C88.5619644,19.3019882 92.3346172,19.3606537 94.4066442,19.6735365 C96.4591237,19.9864193 98.3552239,20.8272919 100.094945,21.4139472 C101.834665,22.0006025 103.378912,22.1179335 105.13818,22.1179335 C106.897448,22.1179335 107.483871,23.173913 107.483871,23.173913 Z" id="Path"></path>
                        <path d="M76.2407223,18.0194585 C71.2690824,19.4722584 70.7478621,19.989694 67.6405871,19.8503844 C64.5333121,19.7110749 62.6088063,19.5916666 57.7173541,15.2531682 C52.8259019,10.9146698 51.0216777,11.6311191 51.0216777,11.6311191 C51.0216777,11.6311191 47.854262,11.2330917 44.0052504,15.2531682 C44.0052504,15.2531682 40.6975061,19.3727516 33.8013603,15.7308011 C33.8013603,15.7308011 29.8922079,13.5416505 25.862774,17.2234038 L23.6175172,18.8752174 L22.2342787,20.1887077 C22.2342787,20.1887077 22.2944195,20.905157 23.6175172,20.9847625 C24.9406149,21.0643679 24.5396762,21.7808172 24.5396762,21.7808172 C24.5396762,21.7808172 25.0809435,22.6962802 22.5349827,22.7758857 C19.9890219,22.8554911 18.0645161,23.173913 18.0645161,23.173913 L24.1587845,23.173913 C24.1587845,23.173913 26.3439004,22.8355898 25.9429617,21.3429871 C25.542023,19.8304831 24.2790661,19.8901872 24.2790661,19.8901872 L27.7271389,17.4025161 C27.7271389,17.4025161 30.6339446,15.292971 34.4228153,17.7806421 C38.1916392,20.2882146 42.2411201,19.2931461 42.2411201,19.2931461 C42.2411201,19.2931461 44.8873155,18.2980777 47.4733702,16.2084339 C50.0594248,14.0988888 53.0865121,14.1784943 55.9331769,16.6661654 C58.7998886,19.1737379 61.3658963,20.8653543 66.4778648,21.2036775 C71.5697864,21.5420008 79.0673402,16.6661654 83.0967742,17.5219243 C83.0566803,17.4821215 81.1923153,16.5666586 76.2407223,18.0194585 Z" id="Path"></path>
                    </g>
                </g>
                <g id="logo-3" transform="translate(145.000000, 2.000000)">
                    <g id="logo">
                        <g id="6" transform="translate(7.000000, 2.000000)">
                            <path d="M112.885071,32.9241324 C113.745851,32.0730428 114.941378,30.5088781 115.013109,28.5766747 C115.03702,27.5875706 114.750093,26.5984665 114.224061,25.7473769 C114.58272,26.9895077 114.224061,29.0367232 113.29155,29.7728006 C113.674119,31.0149314 112.885071,32.5330912 111.809097,32.6941082 C112.908982,31.0609362 112.167755,28.8527038 110.278823,28.4156578 C111.020049,27.8635997 111.593902,28.7836965 112.239487,28.9217111 C112.550324,28.9907183 112.885071,28.9677159 113.171998,28.8297014 C113.865403,28.0936239 113.937135,26.299435 113.674119,25.3333333 C113.411103,25.5633575 112.550324,25.8393866 112.215576,26.023406 C111.737365,26.3224374 111.330886,26.7594835 111.04396,26.8514931 C110.398375,27.173527 109.083296,26.8744956 108.963743,26.9205004 C108.605085,27.4725585 108.892011,28.5536723 108.724638,29.2667474 C108.84419,29.2667474 108.987654,29.3127522 109.083296,29.3587571 C110.470107,30.0948345 111.378707,32.0270379 111.020049,34.0282486 C110.852676,34.9483454 110.254912,35.6154157 109.752791,36.1904762 C111.426528,35.4774011 113.076356,34.7413236 114.487077,33.6832123 C114.463167,33.2461663 114.271883,32.9011299 114.200151,32.4870864 C113.72194,32.6020985 113.363282,32.8551251 112.885071,32.9241324 Z" id="Path"></path>
                            <path d="M115.036354,31.2288786 C114.956141,31.6374808 115.116568,32.1628264 115.196782,32.5714286 C115.865229,32.1628264 116.801056,31.9293395 117.121911,30.9953917 C117.309076,30.4116743 117.255601,29.59447 117.710145,28.952381 C117.38929,29.0983103 116.426725,29.4193548 115.945443,29.8571429 C115.464161,30.2949309 115.143306,30.7327189 115.036354,31.2288786 Z" id="Path"></path>
                            <path d="M111.608461,25.2285037 C112.151822,25.4118962 112.695183,25.3507654 113.21492,25.0756766 C113.262168,24.0364524 112.62431,22.7527049 111.962827,22.6304432 C111.466715,22.538747 111.088724,23.0277937 110.521739,23.1194899 C110.970603,23.639102 111.159598,25.0451112 111.608461,25.2285037 Z" id="Path"></path>
                            <path d="M110.258955,22.6190476 C109.775772,22.6190476 109.826634,25.078869 109.623188,26.2380952 C110.43697,25.9553571 112.140826,26.3511905 112.318841,24.9092262 C111.683074,24.9092262 110.742138,24.8526786 110.538693,24.3154762 C110.43697,23.75 110.767569,23.6934524 110.996445,23.4955357 C110.767569,23.1845238 110.793,22.6190476 110.258955,22.6190476 Z" id="Path"></path>
                            <path d="M106.943484,24.1684502 C106.744445,25.5758088 108.461157,25.7137852 109.157793,26.2380952 C109.257313,25.079094 109.92907,22.7886868 109.456352,22.6507105 C108.933874,22.4851389 108.834355,23.0094489 108.535796,23.2854016 C108.709955,23.533759 108.983634,23.6993306 108.759715,24.1960454 C108.411397,24.6375697 107.540601,24.361617 106.943484,24.1684502 Z" id="Path"></path>
                            <path d="M105.130435,23.0159016 C105.63587,23.3121812 106.281703,23.5026467 106.927536,23.5238095 C107.48913,23.5238095 108.050725,22.6349707 108.724638,22.4021796 C108.078804,22.2117141 107.798007,21.7884575 107.180254,21.724969 C106.422101,21.6191549 105.355072,22.3175282 105.130435,23.0159016 Z" id="Path"></path>
                            <path d="M111.42029,33.9896623 C111.024079,32.2224665 110.03355,30.8902727 108.745863,29.8571429 C107.260071,30.4552707 105.972384,31.4340253 105.130435,32.98372 C106.02191,34.8596664 107.557229,31.8146521 108.473468,31.9234026 L108.498231,31.9234026 C109.389707,32.113716 110.083077,35.5121694 111.42029,33.9896623 Z" id="Path"></path>
                            <path d="M117.699691,19 C116.765709,19.336919 115.948475,19.8034223 115.014493,20.1662581 C115.80254,21.5916847 117.874813,20.3995098 117.699691,19 Z" id="Path"></path>
                            <path d="M102.547447,17.1904762 C102.053345,18.2839538 103.288599,19.6347202 104.231884,18.6698871 C103.647946,18.1981908 103.131385,17.6621724 102.547447,17.1904762 Z" id="Path"></path>
                            <path d="M100.168228,28.3492063 C99.8486093,27.8568189 99.0864406,27.3398121 98.8405797,27.1428571 C99.0864406,27.7829608 98.8405797,28.4230645 98.8651658,28.9646906 C98.914338,29.8263686 99.6765067,30.244898 100.168228,30.7619048 C100.340331,30.4664723 100.635364,30.0725624 100.635364,29.7278912 C100.65995,29.2601231 100.487848,28.8415938 100.168228,28.3492063 Z" id="Path"></path>
                            <path d="M97.0496454,30.5587467 C99.7499728,34.6018277 103.19351,36.3629243 106.215894,37.578329 L107.281161,38 L108.420749,37.9007833 C112.334985,37.5287206 115.803295,36.2885117 118.231113,34.3785901 L119.048643,33.7336815 L117.958603,33.5104439 L118.478849,33.2624021 C119.246832,32.9151436 119.915721,32.3694517 120.411194,31.6749347 L120.857119,31.1044386 L121.649876,30.6579634 C124.275882,29.2441253 124.251109,25.5483029 123.507899,23.886423 C123.384031,23.613577 123.260163,23.3655352 123.111521,23.1174935 C122.715143,22.348564 122.318764,21.654047 122.318764,20.7362924 C122.417859,19.9673629 122.715143,19.2232376 123.210616,18.6031332 C123.557447,18.156658 123.805183,17.6605744 123.929051,17.1148825 C124.12724,16.0979112 123.904278,15.0561358 123.334484,14.2127937 C123.284936,14.1383812 123.235389,14.0143603 123.161068,13.9151436 C123.012426,13.6671018 122.839011,13.3942559 122.76469,13.2454308 C122.665595,12.9477807 122.616048,12.6253264 122.640822,12.3028721 C122.640822,11.9804178 122.591274,11.6331593 122.541727,11.310705 C122.393085,10.6657963 122.170122,9.9464752 121.74897,9.42558747 C121.327818,8.90469974 121.005761,8.55744125 120.683704,8.23498695 C119.890947,7.39164491 119.469795,6.96997389 119.246832,5.70496084 C119.09819,4.81201044 119.222059,3.91906005 119.593663,3.10052219 C119.767079,2.77806789 119.965268,2.45561358 120.163457,2.15796345 C119.866173,2.15796345 119.544116,2.18276762 119.246832,2.23237598 C118.107244,2.40600522 117.041978,2.97650131 116.249221,3.81984334 C115.728974,4.48955614 115.506012,5.33289817 115.283049,6.22584856 C115.208728,6.54830287 115.109633,6.89556136 115.010539,7.21801567 C114.861897,7.66449086 114.366424,8.38381201 114.06914,8.5078329 L114.019593,8.5078329 L114.019593,8.5078329 C113.79663,8.48302872 113.548894,8.40861619 113.350704,8.30939948 C113.127742,8.21018277 112.904779,8.11096606 112.657042,8.0613577 L112.43408,8.01174935 L112.260664,8.13577023 L112.037701,8.30939948 L111.938607,8.38381201 L111.666097,8.58224543 L111.517455,8.68146214 L111.393586,8.53263708 L111.220171,8.30939948 L111.071529,8.13577023 L110.922887,7.96214099 L110.799019,7.78851175 L110.576056,7.78851175 C110.32832,7.78851175 110.080583,7.78851175 109.832847,7.8381201 C109.609884,7.88772846 109.386921,7.88772846 109.163958,7.8381201 L109.114411,7.81331593 C108.841901,7.59007833 108.569391,6.74673629 108.569391,6.3002611 C108.569391,5.95300261 108.569391,5.6305483 108.594164,5.28328982 C108.618938,4.36553525 108.643712,3.47258486 108.346428,2.67885117 C108.173012,2.25718016 107.578445,1.16579634 105.869063,0.297650131 C105.596553,0.173629243 105.324043,0.0744125326 105.051533,1.13686838e-13 C105.125854,0.223237598 105.224949,0.520887728 105.299269,0.818537859 C105.497459,1.78590078 105.348817,2.77806789 104.927665,3.6462141 C104.333097,4.78720627 103.837624,5.0848564 102.821905,5.68015666 C102.425527,5.90339426 102.004375,6.15143603 101.484128,6.52349869 C100.963881,6.89556136 100.542729,7.54046997 100.195898,8.11096606 C100.047257,8.40861619 99.9233883,8.70626632 99.8242937,9.02872063 C99.7251991,9.32637076 99.6013309,9.59921671 99.452689,9.87206266 C99.105858,10.2689295 98.7342533,10.616188 98.3131013,10.9138381 C97.7185338,11.45953 97.3469291,12.2036554 97.2478346,13.0221932 C97.1982873,13.5926893 97.2726082,14.1631854 97.4707974,14.6840731 C97.6937602,15.4281984 97.9414966,16.2715405 97.6442129,17.5365535 C97.495571,18.1814621 97.0000981,18.6527415 96.4550779,19.1984334 C95.6127739,20.0169713 94.5722808,21.0587467 94.3740916,23.1174935 C94.2006761,24.7793734 94.8943382,26.4412533 96.2073414,27.4830287 L96.2816624,27.5326371 L96.2816624,27.6070496 C96.4303042,29.2193211 97.8919493,30.2362924 97.8919493,30.2610966 L98.5360641,30.6827676 L97.0496454,30.5587467 Z M108.123465,37.5039164 L108.272107,37.3798956 C108.371202,37.305483 108.49507,37.2310705 108.618938,37.1318538 C109.089637,36.7845953 109.634658,36.4125326 109.907168,35.7924282 C109.486016,35.5939948 109.139185,35.2715405 108.891448,34.8498695 C108.742806,34.6266319 108.643712,34.4033943 108.544617,34.1553525 C108.395975,33.7832898 108.272107,33.4608355 107.875729,33.4112272 L107.826181,33.4112272 C107.47935,33.386423 107.281161,33.6344648 107.033425,33.9321149 C106.884783,34.1305483 106.711367,34.3289817 106.513178,34.502611 C106.166347,34.8250653 105.745195,35.0234987 105.274496,35.0979112 C105.37359,35.767624 105.769969,36.2885117 106.141573,36.7597911 C106.240668,36.883812 106.314989,36.9830287 106.38931,37.0822454 L106.513178,37.2558747 L106.314989,37.1814621 C102.747584,35.7428198 99.8242937,33.6096606 98.0653649,31.1788512 L97.9910439,31.0796345 L98.1149122,31.1044386 C98.5856114,31.154047 99.0315371,31.1788512 99.5022363,31.154047 C99.2792735,30.9804178 99.0563107,30.8067885 98.8581215,30.6331593 C98.0653649,30.0130548 97.2478346,29.3681462 96.8019089,28.078329 L96.7523616,27.9295039 L96.8762299,28.0039164 C97.3221555,28.2519582 97.7928548,28.4503916 98.0405912,28.1775457 C98.4121959,27.7558747 98.0405912,27.0365535 97.5698919,26.5156658 C97.14874,26.0443864 96.5541725,25.6227154 96.1577941,25.8211488 C95.8605104,25.9699739 95.8605104,26.3668407 95.885284,26.54047 L95.9100577,26.7389034 L95.7861894,26.6148825 C94.7209227,25.5483029 94.6218281,24.1344648 94.7456963,23.1422977 C94.8695645,22.0509138 95.2907165,21.0339426 95.959605,20.1657963 C96.1330205,19.9425587 96.3559833,19.7441253 96.5541725,19.5208877 C97.1735136,18.9007833 97.8424021,18.2310705 98.0653649,17.2637076 C98.1892331,16.4203655 98.1149122,15.5522193 97.7928548,14.7584856 C97.5946656,14.3120104 97.5203447,13.8407311 97.5451183,13.3446475 C97.7433075,12.0300261 98.1644595,11.5587467 98.8085742,10.9634465 L99.0563107,10.7154047 C99.2544999,10.5169713 99.52701,10.2937337 99.6508782,10.1449086 C99.873841,9.84725849 100.022483,9.5 100.121577,9.15274151 C100.220672,8.85509138 100.319767,8.58224543 100.468409,8.30939948 C100.765692,7.76370757 101.162071,7.19321149 101.63277,6.87075718 C102.128243,6.52349869 102.574168,6.27545692 102.945773,6.05221932 C103.961493,5.45691906 104.55606,5.10966057 105.200175,3.84464752 C105.695648,2.8772846 105.794742,1.76109661 105.497459,0.694516971 L105.447911,0.545691906 L105.57178,0.620104439 C106.562725,1.09138381 107.355482,1.86031332 107.850955,2.82767624 C108.123465,3.54699739 108.098691,4.36553525 108.073918,5.23368146 C108.073918,5.58093995 108.049144,5.92819843 108.049144,6.27545692 C108.049144,6.82114883 108.420749,8.01174935 108.891448,8.18537859 C109.188732,8.25979112 109.486016,8.25979112 109.783299,8.21018277 C110.006262,8.18537859 110.229225,8.16057441 110.427414,8.16057441 L110.452188,8.16057441 L110.576056,8.18537859 L110.799019,8.45822454 C110.997208,8.70626632 111.195397,8.97911227 111.41836,9.22715405 C111.69087,9.0535248 111.96338,8.85509138 112.23589,8.65665796 L112.5084,8.45822454 L112.533174,8.43342037 L112.557948,8.43342037 C112.780911,8.48302872 112.9791,8.55744125 113.177289,8.65665796 C113.449799,8.80548303 113.747083,8.87989556 114.044367,8.90469974 C114.539839,8.87989556 115.233502,7.8381201 115.406917,7.31723238 C115.506012,6.96997389 115.605106,6.64751958 115.679427,6.32506527 C115.90239,5.48172324 116.100579,4.66318538 116.571278,4.06788512 C117.314488,3.27415144 118.305434,2.77806789 119.395474,2.60443864 L119.544116,2.57963446 L119.445021,2.70365535 C118.850454,3.62140992 118.627491,4.73759791 118.82568,5.80417755 C119.073417,7.19321149 119.56889,7.71409922 120.361646,8.55744125 C120.65893,8.87989556 121.005761,9.25195822 121.402139,9.7232376 C121.798518,10.194517 121.94716,10.8394256 122.095801,11.4347258 C122.145349,11.732376 122.194896,12.0300261 122.194896,12.3524804 C122.194896,12.7245431 122.244443,13.0966057 122.368312,13.4438642 C122.442633,13.6174935 122.640822,13.9151436 122.76469,14.1631854 C122.839011,14.2872063 122.888558,14.386423 122.938105,14.4608355 C123.384031,15.229765 123.631768,15.8002611 123.458352,17.1148825 C123.334484,17.5861619 123.136295,18.0326371 122.814237,18.4046997 C122.293991,19.0744125 121.94716,19.8681462 121.848065,20.7114883 C121.823291,21.7532637 122.269217,22.5469974 122.665595,23.3159269 C122.814237,23.5887728 122.938105,23.8368146 123.061974,24.0848564 L123.061974,24.0848564 C123.458352,25.1018277 123.557447,26.1932115 123.359257,27.2845953 C123.185842,28.2767624 122.715143,29.5913838 121.377366,30.310705 L121.20395,30.4099217 L121.278271,30.2362924 C121.377366,30.0626632 121.47646,29.6906005 121.228724,29.4673629 C120.857119,29.1449086 120.138683,29.4177546 119.593663,29.7898172 C119.246832,30.0130548 118.503623,30.6083551 118.751359,31.1788512 C118.900001,31.5261097 119.445021,31.4765013 119.915721,31.3524804 L120.064362,31.3276762 L119.965268,31.4516971 C119.172511,32.5678851 118.206339,32.9399478 117.26494,33.3120104 C117.017204,33.4112272 116.744694,33.5104439 116.496957,33.6344648 C116.942883,33.7832898 117.388809,33.8825065 117.859508,33.9817232 L117.983376,34.0065274 L117.884282,34.0809399 C115.530785,35.9164491 112.112022,37.156658 108.272107,37.5039164 L108.123465,37.5039164 Z" id="Shape" fill-rule="nonzero"></path>
                            <path d="M110.168866,14.2407045 C110.341328,14.6125245 110.464515,14.9843444 110.51379,15.3809524 C110.686252,15.0091324 110.90799,14.6868885 111.179002,14.3894325 C111.425376,14.0671885 111.918125,13.7697326 112.139862,13.1252446 C112.410874,12.3568167 112.534061,10.3489889 111.302189,9.95238095 L111.302189,9.95238095 C110.021041,9.97716895 109.577567,11.9602087 109.626842,12.7534247 C109.626842,13.4227006 110.021041,13.8688845 110.168866,14.2407045 Z" id="Path"></path>
                            <path d="M120.960513,21.6208286 C121.158951,20.5219014 121.109341,19.5228766 121.406998,18.5238519 C121.605436,17.8744859 122.027116,17.6247297 122.15114,17.1252173 C122.374382,16.1261926 121.828678,15.6017046 121.406998,14.527753 C121.183755,13.8284357 121.63024,11.8054107 120.464418,10.2319467 C120.117152,9.78238562 119.596253,9.4826782 119.224182,9.05809269 C118.90172,8.63350719 118.604064,8.18394606 118.331212,7.73438494 C117.835117,6.91018954 117.760703,5.66140864 118.033555,4.46257898 C115.825934,5.08696943 116.64449,9.23292202 115.205816,10.281898 C115.701911,10.8563372 115.925153,11.6305814 115.80113,12.3798499 C115.652301,11.131069 114.362455,10.0071662 112.849367,10.2069711 C113.023,11.131069 113.246243,11.8303863 113.147024,12.8044354 C112.948586,14.9773142 111.038622,15.2270703 110.244871,16.7006318 C109.897604,15.052241 108.161274,14.2779969 108.558149,12.1300937 C108.756587,11.1560446 109.178267,10.5566298 109.599948,9.73243438 C108.210883,9.08306831 106.648185,9.80736123 106.152091,10.9562397 C106.25131,10.1819955 106.697795,9.50765382 107.342718,9.10804393 C106.25131,7.6844337 108.210883,3.96306662 106.276114,2.71428571 C106.226505,3.96306662 105.78002,5.11194505 105.085487,5.76131111 C104.713417,6.13594538 104.291736,6.48560404 103.845251,6.78531145 C103.349157,7.08501887 102.753843,7.23487258 102.307358,7.55955561 C100.74466,8.73340966 100.595832,10.806386 100.174151,11.4058008 C99.4548144,12.3298987 98.7850868,12.6795573 98.7354773,13.678582 C98.7106726,14.20307 99.033134,14.5527287 99.033134,15.2270703 C99.033134,16.2510707 98.7106726,17.2001442 98.586649,18.324047 C99.6780569,19.3480473 100.099737,20.8216088 100.050128,22.4200483 C99.8020806,21.9704872 99.4300097,21.5459017 98.9091104,21.8456091 C97.6440693,22.569902 98.8595009,25.31722 99.0827435,25.7418055 C97.5696551,24.3431709 97.1479748,21.5459017 98.9091104,20.4469745 C98.760282,20.2721452 98.586649,20.0973159 98.3882111,19.9724378 C97.4208268,20.5718526 96.0069573,21.1712674 96.1557857,22.8945851 C96.2301999,23.8436586 96.6022708,25.1423907 97.2719984,25.841708 C98.2393828,26.8657083 99.6284475,27.739855 100.521418,28.4391723 C100.620637,26.7158546 101.488802,25.9665861 101.960092,24.8426833 C101.984897,24.7927321 102.034506,24.6928296 102.034506,24.6928296 C102.381772,23.3191706 102.729038,22.569902 103.373961,21.7956579 C103.746032,21.3710724 104.738221,20.6967307 104.88705,20.1222915 C104.911854,19.9474622 104.936659,19.7476572 104.911854,19.5728279 C104.41576,19.5228766 103.870056,20.0473646 103.225133,19.9224865 C101.463997,19.6477547 100.893489,17.8245346 101.712045,16.1511682 C102.456186,16.8255099 103.101109,17.5498028 104.043689,18.0992664 C103.870056,17.3499979 102.555405,16.1261926 102.10892,15.6017046 C101.662435,15.0772166 101.141536,14.5027774 100.670246,13.9533138 C100.943098,13.0042403 102.555405,10.931264 104.41576,11.1810202 C103.0515,11.4807276 102.183334,13.1291184 102.084115,14.7025824 C102.257749,14.9273629 102.431382,15.1521435 102.629819,15.3769241 C102.704234,14.6276555 103.200328,14.0032651 103.894861,13.7285333 C103.349157,14.4778018 103.225133,15.4768265 103.572399,16.3509732 C104.41576,17.1751686 105.30873,17.9244371 106.25131,18.6237544 C107.665179,18.0742908 108.533344,16.6506806 108.359711,15.1271679 C109.475924,16.1511682 108.756587,18.7985837 107.962836,19.8975109 C107.61557,20.3970233 107.169084,20.7716575 106.623381,21.0463893 C107.045061,20.5219014 108.03725,19.5228766 107.293108,18.7486325 C106.797014,19.173218 106.424943,19.5728279 105.978458,19.9974134 C104.88705,21.0463893 103.52279,21.6957554 103.101109,23.5689268 C104.242127,22.7447314 105.829629,21.5459017 107.838812,22.0204385 C108.359711,22.1453165 108.781392,22.445024 109.327096,22.5449264 C109.8728,22.6448289 110.368894,22.445024 110.889794,22.4699996 C112.948586,22.5948777 114.139213,24.2182928 114.982574,25.31722 C115.106597,23.3940974 113.990384,22.3700971 113.246243,21.071365 C112.948586,20.546877 112.700539,20.022389 112.353272,19.497901 C111.435498,20.0473646 112.105225,21.2711699 112.353272,21.8955604 C111.906787,21.4959505 111.584326,20.9714625 111.385888,20.4219989 C110.939403,19.1482424 110.989012,16.4259 112.353272,15.7515583 C111.757959,17.1501929 112.179639,18.7985837 113.395071,19.697706 C114.461674,19.3230717 115.528278,18.8735106 116.545271,18.3739982 C117.165389,17.6497053 117.339023,16.625705 117.016561,15.7265827 C117.636679,16.1761438 117.934336,16.9753636 117.760703,17.7246322 C118.00875,17.5747784 118.256797,17.3999491 118.504845,17.2251198 C118.802501,15.9263877 118.529649,13.878387 117.264608,13.0541916 C119.124963,13.4288258 120.092347,15.901412 120.092347,16.9004368 C119.497034,17.3000466 118.827306,17.7246322 118.207188,18.124242 C117.58707,18.5238519 116.1732,19.1981936 115.701911,19.8725353 C116.743709,19.6227791 117.58707,19.1232668 118.48004,18.6737056 C118.802501,20.5219014 117.735898,22.0953653 115.974763,21.8456091 C115.32984,21.7706823 114.957769,21.1213162 114.461674,21.0214137 C114.38726,21.1962431 114.362455,21.3710724 114.337651,21.5459017 C114.337651,22.1453165 115.081792,23.0694144 115.32984,23.5939024 C115.75152,24.5180003 115.850739,25.3421956 115.80113,26.7658059 C115.80113,26.7658059 115.825934,26.890684 115.825934,26.9156596 C115.974763,28.1144893 116.594881,29.0885384 116.198005,30.7619048 C117.239804,30.3373193 118.852111,29.962685 120.042738,29.2134164 C120.886099,28.6889285 121.580631,27.5900013 121.927897,26.690879 C122.548015,25.0924395 121.382193,24.0934147 120.613247,23.2442437 C120.390004,23.3191706 120.166761,23.4440487 119.943519,23.5439512 C121.357388,25.2173176 120.067543,27.7898062 118.231993,28.6889285 C118.579259,28.3392698 120.414809,26.1913667 119.695472,25.1174151 C119.323401,24.5929271 118.802501,24.8177077 118.306407,25.3671713 C118.554454,23.943561 119.497034,22.3201459 120.960513,21.6208286 Z M103.448375,9.95721494 C103.52279,7.48462876 106.052872,7.55955561 106.350529,5.08696943 C106.67299,6.13594538 106.152091,7.15994572 106.176895,8.05906797 C104.738221,7.70940932 104.018884,9.08306831 103.448375,9.95721494 Z M118.653673,12.1800449 C118.430431,11.2559471 118.033555,9.65750753 116.570076,9.60755629 C116.842928,8.75838528 116.64449,7.60950685 117.264608,6.7103846 C116.842928,9.13301955 119.298596,9.78238562 118.653673,12.1800449 Z" id="Shape" fill-rule="nonzero"></path>
                            <path d="M104.161432,32.8343353 C104.452871,30.7600916 106.016038,29.133696 107.738172,28.8037026 C107.870644,28.7801317 108.029611,28.7801317 108.162082,28.8037026 C108.215071,28.0730031 108.87743,27.0594522 108.69197,26.4230365 C108.585992,26.3287527 107.102308,26.2580399 106.519431,25.7630499 C106.227993,25.5744823 105.96305,25.0559214 105.53914,24.6316442 C105.247702,24.3252219 104.426376,23.8538028 104.214421,23.5238095 C103.605051,24.3959347 103.101658,26.1637561 103.605051,27.1065941 C103.869994,27.3187327 104.214421,27.4365875 104.585342,27.4365875 C105.327185,27.4837294 106.227993,26.7294589 106.837364,27.4837294 C104.69132,27.3658746 103.181141,29.3458345 103.817006,31.2550816 C102.730736,30.7836626 102.38631,29.0865541 103.207635,27.9551484 C102.439298,26.9887394 102.730736,24.8673538 103.525568,23.759519 C102.677748,24.4430766 102.041883,25.3387728 101.750445,26.3051818 C101.194063,28.2379998 101.935905,30.100105 102.57177,31.1843687 C102.068377,30.9958011 101.776939,30.6422369 101.326535,30.4065273 C101.11458,30.7836626 100.796647,31.066514 100.637681,31.4907911 C101.776939,32.9286191 103.313613,34.1071667 104.850286,35.2857143 C104.452871,34.6021567 104.028961,33.7771734 104.161432,32.8343353 Z" id="Path"></path>
                            <path d="M34.2028986,29.6401736 C31.8357488,30.3800388 29.3719807,30.7619048 26.9082126,30.7619048 L17.9710145,30.7619048 L20.1932367,20.8095238 L29.1062802,20.8095238 C31.4251208,20.8095238 33.7439614,21.1675231 35.942029,21.9073884 L34.2028986,29.6401736 Z M27.5845411,27.5399109 L28.4057971,23.7928514 C28.4541063,23.6257851 28.2608696,23.315519 27.7536232,23.1961859 C27.4396135,23.1007194 27.1014493,23.0529862 26.763285,23.0291196 L25.5555556,28.351376 C25.9178744,28.351376 26.2801932,28.3036428 26.6425121,28.2081763 C27.1980676,28.0888432 27.5362319,27.7785771 27.5845411,27.5399109 Z" id="Shape" fill-rule="nonzero"></path>
                            <polygon id="Path" points="40.531401 29.8571429 35.0434783 29.8571429 36.7439614 21.7142857 42.2318841 21.7142857"></polygon>
                            <path d="M80.1351259,29.8571429 L72.3601436,29.8571429 C71.3121052,29.8571429 69.9472181,29.5488959 68.2898551,28.932402 L69.5816233,22.6390266 C71.2389863,22.0482199 72.9694682,21.739973 74.6999502,21.7142857 L81.7681159,21.7142857 L81.3781482,23.6665164 L74.6024583,23.6665164 L74.3587284,24.873817 L81.1344183,24.873817 L80.7444506,26.8003605 L73.9687606,26.8003605 L73.7250308,28.0333484 L80.5007207,28.0333484 L80.1351259,29.8571429 Z" id="Path"></path>
                            <polygon id="Path" points="92.0813923 29.8571429 80.8695652 29.8571429 82.6686724 21.7142857 88.404956 21.7398922 87.1273292 27.7830189 92.5507246 27.7830189"></polygon>
                            <path d="M54.9483302,29.8571429 L47.1836799,29.8571429 C46.1337429,29.8571429 44.7663831,29.5479204 43.1304348,28.9294756 L44.4245432,22.641953 C46.0849086,22.0750452 47.8185255,21.7658228 49.5521424,21.7142857 L56.6086957,21.7142857 L56.2180214,23.6469259 L49.4300567,23.6469259 L49.1858853,24.858047 L55.97385,24.858047 L55.5831758,26.7649186 L48.7952111,26.7649186 L48.5510397,28.0018083 L55.3390044,28.0018083 L54.9483302,29.8571429 Z" id="Path"></path>
                            <path d="M69.1884058,21.7669575 L68.7799736,23.7891039 L64.28722,23.7635071 L64.4313725,23.0723938 C62.1970084,22.9700066 61.6924746,23.7891039 61.6924746,23.7891039 C63.5664574,24.0706686 66.7378129,24.8897658 68.3234907,25.9904278 L67.7228551,29.010849 C65.6806944,29.5995752 63.542432,29.8811398 61.428195,29.8555431 L55.7101449,29.8299463 L56.2146788,27.7310095 L60.8275595,27.7310095 L60.683407,28.4221228 C60.8756103,28.4221228 63.4463303,28.396526 63.4463303,28.396526 C62.9658219,27.1678801 60.0347206,26.6303475 56.3828567,26.3487829 L57.1516702,22.6116516 C59.1457801,21.9973286 61.1879408,21.6901671 63.2541269,21.7157639 L69.1884058,21.7669575 Z" id="Path"></path>
                            <path d="M56.6086957,10.8842178 L56.2002635,12.9063642 L51.7075099,12.9063642 L51.8516624,12.2152509 C49.6172983,12.1128638 49.1127645,12.931961 49.1127645,12.931961 C50.9867473,13.2135257 54.1581028,14.032623 55.7437805,15.1332849 L55.143145,18.1537061 C53.1009843,18.7424323 50.9627218,19.023997 48.8484848,18.9984002 L43.1304348,18.9728034 L43.6349686,16.8738666 L48.2478493,16.8738666 L48.1036968,17.56498 C48.2959002,17.56498 50.8666202,17.5393832 50.8666202,17.5393832 C50.3861118,16.3107373 47.4550105,15.7732047 43.8031466,15.49164 L44.57196,11.7545087 C46.5660699,11.1401857 48.6082306,10.8330243 50.6744168,10.8586211 L56.6086957,10.8842178 Z" id="Path"></path>
                            <path d="M17.9710145,9.95349872 L17.4094203,12.4112081 L11.4272212,12.3873469 L11.5981411,11.6237867 C8.61925016,11.4806191 7.98440454,12.4589307 7.98440454,12.4589307 C10.4749527,12.7929882 14.6991178,13.795161 16.7989918,15.1552526 L16.0176434,18.8537474 C13.2829238,19.5695851 10.4505356,19.9275039 7.64256459,19.9036427 L0,19.8797814 L0.65926276,17.326627 L6.78796471,17.326627 L6.61704474,18.1140484 C6.88563327,18.1140484 10.3040328,18.0901872 10.3040328,18.0901872 C9.86452426,16.8255406 5.76244486,15.9665354 0.903434152,15.6086165 L1.95337114,11.0511165 C4.59042218,10.2875563 7.34955892,9.92963747 10.0842785,9.95349872 L17.9710145,9.95349872 Z" id="Path"></path>
                            <polygon id="Path" points="22.5346216 19 17.0724638 19 18.7729469 10.8571429 24.2608696 10.8571429"></polygon>
                            <polygon id="Path" points="35.1956918 19 29.2299042 19 27.6586679 15.8918432 27.0203532 19 23.3623188 19 25.0072068 10.8571429 30.9484438 10.8571429 32.4951295 14.1964849 33.1579948 10.8571429 36.8405797 10.8571429"></polygon>
                            <polygon id="Path" points="41.4041868 19 35.942029 19 37.6425121 10.8571429 43.1304348 10.8571429"></polygon>
                            <polygon id="Path" points="67.6631834 13.6056782 64.8556945 13.6056782 63.7778192 19 58.4385768 19 59.5415189 13.6056782 56.6086957 13.6056782 58.5137774 10.8571429 68.2898551 10.8571429"></polygon>
                            <path d="M79.2216757,19 L71.4495398,19 C70.3919391,19 69.0391939,18.691753 67.3913043,18.0752591 L68.6702634,11.7818837 C70.318153,11.1910771 72.064424,10.8828301 73.7860997,10.8571429 L80.8695652,10.8571429 L80.4760394,12.7836863 L73.6877182,12.7836863 L73.4417645,13.9909869 L80.2300857,13.9909869 L79.8365598,15.9175304 L73.0482387,15.9175304 L72.802285,17.1505183 L79.5906062,17.1505183 L79.2216757,19 Z" id="Path"></path>
                            <path d="M93.5557703,15.7634069 L92.9267848,19 L88.0113795,19 L88.4074074,16.7908968 C88.5005904,16.3542136 88.057971,15.9432177 87.2193237,15.9432177 L86.6369297,19 L81.7681159,19 L83.3056361,10.8571429 L89.5488996,10.8571429 C91.1796028,10.8571429 92.810306,11.1653898 94.3478261,11.7561965 L93.9052067,14.0166742 C93.0199678,14.4790446 92.0881374,14.7616043 91.1330113,14.8900406 C91.9716586,14.9671023 92.8336017,15.2753493 93.5557703,15.7634069 Z M89.8517445,12.6552501 L87.8483092,12.6552501 L87.5687601,14.0166742 C88.7801396,14.0423614 89.5954911,13.4515548 89.8517445,12.6552501 Z" id="Shape" fill-rule="nonzero"></path>
                        </g>
                    </g>
                </g>
            </g>
        </g>
    </g>
</svg>