<?xml version="1.0" encoding="UTF-8"?>
<svg width="184px" height="229px" viewBox="0 0 184 229" version="1.1" xmlns="http://www.w3.org/2000/svg" xmlns:xlink="http://www.w3.org/1999/xlink">
    <!-- Generator: Sketch 55.1 (78136) - https://sketchapp.com -->
    <title>Group</title>
    <desc>Created with Sketch.</desc>
    <defs>
        <linearGradient x1="72.3046592%" y1="108.457937%" x2="52.7579904%" y2="34.1189267%" id="linearGradient-1">
            <stop stop-color="#C2A8ED" offset="68.39%"></stop>
            <stop stop-color="#EADBFF" offset="74.19%"></stop>
            <stop stop-color="#EADBFF" offset="99.89%"></stop>
        </linearGradient>
        <linearGradient x1="81.4144388%" y1="43.246026%" x2="18.6464078%" y2="56.7456046%" id="linearGradient-2">
            <stop stop-color="#360F59" offset="0.2852183%"></stop>
            <stop stop-color="#962BF0" offset="99.82%"></stop>
        </linearGradient>
        <linearGradient x1="-165.147426%" y1="171.723725%" x2="174.30191%" y2="-20.4922421%" id="linearGradient-3">
            <stop stop-color="#3CDC7C" offset="0%"></stop>
            <stop stop-color="#95EBB1" offset="100%"></stop>
        </linearGradient>
    </defs>
    <g id="💜-Symbols" stroke="none" stroke-width="1" fill="none" fill-rule="evenodd">
        <g id="illustration-/-hero" transform="translate(-206.000000, -115.000000)">
            <g id="illustration" transform="translate(-9.000000, 0.000000)">
                <g id="Group" transform="translate(215.000000, 115.000000)">
                    <path d="M176.803226,228.341534 L181.329032,225.707668 C182.590323,224.976038 183.406452,223.439617 183.406452,221.171565 L183.703226,107.256869 C183.703226,106.817891 183.703226,106.378914 183.629032,105.866773 C183.629032,105.79361 183.629032,105.720447 183.554839,105.647284 C183.554839,105.574121 183.554839,105.500958 183.480645,105.427796 C183.480645,105.28147 183.406452,105.135144 183.406452,104.915655 C183.332258,104.623003 183.258065,104.403514 183.183871,104.110863 C183.183871,104.0377 183.109677,103.964537 183.109677,103.891374 C183.109677,103.818211 183.109677,103.818211 183.035484,103.745048 C183.035484,103.598722 182.96129,103.525559 182.96129,103.379233 C182.887097,103.159744 182.812903,102.940256 182.73871,102.720767 C182.664516,102.501278 182.590323,102.281789 182.441935,102.0623 C182.441935,102.0623 182.441935,102.0623 182.441935,102.0623 C182.441935,102.0623 182.441935,102.0623 182.441935,102.0623 C182.367742,101.842812 182.293548,101.696486 182.219355,101.476997 C182.145161,101.257508 181.996774,101.111182 181.922581,100.891693 C181.848387,100.745367 181.774194,100.525879 181.625806,100.379553 C181.625806,100.379553 181.625806,100.379553 181.625806,100.30639 C181.625806,100.30639 181.625806,100.30639 181.625806,100.233227 C181.477419,100.013738 181.403226,99.8674121 181.254839,99.6479233 C181.106452,99.4284345 180.958065,99.2089457 180.809677,99.0626198 C180.735484,98.9894569 180.66129,98.9162939 180.587097,98.843131 C180.587097,98.7699681 180.512903,98.7699681 180.512903,98.6968051 C180.43871,98.6236422 180.364516,98.5504792 180.290323,98.4773163 C180.067742,98.2578275 179.919355,98.0383387 179.696774,97.7456869 C179.622581,97.672524 179.548387,97.5261981 179.4,97.4530351 C179.325806,97.3798722 179.251613,97.3067093 179.177419,97.2335463 C179.103226,97.1603834 179.029032,97.0140575 178.880645,96.9408946 C178.658065,96.7214058 178.435484,96.5750799 178.212903,96.428754 C178.064516,96.2824281 177.916129,96.2092652 177.767742,96.0629393 C177.322581,95.6971246 176.877419,95.4044728 176.432258,95.1118211 L12.5387097,1.60958466 C12.2419355,1.46325879 11.9451613,1.31693291 11.6483871,1.17060703 C11.6483871,1.17060703 11.5741935,1.17060703 11.5741935,1.09744409 C11.5,1.09744409 11.4258065,1.02428115 11.4258065,1.02428115 C11.2774194,0.951118211 11.0548387,0.877955272 10.9064516,0.877955272 C10.8322581,0.877955272 10.8322581,0.804792332 10.7580645,0.804792332 C10.683871,0.804792332 10.683871,0.804792332 10.6096774,0.804792332 C10.5354839,0.804792332 10.3870968,0.731629393 10.3129032,0.731629393 C10.2387097,0.731629393 10.1645161,0.731629393 10.1645161,0.658466454 C10.0903226,0.658466454 10.016129,0.658466454 9.94193548,0.658466454 C9.86774194,0.658466454 9.79354839,0.658466454 9.71935484,0.658466454 C9.64516129,0.658466454 9.64516129,0.658466454 9.57096774,0.658466454 C9.42258065,0.658466454 9.3483871,0.658466454 9.2,0.658466454 C9.2,0.658466454 9.12580645,0.658466454 9.12580645,0.658466454 C9.12580645,0.658466454 9.12580645,0.658466454 9.12580645,0.658466454 C8.97741935,0.658466454 8.82903226,0.658466454 8.68064516,0.731629393 C8.68064516,0.731629393 8.60645161,0.731629393 8.60645161,0.731629393 C8.53225806,0.731629393 8.53225806,0.731629393 8.45806452,0.731629393 C8.38387097,0.731629393 8.30967742,0.731629393 8.23548387,0.804792332 C8.16129032,0.804792332 8.08709677,0.877955272 8.01290323,0.877955272 C7.93870968,0.877955272 7.93870968,0.877955272 7.86451613,0.951118211 C7.86451613,0.951118211 7.79032258,0.951118211 7.79032258,0.951118211 C7.64193548,1.02428115 7.56774194,1.02428115 7.41935484,1.09744409 C7.41935484,1.09744409 7.41935484,1.09744409 7.34516129,1.09744409 L2.81935484,3.7313099 L2.81935484,3.7313099 L2.81935484,3.7313099 C2.96774194,3.65814696 3.11612903,3.58498403 3.26451613,3.51182109 C3.33870968,3.51182109 3.33870968,3.51182109 3.41290323,3.43865815 C3.56129032,3.36549521 3.63548387,3.36549521 3.78387097,3.29233227 C3.85806452,3.29233227 3.85806452,3.29233227 3.93225806,3.29233227 C4.08064516,3.29233227 4.30322581,3.21916933 4.4516129,3.21916933 C4.4516129,3.21916933 4.52580645,3.21916933 4.52580645,3.21916933 C4.67419355,3.21916933 4.82258065,3.21916933 4.97096774,3.21916933 C5.04516129,3.21916933 5.11935484,3.21916933 5.19354839,3.21916933 C5.34193548,3.21916933 5.41612903,3.21916933 5.56451613,3.29233227 C5.63870968,3.29233227 5.78709677,3.36549521 5.86129032,3.36549521 C5.93548387,3.36549521 6.08387097,3.43865815 6.15806452,3.43865815 C6.30645161,3.51182109 6.52903226,3.51182109 6.67741935,3.58498403 C6.7516129,3.58498403 6.9,3.65814696 6.97419355,3.7313099 C7.27096774,3.87763578 7.56774194,4.02396166 7.86451613,4.17028754 L171.980645,97.599361 C172.425806,97.8920128 172.870968,98.1846645 173.316129,98.5504792 C173.464516,98.6968051 173.612903,98.7699681 173.76129,98.9162939 C174.058065,99.2089457 174.354839,99.4284345 174.651613,99.7210863 C174.725806,99.7942492 174.8,99.8674121 174.874194,99.9405751 C175.245161,100.30639 175.616129,100.745367 175.912903,101.184345 C175.912903,101.257508 175.987097,101.257508 175.987097,101.330671 C176.358065,101.842812 176.654839,102.281789 176.951613,102.867093 C176.951613,102.867093 176.951613,102.867093 176.951613,102.940256 C177.248387,103.452396 177.545161,104.0377 177.767742,104.54984 C177.767742,104.54984 177.767742,104.54984 177.767742,104.54984 C177.990323,105.135144 178.212903,105.647284 178.36129,106.232588 C178.36129,106.305751 178.36129,106.305751 178.435484,106.378914 C178.583871,106.891054 178.732258,107.403195 178.806452,107.915335 C178.806452,107.988498 178.806452,108.061661 178.880645,108.134824 C178.954839,108.646965 179.029032,109.232268 179.029032,109.744409 L178.732258,223.659105 C178.880645,226.000319 178.064516,227.536741 176.803226,228.341534 Z" id="Path" fill="url(#linearGradient-1)"></path>
                    <path d="M171.683871,227.829393 C175.616129,230.097444 178.880645,228.268371 178.880645,223.805431 L179.177419,109.890735 C179.177419,105.427796 175.987097,99.9405751 172.054839,97.7456869 L7.93870968,4.24345048 C4.00645161,1.97539936 0.741935484,3.80447284 0.741935484,8.26741214 L0.44516129,122.182109 C0.44516129,126.645048 3.63548387,132.132268 7.56774194,134.327157 L171.683871,227.829393 Z" id="Path" fill="url(#linearGradient-2)"></path>
                    <g opacity="0.35" transform="translate(20.774194, 35.118211)" fill="#190C3A" id="Path">
                        <path d="M30.2709677,41.5565495 C33.5354839,43.385623 36.2064516,41.9223642 36.2064516,38.2642173 L36.2806452,24.8753994 C36.2806452,21.2172524 33.683871,16.6811502 30.4193548,14.8520767 L6.23225806,1.09744409 C2.96774194,-0.731629393 0.296774194,0.731629393 0.296774194,4.38977636 L0.222580645,17.7785942 C0.222580645,21.4367412 2.81935484,25.9728435 6.08387097,27.8019169 L30.2709677,41.5565495 Z"></path>
                    </g>
                    <path d="M48.3,77.6258786 C51.5645161,79.4549521 54.2354839,77.9916933 54.2354839,74.3335463 L54.3096774,60.9447284 C54.3096774,57.2865815 51.7129032,52.7504792 48.4483871,50.9214058 L24.2612903,37.1667732 C20.9967742,35.3376997 18.3258065,36.8009585 18.3258065,40.4591054 L18.2516129,53.8479233 C18.2516129,57.5060703 20.8483871,62.0421725 24.1129032,63.871246 L48.3,77.6258786 Z" id="Path" fill="url(#linearGradient-3)"></path>
                    <g opacity="0.35" transform="translate(20.774194, 117.060703)" fill="#190C3A" id="Path">
                        <polygon points="65.5870968 37.386262 0.222580645 0.146325879 0.148387097 8.48690096 65.5870968 45.7268371"></polygon>
                    </g>
                    <polygon id="Path" fill="#EADBFF" points="85.0258065 155.837061 19.5870968 118.597125 19.5870968 127.010863 84.9516129 164.250799"></polygon>
                    <g transform="translate(20.774194, 74.626198)" fill="#190C3A" id="Path" opacity="0.35">
                        <g transform="translate(104.612903, 59.261981)">
                            <polygon points="0.296774194 0.512140575 0.222580645 13.3888179 30.7903226 30.8015974 30.7903226 17.8517572"></polygon>
                        </g>
                        <g transform="translate(69.741935, 39.507987)">
                            <polygon points="0.222580645 0.365814696 0.222580645 13.315655 30.716129 30.6552716 30.7903226 17.7785942"></polygon>
                        </g>
                        <g transform="translate(34.870968, 19.753994)">
                            <polygon points="30.716129 17.6322684 0.222580645 0.292651757 0.222580645 13.1693291 30.716129 30.5821086"></polygon>
                        </g>
                        <g>
                            <polygon points="0.222580645 0.146325879 0.148387097 13.0961661 30.716129 30.4357827 30.716129 17.5591054"></polygon>
                        </g>
                    </g>
                    <g transform="translate(17.806452, 76.089457)" fill="#EADBFF" id="Path">
                        <polygon points="105.058065 59.6277955 105.058065 72.5044728 135.551613 89.9172524 135.551613 76.9674121"></polygon>
                        <polygon points="70.1870968 39.727476 70.1129032 52.6773163 100.680645 70.0169329 100.680645 57.1402556"></polygon>
                        <polygon points="65.8096774 37.2399361 35.2419355 19.9003195 35.2419355 32.7769968 65.7354839 50.1897764"></polygon>
                        <polygon points="0.370967742 0 0.370967742 12.9498403 30.8645161 30.2894569 30.8645161 17.4127796"></polygon>
                    </g>
                    <g transform="translate(65.290323, 125.108626)" fill="#FFFFFF" id="Path" opacity="0.5">
                        <polygon points="1.63225806 7.46261981 3.26451613 5.99936102 4.89677419 9.29169329 6.00967742 9.95015974 3.85806452 5.63354633 6.00967742 3.7313099 4.89677419 3.07284345 3.26451613 4.53610224 1.70645161 1.24376997 0.593548387 0.658466454 2.74516129 4.90191693 0.519354839 6.80415335"></polygon>
                        <polygon points="23.1483871 19.6808307 24.7806452 18.2175719 26.4129032 21.5099042 27.5258065 22.1683706 25.3741935 17.8517572 27.5258065 15.9495208 26.4129032 15.2910543 24.7806452 16.7543131 23.1483871 13.4619808 22.1096774 12.8766773 24.1870968 17.1932907 22.0354839 19.0223642"></polygon>
                        <polygon points="17.3612903 16.3884984 18.9935484 14.9252396 20.6258065 18.2175719 21.7387097 18.8760383 19.5870968 14.5594249 21.7387097 12.6571885 20.6258065 12.071885 18.9935484 13.4619808 17.4354839 10.2428115 16.3225806 9.58434505 18.4 13.9009585 16.2483871 15.7300319"></polygon>
                        <polygon points="12.5387097 6.5115016 11.7225806 5.99936102 15.3580645 17.6322684 16.2483871 18.1444089"></polygon>
                        <polygon points="7.41935484 10.7549521 9.0516129 9.29169329 10.683871 12.5840256 11.7967742 13.242492 9.64516129 8.85271565 11.7967742 7.02364217 10.683871 6.36517572 9.0516129 7.8284345 7.41935484 4.53610224 6.38064516 3.87763578 8.45806452 8.1942492 6.30645161 10.0964856"></polygon>
                    </g>
                    <g transform="translate(124.645161, 165.348243)" fill="#EADBFF" id="Path" opacity="0.5">
                        <g>
                            <path d="M19.1419355,17.9249201 C19.1419355,12.071885 14.9870968,4.90191693 9.79354839,1.90223642 C4.6,-1.02428115 0.370967742,1.31693291 0.370967742,7.16996805 C0.370967742,13.0230032 4.52580645,20.1929712 9.71935484,23.1926518 C14.9129032,26.1191693 19.1419355,23.7779553 19.1419355,17.9249201 Z"></path>
                        </g>
                        <g transform="translate(12.612903, 7.316294)">
                            <path d="M18.9193548,17.7054313 C18.9193548,11.8523962 14.7645161,4.68242812 9.57096774,1.6827476 C4.37741935,-1.24376997 0.148387097,1.09744409 0.148387097,6.95047923 C0.148387097,12.8035144 4.30322581,19.9734824 9.49677419,22.9731629 C14.6903226,25.9728435 18.9193548,23.5584665 18.9193548,17.7054313 Z"></path>
                        </g>
                    </g>
                </g>
            </g>
        </g>
    </g>
</svg>