<?xml version="1.0" encoding="UTF-8"?>
<svg width="76px" height="56px" viewBox="0 0 76 56" version="1.1" xmlns="http://www.w3.org/2000/svg" xmlns:xlink="http://www.w3.org/1999/xlink">
    <!-- Generator: Sketch 55.1 (78136) - https://sketchapp.com -->
    <title>Group</title>
    <desc>Created with Sketch.</desc>
    <defs>
        <linearGradient x1="418.858007%" y1="821.369611%" x2="-87.8391737%" y2="-238.309894%" id="linearGradient-1">
            <stop stop-color="#3CDC7C" offset="0%"></stop>
            <stop stop-color="#95EBB1" offset="100%"></stop>
        </linearGradient>
        <linearGradient x1="457.519352%" y1="902.386219%" x2="-49.1778292%" y2="-157.293286%" id="linearGradient-2">
            <stop stop-color="#3CDC7C" offset="0%"></stop>
            <stop stop-color="#95EBB1" offset="100%"></stop>
        </linearGradient>
        <linearGradient x1="496.450667%" y1="983.403887%" x2="-10.2465142%" y2="-76.2756184%" id="linearGradient-3">
            <stop stop-color="#3CDC7C" offset="0%"></stop>
            <stop stop-color="#95EBB1" offset="100%"></stop>
        </linearGradient>
        <linearGradient x1="535.115264%" y1="1064.77138%" x2="28.418083%" y2="5.09187279%" id="linearGradient-4">
            <stop stop-color="#3CDC7C" offset="0%"></stop>
            <stop stop-color="#95EBB1" offset="100%"></stop>
        </linearGradient>
    </defs>
    <g id="💜-Symbols" stroke="none" stroke-width="1" fill="none" fill-rule="evenodd">
        <g id="illustration-/-hero" transform="translate(3.000000, -394.000000)">
            <g id="illustration" transform="translate(-9.000000, 0.000000)">
                <g id="Group" transform="translate(6.000000, 394.000000)">
                    <path d="M65.4941176,34.496 L66.0156863,41.44 L60.7254902,35.7653333 L59.5333333,39.7226667 L65.0470588,44.4266667 L61.2470588,47.1146667 C61.3215686,47.264 61.545098,47.6373333 61.9176471,48.0853333 C62.2156863,48.608 62.5882353,49.056 62.9607843,49.6533333 C63.3333333,50.176 63.7058824,50.6986667 64.0039216,51.1466667 C64.3019608,51.5946667 64.6,51.968 64.6745098,52.1173333 L67.5803922,48.16 L70.5607843,55.6266667 L74.0627451,54.656 L70.2627451,47.488 C70.4862745,47.5626667 70.8588235,47.6373333 71.3803922,47.7866667 C71.9019608,47.936 72.4235294,48.0853333 73.0196078,48.2346667 C73.5411765,48.384 74.1372549,48.5333333 74.6588235,48.6826667 C75.1803922,48.832 75.5529412,48.9813333 75.7764706,48.9813333 C75.7764706,48.832 75.7019608,48.4586667 75.5529412,48.0106667 C75.4039216,47.488 75.3294118,46.9653333 75.1803922,46.368 C75.0313725,45.7706667 74.8823529,45.248 74.8078431,44.7253333 C74.6588235,44.2026667 74.6588235,43.8293333 74.5843137,43.68 L69.2941176,43.3066667 C69.2941176,43.0826667 69.2941176,42.6346667 69.3686275,42.0373333 C69.4431373,41.44 69.5176471,40.768 69.5176471,40.1706667 C69.5921569,39.4986667 69.5921569,38.9013333 69.6666667,38.304 C69.7411765,37.7066667 69.7411765,37.2586667 69.7411765,37.0346667 L65.4941176,34.496 Z" id="Path" fill="url(#linearGradient-1)"></path>
                    <path d="M45.7490196,23.072 L46.2705882,30.016 L40.9803922,24.3413333 L39.7882353,28.2986667 L45.3019608,33.0026667 L41.5019608,35.6906667 C41.5764706,35.84 41.8,36.2133333 42.172549,36.6613333 C42.4705882,37.184 42.8431373,37.632 43.2156863,38.2293333 C43.5882353,38.752 43.9607843,39.2746667 44.2588235,39.7226667 C44.5568627,40.1706667 44.854902,40.544 44.9294118,40.6933333 L47.8352941,36.736 L50.8156863,44.2026667 L54.3176471,43.232 L50.5176471,36.064 C50.7411765,36.1386667 51.1137255,36.2133333 51.6352941,36.3626667 C52.1568627,36.512 52.6784314,36.6613333 53.2745098,36.8106667 C53.7960784,36.96 54.3921569,37.1093333 54.9137255,37.2586667 C55.4352941,37.408 55.8078431,37.5573333 56.0313725,37.5573333 C56.0313725,37.408 55.9568627,37.0346667 55.8078431,36.512 C55.7333333,35.9893333 55.5843137,35.4666667 55.4352941,34.8693333 C55.2862745,34.272 55.1372549,33.7493333 55.0627451,33.2266667 C54.9882353,32.704 54.9137255,32.4053333 54.8392157,32.1813333 L49.5490196,31.7333333 C49.5490196,31.5093333 49.5490196,31.0613333 49.6235294,30.464 C49.6980392,29.8666667 49.772549,29.1946667 49.772549,28.5973333 C49.8470588,27.9253333 49.8470588,27.328 49.9215686,26.7306667 C49.9960784,26.1333333 49.9960784,25.6853333 49.9960784,25.4613333 L45.7490196,23.072 Z" id="Path" fill="url(#linearGradient-2)"></path>
                    <path d="M25.9294118,11.648 L26.4509804,18.592 L21.1607843,12.9173333 L19.9686275,16.8746667 L25.4823529,21.5786667 L21.6823529,24.2666667 C21.7568627,24.416 21.9803922,24.7893333 22.3529412,25.2373333 C22.6509804,25.76 23.0235294,26.208 23.3960784,26.8053333 C23.7686275,27.328 24.1411765,27.8506667 24.4392157,28.2986667 C24.7372549,28.7466667 25.0352941,29.12 25.1098039,29.2693333 L28.0156863,25.312 L30.9960784,32.7786667 L34.4980392,31.808 L30.6980392,24.64 C30.9215686,24.7146667 31.2941176,24.7893333 31.8156863,24.9386667 C32.3372549,25.088 32.8588235,25.2373333 33.454902,25.3866667 C33.9764706,25.536 34.572549,25.6853333 35.0941176,25.8346667 C35.6156863,25.984 35.9882353,26.1333333 36.2117647,26.1333333 C36.2117647,25.984 36.1372549,25.6106667 35.9882353,25.1626667 C35.8392157,24.64 35.7647059,24.1173333 35.6156863,23.52 C35.4666667,22.9226667 35.3176471,22.4 35.2431373,21.8773333 C35.0941176,21.3546667 35.0941176,20.9813333 35.0196078,20.832 L29.7294118,20.384 C29.7294118,20.16 29.7294118,19.712 29.8039216,19.1146667 C29.8784314,18.5173333 29.9529412,17.8453333 29.9529412,17.248 C30.027451,16.576 30.027451,15.9786667 30.1019608,15.3813333 C30.1764706,14.784 30.1764706,14.336 30.1764706,14.112 L25.9294118,11.648 Z" id="Path" fill="url(#linearGradient-3)"></path>
                    <path d="M6.18431373,0.149333333 L6.70588235,7.09333333 L1.41568627,1.41866667 L0.223529412,5.376 L5.7372549,10.08 L1.9372549,12.768 C2.01176471,12.9173333 2.23529412,13.2906667 2.60784314,13.7386667 C2.90588235,14.2613333 3.27843137,14.7093333 3.65098039,15.3066667 C4.02352941,15.8293333 4.39607843,16.352 4.69411765,16.8 C4.99215686,17.248 5.29019608,17.6213333 5.36470588,17.7706667 L8.27058824,13.8133333 L11.2509804,21.28 L14.7529412,20.3093333 L10.9529412,13.1413333 C11.1764706,13.216 11.5490196,13.2906667 12.0705882,13.44 C12.5921569,13.5893333 13.1137255,13.7386667 13.7098039,13.888 C14.3058824,14.0373333 14.827451,14.1866667 15.3490196,14.336 C15.8705882,14.4853333 16.2431373,14.6346667 16.4666667,14.6346667 C16.4666667,14.4853333 16.3921569,14.112 16.2431373,13.5893333 C16.1686275,13.0666667 16.0196078,12.544 15.8705882,11.9466667 C15.7215686,11.3493333 15.572549,10.8266667 15.4980392,10.304 C15.3490196,9.78133333 15.3490196,9.408 15.2745098,9.25866667 L9.98431373,8.81066667 C9.98431373,8.58666667 9.98431373,8.13866667 10.0588235,7.54133333 C10.1333333,6.944 10.2078431,6.272 10.2078431,5.67466667 C10.2823529,5.00266667 10.2823529,4.40533333 10.3568627,3.808 C10.4313725,3.21066667 10.4313725,2.76266667 10.4313725,2.53866667 L6.18431373,0.149333333 Z" id="Path" fill="url(#linearGradient-4)"></path>
                </g>
            </g>
        </g>
    </g>
</svg>