<?xml version="1.0" encoding="UTF-8"?>
<svg width="171px" height="207px" viewBox="0 0 171 207" version="1.1" xmlns="http://www.w3.org/2000/svg" xmlns:xlink="http://www.w3.org/1999/xlink">
    <!-- Generator: Sketch 55.1 (78136) - https://sketchapp.com -->
    <title>Group</title>
    <desc>Created with Sketch.</desc>
    <defs>
        <linearGradient x1="-0.0303149606%" y1="50.1425197%" x2="99.9409449%" y2="50.1425197%" id="linearGradient-1">
            <stop stop-color="#3CDC7C" offset="31.75%"></stop>
            <stop stop-color="#95EBB1" offset="99.64%"></stop>
        </linearGradient>
        <linearGradient x1="100.4232%" y1="51.0227273%" x2="0.021824014%" y2="51.0227273%" id="linearGradient-2">
            <stop stop-color="#3CDC7C" offset="31.75%"></stop>
            <stop stop-color="#95EBB1" offset="99.64%"></stop>
        </linearGradient>
        <linearGradient x1="100.123446%" y1="50.1693072%" x2="0.148036456%" y2="50.1693072%" id="linearGradient-3">
            <stop stop-color="#BAEBCA" offset="76.26%"></stop>
            <stop stop-color="#CDF6D9" offset="100%"></stop>
        </linearGradient>
        <linearGradient x1="-8.82647059%" y1="409.473559%" x2="99.1617647%" y2="-249.901654%" id="linearGradient-4">
            <stop stop-color="#F64D79" offset="31.91%"></stop>
            <stop stop-color="#FA94AF" offset="100%"></stop>
        </linearGradient>
        <linearGradient x1="16.0208955%" y1="242.338146%" x2="71.6104478%" y2="-77.5535509%" id="linearGradient-5">
            <stop stop-color="#F64D79" offset="31.91%"></stop>
            <stop stop-color="#FA94AF" offset="100%"></stop>
        </linearGradient>
        <linearGradient x1="34.9104478%" y1="139.972838%" x2="58.3597015%" y2="1.5773311%" id="linearGradient-6">
            <stop stop-color="#F64D79" offset="31.91%"></stop>
            <stop stop-color="#FA94AF" offset="100%"></stop>
        </linearGradient>
        <linearGradient x1="-0.0700787402%" y1="50.1700787%" x2="99.9011811%" y2="50.1700787%" id="linearGradient-7">
            <stop stop-color="#3CDC7C" offset="31.75%"></stop>
            <stop stop-color="#95EBB1" offset="99.64%"></stop>
        </linearGradient>
        <linearGradient x1="100.383839%" y1="51.0863636%" x2="-0.0179268686%" y2="51.0863636%" id="linearGradient-8">
            <stop stop-color="#3CDC7C" offset="31.75%"></stop>
            <stop stop-color="#95EBB1" offset="99.64%"></stop>
        </linearGradient>
        <linearGradient x1="100.613988%" y1="50.1983533%" x2="0.639124181%" y2="50.1983533%" id="linearGradient-9">
            <stop stop-color="#3CDC7C" offset="31.75%"></stop>
            <stop stop-color="#95EBB1" offset="99.64%"></stop>
        </linearGradient>
        <linearGradient x1="45.601335%" y1="55.6112852%" x2="54.4198983%" y2="44.4725822%" id="linearGradient-10">
            <stop stop-color="#3CDC7C" stop-opacity="0.5" offset="0%"></stop>
            <stop stop-color="#3CDC7C" stop-opacity="0" offset="99.84%"></stop>
        </linearGradient>
    </defs>
    <g id="💜-Symbols" stroke="none" stroke-width="1" fill="none" fill-rule="evenodd">
        <g id="illustration-/-hero" transform="translate(-92.000000, -212.000000)">
            <g id="illustration" transform="translate(-9.000000, 0.000000)">
                <g id="Group" transform="translate(101.000000, 212.000000)">
                    <g transform="translate(0.000000, 58.904008)" id="Path">
                        <path d="M18.7615152,9.79279125 C18.7615152,4.63869059 14.6165293,0.441780056 9.5261957,0.441780056 C4.43586212,0.441780056 0.290876205,4.63869059 0.290876205,9.79279125 C0.290876205,14.9468919 4.43586212,19.1438024 9.5261957,19.1438024 C14.6165293,19.1438024 18.7615152,14.9468919 18.7615152,9.79279125 Z" fill="url(#linearGradient-1)"></path>
                        <path d="M0.218157154,9.20375118 C0.218157154,9.49827121 0.145438102,9.79279125 0.145438102,10.0873113 C0.145438102,10.3818313 0.218157154,10.6763514 0.290876205,10.9708714 C0.727190512,12.1489516 1.59981913,13.1061417 2.61788584,13.6951817 C4.65401928,15.0205219 7.12646702,15.535932 9.45347665,15.535932 C11.8532053,15.535932 14.252934,15.0205219 16.2890675,13.7688118 C17.3071342,13.1061417 18.2524818,12.2225816 18.6160771,11.0445014 C18.8342343,10.4554613 18.8342343,9.79279125 18.7615152,9.20375118 C18.6887962,8.6147111 18.543358,8.02567102 18.3979199,7.43663095 C18.470639,8.02567102 18.543358,8.6147111 18.543358,9.20375118 C18.543358,9.79279125 18.470639,10.3818313 18.2524818,10.8972414 C17.8161675,11.9280615 16.8708199,12.6643616 15.9254722,13.2534017 C14.9801245,13.8424418 13.8893388,14.2105918 12.798553,14.4314818 C11.7077672,14.6523719 10.5442624,14.7996319 9.45347665,14.7996319 C8.28997183,14.7996319 7.19918607,14.6523719 6.1084003,14.4314818 C5.01761453,14.2105918 3.92682876,13.7688118 2.9814811,13.2534017 C2.03613343,12.6643616 1.16350482,11.9280615 0.654471461,10.8972414 C0.509033358,10.6763514 0.436314307,10.3818313 0.436314307,10.0873113 C0.363595256,9.79279125 0.363595256,9.49827121 0.363595256,9.20375118 C0.363595256,8.6147111 0.436314307,8.02567102 0.509033358,7.43663095 C0.363595256,8.02567102 0.290876205,8.6147111 0.218157154,9.20375118 Z" fill="url(#linearGradient-2)"></path>
                        <path d="M13.6711816,18.0393523 C13.1621483,18.3338723 12.6531149,18.5547624 12.0713625,18.7756524 C12.6531149,18.6283924 13.2348673,18.4811324 13.7439007,18.2602423 C14.252934,18.0393523 14.8346864,17.6712023 15.1982817,17.2294222 C15.9981913,16.2722321 16.2890675,15.0205219 16.3617865,13.7688118 C16.4345056,11.3390214 15.634596,8.98286115 14.4710912,6.84759087 C13.2348673,4.78595061 11.6350482,2.87157037 9.45347665,1.76712023 C8.36269089,1.17808015 7.12646702,0.883560113 5.9629622,1.10445014 C5.67208599,1.17808015 5.38120979,1.25171016 5.09033358,1.39897018 C4.79945738,1.5462302 4.58130022,1.69349022 4.36314307,1.91438024 C3.85410971,2.28253029 3.41779541,2.65068034 3.05420015,3.09246039 C3.49051446,2.72431035 3.99954781,2.3561603 4.43586212,2.06164026 C4.65401928,1.91438024 4.94489548,1.76712023 5.16305263,1.69349022 C5.45392884,1.61986021 5.67208599,1.5462302 5.9629622,1.47260019 C7.05374796,1.32534017 8.14453373,1.76712023 9.0898814,2.28253029 C11.0532958,3.46061044 12.5803959,5.22773067 13.6711816,7.21574092 C14.252934,8.17293104 14.6892483,9.27738118 15.0528436,10.3082013 C15.4164388,11.4126515 15.634596,12.5171016 15.634596,13.6951817 C15.634596,14.7996319 15.4164388,15.977712 14.7619674,16.8612722 C14.6165293,17.4503122 14.180215,17.7448323 13.6711816,18.0393523 Z" fill="url(#linearGradient-3)"></path>
                        <path d="M16.2890675,15.830452 C16.8708199,15.462302 17.3798532,14.8732619 17.6707294,14.2105918 C17.8888866,13.7688118 18.0343247,13.2534017 18.0343247,12.8116216 C18.0343247,11.7071715 17.2344151,11.2653914 16.2890675,11.7808015 C15.3437198,12.3698416 14.5438102,13.6951817 14.5438102,14.7996319 C14.5438102,15.904082 15.3437198,16.4194921 16.2890675,15.830452 Z" fill="#95EBB1"></path>
                        <path d="M15.9981913,15.388672 C15.4891579,15.683192 14.9801245,15.683192 14.6892483,15.462302 C14.9801245,16.051342 15.561877,16.1986021 16.2890675,15.830452 C16.8708199,15.462302 17.3798532,14.8732619 17.6707294,14.2105918 C17.8888866,13.7688118 18.0343247,13.2534017 18.0343247,12.8116216 C18.0343247,12.2962116 17.8888866,11.9280615 17.5980104,11.7071715 C17.6707294,11.9280615 17.7434485,12.1489516 17.7434485,12.3698416 C17.7434485,12.8116216 17.5980104,13.3270317 17.3798532,13.7688118 C17.088977,14.4314818 16.5799437,15.0941519 15.9981913,15.388672 Z" fill="#21934F"></path>
                    </g>
                    <g opacity="0.35" transform="translate(38.541097, 0.000000)" fill="#190C3A" id="Path">
                        <g transform="translate(87.990052, 80.256710)">
                            <path d="M7.19918607,71.1265891 L7.34462417,16.9349022 C7.34462417,11.8544315 6.61743366,6.47944083 5.23577168,0.957190122 L0.654471461,0.147260019 C1.89069533,5.00684064 2.54516679,9.64553123 2.54516679,14.0633318 L2.39972869,68.2550187 L7.19918607,71.1265891 Z"></path>
                        </g>
                        <g transform="translate(29.087620, 80.993010)">
                            <polygon points="0.654471461 0.294520038 0.654471461 10.2345713 5.52664789 13.1061417 5.52664789 3.1660904"></polygon>
                        </g>
                        <g transform="translate(29.087620, 138.424418)">
                            <polygon points="0.509033358 0.0736300094 0.436314307 13.1797717 5.38120979 15.977712 5.38120979 2.94520038"></polygon>
                        </g>
                        <g transform="translate(9.453477, 92.037512)">
                            <polygon points="0.654471461 0.220890028 0.509033358 48.0803961 5.45392884 50.9519665 5.59936694 3.09246039"></polygon>
                        </g>
                        <g transform="translate(19.634144, 117.071715)">
                            <polygon points="0.218157154 0 0.145438102 28.7893337 5.01761453 31.660904 5.09033358 2.79794036"></polygon>
                        </g>
                        <g transform="translate(19.634144, 96.455312)">
                            <polygon points="0.290876205 0.515410066 0.218157154 10.4554613 5.09033358 13.3270317 5.16305263 3.38698043"></polygon>
                        </g>
                        <g>
                            <polygon points="29.6693729 117.808015 29.5966538 130.693267 34.4688303 133.564837 34.5415493 120.679585"></polygon>
                            <polygon points="39.4137257 128.189846 39.3410067 141.737768 44.2859022 144.609338 44.2859022 131.061417"></polygon>
                            <polygon points="10.2533862 59.8611976 10.1806672 79.8149302 15.0528436 82.6128705 15.1255626 62.732768"></polygon>
                            <polygon points="60.9385649 147.186389 60.7931268 169.864432 65.7380223 172.736002 65.8107413 149.984329"></polygon>
                            <polygon points="61.0112839 116.998085 60.9385649 136.141887 65.8107413 139.013458 65.8834604 119.869655"></polygon>
                            <polygon points="49.3035167 96.0871623 49.0853595 163.016841 53.957536 165.888411 54.1756931 98.9587326"></polygon>
                            <polygon points="70.7556368 130.251487 70.6101987 175.607572 75.4823751 178.405513 75.6278132 133.123057"></polygon>
                            <polygon points="90.2443425 154.99117 90.1716235 187.020224 95.0437999 189.891794 95.1165189 157.86274"></polygon>
                            <path d="M29.9602491,38.7293849 L25.8152632,33.2807642 C22.0338725,38.0667149 20.0704581,44.9143057 20.0704581,53.1608668 L19.9977391,85.4844409 L24.8699155,88.3560113 L24.9426346,56.0324372 C24.9426346,48.8903262 26.6878918,42.9262955 29.9602491,38.7293849 Z"></path>
                            <path d="M65.8834604,112.359394 L65.9561794,80.0358202 C65.9561794,74.7344595 62.2475078,68.1813887 57.6662076,65.5307084 C53.0849074,62.880028 49.3762357,65.0152983 49.3035167,70.316659 L49.3035167,82.6128705 L54.1756931,85.4844409 L54.1756931,73.1882293 C54.1756931,70.9793291 55.7027932,70.0957689 57.5934885,71.2002191 C59.4841839,72.3046692 61.0112839,75.0289796 61.0112839,77.1642499 L60.9385649,109.487824 L65.8834604,112.359394 Z"></path>
                            <polygon points="70.9010749 82.9073906 70.7556368 115.230965 75.6278132 118.102535 75.7732513 85.778961"></polygon>
                            <path d="M57.7389266,59.8611976 C59.5569029,60.8920178 61.2294411,62.290988 62.9019793,64.0581082 L64.7926746,59.9348277 C62.538384,57.5050373 60.2113744,55.5906571 57.7389266,54.1916869 C47.7764166,48.3749162 39.6318829,53.0872368 39.5591638,64.6471483 L39.4137257,118.397055 L44.2859022,121.268625 L44.4313403,67.5187186 C44.5040593,58.9776375 50.4670215,55.5906571 57.7389266,59.8611976 Z"></path>
                            <path d="M85.3721661,148.806249 L85.5179197,91.4484717 C85.5903232,73.5563794 73.0826464,51.6882666 57.7389266,42.7054055 C42.3952068,33.7225443 29.814811,40.9382852 29.814811,58.8303775 L29.814811,67.8868687 L34.6869874,70.758439 L34.6869874,61.7019479 C34.7597065,46.975946 45.0858117,41.0119152 57.7389266,48.3749162 C70.3920415,55.8115471 80.6454278,73.7772694 80.6454278,88.5032713 L80.4999897,145.861049 L85.3721661,148.806249 Z"></path>
                            <path d="M31.269192,20.9845527 C34.1779541,20.0273626 37.3775923,19.6592125 40.7226687,19.8801025 C42.0316116,19.9537325 43.3405545,20.1746226 44.7222165,20.4691426 C48.9399214,21.3527027 53.3030645,23.119823 57.7389266,25.6968733 L57.7389266,20.0273626 C52.7940312,17.1557922 47.9218547,15.1677819 43.1951164,14.2105918 C41.6680163,13.9160718 40.1409162,13.6951817 38.6865352,13.5479217 C34.9051446,13.2534017 31.3419111,13.6951817 28.1422728,14.7996319 C20.4340534,17.4503122 14.9074055,23.708863 12.0713625,33.0598742 L16.7253818,37.4040448 C19.4159867,29.0102237 24.4336012,23.340713 31.269192,20.9845527 Z"></path>
                            <path d="M80.4272706,60.8920178 L83.845066,58.7567475 C76.8640371,46.828686 67.6287176,37.1095247 57.8843647,31.366384 C53.5939407,28.8629637 49.3035167,27.2431035 45.3039689,26.5068034 L46.903788,32.8389842 C50.3943025,33.4280243 54.1029741,34.9006245 57.8116457,37.0358947 C66.2470556,42.0427354 74.3188703,50.5101864 80.4272706,60.8920178 Z"></path>
                            <path d="M79.7000801,39.023905 L77.4457895,42.7790355 C91.5532854,59.6403076 100.279572,81.5820504 100.206853,100.063183 L105.079029,102.934753 C105.151748,82.2447205 95.4073951,57.7995574 79.7000801,39.023905 Z"></path>
                            <path d="M114.605225,201.304446 L114.896256,108.604264 C114.96882,71.9365192 89.4444329,27.0958435 57.8843647,8.6147111 C26.3242965,-9.79279125 0.581752409,5.00684064 0.509033358,41.7482153 L0.218157154,134.448397 L5.09033358,137.319968 L5.38120979,44.6197857 C5.45392884,11.0445014 29.0149014,-2.50342032 57.8843647,14.3578518 C86.7538281,31.219124 110.096643,72.2310392 110.023924,105.806324 L109.733048,198.506505 L114.605225,201.304446 Z"></path>
                        </g>
                        <g transform="translate(99.625100, 125.171016)">
                            <polygon points="0.509033358 0.662670085 0.363595256 49.4057363 5.23577168 52.2773067 5.38120979 3.46061044"></polygon>
                        </g>
                        <g transform="translate(79.990956, 158.304520)">
                            <polygon points="0.436314307 0.294520038 0.363595256 22.9725629 5.30849074 25.8441333 5.38120979 3.1660904"></polygon>
                        </g>
                    </g>
                    <g transform="translate(15.271001, 5.890401)" id="Path">
                        <path d="M106.460691,127.968956 L106.53341,96.6025723 C106.53341,91.5221017 105.806219,86.147111 104.424557,80.6248603 L99.8432573,79.8149302 C101.079481,84.6745108 101.733953,89.3132014 101.733953,93.731002 L101.661234,125.171016 L106.460691,127.968956 Z" fill="#3CDC7C"></path>
                        <g transform="translate(40.722669, 80.256710)">
                            <polygon fill="url(#linearGradient-4)" points="0.218157154 10.0873113 0.218157154 10.3082013 5.16305263 13.1797717 5.16305263 12.8852516"></polygon>
                            <polygon fill="#3CDC7C" points="0.290876205 0.368150047 0.218157154 10.0873113 5.16305263 12.8852516 5.16305263 3.23972041"></polygon>
                        </g>
                        <g>
                            <g transform="translate(21.088525, 58.904008)">
                                <polygon fill="#3CDC7C" points="5.30849074 3.23972041 0.363595256 0.368150047 0.363595256 20.2482526 0.363595256 20.2482526 5.23577168 23.0461929"></polygon>
                                <polygon fill="url(#linearGradient-5)" points="0.363595256 20.2482526 5.23577168 23.119823 5.23577168 23.0461929"></polygon>
                            </g>
                            <polygon fill="#3CDC7C" points="60.5749696 95.4244922 60.5749696 101.609413 65.4471461 104.407353 65.4471461 98.2960625"></polygon>
                            <g transform="translate(30.542001, 32.397204)">
                                <polygon fill="url(#linearGradient-6)" points="0.654471461 52.3509367 0.654471461 52.4981967 5.52664789 55.2961371 5.52664789 55.148877"></polygon>
                                <path d="M10.6897005,5.74314073 L6.54471461,0.294520038 C2.76332394,5.08047065 0.799909563,11.9280615 0.799909563,20.1746226 L0.727190512,52.4245667 L5.59936694,55.2225071 L5.67208599,23.0461929 C5.67208599,15.830452 7.41734322,9.86642126 10.6897005,5.74314073 Z" fill="#3CDC7C"></path>
                            </g>
                            <path d="M77.1549133,111.107684 L77.2276323,79.3731501 C77.2276323,74.0717895 73.5189607,67.5187186 68.9376605,64.8680383 C64.3563603,62.2173579 60.6476887,64.3526282 60.5749696,69.6539889 L60.5749696,81.9502005 L65.4471461,84.8217708 L65.4471461,72.5255593 C65.4471461,70.316659 66.9742461,69.4330989 68.8649415,70.537549 C70.7556368,71.6419991 72.2827369,74.3663095 72.2827369,76.5015798 L72.2100178,108.309744 L77.1549133,111.107684 Z" fill="#3CDC7C"></path>
                            <g transform="translate(0.000000, 65.530708)" fill="#3CDC7C">
                                <polygon points="82.1725278 16.7140121 82.0270897 48.3749162 86.8992662 51.1728565 87.0447043 19.5855825"></polygon>
                                <path d="M137.439007,81.7293104 C137.293569,81.7293104 137.22085,81.7293104 137.075411,81.6556804 L0.727190512,1.91438024 C0.363595256,1.69349022 0.290876205,1.25171016 0.436314307,0.883560113 C0.654471461,0.515410066 1.09078577,0.441780056 1.45438102,0.589040075 L137.802602,80.3303403 C138.166197,80.5512303 138.238916,80.9930103 138.093478,81.3611604 C137.94804,81.5820504 137.657164,81.7293104 137.439007,81.7293104 Z"></path>
                            </g>
                            <path d="M69.0103796,59.1985276 C70.8283558,60.2293477 72.500894,61.6283179 74.1734322,63.3954381 L76.0641275,59.2721576 C73.8098369,56.8423673 71.4828273,54.927987 69.0103796,53.5290168 C59.0478696,47.7122461 50.9033358,52.4245667 50.8306168,63.9844782 L50.7578977,96.0135323 L55.6300741,98.8114726 L55.7027932,66.8560485 C55.7755123,58.3885975 61.7384744,54.927987 69.0103796,59.1985276 Z" fill="#3CDC7C"></path>
                            <path d="M96.7163381,122.373076 L96.7893726,90.8594316 C96.8617762,72.9673393 84.3540994,51.0992265 69.0103796,42.1163654 C53.6666598,33.1335042 41.0862639,40.3492452 41.0862639,58.2413374 L41.0862639,67.2978286 L45.9584403,70.169399 L45.9584403,61.1129078 C46.0311594,46.3869059 56.3572647,40.4228752 69.0103796,47.7858761 C81.6634945,55.2225071 91.9168807,73.1882293 91.9168807,87.9142312 L91.8441616,119.501505 L96.7163381,122.373076 Z" fill="#3CDC7C"></path>
                            <path d="M42.5406449,20.3218826 C45.449407,19.3646925 48.6490452,18.9965424 51.9941216,19.2174325 C53.3030645,19.2910625 54.6120074,19.5119525 55.9936694,19.8064725 C60.2113744,20.6900326 64.5745174,22.4571529 69.0103796,25.0342032 L69.0103796,19.3646925 C64.0654841,16.4931221 59.1933077,14.5051119 54.4665693,13.5479217 C52.9394693,13.2534017 51.4123692,13.0325117 49.9579882,12.8852516 C46.1765975,12.5907316 42.613364,13.0325117 39.4137257,14.1369618 C31.7055063,16.7876421 26.1788584,23.0461929 23.3428154,32.3972041 L27.9968347,36.7413747 C30.6874396,28.3475536 35.6323351,22.6780429 42.5406449,20.3218826 Z" fill="#3CDC7C"></path>
                            <path d="M91.6987235,60.2293477 L95.1165189,58.0940774 C88.13549,46.1660159 78.9001705,36.4468547 69.1558177,30.7037139 C64.8653936,28.2002936 60.5749696,26.5804334 56.5754218,25.8441333 L58.1752409,32.1763141 C61.6657554,32.7653542 65.374427,34.2379544 69.0830986,36.3732246 C77.5185086,41.3800653 85.5903232,49.8475164 91.6987235,60.2293477 Z" fill="#3CDC7C"></path>
                            <path d="M90.971533,38.3612349 L88.7172424,42.1163654 C102.824738,58.9776375 111.551025,80.9193803 111.478305,99.4005127 L116.350482,102.272083 C116.423201,81.5820504 106.678848,57.1368873 90.971533,38.3612349 Z" fill="#3CDC7C"></path>
                            <path d="M126.022116,139.160718 L126.09499,107.941594 C126.167554,71.2738491 100.643167,26.4331734 69.0830986,7.95204102 C37.5230304,-10.4554613 11.7804863,4.34417055 11.7077672,41.0855452 L11.6350482,73.5563794 L16.5072246,76.3543197 L16.5799437,43.9571156 C16.6526627,10.3818313 40.2136353,-3.1660904 69.0830986,13.6951817 C97.9525619,30.5564539 121.295377,71.5683691 121.222658,105.143653 L121.149939,136.362777 L126.022116,139.160718 Z" fill="#3CDC7C"></path>
                        </g>
                        <polygon fill="#3CDC7C" points="111.405586 125.171016 111.405586 130.766897 116.277763 133.564837 116.277763 128.042586"></polygon>
                    </g>
                    <g opacity="0.3" transform="translate(26.178858, 78.784110)" fill="#3CDC7C" id="Path">
                        <g>
                            <polygon points="90.6806568 52.2773067 90.6079378 75.0289796 95.5528332 77.9005499 95.5528332 55.075247"></polygon>
                            <polygon points="29.9602491 64.9416683 29.88753 78.04781 34.7597065 80.9193803 34.8324255 67.8132387"></polygon>
                            <polygon points="10.4715434 18.7756524 10.3261053 66.6351585 15.2710007 69.5067289 15.3437198 21.6472228"></polygon>
                            <polygon points="20.2158962 43.5153356 20.1431772 72.3046692 25.0153536 75.1762396 25.0880727 46.3869059"></polygon>
                            <polygon points="20.2886153 23.414343 20.2158962 33.4280243 25.0880727 36.2995946 25.1607917 26.2859134"></polygon>
                            <polygon points="30.0329681 44.3252657 29.9602491 57.2105173 34.8324255 60.0820877 34.9051446 47.196836"></polygon>
                            <polygon points="39.777321 54.707097 39.7046019 68.1813887 44.6494974 71.0529591 44.6494974 57.5050373"></polygon>
                            <polygon points="61.2294411 73.6300094 61.156722 96.3080523 66.1016175 99.1796227 66.1743366 76.5015798"></polygon>
                            <polygon points="61.3748792 43.5153356 61.3021601 62.585508 66.1743366 65.4570784 66.2470556 46.3869059"></polygon>
                            <polygon points="49.667112 28.7157037 49.4489548 89.4604614 54.3211312 92.3320318 54.5392884 31.513644"></polygon>
                            <polygon points="71.119232 56.6951072 70.9737939 102.051193 75.8459704 104.922763 75.9914085 59.5666776"></polygon>
                            <polygon points="90.6079378 81.4347904 90.5352187 113.463844 95.4073951 116.335415 95.4801142 84.3063608"></polygon>
                            <polygon points="39.85004 23.119823 39.777321 44.8406757 44.6494974 47.7122461 44.7222165 25.9177633"></polygon>
                            <polygon points="80.936304 46.681426 80.8635849 72.4519292 85.7357613 75.2498696 85.8084804 49.4793663"></polygon>
                            <polygon points="0.727190512 0.662670085 0.581752409 60.8920178 5.45392884 63.7635881 5.67208599 3.46061044"></polygon>
                            <polygon points="110.242082 63.4690681 110.096643 124.950126 114.96882 127.748066 115.114258 66.2670085"></polygon>
                            <polygon points="100.497729 57.8731874 100.352291 101.020373 105.224467 103.891943 105.369905 60.6711277"></polygon>
                            <polygon points="80.7908659 85.0426609 80.7181468 107.794334 85.6630423 110.665904 85.7357613 87.9142312"></polygon>
                        </g>
                    </g>
                    <g transform="translate(151.982817, 145.787419)" id="Path">
                        <path d="M18.7615152,9.4246412 C18.7615152,4.27054055 14.6165293,0.0736300094 9.5261957,0.0736300094 C4.43586212,0.0736300094 0.290876205,4.27054055 0.290876205,9.4246412 C0.290876205,14.5787419 4.43586212,18.7756524 9.5261957,18.7756524 C14.6165293,18.7756524 18.7615152,14.6523719 18.7615152,9.4246412 Z" fill="url(#linearGradient-7)"></path>
                        <path d="M0.218157154,8.83560113 C0.218157154,9.13012117 0.145438102,9.4246412 0.145438102,9.71916124 C0.145438102,10.0136813 0.218157154,10.3082013 0.290876205,10.6027214 C0.727190512,11.7808015 1.59981913,12.7379916 2.61788584,13.3270317 C4.65401928,14.6523719 7.12646702,15.1677819 9.45347665,15.1677819 C11.8532053,15.1677819 14.252934,14.6523719 16.2890675,13.4006617 C17.3071342,12.7379916 18.2524818,11.8544315 18.6160771,10.6763514 C18.8342343,10.0873113 18.8342343,9.4246412 18.7615152,8.83560113 C18.6887962,8.24656105 18.543358,7.65752098 18.3979199,7.0684809 C18.470639,7.65752098 18.543358,8.24656105 18.543358,8.83560113 C18.543358,9.4246412 18.470639,10.0136813 18.2524818,10.5290913 C17.8161675,11.5599115 16.8708199,12.2962116 15.9254722,12.8852516 C14.9801245,13.4742917 13.8893388,13.8424418 12.798553,14.0633318 C11.7077672,14.2842218 10.5442624,14.4314818 9.45347665,14.4314818 C8.28997183,14.4314818 7.19918607,14.2842218 6.1084003,14.0633318 C5.01761453,13.8424418 3.92682876,13.4006617 2.9814811,12.8852516 C2.03613343,12.2962116 1.16350482,11.5599115 0.654471461,10.5290913 C0.509033358,10.3082013 0.436314307,10.0136813 0.436314307,9.71916124 C0.363595256,9.4246412 0.363595256,9.13012117 0.363595256,8.83560113 C0.363595256,8.24656105 0.436314307,7.65752098 0.509033358,7.0684809 C0.363595256,7.73115099 0.290876205,8.24656105 0.218157154,8.83560113 Z" fill="url(#linearGradient-8)"></path>
                        <path d="M13.5984626,17.6712023 C13.0894292,17.9657223 12.5803959,18.1866123 11.9986434,18.4075024 C12.5803959,18.2602423 13.1621483,18.1129823 13.6711816,17.8920923 C14.180215,17.6712023 14.7619674,17.3030522 15.1255626,16.8612722 C15.9254722,15.904082 16.2163484,14.6523719 16.2890675,13.4006617 C16.3617865,10.9708714 15.561877,8.6147111 14.3983721,6.47944083 C13.1621483,4.41780056 11.5623291,2.50342032 9.3807576,1.39897018 C8.28997183,0.809930103 7.05374796,0.515410066 5.89024315,0.736300094 C5.59936694,0.809930103 5.30849074,0.883560113 5.01761453,1.03082013 C4.72673833,1.17808015 4.50858117,1.32534017 4.29042402,1.5462302 C3.78139066,1.91438024 3.34507635,2.28253029 2.9814811,2.72431035 C3.41779541,2.3561603 3.92682876,1.98801025 4.36314307,1.69349022 C4.58130022,1.5462302 4.87217643,1.39897018 5.09033358,1.32534017 C5.38120979,1.25171016 5.59936694,1.17808015 5.89024315,1.10445014 C6.98102891,0.957190122 8.07181468,1.39897018 9.01716235,1.91438024 C10.9805767,3.09246039 12.5076768,4.85958062 13.5984626,6.84759087 C14.180215,7.804781 14.6165293,8.90923114 14.9801245,9.94005127 C15.3437198,11.0445014 15.561877,12.1489516 15.561877,13.3270317 C15.561877,14.4314818 15.3437198,15.609562 14.6892483,16.4931221 C14.6165293,17.0821622 14.1074959,17.3766822 13.5984626,17.6712023 Z" fill="url(#linearGradient-9)"></path>
                    </g>
                    <polygon id="Path" fill="url(#linearGradient-10)" points="141.293116 145.051119 141.293116 119.796025 26.978768 56.9159973 26.9060489 79.4467801"></polygon>
                </g>
            </g>
        </g>
    </g>
</svg>