<?xml version="1.0" encoding="UTF-8"?>
<svg width="76px" height="85px" viewBox="0 0 76 85" version="1.1" xmlns="http://www.w3.org/2000/svg" xmlns:xlink="http://www.w3.org/1999/xlink">
    <!-- Generator: Sketch 55.1 (78136) - https://sketchapp.com -->
    <title>Group</title>
    <desc>Created with Sketch.</desc>
    <defs>
        <linearGradient x1="-0.021875%" y1="49.9817001%" x2="100.00332%" y2="49.9817001%" id="linearGradient-1">
            <stop stop-color="#3CDC7C" offset="0%"></stop>
            <stop stop-color="#95EBB1" offset="100%"></stop>
        </linearGradient>
    </defs>
    <g id="💜-Symbols" stroke="none" stroke-width="1" fill="none" fill-rule="evenodd">
        <g id="illustration-/-hero" transform="translate(-3.000000, -125.000000)">
            <g id="illustration" transform="translate(-9.000000, 0.000000)">
                <g id="Group" transform="translate(12.000000, 50.000000)">
                    <g transform="translate(0.000000, 74.829694)">
                        <path d="M69.3579545,83.5598253 C72.8295455,85.5406114 75.7102273,83.9266376 75.7102273,79.9650655 L75.7840909,48.419214 C75.7840909,44.4576419 72.9772727,39.5423581 69.5056818,37.5615721 L6.57386364,1.46724891 C3.10227273,-0.513537118 0.221590909,1.10043668 0.221590909,5.06200873 L0.147727273,36.6078603 C0.147727273,40.5694323 2.95454545,45.4847162 6.42613636,47.4655022 L69.3579545,83.5598253 Z" id="Path" fill="url(#linearGradient-1)"></path>
                        <polygon id="Path" fill="#F7F3FF" points="65.4431818 62.0646288 20.3125 36.1676856 20.2386364 45.5580786 65.4431818 71.5283843"></polygon>
                        <g transform="translate(9.602273, 15.406114)" fill="#F7F3FF">
                            <g id="Path">
                                <path d="M5.17045455,3.30131004 C5.17045455,2.34759825 4.50568182,1.17379913 3.61931818,0.660262009 C2.73295455,0.146724891 2.06818182,0.586899563 2.06818182,1.54061135 C2.06818182,2.49432314 2.73295455,3.66812227 3.61931818,4.18165939 C4.50568182,4.69519651 5.17045455,4.25502183 5.17045455,3.30131004 Z"></path>
                                <path d="M4.94886364,10.8576419 C6.27840909,11.5912664 7.09090909,10.3441048 6.27840909,8.65676856 L5.53977273,7.04279476 C5.09659091,6.01572052 4.35795455,5.28209607 3.69318182,4.8419214 C2.95454545,4.40174672 2.28977273,4.40174672 1.77272727,4.8419214 L1.03409091,5.57554585 C0.221590909,6.38253275 1.03409091,8.51004367 2.36363636,9.31703057 L4.94886364,10.8576419 Z"></path>
                            </g>
                            <path d="M3.61931818,16.6532751 C2.4375,15.9930131 1.40340909,16.5065502 1.40340909,17.9004367 L1.40340909,19.0742358 C0.960227273,18.8541485 0.664772727,19.0742358 0.664772727,19.5877729 L0.664772727,23.4026201 C0.664772727,23.9895197 1.03409091,24.6497817 1.55113636,24.869869 L5.6875,27.2908297 C6.13068182,27.5842795 6.57386364,27.3641921 6.57386364,26.7772926 L6.57386364,22.9624454 C6.57386364,22.4489083 6.20454545,21.8620087 5.83522727,21.568559 L5.83522727,20.3947598 C5.76136364,19.0742358 4.80113636,17.3868996 3.61931818,16.6532751 Z M4.50568182,20.8349345 L2.65909091,19.8078603 L2.65909091,18.6340611 C2.65909091,18.0471616 3.10227273,17.8270742 3.54545455,18.120524 C4.0625,18.4139738 4.43181818,19.1475983 4.43181818,19.6611354 L4.50568182,20.8349345 Z" id="Shape" fill-rule="nonzero"></path>
                        </g>
                        <polygon id="Path" fill="#F7F3FF" points="65.5170455 46.0716157 20.3125 20.1746725 20.3125 29.5650655 65.5170455 55.4620087"></polygon>
                        <g transform="translate(28.806818, 28.611354)" fill="#190C3A" id="Path">
                            <path d="M25.4090909,17.3868996 C26.2215909,17.8270742 26.8863636,17.460262 26.8863636,16.5065502 C26.8863636,15.5528384 26.2215909,14.3790393 25.4090909,13.9388646 C24.5965909,13.4253275 23.9318182,13.8655022 23.8579545,14.819214 C23.8579545,15.7729258 24.5227273,16.8733624 25.4090909,17.3868996 Z"></path>
                            <path d="M9.23295455,6.38253275 C9.23295455,5.42882096 8.56818182,4.25502183 7.75568182,3.81484716 C6.94318182,3.30131004 6.27840909,3.74148472 6.27840909,4.69519651 C6.27840909,5.6489083 6.94318182,6.82270742 7.75568182,7.2628821 C8.56818182,7.70305677 9.23295455,7.33624454 9.23295455,6.38253275 Z"></path>
                            <path d="M15.1420455,9.75720524 C15.1420455,8.80349345 14.4772727,7.62969432 13.6647727,7.18951965 C12.8522727,6.67598253 12.1875,7.11615721 12.1136364,8.069869 C12.1136364,9.02358079 12.7784091,10.1973799 13.5909091,10.6375546 C14.4034091,11.0777293 15.0681818,10.710917 15.1420455,9.75720524 Z"></path>
                            <path d="M20.9772727,13.1318777 C20.9772727,12.1781659 20.3125,11.0043668 19.5,10.5641921 C18.6875,10.050655 18.0227273,10.4908297 17.9488636,11.4445415 C17.9488636,12.3982533 18.6136364,13.5720524 19.4261364,14.0122271 C20.3125,14.4524017 20.9772727,14.0855895 20.9772727,13.1318777 Z"></path>
                            <path d="M3.32386364,19.0742358 C3.32386364,18.120524 2.65909091,16.9467249 1.84659091,16.5065502 C1.03409091,16.0663755 0.369318182,16.4331878 0.369318182,17.3868996 C0.369318182,18.3406114 1.03409091,19.5144105 1.84659091,19.9545852 C2.58522727,20.3947598 3.32386364,20.0279476 3.32386364,19.0742358 Z"></path>
                            <path d="M9.15909091,22.4489083 C9.15909091,21.4951965 8.49431818,20.3213974 7.68181818,19.8812227 C6.86931818,19.441048 6.20454545,19.8078603 6.20454545,20.7615721 C6.20454545,21.7152838 6.86931818,22.889083 7.68181818,23.3292576 C8.49431818,23.7694323 9.15909091,23.4026201 9.15909091,22.4489083 Z"></path>
                            <path d="M15.0681818,25.8235808 C15.0681818,24.869869 14.4034091,23.6960699 13.5909091,23.2558952 C12.7784091,22.7423581 12.1136364,23.1825328 12.0397727,24.1362445 C12.0397727,25.0899563 12.7045455,26.2637555 13.5170455,26.7039301 C14.4034091,27.1441048 15.0681818,26.7772926 15.0681818,25.8235808 Z"></path>
                            <path d="M20.9772727,29.1982533 C20.9772727,28.2445415 20.3125,27.0707424 19.5,26.6305677 C18.6875,26.1170306 18.0227273,26.5572052 17.9488636,27.510917 C17.9488636,28.4646288 18.6136364,29.6384279 19.4261364,30.0786026 C20.2386364,30.5187773 20.9772727,30.1519651 20.9772727,29.1982533 Z"></path>
                            <path d="M25.3352273,33.3799127 C26.1477273,33.8200873 26.8125,33.4532751 26.8125,32.4995633 C26.8125,31.5458515 26.1477273,30.3720524 25.3352273,29.9318777 C24.5227273,29.4183406 23.8579545,29.8585153 23.7840909,30.8122271 C23.8579545,31.7659389 24.5227273,32.939738 25.3352273,33.3799127 Z"></path>
                            <path d="M3.32386364,3.00786026 C3.32386364,2.05414847 2.65909091,0.880349345 1.84659091,0.440174672 C1.03409091,0 0.369318182,0.366812227 0.369318182,1.32052402 C0.369318182,2.27423581 1.03409091,3.44803493 1.84659091,3.88820961 C2.65909091,4.32838428 3.32386364,3.96157205 3.32386364,3.00786026 Z"></path>
                        </g>
                    </g>
                </g>
            </g>
        </g>
    </g>
</svg>