<?xml version="1.0" encoding="UTF-8"?>
<svg width="52px" height="67px" viewBox="0 0 52 67" version="1.1" xmlns="http://www.w3.org/2000/svg" xmlns:xlink="http://www.w3.org/1999/xlink">
    <!-- Generator: Sketch 55.1 (78136) - https://sketchapp.com -->
    <title>Group</title>
    <desc>Created with Sketch.</desc>
    <defs>
        <linearGradient x1="100.012069%" y1="50.7861111%" x2="0.698275862%" y2="50.7861111%" id="linearGradient-1">
            <stop stop-color="#360F59" offset="0.2852183%"></stop>
            <stop stop-color="#962BF0" offset="99.82%"></stop>
        </linearGradient>
        <linearGradient x1="100.775294%" y1="49.7529412%" x2="0.475294118%" y2="49.7529412%" id="linearGradient-2">
            <stop stop-color="#360F59" offset="0.2852183%"></stop>
            <stop stop-color="#962BF0" offset="99.82%"></stop>
        </linearGradient>
        <linearGradient x1="71.9266548%" y1="-21.2094565%" x2="34.2861897%" y2="53.3397826%" id="linearGradient-3">
            <stop stop-color="#360F59" offset="0.2852183%"></stop>
            <stop stop-color="#962BF0" offset="99.82%"></stop>
        </linearGradient>
        <linearGradient x1="94.3943077%" y1="68.9139759%" x2="24.8887494%" y2="39.3904936%" id="linearGradient-4">
            <stop stop-color="#360F59" offset="0.2852183%"></stop>
            <stop stop-color="#962BF0" offset="99.82%"></stop>
        </linearGradient>
    </defs>
    <g id="💜-Symbols" stroke="none" stroke-width="1" fill="none" fill-rule="evenodd">
        <g id="illustration-/-hero" transform="translate(9.000000, -227.000000)">
            <g id="illustration" transform="translate(-9.000000, 0.000000)">
                <g id="Group" transform="translate(0.000000, 227.000000)">
                    <g id="Path">
                        <g transform="translate(32.685714, 46.827957)">
                            <path d="M4.53142857,2.73763441 L0.371428571,0.432258065 C0.445714286,0.504301075 0.445714286,0.648387097 0.52,0.720430108 L4.68,3.02580645 C4.60571429,2.95376344 4.60571429,2.88172043 4.53142857,2.73763441" fill="url(#linearGradient-1)"></path>
                            <path d="M0.52,0.720430108 L0.52,0.720430108 C0.52,0.648387097 0.445714286,0.504301075 0.371428571,0.432258065 L4.53142857,2.73763441 C4.60571429,2.95376344 4.75428571,3.16989247 4.82857143,3.38602151 C4.90285714,3.45806452 4.90285714,3.53010753 4.97714286,3.60215054 C5.12571429,3.81827957 5.27428571,4.0344086 5.42285714,4.17849462 C5.42285714,4.25053763 5.49714286,4.25053763 5.49714286,4.32258065 C5.64571429,4.46666667 5.79428571,4.61075269 5.94285714,4.75483871 C6.01714286,4.82688172 6.01714286,4.82688172 6.09142857,4.89892473 C6.31428571,5.04301075 6.46285714,5.18709677 6.68571429,5.3311828 L2.52571429,3.02580645 C2.30285714,2.88172043 2.08,2.73763441 1.93142857,2.59354839 C1.85714286,2.52150538 1.85714286,2.52150538 1.78285714,2.44946237 C1.63428571,2.30537634 1.48571429,2.16129032 1.33714286,2.0172043 C1.33714286,1.94516129 1.26285714,1.94516129 1.26285714,1.87311828 C1.11428571,1.72903226 0.965714286,1.51290323 0.891428571,1.3688172 C0.891428571,1.3688172 0.891428571,1.29677419 0.817142857,1.29677419 C0.742857143,1.22473118 0.742857143,1.15268817 0.668571429,1.08064516 C0.668571429,0.93655914 0.594285714,0.864516129 0.52,0.720430108 Z" fill="url(#linearGradient-2)"></path>
                        </g>
                        <path d="M0.371428571,28.2408602 C0.371428571,28.1688172 0.371428571,28.1688172 0.371428571,28.0967742 C0.371428571,28.0247312 0.371428571,28.0247312 0.371428571,27.9526882 C0.371428571,27.8806452 0.371428571,27.8806452 0.371428571,27.8086022 C0.371428571,27.7365591 0.371428571,27.7365591 0.371428571,27.6645161 C0.371428571,27.6645161 0.371428571,27.6645161 0.371428571,27.6645161 C0.371428571,27.6645161 0.371428571,27.6645161 0.371428571,27.6645161 C0.371428571,27.5924731 0.371428571,27.5924731 0.371428571,27.5204301 C0.371428571,27.4483871 0.371428571,27.4483871 0.371428571,27.3763441 C0.371428571,27.3043011 0.371428571,27.3043011 0.371428571,27.2322581 C0.371428571,27.1602151 0.371428571,27.1602151 0.445714286,27.088172 C0.445714286,27.016129 0.445714286,27.016129 0.445714286,26.944086 C0.445714286,26.944086 0.445714286,26.944086 0.445714286,26.944086 C0.445714286,26.944086 0.445714286,26.944086 0.445714286,26.944086 C0.445714286,26.872043 0.445714286,26.872043 0.52,26.8 C0.52,26.727957 0.52,26.727957 0.594285714,26.655914 C0.594285714,26.583871 0.594285714,26.583871 0.668571429,26.511828 C0.742857143,26.4397849 0.668571429,26.4397849 0.742857143,26.3677419 C0.742857143,26.3677419 0.742857143,26.2956989 0.817142857,26.2956989 C0.817142857,26.2956989 0.817142857,26.2956989 0.817142857,26.2956989 C0.817142857,26.2956989 0.817142857,26.2956989 0.817142857,26.2956989 C0.817142857,26.2236559 0.891428571,26.2236559 0.891428571,26.1516129 C0.891428571,26.0795699 0.965714286,26.0795699 0.965714286,26.0075269 C0.965714286,25.9354839 1.04,25.9354839 1.04,25.8634409 C1.04,25.7913978 1.11428571,25.7193548 1.11428571,25.7193548 C1.11428571,25.7193548 1.11428571,25.7193548 1.11428571,25.7193548 C1.11428571,25.7193548 1.11428571,25.7193548 1.11428571,25.7193548 C1.18857143,25.6473118 1.26285714,25.5032258 1.33714286,25.4311828 C1.41142857,25.3591398 1.48571429,25.2870968 1.48571429,25.2150538 C1.56,25.1430108 1.56,25.1430108 1.63428571,25.0709677 C1.63428571,24.9989247 1.70857143,24.9989247 1.70857143,24.9268817 C1.70857143,24.8548387 1.78285714,24.8548387 1.78285714,24.7827957 C1.78285714,24.7107527 1.85714286,24.7107527 1.85714286,24.6387097 C1.85714286,24.6387097 1.85714286,24.6387097 1.85714286,24.6387097 C1.85714286,24.6387097 1.85714286,24.6387097 1.85714286,24.6387097 C1.85714286,24.6387097 1.93142857,24.5666667 1.93142857,24.5666667 C2.00571429,24.4946237 2.00571429,24.4946237 2.08,24.4225806 C2.15428571,24.3505376 2.15428571,24.3505376 2.22857143,24.2784946 C2.30285714,24.2784946 2.30285714,24.2064516 2.37714286,24.2064516 C2.37714286,24.2064516 2.45142857,24.2064516 2.45142857,24.1344086 C2.45142857,24.1344086 2.45142857,24.1344086 2.45142857,24.1344086 C2.45142857,24.1344086 2.45142857,24.1344086 2.52571429,24.0623656 C2.6,24.0623656 2.6,23.9903226 2.67428571,23.9903226 C2.74857143,23.9903226 2.74857143,23.9182796 2.82285714,23.9182796 C2.89714286,23.9182796 2.89714286,23.8462366 2.97142857,23.8462366 C3.04571429,23.8462366 3.04571429,23.7741935 3.12,23.7741935 C3.12,23.7741935 3.12,23.7741935 3.12,23.7741935 L44.9428571,0.360215054 C44.9428571,0.360215054 45.0171429,0.360215054 45.0171429,0.288172043 C45.0914286,0.288172043 45.0914286,0.216129032 45.1657143,0.216129032 C45.1657143,0.216129032 45.24,0.216129032 45.24,0.144086022 C45.24,0.144086022 45.3142857,0.144086022 45.3142857,0.0720430108 C45.3142857,0.0720430108 45.3885714,0.0720430108 45.3885714,-5.68434189e-14 C45.3885714,-5.68434189e-14 45.3885714,-5.68434189e-14 45.3885714,-5.68434189e-14 C45.3885714,-5.68434189e-14 45.3885714,-5.68434189e-14 45.3885714,-5.68434189e-14 C45.3885714,-5.68434189e-14 45.4628571,-5.68434189e-14 45.4628571,-5.68434189e-14 C45.5371429,-5.68434189e-14 45.5371429,-5.68434189e-14 45.6114286,-5.68434189e-14 C45.6857143,-5.68434189e-14 45.6857143,-5.68434189e-14 45.76,-5.68434189e-14 C45.8342857,-5.68434189e-14 45.8342857,-5.68434189e-14 45.9085714,-5.68434189e-14 C45.9085714,-5.68434189e-14 45.9828571,-5.68434189e-14 45.9828571,-5.68434189e-14 C45.9828571,-5.68434189e-14 45.9828571,-5.68434189e-14 45.9828571,-5.68434189e-14 C45.9828571,-5.68434189e-14 45.9828571,-5.68434189e-14 45.9828571,-5.68434189e-14 C46.0571429,-5.68434189e-14 46.0571429,-5.68434189e-14 46.1314286,-5.68434189e-14 C46.2057143,-5.68434189e-14 46.2057143,-5.68434189e-14 46.28,-5.68434189e-14 C46.3542857,-5.68434189e-14 46.3542857,-5.68434189e-14 46.4285714,-5.68434189e-14 C46.4285714,-5.68434189e-14 46.4285714,-5.68434189e-14 46.4285714,-5.68434189e-14 C46.4285714,-5.68434189e-14 46.4285714,-5.68434189e-14 46.4285714,-5.68434189e-14 C46.5028571,-5.68434189e-14 46.5771429,-5.68434189e-14 46.5771429,0.0720430108 C46.6514286,0.0720430108 46.7257143,0.144086022 46.8,0.144086022 L50.96,2.44946237 C50.8114286,2.37741935 50.7371429,2.30537634 50.5885714,2.30537634 C50.5885714,2.30537634 50.5885714,2.30537634 50.5885714,2.30537634 C50.44,2.30537634 50.2914286,2.30537634 50.1428571,2.30537634 C50.1428571,2.30537634 50.1428571,2.30537634 50.1428571,2.30537634 C49.9942857,2.30537634 49.8457143,2.37741935 49.6228571,2.37741935 C49.6228571,2.37741935 49.6228571,2.37741935 49.6228571,2.37741935 C49.4742857,2.44946237 49.2514286,2.52150538 49.1028571,2.59354839 L7.28,26.0075269 C7.05714286,26.0795699 6.90857143,26.2236559 6.76,26.3677419 C6.76,26.3677419 6.76,26.3677419 6.76,26.3677419 C6.61142857,26.511828 6.38857143,26.655914 6.24,26.8 C6.24,26.8 6.24,26.8 6.24,26.8 C5.94285714,27.1602151 5.64571429,27.5204301 5.42285714,27.9526882 C5.42285714,27.9526882 5.42285714,27.9526882 5.42285714,27.9526882 C5.27428571,28.1688172 5.2,28.3849462 5.12571429,28.6010753 C5.12571429,28.6010753 5.12571429,28.6010753 5.12571429,28.6010753 C5.05142857,28.8172043 4.97714286,29.0333333 4.90285714,29.2494624 C4.90285714,29.2494624 4.90285714,29.2494624 4.90285714,29.2494624 C4.82857143,29.4655914 4.75428571,29.6817204 4.75428571,29.8978495 C4.75428571,29.8978495 4.75428571,29.8978495 4.75428571,29.8978495 C4.75428571,30.1139785 4.68,30.3301075 4.68,30.5462366 L4.75428571,64.6946237 C4.75428571,64.9107527 4.75428571,65.0548387 4.82857143,65.2709677 C4.82857143,65.2709677 4.82857143,65.2709677 4.82857143,65.2709677 C4.82857143,65.4150538 4.90285714,65.6311828 4.97714286,65.7032258 C4.97714286,65.7032258 4.97714286,65.7032258 4.97714286,65.7032258 C5.05142857,65.8473118 5.12571429,65.9193548 5.2,65.9913978 C5.2,65.9913978 5.27428571,66.0634409 5.27428571,66.0634409 C5.34857143,66.1354839 5.49714286,66.2075269 5.57142857,66.2795699 L1.41142857,63.9741935 C1.33714286,63.9021505 1.18857143,63.8301075 1.11428571,63.7580645 C1.11428571,63.7580645 1.04,63.6860215 1.04,63.6860215 C1.04,63.6139785 0.965714286,63.6139785 0.965714286,63.5419355 C0.891428571,63.4698925 0.891428571,63.3978495 0.891428571,63.3258065 C0.891428571,63.3258065 0.891428571,63.3258065 0.891428571,63.3258065 C0.891428571,63.3258065 0.891428571,63.3258065 0.891428571,63.3258065 C0.891428571,63.2537634 0.817142857,63.2537634 0.817142857,63.1817204 C0.817142857,63.1096774 0.817142857,63.1096774 0.742857143,63.0376344 C0.742857143,62.9655914 0.742857143,62.9655914 0.742857143,62.8935484 C0.742857143,62.8935484 0.742857143,62.8215054 0.742857143,62.8215054 C0.742857143,62.8215054 0.742857143,62.8215054 0.742857143,62.8215054 C0.742857143,62.8215054 0.742857143,62.7494624 0.742857143,62.7494624 C0.742857143,62.6774194 0.742857143,62.6774194 0.742857143,62.6053763 C0.742857143,62.5333333 0.742857143,62.5333333 0.742857143,62.4612903 C0.742857143,62.3892473 0.742857143,62.3892473 0.742857143,62.3172043 C0.742857143,62.2451613 0.742857143,62.2451613 0.742857143,62.1731183 C0.742857143,62.1731183 0.742857143,62.1731183 0.742857143,62.1731183 L0.668571429,28.0247312 C0.371428571,28.3129032 0.371428571,28.2408602 0.371428571,28.2408602 Z" fill="url(#linearGradient-3)"></path>
                        <path d="M7.20571429,26.0795699 C5.72,26.944086 4.45714286,28.9612903 4.45714286,30.6182796 L4.53142857,64.7666667 C4.53142857,66.4236559 5.79428571,67.144086 7.28,66.2795699 L37.1428571,49.5655914 C38.5542857,52.8795699 42.12,53.744086 46.28,51.4387097 L46.28,44.4505376 L49.1028571,42.8655914 C50.5885714,42.0010753 51.8514286,39.983871 51.8514286,38.3268817 L51.7771429,4.17849462 C51.7771429,2.52150538 50.5142857,1.80107527 49.0285714,2.6655914 L7.20571429,26.0795699 Z" fill="url(#linearGradient-4)"></path>
                    </g>
                    <g transform="translate(14.114286, 24.494624)" fill="#EADBFF" id="Path">
                        <path d="M24.1428571,1.15268817 C22.0628571,2.30537634 20.3542857,5.18709677 20.3542857,7.56451613 C20.3542857,9.94193548 22.0628571,10.8784946 24.2171429,9.65376344 C26.2971429,8.50107527 28.0057143,5.61935484 28.0057143,3.24193548 C28.0057143,0.864516129 26.2971429,-0.0720430108 24.1428571,1.15268817 Z"></path>
                        <path d="M3.93714286,12.5354839 C1.85714286,13.688172 0.148571429,16.5698925 0.148571429,18.9473118 C0.148571429,21.3247312 1.85714286,22.2612903 4.01142857,21.0365591 C6.09142857,19.883871 7.8,17.0021505 7.8,14.6247312 C7.8,12.2473118 6.09142857,11.3107527 3.93714286,12.5354839 Z"></path>
                        <path d="M14.04,6.7 C11.96,7.85268817 10.2514286,10.7344086 10.2514286,13.111828 C10.2514286,15.4892473 11.96,16.4258065 14.1142857,15.2010753 C16.1942857,14.0483871 17.9028571,11.1666667 17.9028571,8.78924731 C17.9028571,6.48387097 16.1942857,5.54731183 14.04,6.7 Z"></path>
                    </g>
                </g>
            </g>
        </g>
    </g>
</svg>