<?xml version="1.0" encoding="UTF-8"?>
<svg width="122px" height="168px" viewBox="0 0 122 168" version="1.1" xmlns="http://www.w3.org/2000/svg" xmlns:xlink="http://www.w3.org/1999/xlink">
    <!-- Generator: Sketch 55.1 (78136) - https://sketchapp.com -->
    <title>Group</title>
    <desc>Created with Sketch.</desc>
    <defs>
        <linearGradient x1="-15.3056064%" y1="139.010869%" x2="81.186048%" y2="-0.188749503%" id="linearGradient-1">
            <stop stop-color="#3F0995" offset="0%"></stop>
            <stop stop-color="#695BD9" offset="99.61%"></stop>
        </linearGradient>
        <linearGradient x1="-15.2971164%" y1="139.053728%" x2="81.1945958%" y2="-0.145805596%" id="linearGradient-2">
            <stop stop-color="#360F59" offset="0.2852183%"></stop>
            <stop stop-color="#962BF0" offset="99.82%"></stop>
        </linearGradient>
        <linearGradient x1="-0.000740794313%" y1="50.0098902%" x2="99.9905265%" y2="50.0098902%" id="linearGradient-3">
            <stop stop-color="#360F59" offset="0.2852183%"></stop>
            <stop stop-color="#962BF0" offset="99.82%"></stop>
        </linearGradient>
        <linearGradient x1="39.7815808%" y1="111.624229%" x2="65.2252559%" y2="-22.2315419%" id="linearGradient-4">
            <stop stop-color="#360F59" offset="0.2852183%"></stop>
            <stop stop-color="#962BF0" offset="99.82%"></stop>
        </linearGradient>
        <linearGradient x1="-498.894325%" y1="782.341961%" x2="1492.61499%" y2="-1874.72784%" id="linearGradient-5">
            <stop stop-color="#360F59" offset="0.2852183%"></stop>
            <stop stop-color="#962BF0" offset="99.82%"></stop>
        </linearGradient>
        <linearGradient x1="-820.639003%" y1="1227.74745%" x2="1143.0444%" y2="-1429.28627%" id="linearGradient-6">
            <stop stop-color="#360F59" offset="0.2852183%"></stop>
            <stop stop-color="#962BF0" offset="99.82%"></stop>
        </linearGradient>
        <linearGradient x1="-1272.22656%" y1="1762.99143%" x2="776.480656%" y2="-891.239334%" id="linearGradient-7">
            <stop stop-color="#360F59" offset="0.2852183%"></stop>
            <stop stop-color="#962BF0" offset="99.82%"></stop>
        </linearGradient>
        <linearGradient x1="-408.520132%" y1="650.568183%" x2="1643.15753%" y2="-2033.50685%" id="linearGradient-8">
            <stop stop-color="#360F59" offset="0.2852183%"></stop>
            <stop stop-color="#962BF0" offset="99.82%"></stop>
        </linearGradient>
        <linearGradient x1="-789.327014%" y1="1141.09877%" x2="1284.97504%" y2="-1557.70091%" id="linearGradient-9">
            <stop stop-color="#360F59" offset="0.2852183%"></stop>
            <stop stop-color="#962BF0" offset="99.82%"></stop>
        </linearGradient>
        <linearGradient x1="-517.184787%" y1="808.716863%" x2="1469.32336%" y2="-1848.35137%" id="linearGradient-10">
            <stop stop-color="#360F59" offset="0.2852183%"></stop>
            <stop stop-color="#962BF0" offset="99.82%"></stop>
        </linearGradient>
        <linearGradient x1="-916.586551%" y1="1334.2273%" x2="1092.9118%" y2="-1335.89792%" id="linearGradient-11">
            <stop stop-color="#360F59" offset="0.2852183%"></stop>
            <stop stop-color="#962BF0" offset="99.82%"></stop>
        </linearGradient>
        <linearGradient x1="-1219.12052%" y1="1698.84698%" x2="855.594925%" y2="-1000.20849%" id="linearGradient-12">
            <stop stop-color="#360F59" offset="0.2852183%"></stop>
            <stop stop-color="#962BF0" offset="99.82%"></stop>
        </linearGradient>
        <linearGradient x1="-1236.77469%" y1="1722.56276%" x2="837.545206%" y2="-976.259222%" id="linearGradient-13">
            <stop stop-color="#360F59" offset="0.2852183%"></stop>
            <stop stop-color="#962BF0" offset="99.82%"></stop>
        </linearGradient>
        <linearGradient x1="-1315.29433%" y1="1818.22941%" x2="733.487127%" y2="-836.096947%" id="linearGradient-14">
            <stop stop-color="#360F59" offset="0.2852183%"></stop>
            <stop stop-color="#962BF0" offset="99.82%"></stop>
        </linearGradient>
        <linearGradient x1="-1163.22098%" y1="1662.17365%" x2="838.235048%" y2="-999.191153%" id="linearGradient-15">
            <stop stop-color="#360F59" offset="0.2852183%"></stop>
            <stop stop-color="#962BF0" offset="99.82%"></stop>
        </linearGradient>
        <linearGradient x1="-1042.61146%" y1="1466.23012%" x2="1006.16622%" y2="-1188.0978%" id="linearGradient-16">
            <stop stop-color="#360F59" offset="0.2852183%"></stop>
            <stop stop-color="#962BF0" offset="99.82%"></stop>
        </linearGradient>
        <linearGradient x1="-417.258345%" y1="682.665712%" x2="1552.64049%" y2="-1988.4092%" id="linearGradient-17">
            <stop stop-color="#360F59" offset="0.2852183%"></stop>
            <stop stop-color="#962BF0" offset="99.82%"></stop>
        </linearGradient>
        <linearGradient x1="-624.606833%" y1="942.757427%" x2="1395.08271%" y2="-1727.5066%" id="linearGradient-18">
            <stop stop-color="#360F59" offset="0.2852183%"></stop>
            <stop stop-color="#962BF0" offset="99.82%"></stop>
        </linearGradient>
        <linearGradient x1="-677.513187%" y1="1002.81302%" x2="1337.06324%" y2="-1632.89455%" id="linearGradient-19">
            <stop stop-color="#360F59" offset="0.2852183%"></stop>
            <stop stop-color="#962BF0" offset="99.82%"></stop>
        </linearGradient>
        <linearGradient x1="-1039.29716%" y1="1466.70659%" x2="1032.43635%" y2="-1229.80648%" id="linearGradient-20">
            <stop stop-color="#360F59" offset="0.2852183%"></stop>
            <stop stop-color="#962BF0" offset="99.82%"></stop>
        </linearGradient>
        <linearGradient x1="-498.701057%" y1="783.37098%" x2="1492.80091%" y2="-1873.69255%" id="linearGradient-21">
            <stop stop-color="#3F0995" offset="0%"></stop>
            <stop stop-color="#695BD9" offset="99.61%"></stop>
        </linearGradient>
        <linearGradient x1="-839.782879%" y1="1240.76239%" x2="1167.5155%" y2="-1445.61677%" id="linearGradient-22">
            <stop stop-color="#3F0995" offset="0%"></stop>
            <stop stop-color="#695BD9" offset="99.61%"></stop>
        </linearGradient>
        <linearGradient x1="-1272.04283%" y1="1764.04132%" x2="776.684512%" y2="-890.219223%" id="linearGradient-23">
            <stop stop-color="#3F0995" offset="0%"></stop>
            <stop stop-color="#695BD9" offset="99.61%"></stop>
        </linearGradient>
        <linearGradient x1="-408.318504%" y1="650.021501%" x2="1643.34278%" y2="-2034.03293%" id="linearGradient-24">
            <stop stop-color="#3F0995" offset="0%"></stop>
            <stop stop-color="#695BD9" offset="99.61%"></stop>
        </linearGradient>
        <linearGradient x1="-789.129534%" y1="1140.55228%" x2="1285.17379%" y2="-1558.2474%" id="linearGradient-25">
            <stop stop-color="#3F0995" offset="0%"></stop>
            <stop stop-color="#695BD9" offset="99.61%"></stop>
        </linearGradient>
        <linearGradient x1="-516.987124%" y1="808.167843%" x2="1469.49662%" y2="-1848.86588%" id="linearGradient-26">
            <stop stop-color="#3F0995" offset="0%"></stop>
            <stop stop-color="#695BD9" offset="99.61%"></stop>
        </linearGradient>
        <linearGradient x1="-899.062638%" y1="1322.39855%" x2="1071.88168%" y2="-1322.00329%" id="linearGradient-27">
            <stop stop-color="#3F0995" offset="0%"></stop>
            <stop stop-color="#695BD9" offset="99.61%"></stop>
        </linearGradient>
        <linearGradient x1="-1218.91918%" y1="1699.89386%" x2="855.79372%" y2="-999.160009%" id="linearGradient-28">
            <stop stop-color="#3F0995" offset="0%"></stop>
            <stop stop-color="#695BD9" offset="99.61%"></stop>
        </linearGradient>
        <linearGradient x1="-1236.56701%" y1="1722.00512%" x2="837.740138%" y2="-976.799339%" id="linearGradient-29">
            <stop stop-color="#3F0995" offset="0%"></stop>
            <stop stop-color="#695BD9" offset="99.61%"></stop>
        </linearGradient>
        <linearGradient x1="-1315.06027%" y1="1817.64335%" x2="733.664557%" y2="-836.61092%" id="linearGradient-30">
            <stop stop-color="#3F0995" offset="0%"></stop>
            <stop stop-color="#695BD9" offset="99.61%"></stop>
        </linearGradient>
        <linearGradient x1="-1163.0206%" y1="1661.62218%" x2="838.421902%" y2="-999.722199%" id="linearGradient-31">
            <stop stop-color="#3F0995" offset="0%"></stop>
            <stop stop-color="#695BD9" offset="99.61%"></stop>
        </linearGradient>
        <linearGradient x1="-1042.40761%" y1="1465.68011%" x2="1006.35623%" y2="-1188.62588%" id="linearGradient-32">
            <stop stop-color="#3F0995" offset="0%"></stop>
            <stop stop-color="#695BD9" offset="99.61%"></stop>
        </linearGradient>
        <linearGradient x1="-417.068384%" y1="682.126412%" x2="1552.83045%" y2="-1988.9485%" id="linearGradient-33">
            <stop stop-color="#3F0995" offset="0%"></stop>
            <stop stop-color="#695BD9" offset="99.61%"></stop>
        </linearGradient>
        <linearGradient x1="-624.417033%" y1="942.221442%" x2="1395.2812%" y2="-1728.05363%" id="linearGradient-34">
            <stop stop-color="#3F0995" offset="0%"></stop>
            <stop stop-color="#695BD9" offset="99.61%"></stop>
        </linearGradient>
        <linearGradient x1="-677.315208%" y1="1002.27308%" x2="1337.2476%" y2="-1633.41581%" id="linearGradient-35">
            <stop stop-color="#3F0995" offset="0%"></stop>
            <stop stop-color="#695BD9" offset="99.61%"></stop>
        </linearGradient>
        <linearGradient x1="-1039.10501%" y1="1467.76363%" x2="1032.64122%" y2="-1228.76854%" id="linearGradient-36">
            <stop stop-color="#3F0995" offset="0%"></stop>
            <stop stop-color="#695BD9" offset="99.61%"></stop>
        </linearGradient>
    </defs>
    <g id="💜-Symbols" stroke="none" stroke-width="1" fill="none" fill-rule="evenodd">
        <g id="illustration-/-hero" transform="translate(-11.000000, -50.000000)">
            <g id="illustration" transform="translate(-9.000000, 0.000000)">
                <g id="Group" transform="translate(12.000000, 50.000000)">
                    <path d="M107.082237,155.152518 C107.667945,154.790368 108.253652,154.500648 108.766146,154.138498 C108.912573,154.066068 109.059,153.921208 109.205427,153.848778 C109.644708,153.559058 110.083989,153.269338 110.523269,152.907188 C110.596483,152.834758 110.74291,152.762328 110.816123,152.689898 C111.328618,152.327748 111.841112,151.893168 112.280392,151.458588 C112.426819,151.386158 112.500033,151.241298 112.64646,151.168868 C113.012527,150.806718 113.378594,150.444568 113.744662,150.082418 C113.891089,149.937558 113.964302,149.865128 114.110729,149.720268 C114.55001,149.285688 114.98929,148.778678 115.428571,148.344098 C115.501785,148.271668 115.501785,148.199238 115.574998,148.199238 C115.941065,147.764658 116.307133,147.330078 116.6732,146.895498 C116.819627,146.750638 116.89284,146.605778 117.039267,146.460918 C117.405335,146.026338 117.698188,145.591758 118.064256,145.157178 C118.137469,145.084748 118.210683,145.012318 118.210683,144.939888 C118.57675,144.432878 118.942817,143.853438 119.308885,143.346428 C119.308885,143.273998 119.382098,143.273998 119.382098,143.201568 C119.455311,143.129138 119.455311,143.056708 119.528525,142.984278 C120.041019,142.259978 120.4803,141.463248 120.919581,140.666518 C120.992794,140.594088 120.992794,140.449228 121.066008,140.376798 C121.505288,139.580068 121.944569,138.783338 122.310636,137.914178 C122.310636,137.914178 122.310636,137.841748 122.38385,137.841748 C122.457063,137.769318 122.457063,137.696888 122.457063,137.624458 C122.749917,136.972588 123.042771,136.320718 123.335625,135.596418 C123.335625,135.523988 123.408838,135.451558 123.408838,135.379128 C123.701692,134.654828 123.994546,133.930528 124.2874,133.206228 C124.2874,133.133798 124.360613,133.061368 124.360613,132.988938 C124.360613,132.916508 124.433827,132.844078 124.433827,132.771648 C124.653467,132.119778 124.946321,131.395478 125.165961,130.671178 C125.165961,130.598748 125.239175,130.453888 125.239175,130.381458 C125.458815,129.729588 125.678455,129.077718 125.824882,128.425848 C125.824882,128.353418 125.898096,128.280988 125.898096,128.136128 C125.898096,128.063698 125.898096,128.063698 125.971309,127.991268 C126.19095,127.266968 126.337377,126.615098 126.557017,125.890798 C126.63023,125.745938 126.63023,125.601078 126.703444,125.456218 C126.849871,124.804348 126.996298,124.152478 127.142725,123.500608 C127.142725,123.428178 127.142725,123.355748 127.215938,123.283318 C127.215938,123.283318 127.215938,123.283318 127.215938,123.210888 C127.582005,121.617428 127.948073,119.951538 128.167713,118.285648 C128.167713,118.285648 128.167713,118.285648 128.167713,118.285648 C128.167713,118.285648 128.167713,118.285648 128.167713,118.285648 C128.460567,116.619758 128.680207,114.953868 128.899848,113.287978 C128.899848,113.287978 128.899848,113.215548 128.899848,113.215548 C128.899848,113.143118 128.899848,113.143118 128.899848,113.143118 C129.119488,111.404798 129.265915,109.738908 129.412342,108.000588 C129.412342,108.000588 129.412342,107.928158 129.412342,107.928158 C129.412342,107.855728 129.412342,107.855728 129.412342,107.783298 C129.485555,106.986568 129.558769,106.189838 129.558769,105.320678 C129.558769,105.175818 129.558769,105.030958 129.558769,104.886098 C129.631982,104.089368 129.631982,103.292639 129.705196,102.568339 C129.705196,102.495909 129.705196,102.423479 129.705196,102.423479 C129.705196,102.351049 129.705196,102.278619 129.705196,102.206189 C129.705196,101.337029 129.778409,100.540299 129.778409,99.6711385 C129.778409,99.5262785 129.778409,99.4538485 129.778409,99.3089885 C129.778409,98.5122586 129.778409,97.7155286 129.778409,96.9187986 C129.778409,96.8463686 129.778409,96.8463686 129.778409,96.7739386 C129.778409,96.7015086 129.778409,96.7015086 129.778409,96.6290786 C129.778409,95.7599186 129.778409,94.8907586 129.778409,94.0215986 C129.778409,93.9491686 129.778409,93.8767386 129.778409,93.7318786 C129.778409,92.8627186 129.778409,92.0659886 129.705196,91.2692586 C129.705196,91.2692586 129.705196,91.1968286 129.705196,91.1968286 C129.705196,91.1968286 129.705196,91.1243986 129.705196,91.1243986 C129.705196,90.6898186 129.705196,90.2552386 129.631982,89.8206586 C129.631982,89.7482286 129.631982,89.6033686 129.631982,89.5309386 C129.631982,89.1687887 129.631982,88.8790687 129.558769,88.5893487 C129.558769,88.4444887 129.558769,88.2996287 129.558769,88.1547687 C129.558769,87.8650487 129.558769,87.6477587 129.485555,87.3580387 C129.485555,87.2131787 129.485555,87.0683187 129.485555,86.9234587 C129.485555,86.6337387 129.485555,86.4164487 129.412342,86.1267287 C129.412342,86.0542987 129.412342,85.9818687 129.412342,85.8370087 C129.412342,85.8370087 129.412342,85.7645787 129.412342,85.7645787 C129.412342,85.3299987 129.339128,84.9678487 129.339128,84.6056987 C129.339128,84.5332687 129.339128,84.4608387 129.339128,84.3159787 C129.339128,84.0262587 129.265915,83.6641087 129.265915,83.3743887 C129.265915,83.3019587 129.265915,83.2295287 129.265915,83.1570987 C129.265915,82.7949487 129.192701,82.5052287 129.192701,82.2155087 C129.192701,82.1430787 129.192701,82.0706487 129.192701,81.9982187 C129.192701,81.7809287 129.119488,81.4912087 129.119488,81.2739187 C129.119488,81.2014887 129.119488,81.2014887 129.119488,81.1290587 C129.119488,81.1290587 129.119488,81.0566287 129.119488,81.0566287 C129.119488,80.7669087 129.046275,80.5496187 129.046275,80.3323287 C129.046275,80.2598987 129.046275,80.2598987 129.046275,80.1874687 C129.046275,79.9701787 128.973061,79.7528887 128.973061,79.6080287 C128.973061,79.6080287 128.973061,79.5355988 128.973061,79.5355988 C128.973061,79.3183088 128.899848,79.1734488 128.899848,79.0285888 C128.899848,79.0285888 128.899848,78.9561588 128.899848,78.9561588 C128.899848,78.8112988 128.899848,78.7388688 128.899848,78.6664388 L116.599987,63.5285689 L114.476796,46.1453691 C114.257156,45.9280791 114.037515,45.7107891 113.891089,45.4934991 C113.598235,45.2037791 113.378594,44.9864891 113.085741,44.6967691 C112.792887,44.4070491 112.426819,44.0448991 112.133966,43.7551791 C112.060752,43.6827491 111.914325,43.5378891 111.841112,43.4654591 C111.328618,42.9584491 110.816123,42.4514391 110.230416,41.9444291 C110.157202,41.8719991 110.010775,41.7271391 109.864348,41.6547091 C109.571495,41.3649891 109.205427,41.0752691 108.912573,40.7855491 C108.692933,40.5682592 108.400079,40.3509692 108.180439,40.1336792 C107.887585,39.9163892 107.594731,39.6266692 107.301877,39.4093792 C106.789383,38.9023692 106.203675,38.4677892 105.617968,37.9607792 C105.398327,37.7434892 105.105474,37.5261992 104.885833,37.3089092 C104.81262,37.2364792 104.739406,37.1640492 104.666193,37.0916192 C104.373339,36.8743292 104.080485,36.5846092 103.714418,36.3673192 C103.12871,35.9327392 102.616216,35.4257292 102.030508,34.9911492 C101.591228,34.6289992 101.22516,34.3392792 100.785879,33.9771292 C100.200172,33.5425492 99.6876776,33.1079692 99.10197,32.6733892 C98.955543,32.5285292 98.8091161,32.4560992 98.6626892,32.3112392 C98.4430488,32.1663792 98.2234084,31.9490892 98.0037681,31.8042292 C97.19842,31.1523592 96.3198585,30.5004893 95.5145105,29.8486193 C95.1484432,29.5588993 94.8555894,29.3416093 94.4895221,29.0518893 C93.3913202,28.1827293 92.2931183,27.3859993 91.1949164,26.5892693 C91.1949164,26.5892693 91.1949164,26.5892693 91.121703,26.5892693 C91.121703,26.5892693 91.121703,26.5892693 91.121703,26.5892693 C89.9502876,25.7201093 88.8520858,24.9233793 87.6806704,24.1266493 C87.3878166,23.9093593 87.0217493,23.6920693 86.7288955,23.4747793 C85.850334,22.8229093 84.9717724,22.2434693 84.0932109,21.6640293 C83.946784,21.5191693 83.7271437,21.4467393 83.5807167,21.3018794 C83.5075033,21.2294494 83.4342898,21.2294494 83.3610764,21.1570194 C82.6289418,20.6500094 81.9700206,20.2154294 81.2378861,19.7808494 C81.0182457,19.6359894 80.8718188,19.4911294 80.6521784,19.4186994 C79.7736169,18.8392594 78.9682688,18.3322494 78.2361343,17.8252394 C78.2361343,17.8252394 78.1629208,17.7528094 78.1629208,17.7528094 C77.5772131,17.3906594 76.9915055,17.0285094 76.4057978,16.6663594 C76.2593709,16.5939294 76.112944,16.5214994 75.966517,16.4490694 C75.6736632,16.2317794 75.3075959,16.0144894 75.0147421,15.8696294 C74.7951017,15.7971994 74.6486748,15.6523394 74.5022479,15.5799094 C73.9897537,15.2901894 73.404046,14.9280394 72.7451249,14.6383194 C72.6719114,14.6383194 72.6719114,14.5658894 72.598698,14.5658894 C72.598698,14.5658894 72.5254845,14.5658894 72.5254845,14.4934594 C72.0129903,14.2037394 71.4272826,13.9140194 70.8415749,13.6242994 C70.7683615,13.5518694 70.695148,13.5518694 70.5487211,13.4794394 C69.8898,13.1172894 69.1576654,12.7551394 68.4255308,12.3929894 C68.4255308,12.3929894 68.4255308,12.3929894 68.3523174,12.3929894 C67.4737559,11.9584094 66.5219809,11.5238295 65.5702059,11.0892495 C65.2773521,10.9443895 64.9844983,10.7995295 64.6916444,10.7270995 C64.0327233,10.4373795 63.3005887,10.0752295 62.5684541,9.78550947 C62.4220272,9.71307947 62.2756003,9.64064947 62.1291734,9.56821947 C61.909533,9.49578947 61.7631061,9.42335947 61.5434657,9.35092947 C60.8113311,8.98877948 60.0059831,8.69905948 59.200635,8.33690948 C58.8345677,8.19204949 58.5417139,8.04718949 58.1756466,7.90232949 C57.0774447,7.46774949 55.9792429,7.0331695 54.881041,6.5985895 C54.881041,6.5985895 54.881041,6.5985895 54.8078275,6.5985895 C54.8078275,6.5985895 54.8078275,6.5985895 54.8078275,6.5985895 C53.7828391,6.16400951 52.7578507,5.80185951 51.7328623,5.43970951 C51.4400084,5.29484951 51.0739411,5.22241952 50.7810873,5.07755952 C50.1221662,4.78783952 49.3900316,4.57054952 48.7311105,4.35325952 C48.5846835,4.28082953 48.5114701,4.28082953 48.3650432,4.20839953 C47.9989759,4.06353953 47.6329086,3.99110953 47.2668413,3.84624953 C46.900774,3.70138953 46.5347067,3.55652953 46.1686394,3.48409953 C45.6561452,3.33923953 45.143651,3.12194954 44.5579433,2.97708954 C44.191876,2.90465954 43.8990222,2.75979954 43.5329549,2.68736954 C43.4597414,2.68736954 43.386528,2.61493954 43.3133145,2.61493954 C42.5811799,2.39764954 41.9222588,2.18035955 41.1901242,2.03549955 C41.0436973,1.96306955 40.8240569,1.96306955 40.67763,1.89063955 C40.3115627,1.81820955 39.872282,1.67334955 39.5062147,1.60091955 C39.3597878,1.60091955 39.2133608,1.52848955 39.1401474,1.52848955 C38.5544397,1.38362956 38.0419455,1.31119956 37.5294513,1.16633956 C37.3098109,1.09390956 37.0901705,1.02147956 36.8705302,1.02147956 C36.7973167,1.02147956 36.7241033,1.02147956 36.6508898,0.94904956 C36.2848225,0.87661956 35.9919687,0.87661956 35.6991148,0.804189561 C35.406261,0.731759562 35.1134072,0.731759562 34.8205533,0.659329563 C34.600913,0.659329563 34.454486,0.586899563 34.2348457,0.586899563 L24.3510288,6.3088695 C24.717096,6.3812995 25.1563768,6.4537295 25.5956576,6.5261595 C25.668871,6.5261595 25.668871,6.5261595 25.7420845,6.5261595 C25.7420845,6.5261595 25.7420845,6.5261595 25.7420845,6.5261595 C25.668871,6.5261595 25.668871,6.5261595 25.5956576,6.5261595 C25.1563768,6.4537295 24.717096,6.3812995 24.3510288,6.3088695 L22.8867596,16.3042094 L19.7385809,16.5939294 L9.85476396,22.3158993 L9.85476396,22.3158993 C9.26905629,26.3719793 -1.85938941,103.147779 64.0327233,164.206268 C78.3093477,167.320758 88.9985127,165.582438 96.9787797,160.874488 C96.9055662,160.946918 96.8323527,160.946918 96.7591393,161.019348 L96.7591393,161.019348 C96.7591393,161.019348 96.7591393,161.019348 96.7591393,161.019348 L107.082237,155.152518 Z" id="Path" fill="#8F8FF9"></path>
                    <path d="M23.7840909,6.30917031 C24.1534091,6.38253275 24.5965909,6.4558952 25.0397727,6.52925764 C24.6704545,6.38253275 24.2272727,6.30917031 23.7840909,6.30917031 Z" id="Path" fill="#8F8FF9"></path>
                    <polygon id="Path" fill="#EADBFF" points="19.1306818 16.6532751 9.15909091 22.4489083 21.5681818 21.3484716 31.6136364 15.6262009"></polygon>
                    <path d="M63.8181818,156.262009 C87.0113636,160.443668 101.931818,149.879476 108.357955,124.936245 C112.125,110.263755 111.829545,94.4174672 111.3125,86.7877729 L102.522727,76.0034934 L99.125,71.8218341 L98.5340909,66.9799127 L97.1306818,55.4620087 C87.0852273,46.3650655 71.6477273,35.3606987 64.1136364,31.1056769 C56.6534091,26.7772926 41.2159091,20.10131 31.0965909,17.6069869 L29.6193182,27.510917 L29.0284091,31.619214 L25.5568182,31.9126638 L16.7670455,32.6462882 C16.25,39.689083 15.8806818,55.0951965 19.5,74.0960699 C25.9261364,106.228821 40.7727273,133.886463 63.8181818,156.262009 Z" id="Path" fill="#F4EDFF"></path>
                    <path d="M63.8920455,133.8131 C70.2443182,134.033188 75.4147727,132.492576 79.625,129.191266 C84.4261364,125.376419 88.1193182,119.140611 90.4090909,110.630568 C92.4034091,103.220961 93.1420455,96.3248908 93.2897727,89.7956332 L82.3579545,75.269869 L80.9545455,66.6864629 C74.75,61.9912664 68.1761364,57.4427948 64.1136364,55.0951965 C60.0511364,52.7475983 53.4772727,49.8131004 47.2727273,47.3921397 L45.7954545,54.2882096 L34.8636364,56.2689956 C35.0113636,62.9449782 35.6761364,70.6480349 37.5965909,80.3318777 C39.8863636,91.4829694 43.4318182,101.900437 48.2329545,111.144105 C52.4431818,119.287336 57.6136364,126.770306 63.8920455,133.8131 Z" id="Path" fill="url(#linearGradient-1)" opacity="0.2"></path>
                    <path d="M60.5681818,135.867249 C66.9204545,136.087336 72.0909091,134.546725 76.3011364,131.245415 C81.1022727,127.430568 84.7954545,121.19476 87.0852273,112.684716 C89.0795455,105.275109 89.8181818,98.3790393 89.9659091,91.8497817 L79.0340909,77.3240175 L77.6306818,68.7406114 C71.4261364,64.0454148 64.8522727,59.4969432 60.7897727,57.149345 C56.7272727,54.8017467 50.1534091,51.8672489 43.9488636,49.4462882 L42.4715909,56.3423581 L31.5397727,58.3231441 C31.6875,64.9991266 32.3522727,72.7021834 34.2727273,82.3860262 C36.5625,93.5371179 40.1079545,103.954585 44.9090909,113.198253 C49.1193182,121.341485 54.2897727,128.824454 60.5681818,135.867249 Z" id="Path" fill="url(#linearGradient-2)"></path>
                    <path d="M63.8181818,166.165939 C130.517045,180.691703 119.732955,90.3091703 119.142045,85.5406114 L106.732955,70.2078603 L104.590909,52.6008734 C93.9545455,41.5965066 73.4204545,26.9240175 64.1875,21.6419214 C54.9545455,16.3598253 34.4204545,7.48296943 23.7840909,6.23580786 L21.5681818,21.3484716 L9.15909091,22.3755459 C8.56818182,26.5572052 -2.73295455,104.321397 63.8181818,166.165939 Z M28.8806818,105.055022 C28.5852273,104.321397 28.2897727,103.587773 27.9943182,102.854148 C27.7727273,102.267249 27.5511364,101.680349 27.3295455,101.09345 C26.8863636,99.9930131 26.5170455,98.8925764 26.1477273,97.7921397 C26.0738636,97.49869 25.9261364,97.2052402 25.8522727,96.9117904 C25.6306818,96.1781659 25.3352273,95.5179039 25.1136364,94.7842795 C24.8920455,94.050655 24.6704545,93.390393 24.4488636,92.6567686 C24.0056818,91.3362445 23.6363636,90.0157205 23.2670455,88.6951965 C22.9715909,87.7414847 22.75,86.7877729 22.4545455,85.8340611 C22.2329545,84.9537118 22.0113636,84.0733624 21.7897727,83.1930131 C21.0511364,80.1851528 20.3125,77.1039301 19.7215909,73.949345 C19.2045455,71.3082969 18.7613636,68.6672489 18.3920455,66.1729258 C18.3181818,65.5860262 18.2443182,65.0724891 18.1704545,64.4855895 C18.0227273,63.3851528 17.875,62.2847162 17.7272727,61.2576419 C17.7272727,60.9641921 17.6534091,60.7441048 17.6534091,60.450655 C17.3579545,58.1030568 17.2102273,55.828821 17.0625,53.6279476 C17.0625,53.4078603 17.0625,53.1144105 16.9886364,52.8943231 C16.9147727,51.9406114 16.8409091,50.9868996 16.8409091,50.1065502 C16.8409091,49.4462882 16.7670455,48.7860262 16.7670455,48.1257642 C16.7670455,47.6855895 16.7670455,47.2454148 16.6931818,46.8052402 C16.6931818,46.5851528 16.6931818,46.3650655 16.6931818,46.1449782 C16.6931818,45.7048035 16.6931818,45.3379913 16.6931818,44.8978166 C16.6931818,43.8707424 16.6931818,42.9170306 16.6931818,41.9633188 C16.6931818,41.5965066 16.6931818,41.2296943 16.6931818,40.8628821 C16.6931818,39.028821 16.7670455,37.4148472 16.8409091,35.9475983 C16.8409091,35.6541485 16.8409091,35.3606987 16.9147727,35.0672489 C16.9147727,34.6270742 16.9886364,34.260262 16.9886364,33.8934498 C16.9886364,33.3799127 17.0625,32.939738 17.0625,32.4995633 L17.7272727,32.4262009 L25.8522727,31.7659389 L29.3238636,31.4724891 L29.9147727,27.3641921 L31.3920455,17.460262 C31.6875,17.5336245 32.0568182,17.6069869 32.3522727,17.6803493 C32.7215909,17.7537118 33.0909091,17.9004367 33.4602273,17.9737991 C35.8977273,18.6340611 38.5568182,19.5144105 41.2159091,20.4681223 C41.3636364,20.5414847 41.4375,20.5414847 41.5852273,20.6148472 C42.0284091,20.7615721 42.4715909,20.9082969 42.9147727,21.1283843 C43.2840909,21.2751092 43.5795455,21.3484716 43.9488636,21.4951965 C44.9829545,21.8620087 46.0170455,22.3021834 46.9772727,22.6689956 C47.125,22.7423581 47.2727273,22.7423581 47.3465909,22.8157205 C53.9204545,25.530131 60.3465909,28.5379913 64.3352273,30.8855895 C70.5397727,34.4803493 82.2840909,42.6235808 91.8125,50.5467249 C92.8465909,51.4270742 93.8806818,52.3074236 94.8409091,53.1144105 C95.0625,53.2611354 95.2102273,53.4078603 95.4318182,53.6279476 C96.0965909,54.2148472 96.6875,54.7283843 97.3522727,55.3152838 L98.7556818,66.8331878 L99.3465909,71.6751092 L102.744318,75.8567686 L111.534091,86.641048 C111.977273,94.2707424 112.272727,110.117031 108.579545,124.78952 C106.806818,131.832314 104.295455,137.70131 101.119318,142.396507 C100.75,142.910044 100.380682,143.423581 100.011364,143.937118 C99.4943182,144.670742 98.9034091,145.404367 98.3125,146.064629 C98.0909091,146.284716 97.9431818,146.504803 97.7215909,146.724891 C97.3522727,147.165066 96.9090909,147.60524 96.4659091,147.972052 C95.6534091,148.779039 94.7670455,149.586026 93.8806818,150.246288 C93.4375,150.6131 92.9943182,150.90655 92.4772727,151.273362 C92.0340909,151.566812 91.5170455,151.933624 91.0738636,152.227074 C90.3352273,152.667249 89.5965909,153.107424 88.8579545,153.474236 C88.6363636,153.620961 88.3409091,153.694323 88.1193182,153.841048 C87.0852273,154.354585 86.0511364,154.721397 84.9431818,155.08821 C83.6136364,155.528384 82.1363636,155.895197 80.6590909,156.188646 C79.1818182,156.482096 77.7045455,156.702183 76.0795455,156.775546 C75.7840909,156.775546 75.4147727,156.848908 75.1193182,156.848908 C74.1590909,156.922271 73.1988636,156.922271 72.2386364,156.848908 C71.2045455,156.848908 70.1704545,156.775546 69.1363636,156.702183 C68.4715909,156.628821 67.8068182,156.555459 67.1420455,156.482096 C66.1079545,156.335371 65,156.188646 63.9659091,155.968559 C48.9715909,141.442795 37.4488636,124.642795 29.4715909,105.862009 C29.1761364,105.788646 29.0284091,105.421834 28.8806818,105.055022 Z" id="Shape" fill="url(#linearGradient-3)" fill-rule="nonzero"></path>
                    <path d="M106.880682,157.142358 C107.471591,156.775546 108.0625,156.482096 108.579545,156.115284 C108.727273,156.041921 108.875,155.895197 109.022727,155.821834 C109.465909,155.528384 109.909091,155.234934 110.352273,154.868122 C110.426136,154.79476 110.573864,154.721397 110.647727,154.648035 C111.164773,154.281223 111.681818,153.841048 112.125,153.400873 C112.272727,153.327511 112.346591,153.180786 112.494318,153.107424 C112.863636,152.740611 113.232955,152.373799 113.602273,152.006987 C113.75,151.860262 113.823864,151.7869 113.971591,151.640175 C114.414773,151.2 114.857955,150.686463 115.301136,150.246288 C115.375,150.172926 115.375,150.099563 115.448864,150.099563 C115.818182,149.659389 116.1875,149.219214 116.556818,148.779039 C116.704545,148.632314 116.778409,148.48559 116.926136,148.338865 C117.295455,147.89869 117.590909,147.458515 117.960227,147.018341 C118.034091,146.944978 118.107955,146.871616 118.107955,146.798253 C118.477273,146.284716 118.846591,145.697817 119.215909,145.184279 C119.215909,145.110917 119.289773,145.110917 119.289773,145.037555 C119.363636,144.964192 119.363636,144.89083 119.4375,144.817467 C119.954545,144.083843 120.397727,143.276856 120.840909,142.469869 C120.914773,142.396507 120.914773,142.249782 120.988636,142.176419 C121.431818,141.369432 121.875,140.562445 122.244318,139.682096 C122.244318,139.682096 122.244318,139.608734 122.318182,139.608734 C122.392045,139.535371 122.392045,139.462009 122.392045,139.388646 C122.6875,138.728384 122.982955,138.068122 123.278409,137.334498 C123.278409,137.261135 123.352273,137.187773 123.352273,137.11441 C123.647727,136.380786 123.943182,135.647162 124.238636,134.913537 C124.238636,134.840175 124.3125,134.766812 124.3125,134.69345 C124.3125,134.620087 124.386364,134.546725 124.386364,134.473362 C124.607955,133.8131 124.903409,133.079476 125.125,132.345852 C125.125,132.272489 125.198864,132.125764 125.198864,132.052402 C125.420455,131.39214 125.642045,130.731878 125.789773,130.071616 C125.789773,129.998253 125.863636,129.924891 125.863636,129.778166 C125.863636,129.704803 125.863636,129.704803 125.9375,129.631441 C126.159091,128.897817 126.306818,128.237555 126.528409,127.50393 C126.602273,127.357205 126.602273,127.21048 126.676136,127.063755 C126.823864,126.403493 126.971591,125.743231 127.119318,125.082969 C127.119318,125.009607 127.119318,124.936245 127.193182,124.862882 C127.193182,124.862882 127.193182,124.862882 127.193182,124.78952 C127.5625,123.175546 127.931818,121.48821 128.153409,119.800873 C128.153409,119.800873 128.153409,119.800873 128.153409,119.800873 C128.153409,119.800873 128.153409,119.800873 128.153409,119.800873 C128.448864,118.113537 128.670455,116.426201 128.892045,114.738865 C128.892045,114.738865 128.892045,114.665502 128.892045,114.665502 C128.892045,114.59214 128.892045,114.59214 128.892045,114.59214 C129.113636,112.831441 129.261364,111.144105 129.409091,109.383406 C129.409091,109.383406 129.409091,109.310044 129.409091,109.310044 C129.409091,109.236681 129.409091,109.236681 129.409091,109.163319 C129.482955,108.356332 129.556818,107.549345 129.556818,106.668996 C129.556818,106.522271 129.556818,106.375546 129.556818,106.228821 C129.630682,105.421834 129.630682,104.614847 129.704545,103.881223 C129.704545,103.80786 129.704545,103.734498 129.704545,103.734498 C129.704545,103.661135 129.704545,103.587773 129.704545,103.51441 C129.704545,102.634061 129.778409,101.827074 129.778409,100.946725 C129.778409,100.8 129.778409,100.726638 129.778409,100.579913 C129.778409,99.7729258 129.778409,98.9659389 129.778409,98.158952 C129.778409,98.0855895 129.778409,98.0855895 129.778409,98.0122271 C129.778409,97.9388646 129.778409,97.9388646 129.778409,97.8655022 C129.778409,96.9851528 129.778409,96.1048035 129.778409,95.2244541 C129.778409,95.1510917 129.778409,95.0777293 129.778409,94.9310044 C129.778409,94.050655 129.778409,93.2436681 129.704545,92.4366812 C129.704545,92.4366812 129.704545,92.3633188 129.704545,92.3633188 C129.704545,92.3633188 129.704545,92.2899563 129.704545,92.2899563 C129.704545,91.8497817 129.704545,91.409607 129.630682,90.9694323 C129.630682,90.8960699 129.630682,90.749345 129.630682,90.6759825 C129.630682,90.3091703 129.630682,90.0157205 129.556818,89.7222707 C129.556818,89.5755459 129.556818,89.428821 129.556818,89.2820961 C129.556818,88.9886463 129.556818,88.768559 129.482955,88.4751092 C129.482955,88.3283843 129.482955,88.1816594 129.482955,88.0349345 C129.482955,87.7414847 129.482955,87.5213974 129.409091,87.2279476 C129.409091,87.1545852 129.409091,87.0812227 129.409091,86.9344978 C129.409091,86.9344978 129.409091,86.8611354 129.409091,86.8611354 C129.409091,86.4209607 129.335227,86.0541485 129.335227,85.6873362 C129.335227,85.6139738 129.335227,85.5406114 129.335227,85.3938865 C129.335227,85.1004367 129.261364,84.7336245 129.261364,84.4401747 C129.261364,84.3668122 129.261364,84.2934498 129.261364,84.2200873 C129.261364,83.8532751 129.1875,83.5598253 129.1875,83.2663755 C129.1875,83.1930131 129.1875,83.1196507 129.1875,83.0462882 C129.1875,82.8262009 129.113636,82.5327511 129.113636,82.3126638 C129.113636,82.2393013 129.113636,82.2393013 129.113636,82.1659389 C129.113636,82.1659389 129.113636,82.0925764 129.113636,82.0925764 C129.113636,81.7991266 129.039773,81.5790393 129.039773,81.358952 C129.039773,81.2855895 129.039773,81.2855895 129.039773,81.2122271 C129.039773,80.9921397 128.965909,80.7720524 128.965909,80.6253275 C128.965909,80.6253275 128.965909,80.5519651 128.965909,80.5519651 C128.965909,80.3318777 128.892045,80.1851528 128.892045,80.0384279 C128.892045,80.0384279 128.892045,79.9650655 128.892045,79.9650655 C128.892045,79.8183406 128.892045,79.7449782 128.892045,79.6716157 L118.920455,85.4672489 C118.920455,85.5406114 118.920455,85.6873362 118.920455,85.7606987 C118.920455,85.7606987 118.920455,85.8340611 118.920455,85.8340611 C118.920455,85.980786 118.920455,86.1275109 118.994318,86.3475983 C118.994318,86.3475983 118.994318,86.4209607 118.994318,86.4209607 C118.994318,86.5676856 119.068182,86.7877729 119.068182,87.0078603 C119.068182,87.0812227 119.068182,87.0812227 119.068182,87.1545852 C119.068182,87.3746725 119.142045,87.6681223 119.142045,87.9615721 C119.142045,88.0349345 119.142045,88.0349345 119.142045,88.1082969 C119.142045,88.3283843 119.215909,88.6218341 119.215909,88.8419214 C119.215909,88.9152838 119.215909,88.9886463 119.215909,89.0620087 C119.215909,89.3554585 119.289773,89.7222707 119.289773,90.0157205 C119.289773,90.089083 119.289773,90.1624454 119.289773,90.1624454 C119.289773,90.4558952 119.363636,90.8227074 119.363636,91.1161572 C119.363636,91.1895197 119.363636,91.2628821 119.363636,91.409607 C119.363636,91.7764192 119.4375,92.2165939 119.4375,92.5834061 C119.4375,92.6567686 119.4375,92.8034934 119.4375,92.8768559 C119.4375,93.1703057 119.4375,93.4637555 119.511364,93.7572052 C119.511364,93.9039301 119.511364,93.9772926 119.511364,94.1240175 C119.511364,94.4174672 119.511364,94.6375546 119.585227,94.9310044 C119.585227,95.0777293 119.585227,95.2244541 119.585227,95.371179 C119.585227,95.6646288 119.585227,96.031441 119.659091,96.3248908 C119.659091,96.3982533 119.659091,96.5449782 119.659091,96.6183406 C119.659091,97.0585153 119.659091,97.49869 119.732955,97.9388646 C119.732955,98.0122271 119.732955,98.0122271 119.732955,98.0855895 C119.732955,98.8925764 119.806818,99.7729258 119.806818,100.579913 C119.806818,100.653275 119.806818,100.726638 119.806818,100.873362 C119.806818,101.753712 119.806818,102.560699 119.806818,103.51441 C119.806818,103.587773 119.806818,103.734498 119.806818,103.80786 C119.806818,104.614847 119.806818,105.421834 119.806818,106.228821 C119.806818,106.375546 119.806818,106.448908 119.806818,106.595633 C119.806818,107.40262 119.732955,108.282969 119.732955,109.163319 C119.732955,109.310044 119.732955,109.383406 119.732955,109.530131 C119.732955,110.337118 119.659091,111.070742 119.585227,111.877729 C119.585227,112.024454 119.585227,112.171179 119.585227,112.317904 C119.511364,113.124891 119.511364,113.931878 119.4375,114.812227 C119.4375,114.88559 119.4375,114.958952 119.4375,115.032314 C119.289773,116.719651 119.142045,118.480349 118.920455,120.241048 C118.920455,120.31441 118.920455,120.387773 118.920455,120.461135 C118.698864,122.148472 118.477273,123.835808 118.181818,125.523144 C118.181818,125.523144 118.181818,125.523144 118.181818,125.523144 C117.886364,127.21048 117.590909,128.824454 117.221591,130.51179 C117.221591,130.585153 117.147727,130.658515 117.147727,130.80524 C117,131.465502 116.852273,132.125764 116.704545,132.786026 C116.630682,132.932751 116.630682,133.079476 116.556818,133.226201 C116.335227,133.959825 116.1875,134.620087 115.965909,135.353712 C115.892045,135.500437 115.892045,135.647162 115.818182,135.793886 C115.596591,136.454148 115.448864,137.11441 115.227273,137.774672 C115.227273,137.848035 115.153409,137.99476 115.153409,138.068122 C114.931818,138.801747 114.636364,139.462009 114.414773,140.195633 C114.340909,140.342358 114.267045,140.489083 114.267045,140.635808 C113.971591,141.369432 113.676136,142.103057 113.380682,142.836681 C113.380682,142.910044 113.306818,142.983406 113.306818,143.056769 C113.011364,143.717031 112.715909,144.450655 112.420455,145.110917 C112.346591,145.257642 112.346591,145.331004 112.272727,145.477729 C111.903409,146.284716 111.460227,147.165066 111.017045,147.972052 C110.943182,148.045415 110.943182,148.19214 110.869318,148.265502 C110.426136,149.072489 109.982955,149.879476 109.465909,150.6131 C109.392045,150.759825 109.318182,150.833188 109.244318,150.979913 C108.875,151.49345 108.505682,152.080349 108.136364,152.593886 C108.0625,152.667249 107.988636,152.740611 107.988636,152.813974 C107.693182,153.254148 107.323864,153.694323 106.954545,154.134498 C106.806818,154.281223 106.732955,154.427948 106.585227,154.574672 C106.215909,155.014847 105.846591,155.455022 105.477273,155.895197 C105.403409,155.968559 105.403409,156.041921 105.329545,156.041921 C104.886364,156.555459 104.443182,156.995633 104,157.435808 C103.852273,157.582533 103.778409,157.655895 103.630682,157.80262 C103.261364,158.169432 102.892045,158.536245 102.522727,158.903057 C102.375,158.976419 102.301136,159.123144 102.153409,159.196507 C101.636364,159.636681 101.193182,160.003493 100.676136,160.443668 C100.602273,160.517031 100.454545,160.590393 100.380682,160.663755 C99.9375,160.957205 99.4943182,161.324017 99.0511364,161.617467 C98.9034091,161.69083 98.7556818,161.837555 98.6079545,161.910917 C98.0170455,162.277729 97.5,162.644541 96.9090909,162.937991 L96.9090909,162.937991 C96.9090909,162.937991 96.9090909,162.937991 96.9090909,162.937991 L106.880682,157.142358 Z" id="Path" fill="url(#linearGradient-4)"></path>
                    <polygon id="Path" fill="#EADBFF" points="116.778409 64.4122271 106.732955 70.2078603 119.142045 85.5406114 129.113636 79.7449782"></polygon>
                    <polygon id="Path" fill="#BC83FF" points="114.636364 46.8786026 104.590909 52.6008734 106.732955 70.2078603 116.778409 64.4122271"></polygon>
                    <path d="M27.1818182,6.89606987 C27.6988636,7.04279476 28.2897727,7.11615721 28.8068182,7.2628821 C29.3238636,7.40960699 29.8409091,7.48296943 30.3579545,7.62969432 C30.5056818,7.70305677 30.7272727,7.70305677 30.875,7.77641921 C31.6136364,7.99650655 32.4261364,8.21659389 33.1647727,8.43668122 C33.4602273,8.51004367 33.8295455,8.65676856 34.1988636,8.730131 C34.7159091,8.8768559 35.3068182,9.09694323 35.8238636,9.24366812 C36.1931818,9.39039301 36.5625,9.46375546 36.9318182,9.61048035 C37.4488636,9.75720524 37.9659091,9.97729258 38.4090909,10.1240175 C39.0738636,10.3441048 39.8125,10.6375546 40.4772727,10.8576419 C40.7727273,11.0043668 41.1420455,11.0777293 41.4375,11.2244541 C42.4715909,11.5912664 43.5056818,12.031441 44.5397727,12.3982533 C44.5397727,12.3982533 44.6136364,12.3982533 44.6136364,12.3982533 C45.7215909,12.8384279 46.8295455,13.2786026 47.8636364,13.7187773 C48.2329545,13.8655022 48.5284091,14.0122271 48.8977273,14.158952 C49.7102273,14.5257642 50.4488636,14.819214 51.2613636,15.1860262 C51.6306818,15.3327511 51.9261364,15.479476 52.2954545,15.6262009 C53.0340909,15.9196507 53.6988636,16.2864629 54.4375,16.5799127 C54.7329545,16.7266376 55.0284091,16.8733624 55.25,16.9467249 C56.2102273,17.3868996 57.1704545,17.8270742 58.0568182,18.2672489 C58.7954545,18.6340611 59.5340909,19.0008734 60.2727273,19.3676856 C60.3465909,19.441048 60.4943182,19.441048 60.5681818,19.5144105 C61.1590909,19.8078603 61.75,20.1746725 62.3409091,20.4681223 C62.4147727,20.4681223 62.4147727,20.5414847 62.4886364,20.5414847 C63.0795455,20.9082969 63.6704545,21.2017467 64.2613636,21.4951965 C64.7045455,21.7886463 65.2215909,22.0820961 65.8125,22.3755459 C65.9602273,22.4489083 66.1079545,22.5222707 66.2556818,22.5956332 C66.8465909,22.9624454 67.5113636,23.3292576 68.1761364,23.7694323 C68.9886364,24.2829694 69.8011364,24.7965066 70.6136364,25.3834061 C70.7613636,25.530131 70.9829545,25.6034934 71.2045455,25.7502183 C71.8693182,26.190393 72.6079545,26.7039301 73.3465909,27.1441048 C73.5681818,27.2908297 73.8636364,27.510917 74.0852273,27.6576419 C74.9715909,28.2445415 75.8579545,28.831441 76.7443182,29.4917031 C77.0397727,29.7117904 77.4090909,29.9318777 77.7045455,30.1519651 C78.8125,30.958952 79.9943182,31.7659389 81.1761364,32.6462882 C81.1761364,32.6462882 81.1761364,32.6462882 81.1761364,32.6462882 C82.2840909,33.4532751 83.3920455,34.3336245 84.5738636,35.1406114 C84.9431818,35.3606987 85.2386364,35.6541485 85.6079545,35.8742358 C86.4204545,36.5344978 87.3068182,37.1947598 88.1193182,37.8550218 C88.4886364,38.1484716 88.8579545,38.4419214 89.2272727,38.6620087 C89.8181818,39.1021834 90.3352273,39.5423581 90.9261364,39.9825328 C91.3693182,40.2759825 91.7386364,40.6427948 92.1818182,40.9362445 C92.7727273,41.3764192 93.3636364,41.8899563 93.8806818,42.330131 C94.25,42.6235808 94.6931818,42.990393 95.0625,43.2838428 C95.2840909,43.5039301 95.5795455,43.7240175 95.8011364,43.9441048 C96.3920455,44.4576419 96.9090909,44.8978166 97.5,45.4113537 C97.7954545,45.631441 98.0909091,45.9248908 98.3863636,46.1449782 C98.9772727,46.6585153 99.5681818,47.1720524 100.159091,47.6855895 C100.306818,47.758952 100.380682,47.9056769 100.528409,47.9790393 C101.193182,48.5659389 101.784091,49.1528384 102.448864,49.739738 C102.818182,50.0331878 103.113636,50.4 103.409091,50.6934498 C103.926136,51.2069869 104.369318,51.6471616 104.8125,52.1606987 L114.784091,46.3650655 C114.5625,46.1449782 114.340909,45.9248908 114.193182,45.7048035 C113.897727,45.4113537 113.676136,45.1912664 113.380682,44.8978166 C113.085227,44.6043668 112.715909,44.2375546 112.420455,43.9441048 C112.346591,43.8707424 112.198864,43.7240175 112.125,43.650655 C111.607955,43.1371179 111.090909,42.6235808 110.5,42.1100437 C110.426136,42.0366812 110.278409,41.8899563 110.130682,41.8165939 C109.835227,41.5231441 109.465909,41.2296943 109.170455,40.9362445 C108.948864,40.7161572 108.653409,40.4960699 108.431818,40.2759825 C108.136364,40.0558952 107.840909,39.7624454 107.545455,39.5423581 C107.028409,39.028821 106.4375,38.5886463 105.846591,38.0751092 C105.625,37.8550218 105.329545,37.6349345 105.107955,37.4148472 C105.034091,37.3414847 104.960227,37.2681223 104.886364,37.1947598 C104.590909,36.9746725 104.295455,36.6812227 103.926136,36.4611354 C103.335227,36.0209607 102.818182,35.5074236 102.227273,35.0672489 C101.784091,34.7004367 101.414773,34.4069869 100.971591,34.0401747 C100.380682,33.6 99.8636364,33.1598253 99.2727273,32.7196507 C99.125,32.5729258 98.9772727,32.4995633 98.8295455,32.3528384 C98.6079545,32.2061135 98.3863636,31.9860262 98.1647727,31.8393013 C97.3522727,31.1790393 96.4659091,30.5187773 95.6534091,29.8585153 C95.2840909,29.5650655 94.9886364,29.3449782 94.6193182,29.0515284 C93.5113636,28.171179 92.4034091,27.3641921 91.2954545,26.5572052 C91.2954545,26.5572052 91.2954545,26.5572052 91.2215909,26.5572052 C91.2215909,26.5572052 91.2215909,26.5572052 91.2215909,26.5572052 C90.0397727,25.6768559 88.9318182,24.869869 87.75,24.0628821 C87.4545455,23.8427948 87.0852273,23.6227074 86.7897727,23.4026201 C85.9034091,22.7423581 85.0170455,22.1554585 84.1306818,21.568559 C83.9829545,21.4218341 83.7613636,21.3484716 83.6136364,21.2017467 C83.5397727,21.1283843 83.4659091,21.1283843 83.3920455,21.0550218 C82.6534091,20.5414847 81.9886364,20.10131 81.25,19.6611354 C81.0284091,19.5144105 80.8806818,19.3676856 80.6590909,19.2943231 C79.7727273,18.7074236 78.9602273,18.1938865 78.2215909,17.6803493 C78.2215909,17.6803493 78.1477273,17.6069869 78.1477273,17.6069869 C77.5568182,17.2401747 76.9659091,16.8733624 76.375,16.5065502 C76.2272727,16.4331878 76.0795455,16.3598253 75.9318182,16.2864629 C75.6363636,16.0663755 75.2670455,15.8462882 74.9715909,15.6995633 C74.75,15.6262009 74.6022727,15.479476 74.4545455,15.4061135 C73.9375,15.1126638 73.3465909,14.7458515 72.6818182,14.4524017 C72.6079545,14.4524017 72.6079545,14.3790393 72.5340909,14.3790393 C72.5340909,14.3790393 72.4602273,14.3790393 72.4602273,14.3056769 C71.9431818,14.0122271 71.3522727,13.7187773 70.7613636,13.4253275 C70.6875,13.3519651 70.6136364,13.3519651 70.4659091,13.2786026 C69.8011364,12.9117904 69.0625,12.5449782 68.3238636,12.1781659 C68.3238636,12.1781659 68.3238636,12.1781659 68.25,12.1781659 C67.3636364,11.7379913 66.4034091,11.2978166 65.4431818,10.8576419 C65.1477273,10.710917 64.8522727,10.5641921 64.5568182,10.4908297 C63.8920455,10.1973799 63.1534091,9.83056769 62.4147727,9.5371179 C62.2670455,9.46375546 62.1193182,9.39039301 61.9715909,9.31703057 C61.75,9.24366812 61.6022727,9.17030568 61.3806818,9.09694323 C60.6420455,8.730131 59.8295455,8.43668122 59.0170455,8.069869 C58.6477273,7.9231441 58.3522727,7.77641921 57.9829545,7.62969432 C56.875,7.18951965 55.7670455,6.74934498 54.6590909,6.30917031 C54.6590909,6.30917031 54.6590909,6.30917031 54.5852273,6.30917031 C54.5852273,6.30917031 54.5852273,6.30917031 54.5852273,6.30917031 C53.5511364,5.86899563 52.5170455,5.50218341 51.4829545,5.13537118 C51.1875,4.98864629 50.8181818,4.91528384 50.5227273,4.76855895 C49.8579545,4.47510917 49.1193182,4.25502183 48.4545455,4.0349345 C48.3068182,3.96157205 48.2329545,3.96157205 48.0852273,3.88820961 C47.7159091,3.74148472 47.3465909,3.66812227 46.9772727,3.52139738 C46.6079545,3.37467249 46.2386364,3.2279476 45.8693182,3.15458515 C45.3522727,3.00786026 44.8352273,2.78777293 44.2443182,2.64104803 C43.875,2.56768559 43.5795455,2.4209607 43.2102273,2.34759825 C43.1363636,2.34759825 43.0625,2.27423581 42.9886364,2.27423581 C42.25,2.05414847 41.5852273,1.83406114 40.8465909,1.68733624 C40.6988636,1.6139738 40.4772727,1.6139738 40.3295455,1.54061135 C39.9602273,1.46724891 39.5170455,1.32052402 39.1477273,1.24716157 C39,1.24716157 38.8522727,1.17379913 38.7784091,1.17379913 C38.1875,1.02707424 37.6704545,0.95371179 37.1534091,0.8069869 C36.9318182,0.733624454 36.7102273,0.660262009 36.4886364,0.660262009 C36.4147727,0.660262009 36.3409091,0.660262009 36.2670455,0.586899563 C35.8977273,0.513537118 35.6022727,0.513537118 35.3068182,0.440174672 C35.0113636,0.366812227 34.7159091,0.366812227 34.4204545,0.293449782 C34.1988636,0.293449782 34.0511364,0.220087336 33.8295455,0.220087336 L23.8579545,6.01572052 C24.3011364,6.08908297 24.8181818,6.16244541 25.2613636,6.23580786 C25.5568182,6.30917031 25.9261364,6.30917031 26.2215909,6.38253275 C26.5170455,6.74934498 26.8125,6.82270742 27.1818182,6.89606987 Z" id="Path" fill="#EADBFF"></path>
                    <g transform="translate(24.375000, 31.545852)" id="Path">
                        <path d="M14.4772727,77.7641921 C14.8465909,77.9842795 15.2159091,78.0576419 15.5113636,77.9842795 C16.3238636,77.8375546 16.5454545,76.590393 15.9545455,75.3432314 C15.5852273,74.5362445 14.9943182,73.8759825 14.4772727,73.5825328 C14.1079545,73.3624454 13.7386364,73.289083 13.4431818,73.3624454 C12.6306818,73.5825328 12.4090909,74.7563319 13,76.0034934 C13.2954545,76.8104803 13.8863636,77.3973799 14.4772727,77.7641921 Z" fill="url(#linearGradient-5)"></path>
                        <path d="M74.1590909,92.5834061 C74.4545455,91.7030568 73.9375,90.1624454 73.0511364,89.2820961 C72.8295455,89.0620087 72.6818182,88.9152838 72.4602273,88.8419214 C71.7215909,88.4017467 70.9829545,88.5484716 70.7613636,89.2820961 C70.4659091,90.1624454 70.9090909,91.6296943 71.8693182,92.5834061 C72.0909091,92.8034934 72.2386364,92.8768559 72.4602273,93.0235808 C73.1988636,93.4637555 73.9375,93.3170306 74.1590909,92.5834061 Z" fill="url(#linearGradient-6)"></path>
                        <path d="M39.2215909,12.9851528 C40.1079545,13.49869 40.9204545,13.2052402 41.0681818,12.2515284 C41.2159091,11.1510917 40.5511364,9.75720524 39.5170455,8.95021834 C39.4431818,8.8768559 39.3693182,8.80349345 39.2215909,8.80349345 C38.3352273,8.28995633 37.5227273,8.58340611 37.375,9.5371179 C37.2272727,10.5641921 37.8920455,12.031441 38.9261364,12.7650655 C39.0738636,12.8384279 39.1477273,12.9117904 39.2215909,12.9851528 Z" fill="url(#linearGradient-7)"></path>
                        <path d="M40.0340909,114.59214 C40.2556818,114.738865 40.4772727,114.812227 40.6988636,114.812227 C41.6590909,114.88559 42.1022727,113.931878 41.7329545,112.684716 C41.4375,111.731004 40.7727273,110.850655 40.0340909,110.41048 C39.8125,110.263755 39.5909091,110.190393 39.3693182,110.190393 C38.4090909,110.117031 37.9659091,111.070742 38.3352273,112.317904 C38.6306818,113.344978 39.2954545,114.225328 40.0340909,114.59214 Z" fill="url(#linearGradient-8)"></path>
                        <path d="M3.32386364,36.3144105 C3.39772727,36.3877729 3.47159091,36.3877729 3.61931818,36.4611354 C4.57954545,36.8279476 5.31818182,36.1676856 5.17045455,34.9938865 C5.02272727,33.8934498 4.28409091,32.6462882 3.39772727,32.2061135 C3.32386364,32.1327511 3.25,32.1327511 3.10227273,32.0593886 C2.14204545,31.6925764 1.40340909,32.3528384 1.55113636,33.5266376 C1.625,34.6270742 2.4375,35.8008734 3.32386364,36.3144105 Z" fill="url(#linearGradient-9)"></path>
                        <path d="M54.2159091,113.344978 C54.5852273,113.565066 55.0284091,113.638428 55.3238636,113.565066 C56.1363636,113.271616 56.2840909,112.097817 55.6193182,110.777293 C55.25,110.043668 54.7329545,109.456769 54.2159091,109.163319 C53.8465909,108.943231 53.4034091,108.869869 53.1079545,108.943231 C52.2954545,109.236681 52.2215909,110.483843 52.8125,111.731004 C53.1818182,112.464629 53.6988636,113.051528 54.2159091,113.344978 Z" fill="url(#linearGradient-10)"></path>
                        <path d="M4.0625,15.9930131 C4.0625,14.819214 3.25,13.4253275 2.28977273,12.8384279 C2.28977273,12.8384279 2.28977273,12.8384279 2.28977273,12.8384279 C1.25568182,12.2515284 0.443181818,12.6917031 0.443181818,13.8655022 C0.443181818,15.0393013 1.25568182,16.4331878 2.28977273,17.0200873 C3.25,17.5336245 4.0625,17.0934498 4.0625,15.9930131 Z" fill="url(#linearGradient-11)"></path>
                        <path d="M22.3068182,4.98864629 C22.3806818,5.06200873 22.5284091,5.06200873 22.6022727,5.13537118 C23.5625,5.50218341 24.3011364,4.8419214 24.1534091,3.66812227 C24.0056818,2.56768559 23.2670455,1.39388646 22.3806818,0.880349345 C22.3068182,0.8069869 22.1590909,0.8069869 22.0852273,0.733624454 C21.125,0.366812227 20.3863636,1.02707424 20.5340909,2.27423581 C20.6079545,3.30131004 21.4204545,4.47510917 22.3068182,4.98864629 Z" fill="url(#linearGradient-12)"></path>
                        <path d="M65.1477273,43.7973799 C65.2215909,43.8707424 65.3693182,43.8707424 65.4431818,43.9441048 C66.4034091,44.310917 67.1420455,43.650655 66.9943182,42.4768559 C66.8465909,41.3764192 66.1079545,40.2026201 65.2215909,39.689083 C65.1477273,39.6157205 65.0738636,39.6157205 64.9261364,39.5423581 C63.9659091,39.1755459 63.2272727,39.8358079 63.375,41.009607 C63.4488636,42.1100437 64.2613636,43.2838428 65.1477273,43.7973799 Z" fill="url(#linearGradient-13)"></path>
                        <path d="M56.2102273,24.209607 C57.0965909,24.7231441 57.9090909,24.4296943 58.0568182,23.4759825 C58.2045455,22.3755459 57.5397727,20.9816594 56.5056818,20.1746725 C56.4318182,20.10131 56.3579545,20.0279476 56.2102273,20.0279476 C55.3238636,19.5144105 54.5113636,19.8078603 54.3636364,20.7615721 C54.2159091,21.7886463 54.8806818,23.2558952 55.9147727,23.9895197 C55.9886364,24.0628821 56.0625,24.1362445 56.2102273,24.209607 Z" fill="url(#linearGradient-14)"></path>
                        <path d="M77.2613636,58.6899563 C78.2954545,59.2768559 79.1079545,58.7633188 79.0340909,57.5895197 C79.0340909,56.4157205 78.2215909,55.0951965 77.2613636,54.5082969 C77.2613636,54.5082969 77.2613636,54.5082969 77.1875,54.5082969 C76.1534091,53.9213974 75.3409091,54.4349345 75.4147727,55.6087336 C75.3409091,56.7091703 76.1534091,58.1030568 77.2613636,58.6899563 L77.2613636,58.6899563 Z" fill="url(#linearGradient-15)"></path>
                        <path d="M14.1818182,15.8462882 C15.0681818,16.3598253 15.8806818,16.0663755 16.0284091,15.1126638 C16.1761364,14.0855895 15.5113636,12.6183406 14.4772727,11.8847162 C14.4034091,11.8113537 14.2556818,11.7379913 14.1818182,11.6646288 C13.2954545,11.1510917 12.4829545,11.4445415 12.3352273,12.3982533 C12.1875,13.4253275 12.8522727,14.8925764 13.8863636,15.6995633 C14.0340909,15.7729258 14.1079545,15.7729258 14.1818182,15.8462882 Z" fill="url(#linearGradient-16)"></path>
                        <path d="M25.7045455,97.7921397 C25.8522727,97.8655022 26,97.9388646 26.1477273,97.9388646 C26.5170455,98.0855895 26.8863636,98.0122271 27.1818182,97.7921397 C27.4034091,97.6454148 27.4772727,97.3519651 27.5511364,97.0585153 C27.5511364,96.9117904 27.5511364,96.8384279 27.5511364,96.6917031 C27.5511364,96.4716157 27.4772727,96.2515284 27.4772727,96.031441 C27.3295455,95.5912664 27.1818182,95.1510917 26.8863636,94.710917 C26.5909091,94.1973799 26.1477273,93.8305677 25.7784091,93.6104803 C25.4090909,93.390393 25.0397727,93.3170306 24.7443182,93.390393 C24.5965909,93.390393 24.4488636,93.4637555 24.375,93.6104803 C24.3011364,93.6104803 24.3011364,93.6838428 24.3011364,93.7572052 C24.0795455,93.9772926 24.0056818,94.3441048 24.0056818,94.7842795 C24.0056818,94.8576419 24.0056818,94.9310044 24.0056818,95.0043668 C24.0795455,95.5912664 24.3011364,96.1781659 24.6704545,96.7650655 C24.9659091,97.2052402 25.3352273,97.5720524 25.7045455,97.7921397 Z" fill="url(#linearGradient-17)"></path>
                        <path d="M7.16477273,56.7825328 C7.38636364,56.9292576 7.60795455,57.0026201 7.75568182,57.0026201 C8.71590909,57.149345 9.23295455,56.2689956 8.86363636,54.9484716 C8.56818182,53.9213974 7.90340909,52.9676856 7.16477273,52.6008734 C6.94318182,52.4541485 6.72159091,52.380786 6.57386364,52.380786 C5.61363636,52.2340611 5.09659091,53.1144105 5.46590909,54.4349345 C5.6875,55.4620087 6.42613636,56.3423581 7.16477273,56.7825328 Z" fill="url(#linearGradient-18)"></path>
                        <path d="M65.2954545,105.788646 C65.8863636,106.155459 66.4772727,106.155459 66.8465909,105.715284 C67.4375,105.055022 67.1420455,103.661135 66.3295455,102.560699 C66.0340909,102.120524 65.6647727,101.827074 65.2954545,101.606987 C64.7045455,101.240175 64.1136364,101.240175 63.7443182,101.680349 C63.1534091,102.340611 63.4488636,103.734498 64.2613636,104.834934 C64.6306818,105.348472 64.9261364,105.641921 65.2954545,105.788646 Z" fill="url(#linearGradient-19)"></path>
                        <path d="M76.2272727,76.8838428 C77.1136364,77.3973799 77.9261364,77.1039301 78,76.1502183 C78.1477273,75.1231441 77.4829545,73.6558952 76.4488636,72.9222707 C76.375,72.8489083 76.3011364,72.7755459 76.2272727,72.7755459 C75.3409091,72.2620087 74.5284091,72.5554585 74.3806818,73.5091703 C74.2329545,74.5362445 74.9715909,76.0034934 75.9318182,76.7371179 C76.0056818,76.7371179 76.1534091,76.8104803 76.2272727,76.8838428 Z" fill="url(#linearGradient-20)"></path>
                    </g>
                    <g opacity="0.2" transform="translate(25.852273, 30.812227)" id="Path">
                        <path d="M14.4034091,77.3240175 C14.7727273,77.5441048 15.1420455,77.6174672 15.4375,77.5441048 C16.25,77.3973799 16.4715909,76.1502183 15.8806818,74.9030568 C15.5113636,74.0960699 14.9204545,73.4358079 14.4034091,73.1423581 C14.0340909,72.9222707 13.6647727,72.8489083 13.3693182,72.9222707 C12.5568182,73.1423581 12.3352273,74.3161572 12.9261364,75.5633188 C13.2954545,76.3703057 13.8125,77.0305677 14.4034091,77.3240175 Z" fill="url(#linearGradient-21)"></path>
                        <path d="M74.0852273,92.2165939 C74.3806818,91.3362445 73.8636364,89.7956332 72.9772727,88.9152838 C72.7556818,88.6951965 72.6079545,88.5484716 72.3863636,88.4751092 C71.6477273,88.0349345 70.9090909,88.1816594 70.6875,88.9152838 C70.3920455,89.7956332 70.8352273,91.2628821 71.7954545,92.2165939 C72.0170455,92.4366812 72.1647727,92.5100437 72.3863636,92.6567686 C73.125,93.0235808 73.8636364,92.8768559 74.0852273,92.2165939 Z" fill="url(#linearGradient-22)"></path>
                        <path d="M39.1477273,12.5449782 C40.0340909,13.0585153 40.8465909,12.7650655 40.9943182,11.8113537 C41.1420455,10.710917 40.4772727,9.31703057 39.4431818,8.51004367 C39.3693182,8.43668122 39.2954545,8.36331878 39.1477273,8.36331878 C38.2613636,7.84978166 37.4488636,8.14323144 37.3011364,9.09694323 C37.1534091,10.1240175 37.8181818,11.5912664 38.8522727,12.3248908 C39,12.4716157 39.0738636,12.5449782 39.1477273,12.5449782 Z" fill="url(#linearGradient-23)"></path>
                        <path d="M39.9602273,114.225328 C40.1818182,114.372052 40.4034091,114.445415 40.625,114.445415 C41.5852273,114.518777 42.0284091,113.565066 41.6590909,112.317904 C41.3636364,111.364192 40.6988636,110.483843 39.9602273,110.043668 C39.7386364,109.896943 39.5170455,109.823581 39.2954545,109.823581 C38.3352273,109.750218 37.8920455,110.70393 38.2613636,111.951092 C38.5568182,112.904803 39.2215909,113.785153 39.9602273,114.225328 Z" fill="url(#linearGradient-24)"></path>
                        <path d="M3.25,35.9475983 C3.32386364,36.0209607 3.39772727,36.0209607 3.54545455,36.0943231 C4.50568182,36.4611354 5.24431818,35.8008734 5.09659091,34.6270742 C4.94886364,33.5266376 4.21022727,32.279476 3.32386364,31.8393013 C3.25,31.7659389 3.17613636,31.7659389 3.02840909,31.6925764 C2.06818182,31.3257642 1.32954545,31.9860262 1.47727273,33.1598253 C1.55113636,34.260262 2.36363636,35.4340611 3.25,35.9475983 Z" fill="url(#linearGradient-25)"></path>
                        <path d="M54.1420455,112.978166 C54.5113636,113.198253 54.9545455,113.271616 55.25,113.198253 C56.0625,112.904803 56.2102273,111.731004 55.5454545,110.41048 C55.1761364,109.676856 54.6590909,109.089956 54.1420455,108.796507 C53.7727273,108.576419 53.3295455,108.503057 53.0340909,108.576419 C52.2215909,108.869869 52.1477273,110.117031 52.7386364,111.364192 C53.1079545,112.097817 53.625,112.611354 54.1420455,112.978166 Z" fill="url(#linearGradient-26)"></path>
                        <path d="M4.0625,15.5528384 C4.0625,14.3790393 3.25,12.9851528 2.28977273,12.3982533 C2.28977273,12.3982533 2.28977273,12.3982533 2.28977273,12.3982533 C1.25568182,11.8113537 0.443181818,12.2515284 0.443181818,13.4253275 C0.443181818,14.5991266 1.25568182,15.9930131 2.28977273,16.5799127 C3.17613636,17.1668122 3.98863636,16.7266376 4.0625,15.5528384 Z" fill="url(#linearGradient-27)"></path>
                        <path d="M22.2329545,4.54847162 C22.3068182,4.62183406 22.4545455,4.62183406 22.5284091,4.69519651 C23.4886364,5.06200873 24.2272727,4.40174672 24.0795455,3.2279476 C23.9318182,2.12751092 23.1931818,0.95371179 22.3068182,0.440174672 C22.2329545,0.366812227 22.0852273,0.366812227 22.0113636,0.293449782 C21.0511364,-0.0733624454 20.3125,0.586899563 20.4602273,1.83406114 C20.5340909,2.86113537 21.3465909,4.0349345 22.2329545,4.54847162 Z" fill="url(#linearGradient-28)"></path>
                        <path d="M65.0738636,43.4305677 C65.1477273,43.5039301 65.2954545,43.5039301 65.3693182,43.5772926 C66.3295455,43.9441048 67.0681818,43.2838428 66.9204545,42.1100437 C66.7727273,41.009607 66.0340909,39.8358079 65.1477273,39.3222707 C65.0738636,39.2489083 65,39.2489083 64.8522727,39.1755459 C63.8920455,38.8087336 63.1534091,39.4689956 63.3011364,40.6427948 C63.375,41.669869 64.1875,42.9170306 65.0738636,43.4305677 Z" fill="url(#linearGradient-29)"></path>
                        <path d="M56.1363636,23.8427948 C57.0227273,24.3563319 57.8352273,24.0628821 57.9829545,23.1091703 C58.1306818,22.0087336 57.4659091,20.6148472 56.4318182,19.8078603 C56.3579545,19.7344978 56.2840909,19.6611354 56.1363636,19.6611354 C55.25,19.1475983 54.4375,19.441048 54.2897727,20.3947598 C54.1420455,21.4218341 54.8068182,22.889083 55.8409091,23.6227074 C55.9147727,23.6960699 55.9886364,23.7694323 56.1363636,23.8427948 Z" fill="url(#linearGradient-30)"></path>
                        <path d="M77.1875,58.3231441 C78.2215909,58.9100437 79.0340909,58.3965066 78.9602273,57.2227074 C78.9602273,56.0489083 78.1477273,54.7283843 77.1875,54.1414847 C77.1875,54.1414847 77.1875,54.1414847 77.1136364,54.1414847 C76.0795455,53.5545852 75.2670455,54.0681223 75.3409091,55.2419214 C75.3409091,56.3423581 76.1534091,57.7362445 77.1875,58.3231441 L77.1875,58.3231441 Z" fill="url(#linearGradient-31)"></path>
                        <path d="M14.1079545,15.479476 C14.9943182,15.9930131 15.8068182,15.6995633 15.9545455,14.7458515 C16.1022727,13.7187773 15.4375,12.2515284 14.4034091,11.5179039 C14.3295455,11.4445415 14.1818182,11.371179 14.1079545,11.2978166 C13.2215909,10.7842795 12.4090909,11.0777293 12.2613636,12.031441 C12.1136364,13.0585153 12.7784091,14.5257642 13.8125,15.3327511 C13.9602273,15.3327511 14.0340909,15.4061135 14.1079545,15.479476 Z" fill="url(#linearGradient-32)"></path>
                        <path d="M25.6306818,97.4253275 C25.7784091,97.49869 25.9261364,97.5720524 26.0738636,97.5720524 C26.4431818,97.7187773 26.8125,97.6454148 27.1079545,97.4253275 C27.3295455,97.2786026 27.4034091,96.9851528 27.4772727,96.6917031 C27.4772727,96.5449782 27.4772727,96.4716157 27.4772727,96.3248908 C27.4772727,96.1048035 27.4034091,95.8847162 27.4034091,95.6646288 C27.2556818,95.2244541 27.1079545,94.7842795 26.8125,94.3441048 C26.5170455,93.8305677 26.0738636,93.4637555 25.7045455,93.2436681 C25.3352273,93.0235808 24.9659091,92.9502183 24.6704545,93.0235808 C24.5227273,93.0235808 24.375,93.0969432 24.3011364,93.2436681 C24.2272727,93.2436681 24.2272727,93.3170306 24.2272727,93.390393 C24.0056818,93.6104803 23.9318182,93.9772926 23.9318182,94.4174672 C23.9318182,94.4908297 23.9318182,94.5641921 23.9318182,94.6375546 C24.0056818,95.2244541 24.2272727,95.8113537 24.5965909,96.3982533 C24.8920455,96.8384279 25.2613636,97.2052402 25.6306818,97.4253275 Z" fill="url(#linearGradient-33)"></path>
                        <path d="M7.09090909,56.4157205 C7.3125,56.5624454 7.53409091,56.6358079 7.68181818,56.6358079 C8.64204545,56.7825328 9.15909091,55.9021834 8.78977273,54.5816594 C8.49431818,53.5545852 7.82954545,52.6008734 7.09090909,52.2340611 C6.86931818,52.0873362 6.64772727,52.0139738 6.5,52.0139738 C5.53977273,51.8672489 5.02272727,52.7475983 5.39204545,54.0681223 C5.6875,55.0218341 6.35227273,55.9755459 7.09090909,56.4157205 Z" fill="url(#linearGradient-34)"></path>
                        <path d="M65.2215909,105.421834 C65.8125,105.788646 66.4034091,105.788646 66.7727273,105.348472 C67.3636364,104.68821 67.0681818,103.294323 66.2556818,102.193886 C65.9602273,101.753712 65.5909091,101.460262 65.2215909,101.240175 C64.6306818,100.873362 64.0397727,100.873362 63.6704545,101.313537 C63.0795455,101.973799 63.375,103.367686 64.1875,104.468122 C64.5568182,104.908297 64.8522727,105.201747 65.2215909,105.421834 Z" fill="url(#linearGradient-35)"></path>
                        <path d="M76.1534091,76.4436681 C77.0397727,76.9572052 77.8522727,76.6637555 77.9261364,75.7100437 C78.0738636,74.6829694 77.4090909,73.2157205 76.375,72.4820961 C76.3011364,72.4087336 76.2272727,72.3353712 76.1534091,72.3353712 C75.2670455,71.8218341 74.4545455,72.1152838 74.3068182,73.0689956 C74.1590909,74.0960699 74.8977273,75.5633188 75.8579545,76.2969432 C76.0056818,76.3703057 76.0795455,76.4436681 76.1534091,76.4436681 Z" fill="url(#linearGradient-36)"></path>
                    </g>
                </g>
            </g>
        </g>
    </g>
</svg>