<?xml version="1.0" encoding="UTF-8"?>
<svg width="183px" height="180px" viewBox="0 0 183 180" version="1.1" xmlns="http://www.w3.org/2000/svg" xmlns:xlink="http://www.w3.org/1999/xlink">
    <!-- Generator: Sketch 55.1 (78136) - https://sketchapp.com -->
    <title>Group</title>
    <desc>Created with Sketch.</desc>
    <defs>
        <linearGradient x1="53.0514302%" y1="68.4465176%" x2="42.0774371%" y2="-0.845829751%" id="linearGradient-1">
            <stop stop-color="#360F59" offset="0.2852183%"></stop>
            <stop stop-color="#962BF0" offset="99.82%"></stop>
        </linearGradient>
        <linearGradient x1="28.9431738%" y1="88.5402306%" x2="64.7958916%" y2="16.6441163%" id="linearGradient-2">
            <stop stop-color="#360F59" offset="0.2852183%"></stop>
            <stop stop-color="#962BF0" offset="99.82%"></stop>
        </linearGradient>
        <linearGradient x1="49.996668%" y1="2.24296388%" x2="49.996668%" y2="81.9143113%" id="linearGradient-3">
            <stop stop-color="#F4EDFF" offset="0%"></stop>
            <stop stop-color="#E0D3F5" offset="54.21%"></stop>
        </linearGradient>
        <linearGradient x1="0.0528497409%" y1="50.0974668%" x2="100.234197%" y2="50.0974668%" id="linearGradient-4">
            <stop stop-color="#3CDC7C" offset="0%"></stop>
            <stop stop-color="#95EBB1" offset="100%"></stop>
        </linearGradient>
        <linearGradient x1="-26.9590734%" y1="98.2161735%" x2="80.803861%" y2="29.7685507%" id="linearGradient-5">
            <stop stop-color="#3CDC7C" offset="0%"></stop>
            <stop stop-color="#95EBB1" offset="100%"></stop>
        </linearGradient>
        <linearGradient x1="-26.3158301%" y1="98.3276015%" x2="81.4486486%" y2="29.8795382%" id="linearGradient-6">
            <stop stop-color="#3CDC7C" offset="0%"></stop>
            <stop stop-color="#95EBB1" offset="100%"></stop>
        </linearGradient>
    </defs>
    <g id="💜-Symbols" stroke="none" stroke-width="1" fill="none" fill-rule="evenodd">
        <g id="illustration-/-hero" transform="translate(-158.000000, -420.000000)">
            <g id="illustration" transform="translate(-9.000000, 0.000000)">
                <g id="Group" transform="translate(167.000000, 420.000000)">
                    <polygon id="Path" fill="#19042D" points="49.7878543 39.1721311 46.4538462 41.0901639 97.2789474 70.3032787 100.538866 68.3852459"></polygon>
                    <polygon id="Path" fill="#19042D" points="62.382996 47.2131148 85.1283401 34.0081967 81.794332 32.0901639 59.0489879 45.295082 59.7157895 45.6639344 61.7161943 46.8442623"></polygon>
                    <path d="M81.0534413,34.5245902 C85.4246964,36.5901639 91.7963563,36.5901639 96.1676113,34.5245902 C96.4639676,34.3770492 96.7603239,34.2295082 97.0566802,34.0819672 C101.724291,31.4262295 101.650202,27 96.9825911,24.3442623 C96.6862348,24.1967213 96.3898785,24.0491803 96.1676113,23.9016393 C91.7963563,21.8360656 85.4987854,21.8360656 81.1275304,23.8278689 C80.8311741,23.9754098 80.4607287,24.1229508 80.1643725,24.3442623 C75.4967611,27 75.5708502,31.352459 80.2384615,34.0819672 C80.4607287,34.2295082 80.757085,34.3770492 81.0534413,34.5245902 Z M81.0534413,28.9918033 C81.1275304,27.9590164 81.8684211,26.9262295 83.2020243,26.1147541 C86.165587,24.4180328 90.9072874,24.4180328 93.8708502,26.1147541 C96.834413,27.8114754 96.834413,30.5409836 93.8708502,32.2377049 C90.9072874,33.9344262 86.165587,33.9344262 83.2020243,32.2377049 C81.794332,31.4262295 81.0534413,30.3934426 80.9793522,29.3606557 C81.0534413,29.2131148 81.0534413,29.1393443 81.0534413,28.9918033 Z" id="Shape" fill="#19042D" fill-rule="nonzero"></path>
                    <path d="M125.284615,160.45082 C125.580972,160.229508 125.877328,159.934426 126.099595,159.639344 C126.247773,159.491803 126.321862,159.418033 126.47004,159.270492 C126.766397,158.901639 127.062753,158.532787 127.359109,158.163934 C127.433198,158.090164 127.433198,158.016393 127.507287,157.942623 C127.507287,157.942623 127.507287,157.942623 127.507287,157.868852 C127.803644,157.42623 128.1,156.909836 128.322267,156.393443 C128.322267,156.393443 128.322267,156.319672 128.322267,156.319672 C128.322267,156.245902 128.396356,156.172131 128.396356,156.172131 C128.544534,155.803279 128.692713,155.508197 128.840891,155.139344 C128.91498,154.991803 128.989069,154.770492 128.989069,154.622951 C128.989069,154.54918 129.063158,154.401639 129.063158,154.327869 C129.063158,154.254098 129.137247,154.106557 129.137247,154.032787 C129.211336,153.663934 129.359514,153.295082 129.433603,152.92623 C129.433603,152.778689 129.507692,152.631148 129.507692,152.483607 C129.507692,152.409836 129.507692,152.336066 129.581781,152.188525 C129.581781,152.040984 129.65587,151.893443 129.65587,151.819672 C129.72996,151.45082 129.804049,151.155738 129.804049,150.786885 C129.804049,150.565574 129.878138,150.418033 129.878138,150.196721 C129.878138,150.122951 129.878138,150.04918 129.878138,149.97541 C129.878138,149.901639 129.878138,149.827869 129.878138,149.754098 C129.878138,149.385246 129.952227,149.090164 129.952227,148.721311 C129.952227,148.352459 129.952227,147.983607 129.952227,147.688525 C129.952227,147.688525 129.952227,147.614754 129.952227,147.614754 L130.100405,92.4344262 L101.576113,108.885246 L101.427935,164.065574 C101.427935,164.877049 101.353846,165.688525 101.279757,166.5 C101.279757,166.57377 101.279757,166.647541 101.279757,166.721311 C101.205668,167.459016 101.131579,168.122951 100.983401,168.786885 C100.983401,168.860656 100.983401,168.934426 100.909312,169.081967 C100.761134,169.745902 100.612955,170.336066 100.464777,170.92623 C100.464777,171 100.390688,171.147541 100.390688,171.221311 C100.24251,171.737705 100.020243,172.327869 99.7979757,172.770492 C99.7979757,172.844262 99.7238866,172.918033 99.7238866,172.918033 C99.4275304,173.508197 99.1311741,174.02459 98.8348178,174.540984 C98.7607287,174.614754 98.7607287,174.688525 98.6866397,174.762295 C98.3902834,175.131148 98.0939271,175.57377 97.7975709,175.868852 C97.7234818,176.016393 97.5753036,176.090164 97.4271255,176.237705 C97.1307692,176.532787 96.908502,176.754098 96.6121457,177.04918 C96.4639676,177.122951 96.3898785,177.270492 96.2417004,177.344262 C95.797166,177.639344 95.4267206,178.008197 94.9821862,178.229508 L123.432389,161.778689 C123.876923,161.483607 124.321457,161.188525 124.691903,160.893443 C125.062348,160.672131 125.210526,160.52459 125.284615,160.45082 Z" id="Path" fill="url(#linearGradient-1)"></path>
                    <polygon id="Path" fill="#BC83FF" points="48.2319838 45.0737705 19.7817814 61.5245902 101.798381 108.737705 130.322672 92.2131148"></polygon>
                    <path d="M79.4234818,176.532787 C91.6481781,183.540984 101.724291,177.934426 101.798381,163.918033 L101.798381,108.737705 L19.7817814,61.5245902 L19.6331912,116.704918 C19.5595142,130.721311 29.4874494,147.762295 41.7121457,154.844262 L79.4234818,176.532787 Z" id="Path" fill="url(#linearGradient-2)"></path>
                    <path d="M56.3817814,142.52459 C57.5672065,143.188525 58.7526316,143.557377 59.9380567,143.557377 C60.9012146,143.557377 61.8643725,143.336066 62.6793522,142.819672 C64.5315789,141.786885 65.5688259,139.795082 65.5688259,137.286885 L65.5688259,126.885246 C67.4210526,125.409836 68.5323887,122.97541 68.5323887,119.95082 C68.5323887,114.270492 64.6797571,107.631148 59.7157895,104.827869 C56.7522267,103.131148 53.7145749,102.983607 51.3437247,104.311475 C48.9728745,105.639344 47.5651822,108.368852 47.5651822,111.688525 C47.5651822,114.713115 48.6024291,118.032787 50.5287449,121.057377 L50.5287449,132.418033 C50.5287449,136.254098 53.0477733,140.606557 56.3817814,142.52459 Z" id="Path" stroke="#FFFFFF" stroke-width="0.325" opacity="0.5"></path>
                    <path d="M113.652632,65.9508197 C113.356275,57.1721311 110.911336,48.6147541 107.42915,40.5737705 C103.650607,32.0163934 98.3902834,23.9754098 92.0186235,17.1147541 C86.2396761,10.9918033 79.3493927,5.45901639 71.4218623,2.50819672 C67.4951417,1.03278689 63.2720648,0.221311475 59.1230769,0.737704918 C55.0481781,1.18032787 50.9732794,2.80327869 47.417004,4.86885246 C43.045749,7.45081967 39.1190283,10.9918033 36.7481781,15.5655738 C33.9327935,21.0245902 33.5623482,27.0737705 33.5623482,33.0491803 C33.5623482,38.2868852 33.5623482,43.5245902 33.4882591,48.7622951 C33.4882591,52.1557377 33.1919028,55.5491803 33.4882591,58.942623 C33.7846154,63.2213115 40.6008097,63.6639344 43.7125506,63 C45.5647773,62.557377 48.0097166,61.5983607 48.454251,59.5327869 C48.5283401,59.0901639 48.5283401,58.647541 48.5283401,58.204918 C48.5283401,53.9262295 48.5283401,49.647541 48.5283401,45.3688525 C48.5283401,40.647541 48.5283401,35.9262295 48.6024291,31.204918 C48.6024291,28.5491803 48.7506073,25.8934426 49.3433198,23.2377049 C49.8619433,21.0245902 50.6769231,18.8852459 51.8623482,16.8934426 C52.3809717,16.0081967 53.0477733,14.7540984 54.0850202,14.5327869 C55.1222672,14.3852459 56.1595142,14.3114754 57.1967611,14.3114754 C66.2356275,14.5327869 74.3854251,20.5819672 80.4607287,26.7786885 C86.6101215,33.1229508 91.4259109,40.7213115 94.6117409,48.9098361 C97.1307692,55.1803279 98.6125506,61.8196721 98.5384615,68.6065574 C98.5384615,73.1803279 98.5384615,77.7540984 98.4643725,82.3278689 C98.4643725,86.8278689 98.3902834,91.2540984 98.3902834,95.7540984 C98.3902834,98.557377 101.131579,99.9590164 103.576518,100.401639 C106.836437,100.991803 113.282186,100.401639 113.430364,96.0491803 C113.652632,87.3442623 113.504453,78.6393443 113.504453,69.9344262 C113.652632,68.6065574 113.652632,67.2786885 113.652632,65.9508197 Z" id="Path" fill="url(#linearGradient-3)"></path>
                    <path d="M58.9748988,139.647541 C61.2716599,140.97541 63.1979757,139.942623 63.1979757,137.286885 L63.1979757,124.893443 C64.9761134,124.45082 66.1615385,122.680328 66.1615385,119.95082 C66.1615385,115.45082 62.9757085,109.918033 59.0489879,107.631148 C55.1222672,105.344262 51.8623482,107.188525 51.8623482,111.688525 C51.8623482,114.418033 53.0477733,117.516393 54.8259109,120.02459 L54.8259109,132.418033 C54.7518219,135.147541 56.6781377,138.319672 58.9748988,139.647541 Z" id="Path" fill="url(#linearGradient-4)"></path>
                    <path d="M51.9364372,110.877049 C51.9364372,110.655738 52.0105263,110.434426 52.0105263,110.213115 C52.0105263,110.213115 52.0105263,110.139344 52.0105263,110.139344 C52.0846154,109.918033 52.0846154,109.770492 52.1587045,109.54918 C52.1587045,109.54918 52.1587045,109.47541 52.1587045,109.47541 C52.2327935,109.327869 52.3068826,109.106557 52.3809717,108.959016 C52.3809717,108.959016 52.3809717,108.959016 52.3809717,108.885246 C52.4550607,108.737705 52.5291498,108.516393 52.6773279,108.368852 C52.8255061,108.147541 52.9736842,107.92623 53.1959514,107.778689 C53.2700405,107.704918 53.2700405,107.704918 53.3441296,107.631148 C53.5663968,107.483607 53.862753,107.188525 54.0850202,107.114754 C53.0477733,107.704918 52.0105263,108.295082 52.0105263,108.295082 C51.7882591,108.442623 51.5659919,108.590164 51.4178138,108.737705 C51.3437247,108.811475 51.3437247,108.811475 51.2696356,108.885246 C51.1214575,109.032787 50.8991903,109.254098 50.7510121,109.47541 C50.7510121,109.47541 50.7510121,109.47541 50.7510121,109.47541 C50.6769231,109.622951 50.5287449,109.770492 50.4546559,109.991803 C50.4546559,109.991803 50.4546559,109.991803 50.4546559,109.991803 C50.4546559,109.991803 50.4546559,109.991803 50.4546559,110.065574 C50.3805668,110.139344 50.3805668,110.286885 50.3064777,110.434426 C50.3064777,110.508197 50.2323887,110.581967 50.2323887,110.581967 C50.2323887,110.581967 50.2323887,110.655738 50.2323887,110.655738 C50.2323887,110.655738 50.2323887,110.729508 50.2323887,110.729508 C50.2323887,110.877049 50.1582996,110.95082 50.1582996,111.098361 C50.1582996,111.172131 50.1582996,111.172131 50.1582996,111.245902 C50.1582996,111.245902 50.1582996,111.319672 50.1582996,111.319672 C50.1582996,111.393443 50.1582996,111.393443 50.1582996,111.467213 C50.1582996,111.614754 50.1582996,111.688525 50.0842105,111.836066 C50.0842105,111.909836 50.0842105,111.983607 50.0842105,112.057377 C50.0842105,112.057377 50.0842105,112.131148 50.0842105,112.131148 C50.0842105,112.131148 50.0842105,112.204918 50.0842105,112.204918 C50.0842105,112.278689 50.0842105,112.42623 50.0842105,112.57377 C50.0842105,112.721311 50.0842105,112.795082 50.0842105,112.942623 C50.0842105,112.942623 50.0842105,112.942623 50.0842105,112.942623 C50.0842105,113.016393 50.0842105,113.163934 50.0842105,113.237705 C50.0842105,113.385246 50.0842105,113.459016 50.0842105,113.606557 C50.0842105,113.754098 50.0842105,113.827869 50.0842105,113.97541 C50.0842105,113.97541 50.0842105,113.97541 50.0842105,113.97541 C50.0842105,113.97541 50.0842105,113.97541 50.0842105,113.97541 C50.0842105,114.04918 50.0842105,114.196721 50.0842105,114.270492 C50.0842105,114.418033 50.0842105,114.491803 50.1582996,114.639344 C50.1582996,114.786885 50.2323887,114.860656 50.2323887,115.008197 C50.2323887,115.008197 50.2323887,115.008197 50.2323887,115.008197 C50.2323887,115.008197 50.2323887,115.008197 50.2323887,115.008197 C50.2323887,115.155738 50.3064777,115.229508 50.3064777,115.377049 C50.3064777,115.52459 50.3805668,115.598361 50.3805668,115.745902 C50.3805668,115.893443 50.4546559,115.967213 50.4546559,116.114754 C50.4546559,116.114754 50.4546559,116.114754 50.4546559,116.114754 C50.4546559,116.114754 50.4546559,116.114754 50.4546559,116.114754 C50.4546559,116.262295 50.5287449,116.336066 50.5287449,116.483607 C50.602834,116.631148 50.602834,116.704918 50.6769231,116.852459 C50.6769231,116.92623 50.7510121,117.07377 50.7510121,117.147541 C50.7510121,117.147541 50.7510121,117.147541 50.7510121,117.147541 C50.7510121,117.147541 50.7510121,117.147541 50.7510121,117.221311 C50.8251012,117.368852 50.8251012,117.442623 50.8991903,117.590164 C50.9732794,117.737705 50.9732794,117.811475 51.0473684,117.959016 C51.1214575,118.032787 51.1214575,118.180328 51.1955466,118.254098 C51.1955466,118.254098 51.1955466,118.254098 51.1955466,118.254098 C51.1955466,118.254098 51.1955466,118.254098 51.1955466,118.254098 C51.2696356,118.401639 51.2696356,118.47541 51.3437247,118.622951 C51.4178138,118.770492 51.4919028,118.844262 51.4919028,118.991803 C51.5659919,119.065574 51.5659919,119.139344 51.640081,119.286885 C51.640081,119.286885 51.640081,119.360656 51.640081,119.360656 C51.640081,119.360656 51.640081,119.434426 51.71417,119.434426 C51.7882591,119.655738 51.9364372,119.877049 52.0846154,120.02459 C52.0846154,120.098361 52.1587045,120.098361 52.1587045,120.172131 C52.2327935,120.319672 52.3809717,120.467213 52.4550607,120.614754 C52.5291498,120.762295 52.6032389,120.836066 52.6773279,120.983607 C52.751417,121.057377 52.8255061,121.204918 52.8995951,121.278689 L52.8995951,121.278689 L52.8995951,121.278689 L52.8995951,133.672131 C52.8995951,133.745902 52.8995951,133.819672 52.8995951,133.893443 C52.8995951,133.967213 52.8995951,134.040984 52.8995951,134.114754 C52.8995951,134.188525 52.8995951,134.262295 52.8995951,134.336066 C52.8995951,134.409836 52.8995951,134.483607 52.8995951,134.557377 C52.8995951,134.631148 52.8995951,134.704918 52.8995951,134.778689 C52.8995951,134.778689 52.8995951,134.778689 52.8995951,134.778689 C52.8995951,134.778689 52.8995951,134.778689 52.8995951,134.778689 C52.8995951,134.852459 52.8995951,134.92623 52.8995951,135 C52.8995951,135.07377 52.8995951,135.147541 52.9736842,135.221311 C52.9736842,135.295082 52.9736842,135.368852 53.0477733,135.442623 C53.0477733,135.516393 53.1218623,135.590164 53.1218623,135.663934 C53.1218623,135.737705 53.1218623,135.811475 53.1959514,135.811475 C53.1959514,135.811475 53.1959514,135.811475 53.1959514,135.811475 C53.1959514,135.811475 53.1959514,135.811475 53.1959514,135.811475 C53.1959514,135.885246 53.2700405,135.959016 53.2700405,136.032787 C53.2700405,136.106557 53.3441296,136.180328 53.3441296,136.254098 C53.3441296,136.327869 53.4182186,136.401639 53.4182186,136.47541 C53.4182186,136.54918 53.4923077,136.622951 53.4923077,136.696721 C53.4923077,136.770492 53.5663968,136.770492 53.5663968,136.844262 C53.5663968,136.844262 53.5663968,136.844262 53.5663968,136.844262 C53.5663968,136.844262 53.5663968,136.844262 53.5663968,136.844262 C53.5663968,136.918033 53.6404858,136.991803 53.6404858,137.065574 C53.6404858,137.139344 53.7145749,137.213115 53.7145749,137.286885 C53.788664,137.360656 53.788664,137.434426 53.862753,137.508197 C53.9368421,137.581967 53.9368421,137.655738 54.0109312,137.803279 C54.0109312,137.803279 54.0109312,137.803279 54.0109312,137.877049 C54.0109312,137.877049 54.0109312,137.95082 54.0109312,137.95082 C54.0850202,138.098361 54.2331984,138.319672 54.3072874,138.467213 C54.3813765,138.614754 54.4554656,138.688525 54.6036437,138.836066 C54.6777328,138.909836 54.7518219,138.983607 54.8259109,139.057377 C54.9,139.131148 54.9,139.204918 54.9740891,139.278689 C55.0481781,139.352459 55.0481781,139.42623 55.1222672,139.5 C55.1963563,139.57377 55.1963563,139.647541 55.2704453,139.647541 C55.2704453,139.647541 55.2704453,139.647541 55.2704453,139.647541 C55.2704453,139.647541 55.2704453,139.647541 55.2704453,139.647541 C55.3445344,139.721311 55.3445344,139.721311 55.4186235,139.795082 C55.4927126,139.868852 55.5668016,139.942623 55.5668016,139.942623 C55.6408907,140.016393 55.7149798,140.090164 55.7149798,140.090164 C55.7890688,140.163934 55.8631579,140.163934 55.937247,140.237705 C55.937247,140.237705 56.011336,140.311475 56.011336,140.311475 C56.011336,140.311475 56.011336,140.311475 56.011336,140.311475 C56.011336,140.311475 56.0854251,140.385246 56.0854251,140.385246 C56.1595142,140.459016 56.2336032,140.459016 56.2336032,140.532787 C56.3076923,140.606557 56.3817814,140.606557 56.3817814,140.680328 C56.4558704,140.754098 56.5299595,140.754098 56.5299595,140.827869 C56.6040486,140.901639 56.6781377,140.901639 56.6781377,140.901639 C56.6781377,140.901639 56.6781377,140.901639 56.7522267,140.901639 C56.8263158,140.901639 56.8263158,140.97541 56.9004049,140.97541 C56.9744939,140.97541 57.048583,141.04918 57.048583,141.04918 C57.1226721,141.04918 57.1967611,141.122951 57.1967611,141.122951 C57.2708502,141.122951 57.3449393,141.196721 57.3449393,141.196721 C57.4190283,141.196721 57.4931174,141.270492 57.4931174,141.270492 C57.4931174,141.270492 57.4931174,141.270492 57.4931174,141.270492 C57.4931174,141.270492 57.4931174,141.270492 57.4931174,141.270492 C57.5672065,141.270492 57.5672065,141.270492 57.6412955,141.344262 C57.7153846,141.344262 57.7894737,141.344262 57.7894737,141.418033 C57.8635628,141.418033 57.9376518,141.418033 57.9376518,141.491803 C58.0117409,141.491803 58.08583,141.491803 58.08583,141.491803 C58.159919,141.491803 58.159919,141.491803 58.2340081,141.491803 C58.2340081,141.491803 58.2340081,141.491803 58.2340081,141.491803 C58.2340081,141.491803 58.2340081,141.491803 58.3080972,141.491803 C58.3821862,141.491803 58.4562753,141.491803 58.5303644,141.491803 C58.6044534,141.491803 58.6785425,141.491803 58.7526316,141.491803 C58.8267206,141.491803 58.9008097,141.491803 58.9748988,141.491803 C58.9748988,141.491803 58.9748988,141.491803 58.9748988,141.491803 C58.9748988,141.491803 58.9748988,141.491803 58.9748988,141.491803 C59.0489879,141.491803 59.197166,141.418033 59.2712551,141.418033 C59.4194332,141.344262 59.4935223,141.344262 59.6417004,141.270492 L61.4939271,140.237705 C61.345749,140.311475 61.1234818,140.385246 60.9753036,140.385246 C60.9753036,140.385246 60.9753036,140.385246 60.9753036,140.385246 C60.7530364,140.459016 60.5307692,140.459016 60.234413,140.385246 C60.234413,140.385246 60.234413,140.385246 60.234413,140.385246 C60.0121457,140.385246 59.7157895,140.311475 59.4935223,140.237705 C59.4935223,140.237705 59.4935223,140.237705 59.4935223,140.237705 C59.197166,140.163934 58.9008097,140.016393 58.6785425,139.868852 C58.3821862,139.721311 58.08583,139.5 57.8635628,139.278689 C57.8635628,139.278689 57.8635628,139.278689 57.8635628,139.278689 C57.5672065,139.057377 57.3449393,138.836066 57.1226721,138.540984 C57.1226721,138.540984 57.1226721,138.540984 57.1226721,138.540984 C56.6040486,138.02459 56.1595142,137.434426 55.7890688,136.770492 C55.7890688,136.770492 55.7890688,136.770492 55.7890688,136.696721 C55.6408907,136.401639 55.4186235,136.032787 55.2704453,135.737705 C55.2704453,135.737705 55.2704453,135.737705 55.2704453,135.737705 C55.1222672,135.368852 54.9740891,135.07377 54.9,134.704918 C54.9,134.704918 54.9,134.704918 54.9,134.704918 C54.8259109,134.336066 54.7518219,134.040984 54.6777328,133.672131 C54.6777328,133.672131 54.6777328,133.672131 54.6777328,133.672131 C54.6036437,133.303279 54.6036437,133.008197 54.6036437,132.639344 L54.6036437,120.245902 C54.4554656,120.02459 54.3072874,119.803279 54.1591093,119.581967 C54.0850202,119.434426 53.9368421,119.286885 53.862753,119.139344 C53.7145749,118.844262 53.5663968,118.54918 53.4182186,118.327869 C53.4182186,118.327869 53.4182186,118.254098 53.4182186,118.254098 C53.2700405,117.959016 53.0477733,117.590164 52.8995951,117.221311 C52.8995951,117.221311 52.8995951,117.221311 52.8995951,117.221311 C52.751417,116.852459 52.6032389,116.557377 52.4550607,116.188525 C52.4550607,116.188525 52.4550607,116.188525 52.4550607,116.114754 C52.3068826,115.745902 52.2327935,115.45082 52.1587045,115.081967 C52.1587045,115.081967 52.1587045,115.081967 52.1587045,115.081967 C52.0846154,114.713115 52.0105263,114.344262 51.9364372,114.04918 C51.9364372,114.04918 51.9364372,114.04918 51.9364372,114.04918 C51.8623482,113.680328 51.7882591,113.385246 51.7882591,113.016393 C51.7882591,113.016393 51.7882591,113.016393 51.7882591,113.016393 C51.7882591,112.647541 51.71417,112.352459 51.71417,111.983607 C51.8623482,111.467213 51.8623482,111.172131 51.9364372,110.877049 C51.9364372,110.95082 51.9364372,110.877049 51.9364372,110.877049 Z" id="Path" fill="#21934F"></path>
                    <g opacity="0.2" transform="translate(88.165992, 109.918033)" id="Path" stroke="#FFFFFF" stroke-width="1.8905">
                        <g>
                            <path d="M5.55668016,5.31147541 C5.55668016,3.6147541 4.37125506,1.54918033 2.88947368,0.737704918 C1.40769231,-0.0737704918 0.222267206,0.590163934 0.222267206,2.28688525 C0.222267206,3.98360656 1.40769231,5.97540984 2.88947368,6.86065574 C4.37125506,7.67213115 5.55668016,7.00819672 5.55668016,5.31147541 Z"></path>
                        </g>
                        <g transform="translate(0.000000, 53.114754)">
                            <path d="M5.55668016,5.3852459 C5.55668016,3.68852459 4.37125506,1.62295082 2.88947368,0.81147541 C1.40769231,-8.29891711e-14 0.222267206,0.663934426 0.222267206,2.36065574 C0.222267206,4.05737705 1.40769231,6.04918033 2.88947368,6.93442623 C4.37125506,7.74590164 5.55668016,7.08196721 5.55668016,5.3852459 Z"></path>
                        </g>
                    </g>
                    <g opacity="0.2" transform="translate(27.412955, 75.245902)" id="Path" stroke="#FFFFFF" stroke-width="1.8905">
                        <g>
                            <path d="M5.85303644,4.94262295 C5.85303644,3.24590164 4.66761134,1.18032787 3.18582996,0.368852459 C1.70404858,-0.442622951 0.518623482,0.221311475 0.518623482,1.91803279 C0.518623482,3.6147541 1.70404858,5.60655738 3.18582996,6.49180328 C4.59352227,7.30327869 5.85303644,6.63934426 5.85303644,4.94262295 Z"></path>
                        </g>
                        <g transform="translate(0.000000, 53.114754)">
                            <path d="M5.85303644,5.01639344 C5.85303644,3.31967213 4.66761134,1.25409836 3.18582996,0.442622951 C1.70404858,-0.368852459 0.518623482,0.295081967 0.518623482,1.99180328 C0.518623482,3.68852459 1.70404858,5.68032787 3.18582996,6.56557377 C4.59352227,7.30327869 5.85303644,6.63934426 5.85303644,5.01639344 Z"></path>
                        </g>
                    </g>
                    <path d="M98.5384615,74.1393443 C98.5384615,73.9918033 98.5384615,73.8442623 98.5384615,73.6967213 C98.5384615,73.8442623 98.5384615,73.9918033 98.5384615,74.1393443 Z" id="Path"></path>
                    <polygon id="Path" fill="#19042D" points="116.542105 71.6311475 135.138462 60.7868852 131.804453 58.8688525 113.208097 69.7131148 113.874899 70.0819672 115.875304 71.2622951"></polygon>
                    <polygon id="Path" fill="#19042D" points="149.437652 58.352459 146.177733 60.2704918 161.736437 69.2704918 165.070445 67.352459"></polygon>
                    <path d="M132.471255,60.7868852 C136.84251,62.852459 143.21417,62.852459 147.585425,60.7868852 C147.881781,60.6393443 148.178138,60.4918033 148.474494,60.3442623 C153.142105,57.6885246 153.068016,53.2622951 148.400405,50.6065574 C148.104049,50.4590164 147.807692,50.3114754 147.585425,50.1639344 C143.21417,48.0983607 136.916599,48.0983607 132.545344,50.0901639 C132.248988,50.2377049 131.878543,50.3852459 131.582186,50.6065574 C126.988664,53.2622951 126.988664,57.6147541 131.656275,60.3442623 C131.878543,60.4918033 132.174899,60.6393443 132.471255,60.7868852 Z M132.471255,55.2540984 C132.545344,54.2213115 133.286235,53.1885246 134.619838,52.3770492 C137.583401,50.6803279 142.325101,50.6803279 145.288664,52.3770492 C148.252227,54.0737705 148.252227,56.8032787 145.288664,58.5 C142.325101,60.1967213 137.583401,60.1967213 134.619838,58.5 C133.212146,57.6885246 132.471255,56.6557377 132.397166,55.6229508 C132.471255,55.4754098 132.471255,55.4016393 132.471255,55.2540984 Z" id="Shape" fill="#19042D" fill-rule="nonzero"></path>
                    <path d="M136.990688,57.6147541 C138.768826,58.4262295 141.361943,58.4262295 143.140081,57.6147541 C143.288259,57.5409836 143.362348,57.4672131 143.510526,57.3934426 C145.362753,56.2868852 145.362753,54.5163934 143.510526,53.4836066 C143.436437,53.4098361 143.288259,53.3360656 143.140081,53.3360656 C141.361943,52.5245902 138.842915,52.5245902 137.064777,53.3360656 C136.916599,53.4098361 136.768421,53.4836066 136.694332,53.557377 C134.842105,54.6639344 134.842105,56.4344262 136.694332,57.4672131 C136.694332,57.4672131 136.84251,57.5409836 136.990688,57.6147541 Z" id="Path" fill="url(#linearGradient-5)"></path>
                    <path d="M8.96477733,55.8442623 C10.742915,56.6557377 13.3360324,56.6557377 15.11417,55.8442623 C15.2623482,55.7704918 15.3364372,55.6967213 15.4846154,55.6229508 C17.3368421,54.5163934 17.3368421,52.7459016 15.4846154,51.7131148 C15.4105263,51.6393443 15.2623482,51.5655738 15.11417,51.5655738 C13.3360324,50.7540984 10.817004,50.7540984 9.0388664,51.5655738 C8.89068826,51.6393443 8.74251012,51.7131148 8.66842105,51.7868852 C6.81619433,52.8934426 6.81619433,54.6639344 8.66842105,55.6967213 C8.74251012,55.7704918 8.89068826,55.7704918 8.96477733,55.8442623 Z" id="Path" fill="url(#linearGradient-6)"></path>
                    <path d="M162.921862,78.1967213 C167.293117,80.2622951 173.664777,80.2622951 178.036032,78.1967213 C178.332389,78.0491803 178.628745,77.9016393 178.925101,77.7540984 C183.592713,75.0983607 183.518623,70.6721311 178.851012,68.0163934 C178.554656,67.8688525 178.2583,67.7213115 178.036032,67.5737705 C173.664777,65.5081967 167.367206,65.5081967 162.995951,67.5 C162.699595,67.647541 162.32915,67.795082 162.032794,68.0163934 C157.365182,70.6721311 157.439271,75.0245902 162.106883,77.7540984 C162.32915,77.9016393 162.625506,78.0491803 162.921862,78.1967213 Z M162.921862,72.6639344 C162.995951,71.6311475 163.736842,70.5983607 165.070445,69.7868852 C168.034008,68.0901639 172.775709,68.0901639 175.739271,69.7868852 C178.702834,71.4836066 178.702834,74.2131148 175.739271,75.9098361 C172.775709,77.6065574 168.034008,77.6065574 165.070445,75.9098361 C163.662753,75.0983607 162.921862,74.0655738 162.847773,73.0327869 C162.921862,72.9590164 162.921862,72.8114754 162.921862,72.6639344 Z" id="Shape" fill="#19042D" fill-rule="nonzero"></path>
                    <path d="M98.5384615,68.6803279 C98.5384615,68.6803279 98.5384615,68.6065574 98.5384615,68.6803279 C98.2421053,68.8278689 97.8716599,68.9754098 97.5753036,69.1229508 C92.9076923,71.7786885 92.9817814,76.1311475 97.6493927,78.8606557 C97.945749,79.0081967 98.2421053,79.1557377 98.5384615,79.3032787 C102.909717,81.3688525 109.281377,81.3688525 113.652632,79.3032787 C113.948988,79.1557377 114.245344,79.0081967 114.5417,78.8606557 C119.209312,76.204918 119.135223,71.7786885 114.467611,69.1229508 C114.171255,68.9754098 113.874899,68.8278689 113.652632,68.6803279 C113.652632,69.1229508 113.652632,69.5655738 113.652632,69.9344262 C113.652632,71.1885246 113.652632,72.442623 113.652632,73.6967213 L113.578543,73.6967213 C113.652632,74.8770492 112.98583,76.1311475 111.42996,77.0163934 C108.466397,78.7131148 103.724696,78.7131148 100.761134,77.0163934 C99.3534413,76.204918 98.6125506,75.1721311 98.5384615,74.1393443 C98.5384615,73.9918033 98.5384615,73.8442623 98.5384615,73.6967213 C98.5384615,72.0737705 98.5384615,70.3770492 98.5384615,68.6803279 Z" id="Path" fill="#19042D"></path>
                    <path d="M33.4882591,31.204918 C33.4882591,31.204918 33.4882591,31.204918 33.4882591,31.204918 C33.1919028,31.352459 32.8214575,31.5 32.5251012,31.647541 C27.8574899,34.3032787 27.9315789,38.6557377 32.5991903,41.3852459 C32.8955466,41.5327869 33.1919028,41.6803279 33.4882591,41.8278689 C37.8595142,43.8934426 44.2311741,43.8934426 48.6024291,41.8278689 C48.8987854,41.6803279 49.1951417,41.5327869 49.491498,41.3852459 C54.1591093,38.7295082 54.0850202,34.3032787 49.4174089,31.647541 C49.1210526,31.5 48.8246964,31.352459 48.6024291,31.204918 C48.6024291,31.647541 48.6024291,32.0901639 48.6024291,32.4590164 C48.6024291,33.7131148 48.6024291,34.9672131 48.6024291,36.2213115 C48.6765182,37.4016393 48.0097166,38.6557377 46.3797571,39.5409836 C43.4161943,41.2377049 38.6744939,41.2377049 35.7109312,39.5409836 C34.3032389,38.7295082 33.5623482,37.6967213 33.4882591,36.6639344 C33.4882591,36.5163934 33.4882591,36.3688525 33.4882591,36.2213115 C33.4882591,34.5983607 33.4882591,32.9016393 33.4882591,31.204918 Z" id="Path" fill="#19042D"></path>
                    <polygon id="Path" fill="#19042D" points="62.382996 75.6147541 85.1283401 62.4098361 81.794332 60.4918033 59.0489879 73.6967213 59.7157895 74.0655738 61.7161943 75.2459016"></polygon>
                    <polygon id="Path" fill="#19042D" points="32.0805668 39.6885246 16.8923077 48.3934426 20.2263158 50.3114754 35.4145749 41.6065574"></polygon>
                    <path d="M46.0834008,82.9180328 C50.4546559,84.9836066 56.8263158,84.9836066 61.1975709,82.9180328 C61.4939271,82.7704918 61.7902834,82.6229508 62.0866397,82.4754098 C66.754251,79.8196721 66.6801619,75.3934426 62.0125506,72.7377049 C61.7161943,72.5901639 61.4198381,72.442623 61.1975709,72.295082 C56.8263158,70.2295082 50.5287449,70.2295082 46.1574899,72.2213115 C45.8611336,72.3688525 45.4906883,72.5163934 45.194332,72.7377049 C40.6008097,75.3934426 40.6008097,79.7459016 45.2684211,82.4754098 C45.4906883,82.6229508 45.7870445,82.7704918 46.0834008,82.9180328 Z M46.0834008,77.3852459 C46.1574899,76.352459 46.8983806,75.3196721 48.2319838,74.5081967 C51.1955466,72.8114754 55.937247,72.8114754 58.9008097,74.5081967 C61.8643725,76.204918 61.8643725,78.9344262 58.9008097,80.6311475 C55.937247,82.3278689 51.1955466,82.3278689 48.2319838,80.6311475 C46.8242915,79.8196721 46.0834008,78.7868852 46.0093117,77.7540984 C46.0834008,77.6803279 46.0834008,77.5327869 46.0834008,77.3852459 Z" id="Shape" fill="#19042D" fill-rule="nonzero"></path>
                    <path d="M4.5194332,59.0163934 C8.89068826,61.0819672 15.2623482,61.0819672 19.6336032,59.0163934 C19.9299595,58.8688525 20.2263158,58.7213115 20.5226721,58.5737705 C25.1902834,55.9180328 25.1161943,51.4918033 20.448583,48.8360656 C20.1522267,48.6885246 19.8558704,48.5409836 19.6336032,48.3934426 C15.2623482,46.3278689 8.96477733,46.3278689 4.59352227,48.3196721 C4.29716599,48.4672131 3.92672065,48.6147541 3.63036437,48.8360656 C-1.03724696,51.4918033 -0.963157895,55.8442623 3.70445344,58.5737705 C3.92672065,58.7213115 4.22307692,58.8688525 4.5194332,59.0163934 Z M4.5194332,53.4836066 C4.59352227,52.4508197 5.33441296,51.4180328 6.66801619,50.6065574 C9.63157895,48.9098361 14.3732794,48.9098361 17.3368421,50.6065574 C20.3004049,52.3032787 20.3004049,55.0327869 17.3368421,56.7295082 C14.3732794,58.4262295 9.63157895,58.4262295 6.66801619,56.7295082 C5.26032389,55.9180328 4.5194332,54.8852459 4.44534413,53.852459 C4.5194332,53.7786885 4.5194332,53.6311475 4.5194332,53.4836066 Z" id="Shape" fill="#19042D" fill-rule="nonzero"></path>
                </g>
            </g>
        </g>
    </g>
</svg>