<?xml version="1.0" encoding="UTF-8"?>
<svg width="294px" height="589px" viewBox="0 0 294 589" version="1.1" xmlns="http://www.w3.org/2000/svg" xmlns:xlink="http://www.w3.org/1999/xlink">
    <!-- Generator: Sketch 55.1 (78136) - https://sketchapp.com -->
    <title>illustration</title>
    <desc>Created with Sketch.</desc>
    <defs>
        <linearGradient x1="53.0428866%" y1="51.1745467%" x2="44.2473724%" y2="61.0950205%" id="linearGradient-1">
            <stop stop-color="#CFA7F2" stop-opacity="0" offset="0%"></stop>
            <stop stop-color="#962BF0" offset="100%"></stop>
        </linearGradient>
        <linearGradient x1="55.4671348%" y1="56.5514484%" x2="48.9175332%" y2="29.163073%" id="linearGradient-2">
            <stop stop-color="#C2A8ED" offset="76.64%"></stop>
            <stop stop-color="#EADBFF" offset="83.07%"></stop>
            <stop stop-color="#EADBFF" offset="99.89%"></stop>
        </linearGradient>
        <linearGradient x1="57.8919125%" y1="62.7018413%" x2="42.0131649%" y2="37.1420593%" id="linearGradient-3">
            <stop stop-color="#360F59" offset="0.2852183%"></stop>
            <stop stop-color="#962BF0" offset="99.82%"></stop>
        </linearGradient>
        <linearGradient x1="55.4368745%" y1="56.5606675%" x2="48.9087766%" y2="29.188136%" id="linearGradient-4">
            <stop stop-color="#C2A8ED" offset="76.64%"></stop>
            <stop stop-color="#EADBFF" offset="83.07%"></stop>
            <stop stop-color="#EADBFF" offset="99.89%"></stop>
        </linearGradient>
    </defs>
    <g id="💜-Symbols" stroke="none" stroke-width="1" fill="none" fill-rule="evenodd">
        <g id="illustration-/-hero" transform="translate(-88.000000, 0.000000)">
            <g id="illustration">
                <polygon id="Path" fill-opacity="0.5" fill="url(#linearGradient-1)" opacity="0.25" points="263.86631 384 103 476.419775 298.060469 587 459 494.580225"></polygon>
                <g id="Group" transform="translate(88.000000, 0.000000)">
                    <g transform="translate(0.000000, 3.671636)">
                        <path d="M0.147133758,449.481622 C0.147133758,461.010558 8.23949045,475.109638 18.3181529,480.910822 L197.012102,582.761992 C207.090764,588.563176 215.256688,583.936915 215.330255,572.334547 L216.801592,141.13767 C216.801592,129.608734 208.709236,115.509654 198.630573,109.70847 L19.9366242,7.85730004 C9.85796178,2.0561159 1.69203822,6.68237667 1.61847134,18.284745 L0.147133758,449.481622 Z M18.244586,441.918053 C15.0076433,440.082235 13.0949045,436.630898 13.0949045,432.959262 L14.4926752,49.7873778 C14.4926752,45.8220115 18.833121,43.3252993 22.2907643,45.3079825 L199.071975,147.599748 C201.499682,148.99497 203.633121,152.886904 203.633121,155.677347 L202.23535,539.36326 C202.23535,543.328626 197.894904,545.825338 194.437261,543.842655 L18.244586,441.918053 Z" id="Shape" fill="#FFFFFF" fill-rule="nonzero"></path>
                        <path d="M0.147133758,449.481622 C0.147133758,461.010558 8.23949045,475.109638 18.3181529,480.910822 L197.012102,582.761992 C207.090764,588.563176 215.256688,583.936915 215.330255,572.334547 L216.801592,141.13767 C216.801592,129.608734 208.709236,115.509654 198.630573,109.70847 L19.9366242,7.85730004 C9.85796178,2.0561159 1.69203822,6.68237667 1.61847134,18.284745 L0.147133758,449.481622 Z M18.244586,441.918053 C15.0076433,440.082235 13.0949045,436.630898 13.0949045,432.959262 L14.4926752,49.7873778 C14.4926752,45.8220115 18.833121,43.3252993 22.2907643,45.3079825 L199.071975,147.599748 C201.499682,148.99497 203.633121,152.886904 203.633121,155.677347 L202.23535,539.36326 C202.23535,543.328626 197.894904,545.825338 194.437261,543.842655 L18.244586,441.918053 Z" id="Shape" fill="#F4EDFF" fill-rule="nonzero"></path>
                        <path d="M17.8767516,6.75580938 C17.3617834,6.53551125 16.8468153,6.31521312 16.3318471,6.09491499 C16.3318471,6.09491499 16.2582803,6.09491499 16.2582803,6.09491499 C15.816879,5.94804956 15.3754777,5.80118414 14.9340764,5.72775143 C14.7133758,5.65431872 14.4191083,5.58088601 14.1984076,5.58088601 C13.9041401,5.5074533 13.5363057,5.43402059 13.2420382,5.43402059 C13.0213376,5.43402059 12.8742038,5.36058788 12.7270701,5.36058788 C12.3592357,5.36058788 11.9178344,5.36058788 11.55,5.36058788 C11.4764331,5.36058788 11.4028662,5.36058788 11.2557325,5.36058788 C10.8143312,5.36058788 10.3729299,5.43402059 9.93152866,5.5074533 C9.85796178,5.5074533 9.71082803,5.58088601 9.63726115,5.58088601 C9.26942675,5.65431872 8.97515924,5.72775143 8.60732484,5.87461685 C8.53375796,5.87461685 8.3866242,5.94804956 8.31305732,5.94804956 C7.87165605,6.09491499 7.50382166,6.31521312 7.13598726,6.53551125 L15.0812102,1.90925048 C15.0812102,1.90925048 15.1547771,1.83581777 15.1547771,1.83581777 C15.4490446,1.68895235 15.7433121,1.54208692 16.0375796,1.3952215 C16.1111465,1.3952215 16.1847134,1.32178879 16.1847134,1.32178879 C16.2582803,1.24835608 16.405414,1.24835608 16.4789809,1.24835608 C16.6261146,1.17492337 16.7732484,1.10149066 16.9203822,1.10149066 C17.0675159,1.02805795 17.2882166,1.02805795 17.4353503,0.954625239 C17.5089172,0.954625239 17.656051,0.881192528 17.7296178,0.881192528 C17.8031847,0.881192528 17.8767516,0.881192528 17.8767516,0.807759817 C18.244586,0.734327107 18.6124204,0.734327107 18.9802548,0.660894396 C18.9802548,0.660894396 19.0538217,0.660894396 19.0538217,0.660894396 C19.1273885,0.660894396 19.2009554,0.660894396 19.3480892,0.660894396 C19.6423567,0.660894396 19.9366242,0.660894396 20.2308917,0.660894396 C20.3044586,0.660894396 20.4515924,0.660894396 20.5251592,0.660894396 C20.672293,0.660894396 20.8929936,0.660894396 21.0401274,0.734327107 C21.1872611,0.734327107 21.4079618,0.734327107 21.5550955,0.807759817 C21.7022293,0.807759817 21.8493631,0.881192528 21.9964968,0.881192528 C22.2171975,0.954625239 22.511465,0.954625239 22.7321656,1.02805795 C22.8792994,1.02805795 23.0264331,1.10149066 23.1,1.10149066 C23.3942675,1.17492337 23.688535,1.24835608 24.0563694,1.3952215 C24.0563694,1.3952215 24.1299363,1.3952215 24.1299363,1.3952215 C24.4977707,1.54208692 24.8656051,1.68895235 25.2334395,1.83581777 C25.3805732,1.90925048 25.527707,1.98268319 25.6748408,2.0561159 C25.8219745,2.12954861 25.9691083,2.20298132 26.116242,2.27641403 C26.6312102,2.57014487 27.2197452,2.79044301 27.8082803,3.15760656 L206.502229,105.008776 C207.090764,105.37594 207.679299,105.743103 208.267834,106.110267 C208.488535,106.257132 208.635669,106.403998 208.856369,106.47743 C209.224204,106.771161 209.592038,107.064892 210.033439,107.358623 C210.25414,107.505488 210.474841,107.725787 210.621975,107.872652 C210.989809,108.166383 211.284076,108.460114 211.651911,108.753845 C211.872611,108.974143 212.093312,109.121008 212.240446,109.341306 C212.38758,109.488172 212.534713,109.561604 212.60828,109.70847 C212.755414,109.855335 212.828981,110.002201 212.976115,110.149066 C213.417516,110.589662 213.78535,111.030259 214.153185,111.470855 C214.300318,111.61772 214.447452,111.764586 214.521019,111.911451 C214.594586,112.058316 214.74172,112.131749 214.815287,112.278615 C215.035987,112.572345 215.256688,112.866076 215.550955,113.159807 C215.698089,113.380105 215.845223,113.526971 215.992357,113.747269 C216.13949,113.894134 216.213057,114.041 216.360191,114.261298 C216.507325,114.481596 216.728025,114.701894 216.875159,114.922192 C217.022293,115.069058 217.09586,115.215923 217.242994,115.362788 C217.463694,115.656519 217.610828,115.876817 217.831529,116.170548 C217.978662,116.317414 218.052229,116.537712 218.199363,116.684577 C218.27293,116.75801 218.27293,116.831443 218.346497,116.904875 C218.640764,117.418904 219.008599,117.932933 219.302866,118.446962 C219.302866,118.446962 219.376433,118.520395 219.376433,118.520395 C219.45,118.593828 219.523567,118.740693 219.523567,118.814126 C219.744268,119.181289 219.964968,119.548453 220.112102,119.915617 C220.185669,120.062482 220.259236,120.28278 220.406369,120.429646 C220.479936,120.576511 220.62707,120.796809 220.700637,120.943674 C220.774204,121.09054 220.847771,121.237405 220.921338,121.384271 C221.142038,121.824867 221.289172,122.265463 221.509873,122.70606 C221.509873,122.779492 221.583439,122.852925 221.583439,122.926358 C221.583439,122.926358 221.583439,122.99979 221.583439,122.99979 C221.80414,123.513819 222.024841,124.101281 222.245541,124.61531 C222.319108,124.688743 222.319108,124.835608 222.319108,124.909041 C222.392675,125.129339 222.466242,125.276204 222.539809,125.496503 C222.613376,125.790233 222.76051,126.010532 222.834076,126.304262 C222.907643,126.52456 222.98121,126.744859 223.054777,126.965157 C223.128344,127.185455 223.201911,127.479186 223.275478,127.699484 C223.349045,127.846349 223.349045,127.993215 223.422611,128.14008 C223.496178,128.433811 223.569745,128.727542 223.643312,128.94784 C223.716879,129.241571 223.790446,129.535302 223.864013,129.902465 C223.864013,129.975898 223.93758,130.122763 223.93758,130.196196 C224.011146,130.416494 224.011146,130.636792 224.084713,130.85709 C224.15828,131.371119 224.231847,131.811716 224.305414,132.325745 C224.305414,132.47261 224.378981,132.619475 224.378981,132.692908 C224.452548,132.986639 224.452548,133.28037 224.452548,133.574101 C224.452548,133.794399 224.526115,134.014697 224.526115,134.234995 C224.599682,134.89589 224.599682,135.556784 224.599682,136.217678 L223.128344,567.414555 C223.128344,573.142307 221.068471,577.181106 217.831529,579.090356 L209.886306,583.716617 C213.123248,581.807367 215.183121,577.768568 215.183121,572.040816 L216.654459,140.843939 C216.654459,140.183045 216.654459,139.52215 216.580892,138.861256 C216.580892,138.640958 216.507325,138.42066 216.507325,138.200361 C216.433758,137.759765 216.433758,137.319169 216.360191,136.878573 C216.286624,136.364544 216.213057,135.923947 216.13949,135.409918 C216.065924,135.042755 215.992357,134.749024 215.91879,134.381861 C215.845223,134.08813 215.771656,133.794399 215.698089,133.427235 C215.624522,132.986639 215.477389,132.546043 215.330255,132.105446 C215.256688,131.885148 215.183121,131.591418 215.109554,131.371119 C214.96242,130.85709 214.815287,130.416494 214.594586,129.902465 C214.521019,129.682167 214.447452,129.535302 214.373885,129.315003 C214.153185,128.654109 213.858917,127.993215 213.56465,127.33232 C213.56465,127.258888 213.491083,127.185455 213.491083,127.112022 C213.196815,126.52456 212.976115,125.937099 212.681847,125.349637 C212.60828,125.202772 212.534713,124.982474 212.38758,124.835608 C212.093312,124.248146 211.799045,123.734117 211.504777,123.220089 C211.43121,123.146656 211.357643,122.99979 211.357643,122.926358 C210.989809,122.265463 210.621975,121.678002 210.180573,121.09054 C210.033439,120.943674 209.959873,120.723376 209.812739,120.576511 C209.518471,120.135915 209.224204,119.695318 208.929936,119.254722 C208.782803,119.034424 208.562102,118.814126 208.414968,118.593828 C208.120701,118.226664 207.9,117.859501 207.605732,117.56577 C207.385032,117.272039 207.164331,116.978308 206.870064,116.684577 C206.649363,116.390846 206.428662,116.170548 206.207962,115.876817 C205.840127,115.436221 205.398726,114.995625 205.030892,114.555029 C204.736624,114.261298 204.515924,114.041 204.221656,113.747269 C204.000955,113.526971 203.780255,113.380105 203.633121,113.159807 C203.265287,112.866076 202.971019,112.572345 202.603185,112.278615 C202.382484,112.131749 202.161783,111.911451 202.01465,111.764586 C201.646815,111.470855 201.278981,111.177124 200.83758,110.883393 C200.616879,110.736528 200.469745,110.589662 200.249045,110.51623 C199.66051,110.149066 199.071975,109.781902 198.483439,109.414739 L19.9366242,7.85730004 C19.3480892,7.5635692 18.833121,7.26983836 18.244586,6.97610751 C18.1710191,6.9026748 18.0238854,6.82924209 17.8767516,6.75580938 Z" id="Path" fill="url(#linearGradient-2)"></path>
                    </g>
                    <path d="M14.4191083,41.2691834 L13.0213376,446.397448 C13.0213376,450.069084 15.0076433,453.520421 18.1710191,455.356239 L194.437261,557.207409 C197.894904,559.190092 202.161783,556.69338 202.23535,552.728013 L203.633121,147.599748 C203.633121,143.928113 201.646815,140.476776 198.483439,138.640958 L22.1436306,36.8632208 C18.6859873,34.8805376 14.4191083,37.303817 14.4191083,41.2691834 Z" id="Path" fill="url(#linearGradient-3)"></path>
                    <path d="M24.7920382,6.75580938 C24.2770701,6.53551125 23.7621019,6.31521312 23.2471338,6.09491499 C23.2471338,6.09491499 23.1735669,6.09491499 23.1735669,6.09491499 C22.7321656,5.94804956 22.2907643,5.80118414 21.8493631,5.72775143 C21.6286624,5.65431872 21.3343949,5.58088601 21.1136943,5.58088601 C20.8194268,5.5074533 20.4515924,5.43402059 20.1573248,5.43402059 C20.0101911,5.43402059 19.7894904,5.36058788 19.6423567,5.36058788 C19.2745223,5.36058788 18.833121,5.36058788 18.4652866,5.36058788 C18.3917197,5.36058788 18.3181529,5.36058788 18.1710191,5.36058788 C17.7296178,5.36058788 17.2882166,5.43402059 16.8468153,5.5074533 C16.7732484,5.5074533 16.6261146,5.58088601 16.5525478,5.58088601 C16.1847134,5.65431872 15.8904459,5.72775143 15.5226115,5.87461685 C15.4490446,5.87461685 15.3019108,5.94804956 15.2283439,5.94804956 C14.7869427,6.09491499 14.4191083,6.31521312 14.0512739,6.53551125 L21.9964968,1.90925048 C21.9964968,1.90925048 22.0700637,1.83581777 22.0700637,1.83581777 C22.3643312,1.68895235 22.6585987,1.54208692 22.9528662,1.3952215 C23.0264331,1.3952215 23.1,1.32178879 23.1,1.32178879 C23.1735669,1.24835608 23.3207006,1.24835608 23.3942675,1.24835608 C23.5414013,1.17492337 23.688535,1.10149066 23.8356688,1.10149066 C23.9828025,1.02805795 24.2035032,1.02805795 24.3506369,0.954625239 C24.4242038,0.954625239 24.5713376,0.881192528 24.6449045,0.881192528 C24.7184713,0.881192528 24.7920382,0.881192528 24.7920382,0.807759817 C25.1598726,0.734327107 25.527707,0.734327107 25.8955414,0.660894396 C25.8955414,0.660894396 25.9691083,0.660894396 25.9691083,0.660894396 C26.0426752,0.660894396 26.116242,0.660894396 26.2633758,0.660894396 C26.5576433,0.660894396 26.8519108,0.660894396 27.1461783,0.660894396 C27.2197452,0.660894396 27.366879,0.660894396 27.4404459,0.660894396 C27.5875796,0.660894396 27.8082803,0.660894396 27.955414,0.734327107 C28.1025478,0.734327107 28.3232484,0.734327107 28.4703822,0.807759817 C28.6175159,0.807759817 28.7646497,0.881192528 28.9117834,0.881192528 C29.1324841,0.954625239 29.4267516,0.954625239 29.6474522,1.02805795 C29.794586,1.02805795 29.9417197,1.10149066 30.0152866,1.10149066 C30.3095541,1.17492337 30.6038217,1.24835608 30.9716561,1.3952215 C30.9716561,1.3952215 31.0452229,1.3952215 31.0452229,1.3952215 C31.4130573,1.54208692 31.7808917,1.68895235 32.1487261,1.83581777 C32.2958599,1.90925048 32.4429936,1.98268319 32.5901274,2.0561159 C32.7372611,2.12954861 32.8843949,2.20298132 33.0315287,2.27641403 C33.5464968,2.57014487 34.1350318,2.79044301 34.7235669,3.15760656 L212.902548,105.008776 C213.491083,105.37594 214.079618,105.743103 214.668153,106.110267 C214.888854,106.257132 215.035987,106.403998 215.256688,106.47743 C215.624522,106.771161 215.992357,107.064892 216.433758,107.358623 C216.654459,107.505488 216.875159,107.725787 217.022293,107.872652 C217.390127,108.166383 217.684395,108.460114 218.052229,108.753845 C218.27293,108.974143 218.493631,109.121008 218.640764,109.341306 C218.787898,109.488172 218.935032,109.561604 219.008599,109.70847 C219.155732,109.855335 219.229299,110.002201 219.376433,110.149066 C219.817834,110.589662 220.185669,111.030259 220.553503,111.470855 C220.700637,111.61772 220.847771,111.764586 220.921338,111.911451 C220.994904,112.058316 221.142038,112.131749 221.215605,112.278615 C221.436306,112.572345 221.657006,112.866076 221.951274,113.159807 C222.098408,113.380105 222.245541,113.526971 222.392675,113.747269 C222.539809,113.894134 222.613376,114.041 222.76051,114.261298 C222.907643,114.481596 223.128344,114.701894 223.275478,114.922192 C223.422611,115.069058 223.496178,115.215923 223.643312,115.362788 C223.864013,115.656519 224.011146,115.876817 224.15828,116.170548 C224.305414,116.317414 224.378981,116.537712 224.526115,116.684577 C224.599682,116.75801 224.599682,116.831443 224.673248,116.904875 C224.967516,117.418904 225.33535,117.932933 225.629618,118.446962 C225.629618,118.446962 225.703185,118.520395 225.703185,118.520395 C225.776752,118.593828 225.850318,118.740693 225.850318,118.814126 C226.071019,119.181289 226.29172,119.548453 226.438854,119.915617 C226.51242,120.062482 226.585987,120.28278 226.733121,120.429646 C226.806688,120.576511 226.953822,120.796809 227.027389,120.943674 C227.100955,121.09054 227.174522,121.237405 227.248089,121.384271 C227.46879,121.824867 227.615924,122.265463 227.836624,122.70606 C227.836624,122.779492 227.910191,122.852925 227.910191,122.926358 C227.910191,122.926358 227.910191,122.99979 227.910191,122.99979 C228.130892,123.513819 228.351592,124.101281 228.572293,124.61531 C228.64586,124.688743 228.64586,124.835608 228.64586,124.909041 C228.719427,125.129339 228.792994,125.276204 228.866561,125.496503 C228.940127,125.790233 229.087261,126.010532 229.160828,126.304262 C229.234395,126.52456 229.307962,126.744859 229.381529,126.965157 C229.455096,127.185455 229.528662,127.479186 229.602229,127.699484 C229.675796,127.846349 229.675796,127.993215 229.749363,128.14008 C229.82293,128.433811 229.896497,128.727542 229.970064,128.94784 C230.043631,129.241571 230.117197,129.535302 230.190764,129.902465 C230.190764,129.975898 230.264331,130.122763 230.264331,130.196196 C230.337898,130.416494 230.337898,130.636792 230.411465,130.85709 C230.485032,131.371119 230.558599,131.811716 230.632166,132.325745 C230.632166,132.47261 230.705732,132.619475 230.705732,132.692908 C230.779299,132.986639 230.779299,133.28037 230.779299,133.574101 C230.779299,133.794399 230.852866,134.014697 230.852866,134.234995 C230.926433,134.89589 230.926433,135.556784 230.926433,136.217678 L229.455096,567.414555 C229.455096,573.142307 227.395223,577.181106 224.15828,579.090356 L216.213057,583.716617 C219.45,581.807367 221.509873,577.768568 221.509873,572.040816 L222.98121,140.843939 C222.98121,140.183045 222.98121,139.52215 222.907643,138.861256 C222.907643,138.640958 222.834076,138.42066 222.834076,138.200361 C222.76051,137.759765 222.76051,137.319169 222.686943,136.878573 C222.613376,136.364544 222.539809,135.923947 222.466242,135.409918 C222.392675,135.042755 222.319108,134.749024 222.245541,134.381861 C222.171975,134.08813 222.098408,133.794399 222.024841,133.427235 C221.951274,132.986639 221.80414,132.546043 221.657006,132.105446 C221.583439,131.885148 221.509873,131.591418 221.436306,131.371119 C221.289172,130.85709 221.142038,130.416494 220.921338,129.902465 C220.847771,129.682167 220.774204,129.535302 220.700637,129.315003 C220.479936,128.654109 220.185669,127.993215 219.891401,127.33232 C219.891401,127.258888 219.817834,127.185455 219.817834,127.112022 C219.523567,126.52456 219.302866,125.937099 219.008599,125.349637 C218.935032,125.202772 218.861465,124.982474 218.714331,124.835608 C218.420064,124.248146 218.125796,123.734117 217.831529,123.220089 C217.757962,123.146656 217.684395,122.99979 217.684395,122.926358 C217.316561,122.265463 216.948726,121.678002 216.507325,121.09054 C216.360191,120.943674 216.286624,120.723376 216.13949,120.576511 C215.845223,120.135915 215.550955,119.695318 215.256688,119.254722 C215.109554,119.034424 214.888854,118.814126 214.74172,118.593828 C214.447452,118.226664 214.226752,117.859501 213.932484,117.56577 C213.711783,117.272039 213.491083,116.978308 213.196815,116.684577 C212.976115,116.390846 212.755414,116.170548 212.534713,115.876817 C212.166879,115.436221 211.725478,114.995625 211.357643,114.555029 C211.136943,114.261298 210.842675,114.041 210.548408,113.747269 C210.327707,113.526971 210.107006,113.380105 209.959873,113.159807 C209.592038,112.866076 209.297771,112.572345 208.929936,112.278615 C208.709236,112.131749 208.488535,111.911451 208.341401,111.764586 C207.973567,111.470855 207.605732,111.177124 207.164331,110.883393 C206.943631,110.736528 206.796497,110.589662 206.649363,110.51623 C206.060828,110.149066 205.472293,109.781902 204.883758,109.414739 L26.8519108,7.78386733 C26.2633758,7.49013649 25.7484076,7.19640565 25.1598726,6.9026748 C25.0863057,6.82924209 24.939172,6.75580938 24.7920382,6.75580938 Z" id="Path" fill="url(#linearGradient-4)"></path>
                </g>
            </g>
        </g>
    </g>
</svg>