<?xml version="1.0" encoding="UTF-8"?>
<svg width="17px" height="17px" viewBox="0 0 17 17" version="1.1" xmlns="http://www.w3.org/2000/svg" xmlns:xlink="http://www.w3.org/1999/xlink">
    <!-- Generator: Sketch 55.1 (78136) - https://sketchapp.com -->
    <title>icon / date</title>
    <desc>Created with Sketch.</desc>
    <g id="💜-Symbols" stroke="none" stroke-width="1" fill="none" fill-rule="evenodd">
        <g id="date" transform="translate(-8.000000, -8.000000)" fill="#3CDC7C">
            <g id="icon-/-date">
                <g>
                    <path d="M17.5000113,12.4107195 L17.5000113,17.1607252 C17.5000113,17.3515736 17.3515736,17.5000113 17.1607252,17.5000113 L13.767864,17.5000113 C13.5770156,17.5000113 13.4285779,17.3515736 13.4285779,17.1607252 L13.4285779,16.482153 C13.4285779,16.2913045 13.5770156,16.1428668 13.767864,16.1428668 L16.1428668,16.1428668 L16.1428668,12.4107195 C16.1428668,12.2198711 16.2913045,12.0714334 16.482153,12.0714334 L17.1607252,12.0714334 C17.3515736,12.0714334 17.5000113,12.2198711 17.5000113,12.4107195 Z M21.9107309,16.1428668 C21.9107309,12.9620595 19.3236742,10.3750028 16.1428668,10.3750028 C12.9620595,10.3750028 10.3750028,12.9620595 10.3750028,16.1428668 C10.3750028,19.3236742 12.9620595,21.9107309 16.1428668,21.9107309 C19.3236742,21.9107309 21.9107309,19.3236742 21.9107309,16.1428668 Z M24.2857337,16.1428668 C24.2857337,20.6384079 20.6384079,24.2857337 16.1428668,24.2857337 C11.6473258,24.2857337 8,20.6384079 8,16.1428668 C8,11.6473258 11.6473258,8 16.1428668,8 C20.6384079,8 24.2857337,11.6473258 24.2857337,16.1428668 Z" id=""></path>
                </g>
            </g>
        </g>
    </g>
</svg>